<?xml version="1.0" encoding="UTF-8" standalone="no"?>
<svg
   width="24"
   height="24"
   viewBox="0 0 24 24"
   version="1.1"
   id="svg3"
   xmlns="http://www.w3.org/2000/svg"
   xmlns:svg="http://www.w3.org/2000/svg">
  <defs
     id="defs3" />
  <path

     d="M 12,1.25 C 10.353829,1.25 8.892232,1.7190401 7.8515625,2.7148438 6.810893,3.7106474 6.25,5.1931986 6.25,7 A 0.75,0.75 0 0 0 7,7.75 0.75,0.75 0 0 0 7.75,7 C 7.75,5.4930948 8.1824581,4.4745953 8.8886719,3.7988281 9.5948856,3.123061 10.633714,2.75 12,2.75 c 1.366308,0 2.40512,0.3730629 3.111328,1.0488281 C 15.817536,4.4745933 16.25,5.4930917 16.25,7 A 0.75,0.75 0 0 0 17,7.75 0.75,0.75 0 0 0 17.75,7 C 17.75,5.1932016 17.189103,3.7106494 16.148437,2.7148438 15.107772,1.7190381 13.646189,1.25 12,1.25 Z"
     id="path1" />
  <path

     d="M 12,11.25 A 0.75,0.75 0 0 0 11.25,12 v 2.5 A 0.75,0.75 0 0 0 12,15.25 0.75,0.75 0 0 0 12.75,14.5 V 12 A 0.75,0.75 0 0 0 12,11.25 Z"
     id="path2" />
  <path
     d="M 9.26556,20.6154 9.72058,20.0192 Z M 12,8.93062 11.4681,9.4594 C 11.6089,9.601 11.8003,9.68062 12,9.68062 c 0.1997,0 0.3911,-0.07962 0.5319,-0.22122 z m 2.7344,11.68478 0.4551,0.5962 z M 9.72058,20.0192 C 8.35148,18.9743 6.86905,17.964 5.69244,16.6814 4.54161,15.4268 3.75,13.9756 3.75,12.0992 h -1.5 c 0,2.3608 1.01713,4.1572 2.33706,5.5961 1.29415,1.4109 2.9445,2.5401 4.22348,3.5163 z M 3.75,12.0992 C 3.75,10.2748 4.81485,8.7347 6.28482,8.08418 7.71357,7.4519 9.63741,7.61795 11.4681,9.4594 L 12.5319,8.40184 C 10.3127,6.16968 7.73658,5.8014 5.67779,6.7125 3.66023,7.60535 2.25,9.68634 2.25,12.0992 Z m 5.06054,9.1124 C 9.27099,21.563 9.76987,21.9413 10.2764,22.2279 10.7832,22.5146 11.3656,22.75 12,22.75 v -1.5 c -0.2656,0 -0.5832,-0.1004 -0.985,-0.3277 -0.4021,-0.2274 -0.8204,-0.5414 -1.29442,-0.9031 z m 6.37896,0 c 1.2789,-0.9762 2.9293,-2.1054 4.2234,-3.5163 1.32,-1.4389 2.3371,-3.2353 2.3371,-5.5961 h -1.5 c 0,1.8764 -0.7916,3.3276 -1.9424,4.5822 -1.1767,1.2826 -2.6591,2.2929 -4.0282,3.3378 z M 21.75,12.0992 C 21.75,9.68634 20.3398,7.60535 18.3222,6.7125 16.2634,5.8014 13.6873,6.16968 11.4681,8.40184 l 1.0638,1.05756 c 1.8307,-1.84145 3.7545,-2.0075 5.1833,-1.37522 1.47,0.65052 2.5348,2.19062 2.5348,4.01502 z m -7.4706,7.92 c -0.474,0.3617 -0.8923,0.6757 -1.2944,0.9031 C 12.5832,21.1496 12.2656,21.25 12,21.25 v 1.5 c 0.6344,0 1.2168,-0.2354 1.7236,-0.5221 0.5065,-0.2866 1.0054,-0.6649 1.4659,-1.0163 z"

     id="path3" />
</svg>
