<?xml version="1.0" encoding="UTF-8" standalone="no"?>
<svg
   width="24"
   height="24"
   viewBox="0 0 24 24"
   version="1.1"
   id="svg3"
   xmlns="http://www.w3.org/2000/svg"
   xmlns:svg="http://www.w3.org/2000/svg">
  <defs
     id="defs3" />
  <path

     d="M 7,15.25 A 0.75,0.75 0 0 0 6.25,16 v 5 A 0.75,0.75 0 0 0 7,21.75 0.75,0.75 0 0 0 7.75,21 V 16 A 0.75,0.75 0 0 0 7,15.25 Z m 10,0 A 0.75,0.75 0 0 0 16.25,16 v 5 A 0.75,0.75 0 0 0 17,21.75 0.75,0.75 0 0 0 17.75,21 V 16 A 0.75,0.75 0 0 0 17,15.25 Z"
     id="path1" />
  <path
  
     d="m 8.5,11.25 c -0.8249542,0 -1.4603367,-0.006 -2.0332031,0.08203 -0.5728664,0.08803 -1.1319405,0.316801 -1.5195313,0.759766 -0.4323823,0.494121 -0.5886785,1.127697 -0.6503906,1.845703 -0.038725,0.450501 -0.075033,0.80568 -0.050781,1.167969 0.024252,0.362289 0.149103,0.77659 0.4257813,1.078125 0.2881503,0.31393 0.7024855,0.464206 1.0761719,0.517578 C 6.1217333,16.754544 6.5075255,16.75 7,16.75 h 10 c 0.4925,0 0.878273,0.0045 1.251953,-0.04883 0.373681,-0.05337 0.786092,-0.203663 1.074219,-0.517578 h 0.002 c 0.276673,-0.301529 0.401514,-0.715843 0.425781,-1.078125 0.02422,-0.36228 -0.01213,-0.717467 -0.05083,-1.167967 -0.06171,-0.718065 -0.218016,-1.351626 -0.650391,-1.845703 C 18.665167,11.648798 18.106071,11.420056 17.533203,11.332031 16.960336,11.244006 16.324949,11.25 15.5,11.25 Z m 0,1.5 h 7 c 0.824949,0 1.426409,0.006 1.806641,0.06445 0.380231,0.05842 0.492255,0.122825 0.617187,0.265625 0.139425,0.159322 0.235063,0.401441 0.285156,0.984375 0.0387,0.4505 0.06016,0.770261 0.04883,0.939453 -0.01133,0.169193 -0.01463,0.143645 -0.03516,0.166016 -0.0091,0.0099 0.0095,0.0193 -0.183594,0.04687 C 17.845993,15.244373 17.4925,15.25 17,15.25 H 7 c -0.4924745,0 -0.8459745,-0.0056 -1.0390625,-0.0332 -0.193088,-0.02758 -0.1745343,-0.037 -0.1835938,-0.04687 -0.020521,-0.02236 -0.023831,0.0032 -0.035156,-0.166016 -0.011325,-0.169185 0.010103,-0.488955 0.048828,-0.939453 0.050108,-0.582992 0.1457791,-0.825096 0.2851563,-0.984375 0.1249787,-0.142834 0.2369548,-0.2072 0.6171875,-0.265625 C 7.073592,12.756028 7.6750458,12.75 8.5,12.75 Z"
     id="path2" />
  <path
  
     d="M 12,2.25 C 10.130802,2.25 9.0728859,2.2046942 8.125,2.7519531 7.5549643,3.081068 7.081068,3.5549643 6.7519531,4.125 6.2046989,5.0728778 6.25,6.1307719 6.25,8 v 4.75 h 11.5 V 8 C 17.75,6.1307719 17.79527,5.0728747 17.248047,4.125 16.918943,3.5549622 16.445091,3.081071 15.875,2.7519531 14.9271,2.2047255 13.869198,2.25 12,2.25 Z m 0,1.5 c 1.869198,0 2.680501,0.04417 3.125,0.3007812 C 15.467108,4.2482828 15.751723,4.5329187 15.949219,4.875 16.205793,5.3194239 16.25,6.1307719 16.25,8 v 3.25 H 7.75 V 8 C 7.75,6.1307719 7.7941963,5.3194208 8.0507813,4.875 8.2482859,4.5329167 8.5329167,4.2482859 8.875,4.0507812 9.3194127,3.794201 10.130802,3.75 12,3.75 Z"
     id="path3" />
</svg>
