<?xml version="1.0" encoding="UTF-8" standalone="no"?>
<svg
   width="24"
   height="24"
   viewBox="0 0 24 24"

   version="1.1"
   id="svg8"
   xmlns="http://www.w3.org/2000/svg"
   xmlns:svg="http://www.w3.org/2000/svg">
  <defs
     id="defs8" />
  <path

     d="M 5,20.75 A 0.75,0.75 0 0 0 4.25,21.5 V 22 A 0.75,0.75 0 0 0 5,22.75 0.75,0.75 0 0 0 5.75,22 V 21.5 A 0.75,0.75 0 0 0 5,20.75 Z m 14,0 A 0.75,0.75 0 0 0 18.25,21.5 V 22 A 0.75,0.75 0 0 0 19,22.75 0.75,0.75 0 0 0 19.75,22 V 21.5 A 0.75,0.75 0 0 0 19,20.75 Z"
     id="path1" />
  <path

     d="M 12,1.25 A 0.75,0.75 0 0 0 11.25,2 V 21 A 0.75,0.75 0 0 0 12,21.75 0.75,0.75 0 0 0 12.75,21 V 2 A 0.75,0.75 0 0 0 12,1.25 Z"
     id="path2" />
  <path

     d="M 15,7.25 A 0.75,0.75 0 0 0 14.25,8 v 2 A 0.75,0.75 0 0 0 15,10.75 0.75,0.75 0 0 0 15.75,10 V 8 A 0.75,0.75 0 0 0 15,7.25 Z"
     id="path3" />
  <path
 
     d="M 10,1.25 C 8.1143819,1.25 6.6859363,1.2444746 5.5117187,1.4023437 4.3375012,1.5602129 3.3686723,1.9125839 2.640625,2.640625 1.9125839,3.3686723 1.5602129,4.3375012 1.4023437,5.5117187 1.2444746,6.6859363 1.25,8.1143819 1.25,10 v 3 c 0,1.885598 -0.00553,3.314057 0.1523437,4.488281 0.1578691,1.174225 0.5102188,2.143075 1.2382813,2.871094 0.7280455,0.728058 1.6968741,1.080408 2.8710937,1.238281 C 6.6859384,21.75553 8.1143819,21.75 10,21.75 h 4 c 1.885598,0 3.314055,0.0055 4.488281,-0.152344 1.174227,-0.157873 2.143077,-0.510202 2.871094,-1.238281 0.728079,-0.728017 1.080408,-1.696867 1.238281,-2.871094 C 22.75553,16.314055 22.75,14.885598 22.75,13 V 10 C 22.75,8.1143819 22.7555,6.6859384 22.597656,5.5117187 22.439783,4.3374991 22.087433,3.3686705 21.359375,2.640625 20.631356,1.9125625 19.662506,1.5602128 18.488281,1.4023437 17.314057,1.2444747 15.885598,1.25 14,1.25 Z m 0,1.5 h 4 c 1.885598,0 3.284764,0.0056 4.289062,0.140625 1.004299,0.1350232 1.566286,0.3670405 2.009766,0.8105469 0.443541,0.4435333 0.675521,1.0054774 0.810547,2.0097656 C 21.244401,6.7152257 21.25,8.1143819 21.25,10 v 3 c 0,1.885598 -0.0056,3.284766 -0.140625,4.289062 -0.135026,1.004297 -0.367027,1.566284 -0.810547,2.009766 -0.443482,0.44352 -1.005469,0.675521 -2.009766,0.810547 C 17.284766,20.244401 15.885598,20.25 14,20.25 H 10 C 8.1143819,20.25 6.7152257,20.2444 5.7109375,20.109375 4.7066493,19.974349 4.1447052,19.742369 3.7011719,19.298828 3.2576655,18.855348 3.0256482,18.293361 2.890625,17.289062 2.7556018,16.284764 2.75,14.885598 2.75,13 V 10 C 2.75,8.1143819 2.7556,6.7152278 2.890625,5.7109375 3.0256481,4.7066472 3.2576441,4.1447034 3.7011719,3.7011719 4.1447034,3.2576441 4.7066472,3.0256481 5.7109375,2.890625 6.7152278,2.7556019 8.1143819,2.75 10,2.75 Z"
     id="path4" />
  <path

     d="M 2,7.25 A 0.75,0.75 0 0 0 1.25,8 0.75,0.75 0 0 0 2,8.75 H 12 A 0.75,0.75 0 0 0 12.75,8 0.75,0.75 0 0 0 12,7.25 Z"
     id="path5" />
  <path

     d="M 2,14.25 A 0.75,0.75 0 0 0 1.25,15 0.75,0.75 0 0 0 2,15.75 H 22 A 0.75,0.75 0 0 0 22.75,15 0.75,0.75 0 0 0 22,14.25 Z"
     id="path6" />
  <path

     d="M 15,17.25 A 0.75,0.75 0 0 0 14.25,18 0.75,0.75 0 0 0 15,18.75 h 2 A 0.75,0.75 0 0 0 17.75,18 0.75,0.75 0 0 0 17,17.25 Z"
     id="path7" />
  <path

     d="M 7,17.25 A 0.75,0.75 0 0 0 6.25,18 0.75,0.75 0 0 0 7,18.75 H 9 A 0.75,0.75 0 0 0 9.75,18 0.75,0.75 0 0 0 9,17.25 Z"
     id="path8" />
</svg>
