<?xml version="1.0" encoding="UTF-8" standalone="no"?>
<svg
   width="24"
   height="24"
   viewBox="0 0 24 24"

   version="1.1"
   id="svg7"
   xmlns="http://www.w3.org/2000/svg"
   xmlns:svg="http://www.w3.org/2000/svg">
  <defs
     id="defs7" />
  <path
   
     d="M 5,20.75 A 0.75,0.75 0 0 0 4.25,21.5 V 22 A 0.75,0.75 0 0 0 5,22.75 0.75,0.75 0 0 0 5.75,22 V 21.5 A 0.75,0.75 0 0 0 5,20.75 Z m 14,0 A 0.75,0.75 0 0 0 18.25,21.5 V 22 A 0.75,0.75 0 0 0 19,22.75 0.75,0.75 0 0 0 19.75,22 V 21.5 A 0.75,0.75 0 0 0 19,20.75 Z"
     id="path1" />
  <path
   
     d="M 12,14.25 A 0.75,0.75 0 0 0 11.25,15 v 6 A 0.75,0.75 0 0 0 12,21.75 0.75,0.75 0 0 0 12.75,21 V 15 A 0.75,0.75 0 0 0 12,14.25 Z"
     id="path2" />
  <path
     d="m 2.87867,20.1213 -0.53033,0.5304 v 0 z M 2.00172,16.0001 1.25174,16.0042 v 0 z m 19.11958,4.1212 0.5303,0.5304 v -1e-4 z m 0.8769,-4.1212 0.75,0.0041 v 0 z M 16,20.25 H 7.99999 v 1.5 H 16 Z m -8.00001,0 C 6.56457,20.25 5.56346,20.2484 4.80811,20.1469 4.07433,20.0482 3.68576,19.8678 3.409,19.591 l -1.06066,1.0607 c 0.60191,0.6019 1.35979,0.8608 2.2599,0.9818 0.87853,0.1181 1.99874,0.1165 3.39175,0.1165 z M 1.25174,16.0042 c 0.00602,1.0815 0.0319,1.9829 0.1672,2.7195 0.13923,0.758 0.40447,1.403 0.9294,1.928 L 3.409,19.591 C 3.16554,19.3475 2.99837,19.0195 2.89425,18.4527 2.7862,17.8644 2.7578,17.0894 2.75171,15.9959 Z M 16,21.75 c 1.393,0 2.5132,0.0016 3.3917,-0.1165 0.9001,-0.121 1.658,-0.3799 2.2599,-0.9818 L 20.591,19.591 c -0.2768,0.2768 -0.6654,0.4572 -1.3991,0.5559 C 18.4365,20.2484 17.4354,20.25 16,20.25 Z m 5.2483,-5.7541 c -0.0061,1.0935 -0.0345,1.8685 -0.1426,2.4568 -0.1041,0.5668 -0.2713,0.8948 -0.5147,1.1383 l 1.0606,1.0606 c 0.525,-0.5249 0.7902,-1.1699 0.9294,-1.9279 0.1353,-0.7366 0.1612,-1.638 0.1672,-2.7195 z M 2.99999,15.75 H 21 v -1.5 H 2.99999 Z M 22.7482,16.0042 C 22.7536,15.0324 21.9644,14.25 21,14.25 v 1.5 c 0.1401,0 0.249,0.1131 0.2483,0.2459 z M 2.75171,15.9959 C 2.75097,15.8631 2.85986,15.75 2.99999,15.75 v -1.5 c -0.96444,0 -1.75366,0.7824 -1.74825,1.7542 z"
 
     id="path3" />
  <path
   
     d="M 12,1.25 C 11.214355,1.25 10.467874,1.5660968 8.9746094,2.109375 7.9584998,2.4790633 6.8146085,2.8084061 5.9316406,2.8886719 5.3887415,2.9380309 5.1515316,2.9478281 4.8886719,3.0078125 3.7589063,3.2655685 2.9298031,4.1737956 2.7753906,5.3222656 2.7446801,5.5506324 2.75,5.7487791 2.75,6.1367187 V 15 h 1.5 V 6.1367187 C 4.25,5.7487791 4.25675,5.5603905 4.261719,5.5234375 4.353606,4.8400094 4.5503636,4.6240867 5.2226562,4.4707031 5.2207963,4.4711276 5.5254396,4.4321734 6.0683594,4.3828125 7.1892495,4.2809185 8.4080129,3.9125622 9.4882813,3.5195313 10.981553,2.9762505 11.728046,2.75 12,2.75 c 0.271954,0 1.018415,0.22625 2.511719,0.7695313 1.080275,0.3930296 2.299059,0.7613866 3.419922,0.8632812 0.54289,0.049349 0.847449,0.088289 0.845703,0.087891 0.672258,0.1533808 0.86901,0.369285 0.960937,1.0527344 0.005,0.037156 0.01172,0.2253416 0.01172,0.6132812 V 15 h 1.5 V 6.1367187 c 0,-0.3879396 0.0052,-0.5862895 -0.02539,-0.8144531 C 21.070137,4.1738169 20.241068,3.2655713 19.111328,3.0078125 18.848582,2.9478743 18.611268,2.9380227 18.068359,2.8886719 17.185424,2.8084066 16.041513,2.4790646 15.025391,2.109375 13.532097,1.5660974 12.785645,1.25 12,1.25 Z"
     id="path4" />
  <path
   
     d="M 15,17.25 A 0.75,0.75 0 0 0 14.25,18 0.75,0.75 0 0 0 15,18.75 h 2 A 0.75,0.75 0 0 0 17.75,18 0.75,0.75 0 0 0 17,17.25 Z"
     id="path5" />
  <path
   
     d="M 7,17.25 A 0.75,0.75 0 0 0 6.25,18 0.75,0.75 0 0 0 7,18.75 H 9 A 0.75,0.75 0 0 0 9.75,18 0.75,0.75 0 0 0 9,17.25 Z"
     id="path6" />
  <path
   
     d="M 10.5,6.25 A 0.75,0.75 0 0 0 9.96875,6.46875 l -1,1 a 0.75,0.75 0 0 0 0,1.0625 0.75,0.75 0 0 0 1.0625,0 l 1,-1 a 0.75,0.75 0 0 0 0,-1.0625 A 0.75,0.75 0 0 0 10.5,6.25 Z m 3,1 a 0.75,0.75 0 0 0 -0.53125,0.21875 l -3,3 a 0.75,0.75 0 0 0 0,1.0625 0.75,0.75 0 0 0 1.0625,0 l 3,-3 a 0.75,0.75 0 0 0 0,-1.0625 A 0.75,0.75 0 0 0 13.5,7.25 Z m 1,3 a 0.75,0.75 0 0 0 -0.53125,0.21875 l -1,1 a 0.75,0.75 0 0 0 0,1.0625 0.75,0.75 0 0 0 1.0625,0 l 1,-1 a 0.75,0.75 0 0 0 0,-1.0625 A 0.75,0.75 0 0 0 14.5,10.25 Z"
     id="path7" />
</svg>
