<?xml version="1.0" encoding="UTF-8" standalone="no"?>
<svg
   width="24"
   height="24"
   viewBox="0 0 24 24"

   version="1.1"
   id="svg9"
   xmlns="http://www.w3.org/2000/svg"
   xmlns:svg="http://www.w3.org/2000/svg">
  <defs
     id="defs9" />
  <path
  
     d="M 12,1.25 C 9.6429774,1.25 7.860594,1.2449714 6.4140625,1.4394531 4.967531,1.6339349 3.8080817,2.0590998 2.9335938,2.9335938 2.0590998,3.8080817 1.6339349,4.967531 1.4394531,6.4140625 1.2449714,7.860594 1.25,9.6429774 1.25,12 c 0,2.356998 -0.00503,4.1394 0.1894531,5.585937 0.1944817,1.446538 0.6196331,2.606004 1.4941407,3.480469 0.8744865,0.874511 2.0339355,1.299655 3.4804687,1.494141 C 7.8605957,22.755033 9.6429774,22.75 12,22.75 c 2.356998,0 4.139398,0.005 5.585937,-0.189453 1.44654,-0.194486 2.606005,-0.619617 3.480469,-1.494141 0.874524,-0.874464 1.299655,-2.033929 1.494141,-3.480469 C 22.755033,16.139398 22.75,14.356998 22.75,12 22.75,9.6429774 22.755,7.8605957 22.560547,6.4140625 22.366061,4.9675293 21.940917,3.8080803 21.066406,2.9335938 20.191941,2.0590862 19.032475,1.6339348 17.585937,1.4394531 16.1394,1.2449715 14.356998,1.25 12,1.25 Z m 0,1.5 c 2.356998,0 4.110109,0.00415 5.386719,0.1757813 1.27661,0.1716355 2.029208,0.4783983 2.61914,1.0683593 0.589989,0.589972 0.896721,1.3425391 1.06836,2.6191406 C 21.245857,7.8898828 21.25,9.6429774 21.25,12 c 0,2.356998 -0.0041,4.110111 -0.175781,5.386719 -0.171639,1.276608 -0.478385,2.029206 -1.06836,2.61914 -0.589934,0.589975 -1.342532,0.896721 -2.61914,1.06836 C 16.110111,21.245858 14.356998,21.25 12,21.25 9.6429774,21.25 7.8898828,21.245857 6.6132812,21.074219 5.3366797,20.90258 4.5841126,20.595848 3.9941406,20.005859 3.4041796,19.415927 3.0974168,18.663329 2.9257813,17.386719 2.7541457,16.110109 2.75,14.356998 2.75,12 2.75,9.6429774 2.7541459,7.8898845 2.9257813,6.6132812 3.0974166,5.336678 3.404166,4.5841112 3.9941406,3.9941406 4.5841112,3.404166 5.336678,3.0974166 6.6132812,2.9257813 7.8898845,2.7541459 9.6429774,2.75 12,2.75 Z"
     id="path1" />
  <path
  
     d="M 11,4.25 C 9.5857864,4.25 8.5093262,4.2459295 7.6074219,4.3671875 6.7055175,4.4884455 5.9292542,4.7660583 5.3476562,5.3476562 4.7660583,5.9292542 4.4884455,6.7055175 4.3671875,7.6074219 4.2459295,8.5093262 4.25,9.5857864 4.25,11 v 2 c 0,1.414199 -0.00407,2.490678 0.1171875,3.392578 0.1212581,0.901901 0.3988767,1.67816 0.9804687,2.259766 0.5815963,0.581609 1.3578595,0.859207 2.2597657,0.980468 C 8.5093281,19.754074 9.5857864,19.75 11,19.75 h 2 c 1.414199,0 2.490676,0.0041 3.392578,-0.117188 0.901903,-0.121261 1.678162,-0.398865 2.259766,-0.980468 0.581603,-0.581604 0.859207,-1.357863 0.980468,-2.259766 C 19.754074,15.490676 19.75,14.414199 19.75,13 V 11 C 19.75,9.5857864 19.7541,8.5093281 19.632812,7.6074219 19.511551,6.7055157 19.233953,5.9292525 18.652344,5.3476562 18.070738,4.7660642 17.294479,4.4884456 16.392578,4.3671875 15.490678,4.2459294 14.414199,4.25 13,4.25 Z m 0,1.5 h 2 c 1.414199,0 2.459433,0.0051 3.191406,0.1035156 0.731973,0.098412 1.103297,0.2576004 1.400391,0.5546875 0.297089,0.2970829 0.456274,0.668416 0.554687,1.4003906 C 18.244898,8.5405684 18.25,9.5857864 18.25,11 v 2 c 0,1.414199 -0.0051,2.459435 -0.103516,3.191406 -0.09841,0.731971 -0.257592,1.103295 -0.554687,1.400391 -0.297096,0.297095 -0.66842,0.456274 -1.400391,0.554687 C 15.459435,18.244898 14.414199,18.25 13,18.25 H 11 C 9.5857864,18.25 8.5405684,18.2449 7.8085937,18.146484 7.0766191,18.048071 6.705286,17.888886 6.4082031,17.591797 6.111116,17.294703 5.9519274,16.923379 5.8535156,16.191406 5.7551039,15.459433 5.75,14.414199 5.75,13 V 11 C 5.75,9.5857864 5.7551,8.5405702 5.8535156,7.8085937 5.9519274,7.0766173 6.1111219,6.7052843 6.4082031,6.4082031 6.7052843,6.1111219 7.0766173,5.9519274 7.8085937,5.8535156 8.5405702,5.7551039 9.5857864,5.75 11,5.75 Z"
     id="path2" />
  <path
  
     d="m 12,7.25 c -2.6144671,0 -4.75,2.1355329 -4.75,4.75 0,2.614434 2.1355239,4.75 4.75,4.75 2.614443,0 4.75,-2.135557 4.75,-4.75 0,-2.6144761 -2.135566,-4.75 -4.75,-4.75 z m 0,1.5 c 1.803761,0 3.25,1.446201 3.25,3.25 0,1.803752 -1.446248,3.25 -3.25,3.25 -1.803799,0 -3.25,-1.446239 -3.25,-3.25 0,-1.803809 1.446191,-3.25 3.25,-3.25 z"
     id="path3" />
  <path
     d="m 13.5,12 c 0,0.8284 -0.6716,1.5 -1.5,1.5 -0.8284,0 -1.5,-0.6716 -1.5,-1.5 0,-0.8284 0.6716,-1.5 1.5,-1.5 0.8284,0 1.5,0.6716 1.5,1.5 z"
  
     id="path4" />
  <path
  
     d="m 11.25,8 v 4 h 1.5 V 8 Z"
     id="path5" />
  <path
  
     d="m 12.294922,11.310547 -0.589844,1.378906 3.5,1.5 0.589844,-1.378906 z"
     id="path6" />
  <path
  
     d="m 11.705078,11.310547 -3.4999999,1.5 0.5898438,1.378906 3.5000001,-1.5 z"
     id="path7" />
  <path
  
     d="M 4.5,6.25 A 0.75,0.75 0 0 0 3.75,7 v 3 A 0.75,0.75 0 0 0 4.5,10.75 0.75,0.75 0 0 0 5.25,10 V 7 A 0.75,0.75 0 0 0 4.5,6.25 Z"
     id="path8" />
  <path
  
     d="M 4.5,13.25 A 0.75,0.75 0 0 0 3.75,14 v 3 A 0.75,0.75 0 0 0 4.5,17.75 0.75,0.75 0 0 0 5.25,17 V 14 A 0.75,0.75 0 0 0 4.5,13.25 Z"
     id="path9" />
</svg>
