<?xml version="1.0" encoding="UTF-8" standalone="no"?>
<svg
   width="24"
   height="24"
   viewBox="0 0 24 24"

   version="1.1"
   id="svg2"
   xmlns="http://www.w3.org/2000/svg"
   xmlns:svg="http://www.w3.org/2000/svg">
  <defs
     id="defs2" />
  <path
     d="m 15,9.25 c -0.957604,0 -1.75,0.792396 -1.75,1.75 v 2 c 0,0.957604 0.792396,1.75 1.75,1.75 0.957604,0 1.75,-0.792396 1.75,-1.75 V 11 C 16.75,10.042396 15.957604,9.25 15,9.25 Z m 0,1.5 c 0.146995,0 0.25,0.103005 0.25,0.25 v 2 c 0,0.146995 -0.103005,0.25 -0.25,0.25 -0.146995,0 -0.25,-0.103005 -0.25,-0.25 v -2 c 0,-0.146995 0.103005,-0.25 0.25,-0.25 z"
     id="path1" />
  <path
     d="m 14.0079,19.0029 -0.75,-0.0022 v 0 z M 14.0137,17 l 0.75,0.0022 V 17 Z m -10.86412,1.8284 -0.52967,0.531 v 0 z m 0,-13.65683 -0.52967,-0.53099 v 0 z m -0.1965,5.08213 -0.36567,0.6548 v 0 z M 2.01058,8.98947 1.26124,8.95797 v 0 z m 0.9425,4.75683 -0.36567,-0.6548 v 0 z m -0.9425,1.2642 0.74934,-0.0315 v 0 z m 19.03632,-4.7568 0.3657,0.6548 v 0 z m 0.9425,-1.26423 0.7494,-0.0315 v 0 z m -1.139,-3.8179 0.5297,-0.53099 v 0 z m 0.1965,8.57473 -0.3657,0.6549 v 0 z m 0.9425,1.2642 0.7494,0.0315 v 0 z m -1.139,3.8179 0.5297,0.531 v 0 z m 1.0933,-4.4964 0.6544,-0.3664 v 0 z m 0,-4.66397 0.6544,0.36637 v 0 z M 2.05634,14.332 1.4019,13.9656 v 0 z m 0,-4.66398 0.65445,-0.36634 h -10e-6 z M 14.0137,7 h 0.75 V 6.99782 Z m -0.0073,-2.50145 -0.75,0.00218 v 0 z M 16.5278,4.0189 16.5471,3.26915 v 0 z m 0.5058,15.9453 0.0317,0.7493 v 0 z M 13.8595,19.8541 13.3299,19.323 v 0 z m 0.8984,-0.849 0.0058,-2.0029 -1.5,-0.0044 -0.0058,2.0029 z M 15.0162,16.75 c 0.1412,0 0.2525,0.1137 0.2525,0.25 h 1.5 c 0,-0.9683 -0.7864,-1.75 -1.7525,-1.75 z m 0,-1.5 c -0.9661,0 -1.7525,0.7817 -1.7525,1.75 h 1.5 c 0,-0.1363 0.1113,-0.25 0.2525,-0.25 z M 9.99502,4.75 H 13.5052 V 3.25 H 9.99502 Z m 3.01288,14.5 H 9.99502 v 1.5 h 3.01288 z m -3.01288,0 C 8.08355,19.25 6.72521,19.2484 5.69469,19.1102 4.68554,18.9749 4.10384,18.721 3.67925,18.2974 l -1.05934,1.062 c 0.74989,0.748 1.7006,1.0799 2.87539,1.2375 1.15341,0.1547 2.63055,0.1531 4.49972,0.1531 z m 0,-16 C 8.12585,3.25 6.64871,3.24841 5.4953,3.4031 4.32051,3.56066 3.3698,3.89255 2.61991,4.64058 L 3.67925,5.70256 C 4.10384,5.27902 4.68554,5.02513 5.69469,4.88979 6.72521,4.75159 8.08355,4.75 9.99502,4.75 Z M 2.58741,10.9085 C 2.97311,11.1239 3.23007,11.533 3.23007,12 h 1.5 c 0,-1.0336 -0.57147,-1.9322 -1.41131,-2.40116 z M 2.75992,9.02097 C 2.83795,7.16494 3.09146,6.28889 3.67925,5.70256 L 2.61991,4.64058 C 1.59036,5.66758 1.34012,7.08185 1.26124,8.95797 Z M 3.23007,12 c 0,0.467 -0.25696,0.8761 -0.64266,1.0915 l 0.73135,1.3097 C 4.1586,13.9322 4.73007,13.0336 4.73007,12 Z m -1.96883,3.042 c 0.07888,1.8762 0.32912,3.2904 1.35867,4.3174 l 1.05934,-1.062 C 3.09146,17.7111 2.83795,16.8351 2.75992,14.979 Z M 20.7699,12 c 0,-0.467 0.257,-0.8761 0.6427,-1.0915 L 20.6812,9.59884 C 19.8414,10.0678 19.2699,10.9664 19.2699,12 Z M 22.7388,8.95797 C 22.6599,7.08185 22.4096,5.66758 21.3801,4.64058 l -1.0594,1.06198 c 0.5878,0.58633 0.8414,1.46238 0.9194,3.31841 z M 21.4126,13.0915 C 21.0269,12.8761 20.7699,12.467 20.7699,12 h -1.5 c 0,1.0336 0.5715,1.9322 1.4113,2.4012 z m -0.1725,1.8875 c -0.078,1.8561 -0.3316,2.7321 -0.9194,3.3184 l 1.0594,1.062 c 1.0295,-1.027 1.2798,-2.4412 1.3587,-4.3174 z m -0.5589,-0.5778 c 0.284,0.1585 0.4695,0.2624 0.5949,0.3415 0.0618,0.039 0.0892,0.0597 0.0974,0.0666 0.0145,0.012 -0.036,-0.0247 -0.0843,-0.111 l 1.3089,-0.7327 c -0.0828,-0.1479 -0.1938,-0.2502 -0.2677,-0.3114 -0.0801,-0.0664 -0.1691,-0.1266 -0.254,-0.1801 -0.1677,-0.1058 -0.396,-0.233 -0.6638,-0.3826 z m 2.0576,0.6408 c 0.0072,-0.1714 0.0153,-0.3483 0.0088,-0.4962 -0.0066,-0.1499 -0.0298,-0.3663 -0.1495,-0.5802 l -1.3089,0.7327 c -0.0506,-0.0904 -0.0431,-0.1526 -0.0402,-0.0866 0.0013,0.0287 0.0015,0.0705 -2e-4,0.1347 -0.0016,0.064 -0.0048,0.1383 -0.0087,0.2326 z m -1.3262,-4.1335 c 0.2678,-0.1496 0.4961,-0.2768 0.6638,-0.3826 0.0849,-0.0535 0.1739,-0.1137 0.254,-0.1801 0.0739,-0.0612 0.1849,-0.1635 0.2677,-0.3114 L 21.2892,9.30168 C 21.3375,9.21543 21.388,9.17871 21.3735,9.19072 21.3653,9.19756 21.3379,9.21832 21.2761,9.25725 21.1507,9.33637 20.9652,9.44028 20.6812,9.59884 Z M 21.2401,9.02097 c 0.0039,0.09431 0.0071,0.16864 0.0087,0.2326 0.0017,0.06422 0.0015,0.10607 2e-4,0.1347 -0.0029,0.06601 -0.0104,0.00379 0.0402,-0.08658 l 1.3089,0.73271 C 22.7178,9.82054 22.741,9.60408 22.7476,9.45419 22.7541,9.30634 22.746,9.12945 22.7388,8.95797 Z M 2.58741,13.0915 C 2.31959,13.2411 2.0913,13.3683 1.92358,13.4741 1.83872,13.5276 1.74971,13.5878 1.66957,13.6542 1.59566,13.7154 1.48474,13.8177 1.4019,13.9656 l 1.30888,0.7327 c -0.04828,0.0863 -0.0988,0.123 -0.0843,0.111 0.00826,-0.0069 0.03567,-0.0276 0.09739,-0.0666 0.12542,-0.0791 0.31095,-0.183 0.59489,-0.3415 z M 2.75992,14.979 C 2.75595,14.8847 2.75285,14.8104 2.7512,14.7464 2.74954,14.6822 2.74973,14.6404 2.75099,14.6117 2.75389,14.5457 2.76137,14.6079 2.71078,14.6983 L 1.4019,13.9656 c -0.11969,0.2139 -0.14287,0.4303 -0.14946,0.5802 -0.00651,0.1479 0.00159,0.3248 0.0088,0.4962 z M 3.31876,9.59884 C 3.03482,9.44028 2.84929,9.33637 2.72386,9.25725 2.66214,9.21832 2.63474,9.19756 2.62648,9.19072 2.61198,9.17871 2.66251,9.21543 2.71079,9.30168 L 1.4019,10.0344 c 0.08283,0.1479 0.19375,0.2502 0.26766,0.3114 0.08015,0.0664 0.16916,0.1266 0.25401,0.1801 0.16773,0.1058 0.39602,0.233 0.66384,0.3826 z M 1.26124,8.95797 C 1.25403,9.12945 1.24593,9.30634 1.25244,9.45419 1.25903,9.60408 1.28221,9.82054 1.4019,10.0344 L 2.71078,9.30168 C 2.76137,9.39206 2.75389,9.45428 2.75099,9.38827 2.74973,9.35964 2.74954,9.31779 2.7512,9.25357 2.75285,9.18961 2.75595,9.11528 2.75992,9.02097 Z M 14.7637,6.99782 14.7564,4.49637 l -1.5,0.00436 0.0073,2.50145 z M 15.0162,7.25 C 14.875,7.25 14.7637,7.13631 14.7637,7 h -1.5 c 0,0.96826 0.7864,1.75 1.7525,1.75 z M 15.2687,7 c 0,0.13631 -0.1113,0.25 -0.2525,0.25 v 1.5 c 0.9661,0 1.7525,-0.78174 1.7525,-1.75 z m 0,-2.48382 V 7 h 1.5 V 4.51618 Z m 1.2397,0.25247 c 2.1882,0.05644 3.1694,0.29259 3.8124,0.93391 L 21.3801,4.64058 C 20.2676,3.53084 18.6939,3.32452 16.5471,3.26915 Z m 0.2603,-0.25247 c 0,0.13982 -0.1153,0.25621 -0.2603,0.25247 l 0.0387,-1.4995 C 15.8429,3.25099 15.2687,3.81835 15.2687,4.51618 Z M 13.5052,4.75 c -0.1354,0 -0.2484,-0.10973 -0.2488,-0.24927 l 1.5,-0.00436 C 14.7544,3.80569 14.1931,3.25 13.5052,3.25 Z m 3.5601,15.9635 c 1.8746,-0.0792 3.2877,-0.3295 4.3148,-1.3541 l -1.0593,-1.062 c -0.5872,0.5857 -1.4645,0.8391 -3.3188,0.9174 z M 15.2687,17 v 1.9765 h 1.5 V 17 Z m -2.0108,2.0007 c -4e-4,0.1204 -7e-4,0.2129 -0.0029,0.2919 -0.0022,0.0795 -0.006,0.1266 -0.01,0.1555 -0.0039,0.0283 -0.0054,0.0188 0.0063,-0.0094 0.0141,-0.0342 0.0398,-0.077 0.0786,-0.1157 l 1.0591,1.0622 c 0.2356,-0.235 0.312,-0.5143 0.3421,-0.7331 0.0271,-0.1973 0.0262,-0.4331 0.0268,-0.647 z m -0.25,1.7493 c 0.2139,0 0.4497,0.0016 0.647,-0.0249 0.219,-0.0294 0.4985,-0.105 0.7341,-0.3399 L 13.3299,19.323 c 0.0388,-0.0387 0.0817,-0.0643 0.1159,-0.0783 0.0283,-0.0116 0.0378,-0.0101 0.0095,-0.0063 -0.0289,0.0039 -0.0761,0.0076 -0.1555,0.0096 -0.079,0.002 -0.1716,0.002 -0.2919,0.002 z m 3.9941,-1.5352 c -0.1208,0.0051 -0.2131,0.009 -0.2919,0.0102 -0.0791,0.0012 -0.1252,-6e-4 -0.1526,-0.0033 -0.0266,-0.0026 -0.0149,-0.0042 0.0159,0.0075 0.0369,0.0141 0.0802,0.0393 0.1183,0.0758 l -1.0381,1.0828 c 0.2442,0.2341 0.5294,0.3043 0.7572,0.3267 0.2019,0.0199 0.441,0.008 0.6545,-0.001 z m -1.7333,-0.2383 c 0,0.2188 -0.0017,0.4609 0.0263,0.6632 0.0313,0.2258 0.112,0.5117 0.3586,0.7481 l 1.0381,-1.0828 c 0.0396,0.038 0.0667,0.0813 0.082,0.1171 0.0126,0.0295 0.0111,0.0401 0.0071,0.0116 -0.004,-0.0291 -0.0079,-0.0771 -0.01,-0.1584 -0.0021,-0.0808 -0.0021,-0.1756 -0.0021,-0.2988 z"
   
     id="path2" />
</svg>
