<?xml version="1.0" encoding="UTF-8" standalone="no"?>
<svg
   width="24"
   height="24"
   viewBox="0 0 24 24"
   version="1.1"
   id="svg3"
   xmlns="http://www.w3.org/2000/svg"
   xmlns:svg="http://www.w3.org/2000/svg">
  <defs
     id="defs3" />
  <path
     d="M 12,1.25 C 10.588317,1.25 9.1909544,1.5281322 7.8867187,2.0683594 6.5824731,2.608597 5.3966612,3.4002245 4.3984375,4.3984375 3.4002245,5.3966612 2.6085878,6.5824801 2.0683594,7.8867187 1.5281214,9.1909652 1.25,10.588317 1.25,12 c 0,1.411683 0.2781257,2.809084 0.8183594,4.113281 0.5402371,1.304288 1.3318659,2.490048 2.3300781,3.488281 0.998245,0.998256 2.1840868,1.789808 3.4882812,2.330079 C 9.1909307,22.471815 10.588302,22.75 12,22.75 c 1.411698,0 2.809107,-0.278179 4.113281,-0.818359 1.304237,-0.54027 2.490026,-1.331823 3.488281,-2.330079 0.998256,-0.998255 1.789809,-2.184044 2.330079,-3.488281 C 22.471821,14.809107 22.75,13.411698 22.75,12 22.75,10.588302 22.471815,9.1909307 21.931641,7.8867187 21.39137,6.5825243 20.599818,5.3966825 19.601562,4.3984375 18.603329,3.4002253 17.417573,2.6085873 16.113281,2.0683594 14.809081,1.5281138 13.411683,1.25 12,1.25 Z m 0,1.5 c 1.214714,0 2.416865,0.2402247 3.539063,0.7050781 1.122306,0.4648511 2.142988,1.1449604 3.001953,2.0039063 0.858942,0.8589331 1.54093,1.87963 2.005859,3.0019531 h -0.002 C 21.009747,9.5832232 21.25,10.785301 21.25,12 c 0,1.214699 -0.24026,2.416839 -0.705078,3.539063 -0.464929,1.122361 -1.144963,2.14301 -2.003906,3.001953 -0.858943,0.858943 -1.879592,1.538977 -3.001953,2.003906 C 14.416839,21.00974 13.214699,21.25 12,21.25 c -1.214699,0 -2.4167768,-0.240253 -3.5390625,-0.705078 v 0.002 C 7.3386144,20.081946 6.3179175,19.399958 5.4589844,18.541016 4.6000385,17.682051 3.91994,16.661373 3.4550781,15.539063 2.9902328,14.416863 2.75,13.214714 2.75,12 2.75,10.785286 2.9902171,9.5832086 3.4550781,8.4609375 3.9199287,7.3386786 4.6000392,6.3179388 5.4589844,5.4589844 6.3179388,4.6000392 7.3386656,3.9199395 8.4609375,3.4550781 9.5831994,2.9902263 10.785286,2.75 12,2.75 Z"
     id="path1" />
  <path
 
     d="M 12,1.25 C 11.228499,1.25 10.51166,1.6375877 9.9296875,2.2402344 9.3476398,2.8429213 8.8712713,3.6587573 8.4746094,4.6503906 8.0779574,5.6420365 7.7728153,6.7932177 7.5644531,8.0507813 7.3560906,9.308357 7.25,10.647409 7.25,12 c 0,1.352591 0.106089,2.691695 0.3144531,3.949219 0.208362,1.257614 0.5135049,2.408735 0.9101563,3.40039 0.396669,0.991673 0.8730956,1.807477 1.4550781,2.410157 C 10.511643,22.362347 11.228461,22.75 12,22.75 c 0.771539,0 1.488357,-0.387653 2.070313,-0.990234 0.581907,-0.602651 1.058436,-1.418446 1.455078,-2.410157 0.396745,-0.991703 0.701816,-2.142784 0.910156,-3.40039 C 16.643886,14.691719 16.75,13.352606 16.75,12 16.75,10.647394 16.643885,9.3083241 16.435547,8.0507813 16.227207,6.7932157 15.922137,5.6420847 15.525391,4.6503906 15.128756,3.6587192 14.652291,2.8428873 14.070313,2.2402344 13.488339,1.6375749 12.771501,1.25 12,1.25 Z m 0,1.5 c 0.279098,0 0.601609,0.1288105 0.990234,0.53125 0.388621,0.402426 0.796414,1.0602945 1.142579,1.9257812 0.346253,0.8654842 0.628606,1.9189386 0.822265,3.0878907 C 15.14874,9.4638766 15.25,10.726209 15.25,12 c 0,1.273791 -0.101262,2.53618 -0.294922,3.705078 -0.19366,1.168992 -0.476012,2.222396 -0.822265,3.087891 -0.346158,0.865487 -0.753887,1.523233 -1.142579,1.925781 C 12.602385,21.119719 12.278633,21.25 12,21.25 11.721367,21.25 11.397615,21.119719 11.009766,20.71875 10.621069,20.31623 10.213398,19.658494 9.8671875,18.792969 9.5209796,17.927426 9.2385995,16.874061 9.0449219,15.705078 8.8512464,14.536204 8.75,13.273806 8.75,12 8.75,10.726194 8.8512448,9.4638637 9.0449219,8.2949219 9.2385993,7.1259879 9.5209802,6.0725635 9.8671875,5.2070312 10.213405,4.3415065 10.619181,3.6836621 11.007813,3.28125 h 0.002 C 11.398392,2.8788177 11.720902,2.75 12,2.75 Z"
     id="path2" />
  <path

     d="M 2,11.25 A 0.75,0.75 0 0 0 1.25,12 0.75,0.75 0 0 0 2,12.75 H 22 A 0.75,0.75 0 0 0 22.75,12 0.75,0.75 0 0 0 22,11.25 Z"
     id="path3" />
</svg>
