<?xml version="1.0" encoding="UTF-8" standalone="no"?>
<svg
   width="24"
   height="24"
   viewBox="0 0 24 24"
   version="1.1"
   id="svg4"
   xmlns="http://www.w3.org/2000/svg"
   xmlns:svg="http://www.w3.org/2000/svg">
  <defs
     id="defs4" />
  <path
    
     d="m 12,1.25 c -1.065327,0 -2.1297321,0.088747 -3.1835937,0.265625 L 8.4179688,1.5820312 C 5.7985255,2.0216707 3.9635831,4.4228922 4.2871094,7.0292969 l 0.017578,0.1464843 C 4.4166071,8.0774235 5.2032996,8.75 6.1074219,8.75 H 17.892578 c 0.904116,0 1.690793,-0.6725395 1.802734,-1.5742188 l 0.01758,-0.1464843 C 20.036429,4.422893 18.201518,2.0216682 15.582031,1.5820312 L 15.183594,1.515625 C 14.129718,1.3387477 13.065327,1.25 12,1.25 Z M 9.0644531,2.9941406 c 1.9432129,-0.3261441 3.9278489,-0.3261447 5.8710939,0 l 0.398437,0.066406 c 1.860909,0.3123222 3.115487,1.9736845 2.890625,3.7851562 l -0.01758,0.1445313 C 18.188973,7.1356941 18.065861,7.25 17.892578,7.25 H 6.1074219 C 5.9341052,7.25 5.811029,7.1357311 5.7929687,6.9902344 L 5.7753906,6.8457031 C 5.5505374,5.0342322 6.8051634,3.3728667 8.6660156,3.0605469 Z"
     id="path1" />
  <path
  
     d="M 9.15625,7.2675781 A 0.75,0.75 0 0 0 8.2675781,7.84375 l -3,14 A 0.75,0.75 0 0 0 5.84375,22.732422 0.75,0.75 0 0 0 6.7324219,22.15625 l 3,-14 A 0.75,0.75 0 0 0 9.15625,7.2675781 Z"
     id="path2" />
  <path
  
     d="M 14.84375,7.2675781 A 0.75,0.75 0 0 0 14.267578,8.15625 l 3,14 a 0.75,0.75 0 0 0 0.888672,0.576172 0.75,0.75 0 0 0 0.576172,-0.888672 l -3,-14 A 0.75,0.75 0 0 0 14.84375,7.2675781 Z"
     id="path3" />
  <path
  
     d="M 7,16.25 A 0.75,0.75 0 0 0 6.25,17 0.75,0.75 0 0 0 7,17.75 H 17 A 0.75,0.75 0 0 0 17.75,17 0.75,0.75 0 0 0 17,16.25 Z"
     id="path4" />
</svg>
