<?xml version="1.0" encoding="UTF-8" standalone="no"?>
<svg
   width="24"
   height="24"
   viewBox="0 0 24 24"
   version="1.1"
   id="svg8"
   xmlns="http://www.w3.org/2000/svg"
   xmlns:svg="http://www.w3.org/2000/svg">
  <defs
     id="defs8" />
  <path
     d="M 7,7.25 C 6.0571909,7.25 5.3346696,7.2454312 4.7050781,7.3300781 4.0754867,7.4147251 3.4898365,7.6195311 3.0546875,8.0546875 2.6195281,8.4898395 2.4147249,9.0754849 2.3300781,9.7050781 2.2454313,10.334671 2.25,11.057201 2.25,12 v 10 h 1.5 V 12 C 3.75,11.057201 3.75461,10.365916 3.816406,9.90625 3.8782068,9.4465843 3.9646044,9.2658618 4.1152344,9.1152344 4.2658648,8.9646013 4.4465875,8.8782067 4.90625,8.8164063 5.3659125,8.7546058 6.0571909,8.75 7,8.75 c 0.9428091,0 1.6340892,0.00461 2.09375,0.066406 0.4596608,0.0618 0.6403914,0.1481987 0.7910156,0.2988281 C 10.035399,9.265863 10.121792,9.4465857 10.183594,9.90625 10.245395,10.365914 10.25,11.057201 10.25,12 h 1.5 c 0,-0.942799 0.0046,-1.665327 -0.08008,-2.2949219 C 11.585273,9.0754836 11.380478,8.4898383 10.945313,8.0546875 10.510167,7.6195275 9.9245125,7.4147251 9.2949219,7.3300781 8.6653313,7.2454311 7.9428091,7.25 7,7.25 Z"
     id="path1" />
  <path
     d="m 11,11.25 c -0.942809,0 -1.6653291,-0.0046 -2.2949219,0.08008 C 8.0754853,11.41473 7.4898352,11.619527 7.0546875,12.05469 6.6195399,12.489845 6.4147251,13.075491 6.3300781,13.70508 6.2454312,14.334667 6.25,15.057201 6.25,16 v 6 h 1.5 v -6 c 0,-0.942799 0.00461,-1.63409 0.066406,-2.09375 0.0618,-0.45966 0.1481864,-0.640371 0.2988282,-0.791016 C 8.265866,12.964598 8.4465889,12.878208 8.90625,12.816406 9.3659111,12.754605 10.057191,12.75 11,12.75 h 2 c 0.942799,0 1.634091,0.0046 2.09375,0.06641 0.459659,0.0618 0.64037,0.148183 0.791016,0.298828 0.150645,0.150646 0.237026,0.331357 0.298828,0.791016 C 16.245395,14.365909 16.25,15.057201 16.25,16 v 6 h 1.5 v -6 c 0,-0.942799 0.0046,-1.665332 -0.08008,-2.294922 -0.08465,-0.62959 -0.289456,-1.215237 -0.72461,-1.65039 -0.435153,-0.435154 -1.0208,-0.639961 -1.65039,-0.72461 C 14.665332,11.24543 13.942799,11.25 13,11.25 Z"
     id="path2" />
  <path
     d="M 14.498047,2.2460938 C 14.115507,2.285858 13.754508,2.4026009 13.433594,2.625 12.791764,3.0697922 12.486996,3.8124599 12.365234,4.6386719 12.243473,5.4648838 12.25,6.4603807 12.25,7.7714844 V 12 h 1.5 V 7.7714844 c 0,-1.3111037 0.0062,-2.2800384 0.09961,-2.9140625 0.09344,-0.6340241 0.218531,-0.8462997 0.4375,-0.9980469 0.218972,-0.1517511 0.463381,-0.1956771 1.089844,-0.060547 0.626463,0.1351303 1.536022,0.4693274 2.763672,0.9296875 1.255493,0.4707973 1.70443,0.6823043 1.886719,0.9453125 C 20.209532,5.936761 20.25,6.4306357 20.25,7.7714844 V 22 h 1.5 V 7.7714844 C 21.75,6.4306357 21.78978,5.5852186 21.259766,4.8203125 20.729655,4.0554618 19.923474,3.7950206 18.667969,3.3242188 17.440322,2.8638598 16.50972,2.5081232 15.693359,2.3320313 15.285179,2.2439853 14.880587,2.2063295 14.498047,2.2460938 Z"
     id="path3" />
  <path
     d="M 6,3.75 C 5.5285955,3.75 5.1600107,3.7449347 4.8027344,3.7929688 4.4454581,3.8410028 4.0504251,3.9730222 3.7617188,4.2617187 3.4730222,4.5504251 3.3410028,4.9454581 3.2929688,5.3027344 3.2449347,5.6600107 3.25,6.0285955 3.25,6.5 V 8 A 0.75,0.75 0 0 0 4,8.75 0.75,0.75 0 0 0 4.75,8 V 6.5 C 4.75,6.0285955 4.75411,5.6893038 4.779297,5.5019531 4.804485,5.3146025 4.818072,5.326459 4.822266,5.3222656 4.826456,5.3180756 4.814606,5.3044856 5.0019535,5.2792966 5.1893038,5.2541085 5.5285955,5.25 6,5.25 h 2 c 0.4714045,0 0.8106962,0.00411 0.9980469,0.029297 0.1873506,0.025188 0.1754941,0.038775 0.1796875,0.042969 0.00419,0.00419 0.01778,-0.00766 0.042969,0.1796875 C 9.2458915,5.6893038 9.25,6.0285955 9.25,6.5 V 8 A 0.75,0.75 0 0 0 10,8.75 0.75,0.75 0 0 0 10.75,8 V 6.5 C 10.75,6.0285955 10.7551,5.6600107 10.70703,5.3027344 10.658997,4.9454581 10.526978,4.5504251 10.238281,4.2617187 9.9495749,3.9730222 9.5545419,3.8410028 9.1972656,3.7929688 8.8399893,3.7449347 8.4714045,3.75 8,3.75 Z"
     id="path4" />
  <path
     d="M 7,1.25 A 0.75,0.75 0 0 0 6.25,2 V 4 A 0.75,0.75 0 0 0 7,4.75 0.75,0.75 0 0 0 7.75,4 V 2 A 0.75,0.75 0 0 0 7,1.25 Z"
     id="path5" />
  <path
     d="M 2,21.25 A 0.75,0.75 0 0 0 1.25,22 0.75,0.75 0 0 0 2,22.75 H 22 A 0.75,0.75 0 0 0 22.75,22 0.75,0.75 0 0 0 22,21.25 Z"
     id="path6" />
  <path
     d="M 10,14.25 A 0.75,0.75 0 0 0 9.25,15 0.75,0.75 0 0 0 10,15.75 h 4 A 0.75,0.75 0 0 0 14.75,15 0.75,0.75 0 0 0 14,14.25 Z"
     id="path7" />
  <path
     d="M 10,17.25 A 0.75,0.75 0 0 0 9.25,18 0.75,0.75 0 0 0 10,18.75 h 4 A 0.75,0.75 0 0 0 14.75,18 0.75,0.75 0 0 0 14,17.25 Z"
     id="path8" />
</svg>
