<?xml version="1.0" encoding="UTF-8" standalone="no"?>
<svg
   width="24"
   height="24"
   viewBox="0 0 24 24"
   version="1.1"
   id="svg6"
   xmlns="http://www.w3.org/2000/svg"
   xmlns:svg="http://www.w3.org/2000/svg">
  <defs
     id="defs6" />
  <path
     d="M 2,21.25 A 0.75,0.75 0 0 0 1.25,22 0.75,0.75 0 0 0 2,22.75 H 22 A 0.75,0.75 0 0 0 22.75,22 0.75,0.75 0 0 0 22,21.25 Z"
     id="path1" />
  <path
     d="m 12,2.2675781 c -0.891601,0 -1.784031,0.3139119 -2.4921875,0.9433594 l -6,5.3339844 C 2.7075423,9.2562648 2.25,10.27694 2.25,11.347656 V 22 A 0.75,0.75 0 0 0 3,22.75 0.75,0.75 0 0 0 3.75,22 V 11.347656 c 0,-0.643082 0.2751908,-1.254384 0.7558594,-1.6816404 L 10.505859,4.3320312 c 0.857085,-0.761823 2.131197,-0.761823 2.988282,0 l 6,5.3339844 C 19.97482,10.093261 20.25,10.704551 20.25,11.347656 V 22 A 0.75,0.75 0 0 0 21,22.75 0.75,0.75 0 0 0 21.75,22 V 11.347656 c 0,-1.070693 -0.457493,-2.091381 -1.257813,-2.8027341 L 14.492188,3.2109375 C 13.784031,2.58149 12.891601,2.2675781 12,2.2675781 Z"
     id="path2" />
  <path
     d="M 10,8.25 A 0.75,0.75 0 0 0 9.25,9 0.75,0.75 0 0 0 10,9.75 h 4 A 0.75,0.75 0 0 0 14.75,9 0.75,0.75 0 0 0 14,8.25 Z"
     id="path3" />
  <path
     d="M 9,14.75 A 0.75,0.75 0 0 0 8.25,15.5 0.75,0.75 0 0 0 9,16.25 h 6 A 0.75,0.75 0 0 0 15.75,15.5 0.75,0.75 0 0 0 15,14.75 Z"
     id="path4" />
  <path
     d="M 9,17.75 A 0.75,0.75 0 0 0 8.25,18.5 0.75,0.75 0 0 0 9,19.25 h 6 A 0.75,0.75 0 0 0 15.75,18.5 0.75,0.75 0 0 0 15,17.75 Z"
     id="path5" />
  <path
     d="M 10,11.25 C 9.0571909,11.25 8.3346709,11.2454 7.7050781,11.33008 7.0754853,11.41473 6.4898352,11.619527 6.0546875,12.05469 5.6195399,12.489845 5.4147251,13.075491 5.3300781,13.70508 5.2454312,14.334667 5.25,15.057201 5.25,16 v 6 h 1.5 v -6 c 0,-0.942799 0.00461,-1.63409 0.066406,-2.09375 0.0618,-0.45966 0.1481864,-0.640371 0.2988282,-0.791016 C 7.265866,12.964598 7.4465889,12.878208 7.90625,12.816406 8.3659111,12.754605 9.0571909,12.75 10,12.75 h 4 c 0.942799,0 1.634091,0.0046 2.09375,0.06641 0.459659,0.0618 0.64037,0.148183 0.791016,0.298828 0.150645,0.150646 0.237026,0.331357 0.298828,0.791016 C 17.245395,14.365909 17.25,15.057201 17.25,16 v 6 h 1.5 v -6 c 0,-0.942799 0.0046,-1.665332 -0.08008,-2.294922 -0.08465,-0.62959 -0.289456,-1.215237 -0.72461,-1.65039 -0.435153,-0.435154 -1.0208,-0.639961 -1.65039,-0.72461 C 15.665332,11.24543 14.942799,11.25 14,11.25 Z"
     id="path6" />
</svg>
