<?xml version="1.0" encoding="UTF-8" standalone="no"?>
<svg
   width="24"
   height="24"
   viewBox="0 0 24 24"
   version="1.1"
   id="svg7"
   xmlns="http://www.w3.org/2000/svg"
   xmlns:svg="http://www.w3.org/2000/svg">
  <defs
     id="defs7" />
  <path
     d="M 2,21.25 A 0.75,0.75 0 0 0 1.25,22 0.75,0.75 0 0 0 2,22.75 H 22 A 0.75,0.75 0 0 0 22.75,22 0.75,0.75 0 0 0 22,21.25 Z"
     id="path1" />
  <path
     d="m 12,3.09375 c -0.829727,0 -1.658644,0.2738153 -2.3417969,0.8203125 L 1.53125,10.414063 A 0.75,0.75 0 0 0 1.4140625,11.46875 0.75,0.75 0 0 0 2.46875,11.585938 l 8.125,-6.5000005 c 0.825092,-0.6600437 1.987408,-0.6600437 2.8125,0 l 8.125,6.5000005 A 0.75,0.75 0 0 0 22.585937,11.46875 0.75,0.75 0 0 0 22.46875,10.414063 L 14.341797,3.9140625 C 13.658644,3.3675653 12.829727,3.09375 12,3.09375 Z"
     id="path2" />
  <path
     d="m 16,2.25 c -0.681496,0 -1.25,0.5684504 -1.25,1.25 v 2 A 0.75,0.75 0 0 0 15.5,6.25 0.75,0.75 0 0 0 16.25,5.5 V 3.75 h 2 V 8.5 A 0.75,0.75 0 0 0 19,9.25 0.75,0.75 0 0 0 19.75,8.5 v -5 c 0,-0.6815496 -0.568504,-1.25 -1.25,-1.25 z"
     id="path3" />
  <path
     d="M 4,8.75 A 0.75,0.75 0 0 0 3.25,9.5 V 22 A 0.75,0.75 0 0 0 4,22.75 0.75,0.75 0 0 0 4.75,22 V 9.5 A 0.75,0.75 0 0 0 4,8.75 Z"
     id="path4" />
  <path
     d="M 20,8.75 A 0.75,0.75 0 0 0 19.25,9.5 V 22 A 0.75,0.75 0 0 0 20,22.75 0.75,0.75 0 0 0 20.75,22 V 9.5 A 0.75,0.75 0 0 0 20,8.75 Z"
     id="path5" />
  <path
     d="m 12,13.25 c -0.707099,0 -1.252666,-0.0038 -1.746094,0.0625 C 9.7604783,13.37883 9.2701407,13.546298 8.9082031,13.908203 8.5463051,14.270151 8.3788401,14.76047 8.3125,15.253906 8.2461599,15.747342 8.25,16.292901 8.25,17 v 5 h 1.5 v -5 c 0,-0.707099 0.00533,-1.223362 0.048828,-1.546875 0.043495,-0.323513 0.09248,-0.406923 0.1699219,-0.484375 0.077402,-0.07739 0.1608591,-0.12643 0.4843751,-0.169922 C 10.776641,14.755337 11.292901,14.75 12,14.75 c 0.707099,0 1.223354,0.0053 1.546875,0.04883 0.323521,0.04349 0.406929,0.09249 0.484375,0.169922 0.07743,0.07745 0.12643,0.160854 0.169922,0.484375 C 14.244664,15.776646 14.25,16.292901 14.25,17 v 5 h 1.5 v -5 c 0,-0.707099 0.0038,-1.252665 -0.0625,-1.746094 C 15.62117,14.760478 15.453668,14.270157 15.091797,13.908203 14.729843,13.546332 14.239522,13.378833 13.746094,13.3125 13.252665,13.246167 12.707099,13.25 12,13.25 Z"
     id="path6" />
  <path
     d="m 12,6.75 c -1.509917,0 -2.75,1.2401154 -2.75,2.75 0,1.509904 1.240096,2.75 2.75,2.75 1.509904,0 2.75,-1.240096 2.75,-2.75 0,-1.5098846 -1.240083,-2.75 -2.75,-2.75 z m 0,1.5 c 0.699281,0 1.25,0.5507468 1.25,1.25 0,0.699294 -0.550706,1.25 -1.25,1.25 -0.699294,0 -1.25,-0.550706 -1.25,-1.25 0,-0.6992532 0.550719,-1.25 1.25,-1.25 z"
     id="path7" />
</svg>
