<?xml version="1.0" encoding="UTF-8" standalone="no"?>
<svg
   width="24"
   height="24"
   viewBox="0 0 24 24"
   version="1.1"
   id="svg15"
   xmlns="http://www.w3.org/2000/svg"
   xmlns:svg="http://www.w3.org/2000/svg">
  <defs
     id="defs15" />
  <path
     d="M 2,21.25 A 0.75,0.75 0 0 0 1.25,22 0.75,0.75 0 0 0 2,22.75 H 22 A 0.75,0.75 0 0 0 22.75,22 0.75,0.75 0 0 0 22,21.25 Z"
     id="path1" />
  <path
     d="M 11,1.25 C 10.057191,1.25 9.3346696,1.24543 8.7050781,1.330078 8.0754867,1.4147251 7.4898365,1.6195311 7.0546875,2.0546875 6.6195311,2.4898365 6.4147251,3.0754867 6.3300781,3.7050781 6.2454312,4.3346696 6.25,5.0571909 6.25,6 v 16 h 1.5 V 6 C 7.75,5.0571909 7.75461,4.3659125 7.816406,3.90625 7.8782067,3.4465875 7.9646013,3.2658648 8.1152344,3.1152344 8.2658648,2.9646013 8.4465875,2.8782067 8.90625,2.8164063 9.3659125,2.7546058 10.057191,2.75 11,2.75 h 2 c 0.942799,0 1.63409,0.00461 2.09375,0.066406 0.45966,0.0618 0.640371,0.1481863 0.791016,0.2988281 C 16.035402,3.265866 16.121792,3.4465889 16.183594,3.90625 16.245395,4.3659111 16.25,5.0571909 16.25,6 v 16 h 1.5 V 6 C 17.75,5.0571909 17.7546,4.3346709 17.66992,3.7050781 17.585273,3.0754853 17.380475,2.4898352 16.945312,2.0546875 16.510157,1.6195399 15.924511,1.4147251 15.294922,1.3300781 14.665333,1.2454312 13.942799,1.25 13,1.25 Z"
     id="path2" />
  <path
     d="m 17.5,4.25 v 1.5 c 1.404499,0 1.958269,0.052536 2.195312,0.2109375 0.136506,0.091204 0.252576,0.2072825 0.34375,0.34375 C 20.197511,6.5417957 20.25,7.0955414 20.25,8.5 V 22 h 1.5 V 8.5 C 21.75,7.0955414 21.80286,6.2444471 21.287109,5.4726562 21.086484,5.1723642 20.827637,4.9135263 20.527344,4.7128906 19.755588,4.1971731 18.904499,4.25 17.5,4.25 Z"
     id="path3" />
  <path
     d="M 6.5,4.25 C 5.0955414,4.25 4.2444447,4.1972022 3.4726563,4.7128906 3.1723972,4.9135216 2.9135216,5.1723972 2.7128906,5.4726562 2.1972022,6.2444447 2.25,7.0955414 2.25,8.5 V 22 h 1.5 V 8.5 C 3.75,7.0955414 3.8025066,6.541798 3.9609375,6.3046875 4.0521462,6.168187 4.168187,6.0521462 4.3046875,5.9609375 4.541798,5.8025066 5.0955414,5.75 6.5,5.75 Z"
     id="path4" />
  <path
     d="M 12,18.25 A 0.75,0.75 0 0 0 11.25,19 v 3 A 0.75,0.75 0 0 0 12,22.75 0.75,0.75 0 0 0 12.75,22 V 19 A 0.75,0.75 0 0 0 12,18.25 Z"
     id="path5" />
  <path
     d="M 10,11.25 A 0.75,0.75 0 0 0 9.25,12 0.75,0.75 0 0 0 10,12.75 h 4 A 0.75,0.75 0 0 0 14.75,12 0.75,0.75 0 0 0 14,11.25 Z"
     id="path6" />
  <path
     d="M 5.5,10.25 A 0.75,0.75 0 0 0 4.75,11 0.75,0.75 0 0 0 5.5,11.75 H 7 A 0.75,0.75 0 0 0 7.75,11 0.75,0.75 0 0 0 7,10.25 Z"
     id="path7" />
  <path
     d="M 5.5,13.25 A 0.75,0.75 0 0 0 4.75,14 0.75,0.75 0 0 0 5.5,14.75 H 7 A 0.75,0.75 0 0 0 7.75,14 0.75,0.75 0 0 0 7,13.25 Z"
     id="path8" />
  <path
     d="M 17,10.25 A 0.75,0.75 0 0 0 16.25,11 0.75,0.75 0 0 0 17,11.75 h 1.5 A 0.75,0.75 0 0 0 19.25,11 0.75,0.75 0 0 0 18.5,10.25 Z"
     id="path9" />
  <path
     d="M 17,13.25 A 0.75,0.75 0 0 0 16.25,14 0.75,0.75 0 0 0 17,14.75 h 1.5 A 0.75,0.75 0 0 0 19.25,14 0.75,0.75 0 0 0 18.5,13.25 Z"
     id="path10" />
  <path
     d="M 5.5,7.25 A 0.75,0.75 0 0 0 4.75,8 0.75,0.75 0 0 0 5.5,8.75 H 7 A 0.75,0.75 0 0 0 7.75,8 0.75,0.75 0 0 0 7,7.25 Z"
     id="path11" />
  <path
     d="M 17,7.25 A 0.75,0.75 0 0 0 16.25,8 0.75,0.75 0 0 0 17,8.75 h 1.5 A 0.75,0.75 0 0 0 19.25,8 0.75,0.75 0 0 0 18.5,7.25 Z"
     id="path12" />
  <path
     d="M 10,14.25 A 0.75,0.75 0 0 0 9.25,15 0.75,0.75 0 0 0 10,15.75 h 4 A 0.75,0.75 0 0 0 14.75,15 0.75,0.75 0 0 0 14,14.25 Z"
     id="path13" />
  <path
     d="M 12,4.25 A 0.75,0.75 0 0 0 11.25,5 V 9 A 0.75,0.75 0 0 0 12,9.75 0.75,0.75 0 0 0 12.75,9 V 5 A 0.75,0.75 0 0 0 12,4.25 Z"
     id="path14" />
  <path
     d="M 10,6.25 A 0.75,0.75 0 0 0 9.25,7 0.75,0.75 0 0 0 10,7.75 h 4 A 0.75,0.75 0 0 0 14.75,7 0.75,0.75 0 0 0 14,6.25 Z"
     id="path15" />
</svg>
