<?xml version="1.0" encoding="UTF-8" standalone="no"?>
<svg
   width="24"
   height="24"
   viewBox="0 0 24 24"
   version="1.1"
   id="svg6"
   xmlns="http://www.w3.org/2000/svg"
   xmlns:svg="http://www.w3.org/2000/svg">
  <defs
     id="defs6" />
  <path
     
     d="M 11,1.25 C 9.1143819,1.25 7.6859363,1.2444746 6.5117187,1.4023437 5.3375012,1.5602129 4.3686723,1.9125839 3.640625,2.640625 2.9125839,3.3686723 2.5602129,4.3375012 2.4023438,5.5117187 2.2444746,6.6859363 2.25,8.1143819 2.25,10 v 4 c 0,1.885598 -0.00553,3.314057 0.1523438,4.488281 0.157869,1.174225 0.5102187,2.143075 1.2382812,2.871094 0.7280455,0.728058 1.6968741,1.080408 2.8710937,1.238281 C 7.6859384,22.75553 9.1143819,22.75 11,22.75 h 2 c 1.885598,0 3.314055,0.0055 4.488281,-0.152344 1.174227,-0.157873 2.143077,-0.510202 2.871094,-1.238281 0.728079,-0.728017 1.080408,-1.696867 1.238281,-2.871094 C 21.75553,17.314055 21.75,15.885598 21.75,14 V 10 C 21.75,8.1143819 21.7555,6.6859384 21.597656,5.5117187 21.439783,4.3374991 21.087433,3.3686705 20.359375,2.640625 19.631356,1.9125625 18.662506,1.5602128 17.488281,1.4023437 16.314057,1.2444747 14.885598,1.25 13,1.25 Z m 0,1.5 h 2 c 1.885598,0 3.284764,0.0056 4.289062,0.140625 1.004299,0.1350232 1.566286,0.3670405 2.009766,0.8105469 0.443541,0.4435333 0.675521,1.0054774 0.810547,2.0097656 C 20.244401,6.7152257 20.25,8.1143819 20.25,10 v 4 c 0,1.885598 -0.0056,3.284766 -0.140625,4.289062 -0.135026,1.004297 -0.367027,1.566284 -0.810547,2.009766 -0.443482,0.44352 -1.005469,0.675521 -2.009766,0.810547 C 16.284766,21.244401 14.885598,21.25 13,21.25 H 11 C 9.1143819,21.25 7.7152257,21.2444 6.7109375,21.109375 5.7066493,20.974349 5.1447052,20.742369 4.7011719,20.298828 4.2576655,19.855348 4.0256482,19.293361 3.890625,18.289062 3.7556018,17.284764 3.75,15.885598 3.75,14 V 10 C 3.75,8.1143819 3.7556,6.7152278 3.890625,5.7109375 4.0256481,4.7066472 4.2576441,4.1447034 4.7011719,3.7011719 5.1447034,3.2576441 5.7066472,3.0256481 6.7109375,2.890625 7.7152278,2.7556019 9.1143819,2.75 11,2.75 Z"
     id="path1" />
  <path

     d="m 10.375,13.75 c -0.8886293,0 -1.625,0.73643 -1.625,1.625 V 15.5 c 0,1.786036 1.463964,3.25 3.25,3.25 1.786036,0 3.25,-1.463964 3.25,-3.25 v -0.125 c 0,-0.888621 -0.736379,-1.625 -1.625,-1.625 z m 0,1.5 h 3.25 c 0.07778,0 0.125,0.04722 0.125,0.125 V 15.5 c 0,0.975361 -0.774639,1.75 -1.75,1.75 -0.975361,0 -1.75,-0.774639 -1.75,-1.75 v -0.125 c 0,-0.07783 0.04713,-0.125 0.125,-0.125 z"
     id="path2" />
  <path

     d="M 10.5,1.25 C 10.2643,1.25 10.072685,1.24566 9.8515625,1.275391 9.6304397,1.3051204 9.3307193,1.3997347 9.1152344,1.6152344 8.8997347,1.8307193 8.8051204,2.1304397 8.7753906,2.3515625 8.7456609,2.5726853 8.75,2.7643002 8.75,3 v 0.5 c 0,0.2356998 -0.00434,0.4273147 0.025391,0.6484375 0.02973,0.2211228 0.1243441,0.5208432 0.3398438,0.7363281 0.2154849,0.2154997 0.5152053,0.310114 0.7363281,0.3398438 C 10.072685,5.2543391 10.2643,5.25 10.5,5.25 H 11 c 0.2357,0 0.427317,0.00434 0.648438,-0.025391 0.22112,-0.029728 0.520848,-0.1244376 0.736328,-0.3398438 C 12.600216,4.669256 12.694893,4.3695324 12.724609,4.1484371 12.754325,3.9273422 12.75,3.7356998 12.75,3.5 V 3 C 12.75,2.7643002 12.7543,2.5726578 12.72461,2.3515625 12.694893,2.1304672 12.600216,1.8307436 12.384766,1.6152344 12.169286,1.3998282 11.869558,1.305119 11.648438,1.2753906 11.427317,1.2456623 11.2357,1.25 11,1.25 Z m 0,1.5 H 11 c 0.128091,0 0.16559,0.00348 0.244141,0.00586 C 11.246522,2.8344153 11.25,2.8719093 11.25,3 v 0.5 c 0,0.1280907 -0.0035,0.1655847 -0.0059,0.2441406 C 11.16559,3.7465223 11.128091,3.75 11,3.75 H 10.5 C 10.371909,3.75 10.334409,3.74652 10.255859,3.74414 10.253478,3.6655908 10.25,3.6280907 10.25,3.5 V 3 c 0,-0.1280907 0.0035,-0.1655908 0.0059,-0.2441406 C 10.334409,2.7534777 10.371909,2.75 10.5,2.75 Z"
     id="path3" />
  <path

     d="M 10.5,6.25 C 10.2643,6.25 10.072685,6.24566 9.8515625,6.275391 9.6304397,6.3051204 9.3307193,6.3997347 9.1152344,6.6152344 8.8997347,6.8307193 8.8051204,7.1304397 8.7753906,7.3515625 8.7456609,7.5726853 8.75,7.7643002 8.75,8 v 0.5 c 0,0.2356998 -0.00434,0.4273147 0.025391,0.6484375 0.02973,0.2211228 0.1243441,0.5208432 0.3398438,0.7363281 C 9.3307193,10.100265 9.6304397,10.19488 9.8515625,10.224609 10.072685,10.254339 10.2643,10.25 10.5,10.25 H 11 c 0.2357,0 0.427317,0.0043 0.648438,-0.02539 0.22112,-0.02973 0.520848,-0.124437 0.736328,-0.3398434 0.21545,-0.2155092 0.310127,-0.5152328 0.339843,-0.7363281 C 12.754325,8.9273422 12.75,8.7356998 12.75,8.5 V 8 C 12.75,7.7643002 12.7543,7.5726578 12.72461,7.3515625 12.694893,7.1304672 12.600216,6.8307436 12.384766,6.6152344 12.169286,6.3998282 11.869558,6.305119 11.648438,6.2753906 11.427317,6.2456623 11.2357,6.25 11,6.25 Z m 0,1.5 H 11 c 0.128091,0 0.16559,0.00348 0.244141,0.00586 C 11.246522,7.8344153 11.25,7.8719093 11.25,8 v 0.5 c 0,0.1280907 -0.0035,0.1655847 -0.0059,0.2441406 C 11.16559,8.7465223 11.128091,8.75 11,8.75 H 10.5 C 10.371909,8.75 10.334409,8.74652 10.255859,8.74414 10.253478,8.6655908 10.25,8.6280907 10.25,8.5 V 8 c 0,-0.1280907 0.0035,-0.1655908 0.0059,-0.2441406 C 10.334409,7.7534777 10.371909,7.75 10.5,7.75 Z"
     id="path4" />
  <path

     d="M 13,3.75 C 12.7643,3.75 12.572683,3.74566 12.351563,3.775391 12.130442,3.805119 11.830714,3.8998286 11.615234,4.1152348 11.399784,4.330744 11.305107,4.6304676 11.275391,4.8515629 11.245675,5.0726578 11.25,5.2643002 11.25,5.5 V 6 c 0,0.2356998 -0.0043,0.4273422 0.02539,0.6484375 0.02972,0.2210953 0.124393,0.5208189 0.339843,0.7363281 0.21548,0.2154062 0.515208,0.3101154 0.736329,0.3398438 C 12.572683,7.7543377 12.7643,7.75 13,7.75 h 0.5 c 0.2357,0 0.427317,0.00434 0.648438,-0.025391 0.22112,-0.029728 0.520848,-0.1244376 0.736328,-0.3398438 C 15.100216,7.169256 15.194893,6.8695324 15.224609,6.6484371 15.254325,6.4273422 15.25,6.2356998 15.25,6 V 5.5 C 15.25,5.2643002 15.2543,5.0726578 15.22461,4.8515625 15.194893,4.6304672 15.100216,4.3307436 14.884766,4.1152344 14.669286,3.8998282 14.369558,3.805119 14.148438,3.7753906 13.927317,3.7456623 13.7357,3.75 13.5,3.75 Z m 0,1.5 h 0.5 c 0.128091,0 0.16559,0.00348 0.244141,0.00586 C 13.746522,5.3344153 13.75,5.3719093 13.75,5.5 V 6 c 0,0.1280907 -0.0035,0.1655847 -0.0059,0.2441406 C 13.66559,6.2465223 13.628091,6.25 13.5,6.25 H 13 C 12.871909,6.25 12.83441,6.24652 12.755859,6.24414 12.753478,6.1655847 12.75,6.1280907 12.75,6 V 5.5 c 0,-0.1280907 0.0035,-0.1655847 0.0059,-0.2441406 C 12.83441,5.2534777 12.871909,5.25 13,5.25 Z"
     id="path5" />
  <path

     d="M 13,8.75 C 12.7643,8.75 12.572683,8.74566 12.351563,8.775391 12.130442,8.805119 11.830714,8.8998286 11.615234,9.1152348 11.399784,9.330744 11.305107,9.6304676 11.275391,9.8515629 11.245675,10.072658 11.25,10.2643 11.25,10.5 V 11 c 0,0.2357 -0.0043,0.427344 0.02539,0.648438 0.02971,0.221093 0.124486,0.518871 0.339843,0.734375 v 0.002 h 0.002 c 0.215503,0.215357 0.513281,0.310129 0.734375,0.339843 C 12.572656,12.754324 12.7643,12.75 13,12.75 h 0.5 c 0.2357,0 0.427344,0.0043 0.648438,-0.02539 0.221093,-0.02971 0.518871,-0.124486 0.734375,-0.339843 h 0.002 v -0.002 C 15.10017,12.167263 15.194942,11.869485 15.224656,11.648392 15.254324,11.427344 15.25,11.2357 15.25,11 v -0.5 c 0,-0.2357 0.0043,-0.427342 -0.02539,-0.6484375 C 15.194893,9.6304672 15.100216,9.3307436 14.884766,9.1152344 14.669286,8.8998282 14.369558,8.805119 14.148438,8.7753906 13.927317,8.7456623 13.7357,8.75 13.5,8.75 Z m 0,1.5 h 0.5 c 0.128091,0 0.16559,0.0035 0.244141,0.0059 0.0024,0.07856 0.0059,0.11605 0.0059,0.244141 V 11 c 0,0.128091 -0.0035,0.165584 -0.0059,0.244141 C 13.665584,11.246522 13.628091,11.25 13.5,11.25 H 13 c -0.128091,0 -0.165584,-0.0035 -0.244141,-0.0059 C 12.753478,11.165584 12.75,11.128091 12.75,11 v -0.5 c 0,-0.128091 0.0035,-0.165585 0.0059,-0.244141 C 12.83441,10.253478 12.871909,10.25 13,10.25 Z"
     id="path6" />
</svg>
