<?xml version="1.0" encoding="UTF-8" standalone="no"?>
<svg
   width="24"
   height="24"
   viewBox="0 0 24 24"
   
   version="1.1"
   id="svg11"
   xmlns="http://www.w3.org/2000/svg"
   xmlns:svg="http://www.w3.org/2000/svg">
  <defs
     id="defs11" />
  <path
     
     d="M 7.5839844,6.3027344 C 6.8616474,6.4732577 6.3573451,7.0526624 6.0078125,7.7421875 5.6582799,8.4317126 5.373244,9.3080072 4.9902344,10.457031 l -1.6894531,5.06836 c -0.4609047,1.382699 -0.8159554,2.425765 -0.9726563,3.30664 -0.1567009,0.880875 -0.088191,1.749683 0.5,2.337891 0.5881957,0.588212 1.4570129,0.65865 2.3378906,0.501953 0.8808777,-0.156697 1.92589,-0.511757 3.3085938,-0.972656 l 5.0683596,-1.689453 c 1.149046,-0.383049 2.025328,-0.668047 2.714843,-1.017579 0.689516,-0.349531 1.268954,-0.855793 1.439454,-1.578125 0.170568,-0.722366 -0.123568,-1.433688 -0.583985,-2.054687 C 16.652865,13.738376 15.99897,13.09277 15.142578,12.236328 L 11.763672,8.8574219 C 10.907238,8.000993 10.25967,7.3451796 9.6386719,6.8847656 9.0176739,6.4243516 8.306325,6.1322121 7.5839844,6.3027344 Z M 7.9296875,7.7617187 C 8.113606,7.7183013 8.2840953,7.7473135 8.7460938,8.0898438 9.2080922,8.432374 9.8447375,9.0615393 10.701172,9.9179688 l 3.378906,3.3789062 c 0.856407,0.856457 1.485592,1.495031 1.828125,1.957031 0.342533,0.462 0.371556,0.632474 0.328125,0.816406 -0.0434,0.183869 -0.14522,0.323942 -0.658203,0.583985 -0.512983,0.260043 -1.360714,0.54859 -2.509766,0.93164 L 8,19.275391 C 6.6172965,19.73629 5.5885951,20.073585 4.9042969,20.195312 4.2199986,20.31704 4.0303555,20.251062 3.8886719,20.109375 3.746984,19.967683 3.6829561,19.780001 3.8046875,19.095703 3.9264189,18.411405 4.2617518,17.380745 4.7226562,15.998047 L 6.4121094,10.929688 C 6.7951189,9.7806638 7.0856638,8.932903 7.3457031,8.4199219 7.6057424,7.9069407 7.7457754,7.8051352 7.9296875,7.7617187 Z"
     id="path1" />
  <path
     
     d="M 8.2167969,6.6191406 A 0.75,0.75 0 0 0 7.3300781,7.2011719 c 0,0 -0.9799559,4.6038781 -0.7714844,7.7832031 0.1261866,1.924224 0.7753907,4.669922 0.7753907,4.669922 a 0.75,0.75 0 0 0 0.9003906,0.560547 0.75,0.75 0 0 0 0.5605469,-0.900391 c 0,0 -0.6307212,-2.759715 -0.7402344,-4.429687 C 7.8737594,12.125496 8.7988281,7.5039062 8.7988281,7.5039062 A 0.75,0.75 0 0 0 8.2167969,6.6191406 Z m 4.2558591,3.4335934 a 0.75,0.75 0 0 0 -0.949218,0.47461 c 0,0 -0.796875,2.266452 -0.796875,4.027344 0,1.760807 0.796874,4.027343 0.796875,4.027343 a 0.75,0.75 0 0 0 0.949218,0.476563 0.75,0.75 0 0 0 0.47461,-0.949219 c 0,0 -0.720703,-2.296098 -0.720703,-3.554687 0,-1.258706 0.720703,-3.552735 0.720703,-3.552735 a 0.75,0.75 0 0 0 -0.47461,-0.949219 z"
     id="path2" />
  <path
     
     d="m 17.689453,4.7207031 a 0.75,0.75 0 0 0 -0.882812,0.5898438 l -0.144532,0.71875 c -0.09286,0.4642206 -0.423921,0.8405406 -0.873046,0.9902343 -0.957376,0.3191523 -1.673151,1.1295627 -1.871094,2.1191407 L 13.773438,9.859375 a 0.75,0.75 0 0 0 0.58789,0.882813 0.75,0.75 0 0 0 0.882813,-0.589844 l 0.144531,-0.7187502 c 0.09286,-0.4642206 0.425976,-0.8405472 0.875,-0.9902344 0.957473,-0.3191258 1.671198,-1.1295627 1.86914,-2.1191407 L 18.277344,5.6035156 A 0.75,0.75 0 0 0 17.689453,4.7207031 Z"
     id="path3" />
  <path
     
     d="m 20.611328,12.005859 c -0.46507,0.07344 -0.909659,0.277235 -1.275391,0.601563 -0.328306,0.291121 -0.799708,0.338535 -1.179687,0.119141 l -0.212891,-0.123047 a 0.75,0.75 0 0 0 -1.023437,0.27539 0.75,0.75 0 0 0 0.27539,1.023438 l 0.210938,0.123047 c 0.93422,0.539405 2.116736,0.420755 2.923828,-0.294922 0.296736,-0.263144 0.714681,-0.330795 1.078125,-0.171875 L 21.699219,13.6875 A 0.75,0.75 0 0 0 22.6875,13.300781 0.75,0.75 0 0 0 22.300781,12.3125 l -0.291015,-0.126953 c -0.447878,-0.19584 -0.933368,-0.253125 -1.398438,-0.179688 z"
     id="path4" />
  <path
     
     d="M 9.6191406,2.0507813 A 0.75,0.75 0 0 0 9.1542969,2.3886719 C 8.6381719,3.2329397 8.7690428,4.3315428 9.46875,5.03125 l 0.097656,0.097656 c 0.1986821,0.198662 0.2726946,0.486971 0.1914062,0.7558594 a 0.75,0.75 0 0 0 0.5000008,0.9335938 0.75,0.75 0 0 0 0.935546,-0.5 c 0.240512,-0.7955706 0.02131,-1.6623427 -0.566406,-2.25 l -0.09766,-0.097656 C 10.313945,3.7553512 10.276692,3.429773 10.435547,3.1699219 a 0.75,0.75 0 0 0 -0.25,-1.03125 0.75,0.75 0 0 0 -0.5664064,-0.087891 z"
     id="path5" />
  <path
     d="m 6.92761,3.94079 c 0.20947,-0.20947 0.54908,-0.20947 0.75855,0 0.20947,0.20947 0.20947,0.54909 0,0.75856 -0.20947,0.20947 -0.54908,0.20947 -0.75855,0 -0.20947,-0.20947 -0.20947,-0.54909 0,-0.75856 z"
     
     id="path6" />
  <path
     d="m 12.1571,7.1571 c 0.2095,-0.20947 0.5491,-0.20947 0.7586,0 0.2094,0.20947 0.2094,0.54909 0,0.75856 -0.2095,0.20946 -0.5491,0.20946 -0.7586,0 -0.2095,-0.20947 -0.2095,-0.54909 0,-0.75856 z"
     
     id="path7" />
  <path
     d="m 17.1571,10.1571 c 0.2095,-0.20947 0.5491,-0.20947 0.7586,0 0.2094,0.2095 0.2094,0.5491 0,0.7586 -0.2095,0.2094 -0.5491,0.2094 -0.7586,0 -0.2095,-0.2095 -0.2095,-0.5491 0,-0.7586 z"
     
     id="path8" />
  <path
     d="m 19.0582,15.3134 c 0.2095,-0.2095 0.5491,-0.2095 0.7586,0 0.2094,0.2094 0.2094,0.549 0,0.7585 -0.2095,0.2095 -0.5491,0.2095 -0.7586,0 -0.2094,-0.2095 -0.2094,-0.5491 0,-0.7585 z"
     
     id="path9" />
  <path
  
     d="m 19.808594,6.9023437 c -0.288238,0.068283 -0.567963,0.2261693 -0.800782,0.4589844 -0.548289,0.548257 -0.530015,1.3218872 -0.490234,1.9433594 0.03978,0.6214722 0.169922,1.1425785 0.169922,1.1425785 a 0.50005,0.50005 0 0 0 0.365234,0.365234 c 0,0 0.521092,0.132094 1.142578,0.171875 0.621487,0.03978 1.395083,0.05609 1.94336,-0.492187 0.465645,-0.465606 0.628791,-1.1221338 0.384765,-1.6503911 C 22.332497,8.4284556 21.899026,8.2004973 21.402344,8.0976563 21.299523,7.6009743 21.071552,7.1674895 20.658203,6.9765625 20.394069,6.8545585 20.096831,6.8340608 19.808594,6.9023437 Z m 0.429687,0.9824219 C 20.352638,7.9375873 20.50111,8.0932641 20.5,8.4980469 A 0.50005,0.50005 0 0 0 21.001953,9 c 0.404825,-0.00108 0.560457,0.1473667 0.613281,0.2617188 0.05282,0.114352 0.06066,0.279204 -0.183593,0.5234375 -0.122023,0.1220227 -0.654088,0.2343157 -1.171875,0.2011718 -0.347341,-0.022233 -0.477626,-0.062674 -0.648438,-0.097656 -0.03498,-0.1708073 -0.07542,-0.3011082 -0.09766,-0.6484375 -0.03314,-0.5177716 0.07916,-1.0498726 0.201172,-1.171875 0.244262,-0.244259 0.40908,-0.2364155 0.523437,-0.1835938 z"
     id="path10" />
  <path

     d="m 13.160156,2.0566406 c -0.22892,0.1202485 -0.342537,0.3684832 -0.380859,0.5371094 -0.03832,0.1686262 -0.0455,0.3227266 -0.06055,0.515625 l -0.0078,0.099609 c -0.0086,0.1096399 -0.0194,0.087909 0.01758,0.017578 v 0.00195 c 0.03732,-0.07126 0.05531,-0.071263 -0.03125,0 l -0.07813,0.064453 c -0.1522,0.1252998 -0.274091,0.2202575 -0.390625,0.3476562 -0.116535,0.1273987 -0.260748,0.3614663 -0.22461,0.625 0.03597,0.2636253 0.252413,0.4606873 0.404297,0.5449219 0.151884,0.084234 0.294314,0.1313683 0.472656,0.1972656 l 0.08399,0.029297 0.0293,0.083984 c 0.0659,0.1783699 0.113046,0.3207828 0.197265,0.4726563 0.08422,0.1518735 0.281391,0.3662535 0.544922,0.4023437 0.263536,0.036091 0.495668,-0.1061368 0.623047,-0.2226562 0.127379,-0.1165194 0.22431,-0.2384352 0.349609,-0.390625 l 0.06445,-0.078125 v -0.00195 c 0.05869,-0.069174 0.06801,-0.064037 0.002,-0.029297 -0.0705,0.037072 -0.09211,0.026137 0.01758,0.017578 l 0.09961,-0.00781 c 0.192897,-0.01506 0.347022,-0.022219 0.515625,-0.060547 0.168603,-0.038328 0.416832,-0.1518059 0.53711,-0.3808593 0.120325,-0.2288293 0.0692,-0.5067713 0,-0.6660157 -0.0692,-0.1592443 -0.152946,-0.2833877 -0.253907,-0.4433593 l -0.05078,-0.080078 0.002,-0.00195 0.02734,-0.095703 c 0.05336,-0.1876951 0.09835,-0.3343674 0.121094,-0.5058594 0.02275,-0.1714919 0.0021,-0.4568014 -0.189453,-0.6484375 -0.191632,-0.191689 -0.476948,-0.2121968 -0.648438,-0.1894531 -0.17149,0.022744 -0.31816,0.067764 -0.505859,0.1210938 L 14.34971,2.35938 14.26963,2.310552 C 14.10967,2.2096158 13.985482,2.1258399 13.826271,2.0566457 c -0.159212,-0.069194 -0.437107,-0.1203519 -0.666016,0 z m 1.185547,0.3222657 c 0.0116,4.8e-4 -0.02249,0.00304 -0.002,0.00586 h -0.002 c 0.02482,0.0034 -0.0083,-0.00915 0.0039,-0.00586 z M 13.71875,3.1464844 c 0.0087,0.00545 0.0086,0.0041 0.01758,0.00977 l 0.08399,0.052734 c 0.09083,0.057316 0.195315,0.1398256 0.386718,0.1660156 0.191635,0.026272 0.309351,-0.022406 0.416016,-0.052734 l 0.07813,-0.021484 -0.02148,0.078125 c -0.0305,0.1065668 -0.07891,0.2256773 -0.05274,0.4160156 0.02603,0.1919663 0.10862,0.2958158 0.166016,0.3867187 l 0.05273,0.083984 c 0.0057,0.00898 0.0043,0.00889 0.0098,0.017578 -0.01987,0.00165 -0.01972,0.00224 -0.04102,0.00391 l -0.09961,0.00781 c -0.109712,0.00856 -0.239956,0.0063 -0.40625,0.09375 -0.166246,0.087426 -0.23542,0.1929028 -0.306641,0.2792968 l -0.06641,0.078125 c -0.005,0.00607 -0.0049,0.00579 -0.0098,0.011719 l -0.02734,-0.076172 C 13.86099,4.5804114 13.828758,4.4517673 13.689453,4.3125 13.55024,4.1733252 13.421685,4.1409656 13.320313,4.1035156 l -0.07813,-0.027344 c 0.0069,-0.00574 0.0065,-0.00583 0.01367,-0.011719 L 13.333984,4 c 0.08644,-0.071157 0.191772,-0.1414935 0.279297,-0.3085937 0.08738,-0.1661907 0.08515,-0.294657 0.09375,-0.4042969 l 0.0078,-0.1015625 c 0.0016,-0.020405 0.0023,-0.01997 0.0039,-0.039063 z M 15.623047,3.65625 c 0.0033,0.012309 -0.0092,-0.021101 -0.0059,0.00391 V 3.65821 c 0.003,0.022048 0.0055,-0.01366 0.0059,-0.00195 z"
     id="path11" />
</svg>
