<?xml version="1.0" encoding="UTF-8" standalone="no"?>
<svg
   width="24"
   height="24"
   viewBox="0 0 24 24"
   
   version="1.1"
   id="svg10"
   xmlns="http://www.w3.org/2000/svg"
   xmlns:svg="http://www.w3.org/2000/svg">
  <defs
     id="defs10" />
  <path
     
     d="M 7.5839844,6.3027344 C 6.8616474,6.4732577 6.3573451,7.0526624 6.0078125,7.7421875 5.6582799,8.4317126 5.373244,9.3080072 4.9902344,10.457031 l -1.6894531,5.06836 c -0.4609047,1.382699 -0.8159554,2.425765 -0.9726563,3.30664 -0.1567009,0.880875 -0.088191,1.749683 0.5,2.337891 0.5881957,0.588212 1.4570129,0.65865 2.3378906,0.501953 0.8808777,-0.156697 1.92589,-0.511757 3.3085938,-0.972656 l 5.0683596,-1.689453 c 1.149046,-0.383049 2.025328,-0.668047 2.714843,-1.017579 0.689516,-0.349531 1.268954,-0.855793 1.439454,-1.578125 0.170568,-0.722366 -0.123568,-1.433688 -0.583985,-2.054687 C 16.652865,13.738376 15.99897,13.09277 15.142578,12.236328 L 11.763672,8.8574219 C 10.907238,8.000993 10.25967,7.3451796 9.6386719,6.8847656 9.0176739,6.4243516 8.306325,6.1322121 7.5839844,6.3027344 Z M 7.9296875,7.7617187 C 8.113606,7.7183013 8.2840953,7.7473135 8.7460938,8.0898438 9.2080922,8.432374 9.8447375,9.0615393 10.701172,9.9179688 l 3.378906,3.3789062 c 0.856407,0.856457 1.485592,1.495031 1.828125,1.957031 0.342533,0.462 0.371556,0.632474 0.328125,0.816406 -0.0434,0.183869 -0.14522,0.323942 -0.658203,0.583985 -0.512983,0.260043 -1.360714,0.54859 -2.509766,0.93164 L 8,19.275391 C 6.6172965,19.73629 5.5885951,20.073585 4.9042969,20.195312 4.2199986,20.31704 4.0303555,20.251062 3.8886719,20.109375 3.746984,19.967683 3.6829561,19.780001 3.8046875,19.095703 3.9264189,18.411405 4.2617518,17.380745 4.7226562,15.998047 L 6.4121094,10.929688 C 6.7951189,9.7806638 7.0856638,8.932903 7.3457031,8.4199219 7.6057424,7.9069407 7.7457754,7.8051352 7.9296875,7.7617187 Z"
     id="path1" />
  <path
     
     d="M 8.2167969,6.6191406 A 0.75,0.75 0 0 0 7.3300781,7.2011719 c 0,0 -0.9799559,4.6038781 -0.7714844,7.7832031 0.1261866,1.924224 0.7753907,4.669922 0.7753907,4.669922 a 0.75,0.75 0 0 0 0.9003906,0.560547 0.75,0.75 0 0 0 0.5605469,-0.900391 c 0,0 -0.6307212,-2.759715 -0.7402344,-4.429687 C 7.8737594,12.125496 8.7988281,7.5039062 8.7988281,7.5039062 A 0.75,0.75 0 0 0 8.2167969,6.6191406 Z m 4.2558591,3.4335934 a 0.75,0.75 0 0 0 -0.949218,0.47461 c 0,0 -0.796875,2.266452 -0.796875,4.027344 0,1.760807 0.796874,4.027343 0.796875,4.027343 a 0.75,0.75 0 0 0 0.949218,0.476563 0.75,0.75 0 0 0 0.47461,-0.949219 c 0,0 -0.720703,-2.296098 -0.720703,-3.554687 0,-1.258706 0.720703,-3.552735 0.720703,-3.552735 a 0.75,0.75 0 0 0 -0.47461,-0.949219 z"
     id="path2" />
  <path
     
     d="m 17.689453,4.7207031 a 0.75,0.75 0 0 0 -0.882812,0.5898438 l -0.144532,0.71875 c -0.09286,0.4642206 -0.423921,0.8405406 -0.873046,0.9902343 -0.957376,0.3191523 -1.673151,1.1295627 -1.871094,2.1191407 L 13.773438,9.859375 a 0.75,0.75 0 0 0 0.58789,0.882813 0.75,0.75 0 0 0 0.882813,-0.589844 l 0.144531,-0.7187502 c 0.09286,-0.4642206 0.425976,-0.8405472 0.875,-0.9902344 0.957473,-0.3191258 1.671198,-1.1295627 1.86914,-2.1191407 L 18.277344,5.6035156 A 0.75,0.75 0 0 0 17.689453,4.7207031 Z"
     id="path3" />
  <path
     
     d="m 20.611328,11.005859 c -0.465058,0.07345 -0.909641,0.277219 -1.275391,0.601563 -0.328302,0.291118 -0.799476,0.338577 -1.179687,0.119141 l -0.212891,-0.123047 a 0.75,0.75 0 0 0 -1.023437,0.27539 0.75,0.75 0 0 0 0.273437,1.023438 l 0.212891,0.123047 c 0.934188,0.539162 2.116732,0.420759 2.923828,-0.294922 0.2967,-0.263112 0.714837,-0.328742 1.078125,-0.169922 L 21.699219,12.6875 A 0.75,0.75 0 0 0 22.6875,12.300781 0.75,0.75 0 0 0 22.300781,11.3125 l -0.291015,-0.126953 c -0.447856,-0.19579 -0.93338,-0.253139 -1.398438,-0.179688 z"
     id="path4" />
  <path
     
     d="M 10.359375,2.2714844 A 0.75,0.75 0 0 0 9.8945313,2.609375 C 9.378384,3.4536542 9.509325,4.5522479 10.208984,5.2519531 l 0.09766,0.097656 c 0.198623,0.1986538 0.270741,0.486971 0.189453,0.7558593 a 0.75,0.75 0 0 0 0.501953,0.9335938 0.75,0.75 0 0 0 0.935547,-0.5 c 0.240511,-0.7955706 0.02117,-1.6623346 -0.566406,-2.25 l -0.09766,-0.097656 C 11.054192,3.9760524 11.016929,3.6504647 11.175781,3.390625 a 0.75,0.75 0 0 0 -0.25,-1.03125 0.75,0.75 0 0 0 -0.566406,-0.087891 z"
     id="path5" />
  <path
     d="m 13.561,4.39629 c 0.201,-0.20105 0.3016,-0.30158 0.4178,-0.33843 0.0983,-0.03117 0.2039,-0.03117 0.3022,0 0.1162,0.03685 0.2167,0.13738 0.4178,0.33843 0.2011,0.20106 0.3016,0.30159 0.3384,0.41783 0.0312,0.09831 0.0312,0.20386 0,0.30218 -0.0368,0.11624 -0.1373,0.21677 -0.3384,0.41782 -0.2011,0.20106 -0.3016,0.30159 -0.4178,0.33844 -0.0983,0.03116 -0.2039,0.03116 -0.3022,0 C 13.8626,5.83571 13.762,5.73518 13.561,5.53412 13.3599,5.33307 13.2594,5.23254 13.2225,5.1163 c -0.0311,-0.09832 -0.0311,-0.20387 0,-0.30218 0.0369,-0.11624 0.1374,-0.21677 0.3385,-0.41783 z"
     
     id="path6" />
  <path
     d="m 19.4682,7.46822 c 0.2454,-0.24539 0.3681,-0.36808 0.5065,-0.42141 0.162,-0.06241 0.3414,-0.06241 0.5034,0 0.1384,0.05333 0.2611,0.17602 0.5065,0.42141 0.2454,0.2454 0.3681,0.36809 0.4214,0.5065 0.0624,0.16198 0.0624,0.34137 0,0.50335 -0.0533,0.13842 -0.176,0.26111 -0.4214,0.5065 -0.2454,0.24539 -0.3681,0.36809 -0.5065,0.42142 -0.162,0.06241 -0.3414,0.06241 -0.5034,0 C 19.8363,9.35266 19.7136,9.22996 19.4682,8.98457 19.2228,8.73918 19.1001,8.61649 19.0468,8.47807 c -0.0624,-0.16198 -0.0624,-0.34137 0,-0.50335 0.0533,-0.13841 0.176,-0.2611 0.4214,-0.5065 z"
     
     id="path7" />
  <path
     d="m 6.92737,3.94079 c 0.20946,-0.20947 0.54908,-0.20947 0.75855,0 0.20947,0.20947 0.20947,0.54909 0,0.75856 -0.20947,0.20947 -0.54909,0.20947 -0.75855,0 -0.20947,-0.20947 -0.20947,-0.54909 0,-0.75856 z"
     
     id="path8" />
  <path
     d="m 19.0582,15.3134 c 0.2095,-0.2095 0.5491,-0.2095 0.7586,0 0.2094,0.2094 0.2094,0.549 0,0.7585 -0.2095,0.2095 -0.5491,0.2095 -0.7586,0 -0.2094,-0.2095 -0.2094,-0.5491 0,-0.7585 z"
     
     id="path9" />
  <path
     d="m 17.5,9.74145 c 0.2095,-0.20947 0.5491,-0.20947 0.7586,0 0.2094,0.20947 0.2094,0.54905 0,0.75855 -0.2095,0.2095 -0.5491,0.2095 -0.7586,0 -0.2095,-0.2095 -0.2095,-0.54908 0,-0.75855 z"
     
     id="path10" />
</svg>
