<?xml version="1.0" encoding="UTF-8" standalone="no"?>
<svg
   width="24"
   height="24"
   viewBox="0 0 24 24"
   
   version="1.1"
   id="svg2"
   xmlns="http://www.w3.org/2000/svg"
   xmlns:svg="http://www.w3.org/2000/svg">
  <defs
     id="defs2" />
  <path
     d="m 19.8706,12.3884 -0.7457,-0.0802 v 0 z m -0.1834,1.7047 0.7457,0.0802 v 0 z m -15.3744,0 -0.7457,0.0802 v 0 z M 4.12945,12.3884 4.87514,12.3082 v 0 z m 4.63061,-1.4544 0.65501,0.3653 v 0 z M 10.5495,7.7254 9.89453,7.36008 v 0 z m 2.901,0 -0.6551,0.36531 v 10e-6 z m 1.7894,3.2086 0.6551,-0.3654 v 0 z m 0.7639,1.0252 -0.3023,0.6864 v 0 z m 1.4667,-0.7141 -0.5293,-0.5313 v 0 z m -1.0172,0.7768 -0.1027,-0.743 v 0 z M 6.5295,11.2451 6.0002,11.7765 Z m 1.0172,0.7768 0.10273,-0.743 v 0 z m 0.44951,-0.0627 0.30225,0.6864 v 0 z m -2.28413,8.194 0.5002,-0.5589 v 0 z m 12.57582,0 -0.5002,-0.5589 v 0 z M 18.8645,9.98013 19.432,9.48982 v 0 z M 12.9077,6.78265 12.5668,6.11457 Z m -1.8154,0 0.3409,-0.66808 v 0 z m 8.0326,5.52555 -0.1834,1.7047 1.4914,0.1604 0.1834,-1.7047 z m -6.037,7.9418 h -2.1758 v 1.5 h 2.1758 z M 5.0585,14.0129 4.87514,12.3082 3.38375,12.4686 3.5671,14.1733 Z M 9.41507,11.2993 11.2046,8.09072 9.89453,7.36008 8.10504,10.5686 Z M 12.7954,8.09072 14.5849,11.2993 15.895,10.5686 14.1055,7.36008 Z m 1.7895,3.20858 c 0.1618,0.29 0.3107,0.5589 0.455,0.7645 0.1486,0.2115 0.3512,0.4451 0.6616,0.5818 l 0.6045,-1.3728 c 0.0559,0.0245 0.0464,0.0498 -0.0385,-0.071 -0.0891,-0.1269 -0.1948,-0.3145 -0.3725,-0.6332 z m 2.3563,-0.5855 c -0.2587,0.2577 -0.4122,0.4093 -0.533,0.507 -0.1151,0.0931 -0.1176,0.0664 -0.0576,0.0581 l 0.2054,1.4859 c 0.3358,-0.0464 0.5947,-0.2153 0.7957,-0.3779 0.1953,-0.158 0.4125,-0.3757 0.6481,-0.6104 z m -1.2397,1.9318 c 0.2683,0.1181 0.5642,0.1593 0.8545,0.1192 l -0.2054,-1.4859 c -0.0153,0.0021 -0.0307,0 -0.0446,-0.0061 z M 6.0002,11.7765 c 0.23558,0.2347 0.4528,0.4524 0.64814,0.6104 0.20099,0.1626 0.4599,0.3315 0.79563,0.3779 L 7.64943,11.2789 C 7.70944,11.2872 7.7069,11.3139 7.5918,11.2208 7.47104,11.1231 7.31753,10.9715 7.05879,10.7138 Z m 2.10484,-1.2079 c -0.17772,0.3187 -0.28346,0.5063 -0.37254,0.6332 -0.08485,0.1208 -0.09436,0.0955 -0.03855,0.071 l 0.60451,1.3728 C 8.60887,12.5089 8.81155,12.2753 8.96009,12.0638 9.10441,11.8583 9.2533,11.5893 9.41507,11.2993 Z m -0.66107,2.1962 c 0.29032,0.0401 0.58619,-0.0011 0.85449,-0.1192 L 7.69395,11.2728 C 7.68011,11.2789 7.66466,11.281 7.64943,11.2789 Z M 10.9121,20.25 C 9.47421,20.25 8.46719,20.2486 7.69857,20.1502 6.9509,20.0545 6.52851,19.8774 6.21228,19.5943 L 5.21187,20.712 c 0.62986,0.5638 1.3895,0.81 2.29632,0.9261 0.88587,0.1133 2.0058,0.1119 3.40391,0.1119 z m -7.345,-6.0767 c 0.14816,1.3774 0.26572,2.7266 0.46612,3.8207 0.10108,0.5519 0.22856,1.0719 0.40511,1.5232 0.17506,0.4476 0.41657,0.8753 0.77354,1.1948 L 6.21228,19.5943 C 6.0962,19.4904 5.96405,19.3 5.83525,18.9708 5.70795,18.6454 5.60138,18.2299 5.50868,17.7238 5.32149,16.7018 5.21246,15.4443 5.0585,14.0129 Z m 15.3744,-0.1604 c -0.154,1.4314 -0.263,2.6889 -0.4502,3.7109 -0.0927,0.5061 -0.1993,0.9216 -0.3266,1.247 -0.1287,0.3292 -0.2609,0.5196 -0.377,0.6235 l 1.0004,1.1177 c 0.357,-0.3195 0.5985,-0.7472 0.7736,-1.1948 0.1765,-0.4513 0.304,-0.9713 0.4051,-1.5232 0.2004,-1.0941 0.3179,-2.4433 0.4661,-3.8207 z M 13.0879,21.75 c 1.3981,0 2.518,0.0014 3.4039,-0.1119 0.9068,-0.1161 1.6665,-0.3623 2.2963,-0.9261 l -1.0004,-1.1177 c -0.3162,0.2831 -0.7386,0.4602 -1.4863,0.5559 -0.7686,0.0984 -1.7756,0.0998 -3.2135,0.0998 z M 10.75,5 C 10.75,4.30964 11.3096,3.75 12,3.75 V 2.25 C 10.4812,2.25 9.25,3.48122 9.25,5 Z M 12,3.75 c 0.6904,0 1.25,0.55964 1.25,1.25 h 1.5 C 14.75,3.48122 13.5188,2.25 12,2.25 Z M 20.75,9 c 0,0.41421 -0.3358,0.75 -0.75,0.75 v 1.5 c 1.2426,0 2.25,-1.0074 2.25,-2.25 z m -1.5,0 C 19.25,8.58579 19.5858,8.25 20,8.25 V 6.75 C 18.7574,6.75 17.75,7.75736 17.75,9 Z M 20,8.25 c 0.4142,0 0.75,0.33579 0.75,0.75 h 1.5 C 22.25,7.75736 21.2426,6.75 20,6.75 Z M 4,9.75 C 3.58579,9.75 3.25,9.41421 3.25,9 h -1.5 c 0,1.2426 1.00736,2.25 2.25,2.25 z M 3.25,9 C 3.25,8.58579 3.58579,8.25 4,8.25 V 6.75 C 2.75736,6.75 1.75,7.75736 1.75,9 Z M 4,8.25 c 0.41421,0 0.75,0.33579 0.75,0.75 h 1.5 C 6.25,7.75736 5.24264,6.75 4,6.75 Z m 16,1.5 c -0.003,0 -0.006,-2e-5 -0.009,-5e-5 l -0.0174,1.49985 c 0.0088,10e-5 0.0176,2e-4 0.0264,2e-4 z m 0.6163,2.7186 c 0.0483,-0.4499 0.0907,-0.8428 0.1139,-1.1706 0.0228,-0.3211 0.0314,-0.6291 -0.0046,-0.8977 l -1.4867,0.1992 c 0.0147,0.1098 0.0164,0.2913 -0.0049,0.5925 -0.0209,0.2945 -0.0597,0.6566 -0.1091,1.1162 z M 19.991,9.74995 C 19.7681,9.74737 19.5689,9.64827 19.432,9.48982 l -1.1351,0.98058 c 0.4061,0.4701 1.0063,0.7717 1.6767,0.7794 z M 19.432,9.48982 C 19.3181,9.35799 19.25,9.18789 19.25,9 h -1.5 c 0,0.56143 0.2066,1.0765 0.5469,1.4704 z m -1.4322,2.28668 c 0.6775,-0.6748 1.0264,-1.0149 1.2586,-1.1582 L 18.4705,9.34191 C 18.0506,9.60109 17.547,10.1103 16.9412,10.7138 Z M 4.75,9 c 0,0.18789 -0.06812,0.35799 -0.18201,0.48982 L 5.70307,10.4704 C 6.0434,10.0765 6.25,9.56143 6.25,9 Z m 2.30879,1.7138 C 6.45296,10.1103 5.94936,9.60109 5.52946,9.34191 L 4.7416,10.6183 c 0.23217,0.1433 0.58113,0.4834 1.2586,1.1582 z M 4.56799,9.48982 C 4.4311,9.64827 4.23192,9.74737 4.00904,9.74995 L 4.02639,11.2498 C 4.69676,11.2421 5.29701,10.9405 5.70307,10.4704 Z M 4.00904,9.74995 C 4.00602,9.74998 4.00301,9.75 4,9.75 v 1.5 c 0.00881,0 0.01761,-10e-5 0.02639,-2e-4 z m 0.8661,2.55825 C 4.82571,11.8486 4.78687,11.4865 4.76601,11.192 4.74467,10.8908 4.74636,10.7093 4.76107,10.5995 L 3.27435,10.4003 c -0.03598,0.2686 -0.02734,0.5766 -0.00459,0.8977 0.02322,0.3278 0.06559,0.7207 0.11399,1.1706 z M 13.25,5 c 0,0.48504 -0.2761,0.90689 -0.6832,1.11457 l 0.6817,1.33616 C 14.1381,6.99685 14.75,6.07053 14.75,5 Z M 12.5668,6.11457 C 12.3975,6.20095 12.2056,6.25 12,6.25 v 1.5 c 0.448,0 0.873,-0.1077 1.2485,-0.29927 z m 1.5387,1.24551 C 13.8992,6.9902 13.7138,6.65746 13.5437,6.3852 l -1.2721,0.7949 c 0.146,0.23362 0.3112,0.52938 0.5238,0.91061 z M 12,6.25 c -0.2056,0 -0.3975,-0.04905 -0.5668,-0.13543 L 10.7515,7.45073 C 11.127,7.6423 11.552,7.75 12,7.75 Z M 11.4332,6.11457 C 11.0261,5.90689 10.75,5.48504 10.75,5 h -1.5 c 0,1.07053 0.61186,1.99685 1.5015,2.45073 z m -0.2286,1.97615 c 0.2126,-0.38124 0.3778,-0.677 0.5238,-0.91062 L 10.4563,6.3852 c -0.1701,0.27226 -0.3555,0.605 -0.56177,0.97488 z"
     
     id="path1" />
  <path
     
     d="M 5,16.75 A 0.75,0.75 0 0 0 4.25,17.5 0.75,0.75 0 0 0 5,18.25 H 19 A 0.75,0.75 0 0 0 19.75,17.5 0.75,0.75 0 0 0 19,16.75 Z"
     id="path2" />
</svg>
