<?xml version="1.0" encoding="UTF-8" standalone="no"?>
<svg
   width="24"
   height="24"
   viewBox="0 0 24 24"
   
   version="1.1"
   id="svg7"
   xmlns="http://www.w3.org/2000/svg"
   xmlns:svg="http://www.w3.org/2000/svg">
  <defs
     id="defs7" />
  <path
     
     d="M 12,1.25 C 10.172364,1.25 8.6608377,1.4112373 7.4980469,1.6074219 6.9286816,1.7034869 6.4729435,1.7747327 6.0332031,1.9296875 5.5934628,2.0846423 5.1749267,2.3570042 4.8574219,2.7480469 4.5321427,3.1486629 4.3552419,3.6339082 4.296875,4.1191406 4.2385081,4.6043731 4.2639225,5.1030837 4.2890625,5.7363281 4.3811659,8.0562518 4.6707968,10.714752 5.7558594,12.894531 6.840922,15.07431 8.8708541,16.75 12,16.75 c 3.129105,0 5.159093,-1.67569 6.244141,-3.855469 1.085047,-2.179779 1.374723,-4.8382739 1.466796,-7.1582029 0.02515,-0.6332345 0.05055,-1.1319407 -0.0078,-1.6171875 C 19.644766,3.6338939 19.467918,3.1486706 19.142578,2.7480469 18.825089,2.3570154 18.406534,2.0846458 17.966797,1.9296875 17.527059,1.7747292 17.071357,1.7034876 16.501953,1.6074219 15.339212,1.4112351 13.827538,1.25 12,1.25 Z m 0,1.5 c 1.739458,0 3.166697,0.1528246 4.251953,0.3359375 0.569395,0.096064 0.96826,0.1702311 1.216797,0.2578125 0.248537,0.087581 0.351555,0.1547514 0.509766,0.3496094 0.150459,0.1852757 0.198959,0.3109938 0.234375,0.6054687 0.03542,0.294475 0.0232,0.743699 -0.002,1.3769531 -0.08863,2.2330965 -0.398293,4.7220568 -1.308593,6.5507818 C 15.992043,14.055287 14.630789,15.25 12,15.25 9.3691617,15.25 8.0099223,14.055287 7.0996094,12.226563 6.1892965,10.397838 5.8777189,7.908883 5.7890625,5.6757812 5.7639225,5.0425369 5.7516863,4.5933174 5.7871094,4.2988281 5.8225324,4.0043389 5.871044,3.8786427 6.0214844,3.6933594 6.1796891,3.4985126 6.282696,3.4313349 6.53125,3.34375 6.779804,3.2561651 7.1786833,3.1820023 7.7480469,3.0859375 8.8333738,2.9028225 10.260439,2.75 12,2.75 Z"
     id="path1" />
  <path
     
     d="M 12.787109,5.8066406 A 0.750075,0.750075 0 0 0 11.96875,5.96875 l -1.5,1.5 a 0.75,0.75 0 0 0 0,1.0625 0.75,0.75 0 0 0 1.0625,0 L 11.75,8.3125 V 10.5 a 0.75,0.75 0 0 0 0.75,0.75 0.75,0.75 0 0 0 0.75,-0.75 v -4 A 0.750075,0.750075 0 0 0 12.787109,5.8066406 Z"
     id="path2" />
  <path
     
     d="m 19.236328,4.2890625 -0.472656,1.421875 0.947265,0.3164062 c 0.495046,0.1650087 0.85192,0.2870716 1.070313,0.3886719 0.218393,0.1016004 0.276721,0.1579424 0.326172,0.2265625 h 0.002 c 0.04948,0.068636 0.08206,0.1415562 0.109375,0.3808594 0.02732,0.2393032 0.0313,0.6168794 0.03125,1.1386719 v 0.072266 c 0,0.8607391 -0.03179,1.1417824 -0.103516,1.2636719 -0.07175,0.1219248 -0.302288,0.2851254 -1.054687,0.7031247 l -2.955078,1.642578 0.726562,1.3125 2.957031,-1.642578 c 0.7524,-0.418 1.276489,-0.673565 1.619141,-1.255859 C 22.782127,9.6754827 22.75,9.0951141 22.75,8.234375 V 8.162109 C 22.75005,7.6402925 22.7524,7.2342289 22.70898,6.8535152 22.665526,6.4728019 22.557938,6.0898286 22.324219,5.765625 22.090625,5.4421076 21.761005,5.2180443 21.414062,5.0566406 21.066656,4.8950213 20.6806,4.7704798 20.185547,4.6054687 Z"
     id="path3" />
  <path
     
     d="M 4.7636719,4.2890625 3.8144531,4.6054687 C 3.3194236,4.7704786 2.9333426,4.8950253 2.5859375,5.0566406 2.2385324,5.218256 1.9074958,5.4414135 1.6738281,5.765625 1.440155,6.0898327 1.3344696,6.472828 1.2910156,6.8535156 1.2475617,7.2342032 1.249985,7.6403037 1.25,8.1621094 v 0.072266 c 3e-5,0.8607362 -0.032103,1.4411194 0.3105469,2.0234376 0.3426466,0.58234 0.8667238,0.837861 1.6191406,1.255859 L 6.1347656,13.15625 6.8632812,11.84375 3.9082031,10.201172 C 3.1557814,9.7831709 2.9252285,9.6199256 2.8535156,9.4980469 2.7817861,9.3761457 2.75003,9.095117 2.75,8.234375 V 8.1621094 C 2.749985,7.6403061 2.7539315,7.2627668 2.78125,7.0234375 2.8085685,6.7841082 2.8411585,6.71121 2.890625,6.6425781 2.940087,6.5739501 3.0003432,6.51762 3.21875,6.4160156 3.4371568,6.3144112 3.794033,6.1923536 4.2890625,6.0273437 L 5.2363281,5.7109375 Z"
     id="path4" />
  <path
     
     d="M 12,15.25 A 0.75,0.75 0 0 0 11.25,16 v 3 A 0.75,0.75 0 0 0 12,19.75 0.75,0.75 0 0 0 12.75,19 V 16 A 0.75,0.75 0 0 0 12,15.25 Z"
     id="path5" />
  <path
     
     d="m 9.8203125,18.75 c -0.8296413,0 -1.5540878,0.592792 -1.7167969,1.40625 L 7.7636719,21.853516 A 0.750075,0.750075 0 0 0 8.5,22.75 h 7 a 0.750075,0.750075 0 0 0 0.736328,-0.896484 L 15.896484,20.15625 C 15.733762,19.342813 15.009334,18.75 14.179688,18.75 Z m 0,1.5 h 4.3593755 c 0.123752,0 0.221816,0.07981 0.246093,0.201172 L 14.585938,21.25 H 9.4140625 L 9.5742188,20.451172 C 9.5984895,20.329831 9.6965948,20.25 9.8203125,20.25 Z"
     id="path6" />
  <path
     
     d="M 6,21.25 A 0.75,0.75 0 0 0 5.25,22 0.75,0.75 0 0 0 6,22.75 H 18 A 0.75,0.75 0 0 0 18.75,22 0.75,0.75 0 0 0 18,21.25 Z"
     id="path7" />
</svg>
