<?xml version="1.0" encoding="UTF-8" standalone="no"?>
<svg
   width="24"
   height="24"
   viewBox="0 0 24 24"
   
   version="1.1"
   id="svg9"
   xmlns="http://www.w3.org/2000/svg"
   xmlns:svg="http://www.w3.org/2000/svg">
  <defs
     id="defs9" />
  <path
     
     d="m 12,8.25 c -1.509898,0 -2.75,1.2401019 -2.75,2.75 0,1.509898 1.240102,2.75 2.75,2.75 1.509898,0 2.75,-1.240102 2.75,-2.75 0,-1.5098981 -1.240102,-2.75 -2.75,-2.75 z m 0,1.5 c 0.699239,0 1.25,0.550761 1.25,1.25 0,0.699239 -0.550761,1.25 -1.25,1.25 -0.699239,0 -1.25,-0.550761 -1.25,-1.25 0,-0.699239 0.550761,-1.25 1.25,-1.25 z"
     id="circle1" />
  <path
     
     d="m 19.5,5.75 c -0.957622,0 -1.75,0.7924012 -1.75,1.75 0,0.9575988 0.792378,1.75 1.75,1.75 0.957622,0 1.75,-0.7924012 1.75,-1.75 0,-0.9575988 -0.792378,-1.75 -1.75,-1.75 z m 0,1.5 c 0.146977,0 0.25,0.1030399 0.25,0.25 0,0.1469601 -0.103023,0.25 -0.25,0.25 -0.146977,0 -0.25,-0.1030399 -0.25,-0.25 0,-0.1469601 0.103023,-0.25 0.25,-0.25 z"
     id="path1" />
  <path
     
     d="m 19.5,14.25 c -0.957604,0 -1.75,0.792396 -1.75,1.75 0,0.957604 0.792396,1.75 1.75,1.75 0.957604,0 1.75,-0.792396 1.75,-1.75 0,-0.957604 -0.792396,-1.75 -1.75,-1.75 z m 0,1.5 c 0.146995,0 0.25,0.103005 0.25,0.25 0,0.146995 -0.103005,0.25 -0.25,0.25 -0.146995,0 -0.25,-0.103005 -0.25,-0.25 0,-0.146995 0.103005,-0.25 0.25,-0.25 z"
     id="path2" />
  <path
     
     d="M 4.5,5.75 C 3.5423831,5.75 2.75,6.5423831 2.75,7.5 2.75,8.4576169 3.5423831,9.25 4.5,9.25 5.4576169,9.25 6.25,8.4576169 6.25,7.5 6.25,6.5423831 5.4576169,5.75 4.5,5.75 Z m 0,1.5 C 4.646942,7.25 4.75,7.353058 4.75,7.5 4.75,7.646942 4.646942,7.75 4.5,7.75 4.353058,7.75 4.25,7.646942 4.25,7.5 4.25,7.353058 4.353058,7.25 4.5,7.25 Z"
     id="path3" />
  <path
     
     d="m 4.5,14.25 c -0.9575988,0 -1.75,0.792378 -1.75,1.75 0,0.957622 0.7924012,1.75 1.75,1.75 0.9575988,0 1.75,-0.792378 1.75,-1.75 0,-0.957622 -0.7924012,-1.75 -1.75,-1.75 z m 0,1.5 c 0.1469601,0 0.25,0.103023 0.25,0.25 0,0.146977 -0.1030399,0.25 -0.25,0.25 -0.1469601,0 -0.25,-0.103023 -0.25,-0.25 0,-0.146977 0.1030399,-0.25 0.25,-0.25 z"
     id="path4" />
  <path
     
     d="m 12,1.75 c -0.957622,0 -1.75,0.7924012 -1.75,1.75 0,0.9575988 0.792378,1.75 1.75,1.75 0.957622,0 1.75,-0.7924012 1.75,-1.75 0,-0.9575988 -0.792378,-1.75 -1.75,-1.75 z m 0,1.5 c 0.146977,0 0.25,0.1030399 0.25,0.25 0,0.1469601 -0.103023,0.25 -0.25,0.25 -0.146977,0 -0.25,-0.1030399 -0.25,-0.25 0,-0.1469601 0.103023,-0.25 0.25,-0.25 z"
     id="path5" />
  <path
     
     d="m 12,17.75 c -0.957604,0 -1.75,0.792396 -1.75,1.75 0,0.957604 0.792396,1.75 1.75,1.75 0.957604,0 1.75,-0.792396 1.75,-1.75 0,-0.957604 -0.792396,-1.75 -1.75,-1.75 z m 0,1.5 c 0.146995,0 0.25,0.103005 0.25,0.25 0,0.146995 -0.103005,0.25 -0.25,0.25 -0.146995,0 -0.25,-0.103005 -0.25,-0.25 0,-0.146995 0.103005,-0.25 0.25,-0.25 z"
     id="path6" />
  <path
     
     d="m 13.136719,12.34375 a 0.75,0.75 0 0 0 -0.292969,1.019531 l 5,9 a 0.75,0.75 0 0 0 1.019531,0.292969 0.75,0.75 0 0 0 0.292969,-1.019531 l -5,-9 A 0.75,0.75 0 0 0 13.136719,12.34375 Z"
     id="path7" />
  <path
     
     d="M 10.863281,12.34375 A 0.75,0.75 0 0 0 9.84375,12.636719 l -5,9 A 0.75,0.75 0 0 0 5.1367187,22.65625 0.75,0.75 0 0 0 6.15625,22.363281 l 5,-9 A 0.75,0.75 0 0 0 10.863281,12.34375 Z"
     id="path8" />
  <path
     
     d="M 12,2.6679688 C 11.381932,2.6679685 10.764207,2.8201365 10.205078,3.125 L 5.4101562,5.7382812 C 4.2063573,6.3946832 3.4550781,7.6601168 3.4550781,9.03125 v 4.9375 c 0,1.371141 0.7512439,2.636598 1.9550781,3.292969 L 10.205078,19.875 c 1.118249,0.609647 2.471662,0.609679 3.589844,0 l 4.794922,-2.613281 c 1.203848,-0.656372 1.955078,-1.921837 1.955078,-3.292969 v -4.9375 c 0,-1.3711166 -0.751262,-2.636564 -1.955078,-3.2929688 L 13.794922,3.125 C 13.235827,2.8201208 12.618068,2.667969 12,2.6679688 Z m 0,1.4980468 c 0.370506,-3e-7 0.740068,0.09211 1.076172,0.2753906 l 4.794922,2.6152344 c 0.724181,0.3948742 1.173828,1.1497682 1.173828,1.9746094 v 4.9375 c 0,0.824866 -0.449679,1.579783 -1.173828,1.974609 l -4.794922,2.615235 c -0.671307,0.365274 -1.480905,0.365306 -2.152344,0 h -0.002 L 6.1289062,15.943359 C 5.4047624,15.548532 4.9550781,14.793607 4.9550781,13.96875 v -4.9375 c 0,-0.8248446 0.449649,-1.5797323 1.1738281,-1.9746094 L 10.921875,4.4414062 C 11.258045,4.2581102 11.629494,4.1660159 12,4.1660156 Z"
     id="path9" />
</svg>
