<?xml version="1.0" encoding="UTF-8" standalone="no"?>
<svg
   width="24"
   height="24"
   viewBox="0 0 24 24"
   
   version="1.1"
   id="svg7"
   xmlns="http://www.w3.org/2000/svg"
   xmlns:svg="http://www.w3.org/2000/svg">
  <defs
     id="defs7" />
  <path
     
     d="M 6,7.25 C 5.5285955,7.25 5.1600107,7.2449347 4.8027344,7.2929687 4.4454581,7.3410028 4.0504251,7.4730222 3.7617188,7.7617187 3.4730222,8.0504251 3.3410028,8.4454581 3.2929688,8.8027344 3.2449347,9.1600107 3.25,9.5285955 3.25,10 v 0.171875 c 0,0.4087 -0.01852,0.718576 0.1328125,1.083984 0.1513521,0.365258 0.3827872,0.570318 0.671875,0.859375 l 3.2441406,3.244141 C 7.8769028,15.93749 8.0772867,16.16366 8.1542969,16.349609 8.231272,16.535424 8.25,16.838751 8.25,17.65625 V 22 A 0.75,0.75 0 0 0 9,22.75 0.75,0.75 0 0 0 9.75,22 V 17.65625 C 9.75,16.838751 9.76852,16.324576 9.5410156,15.775391 9.3135461,15.226141 8.9374191,14.876912 8.359375,14.298828 L 5.1152344,11.054688 C 4.8262628,10.765746 4.770419,10.683783 4.7695312,10.681641 4.7686236,10.679449 4.75,10.580575 4.75,10.171875 V 10 C 4.75,9.5285955 4.75411,9.1893038 4.779297,9.0019531 4.804485,8.8146025 4.818072,8.826459 4.822266,8.8222656 4.826456,8.8180756 4.814606,8.8044856 5.0019535,8.7792966 5.1893038,8.7541085 5.5285955,8.75 6,8.75 h 12 c 0.4714,0 0.810698,0.00411 0.998047,0.029297 0.187349,0.025188 0.175494,0.038775 0.179687,0.042969 0.0042,0.0042 0.01778,-0.00766 0.04297,0.1796875 C 19.245892,9.189301 19.25,9.5285955 19.25,10 v 0.171875 c 0,0.4087 -0.01861,0.507547 -0.01953,0.509766 -7.94e-4,0.0019 -0.0567,0.08405 -0.345703,0.373047 l -3.244141,3.24414 c -0.578099,0.5781 -0.954129,0.927427 -1.181641,1.476563 C 14.231551,16.324549 14.25,16.838751 14.25,17.65625 V 22 A 0.75,0.75 0 0 0 15,22.75 0.75,0.75 0 0 0 15.75,22 v -4.34375 c 0,-0.817499 0.01874,-1.1208 0.0957,-1.306641 0.07709,-0.186063 0.277369,-0.412135 0.855469,-0.990234 l 3.24414,-3.244141 c 0.289,-0.288999 0.520469,-0.493891 0.671875,-0.859375 C 20.768469,10.890478 20.75,10.580575 20.75,10.171875 V 10 C 20.75,9.5285955 20.7551,9.1600134 20.70703,8.8027344 20.658995,8.4454553 20.526985,8.0504227 20.238281,7.7617187 19.949575,7.4730222 19.554541,7.3410029 19.197266,7.2929687 18.83999,7.2449346 18.4714,7.25 18,7.25 Z"
     id="path8" />
  <path
     
     d="M 9,15.25 A 0.75,0.75 0 0 0 8.25,16 0.75,0.75 0 0 0 9,16.75 h 6 A 0.75,0.75 0 0 0 15.75,16 0.75,0.75 0 0 0 15,15.25 Z"
     id="path9" />
  <path
     
     d="M 4.5,10.25 A 0.75,0.75 0 0 0 3.75,11 0.75,0.75 0 0 0 4.5,11.75 h 15 A 0.75,0.75 0 0 0 20.25,11 0.75,0.75 0 0 0 19.5,10.25 Z"
     id="path10" />
  <path
     
     d="M 12,1.25 A 0.75,0.75 0 0 0 11.25,2 V 5 A 0.75,0.75 0 0 0 12,5.75 0.75,0.75 0 0 0 12.75,5 V 2 A 0.75,0.75 0 0 0 12,1.25 Z"
     id="path11" />
  <path
     
     d="m 6,2.25 a 0.75,0.75 0 0 0 -0.53125,0.21875 0.75,0.75 0 0 0 0,1.0625 l 2,2 a 0.75,0.75 0 0 0 1.0625,0 0.75,0.75 0 0 0 0,-1.0625 l -2,-2 A 0.75,0.75 0 0 0 6,2.25 Z"
     id="path12" />
  <path
     
     d="m 18,2.25 a 0.75,0.75 0 0 0 -0.53125,0.21875 l -2,2 a 0.75,0.75 0 0 0 0,1.0625 0.75,0.75 0 0 0 1.0625,0 l 2,-2 a 0.75,0.75 0 0 0 0,-1.0625 A 0.75,0.75 0 0 0 18,2.25 Z"
     id="path13" />
  <path
     
     d="M 12,18.25 A 0.75,0.75 0 0 0 11.25,19 v 2 A 0.75,0.75 0 0 0 12,21.75 0.75,0.75 0 0 0 12.75,21 V 19 A 0.75,0.75 0 0 0 12,18.25 Z"
     id="path14" />
</svg>
