<?xml version="1.0" encoding="UTF-8" standalone="no"?>
<svg
   width="24"
   height="24"
   viewBox="0 0 24 24"
   
   version="1.1"
   id="svg7"
   xmlns="http://www.w3.org/2000/svg"
   xmlns:svg="http://www.w3.org/2000/svg">
  <defs
     id="defs7" />
  <path
     
     d="M 2,11.25 A 0.75,0.75 0 0 0 1.25,12 0.75,0.75 0 0 0 2,12.75 H 22 A 0.75,0.75 0 0 0 22.75,12 0.75,0.75 0 0 0 22,11.25 Z"
     id="path1" />
  <path
     
     d="M 12,1.25 A 0.75,0.75 0 0 0 11.25,2 V 22 A 0.75,0.75 0 0 0 12,22.75 0.75,0.75 0 0 0 12.75,22 V 2 A 0.75,0.75 0 0 0 12,1.25 Z"
     id="path2" />
  <path
     
     d="M 13,11.25 A 0.75,0.75 0 0 0 12.25,12 c 0,2.614443 2.135557,4.75 4.75,4.75 A 0.75,0.75 0 0 0 17.75,16 0.75,0.75 0 0 0 17,15.25 c -1.803752,0 -3.25,-1.446248 -3.25,-3.25 A 0.75,0.75 0 0 0 13,11.25 Z"
     id="path3" />
  <path
     
     d="M 11,11.25 A 0.75,0.75 0 0 0 10.25,12 c 0,1.803761 -1.4462005,3.25 -3.25,3.25 A 0.75,0.75 0 0 0 6.25,16 0.75,0.75 0 0 0 7,16.75 c 2.6144761,0 4.75,-2.135566 4.75,-4.75 A 0.75,0.75 0 0 0 11,11.25 Z"
     id="path4" />
  <path
     
     d="M 14.277344,6.1582031 C 12.501816,6.602085 11.25,8.2050131 11.25,10.035156 V 12.75 h 2.714844 c 1.830189,0 3.433129,-1.251777 3.876953,-3.0273437 C 18.37205,7.6019997 16.39797,5.6280401 14.277344,6.1582031 Z m 0.363281,1.4550781 C 15.727396,7.3415851 16.658465,8.2725748 16.386719,9.359375 16.107944,10.474645 15.114451,11.25 13.964844,11.25 H 12.75 v -1.214844 c 0,-1.1495336 0.775355,-2.1430573 1.890625,-2.4218748 z"
     id="path5" />
  <path
     
     d="M 9.7226563,6.1582031 C 7.6020132,5.6280457 5.6280457,7.6020132 6.1582031,9.7226563 6.6020839,11.498204 8.2050208,12.75 10.035156,12.75 H 12.75 V 10.035156 C 12.75,8.2050131 11.498201,6.6020831 9.7226563,6.1582031 Z M 9.359375,7.6132812 C 10.474667,7.8921005 11.25,8.8856224 11.25,10.035156 V 11.25 H 10.035156 C 8.8856347,11.25 7.8920997,10.474664 7.6132812,9.359375 7.3415795,8.2725612 8.2725612,7.3415795 9.359375,7.6132812 Z"
     id="path6" />
  <path
     
     d="M 12,1.25 C 9.6429774,1.25 7.860594,1.2449714 6.4140625,1.4394531 4.967531,1.6339349 3.8080817,2.0590998 2.9335938,2.9335938 2.0590998,3.8080817 1.6339349,4.967531 1.4394531,6.4140625 1.2449714,7.860594 1.25,9.6429774 1.25,12 c 0,2.356998 -0.00503,4.1394 0.1894531,5.585937 0.1944817,1.446538 0.6196331,2.606004 1.4941407,3.480469 0.8744865,0.874511 2.0339355,1.299655 3.4804687,1.494141 C 7.8605957,22.755033 9.6429774,22.75 12,22.75 c 2.356998,0 4.139398,0.005 5.585937,-0.189453 1.44654,-0.194486 2.606005,-0.619617 3.480469,-1.494141 0.874524,-0.874464 1.299655,-2.033929 1.494141,-3.480469 C 22.755033,16.139398 22.75,14.356998 22.75,12 22.75,9.6429774 22.755,7.8605957 22.560547,6.4140625 22.366061,4.9675293 21.940917,3.8080803 21.066406,2.9335938 20.191941,2.0590862 19.032475,1.6339348 17.585937,1.4394531 16.1394,1.2449715 14.356998,1.25 12,1.25 Z m 0,1.5 c 2.356998,0 4.110109,0.00415 5.386719,0.1757813 1.27661,0.1716355 2.029208,0.4783983 2.61914,1.0683593 0.589989,0.589972 0.896721,1.3425391 1.06836,2.6191406 C 21.245857,7.8898828 21.25,9.6429774 21.25,12 c 0,2.356998 -0.0041,4.110111 -0.175781,5.386719 -0.171639,1.276608 -0.478385,2.029206 -1.06836,2.61914 -0.589934,0.589975 -1.342532,0.896721 -2.61914,1.06836 C 16.110111,21.245858 14.356998,21.25 12,21.25 9.6429774,21.25 7.8898828,21.245857 6.6132812,21.074219 5.3366797,20.90258 4.5841126,20.595848 3.9941406,20.005859 3.4041796,19.415927 3.0974168,18.663329 2.9257813,17.386719 2.7541457,16.110109 2.75,14.356998 2.75,12 2.75,9.6429774 2.7541459,7.8898845 2.9257813,6.6132812 3.0974166,5.336678 3.404166,4.5841112 3.9941406,3.9941406 4.5841112,3.404166 5.336678,3.0974166 6.6132812,2.9257813 7.8898845,2.7541459 9.6429774,2.75 12,2.75 Z"
     id="path7" />
</svg>
