<?xml version="1.0" encoding="UTF-8" standalone="no"?>
<svg
   width="24"
   height="24"
   viewBox="0 0 24 24"
   
   version="1.1"
   id="svg2"
   xmlns="http://www.w3.org/2000/svg"
   xmlns:svg="http://www.w3.org/2000/svg">
  <defs
     id="defs2" />
  <path
     
     d="m 11.660156,1.25 c -1.537402,0 -2.8749997,1.1529028 -2.8749997,2.6582031 a 0.75,0.75 0 0 0 0.75,0.75 0.75,0.75 0 0 0 0.7499997,-0.75 c 0,-0.6034176 0.566205,-1.1582031 1.375,-1.1582031 0.808664,0 1.373047,0.5548282 1.373047,1.1582031 0,0.3155675 -0.108489,0.5805804 -0.292969,0.78125 C 12.482467,4.9698789 12.101083,5.3023716 11.751953,5.7128906 11.459558,6.0566982 11.251777,6.545628 11.164063,7.0800781 10.522392,7.1822462 9.8683084,7.2805354 9.3203125,7.6660156 L 2.2246094,12.65625 C 1.3379639,13.279925 1.0671101,14.379646 1.3964844,15.238281 1.7258587,16.096917 2.6114324,16.75 3.703125,16.75 H 6 A 0.75,0.75 0 0 0 6.75,16 0.75,0.75 0 0 0 6,15.25 H 3.703125 C 3.1794892,15.25 2.9053053,14.983835 2.796875,14.701172 2.6884447,14.418508 2.700494,14.153937 3.0859375,13.882813 L 10.181641,8.8925781 c 0.467211,-0.3286536 1.040565,-0.5030488 1.61914,-0.5117187 0.0034,-5.06e-5 0.0064,-0.00191 0.0098,-0.00195 0.586817,-0.00682 1.172026,0.1592815 1.654297,0.484375 l 7.433593,5.0097656 c 0.398374,0.26853 0.414547,0.536556 0.308594,0.822266 C 21.101078,14.981022 20.827321,15.25 20.296875,15.25 H 18 A 0.75,0.75 0 0 0 17.25,16 0.75,0.75 0 0 0 18,16.75 h 2.296875 c 1.102552,0 1.99426,-0.664514 2.316406,-1.533203 0.322147,-0.86869 0.03107,-1.975821 -0.876953,-2.587891 l -7.43164,-5.0097654 c -0.4924,-0.331921 -1.078493,-0.3760485 -1.644532,-0.484375 0.0454,-0.1329379 0.06608,-0.2532875 0.234375,-0.4511719 0.246944,-0.2903652 0.609287,-0.608702 0.949219,-0.9785156 0.43972,-0.4783097 0.689453,-1.1199835 0.689453,-1.796875 C 14.533203,2.4028601 13.19749,1.25 11.660156,1.25 Z"
     id="path1" />
  <path
  
     d="M 10,13.25 C 9.0571909,13.25 8.3346709,13.2454 7.7050781,13.33008 7.0754853,13.41473 6.4898352,13.619527 6.0546875,14.05469 5.6195399,14.489845 5.4147251,15.075491 5.3300781,15.70508 5.2454312,16.334667 5.25,17.057201 5.25,18 c 0,0.942799 -0.00457,1.665333 0.080078,2.294922 0.084647,0.629589 0.2894618,1.215235 0.7246094,1.65039 0.4351477,0.435163 1.0207978,0.639961 1.6503906,0.72461 C 8.3346709,22.75457 9.0571909,22.75 10,22.75 h 4 c 0.942799,0 1.665332,0.0046 2.294922,-0.08008 0.62959,-0.08465 1.215237,-0.289456 1.65039,-0.72461 0.435154,-0.435153 0.639961,-1.0208 0.72461,-1.65039 C 18.75457,19.665332 18.75,18.942799 18.75,18 c 0,-0.942799 0.0046,-1.665332 -0.08008,-2.294922 -0.08465,-0.62959 -0.289456,-1.215237 -0.72461,-1.65039 -0.435153,-0.435154 -1.0208,-0.639961 -1.65039,-0.72461 C 15.665332,13.24543 14.942799,13.25 14,13.25 Z m 0,1.5 h 4 c 0.942799,0 1.634091,0.0046 2.09375,0.06641 0.459659,0.0618 0.64037,0.148183 0.791016,0.298828 0.150645,0.150646 0.237026,0.331357 0.298828,0.791016 0.0618,0.459659 0.06641,1.150951 0.06641,2.09375 0,0.942799 -0.0046,1.634091 -0.06641,2.09375 -0.0618,0.459659 -0.148183,0.64037 -0.298828,0.791016 -0.150646,0.150645 -0.331357,0.237026 -0.791016,0.298828 C 15.634091,21.245395 14.942799,21.25 14,21.25 H 10 C 9.0571909,21.25 8.3659111,21.2454 7.90625,21.18359 7.4465889,21.121792 7.265866,21.035402 7.1152344,20.884766 6.9645926,20.734121 6.8782066,20.55341 6.8164062,20.09375 6.7546059,19.63409 6.75,18.942799 6.75,18 c 0,-0.942799 0.00461,-1.63409 0.066406,-2.09375 0.0618,-0.45966 0.1481864,-0.640371 0.2988282,-0.791016 C 7.265866,14.964598 7.4465889,14.878208 7.90625,14.816406 8.3659111,14.754605 9.0571909,14.75 10,14.75 Z"
     id="path2" />
</svg>
