<?xml version="1.0" encoding="UTF-8" standalone="no"?>
<svg
   width="24"
   height="24"
   viewBox="0 0 24 24"

   version="1.1"
   id="svg7"
   xmlns="http://www.w3.org/2000/svg"
   xmlns:svg="http://www.w3.org/2000/svg">
  <defs
     id="defs7" />
  <path
     
     d="M 14.244141,5.3300781 C 13.712093,5.1792495 13.166222,5.2619696 12.621094,5.4433594 12.075965,5.6247492 11.484024,5.9056795 10.707031,6.2695312 9.5563049,6.8084096 9.0084793,7.0617205 8.4707031,7.2324219 8.2782919,7.2935016 8.084442,7.3488273 7.8886719,7.3964844 7.3416036,7.5296794 6.7464662,7.5956689 5.4921875,7.7304687 4.6452742,7.8214936 3.9968248,7.8876627 3.4375,8.015625 2.8781752,8.1435873 2.3708957,8.3574526 1.9902344,8.7578125 1.7610551,8.9988615 1.5756457,9.2797014 1.4433594,9.5859375 1.22436,10.092897 1.217232,10.641859 1.3007812,11.224609 c 0.083549,0.582751 0.2543252,1.23821 0.4746094,2.097657 l 0.8457032,3.296875 c 0.5416708,2.113283 1.7496129,3.561087 3.1015624,4.482421 1.3519496,0.921335 2.8328423,1.342302 4.0136719,1.542969 h 0.00195 c 0.6771099,0.114988 1.2766049,0.173832 2.3710939,-0.132812 1.094459,-0.30653 1.577976,-0.665541 2.109375,-1.119141 0.923828,-0.788633 2.000677,-1.9242 2.726562,-3.419922 0.725886,-1.495722 1.080755,-3.369086 0.539063,-5.482422 l -0.8457,-3.2968746 C 16.418372,8.3339202 16.253596,7.6762345 16.046875,7.1269531 15.840154,6.5776718 15.568726,6.1013678 15.126953,5.7695312 14.861421,5.5701414 14.563119,5.4204972 14.244141,5.3300781 Z m -0.410157,1.4433594 c 0.139421,0.039521 0.272311,0.1050026 0.392579,0.1953125 0.133426,0.100223 0.26059,0.2693273 0.417968,0.6875 0.157379,0.4181727 0.322669,1.0507171 0.542969,1.9101563 l 0.84375,3.2968747 c 0.451807,1.762661 0.164391,3.218878 -0.435547,4.455078 -0.599938,1.236201 -1.531639,2.235328 -2.349609,2.933594 -0.5314,0.4536 -0.578877,0.546936 -1.541016,0.816406 -0.962108,0.269555 -1.039548,0.212668 -1.7167967,0.09766 C 8.9494731,20.989483 7.6692743,20.612917 6.5664062,19.861328 5.4635382,19.109739 4.5260069,18.01066 4.0742187,16.248047 L 3.2285156,12.949219 C 3.0082302,12.089767 2.8490119,11.457107 2.7851563,11.011719 2.7213006,10.56633 2.7477821,10.347587 2.8203125,10.179688 2.883486,10.033444 2.9705515,9.9021063 3.0761719,9.7910156 3.1948501,9.666196 3.3610108,9.5728706 3.7734375,9.4785156 4.1858642,9.3841607 4.8073819,9.3136812 5.6542969,9.2226563 6.9085756,9.0878564 7.5690501,9.0178803 8.2441406,8.8535156 8.47329,8.7977329 8.6987798,8.7335495 8.9238281,8.6621094 9.5867907,8.4516712 10.191066,8.1677869 11.341797,7.6289062 12.118802,7.2650487 12.691004,7.0011999 13.09375,6.8671875 c 0.402746,-0.1340124 0.588583,-0.1367412 0.740234,-0.09375 z"
     id="path1" />
  <path
     
     d="M 9.7558594,1.3300781 C 9.4369379,1.4204888 9.1386427,1.5700417 8.8730469,1.7695312 8.4312489,2.1013636 8.1598463,2.5776637 7.953125,3.1269531 7.7464037,3.6762426 7.5816082,4.3339189 7.3613281,5.1933594 L 6.6601562,7.921875 8.1132813,8.2949219 8.8125,5.5664062 C 9.0327794,4.7069684 9.1980954,4.0744146 9.3554688,3.65625 9.5128421,3.2380854 9.639996,3.0689772 9.7734375,2.96875 9.8935412,2.8785399 10.026578,2.8129667 10.166016,2.7734375 c 0.151627,-0.042986 0.337491,-0.040262 0.740234,0.09375 0.402743,0.1340125 0.974948,0.3978612 1.751953,0.7617188 1.15071,0.5388845 1.754981,0.8227674 2.417969,1.0332031 0.22506,0.071454 0.450641,0.1356328 0.679687,0.1914062 0.675098,0.1643611 1.335543,0.2343406 2.589844,0.3691406 0.846949,0.091025 1.468437,0.1615052 1.880859,0.2558594 0.412423,0.094354 0.57861,0.1876938 0.697266,0.3125 0.10562,0.1110907 0.192731,0.2424867 0.255859,0.3886719 0.07254,0.1678778 0.09901,0.3866469 0.03516,0.8320312 -0.06385,0.4453844 -0.22306,1.0780557 -0.44336,1.9375001 l -0.84375,3.2988282 c -0.613199,2.392404 -2.129798,3.597805 -3.724609,4.285156 l 0.59375,1.376953 c 1.887385,-0.813447 3.846832,-2.422624 4.582031,-5.291015 l 0.8457,-3.2968754 C 22.444909,8.4628217 22.615671,7.807379 22.699219,7.2246094 22.782767,6.6418397 22.775701,6.092909 22.556641,5.5859375 22.42437,5.2796431 22.238945,4.9988615 22.009766,4.7578125 21.629122,4.3574393 21.121827,4.1435881 20.5625,4.015625 20.003173,3.8876619 19.354762,3.8214937 18.507812,3.7304688 17.253516,3.5956691 16.658429,3.529683 16.111328,3.3964844 15.915575,3.3488179 15.721637,3.2934877 15.529297,3.2324219 14.991486,3.0617179 14.443657,2.8084057 13.292969,2.2695313 12.515976,1.9056795 11.92403,1.624749 11.378906,1.4433594 10.833783,1.2619697 10.287902,1.1792444 9.7558594,1.3300781 Z"
     id="path2" />
  <path
     
     d="m 6.2539062,11.216797 c -0.9600709,0.257198 -1.6506117,1.062527 -1.7421875,2.005859 a 0.75,0.75 0 0 0 0.6738282,0.81836 0.75,0.75 0 0 0 0.8203125,-0.673828 c 0.028644,-0.295067 0.258951,-0.59997 0.6367187,-0.701172 0.3777986,-0.101267 0.731891,0.04772 0.9042969,0.289062 a 0.75,0.75 0 0 0 1.0449219,0.173828 0.75,0.75 0 0 0 0.1757812,-1.044922 C 8.2166048,11.312722 7.2139463,10.959464 6.2539062,11.216797 Z"
     id="path3" />
  <path
     
     d="m 18.183594,6.8574219 c -0.96001,-0.2572464 -1.960724,0.094054 -2.511719,0.8652343 a 0.75,0.75 0 0 0 0.173828,1.0468751 0.75,0.75 0 0 0 1.046875,-0.1738282 c 0.172404,-0.2412986 0.524555,-0.3902958 0.902344,-0.2890625 0.37778,0.1012252 0.60997,0.4059262 0.638672,0.7011719 a 0.75,0.75 0 0 0 0.818359,0.6738281 0.75,0.75 0 0 0 0.673828,-0.8183593 C 19.834083,7.9200282 19.143612,7.1146564 18.183594,6.8574219 Z"
     id="path4" />
  <path
     
     d="m 12.050781,9.6640625 c -0.959898,0.2573026 -1.65063,1.0624065 -1.742187,2.0058595 a 0.75,0.75 0 0 0 0.673828,0.818359 0.75,0.75 0 0 0 0.818359,-0.673828 c 0.02864,-0.295146 0.260772,-0.599875 0.638672,-0.701172 0.377804,-0.101214 0.729949,0.0478 0.902344,0.289063 a 0.75,0.75 0 0 0 1.046875,0.173828 0.75,0.75 0 0 0 0.173828,-1.046875 C 14.011495,9.7581643 13.010776,9.4068774 12.050781,9.6640625 Z"
     id="path5" />
  <path
     d="M 11.0962,7.04199 C 10.8554,7.37902 10.387,7.45703 10.05,7.21623 9.71293,6.97543 9.63492,6.50701 9.87572,6.16998 Z M 11.9996,6.75273 C 11.6209,6.65125 11.2691,6.79999 11.0962,7.04199 L 9.87572,6.16998 C 10.4262,5.39951 11.4287,5.04684 12.3878,5.30384 Z m 0.4785,0.31283 C 12.3674,6.9229 12.204,6.80751 11.9996,6.75273 l 0.3882,-1.44889 c 0.5245,0.14056 0.9666,0.44404 1.2757,0.84257 z"
    
     id="path6" />
  <path
     
     d="m 12.662109,15.1875 c -0.592589,-0.161 -1.444508,-0.237301 -2.46875,0.03711 -1.0242019,0.27447 -1.7215936,0.765452 -2.1542965,1.201172 -0.4327029,0.435721 -0.6328125,0.875 -0.6328125,0.875 A 0.75,0.75 0 0 0 7.7949219,18.287109 0.75,0.75 0 0 0 8.78125,17.896484 c 0,0 0.054504,-0.144433 0.3222656,-0.414062 0.2677614,-0.269629 0.7152997,-0.604064 1.4785154,-0.808594 0.763257,-0.204489 1.318862,-0.138687 1.685547,-0.03906 0.366685,0.09962 0.486328,0.199218 0.486328,0.199218 a 0.75,0.75 0 0 0 1.048828,-0.15625 0.75,0.75 0 0 0 -0.154296,-1.048828 c 0,0 -0.393739,-0.280406 -0.986329,-0.441406 z"
     id="path7" />
</svg>
