<?xml version="1.0" encoding="UTF-8" standalone="no"?>
<svg
   width="24"
   height="24"
   viewBox="0 0 24 24"
   version="1.1"
   id="svg2"
   xmlns="http://www.w3.org/2000/svg"
   xmlns:svg="http://www.w3.org/2000/svg">
  <defs
     id="defs2" />
  <path

     d="M 6.203125,1.2773437 A 0.75,0.75 0 0 0 5.6328125,1.3457031 0.75,0.75 0 0 0 5.3457031,2.3671875 L 15.748047,20.867187 a 0.75,0.75 0 0 0 0.164062,0.128907 C 16.582594,22.025299 17.68716,22.75 19,22.75 c 2.062203,0 3.75,-1.687797 3.75,-3.75 0,-2.062203 -1.687797,-3.75 -3.75,-3.75 -1.528024,0 -2.841233,0.932951 -3.423828,2.251953 L 6.6542969,1.6328125 A 0.75,0.75 0 0 0 6.203125,1.2773437 Z M 19,16.75 c 1.251594,0 2.25,0.998406 2.25,2.25 0,1.251594 -0.998406,2.25 -2.25,2.25 -1.251594,0 -2.25,-0.998406 -2.25,-2.25 0,-1.251594 0.998406,-2.25 2.25,-2.25 z"
     id="path1" />
  <path

     d="M 17.796875,1.2773437 A 0.75,0.75 0 0 0 17.345703,1.6328125 L 8.4238281,17.501953 C 7.8412245,16.18295 6.5279964,15.25 5,15.25 c -2.0621653,0 -3.75,1.687782 -3.75,3.75 0,2.062218 1.6878347,3.75 3.75,3.75 1.3570575,0 2.499694,-0.767929 3.1582031,-1.855469 a 0.75,0.75 0 0 0 0.09375,-0.02734 L 18.654297,2.3671875 A 0.75,0.75 0 0 0 18.367187,1.3457031 0.75,0.75 0 0 0 17.796875,1.2773437 Z M 5,16.75 c 1.2515314,0 2.25,0.998421 2.25,2.25 0,1.251579 -0.9984686,2.25 -2.25,2.25 -1.2515314,0 -2.25,-0.998421 -2.25,-2.25 0,-1.251579 0.9984686,-2.25 2.25,-2.25 z"
     id="path2" />
</svg>
