<?xml version="1.0" encoding="UTF-8" standalone="no"?>
<svg
   width="24"
   height="24"
   viewBox="0 0 24 24"

   version="1.1"
   id="svg2"
   xmlns="http://www.w3.org/2000/svg"
   xmlns:svg="http://www.w3.org/2000/svg">
  <defs
     id="defs2" />
  <path
     
     d="M 15,1.25 C 14.068101,1.25 13.52184,1.221027 12.947266,1.4589844 12.566129,1.6168826 12.3182,1.949283 12.046875,2.25 H 5 C 4.0681209,2.25 3.5218517,2.2209896 2.9472656,2.4589844 2.2737131,2.7379854 1.7379854,3.2737131 1.4589844,3.9472656 1.2209896,4.5218517 1.25,5.0681209 1.25,6 1.25,6.9318791 1.2209896,7.4781483 1.4589844,8.0527344 1.6365637,8.4814391 2.0513247,8.7136233 2.40625,9 2.0513273,9.2863701 1.6365663,9.518581 1.4589844,9.9472656 1.2210268,10.52184 1.25,11.068101 1.25,12 c 0,0.931899 -0.028973,1.47816 0.2089844,2.052734 C 1.6365636,14.481395 2.0513323,14.713616 2.40625,15 2.0513323,15.286384 1.6365636,15.518605 1.4589844,15.947266 1.2210268,16.52184 1.25,17.068101 1.25,18 c 0,0.931899 -0.028973,1.47816 0.2089844,2.052734 0.2790007,0.673484 0.8146988,1.209255 1.4882812,1.488282 C 3.5218212,21.778935 4.0681209,21.75 5,21.75 h 7.046875 c 0.271323,0.300732 0.519241,0.633112 0.900391,0.791016 C 13.521809,22.778898 14.068101,22.75 15,22.75 c 0.931899,0 1.478191,0.0289 2.052734,-0.208984 0.38115,-0.157904 0.629068,-0.490284 0.900391,-0.791016 H 19 c 0.931899,0 1.478191,0.0289 2.052734,-0.208984 0.673513,-0.279027 1.209255,-0.814769 1.488282,-1.488282 C 22.778898,19.478191 22.75,18.931899 22.75,18 c 0,-0.931899 0.0289,-1.478191 -0.208984,-2.052734 C 22.36342,15.518586 21.948659,15.286372 21.59375,15 21.948659,14.713628 22.36342,14.481414 22.541016,14.052734 22.778898,13.478191 22.75,12.931899 22.75,12 22.75,11.068101 22.7789,10.521809 22.541016,9.9472656 22.363417,9.518562 21.948664,9.2863572 21.59375,9 21.948667,8.7136362 22.36342,8.4814581 22.541016,8.0527344 22.778935,7.4781788 22.75,6.9318791 22.75,6 22.75,5.0681209 22.778935,4.5218212 22.541016,3.9472656 22.261989,3.2736832 21.726218,2.7379851 21.052734,2.4589844 20.47816,2.2210268 19.931899,2.25 19,2.25 H 17.953125 C 17.6818,1.949283 17.433871,1.6168826 17.052734,1.4589844 16.47816,1.2210268 15.931899,1.25 15,1.25 Z m 0,1.5 c 0.931899,0 1.317891,0.029181 1.478516,0.095703 0.255764,0.1059586 0.46661,0.2922577 0.603515,0.5292969 0.02715,0.047031 0.05124,0.095736 0.07227,0.1464844 C 17.220777,3.6820281 17.25,4.0681209 17.25,5 v 4 6 4 c 0,0.931899 -0.02919,1.31786 -0.0957,1.478516 -0.02099,0.05067 -0.04504,0.09932 -0.07227,0.146484 -0.136911,0.237063 -0.34777,0.423346 -0.603515,0.529297 C 16.31786,21.220814 15.931899,21.25 15,21.25 c -0.931899,0 -1.31786,-0.02919 -1.478516,-0.0957 -0.255745,-0.105951 -0.466604,-0.292234 -0.603515,-0.529297 -0.02722,-0.04717 -0.05127,-0.09582 -0.07227,-0.146484 C 12.779186,20.31786 12.75,19.931899 12.75,19 V 15 9 5 c 0,-0.9318791 0.02922,-1.3179719 0.0957,-1.4785156 C 12.86672,3.4707364 12.89082,3.4220314 12.91797,3.375 13.054874,3.1379608 13.26572,2.9516617 13.521484,2.8457031 13.682109,2.779181 14.068101,2.75 15,2.75 Z m -10,1 h 6.376953 C 11.331545,4.1248223 11.25,4.432552 11.25,5 V 8.25 H 5 C 4.0681209,8.25 3.6819976,8.2207818 3.5214844,8.1542969 3.2149379,8.0273183 2.9726817,7.7850621 2.8457031,7.4785156 2.7792182,7.3180024 2.75,6.9318791 2.75,6 2.75,5.0681209 2.7792182,4.6819976 2.8457031,4.5214844 2.9726817,4.2149379 3.2149379,3.9726817 3.5214844,3.8457031 3.6819976,3.7792182 4.0681209,3.75 5,3.75 Z m 13.623047,0 H 19 c 0.931899,0 1.317891,0.029181 1.478516,0.095703 0.306515,0.1269789 0.548808,0.3692647 0.675781,0.6757813 C 21.220777,4.6820281 21.25,5.0681209 21.25,6 21.25,6.9318791 21.22078,7.3179719 21.1543,7.4785156 21.027324,7.7850322 20.785031,8.027318 20.478516,8.1542969 20.317891,8.220819 19.931899,8.25 19,8.25 H 18.75 V 5 c 0,-0.567448 -0.08154,-0.8751777 -0.126953,-1.25 z M 5,9.75 h 6.25 v 4.5 H 5 C 4.0681209,14.25 3.6820281,14.22078 3.5214844,14.1543 3.2149678,14.027324 2.972682,13.785031 2.8457031,13.478516 2.779181,13.317891 2.75,12.931899 2.75,12 2.75,11.068101 2.779181,10.682109 2.8457031,10.521484 2.9726778,10.214966 3.2149379,9.9726817 3.5214844,9.8457031 3.6819976,9.7792182 4.0681209,9.75 5,9.75 Z m 13.75,0 H 19 c 0.931899,0 1.317891,0.029181 1.478516,0.095703 0.306515,0.1269789 0.548812,0.369293 0.675781,0.675781 C 21.220814,10.68214 21.25,11.068101 21.25,12 c 0,0.931899 -0.02919,1.31786 -0.0957,1.478516 -0.126973,0.306486 -0.369295,0.548808 -0.675781,0.675781 C 20.31786,14.220814 19.931899,14.25 19,14.25 H 18.75 Z M 5,15.75 h 6.25 V 19 c 0,0.56746 0.08155,0.875182 0.126953,1.25 H 5 C 4.0681209,20.25 3.6820281,20.22078 3.5214844,20.1543 3.2149678,20.027324 2.972682,19.785031 2.8457031,19.478516 2.779181,19.317891 2.75,18.931899 2.75,18 2.75,17.068101 2.779181,16.682109 2.8457031,16.521484 2.972682,16.214969 3.2149678,15.972676 3.5214844,15.845703 3.6820281,15.779223 4.0681209,15.75 5,15.75 Z m 13.75,0 H 19 c 0.931899,0 1.31786,0.02919 1.478516,0.0957 0.306486,0.126973 0.548808,0.369295 0.675781,0.675781 0.06652,0.160659 0.0957,0.54662 0.0957,1.478519 0,0.931899 -0.02919,1.31786 -0.0957,1.478516 -0.126973,0.306486 -0.369295,0.548808 -0.675781,0.675781 C 20.31786,20.220814 19.931899,20.25 19,20.25 H 18.623047 C 18.668453,19.875182 18.75,19.56746 18.75,19 Z"
     id="path1" />
  <path
     
     d="M 15,10.25 A 0.75,0.75 0 0 0 14.25,11 v 2 A 0.75,0.75 0 0 0 15,13.75 0.75,0.75 0 0 0 15.75,13 V 11 A 0.75,0.75 0 0 0 15,10.25 Z"
     id="path2" />
</svg>
