<?xml version="1.0" encoding="UTF-8" standalone="no"?>
<svg
   width="24"
   height="24"
   viewBox="0 0 24 24"
   
   version="1.1"
   id="svg2"
   xmlns="http://www.w3.org/2000/svg"
   xmlns:svg="http://www.w3.org/2000/svg">
  <defs
     id="defs2" />
  <path
   
     d="M 11.148438,5.25 C 8.4094402,5.25 6.8736082,5.2048066 5.59375,6.0820312 5.3694291,6.2357858 5.1596394,6.4078012 4.9648437,6.5976562 3.8536525,7.6806254 3.5957629,9.1970069 3.0585938,11.882813 c -0.3855997,1.927998 -0.6818583,3.385945 -0.7695313,4.601562 -0.087673,1.215617 0.048743,2.243652 0.6074219,3.103516 0.1908869,0.293836 0.4134688,0.565819 0.6640625,0.810546 0.7335952,0.716489 1.7146243,1.050688 2.9238281,1.203125 C 7.6935788,21.754 9.1822695,21.75 11.148438,21.75 h 1.703125 c 1.966148,0 3.454856,0.004 4.664062,-0.148438 1.209206,-0.152437 2.190223,-0.486638 2.923828,-1.203125 0.25052,-0.244702 0.473151,-0.516818 0.664063,-0.810546 0.558642,-0.859866 0.695102,-1.887903 0.607421,-3.103516 -0.08768,-1.215613 -0.383931,-2.673564 -0.769531,-4.601562 C 20.404305,9.1969973 20.146379,7.6806193 19.035156,6.5976562 18.840315,6.4077336 18.630491,6.2357475 18.40625,6.0820312 17.126381,5.2048163 15.59056,5.25 12.851563,5.25 Z m 0,1.5 h 1.703125 c 2.738997,0 3.942502,0.044356 4.707031,0.5683594 0.153558,0.1052635 0.296529,0.2237185 0.429687,0.3535156 0.663776,0.6468952 0.945324,1.8181068 1.482422,4.503906 0.3856,1.927998 0.668122,3.362081 0.744141,4.416016 0.07602,1.053935 -0.04018,1.673354 -0.369141,2.179687 -0.130688,0.201072 -0.283599,0.385237 -0.455078,0.552735 -0.431993,0.421912 -1.014133,0.6569 -2.0625,0.789062 C 16.279758,20.245443 14.817711,20.25 12.851563,20.25 H 11.148438 C 9.1822695,20.25 7.720239,20.2454 6.671875,20.113281 5.623511,19.98112 5.0413586,19.746129 4.609375,19.324219 4.4378891,19.156747 4.2848496,18.972447 4.1542969,18.771484 3.8253165,18.26515 3.7091444,17.645728 3.7851563,16.591797 3.8611681,15.537866 4.1436973,14.103779 4.5292969,12.175781 5.0664667,9.4899722 5.3479718,8.3187641 6.0117187,7.671875 6.1449628,7.5420104 6.2878875,7.4235845 6.4414062,7.3183594 7.205906,6.7943654 8.4094402,6.75 11.148438,6.75 Z"
     id="path1" />
  <circle
     cx="15"
     cy="9"
     r="1"
     
     id="circle1" />
  <circle
     cx="9"
     cy="9"
     r="1"
     
     id="circle2" />
  <path

     d="M 12,1.25 C 9.9377819,1.25 8.25,2.9378347 8.25,5 V 6 A 0.75,0.75 0 0 0 9,6.75 0.75,0.75 0 0 0 9.75,6 V 5 c 0,-1.2515314 0.998421,-2.25 2.25,-2.25 1.251579,0 2.25,0.9984686 2.25,2.25 V 6 A 0.75,0.75 0 0 0 15,6.75 0.75,0.75 0 0 0 15.75,6 V 5 C 15.75,2.9378347 14.062218,1.25 12,1.25 Z"
     id="path2" />
</svg>
