<?xml version="1.0" encoding="UTF-8" standalone="no"?>
<svg
   width="24"
   height="24"
   viewBox="0 0 24 24"
 
   version="1.1"
   id="svg3"
   xmlns="http://www.w3.org/2000/svg"
   xmlns:svg="http://www.w3.org/2000/svg">
  <defs
     id="defs3" />
  <path
   
     d="M 11.638672,5.25 C 10.050903,5.25 8.8457843,5.2463231 7.8359375,5.3710937 6.8260907,5.4958644 5.977684,5.7725803 5.2871094,6.3457031 4.5965354,6.9188316 4.168113,7.7023129 3.859375,8.671875 3.550637,9.6414371 3.3316722,10.82613 3.0390625,12.386719 2.6276028,14.581167 2.3117623,16.241046 2.2519531,17.611328 2.192144,18.98161 2.4182108,20.13454 3.1640625,21.033203 3.9099004,21.931912 5.0015395,22.368752 6.359375,22.5625 7.7172105,22.756248 9.4059841,22.75 11.638672,22.75 h 0.722656 c 2.232698,0 3.921453,0.0062 5.279297,-0.1875 1.357844,-0.193748 2.449437,-0.630603 3.195312,-1.529297 0.745843,-0.898667 0.97193,-2.051596 0.91211,-3.421875 -0.05982,-1.370278 -0.37566,-3.030164 -0.78711,-5.224609 C 20.668338,10.82613 20.449358,9.6414379 20.140625,8.671875 19.831892,7.7023121 19.405419,6.9188323 18.714844,6.3457031 18.024267,5.7725789 17.173921,5.4958641 16.164062,5.3710937 15.154204,5.2463234 13.949127,5.25 12.361328,5.25 Z m 0,1.5 h 0.722656 c 1.587799,0 2.763476,0.00366 3.619141,0.109375 0.855664,0.1057194 1.355068,0.2917902 1.77539,0.640625 0.420324,0.3488399 0.693487,0.8054353 0.955078,1.6269531 0.261592,0.8215178 0.482791,1.9765209 0.775391,3.5371099 0.41145,2.19445 0.711917,3.826174 0.763672,5.011718 0.05175,1.185544 -0.114603,1.85366 -0.568359,2.400391 -0.453824,0.546805 -1.079128,0.832373 -2.253907,1 C 16.252956,21.243799 14.594026,21.25 12.361328,21.25 h -0.722656 c -2.2326879,0 -3.8916394,-0.0062 -5.0664064,-0.173828 -1.174767,-0.167627 -1.8001254,-0.45321 -2.2539062,-1 C 3.8645923,19.529436 3.6982543,18.861322 3.75,17.675781 3.8017457,16.490241 4.1022124,14.85851 4.5136719,12.664063 4.8062816,11.103474 5.0274661,9.9484717 5.2890625,9.1269531 5.5506589,8.3054345 5.8238157,7.8488406 6.2441406,7.5 6.6644649,7.1511638 7.1638799,6.9650942 8.0195313,6.859375 8.8751826,6.7536558 10.050903,6.75 11.638672,6.75 Z"
     id="path1" />
  <path
     
     d="m 10,11.25 a 0.75,0.75 0 0 0 -0.53125,0.21875 0.75,0.75 0 0 0 0,1.0625 L 10.9375,14 9.46875,15.46875 a 0.75,0.75 0 0 0 0,1.0625 0.75,0.75 0 0 0 1.0625,0 L 12,15.0625 l 1.46875,1.46875 a 0.75,0.75 0 0 0 1.0625,0 0.75,0.75 0 0 0 0,-1.0625 L 13.0625,14 14.53125,12.53125 a 0.75,0.75 0 0 0 0,-1.0625 0.75,0.75 0 0 0 -1.0625,0 L 12,12.9375 10.53125,11.46875 A 0.75,0.75 0 0 0 10,11.25 Z"
     id="path2" />
  <path
     
     d="M 12,1.25 C 9.9377819,1.25 8.25,2.9378347 8.25,5 V 6 A 0.75,0.75 0 0 0 9,6.75 0.75,0.75 0 0 0 9.75,6 V 5 c 0,-1.2515314 0.998421,-2.25 2.25,-2.25 1.251579,0 2.25,0.9984686 2.25,2.25 V 6 A 0.75,0.75 0 0 0 15,6.75 0.75,0.75 0 0 0 15.75,6 V 5 C 15.75,2.9378347 14.062218,1.25 12,1.25 Z"
     id="path3" />
</svg>
