<?xml version="1.0" encoding="UTF-8" standalone="no"?>
<svg
   width="24"
   height="24"
   viewBox="0 0 24 24"

   version="1.1"
   id="svg5"
   xmlns="http://www.w3.org/2000/svg"
   xmlns:svg="http://www.w3.org/2000/svg">
  <defs
     id="defs5" />
  <path
   
     d="M 7.25,7.25 V 8 16.75 h 9.5 v -9.5 z m 1.5,1.5 h 6.5 v 6.5 h -6.5 z"
     id="path1" />
  <path
   
     d="m 19,15.25 -3.75,0.002 v 0.75 3 c 2.49e-4,2.062169 1.689837,3.748296 3.751953,3.748047 C 21.064143,22.749627 22.750249,21.062192 22.75,19 22.749627,16.937886 21.062246,15.249627 19,15.25 Z m 0,1.5 c 1.25155,-2.27e-4 2.249773,0.998518 2.25,2.25 1.51e-4,1.251605 -0.998393,2.249773 -2.25,2.25 -1.251481,1.51e-4 -2.249849,-0.998572 -2.25,-2.25 v -2.248047 z"
     id="path2" />
  <path
   
     d="M 5.0019531,15.25 C 2.9397447,15.249627 1.2503236,16.937858 1.25,19 c -3.236e-4,2.062215 1.6878402,3.749627 3.75,3.75 2.0621538,2.49e-4 3.7496764,-1.685905 3.75,-3.748047 l 0.00195,-3.75 h -0.75 z M 5,16.75 7.25,16.752 V 19 C 7.2498036,20.251454 6.2515429,21.250151 5,21.25 3.7484431,21.249773 2.7498036,20.251581 2.75,19 2.7501964,17.748546 3.7485118,16.749773 5,16.75 Z"
     id="path3" />
  <path
   
     d="M 19.001953,1.25 C 16.939813,1.2496764 15.250249,2.9377856 15.25,5 V 8.75 H 16 19 C 21.062218,8.7503236 22.749627,7.0641053 22.75,5.0019531 22.750249,2.9397993 21.064171,1.2503236 19.001953,1.25 Z M 19,2.75 C 20.251579,2.7501964 21.250151,3.7484571 21.25,5 21.249773,6.2515445 20.251578,7.2501964 19,7.25 H 16.75 V 5 C 16.750151,3.7484977 17.748543,2.7498036 19,2.75 Z"
     id="path4" />
  <path
   
     d="M 5,1.25 C 2.9378123,1.2503236 1.2496764,2.9397756 1.25,5.0019531 1.2503236,7.0641332 2.9397726,8.7503236 5.0019531,8.75 h 3.75 L 8.75,8 V 5 C 8.7496764,2.9378123 7.0621776,1.2496764 5,1.25 Z m 0,1.5 C 6.2515191,2.7498036 7.2498036,3.748471 7.25,5 V 7.25 H 5 C 3.7484839,7.2501964 2.7501964,6.2515166 2.75,5 2.7498036,3.7484809 3.748471,2.7501964 5,2.75 Z"
     id="path5" />
</svg>
