<?xml version="1.0" encoding="UTF-8" standalone="no"?>
<svg
   width="24"
   height="24"
   viewBox="0 0 24 24"
 
   version="1.1"
   id="svg4"
   xmlns="http://www.w3.org/2000/svg"
   xmlns:svg="http://www.w3.org/2000/svg">
  <defs
     id="defs4" />
  <path
  
     d="m 12,6.75 c -1.0957,0 -2,0.9043453 -2,2 0,1.0956547 0.9043,2 2,2 1.0957,0 2,-0.9043453 2,-2 0,-1.0956547 -0.9043,-2 -2,-2 z m 0,1.5 c 0.285098,0 0.5,0.2149361 0.5,0.5 0,0.2850639 -0.214902,0.5 -0.5,0.5 -0.285098,0 -0.5,-0.2149361 -0.5,-0.5 0,-0.2850639 0.214902,-0.5 0.5,-0.5 z"
     id="path1" />
  <path
    
     d="m 12,1.25 c -4.2744852,0 -7.75,3.5062858 -7.75,7.8046875 0,2.1251005 0.8472679,4.0606625 2.2207031,5.4687505 A 0.75,0.75 0 0 0 7.53125,14.537108 0.75,0.75 0 0 0 7.544922,13.476562 C 6.4348196,12.338452 5.75,10.782123 5.75,9.0546875 5.75,5.560657 8.542513,2.75 12,2.75 c 3.457498,0 6.25,2.8106557 6.25,6.3046875 0,1.7127925 -0.67399,3.2570635 -1.767578,4.3925785 a 0.75,0.75 0 0 0 0.02148,1.060547 0.75,0.75 0 0 0 1.060547,-0.01953 C 18.917463,13.083399 19.75,11.161831 19.75,9.0546875 19.75,4.7562871 16.274494,1.25 12,1.25 Z m 0,2.8222656 c -2.7280966,0 -4.9492188,2.2425096 -4.9492188,4.9824219 0,1.3443055 0.5314426,2.5736775 1.3964844,3.4707035 a 0.75,0.75 0 0 0 1.0605469,0.01953 0.75,0.75 0 0 0 0.019531,-1.060547 C 8.9221471,10.856802 8.5507813,10.004319 8.5507813,9.0546875 8.5507813,7.1191445 10.088901,5.5722656 12,5.5722656 c 1.911099,0 3.449219,1.5468789 3.449219,3.4824219 0,0.9362114 -0.360984,1.7771625 -0.951172,2.4023435 a 0.75,0.75 0 0 0 0.03125,1.060547 0.75,0.75 0 0 0 1.058594,-0.03125 c 0.84341,-0.893417 1.361328,-2.106314 1.361328,-3.4316405 0,-2.7399123 -2.221122,-4.9824219 -4.949219,-4.9824219 z"
     id="path2" />
  <path
    
     d="M 12,9.25 A 0.750075,0.750075 0 0 0 11.289063,9.7636719 L 7.2890625,21.763672 a 0.75,0.75 0 0 0 0.4746094,0.947265 0.75,0.75 0 0 0 0.9472656,-0.474609 L 12,12.369141 l 3.289063,9.867187 a 0.75,0.75 0 0 0 0.947265,0.474609 0.75,0.75 0 0 0 0.474609,-0.947265 L 12.710938,9.7636719 A 0.750075,0.750075 0 0 0 12,9.25 Z"
     id="path3" />
  <path
    
     d="M 9.5,16.75 A 0.75,0.75 0 0 0 8.75,17.5 0.75,0.75 0 0 0 9.5,18.25 h 5 A 0.75,0.75 0 0 0 15.25,17.5 0.75,0.75 0 0 0 14.5,16.75 Z"
     id="path4" />
</svg>
