<?xml version="1.0" encoding="UTF-8" standalone="no"?>
<svg
   width="24"
   height="24"
   viewBox="0 0 24 24"

   version="1.1"
   id="svg8"
   xmlns="http://www.w3.org/2000/svg"
   xmlns:svg="http://www.w3.org/2000/svg">
  <defs
     id="defs8" />
  <path
   
     d="M 5,1.25 C 2.9378197,1.25 1.25,2.9378197 1.25,5 1.25,7.0621803 2.9378197,8.75 5,8.75 7.0621803,8.75 8.75,7.0621803 8.75,5 8.75,2.9378197 7.0621803,1.25 5,1.25 Z m 0,1.5 C 6.2515163,2.75 7.25,3.7484837 7.25,5 7.25,6.2515163 6.2515163,7.25 5,7.25 3.7484837,7.25 2.75,6.2515163 2.75,5 2.75,3.7484837 3.7484837,2.75 5,2.75 Z"
     id="path1" />
  <path
   
     d="m 19,1.25 c -2.062218,0 -3.75,1.6878347 -3.75,3.75 0,2.0621653 1.687782,3.75 3.75,3.75 2.062218,0 3.75,-1.6878347 3.75,-3.75 0,-2.0621653 -1.687782,-3.75 -3.75,-3.75 z m 0,1.5 c 1.251579,0 2.25,0.9984686 2.25,2.25 0,1.2515314 -0.998421,2.25 -2.25,2.25 -1.251579,0 -2.25,-0.9984686 -2.25,-2.25 0,-1.2515314 0.998421,-2.25 2.25,-2.25 z"
     id="path2" />
  <path
   
     d="m 5,15.25 c -2.0621653,0 -3.75,1.687782 -3.75,3.75 0,2.062218 1.6878347,3.75 3.75,3.75 2.0621653,0 3.75,-1.687782 3.75,-3.75 0,-2.062218 -1.6878347,-3.75 -3.75,-3.75 z m 0,1.5 c 1.2515314,0 2.25,0.998421 2.25,2.25 0,1.251579 -0.9984686,2.25 -2.25,2.25 -1.2515314,0 -2.25,-0.998421 -2.25,-2.25 0,-1.251579 0.9984686,-2.25 2.25,-2.25 z"
     id="path3" />
  <path
   
     d="m 19,15.25 c -2.062203,0 -3.75,1.687797 -3.75,3.75 0,2.062203 1.687797,3.75 3.75,3.75 2.062203,0 3.75,-1.687797 3.75,-3.75 0,-2.062203 -1.687797,-3.75 -3.75,-3.75 z m 0,1.5 c 1.251594,0 2.25,0.998406 2.25,2.25 0,1.251594 -0.998406,2.25 -2.25,2.25 -1.251594,0 -2.25,-0.998406 -2.25,-2.25 0,-1.251594 0.998406,-2.25 2.25,-2.25 z"
     id="path4" />
  <path
 
     d="M 8,18.25 A 0.75,0.75 0 0 0 7.25,19 0.75,0.75 0 0 0 8,19.75 h 8 A 0.75,0.75 0 0 0 16.75,19 0.75,0.75 0 0 0 16,18.25 Z"
     id="path5" />
  <path
 
     d="M 8,4.25 A 0.75,0.75 0 0 0 7.25,5 0.75,0.75 0 0 0 8,5.75 h 8 A 0.75,0.75 0 0 0 16.75,5 0.75,0.75 0 0 0 16,4.25 Z"
     id="path6" />
  <path
 
     d="M 19,7.25 A 0.75,0.75 0 0 0 18.25,8 v 8 A 0.75,0.75 0 0 0 19,16.75 0.75,0.75 0 0 0 19.75,16 V 8 A 0.75,0.75 0 0 0 19,7.25 Z"
     id="path7" />
  <path
 
     d="M 5,7.25 A 0.75,0.75 0 0 0 4.25,8 v 8 A 0.75,0.75 0 0 0 5,16.75 0.75,0.75 0 0 0 5.75,16 V 8 A 0.75,0.75 0 0 0 5,7.25 Z"
     id="path8" />
</svg>
