<?xml version="1.0" encoding="UTF-8" standalone="no"?>
<svg
   width="24"
   height="24"
   viewBox="0 0 24 24"

   version="1.1"
   id="svg5"
   xmlns="http://www.w3.org/2000/svg"
   xmlns:svg="http://www.w3.org/2000/svg">
  <defs
     id="defs5" />
  <path
    
     d="m 12,15.25 c -0.957614,0 -1.75,0.792386 -1.75,1.75 0,0.957614 0.792386,1.75 1.75,1.75 0.957614,0 1.75,-0.792386 1.75,-1.75 0,-0.957614 -0.792386,-1.75 -1.75,-1.75 z m 0,1.5 c 0.146955,0 0.25,0.103045 0.25,0.25 0,0.146955 -0.103045,0.25 -0.25,0.25 -0.146955,0 -0.25,-0.103045 -0.25,-0.25 0,-0.146955 0.103045,-0.25 0.25,-0.25 z"
     id="circle1" />
  <path
    
     d="M 8,7.25 C 7.0423861,7.25 6.25,8.0423861 6.25,9 6.25,9.9576139 7.0423861,10.75 8,10.75 8.9576139,10.75 9.75,9.9576139 9.75,9 9.75,8.0423861 8.9576139,7.25 8,7.25 Z m 0,1.5 C 8.1469545,8.75 8.25,8.8530455 8.25,9 8.25,9.1469545 8.1469545,9.25 8,9.25 7.8530455,9.25 7.75,9.1469545 7.75,9 7.75,8.8530455 7.8530455,8.75 8,8.75 Z"
     id="circle2" />
  <path
     d="m 11.25,16 c 0,0.4142 0.3358,0.75 0.75,0.75 0.4142,0 0.75,-0.3358 0.75,-0.75 z M 12,6 12.5303,5.46967 c -0.2929,-0.29289 -0.7677,-0.29289 -1.0606,0 z m 0.4697,1.53033 c 0.2929,0.29289 0.7677,0.29289 1.0606,0 0.2929,-0.29289 0.2929,-0.76777 0,-1.06066 z m -2,-1.06066 c -0.2929,0.29289 -0.2929,0.76777 0,1.06066 0.2929,0.29289 0.7677,0.29289 1.0606,0 z m 1,0.06066 1,1 1.0606,-1.06066 -1,-1 z m 0,-1.06066 -1,1 1.0606,1.06066 1,-1 z M 12.75,16 v -1.875 h -1.5 V 16 Z m 0,-1.875 V 6 h -1.5 v 8.125 z"
   
     id="path2" />
  <path
   
     d="M 8,9.25 A 0.75,0.75 0 0 0 7.25,10 v 1.029297 c 0,1.19973 0.7845562,2.267176 1.9296875,2.625 L 10.583984,14.09375 C 10.983664,14.218643 11.25,14.58123 11.25,15 A 0.75,0.75 0 0 0 12,15.75 0.75,0.75 0 0 0 12.75,15 c 0,-1.068628 -0.698831,-2.019184 -1.71875,-2.337891 L 9.6269531,12.222656 C 9.1021861,12.05868 8.75,11.579165 8.75,11.029297 V 10 A 0.75,0.75 0 0 0 8,9.25 Z"
     id="path3" />
  <path
   
     d="M 16,10.25 A 0.75,0.75 0 0 0 15.25,11 v 1.029297 c 0,0.549868 -0.352244,1.029392 -0.876953,1.193359 L 12.96875,13.662109 C 11.948831,13.980816 11.25,14.931372 11.25,16 A 0.75,0.75 0 0 0 12,16.75 0.75,0.75 0 0 0 12.75,16 c 0,-0.41877 0.266336,-0.781357 0.666016,-0.90625 l 1.404297,-0.439453 C 15.965402,14.296465 16.75,13.229027 16.75,12.029297 V 11 A 0.75,0.75 0 0 0 16,10.25 Z"
     id="path4" />
  <path
    
     d="M 16,8.25 C 15.7643,8.25 15.572683,8.24566 15.351563,8.275391 15.130442,8.305119 14.830714,8.3998286 14.615234,8.6152348 14.399784,8.830744 14.305107,9.1304676 14.275391,9.3515629 14.245675,9.5726578 14.25,9.7643002 14.25,10 c 0,0.2357 -0.0043,0.427344 0.02539,0.648438 0.02971,0.221093 0.124486,0.518871 0.339843,0.734375 v 0.002 h 0.002 c 0.215503,0.215357 0.513281,0.310129 0.734375,0.339843 C 15.572656,11.754324 15.7643,11.75 16,11.75 c 0.2357,0 0.427344,0.0043 0.648437,-0.02539 0.221094,-0.02971 0.518872,-0.124486 0.734375,-0.339843 h 0.002 v -0.002 c 0.215357,-0.215504 0.310129,-0.513282 0.339843,-0.734375 C 17.754324,10.427344 17.75,10.2357 17.75,10 17.75,9.7643002 17.7543,9.5726578 17.72461,9.3515625 17.694893,9.1304672 17.600216,8.8307436 17.384766,8.6152344 17.169286,8.3998282 16.869558,8.305119 16.648437,8.2753906 16.427317,8.2456623 16.2357,8.25 16,8.25 Z m 0,1.5 c 0.128091,0 0.16559,0.00348 0.244141,0.00586 0.0024,0.078555 0.0059,0.1160493 0.0059,0.24414 0,0.128091 -0.0035,0.165584 -0.0059,0.244141 -0.07856,0.0024 -0.11605,0.0059 -0.244141,0.0059 -0.128091,0 -0.165584,-0.0035 -0.244141,-0.0059 C 15.753478,10.165584 15.75,10.128091 15.75,10 15.75,9.8719093 15.7535,9.8344153 15.7559,9.7558594 15.83441,9.7534777 15.871909,9.75 16,9.75 Z"
     id="path5" />
  <path
    
     d="M 12,1.25 C 6.0718283,1.25 1.25,6.0718283 1.25,12 1.25,17.928172 6.0718283,22.75 12,22.75 17.928172,22.75 22.75,17.928172 22.75,12 22.75,6.0718283 17.928172,1.25 12,1.25 Z m 0,1.5 c 5.117512,0 9.25,4.1324877 9.25,9.25 0,5.117512 -4.132488,9.25 -9.25,9.25 C 6.8824877,21.25 2.75,17.117512 2.75,12 2.75,6.8824877 6.8824877,2.75 12,2.75 Z"
     id="circle5" />
</svg>
