<?xml version="1.0" encoding="UTF-8" standalone="no"?>
<svg
   width="24"
   height="24"
   viewBox="0 0 24 24"
 
   version="1.1"
   id="svg5"
   xmlns="http://www.w3.org/2000/svg"
   xmlns:svg="http://www.w3.org/2000/svg">
  <defs
     id="defs5" />
  <path
  
     d="m 12,17.25 c -1.509898,0 -2.75,1.240102 -2.75,2.75 0,1.509898 1.240102,2.75 2.75,2.75 1.509898,0 2.75,-1.240102 2.75,-2.75 0,-1.509898 -1.240102,-2.75 -2.75,-2.75 z m 0,1.5 c 0.699239,0 1.25,0.550761 1.25,1.25 0,0.699239 -0.550761,1.25 -1.25,1.25 -0.699239,0 -1.25,-0.550761 -1.25,-1.25 0,-0.699239 0.550761,-1.25 1.25,-1.25 z"
     id="circle1" />
  <path
  
     d="M 6,4.25 C 5.0423861,4.25 4.25,5.0423861 4.25,6 4.25,6.9576139 5.0423861,7.75 6,7.75 6.9576139,7.75 7.75,6.9576139 7.75,6 7.75,5.0423861 6.9576139,4.25 6,4.25 Z m 0,1.5 C 6.1469545,5.75 6.25,5.8530455 6.25,6 6.25,6.1469545 6.1469545,6.25 6,6.25 5.8530455,6.25 5.75,6.1469545 5.75,6 5.75,5.8530455 5.8530455,5.75 6,5.75 Z"
     id="circle2" />
  <path
     d="m 11.25,18 c 0,0.4142 0.3358,0.75 0.75,0.75 0.4142,0 0.75,-0.3358 0.75,-0.75 z M 12,2 12.624,1.58397 C 12.4849,1.37533 12.2508,1.25 12,1.25 c -0.2508,0 -0.4849,0.12533 -0.624,0.33397 z m 1.376,3.41603 c 0.2297,0.34464 0.6954,0.43777 1.04,0.20801 0.3447,-0.22977 0.4378,-0.69542 0.208,-1.04007 z M 9.37596,4.58397 C 9.1462,4.92862 9.23933,5.39427 9.58397,5.62404 9.92862,5.8538 10.3943,5.76067 10.624,5.41603 Z m 2.00004,-2.16794 2,3 1.248,-0.83206 -2,-3 z m 0,-0.83206 -2.00004,3 1.24804,0.83206 2,-3 z M 12.75,18 v -3 h -1.5 v 3 z m 0,-3 V 2 h -1.5 v 13 z"
  
     id="path2" />
  <path
  
     d="M 6,6.25 A 0.75,0.75 0 0 0 5.25,7 v 2.5585938 c 0,1.1807812 0.7606202,2.2359982 1.8808594,2.6093752 l 3.2636716,1.08789 C 10.907566,13.426871 11.25,13.9006 11.25,14.441406 V 15 A 0.75,0.75 0 0 0 12,15.75 0.75,0.75 0 0 0 12.75,15 v -0.558594 c 0,-1.180792 -0.760696,-2.235987 -1.880859,-2.609375 L 7.6054687,10.744141 C 7.0923495,10.573118 6.75,10.099451 6.75,9.5585938 V 7 A 0.75,0.75 0 0 0 6,6.25 Z"
     id="path3" />
  <path
  
     d="M 18,9.25 A 0.75,0.75 0 0 0 17.25,10 v 2.558594 c 0,0.540806 -0.342434,1.014535 -0.855469,1.185547 l -3.263672,1.08789 C 12.010696,15.205419 11.25,16.260614 11.25,17.441406 V 18 A 0.75,0.75 0 0 0 12,18.75 0.75,0.75 0 0 0 12.75,18 v -0.558594 c 0,-0.540806 0.342434,-1.014535 0.855469,-1.185547 l 3.263672,-1.08789 C 17.989304,14.794581 18.75,13.739386 18.75,12.558594 V 10 A 0.75,0.75 0 0 0 18,9.25 Z"
     id="path4" />
  <path
  
     d="m 18,7.25 c -0.2357,0 -0.427317,-0.00434 -0.648438,0.025391 -0.22112,0.029728 -0.520848,0.1244376 -0.736328,0.3398438 C 16.399784,7.830744 16.305107,8.1304676 16.275391,8.3515629 16.245675,8.5726578 16.25,8.7643002 16.25,9 c 0,0.2356998 -0.0043,0.4273422 0.02539,0.6484375 0.02972,0.2210953 0.124393,0.5208185 0.339843,0.7363285 0.21548,0.215406 0.515208,0.310115 0.736328,0.339843 C 17.572683,10.754338 17.7643,10.75 18,10.75 c 0.2357,0 0.427317,0.0043 0.648437,-0.02539 0.221121,-0.02973 0.520849,-0.124437 0.736329,-0.339843 0.21545,-0.21551 0.310127,-0.5152332 0.339843,-0.7363285 C 19.754325,9.4273422 19.75,9.2356998 19.75,9 19.75,8.7643002 19.7543,8.5726578 19.72461,8.3515625 19.694893,8.1304672 19.600216,7.8307436 19.384766,7.6152344 19.169286,7.3998282 18.869558,7.305119 18.648437,7.2753906 18.427317,7.2456623 18.2357,7.25 18,7.25 Z m 0,1.5 c 0.128091,0 0.16559,0.00348 0.244141,0.00586 C 18.246522,8.8344153 18.25,8.8719093 18.25,9 18.25,9.1280907 18.2465,9.1655847 18.2441,9.2441406 18.16559,9.2465223 18.128091,9.25 18,9.25 17.871909,9.25 17.83441,9.24652 17.755859,9.24414 17.753478,9.1655847 17.75,9.1280907 17.75,9 17.75,8.8719093 17.7535,8.8344153 17.7559,8.7558594 17.83441,8.7534777 17.871909,8.75 18,8.75 Z"
     id="path5" />
</svg>
