<?xml version="1.0" encoding="UTF-8" standalone="no"?>
<svg
   width="24"
   height="24"
   viewBox="0 0 24 24"

   version="1.1"
   id="svg6"
   xmlns="http://www.w3.org/2000/svg"
   xmlns:svg="http://www.w3.org/2000/svg">
  <defs
     id="defs6" />
  <path
   
     d="M 12,1.25 C 9.6429774,1.25 7.860594,1.2449714 6.4140625,1.4394531 4.967531,1.6339349 3.8080817,2.0590998 2.9335938,2.9335938 2.0590998,3.8080817 1.6339349,4.967531 1.4394531,6.4140625 1.2449714,7.860594 1.25,9.6429774 1.25,12 c 0,2.356998 -0.00503,4.1394 0.1894531,5.585937 0.1944817,1.446538 0.6196331,2.606004 1.4941407,3.480469 0.8744865,0.874511 2.0339355,1.299655 3.4804687,1.494141 C 7.8605957,22.755033 9.6429774,22.75 12,22.75 c 2.356998,0 4.139398,0.005 5.585937,-0.189453 1.44654,-0.194486 2.606005,-0.619617 3.480469,-1.494141 0.874524,-0.874464 1.299655,-2.033929 1.494141,-3.480469 C 22.755033,16.139398 22.75,14.356998 22.75,12 22.75,9.6429774 22.755,7.8605957 22.560547,6.4140625 22.366061,4.9675293 21.940917,3.8080803 21.066406,2.9335938 20.191941,2.0590862 19.032475,1.6339348 17.585937,1.4394531 16.1394,1.2449715 14.356998,1.25 12,1.25 Z m 0,1.5 c 2.356998,0 4.110109,0.00415 5.386719,0.1757813 1.27661,0.1716355 2.029208,0.4783983 2.61914,1.0683593 0.589989,0.589972 0.896721,1.3425391 1.06836,2.6191406 C 21.245857,7.8898828 21.25,9.6429774 21.25,12 c 0,2.356998 -0.0041,4.110111 -0.175781,5.386719 -0.171639,1.276608 -0.478385,2.029206 -1.06836,2.61914 -0.589934,0.589975 -1.342532,0.896721 -2.61914,1.06836 C 16.110111,21.245858 14.356998,21.25 12,21.25 9.6429774,21.25 7.8898828,21.245857 6.6132812,21.074219 5.3366797,20.90258 4.5841126,20.595848 3.9941406,20.005859 3.4041796,19.415927 3.0974168,18.663329 2.9257813,17.386719 2.7541457,16.110109 2.75,14.356998 2.75,12 2.75,9.6429774 2.7541459,7.8898845 2.9257813,6.6132812 3.0974166,5.336678 3.404166,4.5841112 3.9941406,3.9941406 4.5841112,3.404166 5.336678,3.0974166 6.6132812,2.9257813 7.8898845,2.7541459 9.6429774,2.75 12,2.75 Z"
     id="path1" />
  <path
     d="M 7,6 C 7,6.55228 6.55228,7 6,7 5.44772,7 5,6.55228 5,6 5,5.44772 5.44772,5 6,5 6.55228,5 7,5.44772 7,6 Z"
    
     id="path2" />
  <path
     d="M 10,6 C 10,6.55228 9.55228,7 9,7 8.44772,7 8,6.55228 8,6 8,5.44772 8.44772,5 9,5 c 0.55228,0 1,0.44772 1,1 z"
    
     id="path3" />
  <path
     d="m 13,6 c 0,0.55228 -0.4477,1 -1,1 -0.5523,0 -1,-0.44772 -1,-1 0,-0.55228 0.4477,-1 1,-1 0.5523,0 1,0.44772 1,1 z"
    
     id="path4" />
  <path
    
     d="M 2,8.75 A 0.75,0.75 0 0 0 1.25,9.5 0.75,0.75 0 0 0 2,10.25 H 22 A 0.75,0.75 0 0 0 22.75,9.5 0.75,0.75 0 0 0 22,8.75 Z"
     id="path5" />
  <path
    
     d="M 9,9.25 A 0.75,0.75 0 0 0 8.25,10 V 21 A 0.75,0.75 0 0 0 9,21.75 0.75,0.75 0 0 0 9.75,21 V 10 A 0.75,0.75 0 0 0 9,9.25 Z"
     id="path6" />
</svg>
