<?xml version="1.0" encoding="utf-8"?>
<!-- Generator: Adobe Illustrator 27.9.0, SVG Export Plug-In . SVG Version: 6.00 Build 0)  -->
<svg version="1.1" id="Calque_1" xmlns="http://www.w3.org/2000/svg" xmlns:xlink="http://www.w3.org/1999/xlink" x="0px" y="0px"
	 viewBox="0 0 24 24" style="enable-background:new 0 0 24 24;" xml:space="preserve">
<style type="text/css">
	.st0{fill-rule:evenodd;clip-rule:evenodd;}
</style>
<g>
	<path class="st0" d="M11.5,2C7.4,2,4,5.4,4,9.7c0,2.3,1,4.3,2.5,5.7c0.5,0.5,0.9,0.8,1.2,1.1c0.1,0.1,0.2,0.2,0.3,0.3
		c0,0,0.1,0.1,0.1,0.1c0,0,0,0,0,0c0,0,0,0,0,0c0.2,0.3,0.3,0.4,0.3,0.4c0,0.1,0.1,0.2,0.1,0.5c0,0.1,0,0.4,0,1.1v0
		c0,0.4,0,0.8,0,1.1c0,0.3,0.1,0.6,0.2,0.9c0.2,0.3,0.4,0.6,0.7,0.8c0.3,0.2,0.6,0.2,0.9,0.3c0.3,0,0.6,0,1,0h0.1c0.4,0,0.7,0,1,0
		c0.3,0,0.6-0.1,0.9-0.3c0.3-0.2,0.6-0.4,0.7-0.8c0.2-0.3,0.2-0.6,0.2-0.9c0-0.3,0-0.6,0-1.1v0c0-0.7,0-1,0-1.1
		c0.1-0.4,0.1-0.5,0.1-0.5c0-0.1,0.1-0.1,0.3-0.4c0,0,0,0,0,0c0,0,0,0,0,0c0,0,0,0,0,0c0,0,0.1-0.1,0.1-0.1c0.1-0.1,0.2-0.2,0.3-0.3
		c0.3-0.3,0.6-0.6,1.2-1.1C18,14,19,11.9,19,9.7C19,5.4,15.6,2,11.5,2z M13.1,19.9c0-0.1,0-0.2,0-0.3H9.9c0,0.1,0,0.2,0,0.3
		c0,0.2,0,0.3,0.1,0.3c0.1,0.1,0.1,0.2,0.2,0.3c0,0,0.1,0.1,0.3,0.1c0.2,0,0.5,0,0.9,0s0.7,0,0.9,0c0.2,0,0.3-0.1,0.3-0.1
		c0.1-0.1,0.2-0.1,0.2-0.3C13,20.2,13.1,20.1,13.1,19.9z M9.3,13.4c0.4-0.2,0.8-0.1,1,0.3c0.2,0.4,0.6,0.6,1.1,0.6
		c0.5,0,0.9-0.2,1.1-0.6c0.2-0.4,0.7-0.5,1-0.3c0.4,0.2,0.5,0.7,0.3,1c-0.4,0.6-0.9,1.1-1.6,1.3V17c0,0.4-0.3,0.8-0.8,0.8
		c-0.4,0-0.8-0.3-0.8-0.8v-1.4C9.9,15.4,9.4,15,9,14.4C8.8,14,8.9,13.6,9.3,13.4z"/>
</g>
</svg>
