<?xml version="1.0" encoding="UTF-8" standalone="no"?>
<svg
   width="24"
   height="24"
   viewBox="0 0 24 24"

   version="1.1"
   id="svg2"
   xmlns="http://www.w3.org/2000/svg"
   xmlns:svg="http://www.w3.org/2000/svg">
  <defs
     id="defs2" />
  <path

     d="M 7.2011719,1.25 C 4.9300465,1.2841415 3.2769204,3.5006546 3.3164063,6.0117187 l -0.03125,3.3222657 C 3.2778763,10.090124 3.2573862,10.372286 3.1933594,10.533203 3.1392401,10.66926 2.9075897,10.960834 2.3164063,11.603516 1.6960897,12.277959 1.25,12.939585 1.25,13.746094 c 0,0.614563 0.2745495,1.170768 0.6640625,1.669922 0.389513,0.499153 0.9071367,0.998343 1.5800781,1.65625 L 7.0625,20.5625 c 0.6729374,0.657952 1.1860239,1.165014 1.6953125,1.544922 C 9.2671011,22.487329 9.8285613,22.75 10.443359,22.75 c 0.614823,0 1.174307,-0.262663 1.683594,-0.642578 0.509287,-0.379915 1.022413,-0.887023 1.695313,-1.544922 l 6.78125,-6.628906 c 2.85205,-2.788494 2.852047,-7.3579722 0,-10.1464846 C 17.817186,1.0628617 13.362278,1.0438601 10.498047,3.6425781 9.8038478,2.2929095 8.6950333,1.2275388 7.2011719,1.25 Z m 0.023437,1.5 C 8.1609752,2.7359211 8.9863906,3.5027607 9.4140625,4.6289062 L 8.8476563,5.1835937 a 0.75,0.75 0 0 0 -0.011719,1.0605469 0.75,0.75 0 0 0 1.0605469,0.011719 l 0.035156,-0.033203 0.9277348,-0.90625 0.464844,-0.4550781 c 2.272556,-2.2219224 5.957912,-2.2219224 8.230468,0 2.272548,2.2219226 2.272545,5.7761445 0,7.9980465 l -6.781249,6.630859 c -0.6729,0.6579 -1.170257,1.137982 -1.542969,1.416016 -0.372712,0.278034 -0.565733,0.34375 -0.78711,0.34375 -0.221421,0 -0.416364,-0.06573 -0.7890625,-0.34375 C 9.2815988,20.628233 8.7842594,20.148181 8.1113281,19.490234 L 4.5429687,16 C 3.8700415,15.342108 3.379122,14.855383 3.0957031,14.492188 2.8122843,14.128992 2.75,13.94913 2.75,13.746094 c 0,-0.266491 0.1333127,-0.541398 0.671875,-1.126953 0.5912154,-0.642717 0.950722,-0.994908 1.1640625,-1.53125 0.2034329,-0.511283 0.1919388,-0.984096 0.1992187,-1.7402347 l 0.03125,-3.3515626 v -0.00781 C 4.7872722,4.1355298 5.9514983,2.7691385 7.2246089,2.75 Z"
     id="path1" />
  <path

     d="M 4.5429687,10.417969 3.4941406,11.490234 12.773438,20.5625 13.822266,19.490234 Z"
     id="path2" />
</svg>
