<?xml version="1.0" encoding="UTF-8" standalone="no"?>
<svg
   width="24"
   height="24"
   viewBox="0 0 24 24"

   version="1.1"
   id="svg2"
   xmlns="http://www.w3.org/2000/svg"
   xmlns:svg="http://www.w3.org/2000/svg">
  <defs
     id="defs2" />
  <path
     d="m 12.75,15.2856 c 0,-0.4142 -0.3358,-0.75 -0.75,-0.75 -0.4142,0 -0.75,0.3358 -0.75,0.75 z m 3,6.4643 c 0.4142,0 0.75,-0.3358 0.75,-0.75 0,-0.4142 -0.3358,-0.75 -0.75,-0.75 z m -7.5,-1.5 c -0.41421,0 -0.75,0.3358 -0.75,0.75 0,0.4142 0.33579,0.75 0.75,0.75 z m 3,-4.9643 v 5.7143 h 1.5 v -5.7143 z m 4.5,4.9643 H 12 v 1.5 h 3.75 z m -3.75,0 H 8.25 v 1.5 H 12 Z M 6.89474,3.75 H 17.1053 V 2.25 H 6.89474 Z M 18.25,4.89474 V 8 h 1.5 V 4.89474 Z M 5.75,8 V 4.89474 H 4.25 V 8 Z M 12,14.25 C 8.54822,14.25 5.75,11.4518 5.75,8 h -1.5 c 0,4.2802 3.46979,7.75 7.75,7.75 z M 18.25,8 c 0,3.4518 -2.7982,6.25 -6.25,6.25 v 1.5 c 4.2802,0 7.75,-3.4698 7.75,-7.75 z M 17.1053,3.75 c 0.6322,0 1.1447,0.51252 1.1447,1.14474 h 1.5 C 19.75,3.43409 18.5659,2.25 17.1053,2.25 Z M 6.89474,2.25 C 5.43409,2.25 4.25,3.43409 4.25,4.89474 h 1.5 C 5.75,4.26252 6.26252,3.75 6.89474,3.75 Z"

     id="path1" />
  <path

     d="M 8.953125,7.2519531 C 7.2593035,7.3561359 5.1992188,8.3125 5.1992187,8.3125 A 0.75,0.75 0 0 0 4.8125,9.3007813 0.75,0.75 0 0 0 5.8007812,9.6875 c 0,0 2.1022181,-0.8690961 3.2460938,-0.9394531 0.993706,-0.061117 1.6788,0.3546691 2.5625,0.8925781 0.8837,0.537909 1.966008,1.197943 3.4375,1.107422 C 16.740662,10.643874 18.800781,9.6875 18.800781,9.6875 A 0.75,0.75 0 0 0 19.1875,8.6992188 0.75,0.75 0 0 0 18.199219,8.3125 c 0,0 -2.102284,0.8691058 -3.246094,0.9394531 C 13.95942,9.3130822 13.274323,8.8972824 12.390625,8.359375 11.506927,7.8214676 10.424616,7.1614503 8.953125,7.2519531 Z"
     id="path2" />
</svg>
