<?xml version="1.0" encoding="UTF-8" standalone="no"?>
<svg
   width="24"
   height="24"
   viewBox="0 0 24 24"
   version="1.1"
   id="svg7"
   xmlns="http://www.w3.org/2000/svg"
   xmlns:svg="http://www.w3.org/2000/svg">
  <defs
     id="defs7" />
  <path
     d="M 2,21.25 A 0.75,0.75 0 0 0 1.25,22 0.75,0.75 0 0 0 2,22.75 H 22 A 0.75,0.75 0 0 0 22.75,22 0.75,0.75 0 0 0 22,21.25 Z"
     id="path1" />
  <path
     d="m 15,1.25 c -0.942799,0 -1.665333,-0.00457 -2.294922,0.080078 -0.629589,0.084647 -1.215235,0.2894618 -1.65039,0.7246094 -0.350253,0.350282 -0.557885,0.8085693 -0.66211,1.2910156 -0.104225,0.4824464 -0.129484,1.0061887 -0.138672,1.6425781 l 1.5,0.023437 c 0.0087,-0.6033892 0.03939,-1.0508284 0.103516,-1.3476562 0.06413,-0.2968278 0.136565,-0.4275706 0.257812,-0.5488281 C 12.265879,2.9645926 12.44659,2.8782066 12.90625,2.8164063 13.36591,2.7546059 14.057201,2.75 15,2.75 h 2 c 0.942849,0 1.634077,0.00461 2.09375,0.066406 0.459673,0.061801 0.640371,0.1481863 0.791016,0.2988281 0.150599,0.1506195 0.237035,0.3313408 0.298828,0.7910156 C 20.245386,4.3659248 20.25,5.0571909 20.25,6 v 16 h 1.5 V 6 C 21.75,5.0571909 21.7546,4.3346572 21.66992,3.7050781 21.58529,3.075499 21.380413,2.4898474 20.945312,2.0546875 20.510157,1.6195399 19.924522,1.4147247 19.294922,1.3300781 18.665321,1.2454315 17.942849,1.25 17,1.25 Z"
     id="path2" />
  <path
     d="M 7,4.25 C 6.0571909,4.25 5.3346696,4.2454312 4.7050781,4.3300781 4.0754867,4.4147251 3.4898365,4.6195311 3.0546875,5.0546875 2.6195311,5.4898365 2.4147251,6.0754867 2.3300781,6.7050781 2.2454312,7.3346696 2.25,8.0571909 2.25,9 v 13 h 1.5 V 9 C 3.75,8.0571909 3.75461,7.3659125 3.816406,6.90625 3.878206,6.4465875 3.964601,6.2658648 4.1152341,6.1152344 4.2658648,5.9646013 4.4465875,5.8782067 4.90625,5.8164062 5.3659125,5.7546058 6.0571909,5.75 7,5.75 h 4 c 0.942799,0 1.63409,0.00461 2.09375,0.066406 0.45966,0.0618 0.640371,0.1481864 0.791016,0.2988282 C 14.035402,6.265866 14.121792,6.4465889 14.183594,6.90625 14.245395,7.3659111 14.25,8.0571909 14.25,9 v 13 h 1.5 V 9 C 15.75,8.0571909 15.7546,7.3346709 15.66992,6.7050781 15.585273,6.0754853 15.380475,5.4898352 14.945313,5.0546875 14.510157,4.6195399 13.924511,4.4147251 13.294922,4.3300781 12.665333,4.2454312 11.942799,4.25 11,4.25 Z"
     id="path3" />
  <path
     d="M 9,18.25 A 0.75,0.75 0 0 0 8.25,19 v 3 A 0.75,0.75 0 0 0 9,22.75 0.75,0.75 0 0 0 9.75,22 V 19 A 0.75,0.75 0 0 0 9,18.25 Z"
     id="path4" />
  <path
     d="M 6,7.25 A 0.75,0.75 0 0 0 5.25,8 0.75,0.75 0 0 0 6,8.75 h 6 A 0.75,0.75 0 0 0 12.75,8 0.75,0.75 0 0 0 12,7.25 Z"
     id="path5" />
  <path
     d="M 6,10.25 A 0.75,0.75 0 0 0 5.25,11 0.75,0.75 0 0 0 6,11.75 h 6 A 0.75,0.75 0 0 0 12.75,11 0.75,0.75 0 0 0 12,10.25 Z"
     id="path6" />
  <path
     d="M 6,13.25 A 0.75,0.75 0 0 0 5.25,14 0.75,0.75 0 0 0 6,14.75 h 6 A 0.75,0.75 0 0 0 12.75,14 0.75,0.75 0 0 0 12,13.25 Z"
     id="path7" />
</svg>
