<?xml version="1.0" encoding="UTF-8" standalone="no"?>
<svg
   width="24"
   height="24"
   viewBox="0 0 24 24"
   version="1.1"
   id="svg3"
   xmlns="http://www.w3.org/2000/svg"
   xmlns:svg="http://www.w3.org/2000/svg">
  <defs
     id="defs3" />
  <path
    
     d="M 11.638672,5.25 C 10.050888,5.25 8.8457879,5.2463232 7.8359375,5.3710937 6.8260871,5.4958643 5.977684,5.7725803 5.2871094,6.3457031 4.5965354,6.9188316 4.168113,7.7023129 3.859375,8.671875 3.550637,9.6414371 3.3316722,10.82613 3.0390625,12.386719 2.6276028,14.581167 2.3117623,16.241046 2.2519531,17.611328 2.192144,18.98161 2.4182108,20.13454 3.1640625,21.033203 3.9099004,21.931912 5.0015359,22.368752 6.359375,22.5625 7.7172141,22.756248 9.4059691,22.75 11.638672,22.75 h 0.722656 c 2.232698,0 3.921464,0.0062 5.279297,-0.1875 1.357833,-0.193748 2.449485,-0.630586 3.195312,-1.529297 0.745837,-0.898659 0.971903,-2.051593 0.91211,-3.421875 -0.05979,-1.370281 -0.375659,-3.030158 -0.78711,-5.224609 C 20.668289,10.826134 20.44937,9.6414328 20.140625,8.671875 19.83188,7.7023172 19.403465,6.9188323 18.712891,6.3457031 18.022314,5.7725789 17.173909,5.4958643 16.164062,5.3710937 15.154216,5.2463232 13.949077,5.25 12.361328,5.25 Z m 0,1.5 h 0.722656 c 1.587749,0 2.763489,0.00366 3.619141,0.109375 0.855651,0.1057192 1.355068,0.2917902 1.77539,0.640625 0.420324,0.3488399 0.693474,0.8054303 0.955078,1.6269531 0.261605,0.8215229 0.482741,1.9765169 0.775391,3.5371099 0.411449,2.194444 0.71194,3.826177 0.763672,5.011718 0.05173,1.185541 -0.114597,1.853652 -0.568359,2.400391 -0.453771,0.546787 -1.079143,0.832374 -2.253907,1 C 16.25297,21.243798 14.594026,21.25 12.361328,21.25 h -0.722656 c -2.2327029,0 -3.8916355,-0.0062 -5.0664064,-0.173828 -1.1747709,-0.167627 -1.8001254,-0.45321 -2.2539062,-1 C 3.8645923,19.529436 3.6982543,18.861322 3.75,17.675781 3.8017457,16.490241 4.1022124,14.85851 4.5136719,12.664063 4.8062816,11.103474 5.0274661,9.9484717 5.2890625,9.1269531 5.5506589,8.3054345 5.8238157,7.8488406 6.2441406,7.5 6.6644649,7.1511638 7.163876,6.9650942 8.0195313,6.859375 8.8751865,6.7536558 10.050888,6.75 11.638672,6.75 Z"
     id="path1" />
  <path
     d="m 12,12.1913 -0.5187,0.5418 c 0.29,0.2777 0.7474,0.2777 1.0374,0 z m -0.9571,3.6743 -0.4437,0.6047 z m 1.9142,0 -0.4436,-0.6047 z M 12,16.3276 v 0.75 z M 11.4865,15.2609 C 11.0686,14.9542 10.6081,14.5712 10.2595,14.1681 9.89122,13.7423 9.75,13.4113 9.75,13.1967 h -1.5 c 0,0.7699 0.4412,1.4512 0.8749,1.9526 0.45329,0.5242 1.0142,0.9834 1.4743,1.321 z M 9.75,13.1967 c 0,-0.576 0.2626,-0.8267 0.4919,-0.9071 0.2503,-0.0877 0.7139,-0.0597 1.2394,0.4435 l 1.0374,-1.0835 C 11.6943,10.8603 10.6579,10.5543 9.74566,10.8741 8.81245,11.2012 8.25,12.0995 8.25,13.1967 Z m 3.6508,3.2736 c 0.4601,-0.3376 1.021,-0.7968 1.4743,-1.321 0.4337,-0.5014 0.8749,-1.1827 0.8749,-1.9526 h -1.5 c 0,0.2146 -0.1412,0.5456 -0.5095,0.9714 -0.3486,0.4032 -0.8091,0.7861 -1.227,1.0928 z M 15.75,13.1967 c 0,-1.0972 -0.5625,-1.9955 -1.4957,-2.3226 -0.9122,-0.3198 -1.9486,-0.0138 -2.773,0.7755 l 1.0374,1.0835 c 0.5255,-0.5032 0.9891,-0.5312 1.2394,-0.4435 0.2293,0.0804 0.4919,0.3311 0.4919,0.9071 z m -5.1508,3.2736 c 0.3686,0.2704 0.7824,0.6072 1.4008,0.6073 v -1.5 c -0.0244,0 -0.0395,-10e-5 -0.0939,-0.0288 -0.0859,-0.0454 -0.1933,-0.1219 -0.4196,-0.2879 z m 1.9143,-1.2094 c -0.2263,0.166 -0.3337,0.2425 -0.4196,0.2879 -0.0544,0.0287 -0.0695,0.0288 -0.0939,0.0288 v 1.5 c 0.6184,0 1.0322,-0.3369 1.4008,-0.6073 z"
   
     id="path2" />
  <path
   
     d="M 12,1.25 C 9.9377819,1.25 8.25,2.9378347 8.25,5 V 6 A 0.75,0.75 0 0 0 9,6.75 0.75,0.75 0 0 0 9.75,6 V 5 c 0,-1.2515314 0.998421,-2.25 2.25,-2.25 1.251579,0 2.25,0.9984686 2.25,2.25 V 6 A 0.75,0.75 0 0 0 15,6.75 0.75,0.75 0 0 0 15.75,6 V 5 C 15.75,2.9378347 14.062218,1.25 12,1.25 Z"
     id="path3" />
</svg>
