<?xml version="1.0" encoding="UTF-8" standalone="no"?>
<svg
   width="24"
   height="24"
   viewBox="0 0 24 24"

   version="1.1"
   id="svg4"
   xmlns="http://www.w3.org/2000/svg"
   xmlns:svg="http://www.w3.org/2000/svg">
  <defs
     id="defs4" />
  <path
   
     d="M 9.6855469,8.25 C 7.9168436,8.25 6.5746314,8.2446216 5.484375,8.4023438 4.3941186,8.5600659 3.4836586,8.9268345 2.8867188,9.6914063 2.2897625,10.455933 2.1542082,11.429444 2.265625,12.525391 c 0.1114168,1.095946 0.4421191,2.395429 0.8710938,4.111328 0.2728351,1.09135 0.4773887,1.926034 0.7421875,2.621093 0.2647987,0.69506 0.6172424,1.276409 1.1562499,1.697266 0.5390196,0.420867 1.1891973,0.622622 1.9277344,0.710938 C 7.7014277,21.754332 8.560618,21.75 9.6855469,21.75 h 4.6289061 c 1.124949,0 1.984119,0.0043 2.722656,-0.08398 0.738538,-0.08832 1.388712,-0.290079 1.927735,-0.710938 0.539023,-0.420859 0.891456,-1.002207 1.15625,-1.697266 0.264794,-0.695058 0.469339,-1.529748 0.742187,-2.621093 0.428949,-1.715895 0.759672,-3.015387 0.871094,-4.111328 C 21.845797,11.42945 21.710222,10.455938 21.113281,9.6914063 20.516309,8.9268521 19.605885,8.5600656 18.515625,8.4023438 17.425365,8.2446219 16.083151,8.25 14.314453,8.25 Z m 0,1.5 h 4.6289061 c 1.768698,0 3.082665,0.00599 3.986328,0.1367188 0.903663,0.1307282 1.326933,0.3392712 1.63086,0.7285152 0.303858,0.389167 0.4029,0.851384 0.310546,1.759766 -0.09235,0.908382 -0.405033,2.182536 -0.833984,3.898437 -0.272851,1.091353 -0.477973,1.894104 -0.689453,2.449219 -0.21148,0.555115 -0.401006,0.836242 -0.675781,1.050781 -0.274776,0.214541 -0.593758,0.33181 -1.183594,0.402344 C 16.269539,20.246315 15.439402,20.25 14.314453,20.25 H 9.6855469 C 8.560618,20.25 7.7304616,20.246315 7.140625,20.175781 6.5507884,20.105247 6.2317909,19.98797 5.9570312,19.773437 5.6822596,19.558896 5.4907801,19.27777 5.2792969,18.722656 5.0678136,18.167542 4.8646311,17.364785 4.5917969,16.273437 4.1628224,14.55754 3.8501605,13.283376 3.7578125,12.375 3.6654645,11.466624 3.7644866,11.004407 4.0683594,10.615234 4.3722486,10.226007 4.7955622,10.017446 5.6992187,9.8867188 6.6028753,9.7559911 7.9168436,9.75 9.6855469,9.75 Z"
     id="path1" />
  <path
   
     d="M 9,3.25 C 7.958721,3.25 7.3527351,3.2279287 6.7265625,3.4726563 6.1584297,3.6947046 5.664464,4.072793 5.3007812,4.5625 4.8999516,5.1022425 4.7602479,5.6926666 4.4863281,6.6972656 L 3.7773438,9.3027344 5.2226562,9.6972656 5.9335937,7.0917969 C 6.2075135,6.0871979 6.3428765,5.673868 6.5039062,5.4570312 6.6997829,5.193279 6.965498,4.988732 7.2714844,4.8691406 7.5230309,4.7708285 7.958721,4.75 9,4.75 Z m 6,0 v 1.5 c 1.041299,0 1.476887,0.020805 1.728516,0.1191406 0.305945,0.1195917 0.571688,0.3241398 0.767578,0.5878906 0.161039,0.216873 0.296419,0.630189 0.570312,1.6347657 L 18.777344,9.6972656 20.222656,9.3027344 19.513672,6.6972656 C 19.239766,5.6926443 19.099979,5.1022063 18.699219,4.5625 18.335509,4.0727916 17.841491,3.6947042 17.273437,3.4726563 16.647267,3.2279517 16.041299,3.25 15,3.25 Z"
     id="path2" />
  <path
   
     d="M 10,2.25 C 9.0423831,2.25 8.25,3.0423831 8.25,4 8.25,4.9576169 9.0423831,5.75 10,5.75 h 4 C 14.957622,5.75 15.75,4.9575988 15.75,4 15.75,3.0424012 14.957622,2.25 14,2.25 Z m 0,1.5 h 4 c 0.146977,0 0.25,0.1030399 0.25,0.25 0,0.1469601 -0.103023,0.25 -0.25,0.25 H 10 C 9.853058,4.25 9.75,4.146942 9.75,4 9.75,3.853058 9.853058,3.75 10,3.75 Z"
     id="path3" />
  <path
     
     d="m 11.931641,8.2539063 a 0.75,0.75 0 0 0 -0.507813,0.265625 L 7.5585937,13.15625 5.1191406,9.578125 A 0.75,0.75 0 0 0 4.078125,9.3808594 0.75,0.75 0 0 0 3.8808594,10.421875 L 6.5625,14.353516 3.9238281,17.519531 a 0.75,0.75 0 0 0 0.095703,1.056641 0.75,0.75 0 0 0 1.0566407,-0.0957 l 2.3652343,-2.837891 3.9394529,5.779297 a 0.750075,0.750075 0 0 0 1.238282,0 l 3.953125,-5.798828 2.349609,2.853515 a 0.75,0.75 0 0 0 1.054687,0.101563 0.75,0.75 0 0 0 0.101563,-1.054688 l -2.626953,-3.189453 2.667969,-3.912109 A 0.75,0.75 0 0 0 19.921875,9.3808594 0.75,0.75 0 0 0 18.880859,9.578125 L 16.458984,13.128906 13.078125,9.0234375 A 0.75,0.75 0 0 0 12.726563,8.9902344 0.75,0.75 0 0 0 12.480469,8.4238281 0.75,0.75 0 0 0 11.931641,8.2539063 Z m 0.109375,1.8671877 3.539062,4.296875 L 12,19.669922 8.4375,14.445313 Z"
     id="path4" />
</svg>
