<?xml version="1.0" encoding="UTF-8" standalone="no"?>
<svg
   width="24"
   height="24"
   viewBox="0 0 24 24"
 
   version="1.1"
   id="svg5"
   xmlns="http://www.w3.org/2000/svg"
   xmlns:svg="http://www.w3.org/2000/svg">
  <defs
     id="defs5" />
  <path
     
     d="m 2.75,11 v 3 c 0,1.885598 -0.00553,3.314057 0.1523438,4.488281 0.157869,1.174225 0.5102187,2.143075 1.2382812,2.871094 0.7280455,0.728058 1.6968741,1.080408 2.8710937,1.238281 C 8.1859384,22.75553 9.6143819,22.75 11.5,22.75 h 1 c 1.885598,0 3.314055,0.0055 4.488281,-0.152344 1.174227,-0.157873 2.143077,-0.510202 2.871094,-1.238281 0.728079,-0.728017 1.080408,-1.696867 1.238281,-2.871094 C 21.25553,17.314055 21.25,15.885598 21.25,14 v -3 h -1.5 v 3 c 0,1.885598 -0.0056,3.284766 -0.140625,4.289062 -0.135026,1.004297 -0.367027,1.566284 -0.810547,2.009766 -0.443482,0.44352 -1.005469,0.675521 -2.009766,0.810547 C 15.784766,21.244401 14.385598,21.25 12.5,21.25 h -1 C 9.6143819,21.25 8.2152257,21.2444 7.2109375,21.109375 6.2066493,20.974349 5.6447052,20.742369 5.2011719,20.298828 4.7576655,19.855348 4.5256482,19.293361 4.390625,18.289062 4.2556018,17.284764 4.25,15.885598 4.25,14 v -3 z"
     id="path1" />
  <path
   
     d="M 8.8203125,1.25 8.7539063,1.9257812 8.1015625,8.4433594 C 7.8721459,10.737562 9.6943824,12.75 12,12.75 c 2.305618,0 4.127904,-2.012428 3.898438,-4.3066406 L 15.179688,1.25 Z m 1.3574215,1.5 h 3.642579 L 14.40625,8.5917969 C 14.549783,10.026841 13.442179,11.25 12,11.25 10.557821,11.25 9.450247,10.02685 9.59375,8.5917969 Z"
     id="path2" />
  <path
     
     d="M 7.4179687,1.25 C 6.5099397,1.25 6.0014989,1.2367611 5.46875,1.3828125 4.4435291,1.6638677 3.5840822,2.36815 3.1074219,3.3183594 2.8597281,3.8121188 2.7718298,4.314679 2.59375,5.2050781 L 1.9960937,8.1933594 C 1.5277956,10.534875 3.3445421,12.75 5.7324219,12.75 c 1.9505022,0 3.5949839,-1.488864 3.7890625,-3.4296875 L 10.328125,1.25 Z m 0,1.5 H 8.671875 L 8.0292969,9.1699219 C 7.9106158,10.356756 6.9251765,11.25 5.7324219,11.25 4.2594056,11.25 3.1779158,9.9327018 3.4667969,8.4882813 L 4.0644531,5.4980469 C 4.2425329,4.6076478 4.3348329,4.2182542 4.4492187,3.9902344 4.7354976,3.4195452 5.249477,2.9988825 5.8652344,2.8300781 6.1112647,2.7626297 6.5099397,2.75 7.4179687,2.75 Z"
     id="path3" />
  <path
  
     d="m 13.671875,1.25 0.806641,8.0703125 C 14.672617,11.26112 16.317023,12.75 18.267578,12.75 c 2.387842,0 4.204641,-2.215114 3.736328,-4.5566406 L 21.40625,5.2050781 C 21.228145,4.3146525 21.140172,3.8120283 20.892578,3.3183594 20.415892,2.3681741 19.556482,1.6638672 18.53125,1.3828125 17.998501,1.2367648 17.49003,1.25 16.582031,1.25 Z m 1.65625,1.5 h 1.253906 c 0.907999,0 1.306685,0.012626 1.552735,0.080078 0.615766,0.1688049 1.129702,0.589443 1.416015,1.1601563 0.114406,0.2281103 0.206671,0.6174398 0.384766,1.5078125 l 0.597656,2.9902344 C 20.82209,9.9326909 19.740533,11.25 18.267578,11.25 c -1.192841,0 -2.178177,-0.893229 -2.296875,-2.0800781 z"
     id="path4" />
  <path
    
     d="m 12,15.25 c -0.934599,0 -1.525187,-0.04556 -2.125,0.300781 C 9.5329047,15.748236 9.2482454,16.033019 9.0507813,16.375 8.7045134,16.9748 8.75,17.565401 8.75,18.5 v 3 a 0.75,0.75 0 0 0 0.75,0.75 0.75,0.75 0 0 0 0.75,-0.75 v -3 c 0,-0.934599 0.04396,-1.278601 0.09961,-1.375 0.06584,-0.114018 0.161487,-0.209646 0.275391,-0.275391 C 10.721387,16.793954 11.065401,16.75 12,16.75 c 0.934599,0 1.278613,0.04395 1.375,0.09961 0.113912,0.06575 0.209641,0.161479 0.275391,0.275391 0.05565,0.09639 0.09961,0.440401 0.09961,1.375 v 3 a 0.75,0.75 0 0 0 0.75,0.75 0.75,0.75 0 0 0 0.75,-0.75 v -3 c 0,-0.934599 0.04556,-1.525187 -0.300781,-2.125 C 14.751768,16.032913 14.467087,15.748232 14.125,15.550781 13.525187,15.204437 12.934599,15.25 12,15.25 Z"
     id="path5" />
</svg>
