<?xml version="1.0" encoding="UTF-8" standalone="no"?>
<svg
   width="24"
   height="24"
   viewBox="0 0 24 24"
 
   version="1.1"
   id="svg5"
   xmlns="http://www.w3.org/2000/svg"
   xmlns:svg="http://www.w3.org/2000/svg">
  <defs
     id="defs5" />
  <path
 
     d="m 12,12.25 c -2.0621823,0 -3.75,1.687818 -3.75,3.75 0,2.062182 1.6878177,3.75 3.75,3.75 2.062182,0 3.75,-1.687818 3.75,-3.75 0,-2.062182 -1.687818,-3.75 -3.75,-3.75 z m 0,1.5 c 1.251523,0 2.25,0.998477 2.25,2.25 0,1.251523 -0.998477,2.25 -2.25,2.25 -1.251523,0 -2.25,-0.998477 -2.25,-2.25 0,-1.251523 0.998477,-2.25 2.25,-2.25 z"
     id="circle1" />
  <path
 
     d="M 8.5839844,15.429688 7.5488281,16.464844 6.0761719,17.875 c -0.3240435,0.310675 -0.5359924,0.430511 -0.7128907,0.845703 -0.2666899,0.625762 -0.018229,1.397173 0.5800782,1.736328 0.3997422,0.226591 0.6391189,0.185779 1.078125,0.228516 0.248867,0.02442 0.3255177,0.04199 0.3007812,0.0332 0.036419,0.01292 0.044576,0.0269 0.050781,0.04297 -0.013828,-0.0358 0.00585,0.02918 0.03125,0.267578 0.04499,0.4223 7.168e-4,0.663599 0.2480468,1.064453 0.3656477,0.592888 1.1108903,0.796992 1.7343751,0.552734 0.4070538,-0.159594 0.5450391,-0.365051 0.8691405,-0.675781 l 2.263672,-2.16992 -1.039062,-1.082031 -2.261719,2.169922 c -0.2573463,0.246729 -0.3078562,0.275635 -0.3007812,0.287109 0.00613,-0.02213 0.010046,-0.01068 -0.021484,-0.30664 -0.0254,-0.2384 -0.032119,-0.411086 -0.1230469,-0.646485 -0.1663944,-0.430928 -0.5193783,-0.765488 -0.9492188,-0.917969 -0.2329962,-0.08279 -0.4077774,-0.0889 -0.65625,-0.113281 -0.252074,-0.02467 -0.204022,-0.0097 -0.2773437,-0.02148 0.048954,-0.05155 0.029282,-0.02367 0.2246094,-0.210938 l 1.4824219,-1.423828 1.046875,-1.044922 z"
     id="path1" />
  <path
 
     d="m 15.53125,15.542969 -1.0625,1.060547 0.933594,0.93164 1.482422,1.423828 c 0.194961,0.186959 0.173564,0.159182 0.222656,0.210938 -0.07475,0.01227 -0.02599,-0.003 -0.275391,0.02148 -0.248808,0.02431 -0.423804,0.03074 -0.65625,0.113281 -0.42985,0.152504 -0.782764,0.485431 -0.949218,0.916016 v 0.002 c -0.09074,0.235224 -0.09765,0.408085 -0.123047,0.646485 -0.03154,0.295888 -0.02755,0.284398 -0.02149,0.30664 0.0074,-0.01136 -0.04349,-0.04038 -0.300781,-0.287109 l -2.261719,-2.169922 -1.039062,1.082031 2.263672,2.169922 c 0.324026,0.310725 0.461337,0.516167 0.86914,0.675781 0.623324,0.244187 1.368708,0.04011 1.734375,-0.552734 0.247002,-0.400607 0.203047,-0.642254 0.248047,-1.064453 0.0254,-0.2384 0.04499,-0.303203 0.03125,-0.267578 0.0063,-0.01641 0.01443,-0.03007 0.05078,-0.04297 -0.02405,0.0085 0.05024,-0.0089 0.298828,-0.0332 h 0.002 c 0.440287,-0.04319 0.677482,-0.0015 1.078125,-0.228516 0.598452,-0.339237 0.846933,-1.110534 0.580078,-1.736328 C 18.45978,18.304896 18.247743,18.185619 17.923828,17.875 l -1.472656,-1.410156 z"
     id="path2" />
  <path
 
     d="M 8,1.25 C 6.5857864,1.25 5.5093262,1.2459295 4.6074219,1.3671875 3.7055175,1.4884455 2.9292542,1.7660583 2.3476563,2.3476563 1.7660583,2.9292542 1.4884455,3.7055175 1.3671875,4.6074219 1.2459295,5.5093262 1.25,6.5857864 1.25,8 v 4 c 0,1.414199 -0.00407,2.490678 0.1171875,3.392578 0.1212581,0.901901 0.3988767,1.67816 0.9804688,2.259766 0.508585,0.508598 1.17424,0.791266 1.9277343,0.929687 0.7534944,0.138422 1.6228511,0.159908 2.7207031,0.166016 l 0.00781,-1.5 C 5.9267305,17.242054 5.1181868,17.210422 4.546875,17.105469 3.9755632,17.000515 3.6679974,16.851598 3.4082031,16.591797 3.111116,16.294703 2.9519274,15.923379 2.8535156,15.191406 2.7551039,14.459433 2.75,13.414199 2.75,12 V 8 C 2.75,6.5857864 2.7551,5.5405702 2.8535156,4.8085937 2.9519274,4.0766173 3.1111219,3.7052843 3.4082031,3.4082031 3.7052843,3.1111219 4.0766173,2.9519274 4.8085937,2.8535156 5.5405702,2.7551039 6.5857864,2.75 8,2.75 h 8 c 1.414199,0 2.459433,0.0051 3.191406,0.1035156 0.731973,0.098412 1.103297,0.2576004 1.400391,0.5546875 0.297089,0.2970829 0.456274,0.668416 0.554687,1.4003906 C 21.244898,5.5405684 21.25,6.5857864 21.25,8 v 4 c 0,1.414199 -0.0051,2.459435 -0.103516,3.191406 -0.09841,0.731971 -0.257592,1.103295 -0.554687,1.400391 -0.246724,0.246757 -0.534407,0.392101 -1.054688,0.498047 -0.52028,0.105946 -1.252597,0.14595 -2.224609,0.15625 l 0.01563,1.5 c 1.000386,-0.0106 1.802844,-0.04395 2.507812,-0.1875 0.704969,-0.143554 1.333331,-0.423108 1.816407,-0.90625 0.581603,-0.581604 0.859207,-1.357863 0.980468,-2.259766 C 22.754074,14.490676 22.75,13.414199 22.75,12 V 8 C 22.75,6.5857864 22.7541,5.5093281 22.632812,4.6074219 22.511551,3.7055157 22.233953,2.9292525 21.652344,2.3476563 21.070738,1.7660642 20.294479,1.4884456 19.392578,1.3671875 18.490678,1.2459294 17.414199,1.25 16,1.25 Z"
     id="path3" />
  <path
   
     d="M 9,5.25 A 0.75,0.75 0 0 0 8.25,6 0.75,0.75 0 0 0 9,6.75 h 6 A 0.75,0.75 0 0 0 15.75,6 0.75,0.75 0 0 0 15,5.25 Z"
     id="path4" />
  <path
   
     d="M 7,8.75 A 0.75,0.75 0 0 0 6.25,9.5 0.75,0.75 0 0 0 7,10.25 H 17 A 0.75,0.75 0 0 0 17.75,9.5 0.75,0.75 0 0 0 17,8.75 Z"
     id="path5" />
</svg>
