<?xml version="1.0" encoding="UTF-8" standalone="no"?>
<svg
   width="24"
   height="24"
   viewBox="0 0 24 24"

   version="1.1"
   id="svg2"
   xmlns="http://www.w3.org/2000/svg"
   xmlns:svg="http://www.w3.org/2000/svg">
  <defs
     id="defs2" />
  <path
   
     d="M 3.25,5 V 5.25 6 19 c 0,2.062218 1.6878347,3.75 3.75,3.75 h 10 c 2.062203,0 3.75,-1.687797 3.75,-3.75 V 9 C 20.75,6.9378347 19.062218,5.25 17,5.25 H 4.75 V 5 Z m 1.5,1.75 H 17 c 1.251579,0 2.25,0.9984686 2.25,2.25 v 10 c 0,1.251594 -0.998406,2.25 -2.25,2.25 H 7 C 5.7484686,21.25 4.75,20.251579 4.75,19 Z"
     id="path1" />
  <path
   
     d="m 12,10.25 c -2.0621823,0 -3.75,1.687818 -3.75,3.75 0,2.062182 1.6878177,3.75 3.75,3.75 2.062182,0 3.75,-1.687818 3.75,-3.75 0,-2.062182 -1.687818,-3.75 -3.75,-3.75 z m 0,1.5 c 1.251523,0 2.25,0.998477 2.25,2.25 0,1.251523 -0.998477,2.25 -2.25,2.25 -1.251523,0 -2.25,-0.998477 -2.25,-2.25 0,-1.251523 0.998477,-2.25 2.25,-2.25 z"
     id="circle1" />
  <path
     d="m 18,6.00002 v 0.75 h 0.75 v -0.75 z M 15.7172,2.32614 15.6111,1.58368 v 0 z M 4.91959,3.86865 4.81353,3.12619 v 0 z M 5.07107,6.75002 H 18 v -1.5 H 5.07107 Z M 18.75,6.00002 V 4.30604 h -1.5 V 6.00002 Z M 15.6111,1.58368 4.81353,3.12619 5.02566,4.61111 15.8232,3.0686 Z M 4.81353,3.12619 C 3.91638,3.25435 3.25,4.0227 3.25,4.92895 h 1.5 C 4.75,4.76917 4.86749,4.63371 5.02566,4.61111 Z M 18.75,4.30604 c 0,-1.67351 -1.4822,-2.95903 -3.1389,-2.72236 L 15.8232,3.0686 C 16.5763,2.96103 17.25,3.54535 17.25,4.30604 Z M 5.07107,5.25002 C 4.89375,5.25002 4.75,5.10627 4.75,4.92895 h -1.5 c 0,1.00575 0.81532,1.82107 1.82107,1.82107 z"
   
     id="path2" />
</svg>
