<?xml version="1.0" encoding="UTF-8" standalone="no"?>
<svg
   width="24"
   height="24"
   viewBox="0 0 24 24"

   version="1.1"
   id="svg7"
   xmlns="http://www.w3.org/2000/svg"
   xmlns:svg="http://www.w3.org/2000/svg">
  <defs
     id="defs7" />
  <path
   
     d="M 9,1.25 C 7.5857864,1.25 6.5093262,1.2459295 5.6074219,1.3671875 4.7055175,1.4884455 3.9292542,1.7660583 3.3476563,2.3476563 2.7660583,2.9292542 2.4884455,3.7055175 2.3671875,4.6074219 2.2459295,5.5093262 2.25,6.5857864 2.25,8 v 8 c 0,1.414199 -0.00407,2.490678 0.1171875,3.392578 0.1212581,0.901901 0.3988767,1.67816 0.9804688,2.259766 0.5815962,0.581609 1.3578594,0.859207 2.2597656,0.980468 C 6.5093281,22.754074 7.5857864,22.75 9,22.75 h 6 c 1.414199,0 2.490676,0.0041 3.392578,-0.117188 0.901903,-0.121261 1.678162,-0.398865 2.259766,-0.980468 0.581603,-0.581604 0.859207,-1.357863 0.980468,-2.259766 C 21.754074,18.490676 21.75,17.414199 21.75,16 V 8 C 21.75,6.5857864 21.7541,5.5093281 21.632812,4.6074219 21.511551,3.7055157 21.233953,2.9292525 20.652344,2.3476563 20.070738,1.7660642 19.294479,1.4884456 18.392578,1.3671875 17.490678,1.2459294 16.414199,1.25 15,1.25 Z m 0,1.5 h 6 c 1.414199,0 2.459433,0.0051 3.191406,0.1035156 0.731973,0.098412 1.103297,0.2576004 1.400391,0.5546875 0.297089,0.2970829 0.456274,0.668416 0.554687,1.4003906 C 20.244898,5.5405684 20.25,6.5857864 20.25,8 v 8 c 0,1.414199 -0.0051,2.459435 -0.103516,3.191406 -0.09841,0.731971 -0.257592,1.103295 -0.554687,1.400391 -0.297096,0.297095 -0.66842,0.456274 -1.400391,0.554687 C 17.459435,21.244898 16.414199,21.25 15,21.25 H 9 C 7.5857864,21.25 6.5405684,21.2449 5.8085937,21.146484 5.0766191,21.048071 4.705286,20.888886 4.4082031,20.591797 4.111116,20.294703 3.9519274,19.923379 3.8535156,19.191406 3.7551039,18.459433 3.75,17.414199 3.75,16 V 8 C 3.75,6.5857864 3.7551,5.5405702 3.8535156,4.8085937 3.9519274,4.0766173 4.1111219,3.7052843 4.4082031,3.4082031 4.7052843,3.1111219 5.0766173,2.9519274 5.8085937,2.8535156 6.5405702,2.7551039 7.5857864,2.75 9,2.75 Z"
     id="path1" />
  <path
  
     d="M 8,1.75 A 0.75,0.75 0 0 0 7.25,2.5 V 22 A 0.75,0.75 0 0 0 8,22.75 0.75,0.75 0 0 0 8.75,22 V 2.5 A 0.75,0.75 0 0 0 8,1.75 Z"
     id="path2" />
  <path
  
     d="M 2,11.25 A 0.75,0.75 0 0 0 1.25,12 0.75,0.75 0 0 0 2,12.75 H 4 A 0.75,0.75 0 0 0 4.75,12 0.75,0.75 0 0 0 4,11.25 Z"
     id="path3" />
  <path
  
     d="M 2,15.25 A 0.75,0.75 0 0 0 1.25,16 0.75,0.75 0 0 0 2,16.75 H 4 A 0.75,0.75 0 0 0 4.75,16 0.75,0.75 0 0 0 4,15.25 Z"
     id="path4" />
  <path
  
     d="M 2,7.25 A 0.75,0.75 0 0 0 1.25,8 0.75,0.75 0 0 0 2,8.75 H 4 A 0.75,0.75 0 0 0 4.75,8 0.75,0.75 0 0 0 4,7.25 Z"
     id="path5" />
  <path
  
     d="M 11.5,5.75 A 0.75,0.75 0 0 0 10.75,6.5 0.75,0.75 0 0 0 11.5,7.25 h 5 A 0.75,0.75 0 0 0 17.25,6.5 0.75,0.75 0 0 0 16.5,5.75 Z"
     id="path6" />
  <path
  
     d="M 11.5,9.25 A 0.75,0.75 0 0 0 10.75,10 0.75,0.75 0 0 0 11.5,10.75 h 5 A 0.75,0.75 0 0 0 17.25,10 0.75,0.75 0 0 0 16.5,9.25 Z"
     id="path7" />
</svg>
