<?xml version="1.0" encoding="UTF-8" standalone="no"?>
<svg
   width="24"
   height="24"
   viewBox="0 0 24 24"
 
   version="1.1"
   id="svg2"
   xmlns="http://www.w3.org/2000/svg"
   xmlns:svg="http://www.w3.org/2000/svg">
  <defs
     id="defs2" />
  <path
     d="M 21.0672,11.8568 20.4253,11.469 v 0 z M 15.5,14.25 c -0.4142,0 -0.75,0.3358 -0.75,0.75 0,0.4142 0.3358,0.75 0.75,0.75 z M 8.25,8.5 C 8.25,8.91421 8.58579,9.25 9,9.25 9.41421,9.25 9.75,8.91421 9.75,8.5 Z M 12.1432,2.93276 11.7553,2.29085 v 0 z M 1.74227,15.2247 c 0.12411,0.3952 0.54509,0.615 0.94027,0.4908 0.39518,-0.1241 0.61492,-0.5451 0.4908,-0.9402 z M 16.6245,20.013 c -0.3586,0.2074 -0.4811,0.6662 -0.2737,1.0247 0.2074,0.3586 0.6662,0.4811 1.0247,0.2737 z M 2.75,12 C 2.75,6.89137 6.89137,2.75 12,2.75 V 1.25 C 6.06294,1.25 1.25,6.06294 1.25,12 Z M 20.4253,11.469 C 19.4172,13.1373 17.5882,14.25 15.5,14.25 v 1.5 c 2.6349,0 4.9407,-1.4061 6.2092,-3.5053 z M 9.75,8.5 c 0,-2.08818 1.1127,-3.9172 2.781,-4.92533 L 11.7553,2.29085 C 9.65609,3.5593 8.25,5.86509 8.25,8.5 Z M 3.17334,14.7753 C 2.89847,13.9001 2.75,12.9681 2.75,12 h -1.5 c 0,1.1223 0.17224,2.2058 0.49227,3.2247 z M 21.25,12 c 0,3.4229 -1.8588,6.4125 -4.6255,8.013 l 0.751,1.2984 C 20.5868,19.4538 22.75,15.98 22.75,12 Z M 12,2.75 C 11.9115,2.75 11.8077,2.71008 11.7324,2.63168 11.6686,2.56527 11.6538,2.50244 11.6503,2.47703 11.6461,2.44587 11.6482,2.35557 11.7553,2.29085 L 12.531,3.57467 C 13.0342,3.27065 13.196,2.71398 13.1368,2.27627 13.0754,1.82126 12.7166,1.25 12,1.25 Z m 9.7091,9.4947 c -0.0647,0.1071 -0.155,0.1092 -0.1861,0.105 C 21.4976,12.3462 21.4347,12.3314 21.3683,12.2676 21.2899,12.1923 21.25,12.0885 21.25,12 h 1.5 c 0,-0.7166 -0.5713,-1.0754 -1.0263,-1.1368 -0.4377,-0.0592 -0.9944,0.1026 -1.2984,0.6058 z"

     id="path1" />
  <path
  
     d="m 8.8085938,11.25 c -2.4365005,0 -4.4628907,1.903529 -4.4628907,4.279297 0,0.173261 0.07075,0.325719 0.091797,0.49414 C 2.6786946,16.199281 1.25,17.585483 1.25,19.353516 1.25,21.242056 2.8615103,22.75 4.7851562,22.75 h 6.4999998 c 2.436549,0 4.464844,-1.90354 4.464844,-4.279297 0,-1.706737 -1.11931,-3.075631 -2.611328,-3.761719 C 12.7278,12.732261 10.950581,11.25 8.8085938,11.25 Z m 0,1.5 c 1.10084,0 1.8833022,0.643874 2.3945312,1.455078 -0.484974,0.0088 -0.956814,0.07953 -1.3945312,0.226563 a 0.75,0.75 0 0 0 -0.4726563,0.949218 0.75,0.75 0 0 0 0.9511715,0.472657 c 0.311117,-0.104509 0.64538,-0.16211 0.998047,-0.16211 0.345713,0 0.674573,0.05565 0.980469,0.15625 C 13.434462,16.231912 14.25,17.263884 14.25,18.470703 14.25,19.993342 12.951403,21.25 11.285156,21.25 H 4.7851562 C 3.6318053,21.25 2.75,20.388972 2.75,19.353516 c 0,-1.035328 0.8818053,-1.898438 2.0351562,-1.898438 0.1383836,0 0.2725737,0.01296 0.4023438,0.03711 0.2720883,0.0508 0.5243518,0.15321 0.7441406,0.292969 A 0.75,0.75 0 0 0 6.9667969,17.554687 0.75,0.75 0 0 0 6.7363281,16.519531 C 6.5089669,16.374957 6.2341043,16.310188 5.9746094,16.21875 5.9124487,15.995023 5.8457031,15.772909 5.8457031,15.529297 5.8457031,14.006668 7.1424183,12.75 8.8085938,12.75 Z"
     id="path2" />
</svg>
