<?xml version="1.0" encoding="UTF-8" standalone="no"?>
<svg
   width="24"
   height="24"
   viewBox="0 0 24 24"
 
   version="1.1"
   id="svg2"
   xmlns="http://www.w3.org/2000/svg"
   xmlns:svg="http://www.w3.org/2000/svg">
  <defs
     id="defs2" />
  <path
  
     d="m 12.476563,1.25 c -3.5564768,0 -6.4648443,2.867542 -6.4648443,6.3964844 0,0.4018958 0.1350124,0.7640408 0.2070313,1.1464844 C 3.4833599,8.8305698 1.25,11.039765 1.25,13.765625 1.25,16.514876 3.517668,18.75 6.2851562,18.75 a 0.75,0.75 0 0 0 0.75,-0.75 0.75,0.75 0 0 0 -0.75,-0.75 C 4.3187893,17.25 2.75,15.69457 2.75,13.765625 c 0,-1.928945 1.5687872,-3.486328 3.5351562,-3.486328 0.2360415,0 0.4656192,0.02335 0.6875,0.06641 0.4662062,0.09046 0.8984237,0.269545 1.2792969,0.521485 A 0.75,0.75 0 0 0 9.2929688,10.65625 0.75,0.75 0 0 0 9.0800781,9.6171875 C 8.6904892,9.3594824 8.2277187,9.2249632 7.7714844,9.0820313 7.6279493,8.6245982 7.5117188,8.1526547 7.5117187,7.6464844 7.5117188,4.9378529 9.7212052,2.75 12.476563,2.75 c 2.187963,0 3.956355,1.4176036 4.623046,3.3398437 -0.275266,-0.035403 -0.530109,-0.1347656 -0.814453,-0.1347656 -0.752665,0 -1.478446,0.127864 -2.152343,0.3632813 a 0.75,0.75 0 0 0 -0.458985,0.9570312 0.75,0.75 0 0 0 0.955078,0.4589844 c 0.517501,-0.1807823 1.073117,-0.2792969 1.65625,-0.2792969 0.571608,0 1.117973,0.095498 1.626953,0.2695313 C 19.856375,8.3894598 21.25,10.206818 21.25,12.353516 a 0.75,0.75 0 0 0 0.75,0.75 0.75,0.75 0 0 0 0.75,-0.75 C 22.75,9.7042512 21.091551,7.4669972 18.767578,6.4980469 18.208306,3.523645 15.629018,1.25 12.476563,1.25 Z"
     id="path1" />
  <path
  
     d="m 15.808594,11.25 c -2.436468,0 -4.462891,1.903514 -4.462891,4.279297 0,0.17328 0.07074,0.325714 0.0918,0.49414 C 9.6786958,16.199282 8.25,17.585486 8.25,19.353516 8.25,21.242053 9.8615103,22.75 11.785156,22.75 h 6.5 c 2.436549,0 4.464844,-1.90354 4.464844,-4.279297 0,-1.706737 -1.11931,-3.075631 -2.611328,-3.761719 C 19.7278,12.732261 17.950596,11.25 15.808594,11.25 Z m 0,1.5 c 1.100857,0 1.883302,0.643874 2.394531,1.455078 -0.484974,0.0088 -0.956814,0.07953 -1.394531,0.226563 a 0.75,0.75 0 0 0 -0.472657,0.949218 0.75,0.75 0 0 0 0.951172,0.472657 c 0.311117,-0.104509 0.64538,-0.16211 0.998047,-0.16211 0.345713,0 0.674573,0.05565 0.980469,0.15625 C 20.434462,16.231912 21.25,17.263884 21.25,18.470703 21.25,19.993342 19.951403,21.25 18.285156,21.25 h -6.5 C 10.631805,21.25 9.75,20.388976 9.75,19.353516 c 0,-1.035331 0.881805,-1.898438 2.035156,-1.898438 0.138409,0 0.272637,0.01297 0.402344,0.03711 0.272096,0.0508 0.52432,0.15319 0.744141,0.292969 a 0.75,0.75 0 0 0 1.035156,-0.230469 0.75,0.75 0 0 0 -0.230469,-1.035156 c -0.227342,-0.144562 -0.502226,-0.209339 -0.761719,-0.300781 -0.06217,-0.22375 -0.128906,-0.445883 -0.128906,-0.689453 0,-1.522613 1.296763,-2.779297 2.962891,-2.779298 z"
     id="path2" />
</svg>
