<?xml version="1.0" encoding="UTF-8" standalone="no"?>
<svg
   width="24"
   height="24"
   viewBox="0 0 24 24"
 
   version="1.1"
   id="svg6"
   xmlns="http://www.w3.org/2000/svg"
   xmlns:svg="http://www.w3.org/2000/svg">
  <defs
     id="defs6" />
  <path
    
     d="M 8,21.25 A 0.75,0.75 0 0 0 7.25,22 0.75,0.75 0 0 0 8,22.75 h 8 A 0.75,0.75 0 0 0 16.75,22 0.75,0.75 0 0 0 16,21.25 Z"
     id="path1" />
  <path
    
     d="M 5,18.25 A 0.75,0.75 0 0 0 4.25,19 0.75,0.75 0 0 0 5,19.75 H 19 A 0.75,0.75 0 0 0 19.75,19 0.75,0.75 0 0 0 19,18.25 Z"
     id="path2" />
  <path
    
     d="M 2,15.25 A 0.75,0.75 0 0 0 1.25,16 0.75,0.75 0 0 0 2,16.75 H 22 A 0.75,0.75 0 0 0 22.75,16 0.75,0.75 0 0 0 22,15.25 Z"
     id="path3" />
  <path
     d="M 21.0672,11.8568 20.4253,11.469 v 0 z M 12.1432,2.93276 11.7553,2.29085 v 0 z M 2.75,12 C 2.75,6.89137 6.89137,2.75 12,2.75 V 1.25 C 6.06294,1.25 1.25,6.06294 1.25,12 Z m 12.75,2.25 c -3.1756,0 -5.75,-2.5744 -5.75,-5.75 h -1.5 c 0,4.0041 3.2459,7.25 7.25,7.25 z m 4.9253,-2.781 C 19.4172,13.1373 17.5882,14.25 15.5,14.25 v 1.5 c 2.6349,0 4.9407,-1.4061 6.2092,-3.5053 z M 9.75,8.5 c 0,-2.08818 1.1127,-3.9172 2.781,-4.92533 L 11.7553,2.29085 C 9.65609,3.5593 8.25,5.86509 8.25,8.5 Z m 11.5,3.5 c 0,1.3169 -0.2748,2.5677 -0.7694,3.6997 l 1.3746,0.6006 C 22.431,14.9824 22.75,13.5275 22.75,12 Z M 3.51935,15.6997 C 3.02475,14.5677 2.75,13.3169 2.75,12 h -1.5 c 0,1.5275 0.31904,2.9824 0.89482,4.3003 z M 12,2.75 C 11.9115,2.75 11.8077,2.71008 11.7324,2.63168 11.6686,2.56527 11.6538,2.50244 11.6503,2.47703 11.6461,2.44587 11.6482,2.35557 11.7553,2.29085 L 12.531,3.57467 C 13.0342,3.27065 13.196,2.71398 13.1368,2.27627 13.0754,1.82126 12.7166,1.25 12,1.25 Z m 9.7091,9.4947 c -0.0647,0.1071 -0.155,0.1092 -0.1861,0.105 C 21.4976,12.3462 21.4347,12.3314 21.3683,12.2676 21.2899,12.1923 21.25,12.0885 21.25,12 h 1.5 c 0,-0.7166 -0.5713,-1.0754 -1.0263,-1.1368 -0.4377,-0.0592 -0.9944,0.1026 -1.2984,0.6058 z"

     id="path4" />
  <path
    
     d="m 19.451172,1.5 c -0.3695,0 -0.761119,0.2306924 -0.916016,0.625 l -0.427734,1.0878906 -1.083985,0.4296875 c -0.394347,0.1560961 -0.623046,0.5471848 -0.623046,0.9160156 0,0.3688309 0.228699,0.7599196 0.623046,0.9160157 l 1.085938,0.4316406 0.425781,1.0878906 c 0.154897,0.3943076 0.546519,0.6249975 0.916016,0.625 0.369497,2.5e-6 0.759163,-0.2306946 0.914062,-0.625 L 20.791016,5.90625 21.878906,5.4746094 C 22.273253,5.3185133 22.5,4.9274246 22.5,4.5585937 22.5,4.1897629 22.273253,3.7986742 21.878906,3.6425781 L 20.792969,3.2128906 20.365234,2.125 C 20.210338,1.7306924 19.820671,1.5 19.451172,1.5 Z m 0,1.0292969 0.414062,1.0566406 c 0.09952,0.2534602 0.299187,0.4543266 0.552735,0.5546875 l 1.05664,0.4179687 -1.05664,0.4199219 C 20.164443,5.078868 19.964757,5.2797345 19.865234,5.5332031 L 19.451172,6.5898437 19.035156,5.5332031 C 18.935634,5.2797345 18.735948,5.078868 18.482422,4.9785156 L 17.425781,4.5585937 18.482422,4.140625 c 0.253547,-0.1003609 0.453215,-0.3012273 0.552734,-0.5546875 z"
     id="path5" />
  <path
    
     d="m 15.583984,7.3222656 c -0.369494,0 -0.761051,0.2307747 -0.916015,0.625 L 14.513672,8.3398438 14.123047,8.4941406 C 13.7287,8.6502367 13.5,9.0432785 13.5,9.4121094 c 0,0.3688308 0.2287,0.7599196 0.623047,0.9160156 l 0.390625,0.154297 0.154297,0.392578 c 0.154958,0.39423 0.546511,0.625 0.916015,0.625 0.369504,0 0.759104,-0.23077 0.914063,-0.625 l 0.154297,-0.392578 0.390625,-0.154297 c 0.394347,-0.156096 0.623047,-0.5471848 0.623047,-0.9160156 0,-0.3688309 -0.2287,-0.7618727 -0.623047,-0.9179688 L 16.652344,8.3398438 16.498047,7.9472656 c -0.154964,-0.3942253 -0.544568,-0.625 -0.914063,-0.625 z m 0,1.0292969 0.140625,0.359375 c 0.09952,0.2534686 0.299209,0.4562883 0.552735,0.5566406 l 0.365234,0.1425782 -0.365234,0.1445312 c -0.253625,0.1003506 -0.453238,0.3031363 -0.552735,0.5566405 l -0.140625,0.359375 -0.142578,-0.359375 C 15.341909,9.8578238 15.142296,9.6550381 14.888672,9.5546875 L 14.523438,9.4101563 14.888672,9.2675781 c 0.253526,-0.1003523 0.453212,-0.303172 0.552734,-0.5566406 z"
     id="path6" />
</svg>
