<?xml version="1.0" encoding="UTF-8" standalone="no"?>
<svg
   width="24"
   height="24"
   viewBox="0 0 24 24"
  
   version="1.1"
   id="svg2"
   xmlns="http://www.w3.org/2000/svg"
   xmlns:svg="http://www.w3.org/2000/svg">
  <defs
     id="defs2" />
  <path
     d="m 5.50506,11.4096 0.53033,0.5303 v 0 z M 3,14.9522 H 2.25 Z M 9.04776,21 v 0.75 z M 11.4096,5.50506 10.8792,4.97473 v 0 z M 13.241,17.8444 c 0.2929,0.2929 0.7678,0.2929 1.0607,0 0.2929,-0.2929 0.2929,-0.7678 0,-1.0607 z M 7.21629,9.69832 c -0.29289,-0.29289 -0.76777,-0.29289 -1.06066,0 -0.29289,0.2929 -0.29289,0.76778 0,1.06068 z m 10.74831,2.36178 -5.9045,5.9045 1.0607,1.0607 5.9045,-5.9045 z M 6.03539,11.9399 11.9399,6.03539 10.8792,4.97473 4.97473,10.8792 Z m 0,6.0247 C 5.18538,17.1146 4.60235,16.5293 4.22253,16.0315 3.85592,15.551 3.75,15.2411 3.75,14.9522 h -1.5 c 0,0.7488 0.31159,1.3752 0.78,1.9892 0.45521,0.5966 1.1247,1.2638 1.94473,2.0839 z M 4.97473,10.8792 C 4.1547,11.6992 3.48521,12.3665 3.03,12.9631 2.56159,13.577 2.25,14.2035 2.25,14.9522 h 1.5 c 0,-0.2889 0.10592,-0.5987 0.47253,-1.0792 0.37982,-0.4978 0.96285,-1.0831 1.81286,-1.9331 z m 7.08537,7.0854 c -0.85,0.85 -1.4353,1.4331 -1.9331,1.8129 C 9.64651,20.1441 9.33665,20.25 9.04776,20.25 v 1.5 c 0.74873,0 1.37524,-0.3116 1.98914,-0.78 0.5966,-0.4552 1.2639,-1.1247 2.0839,-1.9447 z m -7.08537,1.0607 c 0.82003,0.82 1.48728,1.4895 2.0839,1.9447 0.61393,0.4684 1.24039,0.78 1.98913,0.78 v -1.5 C 8.75886,20.25 8.449,20.1441 7.9685,19.7775 7.47069,19.3977 6.88541,18.8146 6.03539,17.9646 Z M 17.9646,6.03539 c 0.85,0.85002 1.4331,1.4353 1.8129,1.93311 0.3666,0.4805 0.4725,0.79036 0.4725,1.07926 h 1.5 c 0,-0.74874 -0.3116,-1.3752 -0.78,-1.98913 -0.4552,-0.59662 -1.1247,-1.26387 -1.9447,-2.0839 z m 1.0607,7.08541 c 0.82,-0.82 1.4895,-1.4873 1.9447,-2.0839 0.4684,-0.6139 0.78,-1.24041 0.78,-1.98914 h -1.5 c 0,0.28889 -0.1059,0.59875 -0.4725,1.07924 -0.3798,0.4978 -0.9629,1.0831 -1.8129,1.9331 z m 0,-8.14607 C 18.2052,4.1547 17.538,3.48521 16.9414,3.03 16.3274,2.56159 15.701,2.25 14.9522,2.25 v 1.5 c 0.2889,0 0.5988,0.10592 1.0793,0.47253 0.4978,0.37982 1.0831,0.96285 1.9331,1.81286 z M 11.9399,6.03539 C 12.7899,5.18538 13.3752,4.60235 13.873,4.22253 14.3535,3.85592 14.6633,3.75 14.9522,3.75 v -1.5 c -0.7487,0 -1.3752,0.31159 -1.9891,0.78 -0.5966,0.45521 -1.2639,1.1247 -2.0839,1.94473 z M 14.3017,16.7837 7.21629,9.69832 6.15563,10.759 13.241,17.8444 Z"
     
     id="path1" />
  <path
 
     d="M 9,20.25 A 0.75,0.75 0 0 0 8.25,21 0.75,0.75 0 0 0 9,21.75 H 21 A 0.75,0.75 0 0 0 21.75,21 0.75,0.75 0 0 0 21,20.25 Z"
     id="path2" />
</svg>
