<?xml version="1.0" encoding="UTF-8" standalone="no"?>
<svg
   width="24"
   height="24"
   viewBox="0 0 24 24"
  
   version="1.1"
   id="svg10"
   xmlns="http://www.w3.org/2000/svg"
   xmlns:svg="http://www.w3.org/2000/svg">
  <defs
     id="defs10" />
  <path
     
     d="M 9,8.25 A 0.75,0.75 0 0 0 8.25,9 0.75,0.75 0 0 0 9,9.75 h 6 A 0.75,0.75 0 0 0 15.75,9 0.75,0.75 0 0 0 15,8.25 Z"
     id="path1" />
  <path
     
     d="M 12,8.25 A 0.75,0.75 0 0 0 11.25,9 v 6 A 0.75,0.75 0 0 0 12,15.75 0.75,0.75 0 0 0 12.75,15 V 9 A 0.75,0.75 0 0 0 12,8.25 Z"
     id="path2" />
  <path
     
     d="M 4,1.25 C 2.4901018,1.25 1.25,2.4901018 1.25,4 1.25,5.5098982 2.4901018,6.75 4,6.75 5.5098982,6.75 6.75,5.5098982 6.75,4 6.75,2.4901018 5.5098982,1.25 4,1.25 Z m 0,1.5 C 4.6992396,2.75 5.25,3.3007604 5.25,4 5.25,4.6992396 4.6992396,5.25 4,5.25 3.3007604,5.25 2.75,4.6992396 2.75,4 2.75,3.3007604 3.3007604,2.75 4,2.75 Z"
     id="path3" />
  <path
     
     d="m 4,17.25 c -1.5098846,0 -2.75,1.240083 -2.75,2.75 0,1.509917 1.2401154,2.75 2.75,2.75 1.5098846,0 2.75,-1.240083 2.75,-2.75 0,-1.509917 -1.2401154,-2.75 -2.75,-2.75 z m 0,1.5 c 0.6992532,0 1.25,0.550719 1.25,1.25 0,0.699281 -0.5507468,1.25 -1.25,1.25 -0.6992532,0 -1.25,-0.550719 -1.25,-1.25 0,-0.699281 0.5507468,-1.25 1.25,-1.25 z"
     id="path4" />
  <path
     
     d="m 20,1.25 c -1.509917,0 -2.75,1.2401154 -2.75,2.75 0,1.5098846 1.240083,2.75 2.75,2.75 1.509917,0 2.75,-1.2401154 2.75,-2.75 0,-1.5098846 -1.240083,-2.75 -2.75,-2.75 z m 0,1.5 c 0.699281,0 1.25,0.5507468 1.25,1.25 0,0.6992532 -0.550719,1.25 -1.25,1.25 -0.699281,0 -1.25,-0.5507468 -1.25,-1.25 0,-0.6992532 0.550719,-1.25 1.25,-1.25 z"
     id="path5" />
  <path
     
     d="m 20,17.25 c -1.509904,0 -2.75,1.240096 -2.75,2.75 0,1.509904 1.240096,2.75 2.75,2.75 1.509904,0 2.75,-1.240096 2.75,-2.75 0,-1.509904 -1.240096,-2.75 -2.75,-2.75 z m 0,1.5 c 0.699294,0 1.25,0.550706 1.25,1.25 0,0.699294 -0.550706,1.25 -1.25,1.25 -0.699294,0 -1.25,-0.550706 -1.25,-1.25 0,-0.699294 0.550706,-1.25 1.25,-1.25 z"
     id="path6" />
  <path
     
     d="M 6,19.25 A 0.75,0.75 0 0 0 5.25,20 0.75,0.75 0 0 0 6,20.75 H 18 A 0.75,0.75 0 0 0 18.75,20 0.75,0.75 0 0 0 18,19.25 Z"
     id="path7" />
  <path
     
     d="M 6,3.25 A 0.75,0.75 0 0 0 5.25,4 0.75,0.75 0 0 0 6,4.75 H 18 A 0.75,0.75 0 0 0 18.75,4 0.75,0.75 0 0 0 18,3.25 Z"
     id="path8" />
  <path
     
     d="M 20,5.25 A 0.75,0.75 0 0 0 19.25,6 V 18 A 0.75,0.75 0 0 0 20,18.75 0.75,0.75 0 0 0 20.75,18 V 6 A 0.75,0.75 0 0 0 20,5.25 Z"
     id="path9" />
  <path
     
     d="M 4,5.25 A 0.75,0.75 0 0 0 3.25,6 V 18 A 0.75,0.75 0 0 0 4,18.75 0.75,0.75 0 0 0 4.75,18 V 6 A 0.75,0.75 0 0 0 4,5.25 Z"
     id="path10" />
</svg>
