<?xml version="1.0" encoding="UTF-8" standalone="no"?>
<svg
   width="24"
   height="24"
   viewBox="0 0 24 24"
 
   version="1.1"
   id="svg4"
   xmlns="http://www.w3.org/2000/svg"
   xmlns:svg="http://www.w3.org/2000/svg">
  <defs
     id="defs4" />
  <path
    
     d="M 6.5390625,3.75 C 4.7632649,3.75 3.3927219,5.3797572 3.6992188,7.1289062 L 5.1777344,6.8710937 C 5.0269717,6.0107054 5.6655627,5.25 6.5390625,5.25 H 17.460937 c 0.873567,0 1.514026,0.7606969 1.363282,1.6210937 l 1.476562,0.2578125 C 20.607236,5.3797657 19.236768,3.75 17.460937,3.75 Z"
     id="path5" />
  <path
    
     d="M 8.7402344,1.25 C 8.4795946,1.25 8.3350796,1.2472679 8.1640625,1.265625 6.7709001,1.4151266 5.7039788,2.604709 5.7070312,4.0058594 5.707401,4.1778699 5.7255373,4.322941 5.7539062,4.5820312 L 7.2460937,4.4179687 C 7.2177227,4.1588595 7.2071215,4.0439623 7.2070312,4.0019531 7.2056237,3.3558656 7.6818032,2.8267507 8.3242188,2.7578125 8.3659814,2.7533297 8.4795946,2.75 8.7402344,2.75 h 6.5195316 c 0.260599,0 0.374265,0.00333 0.416015,0.00781 0.642301,0.068932 1.118576,0.5980613 1.117188,1.2441406 -1.19e-4,0.042343 -0.01075,0.1568473 -0.03906,0.4160156 l 1.492188,0.1640625 C 18.274384,4.3230401 18.292487,4.177516 18.292969,4.0058594 18.29598,2.6046807 17.229035,1.4151328 15.835938,1.265625 15.664888,1.2472661 15.520365,1.25 15.259766,1.25 Z"
     id="path6" />
  <path
     
     d="M 9,17.25 A 0.75,0.75 0 0 0 8.25,18 0.75,0.75 0 0 0 9,18.75 h 6 A 0.75,0.75 0 0 0 15.75,18 0.75,0.75 0 0 0 15,17.25 Z"
     id="path7" />
  <path
    
     d="M 8.671875,6.25 C 6.9844717,6.25 5.7055887,6.2454545 4.6582031,6.3847656 3.6108176,6.5240768 2.7359816,6.8389459 2.1113281,7.5136719 1.4866755,8.1883903 1.257703,9.084839 1.25,10.099609 c -0.0077,1.014771 0.1676102,2.21703 0.390625,3.798829 l 0.4238281,2.999999 c 0.1748899,1.24045 0.3031459,2.186471 0.5253907,2.980469 0.2222447,0.793999 0.5720672,1.468123 1.1601562,1.955078 0.5881096,0.486907 1.3169095,0.716472 2.1660156,0.81836 C 6.7651218,22.754232 7.7724294,22.75 9.0957031,22.75 h 5.8085939 c 1.323299,0 2.33057,0.0042 3.179687,-0.09766 0.849118,-0.101888 1.5779,-0.331453 2.166016,-0.81836 0.588104,-0.486962 0.937933,-1.161082 1.160156,-1.955078 0.222223,-0.793996 0.350492,-1.740029 0.525391,-2.980469 l 0.423828,-2.999999 C 22.582375,12.31664 22.757703,11.114374 22.75,10.099609 22.742297,9.0848444 22.513295,8.1883938 21.888672,7.5136719 21.263997,6.8389588 20.389184,6.5240766 19.341797,6.3847656 18.29441,6.2454546 17.015523,6.25 15.328125,6.25 Z m 0,1.5 h 6.65625 c 1.687398,0 2.93942,0.00445 3.816406,0.1210937 0.876986,0.1166463 1.319354,0.3129935 1.642578,0.6621094 0.323177,0.3490971 0.456644,0.7551618 0.462891,1.5781249 0.0062,0.822963 -0.153953,1.994373 -0.376953,3.576172 l -0.421875,3 c -0.174901,1.240458 -0.309402,2.154957 -0.486328,2.787109 -0.176927,0.632153 -0.36278,0.949141 -0.671875,1.205078 -0.309084,0.255894 -0.690191,0.39861 -1.388672,0.482422 -0.698481,0.08381 -1.676701,0.08789 -3,0.08789 H 9.0957031 c -1.3232737,0 -2.3015327,-0.0041 -3,-0.08789 C 5.3972358,21.078297 5.0161107,20.93558 4.7070312,20.679687 4.3979312,20.423743 4.2120986,20.106759 4.0351562,19.474609 3.8582139,18.842459 3.7237179,17.927948 3.5488281,16.6875 l -0.421875,-3 C 2.9039383,12.105701 2.743753,10.934286 2.75,10.111328 2.756247,9.2883704 2.8896942,8.8823037 3.2128906,8.5332031 3.5360862,8.1841001 3.9784862,7.9877399 4.8554687,7.8710937 5.7324513,7.7544476 6.9844717,7.75 8.671875,7.75 Z"
     id="path8" />
</svg>
