<?xml version="1.0" encoding="UTF-8" standalone="no"?>
<svg
   width="24"
   height="24"
   viewBox="0 0 24 24"
 
   version="1.1"
   id="svg3"
   xmlns="http://www.w3.org/2000/svg"
   xmlns:svg="http://www.w3.org/2000/svg">
  <defs
     id="defs3" />
  <path
    
     d="m 8,13.25 c -2.6144761,0 -4.75,2.135566 -4.75,4.75 0,2.614434 2.1355239,4.75 4.75,4.75 2.614443,0 4.75,-2.135557 4.75,-4.75 0,-2.614443 -2.135557,-4.75 -4.75,-4.75 z m 0,1.5 c 1.8037521,0 3.25,1.446248 3.25,3.25 0,1.803752 -1.4462479,3.25 -3.25,3.25 -1.8037995,0 -3.25,-1.446239 -3.25,-3.25 0,-1.803761 1.4462005,-3.25 3.25,-3.25 z"
     id="path1" />
  <path
    
     d="m 11.25,6 v 12 h 1.5 V 6 Z"
     id="path2" />
  <path
     
     d="M 14.318359,2.5058594 C 13.055179,2.3585158 11.847176,3.1050592 11.414063,4.3007812 11.21485,4.8517533 11.25,5.3716303 11.25,6.3417969 c 0,0.4079896 -0.0059,0.6537667 0.04883,0.9394531 0.126906,0.6635823 0.494785,1.2577375 1.03125,1.6679688 0.231047,0.1766503 0.453479,0.2804506 0.81836,0.4628906 l 2.632812,1.3183596 c 0.86862,0.43431 1.317872,0.697634 1.900391,0.765625 1.263185,0.147344 2.471178,-0.599228 2.904296,-1.7949221 C 20.785788,9.1496111 20.75,8.6292922 20.75,7.6582031 20.75,7.2502235 20.755918,7.0044414 20.701172,6.71875 20.574266,6.0551677 20.206377,5.4629719 19.669922,5.0527344 19.438888,4.8761089 19.216438,4.7703382 18.851562,4.5878906 L 16.21875,3.2714844 C 15.350151,2.8372048 14.900973,2.5738282 14.318359,2.5058594 Z m -0.173828,1.4882812 c 0.114785,0.013391 0.535698,0.1848611 1.404297,0.6191406 l 2.632813,1.3164063 c 0.364924,0.1824721 0.507759,0.2606588 0.578125,0.3144531 0.244144,0.1867019 0.411056,0.4561358 0.46875,0.7578125 0.01665,0.086908 0.02148,0.2482704 0.02148,0.65625 0,0.9710891 -0.03487,1.4226515 -0.07422,1.53125 C 18.9769,9.738497 18.435481,10.073515 17.855469,10.005859 17.740588,9.9924505 17.31975,9.8229611 16.451172,9.3886719 L 13.818359,8.0703125 C 13.45344,7.8878529 13.310587,7.811602 13.240234,7.7578125 12.9961,7.5711244 12.829178,7.3016767 12.771484,7 12.754827,6.9130668 12.75,6.7497865 12.75,6.3417969 c 0,-0.9710891 0.03487,-1.4226469 0.07422,-1.53125 0.198886,-0.5490762 0.740294,-0.8840625 1.320312,-0.8164063 z"
     id="path3" />
</svg>
