<?xml version="1.0" encoding="UTF-8" standalone="no"?>
<svg
   width="24"
   height="24"
   viewBox="0 0 24 24"
 
   version="1.1"
   id="svg6"
   xmlns="http://www.w3.org/2000/svg"
   xmlns:svg="http://www.w3.org/2000/svg">
  <defs
     id="defs6" />
  <path
    
     d="m 9.5,16.25 c -1.7860432,0 -3.25,1.463968 -3.25,3.25 0,1.786032 1.4639568,3.25 3.25,3.25 1.786036,0 3.25,-1.463964 3.25,-3.25 0,-1.786036 -1.463964,-3.25 -3.25,-3.25 z m 0,1.5 c 0.975361,0 1.75,0.774639 1.75,1.75 0,0.975361 -0.774639,1.75 -1.75,1.75 -0.9753741,0 -1.75,-0.774635 -1.75,-1.75 0,-0.975365 0.7746259,-1.75 1.75,-1.75 z"
     id="path1" />
  <path
    
     d="m 19.5,14.25 c -1.786036,0 -3.25,1.463964 -3.25,3.25 0,1.786036 1.463964,3.25 3.25,3.25 1.786036,0 3.25,-1.463964 3.25,-3.25 0,-1.786036 -1.463964,-3.25 -3.25,-3.25 z m 0,1.5 c 0.975361,0 1.75,0.774639 1.75,1.75 0,0.975361 -0.774639,1.75 -1.75,1.75 -0.975361,0 -1.75,-0.774639 -1.75,-1.75 0,-0.975361 0.774639,-1.75 1.75,-1.75 z"
     id="path2" />
  <path
     
     d="m 21.720703,7.3027344 -10,3.9999996 a 0.75,0.75 0 0 0 -0.417969,0.976563 0.75,0.75 0 0 0 0.976563,0.417969 l 10,-4.0000004 A 0.75,0.75 0 0 0 22.697266,7.7207031 0.75,0.75 0 0 0 21.720703,7.3027344 Z"
     id="path3" />
  <path
     d="m 14.4556,5.15803 0.2896,0.69184 v 0 z m 2,-0.83709 -0.2895,-0.69185 z m 4.6525,-0.98035 -0.4156,0.62437 v 0 z M 12.75,19.0004 V 8.84787 h -1.5 V 19.0004 Z m 10,-1.8462 V 8.01078 h -1.5 v 9.14342 z m -8.0048,-11.30433 2,-0.83709 -0.5791,-1.38369 -2,0.83709 z M 22.75,8.01078 C 22.75,6.67666 22.752,5.59091 22.6304,4.76937 22.5067,3.93328 22.2308,3.18689 21.5236,2.71622 l -0.8311,1.24874 c 0.1847,0.12291 0.3548,0.35275 0.4541,1.02393 0.1014,0.68573 0.1034,1.63828 0.1034,3.02189 z m -6.0048,-2.998 c 1.2763,-0.5342 2.1558,-0.90015 2.8275,-1.07133 0.6575,-0.16754 0.9352,-0.09941 1.1198,0.02351 L 21.5236,2.71622 C 20.8164,2.24554 20.0213,2.2792 19.2023,2.48791 18.3975,2.69298 17.3967,3.114 16.1661,3.62909 Z M 12.75,8.84787 c 0,-0.66153 10e-4,-1.09796 0.0375,-1.43371 0.0345,-0.31754 0.0948,-0.4741 0.1719,-0.58986 L 11.7106,5.99325 C 11.4527,6.38089 11.3455,6.79864 11.2963,7.25218 11.249,7.68752 11.25,8.21893 11.25,8.84787 Z M 14.1661,4.46618 C 13.5859,4.70901 13.0953,4.91324 12.712,5.12494 12.3126,5.34549 11.9686,5.60562 11.7106,5.99325 L 12.9594,6.8243 C 13.0364,6.70855 13.1575,6.59242 13.4371,6.438 13.7328,6.27473 14.135,6.10529 14.7452,5.84987 Z"

     id="path4" />
  <path
     
     d="M 7,1.25 A 0.75,0.75 0 0 0 6.25,2 V 6.5 11 A 0.75,0.75 0 0 0 7,11.75 0.75,0.75 0 0 0 7.75,11 V 6.5 2 A 0.75,0.75 0 0 0 7,1.25 Z"
     id="path5" />
  <path
    
     d="m 4.5,7.25 c -1.7860402,0 -3.25,1.4639598 -3.25,3.25 0,1.78604 1.4639598,3.25 3.25,3.25 1.7860402,0 3.25,-1.46396 3.25,-3.25 C 7.75,8.7139598 6.2860402,7.25 4.5,7.25 Z m 0,1.5 c 0.9753808,0 1.75,0.7746192 1.75,1.75 0,0.975381 -0.7746192,1.75 -1.75,1.75 -0.9753808,0 -1.75,-0.774619 -1.75,-1.75 0,-0.9753808 0.7746192,-1.75 1.75,-1.75 z"
     id="circle5" />
  <path
     
     d="M 7,1.25 A 0.75,0.75 0 0 0 6.25,2 c 0,1.2476656 0.5627498,2.2411165 1.3066406,2.8554687 C 8.3005315,5.469821 9.1917944,5.75 10,5.75 A 0.75,0.75 0 0 0 10.75,5 0.75,0.75 0 0 0 10,4.25 C 9.5655668,4.25 8.9571667,4.067098 8.5117188,3.6992188 8.0662708,3.3313395 7.75,2.8234023 7.75,2 A 0.75,0.75 0 0 0 7,1.25 Z"
     id="path6" />
</svg>
