<?xml version="1.0" encoding="UTF-8" standalone="no"?>
<svg
   width="24"
   height="24"
   viewBox="0 0 24 24"
 
   version="1.1"
   id="svg5"
   xmlns="http://www.w3.org/2000/svg"
   xmlns:svg="http://www.w3.org/2000/svg">
  <defs
     id="defs5" />
  <path
    
     d="m 10,12.25 c -1.5098846,0 -2.75,1.240083 -2.75,2.75 0,1.509917 1.2401154,2.75 2.75,2.75 1.509904,0 2.75,-1.240096 2.75,-2.75 0,-1.509904 -1.240096,-2.75 -2.75,-2.75 z m 0,1.5 c 0.699294,0 1.25,0.550706 1.25,1.25 0,0.699294 -0.550706,1.25 -1.25,1.25 -0.6992532,0 -1.25,-0.550719 -1.25,-1.25 0,-0.699281 0.5507468,-1.25 1.25,-1.25 z"
     id="path1" />
  <path
    
     d="m 11.25,9 v 6 h 1.5 V 9 Z"
     id="path2" />
  <path
     
     d="m 13.203125,6.8808594 c -0.8024,-0.093613 -1.572526,0.3810565 -1.847656,1.140625 C 11.21542,8.4080008 11.25,8.6863255 11.25,9.171875 c 0,0.2039898 -0.0055,0.34677 0.03125,0.5390625 0.08081,0.4220615 0.314752,0.7995255 0.65625,1.0605465 0.155745,0.119184 0.28635,0.178332 0.46875,0.269532 l 1.316406,0.660156 c 0.4342,0.2171 0.665734,0.372347 1.074219,0.419922 0.802483,0.09369 1.572532,-0.383027 1.847656,-1.142578 C 16.784642,10.591923 16.75,10.315618 16.75,9.8300781 16.75,9.6260783 16.755487,9.4813352 16.71875,9.2890625 16.637945,8.867005 16.403952,8.4895547 16.0625,8.2285156 15.907045,8.1097391 15.776169,8.0502141 15.59375,7.9589844 L 14.277344,7.3007812 C 13.843099,7.0836088 13.611407,6.9284805 13.203125,6.8808594 Z m -0.173828,1.4882812 c -0.05968,-0.00696 0.142018,0.05631 0.576172,0.2734375 l 1.318359,0.6582032 c 0.18238,0.09121 0.233171,0.1226972 0.228516,0.1191406 0.04895,0.037421 0.08216,0.089829 0.09375,0.1503906 -0.0011,-0.00595 0.0039,0.055766 0.0039,0.2597656 0,0.4855399 -0.03614,0.6933119 -0.01563,0.6367189 -0.04088,0.112848 -0.144556,0.17797 -0.263672,0.164062 0.05988,0.007 -0.141972,-0.05438 -0.576172,-0.271484 L 13.076172,9.6992188 c -0.1824,-0.0912 -0.23346,-0.1229246 -0.228516,-0.1191407 -0.0489,-0.037378 -0.08216,-0.089832 -0.09375,-0.1503906 0.0011,0.00599 -0.0039,-0.053823 -0.0039,-0.2578125 0,-0.4855495 0.03607,-0.6951086 0.01563,-0.6386719 0.04087,-0.1128307 0.144472,-0.1779691 0.263672,-0.1640625 z"
     id="path3" />
  <path
     
     d="M 12,1.25 C 6.0718263,1.25 1.25,6.0718263 1.25,12 c 0,5.928127 4.8218217,10.75 10.75,10.75 0.735199,0 1.453582,-0.07387 2.148438,-0.214844 a 0.75,0.75 0 0 0 0.585937,-0.884765 0.75,0.75 0 0 0 -0.882812,-0.585938 C 13.254019,21.185682 12.6346,21.25 12,21.25 6.8824893,21.25 2.75,17.117462 2.75,12 2.75,6.8824848 6.8824848,2.75 12,2.75 c 5.117462,0 9.25,4.1324893 9.25,9.25 0,0.6346 -0.06432,1.254019 -0.185547,1.851563 a 0.75,0.75 0 0 0 0.585938,0.882812 0.75,0.75 0 0 0 0.884765,-0.585937 C 22.676127,13.453582 22.75,12.735199 22.75,12 22.75,6.0718217 17.928127,1.25 12,1.25 Z"
     id="path4" />
  <path
  
     d="m 18,14.25 a 0.75,0.75 0 0 0 -0.53125,0.21875 l -2.5,2.5 a 0.75,0.75 0 0 0 0,1.0625 0.75,0.75 0 0 0 1.0625,0 L 17.25,16.8125 V 22 A 0.75,0.75 0 0 0 18,22.75 0.75,0.75 0 0 0 18.75,22 v -5.1875 l 1.21875,1.21875 a 0.75,0.75 0 0 0 1.0625,0 0.75,0.75 0 0 0 0,-1.0625 l -2.5,-2.5 A 0.75,0.75 0 0 0 18,14.25 Z"
     id="path5" />
</svg>
