<?xml version="1.0" encoding="UTF-8" standalone="no"?>
<svg
   width="24"
   height="24"
   viewBox="0 0 24 24"
 
   version="1.1"
   id="svg1"
   xmlns="http://www.w3.org/2000/svg"
   xmlns:svg="http://www.w3.org/2000/svg">
  <defs
     id="defs1" />
  <path
     d="m 2.97631,2.87868 0.50172,0.55747 v 0 z m 0,16.24262 0.50172,-0.5575 v 0 z M 6.25,20 c 0,0.4142 0.33579,0.75 0.75,0.75 0.41421,0 0.75,-0.3358 0.75,-0.75 z M 7.75,2 C 7.75,1.58579 7.41422,1.25 7,1.25 6.58579,1.25 6.25,1.58579 6.25,2 Z M 7,7 v 0.75 0 z M 2,6.25 C 1.58579,6.25 1.25,6.58579 1.25,7 1.25,7.41421 1.58579,7.75 2,7.75 Z M 12,20 v 0.75 h 0.75 V 20 Z M 2,15.25 c -0.41421,0 -0.75,0.3358 -0.75,0.75 0,0.4142 0.33579,0.75 0.75,0.75 z M 21.0237,4.87868 20.522,5.43615 v 0 z m 0,16.24262 -0.5017,-0.5575 v 0 z M 16.25,22 c 0,0.4142 0.3358,0.75 0.75,0.75 0.4142,0 0.75,-0.3358 0.75,-0.75 z M 17.75,4 C 17.75,3.58579 17.4142,3.25 17,3.25 16.5858,3.25 16.25,3.58579 16.25,4 Z M 17,9 v 0.75 0 z M 12,4 V 3.25 H 11.25 V 4 Z M 22,9.75 C 22.4142,9.75 22.75,9.41421 22.75,9 22.75,8.58579 22.4142,8.25 22,8.25 Z m 0,9 c 0.4142,0 0.75,-0.3358 0.75,-0.75 0,-0.4142 -0.3358,-0.75 -0.75,-0.75 z M 12,3 h 0.75 V 3 Z M 2.75,14 V 8 h -1.5 v 6 z m 0,-6 c 0,-0.35557 0,-0.68591 0.00192,-0.99536 L 1.25195,6.99536 C 1.25,7.31032 1.25,7.6455 1.25,8 Z M 2.75192,7.00464 C 2.75868,5.91065 2.79037,5.14239 2.90886,4.56183 3.02163,4.00928 3.20202,3.68456 3.47803,3.43615 L 2.47459,2.32121 C 1.89684,2.84118 1.59677,3.48961 1.43915,4.26187 1.28726,5.00611 1.25863,5.91433 1.25195,6.99536 Z M 8.66667,1.25 c -0.61161,0 -1.16997,-1e-5 -1.67643,0.00658 L 7.00977,2.75645 C 7.50454,2.75001 8.05246,2.75 8.66667,2.75 Z M 6.99024,1.25658 C 5.95477,1.27006 5.08619,1.31098 4.36486,1.45123 3.62845,1.59441 2.99885,1.84937 2.47459,2.32121 L 3.47803,3.43615 C 3.73967,3.20068 4.08877,3.033 4.65115,2.92366 5.22862,2.81138 5.97893,2.76988 7.00977,2.75645 Z M 8.66667,19.25 c -0.61421,0 -1.16214,0 -1.65691,-0.0065 L 6.99024,20.7434 C 7.4967,20.75 8.05506,20.75 8.66667,20.75 Z M 7.00977,19.2435 C 5.97893,19.2301 5.22862,19.1886 4.65115,19.0763 4.08877,18.967 3.73967,18.7993 3.47803,18.5638 l -1.00344,1.115 c 0.52426,0.4718 1.15386,0.7268 1.89027,0.87 0.72133,0.1402 1.5899,0.1811 2.62538,0.1946 z M 1.25,14 c 0,0.7603 -9e-5,1.4349 0.01967,2.0251 L 2.76883,15.9749 C 2.75009,15.4151 2.75,14.7679 2.75,14 Z m 0.01967,2.0251 c 0.05199,1.553 0.23686,2.7824 1.20492,3.6537 l 1.00344,-1.115 C 3.02098,18.1525 2.82085,17.5288 2.76883,15.9749 Z M 6.25,16 v 3.9935 h 1.5 V 16 Z m 0,3.9935 V 20 h 1.5 V 19.9935 Z M 6.25,2 v 0.00652 h 1.5 V 2 Z m 0,0.00652 V 7 h 1.5 V 2.00652 Z M 11.25,3 v 4 h 1.5 V 3 Z M 12,6.25 H 7 v 1.5 h 5 z m -5,0 H 2.00193 v 1.5 H 7 Z m -4.99807,0 H 2 v 1.5 H 2.00193 Z M 11.25,7 v 9 h 1.5 V 7 Z m 0,9 v 4 h 1.5 V 16 Z M 12,15.25 H 7 v 1.5 h 5 z m -5,0 H 2.01925 v 1.5 H 7 Z m -4.98075,0 H 2 v 1.5 H 2.01925 Z M 12,19.25 H 8.66667 v 1.5 H 12 Z M 8.66667,2.75 H 11 V 1.25 H 8.66667 Z M 22.75,16 v -6 h -1.5 v 6 z m 0,-6 c 0,-0.3545 0,-0.68968 -0.0019,-1.00464 l -1.5,0.00928 C 21.25,9.31409 21.25,9.64443 21.25,10 Z M 22.7481,8.99536 C 22.7414,7.91433 22.7127,7.00611 22.5608,6.26187 22.4032,5.48961 22.1032,4.84118 21.5254,4.32121 L 20.522,5.43615 c 0.276,0.24841 0.4564,0.57313 0.5691,1.12568 0.1185,0.58056 0.1502,1.34881 0.157,2.44281 z M 15.3333,4.75 c 0.6142,0 1.1622,10e-6 1.6569,0.00645 L 17.0098,3.25658 C 16.5033,3.24999 15.9449,3.25 15.3333,3.25 Z m 1.6569,0.00645 c 1.0309,0.01343 1.7812,0.05493 2.3587,0.16721 0.5623,0.10934 0.9114,0.27702 1.1731,0.51249 L 21.5254,4.32121 C 21.0011,3.84937 20.3716,3.59441 19.6351,3.45123 18.9138,3.31098 18.0452,3.27006 17.0098,3.25658 Z M 15.3333,22.75 c 0.6116,0 1.17,0 1.6765,-0.0066 L 16.9902,21.2435 C 16.4955,21.25 15.9475,21.25 15.3333,21.25 Z m 1.6765,-0.0066 c 1.0354,-0.0135 1.904,-0.0544 2.6253,-0.1946 0.7365,-0.1432 1.366,-0.3982 1.8903,-0.87 l -1.0034,-1.115 c -0.2617,0.2355 -0.6108,0.4032 -1.1731,0.5125 -0.5775,0.1123 -1.3278,0.1538 -2.3587,0.1672 z M 21.25,16 c 0,0.7679 -10e-5,1.4151 -0.0188,1.9749 l 1.4991,0.0502 C 22.7501,17.4349 22.75,16.7603 22.75,16 Z m -0.0188,1.9749 c -0.052,1.5539 -0.2522,2.1776 -0.7092,2.5889 l 1.0034,1.115 c 0.9681,-0.8713 1.1529,-2.1007 1.2049,-3.6537 z M 16.25,18 v 3.9935 h 1.5 V 18 Z m 0,3.9935 V 22 h 1.5 V 21.9935 Z M 16.25,4 v 0.00652 h 1.5 V 4 Z m 0,0.00652 V 9 h 1.5 V 4.00652 Z M 11.25,4 v 5 h 1.5 V 4 Z M 12,9.75 h 5 v -1.5 h -5 z m 5,0 h 4.9981 V 8.25 H 17 Z m 4.9981,0 H 22 V 8.25 H 21.9981 Z M 11.25,9 v 9 h 1.5 V 9 Z m 0,9 v 3 h 1.5 V 18 Z M 12,18.75 h 5 v -1.5 h -5 z m 5,0 h 4.9808 v -1.5 H 17 Z m 4.9808,0 H 22 v -1.5 H 21.9808 Z M 13,22.75 h 2.3333 v -1.5 H 13 Z M 15.3333,3.25 H 12 v 1.5 h 3.3333 z M 11.25,21 c 0,0.9665 0.7835,1.75 1.75,1.75 v -1.5 c -0.1381,0 -0.25,-0.1119 -0.25,-0.25 z M 12.75,3 C 12.75,2.0335 11.9665,1.25 11,1.25 v 1.5 c 0.1381,0 0.25,0.11193 0.25,0.25 z"

     id="path2" />
</svg>
