<?xml version="1.0" encoding="UTF-8" standalone="no"?>
<svg
   width="24"
   height="24"
   viewBox="0 0 24 24"
 
   version="1.1"
   id="svg2"
   xmlns="http://www.w3.org/2000/svg"
   xmlns:svg="http://www.w3.org/2000/svg">
  <defs
     id="defs2" />
  <path
  
     d="m 12.476563,3.25 c -3.5564768,0 -6.4648443,2.867542 -6.4648443,6.3964844 0,0.4019096 0.1350125,0.7640406 0.2070313,1.1464846 C 3.4833578,10.83057 1.25,13.039765 1.25,15.765625 1.25,18.514876 3.517668,20.75 6.2851562,20.75 H 16.285156 C 19.84162,20.75 22.75,17.88247 22.75,14.353516 22.75,11.704226 21.091547,9.4669933 18.767578,8.4980469 18.208306,5.523645 15.629018,3.25 12.476563,3.25 Z m 0,1.5 c 2.187963,0 3.956355,1.4176036 4.623046,3.3398438 -0.275266,-0.035403 -0.530109,-0.1347657 -0.814453,-0.1347657 -0.752665,0 -1.478446,0.127864 -2.152343,0.3632813 a 0.75,0.75 0 0 0 -0.458985,0.9570312 0.75,0.75 0 0 0 0.955078,0.4589844 c 0.517501,-0.1807823 1.073117,-0.2792969 1.65625,-0.2792969 0.571608,0 1.117973,0.095498 1.626953,0.2695313 C 19.856381,10.389462 21.25,12.206785 21.25,14.353516 21.25,17.062155 19.040486,19.25 16.285156,19.25 H 6.2851562 C 4.3187893,19.25 2.75,17.69457 2.75,15.765625 c 0,-1.928945 1.5687893,-3.486328 3.5351562,-3.486328 0.2360767,0 0.4657577,0.02332 0.6875,0.06641 0.4661886,0.09044 0.8984341,0.269552 1.2792969,0.521485 A 0.75,0.75 0 0 0 9.2929688,12.65625 0.75,0.75 0 0 0 9.0800781,11.617188 C 8.6904817,11.359477 8.2277227,11.224952 7.7714844,11.082031 7.6279451,10.624577 7.5117188,10.152683 7.5117187,9.6464844 7.5117188,6.9378529 9.7212052,4.75 12.476563,4.75 Z"
     id="path1" />
  <path
    
     d="M 7,1.25 C 3.8332519,1.25 1.25,3.8332519 1.25,7 c 0,2.3512707 1.4169099,4.383479 3.4492187,5.271484 l 0.6015625,-1.375 C 3.8012936,10.241292 2.75,8.7493652 2.75,7 2.75,4.6439137 4.6439137,2.75 7,2.75 c 1.3957097,0 2.624507,0.6682056 3.400391,1.7011719 L 11.599609,3.5488281 C 10.551095,2.1528968 8.8759271,1.25 7,1.25 Z"
     id="path2" />
</svg>
