<?xml version="1.0" encoding="UTF-8" standalone="no"?>
<svg
   width="24"
   height="24"
   viewBox="0 0 24 24"
 
   version="1.1"
   id="svg9"
   xmlns="http://www.w3.org/2000/svg"
   xmlns:svg="http://www.w3.org/2000/svg">
  <defs
     id="defs9" />
  <path
   
     d="M 8,21.25 A 0.75,0.75 0 0 0 7.25,22 0.75,0.75 0 0 0 8,22.75 h 8 A 0.75,0.75 0 0 0 16.75,22 0.75,0.75 0 0 0 16,21.25 Z"
     id="path1" />
  <path
   
     d="M 5,18.25 A 0.75,0.75 0 0 0 4.25,19 0.75,0.75 0 0 0 5,19.75 H 19 A 0.75,0.75 0 0 0 19.75,19 0.75,0.75 0 0 0 19,18.25 Z"
     id="path2" />
  <path
   
     d="M 2,15.25 A 0.75,0.75 0 0 0 1.25,16 0.75,0.75 0 0 0 2,16.75 H 22 A 0.75,0.75 0 0 0 22.75,16 0.75,0.75 0 0 0 22,15.25 Z"
     id="path3" />
  <path
    
     d="m 12,5.25 c -3.719036,0 -6.75,3.030964 -6.75,6.75 0,1.707822 0.6379377,3.275703 1.6875,4.464844 L 7.1621094,16.71875 H 16.837891 L 17.0625,16.464844 C 18.111994,15.275717 18.75,13.707839 18.75,12 18.75,8.2809625 15.719027,5.25 12,5.25 Z m 0,1.5 c 2.908366,0 5.25,2.3416241 5.25,5.25 0,1.228429 -0.454908,2.325769 -1.158203,3.21875 H 7.9082031 C 7.2048895,14.325782 6.75,13.228444 6.75,12 6.75,9.0916226 9.0916226,6.75 12,6.75 Z"
     id="path4" />
  <path
  
     d="M 12,1.25 A 0.75,0.75 0 0 0 11.25,2 V 3 A 0.75,0.75 0 0 0 12,3.75 0.75,0.75 0 0 0 12.75,3 V 2 A 0.75,0.75 0 0 0 12,1.25 Z"
     id="path5" />
  <path
  
     d="M 21,11.25 A 0.75,0.75 0 0 0 20.25,12 0.75,0.75 0 0 0 21,12.75 h 1 A 0.75,0.75 0 0 0 22.75,12 0.75,0.75 0 0 0 22,11.25 Z"
     id="path6" />
  <path
  
     d="M 2,11.25 A 0.75,0.75 0 0 0 1.25,12 0.75,0.75 0 0 0 2,12.75 H 3 A 0.75,0.75 0 0 0 3.75,12 0.75,0.75 0 0 0 3,11.25 Z"
     id="path7" />
  <path
  
     d="m 19.070312,4.1796875 a 0.75,0.75 0 0 0 -0.529296,0.21875 l -0.392579,0.3925781 a 0.75,0.75 0 0 0 0,1.0605469 0.75,0.75 0 0 0 1.060547,0 l 0.392578,-0.3925781 a 0.75,0.75 0 0 0 0,-1.0605469 0.75,0.75 0 0 0 -0.53125,-0.21875 z"
     id="path8" />
  <path
  
     d="m 4.9296875,4.1796875 a 0.75,0.75 0 0 0 -0.53125,0.21875 0.75,0.75 0 0 0 0,1.0605469 l 0.3925781,0.3925781 a 0.75,0.75 0 0 0 1.0605469,0 0.75,0.75 0 0 0 0,-1.0605469 L 5.4589844,4.3984375 a 0.75,0.75 0 0 0 -0.5292969,-0.21875 z"
     id="path9" />
</svg>
