<?xml version="1.0" encoding="UTF-8" standalone="no"?>
<svg
   width="24"
   height="24"
   viewBox="0 0 24 24"
 
   version="1.1"
   id="svg5"
   xmlns="http://www.w3.org/2000/svg"
   xmlns:svg="http://www.w3.org/2000/svg">
  <defs
     id="defs5" />
  <path
    
     d="M 10.490234,4.25 C 10.244335,4.25 10.098099,4.24762 9.9238281,4.267578 9.110601,4.360729 8.3786279,4.8123401 7.9316406,5.4980468 c -0.09582,0.1469811 -0.1595734,0.2800943 -0.2695312,0.5 C 7.6071516,6.1079724 7.5895338,6.1401907 7.5917969,6.1367187 7.5508647,6.1995113 7.4846341,6.2395168 7.4101562,6.2480469 7.4143613,6.2475649 7.3768461,6.25 7.2539062,6.25 H 6.9746094 C 5.1289812,6.25 4.0860477,6.2059237 3.1464844,6.7402344 2.5598861,7.0738246 2.0738246,7.5598861 1.7402344,8.1464844 1.2059314,9.0860341 1.25,10.128911 1.25,11.974609 V 14 c 0,1.414199 -0.00407,2.490678 0.1171875,3.392578 0.1212581,0.901901 0.3988767,1.67816 0.9804688,2.259766 0.5815962,0.581609 1.3578594,0.859207 2.2597656,0.980468 C 5.5093281,20.754074 6.5857864,20.75 8,20.75 h 8 c 1.414199,0 2.490676,0.0041 3.392578,-0.117188 0.901903,-0.121261 1.678162,-0.398865 2.259766,-0.980468 0.581603,-0.581604 0.859207,-1.357863 0.980468,-2.259766 C 22.754074,16.490676 22.75,15.414199 22.75,14 v -2.025391 c 0,-1.845698 0.04408,-2.8885732 -0.490234,-3.8281246 C 21.926164,7.5598881 21.440097,7.0738223 20.853516,6.7402344 19.913985,6.2059035 18.871089,6.25 17.025391,6.25 h -0.279297 c -0.123,0 -0.160107,-0.00239 -0.15625,-0.00195 -0.07446,-0.00853 -0.140554,-0.048322 -0.181641,-0.1113282 0.0023,0.0036 -0.01549,-0.028875 -0.07031,-0.1386718 -0.109976,-0.219831 -0.173848,-0.3531266 -0.269532,-0.5 C 15.621349,4.8123464 14.889383,4.3607305 14.076172,4.2675781 13.901901,4.2476153 13.755665,4.25 13.509766,4.25 Z m 0,1.5 h 3.019532 c 0.245899,0 0.343955,0.0018 0.396484,0.00781 0.370388,0.042427 0.700708,0.2482483 0.904297,0.5605469 0.02894,0.044567 0.076,0.1306364 0.185547,0.3496093 0.05498,0.1101228 0.0915,0.1878699 0.15625,0.2871094 0.284313,0.4359929 0.748286,0.7239514 1.265625,0.7832031 C 16.535425,7.7517226 16.623094,7.75 16.746094,7.75 h 0.279297 c 1.845698,0 2.646269,0.044874 3.085937,0.2949219 0.352017,0.2001916 0.643552,0.4917272 0.84375,0.84375 C 21.20516,9.328419 21.25,10.128911 21.25,11.974609 V 14 c 0,1.414199 -0.0051,2.459435 -0.103516,3.191406 -0.09841,0.731971 -0.257592,1.103295 -0.554687,1.400391 -0.297096,0.297095 -0.66842,0.456274 -1.400391,0.554687 C 18.459435,19.244898 17.414199,19.25 16,19.25 H 8 C 6.5857864,19.25 5.5405684,19.2449 4.8085937,19.146484 4.0766191,19.048071 3.705286,18.888886 3.4082031,18.591797 3.111116,18.294703 2.9519274,17.923379 2.8535156,17.191406 2.7551039,16.459433 2.75,15.414199 2.75,14 V 11.974609 C 2.75,10.128911 2.794846,9.3284207 3.0449219,8.8886719 3.2451111,8.5366511 3.5366511,8.2451111 3.8886719,8.0449219 4.3284072,7.7948533 5.1289812,7.75 6.9746094,7.75 h 0.2792968 c 0.1229399,0 0.2105001,0.00176 0.328125,-0.011719 C 8.0993528,7.6790314 8.5633088,7.3912851 8.8476563,6.9550781 8.9122592,6.8559663 8.9489241,6.777943 9.0039063,6.6679687 9.1138682,6.4480549 9.1605738,6.362658 9.1894531,6.3183594 9.3930252,6.0060671 9.7233383,5.8002413 10.09375,5.7578125 10.146279,5.7517953 10.244335,5.75 10.490234,5.75 Z"
     id="path1" />
  <path
    
     d="M 5,3.25 C 4.5285955,3.25 4.1600107,3.2449347 3.8027344,3.2929688 3.4454581,3.3410028 3.0504251,3.4730222 2.7617188,3.7617188 2.4730222,4.0504251 2.3410028,4.4454581 2.2929688,4.8027344 2.2449347,5.1600107 2.25,5.5285955 2.25,6 v 1.5 h 1.5 V 6 C 3.75,5.5285955 3.75411,5.1893038 3.779297,5.0019531 3.804485,4.8146025 3.818073,4.826459 3.822266,4.8222656 3.826456,4.8180756 3.814606,4.8044856 4.0019535,4.7792966 4.1893038,4.7541085 4.5285955,4.75 5,4.75 c 0.4714045,0 0.8106962,0.00411 0.9980469,0.029297 0.1873506,0.025188 0.1754941,0.038775 0.1796875,0.042969 0.00419,0.00419 0.01778,-0.00766 0.042969,0.1796875 C 6.2458915,5.1893038 6.25,5.5285955 6.25,6 v 1 h 1.5 V 6 C 7.75,5.5285955 7.7550653,5.1600107 7.7070312,4.8027344 7.6589972,4.4454581 7.5269778,4.0504251 7.2382812,3.7617188 6.9495749,3.4730222 6.5545419,3.3410028 6.1972656,3.2929688 5.8399893,3.2449347 5.4714045,3.25 5,3.25 Z"
     id="path2" />
  <path

     d="m 19,3.25 c -0.4714,0 -0.83999,-0.00507 -1.197266,0.042969 -0.357275,0.048034 -0.752309,0.1800534 -1.041015,0.46875 -0.288704,0.2887039 -0.420714,0.6837365 -0.46875,1.0410156 C 16.244933,5.1600134 16.25,5.5285955 16.25,6 v 1 h 1.5 V 6 c 0,-0.4714045 0.0041,-0.810699 0.0293,-0.9980469 0.02519,-0.1873479 0.03877,-0.1754917 0.04297,-0.1796875 0.0042,-0.00419 -0.0077,-0.01778 0.179687,-0.042969 C 18.189302,4.7541086 18.5286,4.75 19,4.75 c 0.4714,0 0.810698,0.00411 0.998047,0.029297 0.187349,0.025188 0.175494,0.038775 0.179687,0.042969 0.0042,0.0042 0.01778,-0.00766 0.04297,0.1796875 C 20.245892,5.189301 20.25,5.5285955 20.25,6 v 2 h 1.5 V 6 C 21.75,5.5285955 21.7551,5.1600134 21.70703,4.8027344 21.658995,4.4454553 21.526985,4.0504227 21.238281,3.7617188 20.949575,3.4730222 20.554541,3.3410029 20.197266,3.2929688 19.83999,3.2449346 19.4714,3.25 19,3.25 Z"
     id="path3" />
  <path

     d="M 6,12.75 A 0.75,0.75 0 0 0 5.25,13.5 0.75,0.75 0 0 0 6,14.25 H 9 A 0.75,0.75 0 0 0 9.75,13.5 0.75,0.75 0 0 0 9,12.75 Z"
     id="path4" />
  <path

     d="M 16.5,11.25 A 0.75,0.75 0 0 0 15.75,12 v 0.75 H 15 A 0.75,0.75 0 0 0 14.25,13.5 0.75,0.75 0 0 0 15,14.25 h 0.75 V 15 A 0.75,0.75 0 0 0 16.5,15.75 0.75,0.75 0 0 0 17.25,15 V 14.25 H 18 A 0.75,0.75 0 0 0 18.75,13.5 0.75,0.75 0 0 0 18,12.75 H 17.25 V 12 A 0.75,0.75 0 0 0 16.5,11.25 Z"
     id="path5" />
</svg>
