<?xml version="1.0" encoding="UTF-8" standalone="no"?>
<svg
   width="24"
   height="24"
   viewBox="0 0 24 24"
 
   version="1.1"
   id="svg7"
   xmlns="http://www.w3.org/2000/svg"
   xmlns:svg="http://www.w3.org/2000/svg">
  <defs
     id="defs7" />
  <path
    
     d="m 12,17.25 c -1.509904,0 -2.75,1.240096 -2.75,2.75 0,1.509904 1.240096,2.75 2.75,2.75 1.509904,0 2.75,-1.240096 2.75,-2.75 0,-1.509904 -1.240096,-2.75 -2.75,-2.75 z m 0,1.5 c 0.699294,0 1.25,0.550706 1.25,1.25 0,0.699294 -0.550706,1.25 -1.25,1.25 -0.699294,0 -1.25,-0.550706 -1.25,-1.25 0,-0.699294 0.550706,-1.25 1.25,-1.25 z"
     id="path1" />
  <path
    
     d="M 8,1.25 C 7.5285955,1.25 7.1600107,1.2449347 6.8027344,1.2929687 6.4454581,1.3410028 6.0504251,1.4730222 5.7617187,1.7617187 5.4730222,2.0504251 5.3410028,2.4454581 5.2929687,2.8027344 5.2449347,3.1600107 5.25,3.5285955 5.25,4 c 0,0.4714045 -0.00507,0.8399893 0.042969,1.1972656 0.048034,0.3572763 0.1800535,0.7523093 0.46875,1.0410156 0.2887064,0.2886966 0.6837394,0.420716 1.0410157,0.46875 C 7.1600107,6.7550653 7.5285955,6.75 8,6.75 h 8 c 0.4714,0 0.83999,0.00507 1.197266,-0.042969 0.357275,-0.048034 0.752309,-0.1800534 1.041015,-0.46875 0.288704,-0.2887039 0.420714,-0.6837365 0.46875,-1.0410156 C 18.755067,4.8399866 18.75,4.4714045 18.75,4 18.75,3.5285955 18.7551,3.1600134 18.70703,2.8027344 18.658995,2.4454553 18.526985,2.0504227 18.238281,1.7617187 17.949575,1.4730222 17.554541,1.3410029 17.197266,1.2929687 16.83999,1.2449346 16.4714,1.25 16,1.25 Z m 0,1.5 h 8 c 0.4714,0 0.810698,0.00411 0.998047,0.029297 0.187349,0.025188 0.175494,0.038776 0.179687,0.042969 0.0042,0.0042 0.01778,-0.00766 0.04297,0.1796875 C 17.245892,3.189301 17.25,3.5285955 17.25,4 c 0,0.4714045 -0.0041,0.810699 -0.0293,0.9980469 -0.02519,0.1873479 -0.03877,0.1754917 -0.04297,0.1796875 -0.0042,0.00419 0.0077,0.01778 -0.179687,0.042969 C 16.810698,5.2458914 16.4714,5.25 16,5.25 H 8 C 7.5285955,5.25 7.1893038,5.2458915 7.0019531,5.2207031 6.8146025,5.1955147 6.826459,5.1819276 6.8222656,5.1777344 6.8180724,5.173541 6.8044853,5.1853975 6.7792969,4.9980469 6.7541085,4.8106962 6.75,4.4714045 6.75,4 6.75,3.5285955 6.75411,3.1893038 6.779297,3.0019531 6.804485,2.8146025 6.818072,2.826459 6.822266,2.8222656 6.826456,2.8180756 6.814606,2.8044856 7.0019535,2.7792966 7.1893038,2.7541085 7.5285955,2.75 8,2.75 Z"
     id="path2" />
  <path
    
     d="m 10,14.25 c -1.2337738,0 -2.25,1.01626 -2.25,2.25 0,1.23374 1.0162262,2.25 2.25,2.25 h 4 c 1.233758,0 2.25,-1.016242 2.25,-2.25 0,-1.233758 -1.016242,-2.25 -2.25,-2.25 z m 0,1.5 h 4 c 0.42304,0 0.75,0.32696 0.75,0.75 0,0.42304 -0.32696,0.75 -0.75,0.75 h -4 c -0.4230845,0 -0.75,-0.326942 -0.75,-0.75 0,-0.423058 0.3269155,-0.75 0.75,-0.75 z"
     id="path3" />
  <path
    
     d="m 13.25,5.5 v 10 h 1.5 v -10 z"
     id="path4" />
  <path
    
     d="m 9.25,6 v 9.5 h 1.5 V 6 Z"
     id="path5" />
  <path
 
     d="m 8.1816406,7.2714844 a 0.75,0.75 0 0 0 -0.9101562,0.546875 0.75,0.75 0 0 0 0.546875,0.9101562 l 7.9999996,2.0000004 a 0.75,0.75 0 0 0 0.910157,-0.546875 0.75,0.75 0 0 0 -0.546875,-0.9101566 z m 0,3.4999996 a 0.75,0.75 0 0 0 -0.9101562,0.546875 0.75,0.75 0 0 0 0.546875,0.910157 l 7.9999996,2 a 0.75,0.75 0 0 0 0.910157,-0.546875 0.75,0.75 0 0 0 -0.546875,-0.910157 z"
     id="path6" />
  <path
 
     d="m 4.21875,7.25 a 0.75,0.75 0 0 0 -0.5292969,0.2226562 0.75,0.75 0 0 0 0.00391,1.0605469 l 0.7070312,0.6992188 a 0.75,0.75 0 0 0 1.0605469,-0.00391 0.75,0.75 0 0 0 -0.00391,-1.0625 L 4.75,7.4667969 A 0.75,0.75 0 0 0 4.21875,7.25 Z m 15.5625,0 A 0.75,0.75 0 0 0 19.25,7.4667969 l -0.707031,0.6992187 a 0.75,0.75 0 0 0 -0.0039,1.0625 0.75,0.75 0 0 0 1.060547,0.00391 L 20.306641,8.5332031 A 0.75,0.75 0 0 0 20.310547,7.4726562 0.75,0.75 0 0 0 19.78125,7.25 Z M 2,10.75 A 0.75,0.75 0 0 0 1.25,11.5 0.75,0.75 0 0 0 2,12.25 H 4 A 0.75,0.75 0 0 0 4.75,11.5 0.75,0.75 0 0 0 4,10.75 Z m 18,0 A 0.75,0.75 0 0 0 19.25,11.5 0.75,0.75 0 0 0 20,12.25 h 2 A 0.75,0.75 0 0 0 22.75,11.5 0.75,0.75 0 0 0 22,10.75 Z M 4.9316406,13.550781 a 0.75,0.75 0 0 0 -0.53125,0.216797 l -0.7070312,0.699219 a 0.75,0.75 0 0 0 -0.00391,1.060547 0.75,0.75 0 0 0 1.0605469,0.0059 l 0.7070312,-0.701172 a 0.75,0.75 0 0 0 0.00391,-1.060547 0.75,0.75 0 0 0 -0.5292969,-0.220703 z m 14.1367184,0 a 0.75,0.75 0 0 0 -0.529297,0.220703 0.75,0.75 0 0 0 0.0039,1.060547 L 19.25,15.533203 a 0.75,0.75 0 0 0 1.060547,-0.0059 0.75,0.75 0 0 0 -0.0039,-1.060547 l -0.707032,-0.699219 a 0.75,0.75 0 0 0 -0.53125,-0.216797 z"
     id="path7" />
</svg>
