<?xml version="1.0" encoding="UTF-8" standalone="no"?>
<svg
   width="24"
   height="24"
   viewBox="0 0 24 24"
 
   version="1.1"
   id="svg9"
   xmlns="http://www.w3.org/2000/svg"
   xmlns:svg="http://www.w3.org/2000/svg">
  <defs
     id="defs9" />
  <path
     
     d="M 12,1.25 C 6.0718263,1.25 1.25,6.0718263 1.25,12 1.25,17.928127 6.0718217,22.75 12,22.75 17.928132,22.75 22.75,17.928132 22.75,12 22.75,6.0718217 17.928127,1.25 12,1.25 Z m 0,1.5 c 5.117462,0 9.25,4.1324893 9.25,9.25 0,5.117457 -4.132543,9.25 -9.25,9.25 C 6.8824893,21.25 2.75,17.117462 2.75,12 2.75,6.8824848 6.8824848,2.75 12,2.75 Z"
     id="path1" />
  <path
 
     d="m 17.5,16.75 a 0.75,0.75 0 0 0 -0.53125,0.21875 0.75,0.75 0 0 0 0,1.0625 l 1.5,1.5 a 0.75,0.75 0 0 0 1.0625,0 0.75,0.75 0 0 0 0,-1.0625 l -1.5,-1.5 A 0.75,0.75 0 0 0 17.5,16.75 Z"
     id="path2" />
  <path
 
     d="m 19,4.25 a 0.75,0.75 0 0 0 -0.53125,0.21875 l -1.5,1.5 a 0.75,0.75 0 0 0 0,1.0625 0.75,0.75 0 0 0 1.0625,0 l 1.5,-1.5 a 0.75,0.75 0 0 0 0,-1.0625 A 0.75,0.75 0 0 0 19,4.25 Z"
     id="path3" />
  <path
 
     d="m 6.5,16.75 a 0.75,0.75 0 0 0 -0.53125,0.21875 l -1.5,1.5 a 0.75,0.75 0 0 0 0,1.0625 0.75,0.75 0 0 0 1.0625,0 l 1.5,-1.5 a 0.75,0.75 0 0 0 0,-1.0625 A 0.75,0.75 0 0 0 6.5,16.75 Z"
     id="path4" />
  <path
 
     d="m 5,4.25 a 0.75,0.75 0 0 0 -0.53125,0.21875 0.75,0.75 0 0 0 0,1.0625 l 1.5,1.5 a 0.75,0.75 0 0 0 1.0625,0 0.75,0.75 0 0 0 0,-1.0625 l -1.5,-1.5 A 0.75,0.75 0 0 0 5,4.25 Z"
     id="path5" />
  <path
 
     d="M 2,11.25 A 0.75,0.75 0 0 0 1.25,12 0.75,0.75 0 0 0 2,12.75 H 4 A 0.75,0.75 0 0 0 4.75,12 0.75,0.75 0 0 0 4,11.25 Z"
     id="path6" />
  <path
 
     d="M 20,11.25 A 0.75,0.75 0 0 0 19.25,12 0.75,0.75 0 0 0 20,12.75 h 2 A 0.75,0.75 0 0 0 22.75,12 0.75,0.75 0 0 0 22,11.25 Z"
     id="path7" />
  <path
 
     d="M 12,1.25 A 0.75,0.75 0 0 0 11.25,2 V 4 A 0.75,0.75 0 0 0 12,4.75 0.75,0.75 0 0 0 12.75,4 V 2 A 0.75,0.75 0 0 0 12,1.25 Z"
     id="path8" />
  <path
     
     d="m 12,7.015625 c -0.60218,0 -1.168778,0.2954878 -1.560547,0.7011719 C 10.047685,8.122481 9.7420433,8.6208706 9.3398438,9.25 8.7735672,10.135765 8.25,11.025357 8.25,12 c 0,2.062127 1.6877668,3.75 3.75,3.75 2.062233,0 3.75,-1.687873 3.75,-3.75 0,-0.974659 -0.523597,-1.864248 -1.089844,-2.75 C 14.257957,8.6208706 13.952315,8.122481 13.560547,7.7167969 13.168778,7.3111128 12.60218,7.015625 12,7.015625 Z m 0,1.5 c 0.219219,0 0.264688,0.020695 0.480469,0.2441406 0.215781,0.2234453 0.513816,0.6696988 0.916015,1.2988284 C 13.906036,10.85566 14.25,11.71406 14.25,12 c 0,1.251469 -0.998437,2.25 -2.25,2.25 -1.251563,0 -2.25,-0.998531 -2.25,-2.25 0,-0.285956 0.343953,-1.144353 0.853516,-1.941406 C 11.005715,9.4294644 11.30375,8.9832109 11.519531,8.7597656 11.735312,8.5363204 11.780781,8.515625 12,8.515625 Z"
     id="path9" />
</svg>
