<?xml version="1.0" encoding="UTF-8" standalone="no"?>
<svg
   width="24"
   height="24"
   viewBox="0 0 24 24"
 
   version="1.1"
   id="svg9"
   xmlns="http://www.w3.org/2000/svg"
   xmlns:svg="http://www.w3.org/2000/svg">
  <defs
     id="defs9" />
  <path
  
     d="M 12,1.25 C 6.0718263,1.25 1.25,6.0718263 1.25,12 1.25,17.928127 6.0718217,22.75 12,22.75 17.928132,22.75 22.75,17.928132 22.75,12 22.75,6.0718217 17.928127,1.25 12,1.25 Z m 0,1.5 c 5.117462,0 9.25,4.1324893 9.25,9.25 0,5.117457 -4.132543,9.25 -9.25,9.25 C 6.8824893,21.25 2.75,17.117462 2.75,12 2.75,6.8824848 6.8824848,2.75 12,2.75 Z"
     id="path1" />
  <path
 
     d="m 17.5,16.75 a 0.75,0.75 0 0 0 -0.53125,0.21875 0.75,0.75 0 0 0 0,1.0625 l 1.5,1.5 a 0.75,0.75 0 0 0 1.0625,0 0.75,0.75 0 0 0 0,-1.0625 l -1.5,-1.5 A 0.75,0.75 0 0 0 17.5,16.75 Z"
     id="path2" />
  <path
 
     d="m 19,4.25 a 0.75,0.75 0 0 0 -0.53125,0.21875 l -1.5,1.5 a 0.75,0.75 0 0 0 0,1.0625 0.75,0.75 0 0 0 1.0625,0 l 1.5,-1.5 a 0.75,0.75 0 0 0 0,-1.0625 A 0.75,0.75 0 0 0 19,4.25 Z"
     id="path3" />
  <path
 
     d="m 6.5,16.75 a 0.75,0.75 0 0 0 -0.53125,0.21875 l -1.5,1.5 a 0.75,0.75 0 0 0 0,1.0625 0.75,0.75 0 0 0 1.0625,0 l 1.5,-1.5 a 0.75,0.75 0 0 0 0,-1.0625 A 0.75,0.75 0 0 0 6.5,16.75 Z"
     id="path4" />
  <path
 
     d="m 5,4.25 a 0.75,0.75 0 0 0 -0.53125,0.21875 0.75,0.75 0 0 0 0,1.0625 l 1.5,1.5 a 0.75,0.75 0 0 0 1.0625,0 0.75,0.75 0 0 0 0,-1.0625 l -1.5,-1.5 A 0.75,0.75 0 0 0 5,4.25 Z"
     id="path5" />
  <path
 
     d="M 2,11.25 A 0.75,0.75 0 0 0 1.25,12 0.75,0.75 0 0 0 2,12.75 H 4 A 0.75,0.75 0 0 0 4.75,12 0.75,0.75 0 0 0 4,11.25 Z"
     id="path6" />
  <path
 
     d="M 20,11.25 A 0.75,0.75 0 0 0 19.25,12 0.75,0.75 0 0 0 20,12.75 h 2 A 0.75,0.75 0 0 0 22.75,12 0.75,0.75 0 0 0 22,11.25 Z"
     id="path7" />
  <path
 
     d="M 12,1.25 A 0.75,0.75 0 0 0 11.25,2 V 4 A 0.75,0.75 0 0 0 12,4.75 0.75,0.75 0 0 0 12.75,4 V 2 A 0.75,0.75 0 0 0 12,1.25 Z"
     id="path8" />
  <path
  
     d="m 12.242188,8.4980469 c -0.961283,10e-7 -1.921334,0.3646182 -2.6503911,1.09375 -1.4582635,1.4581141 -1.4582268,3.8445321 0,5.3027341 0.6891041,0.689104 1.6879841,0.947907 2.7148441,1.173828 0.729243,0.160449 1.297449,0.294838 1.861328,0.304688 0.563879,0.0099 1.171843,-0.181609 1.597656,-0.607422 0.425813,-0.425813 0.617272,-1.033777 0.607422,-1.597656 -0.0099,-0.563879 -0.144239,-1.132085 -0.304688,-1.861328 -0.225921,-1.02686 -0.484724,-2.02574 -1.173828,-2.7148441 C 14.16543,8.8626835 13.20347,8.4980458 12.242188,8.4980469 Z m 0,1.4902344 c 0.574241,10e-7 1.149298,0.2215567 1.591796,0.6640627 0.202096,0.202095 0.566254,1.052624 0.769532,1.976562 0.160451,0.729256 0.266059,1.253858 0.271484,1.564453 0.0054,0.310595 -0.01493,0.356732 -0.169922,0.511719 -0.154987,0.154987 -0.201124,0.175347 -0.511719,0.169922 -0.310595,-0.0054 -0.835197,-0.111033 -1.564453,-0.271484 -0.923938,-0.203278 -1.774467,-0.567436 -1.976562,-0.769532 -0.8850111,-0.884995 -0.8849744,-2.296757 0,-3.18164 0.442442,-0.442487 1.015602,-0.6640638 1.589844,-0.6640627 z"
     id="path9" />
</svg>
