<?xml version="1.0" encoding="UTF-8" standalone="no"?>
<svg
   width="24"
   height="24"
   viewBox="0 0 24 24"
 
   version="1.1"
   id="svg4"
   xmlns="http://www.w3.org/2000/svg"
   xmlns:svg="http://www.w3.org/2000/svg">
  <defs
     id="defs4" />
  <path
 
     d="M 8,8.25 A 0.75,0.75 0 0 0 7.25,9 v 6 A 0.75,0.75 0 0 0 8,15.75 0.75,0.75 0 0 0 8.75,15 V 9 A 0.75,0.75 0 0 0 8,8.25 Z"
     id="path1" />
  <path
 
     d="M 12,8.25 A 0.75,0.75 0 0 0 11.25,9 v 6 A 0.75,0.75 0 0 0 12,15.75 0.75,0.75 0 0 0 12.75,15 V 9 A 0.75,0.75 0 0 0 12,8.25 Z"
     id="path2" />
  <path
 
     d="M 16,8.25 A 0.75,0.75 0 0 0 15.25,9 c 0,0.9318791 -0.02919,1.317869 -0.0957,1.478516 -0.126973,0.306486 -0.369295,0.548808 -0.675781,0.675781 C 14.31786,11.220814 13.931899,11.25 13,11.25 H 8 A 0.75,0.75 0 0 0 7.25,12 0.75,0.75 0 0 0 8,12.75 h 5 c 0.931899,0 1.478191,0.0289 2.052734,-0.208984 0.673513,-0.279027 1.209255,-0.814769 1.488282,-1.488282 C 16.778902,10.478182 16.75,9.9318791 16.75,9 A 0.75,0.75 0 0 0 16,8.25 Z"
     id="path3" />
  <path
  
     d="M 12,1.25 C 6.0718263,1.25 1.25,6.0718263 1.25,12 1.25,17.928127 6.0718217,22.75 12,22.75 17.928132,22.75 22.75,17.928132 22.75,12 22.75,6.0718217 17.928127,1.25 12,1.25 Z m 0,1.5 c 5.117462,0 9.25,4.1324893 9.25,9.25 0,5.117457 -4.132543,9.25 -9.25,9.25 C 6.8824893,21.25 2.75,17.117462 2.75,12 2.75,6.8824848 6.8824848,2.75 12,2.75 Z"
     id="path4" />
</svg>
