<?xml version="1.0" encoding="UTF-8" standalone="no"?>
<svg
   width="24"
   height="24"
   viewBox="0 0 24 24"
 
   version="1.1"
   id="svg9"
   xmlns="http://www.w3.org/2000/svg"
   xmlns:svg="http://www.w3.org/2000/svg">
  <defs
     id="defs9" />
  <path
  
     d="M 4,1.25 C 2.4901018,1.25 1.25,2.4901018 1.25,4 1.25,5.5098982 2.4901018,6.75 4,6.75 5.5098982,6.75 6.75,5.5098982 6.75,4 6.75,2.4901018 5.5098982,1.25 4,1.25 Z m 0,1.5 C 4.6992396,2.75 5.25,3.3007604 5.25,4 5.25,4.6992396 4.6992396,5.25 4,5.25 3.3007604,5.25 2.75,4.6992396 2.75,4 2.75,3.3007604 3.3007604,2.75 4,2.75 Z"
     id="path1" />
  <path
  
     d="m 4,17.25 c -1.5098846,0 -2.75,1.240083 -2.75,2.75 0,1.509917 1.2401154,2.75 2.75,2.75 1.5098846,0 2.75,-1.240083 2.75,-2.75 0,-1.509917 -1.2401154,-2.75 -2.75,-2.75 z m 0,1.5 c 0.6992532,0 1.25,0.550719 1.25,1.25 0,0.699281 -0.5507468,1.25 -1.25,1.25 -0.6992532,0 -1.25,-0.550719 -1.25,-1.25 0,-0.699281 0.5507468,-1.25 1.25,-1.25 z"
     id="path2" />
  <path
  
     d="m 12,17.25 c -1.509904,0 -2.75,1.240096 -2.75,2.75 0,1.509904 1.240096,2.75 2.75,2.75 1.509904,0 2.75,-1.240096 2.75,-2.75 0,-1.509904 -1.240096,-2.75 -2.75,-2.75 z m 0,1.5 c 0.699294,0 1.25,0.550706 1.25,1.25 0,0.699294 -0.550706,1.25 -1.25,1.25 -0.699294,0 -1.25,-0.550706 -1.25,-1.25 0,-0.699294 0.550706,-1.25 1.25,-1.25 z"
     id="path3" />
  <path
  
     d="M 12,1.25 C 10.490083,1.25 9.25,2.4901154 9.25,4 9.25,5.5098846 10.490083,6.75 12,6.75 13.509917,6.75 14.75,5.5098846 14.75,4 14.75,2.4901154 13.509917,1.25 12,1.25 Z m 0,1.5 c 0.699281,0 1.25,0.5507468 1.25,1.25 0,0.6992532 -0.550719,1.25 -1.25,1.25 -0.699281,0 -1.25,-0.5507468 -1.25,-1.25 0,-0.6992532 0.550719,-1.25 1.25,-1.25 z"
     id="path4" />
  <path
  
     d="m 20,1.25 c -1.509917,0 -2.75,1.2401154 -2.75,2.75 0,1.5098846 1.240083,2.75 2.75,2.75 1.509917,0 2.75,-1.2401154 2.75,-2.75 0,-1.5098846 -1.240083,-2.75 -2.75,-2.75 z m 0,1.5 c 0.699281,0 1.25,0.5507468 1.25,1.25 0,0.6992532 -0.550719,1.25 -1.25,1.25 -0.699281,0 -1.25,-0.5507468 -1.25,-1.25 0,-0.6992532 0.550719,-1.25 1.25,-1.25 z"
     id="path5" />
  <path
 
     d="M 4,5.25 A 0.75,0.75 0 0 0 3.25,6 V 18 A 0.75,0.75 0 0 0 4,18.75 0.75,0.75 0 0 0 4.75,18 V 6 A 0.75,0.75 0 0 0 4,5.25 Z"
     id="path6" />
  <path
 
     d="M 12,5.25 A 0.75,0.75 0 0 0 11.25,6 V 18 A 0.75,0.75 0 0 0 12,18.75 0.75,0.75 0 0 0 12.75,18 V 6 A 0.75,0.75 0 0 0 12,5.25 Z"
     id="path7" />
  <path
 
     d="M 20,5.25 A 0.75,0.75 0 0 0 19.25,6 v 2 c 0,0.9428091 -0.0046,1.6340945 -0.06641,2.09375 -0.0618,0.459655 -0.14818,0.640367 -0.298828,0.791016 -0.150646,0.150645 -0.331357,0.237026 -0.791016,0.298828 C 17.634091,11.245395 16.942799,11.25 16,11.25 H 4 A 0.75,0.75 0 0 0 3.25,12 0.75,0.75 0 0 0 4,12.75 h 12 c 0.942799,0 1.665332,0.0046 2.294922,-0.08008 0.62959,-0.08465 1.215237,-0.289456 1.65039,-0.724609 0.435151,-0.435151 0.639961,-1.020803 0.72461,-1.650391 C 20.754571,9.6653334 20.75,8.9428091 20.75,8 V 6 A 0.75,0.75 0 0 0 20,5.25 Z"
     id="path8" />
  <path
     d="m 18,15 v -0.75 c -0.4142,0 -0.75,0.3358 -0.75,0.75 z m -0.75,7 c 0,0.4142 0.3358,0.75 0.75,0.75 0.4142,0 0.75,-0.3358 0.75,-0.75 z m 4.1104,0.3916 c 0.2162,0.3533 0.678,0.4643 1.0312,0.248 0.3533,-0.2162 0.4643,-0.678 0.248,-1.0312 z M 18,15.75 h 2.2857 v -1.5 H 18 Z m 0.75,2.75 V 15 h -1.5 v 3.5 z m 2.5,-1.75 c 0,0.5669 -0.4462,1 -0.9643,1 v 1.5 c 1.3755,0 2.4643,-1.1339 2.4643,-2.5 z m -0.9643,-1 c 0.5181,0 0.9643,0.4331 0.9643,1 h 1.5 c 0,-1.3661 -1.0888,-2.5 -2.4643,-2.5 z m 0,2 h -0.4286 v 1.5 h 0.4286 z m -0.4286,0 H 18 v 1.5 h 1.8571 z m -0.6396,1.1416 2.1429,3.5 1.2792,-0.7832 -2.1428,-3.5 z M 17.25,18.5 V 22 h 1.5 v -3.5 z"
   
     id="path9" />
</svg>
