<?xml version="1.0" encoding="UTF-8" standalone="no"?>
<svg
   width="24"
   height="24"
   viewBox="0 0 24 24"

   version="1.1"
   id="svg2"
   xmlns="http://www.w3.org/2000/svg"
   xmlns:svg="http://www.w3.org/2000/svg">
  <defs
     id="defs2" />
  <path
    
     d="m 9.5,6.25 c -4.5474612,0 -8.25,3.7025388 -8.25,8.25 0,4.547461 3.7025388,8.25 8.25,8.25 4.547461,0 8.25,-3.702539 8.25,-8.25 0,-4.5474612 -3.702539,-8.25 -8.25,-8.25 z m 0,1.5 c 3.736802,0 6.75,3.013198 6.75,6.75 0,3.736802 -3.013198,6.75 -6.75,6.75 -3.7368018,0 -6.75,-3.013198 -6.75,-6.75 0,-3.736802 3.0131982,-6.75 6.75,-6.75 z"
     id="path3" />
  <path
    
     d="m 17,6.25 a 0.75,0.75 0 0 0 -0.53125,0.21875 l -2,2 a 0.75,0.75 0 0 0 0,1.0625 0.75,0.75 0 0 0 1.0625,0 l 2,-2 a 0.75,0.75 0 0 0 0,-1.0625 A 0.75,0.75 0 0 0 17,6.25 Z"
     id="path4" />
  <path
 
     d="m 18.5,1.25 c -0.48933,0 -1.011617,0.3078494 -1.216797,0.828125 L 16.660156,3.6601563 15.078125,4.2832031 C 14.557844,4.4883875 14.25,5.0106604 14.25,5.5 c 0,0.4893396 0.307844,1.0116125 0.828125,1.2167969 l 1.582031,0.6230468 0.623047,1.5820313 C 17.488383,9.4421506 18.01067,9.75 18.5,9.75 c 0.48933,0 1.011617,-0.3078494 1.216797,-0.828125 L 20.339844,7.3398437 21.921875,6.7167969 C 22.442156,6.5116125 22.75,5.9893396 22.75,5.5 22.75,5.0106604 22.442156,4.4883875 21.921875,4.2832031 L 20.339844,3.6601563 19.716797,2.078125 C 19.511617,1.5578494 18.98933,1.25 18.5,1.25 Z m 0,1.8320313 0.476562,1.2050781 c 0.132805,0.3367198 0.399566,0.6035433 0.736329,0.7363281 L 20.917969,5.5 19.712891,5.9765625 C 19.376128,6.1093473 19.109367,6.3761708 18.976562,6.7128906 L 18.5,7.9179687 18.023437,6.7128906 C 17.890633,6.3761708 17.623872,6.1093473 17.287109,5.9765625 L 16.082031,5.5 17.287109,5.0234375 c 0.336763,-0.1327848 0.603524,-0.3996083 0.736328,-0.7363281 z"
     id="path5" />
</svg>
