<?xml version="1.0" encoding="UTF-8" standalone="no"?>
<svg
   width="24"
   height="24"
   viewBox="0 0 24 24"
 
   version="1.1"
   id="svg4"
   xmlns="http://www.w3.org/2000/svg"
   xmlns:svg="http://www.w3.org/2000/svg">
  <defs
     id="defs4" />
  <path
  
     d="m 12,1.25 c -0.976694,0 -1.837022,0.3092249 -3.4042969,0.8457031 L 8.0214844,2.2910156 C 6.5181911,2.8056 5.387453,3.1921473 4.5527344,3.53125 3.7180157,3.8703527 3.1567456,4.0922989 2.7636719,4.6523437 2.3741653,5.2072915 2.3480602,5.8067995 2.2988281,6.7109375 2.249596,7.6150755 2.25,8.8172022 2.25,10.416016 v 1.576172 c 0,3.00696 1.1533679,5.304011 2.6464844,6.949218 1.4931165,1.645207 3.3074007,2.664593 4.7011719,3.273438 C 10.319064,22.52993 10.903393,22.75 12,22.75 c 1.096607,0 1.680971,-0.220068 2.402344,-0.535156 1.39377,-0.608844 3.208045,-1.628231 4.701172,-3.273438 C 20.596642,17.2962 21.75,14.99915 21.75,11.992188 v -1.576172 c 0,-1.5988138 4.01e-4,-2.8009425 -0.04883,-3.7050785 C 21.651942,5.8068015 21.625814,5.2072914 21.236328,4.6523437 20.843256,4.0922862 20.281987,3.8703527 19.447266,3.53125 18.612544,3.1921473 17.481814,2.8056 15.978516,2.2910156 L 15.404297,2.0957031 C 13.837003,1.5592252 12.976694,1.25 12,1.25 Z m 0,1.5 c 0.646105,0 1.352619,0.2271908 2.919922,0.7636719 l 0.572266,0.1972656 c 1.503298,0.5145846 2.627672,0.8990377 3.390624,1.2089844 0.762953,0.3099466 1.140573,0.615938 1.125,0.59375 -0.01199,-0.017078 0.150167,0.4501646 0.195313,1.2792968 C 20.248271,7.622101 20.25,8.8172022 20.25,10.416016 v 1.576172 c 0,2.631031 -0.966542,4.518615 -2.257813,5.941406 -1.29127,1.42279 -2.925578,2.353295 -4.191406,2.90625 C 13.079355,21.154955 12.941991,21.25 12,21.25 11.058009,21.25 10.920689,21.15496 10.199219,20.839844 8.9333926,20.28689 7.2990732,19.356384 6.0078125,17.933594 4.7165518,16.510804 3.75,14.623221 3.75,11.992188 V 10.416016 C 3.75,8.8172022 3.75173,7.6220991 3.796875,6.7929687 3.842023,5.9638384 4.0041744,5.4965935 3.9921875,5.5136719 c -0.015564,0.022175 0.3620503,-0.2838033 1.125,-0.59375 C 5.8801372,4.6099752 7.0045188,4.2255221 8.5078125,3.7109375 L 9.0800781,3.5136719 C 10.64736,2.9771911 11.353895,2.75 12,2.75 Z"
     id="path1" />
  <path
     
     d="M 12,6.25 C 11.244916,6.25 10.496426,6.3985361 9.7988281,6.6875 9.1012118,6.9764638 8.4675278,7.3996482 7.9335937,7.9335937 7.399652,8.467524 6.976465,9.1011975 6.6875,9.7988281 6.3985361,10.496426 6.25,11.244916 6.25,12 c 0,0.755084 0.1485361,1.503574 0.4375,2.201172 0.2889637,0.69757 0.7121535,1.331294 1.2460937,1.865234 0.5339265,0.533938 1.1676123,0.95711 1.8652344,1.246094 C 10.496462,17.601513 11.244939,17.75 12,17.75 c 0.755061,0 1.503538,-0.148487 2.201172,-0.4375 0.697561,-0.288983 1.331298,-0.712157 1.865234,-1.246094 C 16.600343,15.53247 17.023517,14.898733 17.3125,14.201172 17.601513,13.503538 17.75,12.755061 17.75,12 17.75,11.244939 17.601513,10.496462 17.3125,9.7988281 17.023517,9.1012203 16.600348,8.467524 16.066406,7.9335937 15.532466,7.3996535 14.898742,6.9764637 14.201172,6.6875 13.503574,6.3985361 12.755084,6.25 12,6.25 Z m 0,1.5 c 0.558115,0 1.111353,0.1106432 1.626953,0.3242188 0.515629,0.2135958 0.984248,0.525263 1.378906,0.9199218 0.394658,0.3946489 0.706306,0.8632353 0.919922,1.3789064 C 16.139368,10.888612 16.25,11.441862 16.25,12 c 0,0.558138 -0.110632,1.111388 -0.324219,1.626953 -0.213616,0.515638 -0.525259,0.984244 -0.919922,1.378906 -0.394662,0.394663 -0.863268,0.706306 -1.378906,0.919922 C 13.111388,16.139368 12.558138,16.25 12,16.25 11.441862,16.25 10.888612,16.139368 10.373047,15.925781 9.8573702,15.712166 9.3887933,15.400521 8.9941406,15.005859 8.5994818,14.611201 8.2878146,14.142582 8.0742188,13.626953 7.8606432,13.111353 7.75,12.558115 7.75,12 7.75,11.441885 7.8606432,10.888647 8.0742188,10.373047 8.2878132,9.8573787 8.5994833,9.3887895 8.9941406,8.9941406 9.3887857,8.5994871 9.8573844,8.2878144 10.373047,8.0742188 10.888647,7.8606432 11.441885,7.75 12,7.75 Z"
     id="path2" />
  <path
     
     d="m 12,6.25 c -0.508849,0 -0.965306,0.2580099 -1.304687,0.609375 C 10.356096,7.2107279 10.099608,7.6581496 9.8886719,8.1855469 9.6777496,8.712898 9.5200444,9.3139613 9.4121094,9.9648438 9.3042633,10.615783 9.25,11.304031 9.25,12 c 0,0.695969 0.054263,1.384217 0.1621094,2.035156 0.1078533,0.650983 0.2656758,1.252024 0.4765625,1.779297 0.2109351,0.527394 0.4674421,0.974809 0.8066411,1.326172 C 11.034719,17.492058 11.491209,17.75 12,17.75 c 0.508791,0 0.965281,-0.257942 1.304688,-0.609375 0.339198,-0.351363 0.595705,-0.798778 0.80664,-1.326172 0.210921,-0.52736 0.368628,-1.128468 0.476563,-1.779297 C 14.695737,13.384217 14.75,12.695969 14.75,12 14.75,11.304031 14.695737,10.615783 14.587891,9.9648438 14.479956,9.3139732 14.322252,8.7129014 14.111328,8.1855469 13.900392,7.6581496 13.643904,7.2107279 13.304688,6.859375 12.965306,6.5080099 12.508849,6.25 12,6.25 Z m 0,1.5 c 0.01635,0 0.08054,0.00117 0.226563,0.1523437 0.145983,0.1512066 0.331724,0.438642 0.492187,0.8398438 0.160476,0.4012245 0.295407,0.9043887 0.388672,1.4667965 C 13.200576,10.771244 13.25,11.38277 13.25,12 c 0,0.61723 -0.04942,1.228756 -0.142578,1.791016 -0.09326,0.56237 -0.228194,1.065557 -0.388672,1.466797 -0.160465,0.401205 -0.346186,0.688606 -0.492187,0.839843 C 12.080569,16.248823 12.016408,16.25 12,16.25 11.98359,16.25 11.91943,16.2488 11.773438,16.097656 11.627436,15.946419 11.441715,15.659018 11.28125,15.257813 11.120737,14.856487 10.985725,14.353231 10.892578,13.791016 10.799424,13.228756 10.75,12.61723 10.75,12 c 0,-0.61723 0.04942,-1.228756 0.142578,-1.791016 C 10.985843,9.646568 11.120773,9.1434155 11.28125,8.7421875 11.441713,8.3409857 11.627454,8.0535503 11.773438,7.9023437 11.919456,7.7511693 11.983649,7.75 12,7.75 Z"
     id="path3" />
  <path
    
     d="M 7,11.25 A 0.75,0.75 0 0 0 6.25,12 0.75,0.75 0 0 0 7,12.75 H 17 A 0.75,0.75 0 0 0 17.75,12 0.75,0.75 0 0 0 17,11.25 Z"
     id="path4" />
</svg>
