<?xml version="1.0" encoding="UTF-8" standalone="no"?>
<svg
   width="24"
   height="24"
   viewBox="0 0 24 24"
  
   version="1.1"
   id="svg3"
   xmlns="http://www.w3.org/2000/svg"
   xmlns:svg="http://www.w3.org/2000/svg">
  <defs
     id="defs3" />
  <path
  
     d="m 12,1.25 c -0.976694,0 -1.837022,0.3092249 -3.4042969,0.8457031 L 8.0214844,2.2910156 C 6.5181911,2.8056 5.387453,3.1921473 4.5527344,3.53125 3.7180157,3.8703527 3.1567456,4.0922989 2.7636719,4.6523437 2.3741653,5.2072915 2.3480602,5.8067995 2.2988281,6.7109375 2.249596,7.6150755 2.25,8.8172022 2.25,10.416016 v 1.576172 c 0,3.00696 1.1533679,5.304011 2.6464844,6.949218 1.4931165,1.645207 3.3074007,2.664593 4.7011719,3.273438 C 10.319064,22.52993 10.903393,22.75 12,22.75 c 1.096607,0 1.680971,-0.220068 2.402344,-0.535156 1.39377,-0.608844 3.208045,-1.628231 4.701172,-3.273438 C 20.596642,17.2962 21.75,14.99915 21.75,11.992188 v -1.576172 c 0,-1.5988138 4.01e-4,-2.8009425 -0.04883,-3.7050785 C 21.651942,5.8068015 21.625814,5.2072914 21.236328,4.6523437 20.843256,4.0922862 20.281987,3.8703527 19.447266,3.53125 18.612544,3.1921473 17.481814,2.8056 15.978516,2.2910156 L 15.404297,2.0957031 C 13.837003,1.5592252 12.976694,1.25 12,1.25 Z m 0,1.5 c 0.646105,0 1.352619,0.2271908 2.919922,0.7636719 l 0.572266,0.1972656 c 1.503298,0.5145846 2.627672,0.8990377 3.390624,1.2089844 0.762953,0.3099466 1.140573,0.615938 1.125,0.59375 -0.01199,-0.017078 0.150167,0.4501646 0.195313,1.2792968 C 20.248271,7.622101 20.25,8.8172022 20.25,10.416016 v 1.576172 c 0,2.631031 -0.966542,4.518615 -2.257813,5.941406 -1.29127,1.42279 -2.925578,2.353295 -4.191406,2.90625 C 13.079355,21.154955 12.941991,21.25 12,21.25 11.058009,21.25 10.920689,21.15496 10.199219,20.839844 8.9333926,20.28689 7.2990732,19.356384 6.0078125,17.933594 4.7165518,16.510804 3.75,14.623221 3.75,11.992188 V 10.416016 C 3.75,8.8172022 3.75173,7.6220991 3.796875,6.7929687 3.842023,5.9638384 4.0041744,5.4965935 3.9921875,5.5136719 c -0.015564,0.022175 0.3620503,-0.2838033 1.125,-0.59375 C 5.8801372,4.6099752 7.0045188,4.2255221 8.5078125,3.7109375 L 9.0800781,3.5136719 C 10.64736,2.9771911 11.353895,2.75 12,2.75 Z"
     id="path1" />
  <path
  
     d="M 12,7.2089844 2.7636719,10.289063 3.2363281,11.710938 12,8.7910156 l 8.763672,2.9199224 0.472656,-1.421875 z"
     id="path2" />
  <path
  
     d="m 11.25,2 v 19.5 h 1.5 V 2 Z"
     id="path3" />
</svg>
