<?xml version="1.0" encoding="UTF-8" standalone="no"?>
<svg
   width="24"
   height="24"
   viewBox="0 0 24 24"
   version="1.1"
   id="svg2"
   xmlns="http://www.w3.org/2000/svg"
   xmlns:svg="http://www.w3.org/2000/svg">
  <defs
     id="defs2" />
  <path
   
     d="m 15.917969,1.2539062 c -0.838165,0 -1.675393,0.3179578 -2.310547,0.9531251 -0.959865,0.9597749 -1.412308,2.441518 -1.041016,3.7832031 0.112495,0.406565 0.06354,0.7567703 -0.02734,0.8476562 L 6.8378906,12.539063 c -0.090886,0.09089 -0.4411736,0.139891 -0.8476562,0.02734 -1.3416536,-0.371151 -2.823426,0.08128 -3.7832031,1.041016 -1.27029093,1.270394 -1.27033464,3.352738 0,4.623047 0.7304857,0.730463 1.7229495,0.990472 2.6816406,0.880859 -0.1096169,0.958705 0.150369,1.951165 0.8808593,2.681641 1.2703427,1.270304 3.3527042,1.270304 4.6230468,0 0.959746,-0.959746 1.412331,-2.44149 1.041016,-3.783203 -0.112511,-0.4066 -0.0635,-0.756811 0.02734,-0.847657 l 5.701171,-5.701171 c 0.09089,-0.09089 0.441223,-0.139885 0.847657,-0.02734 1.341684,0.371138 2.823458,-0.08123 3.783203,-1.041016 1.270418,-1.270328 1.270418,-3.3527186 0,-4.6230468 C 21.062503,5.0390436 20.07001,4.7790548 19.111328,4.8886719 19.220926,3.9299706 18.960998,2.9375086 18.230469,2.2070313 17.595314,1.571864 16.756133,1.2539062 15.917969,1.2539062 Z m 0,1.4921876 c 0.451134,0 0.903408,0.1729326 1.251953,0.5214843 0.697178,0.6971281 0.697088,1.8048511 0,2.5019531 a 0.750075,0.750075 0 0 0 1.060547,1.0605469 c 0.697091,-0.6971052 1.804864,-0.6971102 2.501953,0 0.697179,0.6971299 0.697179,1.8048232 0,2.5019532 C 20.205768,9.858706 19.09507,10.177743 18.410156,9.9882813 17.743991,9.803822 16.797671,9.704282 16.101562,10.400391 l -5.701171,5.701171 c -0.696154,0.696154 -0.5963989,1.642595 -0.4121097,2.308594 0.1894847,0.684685 -0.1295973,1.795613 -0.65625,2.322266 -0.6971154,0.697094 -1.8048378,0.697094 -2.5019532,0 -0.6970855,-0.697071 -0.6970855,-1.804882 0,-2.501953 A 0.750075,0.750075 0 0 0 5.7695312,17.169922 c -0.697102,0.697088 -1.8048395,0.697092 -2.5019531,0 -0.6971034,-0.697089 -0.6971471,-1.804749 0,-2.501953 0.5266814,-0.52666 1.6374412,-0.845698 2.3222656,-0.65625 0.6661763,0.184452 1.6125006,0.284001 2.3085938,-0.41211 L 13.599609,7.8984375 c 0.696111,-0.6960932 0.596415,-1.6424999 0.41211,-2.3085938 -0.189507,-0.6847929 0.129517,-1.795582 0.65625,-2.3222656 0.348544,-0.3485517 0.798865,-0.5214843 1.25,-0.5214843 z"
     id="path1" />
  <path
   
     d="M 10.232422,9.4824219 A 0.75,0.75 0 0 0 9.4824219,10.232422 v 2.121094 a 0.750075,0.750075 0 0 0 0.9863281,0.710937 l 1.134766,-0.378906 v 0.375 a 0.750075,0.750075 0 0 0 0.90625,0.734375 l 2.644531,-0.560547 A 0.75,0.75 0 0 0 15.734375,12.34375 0.75,0.75 0 0 0 14.84375,11.765625 l -1.740234,0.369141 V 11.646484 A 0.750075,0.750075 0 0 0 12.117188,10.935547 L 10.982422,11.3125 v -1.080078 a 0.75,0.75 0 0 0 -0.75,-0.7500001 z"
     id="path2" />
</svg>
