<?xml version="1.0" encoding="UTF-8" standalone="no"?>
<svg
   width="24"
   height="24"
   viewBox="0 0 24 24"
 
   version="1.1"
   id="svg7"
   xmlns="http://www.w3.org/2000/svg"
   xmlns:svg="http://www.w3.org/2000/svg">
  <defs
     id="defs7" />
  <path
   
     d="M 9,3.25 C 8.0571909,3.25 7.3346696,3.2454312 6.7050781,3.3300781 6.0754867,3.4147251 5.4898365,3.6195311 5.0546875,4.0546875 4.6195311,4.4898365 4.4147251,5.0754867 4.3300781,5.7050781 4.2454312,6.3346696 4.25,7.0571909 4.25,8 v 7.882813 c 0,0.970446 0.4079972,1.898507 1.1230469,2.554687 3.7437922,3.435221 9.5101521,3.435226 13.2539061,0 C 19.342071,17.781317 19.75,16.853253 19.75,15.882813 V 8 C 19.75,7.0571909 19.7546,6.3346709 19.66992,5.7050781 19.585273,5.0754853 19.380475,4.4898352 18.945312,4.0546875 18.510157,3.6195399 17.924511,3.4147251 17.294922,3.3300781 16.665333,3.2454312 15.942799,3.25 15,3.25 Z m 0,1.5 h 6 c 0.942799,0 1.63409,0.00461 2.09375,0.066406 0.45966,0.0618 0.640371,0.1481864 0.791016,0.2988282 C 18.035402,5.265866 18.121792,5.4465889 18.183594,5.90625 18.245395,6.3659111 18.25,7.0571909 18.25,8 v 7.882813 c 0,0.550958 -0.230637,1.076603 -0.636719,1.449218 -3.180039,2.917968 -8.0464814,2.917972 -11.2265623,0 C 5.9806696,16.959412 5.75,16.433764 5.75,15.882813 V 8 C 5.75,7.0571909 5.75461,6.3659125 5.816406,5.90625 5.8782067,5.4465875 5.9646013,5.2658648 6.1152344,5.1152344 6.2658648,4.9646013 6.4465875,4.8782067 6.90625,4.8164062 7.3659125,4.7546058 8.0571909,4.75 9,4.75 Z"
     id="path1" />
  <path
   
     d="M 17,7.25 A 0.75,0.75 0 0 0 16.25,8 0.75,0.75 0 0 0 17,8.75 h 2 A 0.75,0.75 0 0 0 19.75,8 0.75,0.75 0 0 0 19,7.25 Z"
     id="path2" />
  <path
   
     d="M 17,13.25 A 0.75,0.75 0 0 0 16.25,14 0.75,0.75 0 0 0 17,14.75 h 2 A 0.75,0.75 0 0 0 19.75,14 0.75,0.75 0 0 0 19,13.25 Z"
     id="path3" />
  <path
  
     d="m 12,8.6054688 c -0.430631,0 -0.861783,0.1647853 -1.175781,0.4960937 C 10.512462,9.4305057 10.145337,9.850671 9.8378906,10.316406 9.5304443,10.782141 9.25,11.284153 9.25,11.916016 9.25,13.455715 10.473212,14.75 12,14.75 c 1.526788,0 2.75,-1.294285 2.75,-2.833984 0,-0.631863 -0.280444,-1.133875 -0.587891,-1.59961 C 13.854663,9.850671 13.487538,9.4305057 13.175781,9.1015625 12.861783,8.7702541 12.430631,8.6054688 12,8.6054688 Z m -0.08594,1.5273442 c 0.066,-0.06964 0.105871,-0.06964 0.171875,0 0.274342,0.289466 0.59364,0.660474 0.824218,1.009765 C 13.140734,11.49187 13.25,11.827978 13.25,11.916016 13.25,12.677514 12.68241,13.25 12,13.25 c -0.68241,0 -1.25,-0.572486 -1.25,-1.333984 0,-0.08804 0.109266,-0.424146 0.339844,-0.773438 0.230578,-0.349291 0.549876,-0.720299 0.824219,-1.009765 z"
     id="path4" />
  <path
   
     d="M 17,10.25 A 0.75,0.75 0 0 0 16.25,11 0.75,0.75 0 0 0 17,11.75 h 2 A 0.75,0.75 0 0 0 19.75,11 0.75,0.75 0 0 0 19,10.25 Z"
     id="path5" />
  <path
   
     d="M 12,20.25 A 0.75,0.75 0 0 0 11.25,21 v 1 A 0.75,0.75 0 0 0 12,22.75 0.75,0.75 0 0 0 12.75,22 V 21 A 0.75,0.75 0 0 0 12,20.25 Z"
     id="path6" />
  <path
   
     d="M 12,1.25 C 10.490083,1.25 9.25,2.4901154 9.25,4 A 0.75,0.75 0 0 0 10,4.75 0.75,0.75 0 0 0 10.75,4 c 0,-0.6992532 0.550719,-1.25 1.25,-1.25 0.699281,0 1.25,0.5507468 1.25,1.25 A 0.75,0.75 0 0 0 14,4.75 0.75,0.75 0 0 0 14.75,4 C 14.75,2.4901154 13.509917,1.25 12,1.25 Z"
     id="path7" />
</svg>
