<?xml version="1.0" encoding="utf-8"?>
<!-- Generator: Adobe Illustrator 27.9.0, SVG Export Plug-In . SVG Version: 6.00 Build 0)  -->
<svg version="1.1" id="Calque_1" xmlns="http://www.w3.org/2000/svg" xmlns:xlink="http://www.w3.org/1999/xlink" x="0px" y="0px"
	 viewBox="0 0 24 24" style="enable-background:new 0 0 24 24;" xml:space="preserve">
<path d="M18,11.8c-0.2,0-0.4-0.1-0.6-0.3c-0.3-0.3-0.2-0.8,0.1-1.1l0.8-0.7c-1.6,0-2.6-0.1-3.3-0.8C14.2,8.1,14.2,7,14.2,5V4
	c0-0.4,0.3-0.8,0.8-0.8s0.8,0.3,0.8,0.8v1c0,1.7,0,2.5,0.4,2.9c0.3,0.3,0.9,0.4,2.2,0.4l-0.8-0.7c-0.3-0.3-0.4-0.7-0.1-1.1
	c0.3-0.3,0.7-0.4,1.1-0.1l2.5,2c0,0,0.1,0,0.1,0.1c0.1,0.1,0.1,0.1,0.1,0.2c0,0,0,0,0,0.1l0,0c0,0,0,0,0,0c0,0,0,0,0,0l0,0
	c0,0,0,0,0,0c0,0,0,0,0,0v0c0,0,0,0,0,0c0,0,0,0,0,0c0,0,0,0,0,0c0,0,0,0,0,0c0,0,0,0,0,0c0,0,0,0,0,0c0,0,0,0,0,0v0c0,0,0,0,0,0v0
	c0,0,0,0,0,0l0,0c0,0,0,0,0,0l0,0c0,0.1,0,0.2,0,0.2c0,0.1,0,0.2,0,0.2l0,0c0,0,0,0,0,0v0c0,0,0,0,0,0v0c0,0,0,0,0,0c0,0,0,0,0,0
	l0,0c0,0,0,0,0,0c0,0,0,0,0,0s0,0,0,0c0,0,0,0,0,0v0c0,0,0,0,0,0c0,0,0,0,0,0l0,0c0,0,0,0,0,0c0,0,0,0,0,0c0,0,0,0,0,0.1
	c0,0.1-0.1,0.1-0.1,0.2c0,0,0,0-0.1,0.1l-2.5,2C18.3,11.7,18.2,11.8,18,11.8z"/>
<path d="M10,5.3l0.6,1.2c0.6,1,0.4,2.4-0.6,3.3l0,0c0,0-1.1,1.1,0.9,3.1c2,2,3.1,0.9,3.1,0.9l0,0c0.9-0.9,2.3-1.2,3.3-0.6l1.2,0.6
	c1.6,0.9,1.8,3.1,0.4,4.5c-0.8,0.8-1.9,1.5-3,1.5c-1.9,0.1-5.1-0.4-8.4-3.7C4.4,13.1,3.9,9.8,4,7.9c0-1.1,0.7-2.2,1.5-3
	C6.9,3.5,9.2,3.7,10,5.3z"/>
</svg>
