<?xml version="1.0" encoding="utf-8"?>
<!-- Generator: Adobe Illustrator 27.9.0, SVG Export Plug-In . SVG Version: 6.00 Build 0)  -->
<svg version="1.1" id="Calque_1" xmlns="http://www.w3.org/2000/svg" xmlns:xlink="http://www.w3.org/1999/xlink" x="0px" y="0px"
	 viewBox="0 0 24 24" style="enable-background:new 0 0 24 24;" xml:space="preserve">
<path d="M18,9.8h-3c-0.1,0-0.2,0-0.3-0.1c-0.1,0-0.2-0.1-0.2-0.2s-0.1-0.2-0.2-0.2c0-0.1-0.1-0.2-0.1-0.3V6c0-0.4,0.3-0.8,0.8-0.8
	s0.8,0.3,0.8,0.8v1.2l2.7-2.7c0.3-0.3,0.8-0.3,1.1,0s0.3,0.8,0,1.1l-2.7,2.7H18c0.4,0,0.8,0.3,0.8,0.8S18.4,9.8,18,9.8z"/>
<path d="M10,5.3l0.6,1.2c0.6,1,0.4,2.4-0.6,3.3l0,0c0,0-1.1,1.1,0.9,3.1c2,2,3.1,0.9,3.1,0.9l0,0c0.9-0.9,2.3-1.2,3.3-0.6l1.2,0.6
	c1.6,0.9,1.8,3.1,0.4,4.5c-0.8,0.8-1.9,1.5-3,1.5c-1.9,0.1-5.1-0.4-8.4-3.7C4.4,13.1,3.9,9.8,4,7.9c0-1.1,0.7-2.2,1.5-3
	C6.9,3.5,9.2,3.7,10,5.3z"/>
</svg>
