<?xml version="1.0" encoding="utf-8"?>
<!-- Generator: Adobe Illustrator 27.9.0, SVG Export Plug-In . SVG Version: 6.00 Build 0)  -->
<svg version="1.1" id="Calque_1" xmlns="http://www.w3.org/2000/svg" xmlns:xlink="http://www.w3.org/1999/xlink" x="0px" y="0px"
	 viewBox="0 0 24 24" style="enable-background:new 0 0 24 24;" xml:space="preserve">
<path d="M18,9.8h-3c-0.1,0-0.2,0-0.3-0.1c-0.1,0-0.2-0.1-0.2-0.2s-0.1-0.2-0.2-0.2c0-0.1-0.1-0.2-0.1-0.3V6c0-0.4,0.3-0.8,0.8-0.8
	s0.8,0.3,0.8,0.8v1.2l2.7-2.7c0.3-0.3,0.8-0.3,1.1,0s0.3,0.8,0,1.1l-2.7,2.7H18c0.4,0,0.8,0.3,0.8,0.8S18.4,9.8,18,9.8z"/>
<path d="M15.6,14.5L15.1,15c0,0-1.1,1.1-4-2c-3-3.1-1.9-4.3-1.9-4.3l0.3-0.3c0.7-0.7,0.8-1.9,0.2-2.8L8.4,3.9
	C7.6,2.8,6.1,2.7,5.3,3.6L3.7,5.3C3.3,5.7,3,6.3,3,7c0.1,1.7,0.8,5.3,4.8,9.5c4.2,4.5,8.2,4.6,9.9,4.5c0.5-0.1,1-0.3,1.3-0.7
	l1.4-1.5c1-1,0.7-2.7-0.5-3.4L18,14.2C17.2,13.7,16.2,13.9,15.6,14.5z"/>
</svg>
