<?xml version="1.0" encoding="UTF-8" standalone="no"?>
<svg
   width="24"
   height="24"
   viewBox="0 0 24 24"
   
   version="1.1"
   id="svg2"
   xmlns="http://www.w3.org/2000/svg"
   xmlns:svg="http://www.w3.org/2000/svg">
  <defs
     id="defs2" />
  <path
    
     d="M 13.736328,2.4414063 C 13.288597,2.4264834 12.848647,2.5384466 12.480469,2.7597656 11.744113,3.2024037 11.25,4.0424478 11.25,5.0097656 v 0.3242188 c 0,0.6158221 -0.140252,1.5738615 -0.466797,2.453125 C 10.456658,8.6663729 9.947212,9.4529674 9.3007813,9.8730469 9.117572,9.9921116 9.0910895,9.9682481 8.9316406,9.8476563 8.7721917,9.7270644 8.5939255,9.4337156 8.5625,9.1269531 L 8.4765625,8.2890625 C 8.4025696,7.5667027 7.9949342,6.9551123 7.4082031,6.6347656 6.8214721,6.3144189 6.0111001,6.3359209 5.4042969,6.7988281 3.8704592,7.9689182 2.25,10.067028 2.25,13.111328 c 0,3.741484 1.4363177,6.229015 3.2539062,7.695313 C 7.3214948,22.272939 9.4433187,22.75 10.933594,22.75 c 1.658205,0 4.043934,-0.464945 6.099609,-1.916016 C 19.088879,19.382914 20.75,16.879373 20.75,13.111328 20.75,8.2714031 17.726786,4.8330144 15.041016,2.890625 14.638628,2.5996207 14.18406,2.4563291 13.736328,2.4414063 Z M 13.253906,4.046875 c 0.275168,-0.1654088 0.55448,-0.1972167 0.908203,0.058594 2.440225,1.7648066 5.087891,4.7921332 5.087891,9.005859 0,3.343048 -1.359936,5.282445 -3.082031,6.498047 C 14.445873,20.824977 12.297686,21.25 10.933594,21.25 9.7794614,21.25 7.9332681,20.839046 6.4453125,19.638672 4.9573569,18.438298 3.75,16.480937 3.75,13.111328 c 0,-2.518894 1.3013136,-4.1575059 2.5644531,-5.1210936 0.171646,-0.1309422 0.2461818,-0.1093954 0.375,-0.039063 0.1288183,0.070333 0.2691449,0.2405383 0.2949219,0.4921875 l 0.085937,0.8359375 c 0.073094,0.7135165 0.4109509,1.3506686 0.9570313,1.7636726 0.5460803,0.413002 1.4130538,0.527725 2.0898447,0.08789 C 11.155235,10.45629 11.791779,9.3793808 12.189453,8.3085938 12.587127,7.2378067 12.75,6.1600208 12.75,5.3339844 V 5.0097656 c 0,-0.4623907 0.228738,-0.7974818 0.503906,-0.9628906 z"
     id="path1" />
  <path

     d="M 11.298828,13.974609 C 10.843788,13.699213 10.180242,13.701803 9.6972656,14.052734 8.5447649,14.890198 7.25,16.368506 7.25,18.445312 c 0,1.640953 0.7821039,2.81527 1.7265625,3.462891 C 9.9210211,22.555824 10.967363,22.75 11.732422,22.75 c 0.70771,0 1.659703,-0.208001 2.505859,-0.871094 C 15.084437,21.215813 15.75,20.058922 15.75,18.445312 c 0,-1.368618 -0.754369,-2.343133 -1.458984,-2.873046 -0.420148,-0.315955 -0.979688,-0.336097 -1.394532,-0.15625 -0.343325,0.148841 -0.55869,0.475313 -0.720703,0.826171 -0.05835,-0.301069 -0.130859,-0.60025 -0.130859,-0.908203 0,-0.569713 -0.291054,-1.083978 -0.746094,-1.359375 z m -0.761719,1.333985 c 0.0041,0.01148 0.0078,0.0031 0.0078,0.02539 0,0.4623 -0.06349,1.326705 0.402344,2.121094 0.155578,0.265345 0.415462,0.501518 0.728515,0.59375 0.313053,0.09223 0.629708,0.03592 0.871094,-0.07813 0.475951,-0.224859 0.760668,-0.636771 0.90625,-1.128906 0.409953,0.329425 0.796875,0.815417 0.796875,1.603515 0,1.230788 -0.422532,1.850351 -0.9375,2.253907 C 12.797532,21.102775 12.11361,21.25 11.732422,21.25 11.253082,21.25 10.435309,21.08895 9.8242188,20.669922 9.2131289,20.250894 8.75,19.648757 8.75,18.445312 c 0,-1.424801 0.890232,-2.471583 1.787109,-3.136718 z"
     id="path2" />
</svg>
