<?xml version="1.0" encoding="UTF-8" standalone="no"?>
<svg
   width="24"
   height="24"
   viewBox="0 0 24 24"
 
   version="1.1"
   id="svg5"
   xmlns="http://www.w3.org/2000/svg"
   xmlns:svg="http://www.w3.org/2000/svg">
  <defs
     id="defs5" />
  <path
    
     d="M 12,1.25 C 9.6429774,1.25 7.860594,1.2449714 6.4140625,1.4394531 4.967531,1.6339349 3.8080817,2.0590998 2.9335938,2.9335938 2.0590998,3.8080817 1.6339349,4.967531 1.4394531,6.4140625 1.2449714,7.860594 1.25,9.6429774 1.25,12 c 0,2.356998 -0.00503,4.1394 0.1894531,5.585937 0.1944817,1.446538 0.6196331,2.606004 1.4941407,3.480469 0.8744865,0.874511 2.0339355,1.299655 3.4804687,1.494141 C 7.8605957,22.755033 9.6429774,22.75 12,22.75 c 2.356998,0 4.139398,0.005 5.585937,-0.189453 1.44654,-0.194486 2.606005,-0.619617 3.480469,-1.494141 0.874524,-0.874464 1.299655,-2.033929 1.494141,-3.480469 C 22.755033,16.139398 22.75,14.356998 22.75,12 22.75,9.6429774 22.755,7.8605957 22.560547,6.4140625 22.366061,4.9675293 21.940917,3.8080803 21.066406,2.9335938 20.191941,2.0590862 19.032475,1.6339348 17.585937,1.4394531 16.1394,1.2449715 14.356998,1.25 12,1.25 Z m 0,1.5 c 2.356998,0 4.110109,0.00415 5.386719,0.1757813 1.27661,0.1716355 2.029208,0.4783983 2.61914,1.0683593 0.589989,0.589972 0.896721,1.3425391 1.06836,2.6191406 C 21.245857,7.8898828 21.25,9.6429774 21.25,12 c 0,2.356998 -0.0041,4.110111 -0.175781,5.386719 -0.171639,1.276608 -0.478385,2.029206 -1.06836,2.61914 -0.589934,0.589975 -1.342532,0.896721 -2.61914,1.06836 C 16.110111,21.245858 14.356998,21.25 12,21.25 9.6429774,21.25 7.8898828,21.245857 6.6132812,21.074219 5.3366797,20.90258 4.5841126,20.595848 3.9941406,20.005859 3.4041796,19.415927 3.0974168,18.663329 2.9257813,17.386719 2.7541457,16.110109 2.75,14.356998 2.75,12 2.75,9.6429774 2.7541459,7.8898845 2.9257813,6.6132812 3.0974166,5.336678 3.404166,4.5841112 3.9941406,3.9941406 4.5841112,3.404166 5.336678,3.0974166 6.6132812,2.9257813 7.8898845,2.7541459 9.6429774,2.75 12,2.75 Z"
     id="path1" />
  <path
     
     d="M 2.5,7.25 A 0.75,0.75 0 0 0 1.75,8 0.75,0.75 0 0 0 2.5,8.75 h 19 A 0.75,0.75 0 0 0 22.25,8 0.75,0.75 0 0 0 21.5,7.25 Z"
     id="path2" />
  <path
     
     d="M 10.902344,1.8671875 A 0.75,0.75 0 0 0 9.8671875,2.0976563 l -3.5,5.4999999 A 0.75,0.75 0 0 0 6.5976562,8.6328125 0.75,0.75 0 0 0 7.6328125,8.4023438 l 3.5000005,-5.5 A 0.75,0.75 0 0 0 10.902344,1.8671875 Z"
     id="path3" />
  <path
     
     d="m 16.837891,1.7675781 a 0.75,0.75 0 0 0 -0.470704,0.3300782 l -3.499999,5.4999999 a 0.75,0.75 0 0 0 0.230468,1.0351563 0.75,0.75 0 0 0 1.035157,-0.2304687 l 3.499999,-5.5 A 0.75,0.75 0 0 0 17.402344,1.8671875 0.75,0.75 0 0 0 16.837891,1.7675781 Z"
     id="path4" />
  <path
     
     d="m 11.746094,10.964844 c -0.495187,-0.219862 -1.140056,-0.317112 -1.648438,0.0059 -0.5083685,0.322922 -0.7048735,0.898504 -0.7792966,1.45699 C 9.2439362,12.98622 9.25,13.640701 9.25,14.5 c 0,0.859299 -0.00606,1.51378 0.068359,2.072266 0.074423,0.558486 0.2709281,1.134068 0.779297,1.457031 0.508382,0.322971 1.153251,0.225721 1.648438,0.0059 0.495187,-0.219862 1.002781,-0.557286 1.673828,-0.990234 C 14.081916,16.617776 14.5936,16.294969 15,15.935547 15.4064,15.576125 15.75,15.077988 15.75,14.5 15.75,13.922012 15.4064,13.423875 15,13.064453 14.5936,12.705031 14.081916,12.382224 13.419922,11.955078 12.748875,11.52213 12.241281,11.184706 11.746094,10.964844 Z m -0.84375,1.271484 c -0.008,0.0051 -0.06661,-0.03403 0.234375,0.09961 0.300987,0.133637 0.799652,0.445955 1.470703,0.878906 0.662005,0.427153 1.142838,0.746603 1.398437,0.972656 C 14.261458,14.413553 14.25,14.444588 14.25,14.5 c 0,0.05541 0.01146,0.08645 -0.244141,0.3125 -0.255599,0.226053 -0.736432,0.545503 -1.398437,0.972656 -0.671051,0.432951 -1.169716,0.745269 -1.470703,0.878906 -0.300988,0.133638 -0.242358,0.09454 -0.234375,0.09961 0.008,0.0051 -0.04503,-0.0084 -0.0957,-0.388672 C 10.755964,15.994712 10.75,15.359299 10.75,14.5 c 0,-0.859299 0.006,-1.494712 0.05664,-1.875 0.05068,-0.380288 0.103672,-0.393735 0.0957,-0.388672 z"
     id="path5" />
</svg>
