<?xml version="1.0" encoding="UTF-8" standalone="no"?>
<svg
   width="24"
   height="24"
   viewBox="0 0 24 24"
 
   version="1.1"
   id="svg5"
   xmlns="http://www.w3.org/2000/svg"
   xmlns:svg="http://www.w3.org/2000/svg">
  <defs
     id="defs5" />
  <path
    
     d="m 6,15.25 c -2.0621653,0 -3.75,1.687782 -3.75,3.75 0,2.062218 1.6878347,3.75 3.75,3.75 2.0621653,0 3.75,-1.687782 3.75,-3.75 0,-2.062218 -1.6878347,-3.75 -3.75,-3.75 z m 0,1.5 c 1.2515314,0 2.25,0.998421 2.25,2.25 0,1.251579 -0.9984686,2.25 -2.25,2.25 -1.2515314,0 -2.25,-0.998421 -2.25,-2.25 0,-1.251579 0.9984686,-2.25 2.25,-2.25 z"
     id="path1" />
  <path
    
     d="m 18,13.25 c -2.062203,0 -3.75,1.687797 -3.75,3.75 0,2.062203 1.687797,3.75 3.75,3.75 2.062203,0 3.75,-1.687797 3.75,-3.75 0,-2.062203 -1.687797,-3.75 -3.75,-3.75 z m 0,1.5 c 1.251594,0 2.25,0.998406 2.25,2.25 0,1.251594 -0.998406,2.25 -2.25,2.25 -1.251594,0 -2.25,-0.998406 -2.25,-2.25 0,-1.251594 0.998406,-2.25 2.25,-2.25 z"
     id="path2" />
  <path
    
     d="m 8.25,8 v 11 h 1.5 V 8 Z"
     id="path3" />
  <path
    
     d="m 20.25,6 v 11 h 1.5 V 6 Z"
     id="path4" />
  <path
     
     d="m 19.576172,2.1464844 c -0.372157,-0.050401 -0.766395,-0.028157 -1.166016,0.042969 -0.79924,0.1422508 -1.710862,0.4531017 -2.912109,0.8535157 l -4,1.3339843 C 10.838053,4.5969611 10.328419,4.7632727 9.8867188,4.96875 9.4450186,5.1742273 9.0503967,5.4442949 8.7695313,5.8339844 8.4886683,6.2236527 8.3579936,6.6820059 8.3027344,7.1660156 8.2474752,7.6500253 8.25,8.1870882 8.25,8.8828125 V 13.041016 L 21.75,8.5410156 V 7.5488281 c 0,-1.2662287 0.0065,-2.2280297 -0.111328,-3.03125 C 21.520874,3.7143578 21.226205,2.9889453 20.607422,2.5429688 20.298036,2.319981 19.948329,2.1968849 19.576172,2.1464844 Z m -0.902344,1.5195312 c 0.609633,-0.1085039 0.844813,-0.058924 1.056641,0.09375 0.211816,0.1526628 0.333976,0.3619411 0.423828,0.9746094 0.08704,0.5935289 0.09136,1.5198642 0.0918,2.7265625 L 9.75,10.960938 V 8.8828125 C 9.75,8.1870882 9.753848,7.6805451 9.7929688,7.3378906 9.8320895,6.9952361 9.8896714,6.8450387 9.9863281,6.7109375 10.082972,6.5768475 10.20682,6.4735973 10.519531,6.328125 10.832243,6.1826527 11.312652,6.0188397 11.972656,5.7988281 l 4,-1.3320312 c 1.201251,-0.4004153 2.091539,-0.6922773 2.701172,-0.8007813 z"
     id="path5" />
</svg>
