<?xml version="1.0" encoding="UTF-8" standalone="no"?>
<svg
   width="24"
   height="24"
   viewBox="0 0 24 24"
 
   version="1.1"
   id="svg2"
   xmlns="http://www.w3.org/2000/svg"
   xmlns:svg="http://www.w3.org/2000/svg">
  <defs
     id="defs2" />
  <path
    
     d="M 3.8808594,3.2675781 C 3.3882276,3.2839275 2.9111034,3.4481795 2.5214844,3.7324219 1.7422464,4.3009066 1.25,5.2854867 1.25,6.4257812 V 17.574219 c 0,1.140307 0.4922364,2.124882 1.2714844,2.693359 0.7792479,0.568478 1.9120224,0.657264 2.8066406,0.04102 l 0.00977,-0.0059 6.105468,-4.464843 -0.886718,-1.210938 -6.078125,4.447266 c -7.427e-4,5.11e-4 -0.00121,-5.1e-4 -0.00195,0 C 4.0697712,19.353469 3.7523146,19.309102 3.40625,19.056641 3.0595541,18.803719 2.75,18.28131 2.75,17.574219 V 6.4257812 C 2.75,5.7187076 3.0595491,5.1962913 3.40625,4.9433594 3.7523196,4.690888 4.0697788,4.6465483 4.4765625,4.9257812 h 0.00195 L 10.556641,9.3730469 11.443359,8.1640625 5.3378906,3.6972656 5.328125,3.6914063 C 4.8808121,3.383293 4.3734912,3.2512287 3.8808594,3.2675781 Z"
     id="path1" />
  <path
    
     d="M 12.722656,4.2636719 C 12.264424,4.2782366 11.821296,4.4246647 11.455078,4.6796875 10.722642,5.1897331 10.25,6.0878904 10.25,7.1230469 v 9.7539061 c 0,1.035139 0.472649,1.933311 1.205078,2.443359 0.73243,0.510049 1.779522,0.589167 2.619141,0.03711 l 7.416015,-4.876953 c 1.724993,-1.134128 1.724993,-3.82681 0,-4.9609377 L 14.072266,4.6425781 C 13.652459,4.3665482 13.180888,4.2491071 12.722656,4.2636719 Z M 13.25,5.8964844 20.666016,10.773438 c 0.732005,0.48127 0.732005,1.971854 0,2.453125 L 13.25,18.103516 c -0.35428,0.232942 -0.639759,0.193075 -0.939453,-0.01563 C 12.010852,17.87919 11.75,17.458213 11.75,16.876953 V 7.1230469 c 0,-0.581292 0.260859,-1.0022439 0.560547,-1.2109375 C 12.610235,5.7034157 12.895714,5.6635349 13.25,5.8964844 Z"
     id="path2" />
</svg>
