<?xml version="1.0" encoding="UTF-8" standalone="no"?>
<svg
   width="24"
   height="24"
   viewBox="0 0 24 24"
 
   version="1.1"
   id="svg10"
   xmlns="http://www.w3.org/2000/svg"
   xmlns:svg="http://www.w3.org/2000/svg">
  <defs
     id="defs10" />
  <path
    
     d="M 6,1.25 C 5.0571909,1.25 4.3346696,1.2454312 3.7050781,1.3300781 3.0754867,1.4147251 2.4898365,1.6195311 2.0546875,2.0546875 1.6195311,2.4898365 1.4147251,3.0754867 1.3300781,3.7050781 1.2454312,4.3346696 1.25,5.0571909 1.25,6 1.25,6.9428091 1.24543,7.6653304 1.330078,8.2949219 1.414725,8.9245133 1.619531,9.5101635 2.0546874,9.9453125 2.4898364,10.380469 3.0754866,10.585275 3.705078,10.669922 4.3346696,10.754569 5.0571909,10.75 6,10.75 h 5 c 0.942799,0 1.665333,0.0046 2.294922,-0.08008 0.629589,-0.08465 1.215235,-0.289462 1.650391,-0.7246095 0.435162,-0.4351477 0.63996,-1.0207978 0.724609,-1.6503906 C 15.75457,7.6653291 15.75,6.9428091 15.75,6 15.75,5.0571909 15.75457,4.3346709 15.669922,3.7050781 15.585273,3.0754853 15.380475,2.4898352 14.945313,2.0546875 14.510157,1.6195399 13.924511,1.4147251 13.294922,1.3300781 12.665333,1.2454312 11.942799,1.25 11,1.25 Z m 0,1.5 h 5 c 0.942799,0 1.63409,0.00461 2.09375,0.066406 0.45966,0.0618 0.640371,0.1481863 0.791016,0.2988281 C 14.035402,3.265866 14.121792,3.4465889 14.183594,3.90625 14.245395,4.3659111 14.25,5.0571909 14.25,6 c 0,0.9428091 -0.0046,1.6340889 -0.06641,2.09375 -0.0618,0.4596611 -0.148192,0.640384 -0.298828,0.7910156 C 13.734121,9.0354074 13.55341,9.1217934 13.09375,9.1835938 12.63409,9.2453941 11.942799,9.25 11,9.25 H 6 C 5.0571909,9.25 4.3659125,9.2453942 3.90625,9.1835938 3.4465875,9.1217933 3.2658648,9.0353987 3.1152344,8.8847656 2.9646013,8.7341352 2.8782067,8.5534125 2.8164063,8.09375 2.7546058,7.6340875 2.75,6.9428091 2.75,6 2.75,5.0571909 2.7546058,4.3659125 2.8164063,3.90625 2.8782067,3.4465875 2.9646013,3.2658648 3.1152344,3.1152344 3.2658648,2.9646013 3.4465875,2.8782067 3.90625,2.8164063 4.3659125,2.7546058 5.0571909,2.75 6,2.75 Z"
     id="path1" />
  <path
    
     d="m 14,13.25 c -0.942799,0 -1.665332,-0.0046 -2.294922,0.08008 -0.62959,0.08465 -1.215237,0.289456 -1.65039,0.72461 -0.4351543,0.435153 -0.6399613,1.0208 -0.7246099,1.65039 C 9.2454295,16.334668 9.25,17.057201 9.25,18 c 0,0.942799 -0.00457,1.665332 0.080078,2.294922 0.084649,0.62959 0.2894556,1.215237 0.72461,1.65039 0.435153,0.435154 1.0208,0.639961 1.65039,0.72461 C 12.334668,22.75457 13.057201,22.75 14,22.75 h 3 c 0.942799,0 1.665332,0.0046 2.294922,-0.08008 0.62959,-0.08465 1.215237,-0.289456 1.65039,-0.72461 0.435154,-0.435153 0.639961,-1.0208 0.72461,-1.65039 C 21.75457,19.665332 21.75,18.942799 21.75,18 c 0,-0.942799 0.0046,-1.665332 -0.08008,-2.294922 -0.08465,-0.62959 -0.289456,-1.215237 -0.72461,-1.65039 -0.435153,-0.435154 -1.0208,-0.639961 -1.65039,-0.72461 C 18.665332,13.24543 17.942799,13.25 17,13.25 Z m 0,1.5 h 3 c 0.942799,0 1.634091,0.0046 2.09375,0.06641 0.459659,0.0618 0.64037,0.148183 0.791016,0.298828 0.150645,0.150646 0.237026,0.331357 0.298828,0.791016 0.0618,0.459659 0.06641,1.150951 0.06641,2.09375 0,0.942799 -0.0046,1.634091 -0.06641,2.09375 -0.0618,0.459659 -0.148183,0.64037 -0.298828,0.791016 -0.150646,0.150645 -0.331357,0.237026 -0.791016,0.298828 C 18.634091,21.245395 17.942799,21.25 17,21.25 h -3 c -0.942799,0 -1.634091,-0.0046 -2.09375,-0.06641 -0.459659,-0.0618 -0.64037,-0.148183 -0.791016,-0.298828 C 10.964589,20.73412 10.878208,20.553409 10.816406,20.09375 10.754605,19.634091 10.75,18.942799 10.75,18 c 0,-0.942799 0.0046,-1.634091 0.06641,-2.09375 0.0618,-0.459659 0.148183,-0.64037 0.298828,-0.791016 0.150646,-0.150645 0.331357,-0.237026 0.791016,-0.298828 C 12.365909,14.754605 13.057201,14.75 14,14.75 Z"
     id="path2" />
  <path
     
     d="M 6,1.75 A 0.75,0.75 0 0 0 5.25,2.5 V 10 A 0.75,0.75 0 0 0 6,10.75 0.75,0.75 0 0 0 6.75,10 V 2.5 A 0.75,0.75 0 0 0 6,1.75 Z"
     id="path3" />
  <path
     
     d="M 13.5,13.75 A 0.75,0.75 0 0 0 12.75,14.5 V 22 A 0.75,0.75 0 0 0 13.5,22.75 0.75,0.75 0 0 0 14.25,22 V 14.5 A 0.75,0.75 0 0 0 13.5,13.75 Z"
     id="path4" />
  <path
     
     d="M 11,1.75 A 0.75,0.75 0 0 0 10.25,2.5 V 10 A 0.75,0.75 0 0 0 11,10.75 0.75,0.75 0 0 0 11.75,10 V 2.5 A 0.75,0.75 0 0 0 11,1.75 Z"
     id="path5" />
  <path
     
     d="M 17.5,13.75 A 0.75,0.75 0 0 0 16.75,14.5 V 22 A 0.75,0.75 0 0 0 17.5,22.75 0.75,0.75 0 0 0 18.25,22 V 14.5 A 0.75,0.75 0 0 0 17.5,13.75 Z"
     id="path6" />
  <path
     
     d="M 2.5,5.25 A 0.75,0.75 0 0 0 1.75,6 0.75,0.75 0 0 0 2.5,6.75 H 6 A 0.75,0.75 0 0 0 6.75,6 0.75,0.75 0 0 0 6,5.25 Z m 8.5,0 A 0.75,0.75 0 0 0 10.25,6 0.75,0.75 0 0 0 11,6.75 h 4 A 0.75,0.75 0 0 0 15.75,6 0.75,0.75 0 0 0 15,5.25 Z"
     id="path7" />
  <path
     
     d="M 11,17.25 A 0.75,0.75 0 0 0 10.25,18 0.75,0.75 0 0 0 11,18.75 h 2.5 A 0.75,0.75 0 0 0 14.25,18 0.75,0.75 0 0 0 13.5,17.25 Z m 6.5,0 A 0.75,0.75 0 0 0 16.75,18 0.75,0.75 0 0 0 17.5,18.75 H 21 A 0.75,0.75 0 0 0 21.75,18 0.75,0.75 0 0 0 21,17.25 Z"
     id="path8" />
  <path
  
     d="M 18,5.25 A 0.75,0.75 0 0 0 17.25,6 0.75,0.75 0 0 0 18,6.75 c 0.931899,0 1.317891,0.029181 1.478516,0.095703 0.306515,0.1269789 0.548808,0.3692647 0.675781,0.6757813 -0.02937,-0.070933 0.01671,0.072543 0.03516,0.2480468 0.01844,0.1755043 0.03382,0.409778 0.04297,0.6640626 0.0107,0.2974032 0.0079,0.6032062 0.0098,0.9160156 A 0.75,0.75 0 0 0 19.46875,9.46875 a 0.75,0.75 0 0 0 0,1.0625 l 1,1 a 0.75,0.75 0 0 0 1.0625,0 l 1,-1 a 0.75,0.75 0 0 0 0,-1.0625 0.75,0.75 0 0 0 -0.789063,-0.1132812 C 21.740377,9.0264109 21.74237,8.709784 21.730469,8.3789063 21.72059,8.1042776 21.706004,7.8451351 21.681641,7.6132812 21.657277,7.3814274 21.646488,7.2019735 21.541016,6.9472656 21.261989,6.2736832 20.726218,5.7379851 20.052734,5.4589844 19.47816,5.2210268 18.931899,5.25 18,5.25 Z"
     id="path9" />
  <path
  
     d="m 3,12.25 a 0.75,0.75 0 0 0 -0.53125,0.21875 l -1,1 a 0.75,0.75 0 0 0 0,1.0625 0.75,0.75 0 0 0 0.7871094,0 c 0.00135,0.360777 3.859e-4,0.720579 0.013672,1.089844 0.00988,0.27463 0.024457,0.533762 0.048828,0.765625 0.024371,0.231863 0.03514,0.41131 0.140625,0.666015 0.2790007,0.673484 0.8146988,1.209255 1.4882812,1.488282 C 4.5218212,18.778935 5.0681209,18.75 6,18.75 A 0.75,0.75 0 0 0 6.75,18 0.75,0.75 0 0 0 6,17.25 C 5.0681209,17.25 4.6820281,17.22078 4.5214844,17.1543 4.2149678,17.027327 3.972682,16.785034 3.8457031,16.478519 c 0.029365,0.0709 -0.01671,-0.07254 -0.035156,-0.248047 C 3.7921001,16.05497 3.7767271,15.820691 3.7675781,15.566409 3.7554861,15.230326 3.7573231,14.88 3.7558591,14.531253 a 0.75,0.75 0 0 0 0.7753906,0 0.75,0.75 0 0 0 0,-1.0625 l -1,-1 A 0.75,0.75 0 0 0 3,12.25 Z"
     id="path10" />
</svg>
