<?xml version="1.0" encoding="UTF-8" standalone="no"?>
<svg
   width="24"
   height="24"
   viewBox="0 0 24 24"
 
   version="1.1"
   id="svg7"
   xmlns="http://www.w3.org/2000/svg"
   xmlns:svg="http://www.w3.org/2000/svg">
  <defs
     id="defs7" />
  <path
    
     d="M 12,1.25 C 9.6429774,1.25 7.860594,1.2449714 6.4140625,1.4394531 4.967531,1.6339349 3.8080817,2.0590998 2.9335938,2.9335938 2.0590998,3.8080817 1.6339349,4.967531 1.4394531,6.4140625 1.2449714,7.860594 1.25,9.6429774 1.25,12 c 0,2.356998 -0.00503,4.1394 0.1894531,5.585937 0.1944817,1.446538 0.6196331,2.606004 1.4941407,3.480469 0.8744865,0.874511 2.0339355,1.299655 3.4804687,1.494141 C 7.8605957,22.755033 9.6429774,22.75 12,22.75 c 2.356998,0 4.139398,0.005 5.585937,-0.189453 1.44654,-0.194486 2.606005,-0.619617 3.480469,-1.494141 0.874524,-0.874464 1.299655,-2.033929 1.494141,-3.480469 C 22.755033,16.139398 22.75,14.356998 22.75,12 22.75,9.6429774 22.755,7.8605957 22.560547,6.4140625 22.366061,4.9675293 21.940917,3.8080803 21.066406,2.9335938 20.191941,2.0590862 19.032475,1.6339348 17.585937,1.4394531 16.1394,1.2449715 14.356998,1.25 12,1.25 Z m 0,1.5 c 2.356998,0 4.110109,0.00415 5.386719,0.1757813 1.27661,0.1716355 2.029208,0.4783983 2.61914,1.0683593 0.589989,0.589972 0.896721,1.3425391 1.06836,2.6191406 C 21.245857,7.8898828 21.25,9.6429774 21.25,12 c 0,2.356998 -0.0041,4.110111 -0.175781,5.386719 -0.171639,1.276608 -0.478385,2.029206 -1.06836,2.61914 -0.589934,0.589975 -1.342532,0.896721 -2.61914,1.06836 C 16.110111,21.245858 14.356998,21.25 12,21.25 9.6429774,21.25 7.8898828,21.245857 6.6132812,21.074219 5.3366797,20.90258 4.5841126,20.595848 3.9941406,20.005859 3.4041796,19.415927 3.0974168,18.663329 2.9257813,17.386719 2.7541457,16.110109 2.75,14.356998 2.75,12 2.75,9.6429774 2.7541459,7.8898845 2.9257813,6.6132812 3.0974166,5.336678 3.404166,4.5841112 3.9941406,3.9941406 4.5841112,3.404166 5.336678,3.0974166 6.6132812,2.9257813 7.8898845,2.7541459 9.6429774,2.75 12,2.75 Z"
     id="path1" />
  <path
     
     d="M 2.5,16.25 A 0.75,0.75 0 0 0 1.75,17 0.75,0.75 0 0 0 2.5,17.75 h 19 A 0.75,0.75 0 0 0 22.25,17 0.75,0.75 0 0 0 21.5,16.25 Z"
     id="path2" />
  <path
     
     d="M 2.5,6.25 A 0.75,0.75 0 0 0 1.75,7 0.75,0.75 0 0 0 2.5,7.75 h 19 A 0.75,0.75 0 0 0 22.25,7 0.75,0.75 0 0 0 21.5,6.25 Z"
     id="path3" />
  <path
     
     d="M 12,1.25 A 0.75,0.75 0 0 0 11.25,2 V 7 A 0.75,0.75 0 0 0 12,7.75 0.75,0.75 0 0 0 12.75,7 V 2 A 0.75,0.75 0 0 0 12,1.25 Z m 0,15 A 0.75,0.75 0 0 0 11.25,17 v 5 A 0.75,0.75 0 0 0 12,22.75 0.75,0.75 0 0 0 12.75,22 V 17 A 0.75,0.75 0 0 0 12,16.25 Z"
     id="path4" />
  <path
     
     d="M 17,1.75 A 0.75,0.75 0 0 0 16.25,2.5 V 7 A 0.75,0.75 0 0 0 17,7.75 0.75,0.75 0 0 0 17.75,7 V 2.5 A 0.75,0.75 0 0 0 17,1.75 Z m 0,14.5 A 0.75,0.75 0 0 0 16.25,17 v 4.5 A 0.75,0.75 0 0 0 17,22.25 0.75,0.75 0 0 0 17.75,21.5 V 17 A 0.75,0.75 0 0 0 17,16.25 Z"
     id="path5" />
  <path
     
     d="M 7,1.75 A 0.75,0.75 0 0 0 6.25,2.5 V 7 A 0.75,0.75 0 0 0 7,7.75 0.75,0.75 0 0 0 7.75,7 V 2.5 A 0.75,0.75 0 0 0 7,1.75 Z m 0,14.5 A 0.75,0.75 0 0 0 6.25,17 v 4.5 A 0.75,0.75 0 0 0 7,22.25 0.75,0.75 0 0 0 7.75,21.5 V 17 A 0.75,0.75 0 0 0 7,16.25 Z"
     id="path6" />
  <path
     
     d="M 10.779297,8.7519531 C 10.518853,8.7353932 10.216087,8.8088823 9.9863281,8.9609375 9.5268367,9.2650306 9.367642,9.7829032 9.3066406,10.259766 9.2456392,10.736628 9.25,11.283901 9.25,12 c 0,0.716099 -0.00436,1.263366 0.056641,1.740234 0.061001,0.476869 0.2201637,0.994737 0.6796875,1.298829 0.2297605,0.152045 0.5325305,0.225548 0.7929685,0.208984 0.260438,-0.01656 0.480687,-0.09681 0.689453,-0.193359 0.417532,-0.193099 0.824474,-0.475135 1.361328,-0.835938 0.529606,-0.355954 0.942112,-0.625049 1.28125,-0.9375 C 14.450466,12.968799 14.75,12.514752 14.75,12 14.75,11.485248 14.450466,11.031201 14.111328,10.71875 13.77219,10.406299 13.359684,10.137204 12.830078,9.78125 12.293226,9.4204537 11.886284,9.1384109 11.46875,8.9453125 11.259983,8.8487633 11.039741,8.7685131 10.779297,8.7519531 Z m 0.0293,1.5429689 c 0.01722,0.0068 0.008,0.0019 0.0293,0.01172 0.219415,0.101473 0.61745,0.35991 1.154297,0.720703 0.529592,0.355945 0.9111,0.619448 1.101562,0.794922 C 13.284212,11.99774 13.25,11.986953 13.25,12 c 0,0.01305 0.03421,0.0023 -0.15625,0.177734 -0.190462,0.175474 -0.57197,0.438977 -1.101562,0.794922 -0.536845,0.360797 -0.93488,0.619228 -1.154297,0.720703 -0.02129,0.0098 -0.01207,0.0049 -0.0293,0.01172 0.0017,-0.0044 0.01196,0.04414 -0.01367,-0.15625 C 10.755848,13.243372 10.75,12.716099 10.75,12 c 0,-0.716099 0.0058,-1.243381 0.04492,-1.548828 0.02563,-0.200383 0.0154,-0.151799 0.01367,-0.15625 z"
     id="path7" />
</svg>
