<?xml version="1.0" encoding="UTF-8" standalone="no"?>
<svg
   width="24"
   height="24"
   viewBox="0 0 24 24"
  
   version="1.1"
   id="svg10"
   xmlns="http://www.w3.org/2000/svg"
   xmlns:svg="http://www.w3.org/2000/svg">
  <defs
     id="defs10" />
  <path
    
     d="M 10,3.25 C 8.1143819,3.25 6.6859363,3.2444746 5.5117187,3.4023438 4.3375012,3.5602129 3.3686723,3.9125839 2.640625,4.640625 1.9125839,5.3686723 1.5602129,6.3375012 1.4023437,7.5117187 1.2444746,8.6859363 1.25,10.114382 1.25,12 v 2 c 0,1.885598 -0.00553,3.314057 0.1523437,4.488281 0.1578691,1.174225 0.5102188,2.143075 1.2382813,2.871094 0.7280455,0.728058 1.6968741,1.080408 2.8710937,1.238281 C 6.6859384,22.75553 8.1143819,22.75 10,22.75 h 4 c 1.885598,0 3.314055,0.0055 4.488281,-0.152344 1.174227,-0.157873 2.143077,-0.510202 2.871094,-1.238281 0.728079,-0.728017 1.080408,-1.696867 1.238281,-2.871094 C 22.75553,17.314055 22.75,15.885598 22.75,14 v -2 c 0,-1.885618 0.0055,-3.3140616 -0.152344,-4.4882813 C 22.439783,6.3374991 22.087433,5.3686705 21.359375,4.640625 20.631356,3.9125625 19.662506,3.5602128 18.488281,3.4023438 17.314057,3.2444747 15.885598,3.25 14,3.25 Z m 0,1.5 h 4 c 1.885598,0 3.284764,0.0056 4.289062,0.140625 1.004299,0.1350232 1.566286,0.3670405 2.009766,0.8105469 0.443541,0.4435333 0.675521,1.0054774 0.810547,2.0097656 C 21.244401,8.7152257 21.25,10.114382 21.25,12 v 2 c 0,1.885598 -0.0056,3.284766 -0.140625,4.289062 -0.135026,1.004297 -0.367027,1.566284 -0.810547,2.009766 -0.443482,0.44352 -1.005469,0.675521 -2.009766,0.810547 C 17.284766,21.244401 15.885598,21.25 14,21.25 H 10 C 8.1143819,21.25 6.7152257,21.2444 5.7109375,21.109375 4.7066493,20.974349 4.1447052,20.742369 3.7011719,20.298828 3.2576655,19.855348 3.0256482,19.293361 2.890625,18.289062 2.7556018,17.284764 2.75,15.885598 2.75,14 V 12 C 2.75,10.114382 2.7556,8.7152278 2.890625,7.7109375 3.0256481,6.7066472 3.2576441,6.1447034 3.7011719,5.7011719 4.1447034,5.2576441 4.7066472,5.0256481 5.7109375,4.890625 6.7152278,4.7556019 8.1143819,4.75 10,4.75 Z"
     id="path1" />
  <path
     
     d="M 7,1.75 A 0.75,0.75 0 0 0 6.25,2.5 V 4 A 0.75,0.75 0 0 0 7,4.75 0.75,0.75 0 0 0 7.75,4 V 2.5 A 0.75,0.75 0 0 0 7,1.75 Z"
     id="path2" />
  <path
     
     d="M 17,1.75 A 0.75,0.75 0 0 0 16.25,2.5 V 4 A 0.75,0.75 0 0 0 17,4.75 0.75,0.75 0 0 0 17.75,4 V 2.5 A 0.75,0.75 0 0 0 17,1.75 Z"
     id="path3" />
  <path
     
     d="M 2.5,8.25 A 0.75,0.75 0 0 0 1.75,9 0.75,0.75 0 0 0 2.5,9.75 h 19 A 0.75,0.75 0 0 0 22.25,9 0.75,0.75 0 0 0 21.5,8.25 Z"
     id="path4" />
  <path
     d="m 18,17 c 0,0.5523 -0.4477,1 -1,1 -0.5523,0 -1,-0.4477 -1,-1 0,-0.5523 0.4477,-1 1,-1 0.5523,0 1,0.4477 1,1 z"
    
     id="path5" />
  <path
     d="m 18,13 c 0,0.5523 -0.4477,1 -1,1 -0.5523,0 -1,-0.4477 -1,-1 0,-0.5523 0.4477,-1 1,-1 0.5523,0 1,0.4477 1,1 z"
    
     id="path6" />
  <path
     d="m 13,17 c 0,0.5523 -0.4477,1 -1,1 -0.5523,0 -1,-0.4477 -1,-1 0,-0.5523 0.4477,-1 1,-1 0.5523,0 1,0.4477 1,1 z"
    
     id="path7" />
  <path
     d="m 13,13 c 0,0.5523 -0.4477,1 -1,1 -0.5523,0 -1,-0.4477 -1,-1 0,-0.5523 0.4477,-1 1,-1 0.5523,0 1,0.4477 1,1 z"
    
     id="path8" />
  <path
     d="m 8,17 c 0,0.5523 -0.44772,1 -1,1 -0.55228,0 -1,-0.4477 -1,-1 0,-0.5523 0.44772,-1 1,-1 0.55228,0 1,0.4477 1,1 z"
    
     id="path9" />
  <path
     d="m 8,13 c 0,0.5523 -0.44772,1 -1,1 -0.55228,0 -1,-0.4477 -1,-1 0,-0.5523 0.44772,-1 1,-1 0.55228,0 1,0.4477 1,1 z"
    
     id="path10" />
</svg>
