<?xml version="1.0" encoding="utf-8"?>
<!-- Generator: Adobe Illustrator 27.9.0, SVG Export Plug-In . SVG Version: 6.00 Build 0)  -->
<svg version="1.1" id="Calque_1" xmlns="http://www.w3.org/2000/svg" xmlns:xlink="http://www.w3.org/1999/xlink" x="0px" y="0px"
	 viewBox="0 0 24 24" style="enable-background:new 0 0 24 24;" xml:space="preserve">
<path d="M20.5,3.5C19.1,2,16.7,2,12,2C7.3,2,4.9,2,3.5,3.5S2,7.3,2,12c0,4.7,0,7.1,1.5,8.5C4.9,22,7.3,22,12,22c4.7,0,7.1,0,8.5-1.5
	C22,19.1,22,16.7,22,12C22,7.3,22,4.9,20.5,3.5z M15,15c-0.3,0.3-0.8,0.3-1.1,0l-2.5-2.5c-0.1-0.1-0.2-0.3-0.2-0.5V8
	c0-0.4,0.3-0.8,0.8-0.8s0.8,0.3,0.8,0.8v3.7L15,14C15.3,14.3,15.3,14.7,15,15z"/>
</svg>
