<?xml version="1.0" encoding="utf-8"?>
<!-- Generator: Adobe Illustrator 27.9.0, SVG Export Plug-In . SVG Version: 6.00 Build 0)  -->
<svg version="1.1" id="Calque_1" xmlns="http://www.w3.org/2000/svg" xmlns:xlink="http://www.w3.org/1999/xlink" x="0px" y="0px"
	 viewBox="0 0 24 24" style="enable-background:new 0 0 24 24;" xml:space="preserve">
<path d="M12.5,22h-1c-1.4,0-2.1,0-2.6-0.3c-0.2-0.1-0.4-0.3-0.6-0.6c-0.1-0.2-0.2-0.5-0.3-0.8c0.2,0,0.3,0,0.5,0.1
	c0.9,0.1,2,0.1,3.4,0.1h0.2c1.3,0,2.5,0,3.4-0.1c0.2,0,0.3,0,0.5-0.1c0,0.3-0.1,0.6-0.3,0.8c-0.1,0.2-0.3,0.4-0.6,0.6
	C14.6,22,13.9,22,12.5,22z"/>
<path d="M12.5,2h-1c-1.4,0-2.1,0-2.6,0.3C8.7,2.5,8.5,2.7,8.3,2.9C8.2,3.1,8.1,3.3,8.1,3.7c0.2,0,0.3,0,0.5-0.1
	c0.9-0.1,2-0.1,3.4-0.1h0.2c1.3,0,2.5,0,3.4,0.1c0.2,0,0.3,0,0.5,0.1c0-0.3-0.1-0.6-0.3-0.8c-0.1-0.2-0.3-0.4-0.6-0.6
	C14.6,2,13.9,2,12.5,2z"/>
<path d="M18.3,6.8C18,6.3,17.7,6,17.2,5.7C16.2,5,14.8,5,12,5S7.8,5,6.8,5.7C6.3,6,6,6.3,5.7,6.8C5,7.8,5,9.2,5,12s0,4.2,0.7,5.2
	C6,17.7,6.3,18,6.8,18.3C7.8,19,9.2,19,12,19s4.2,0,5.2-0.7c0.4-0.3,0.8-0.7,1.1-1.1c0.7-1,0.7-2.4,0.7-5.2S19,7.8,18.3,6.8z
	 M14.5,14.5c-0.3,0.3-0.8,0.3-1.1,0l-2-1.9c-0.1-0.1-0.2-0.3-0.2-0.5V9c0-0.4,0.3-0.8,0.8-0.8s0.8,0.3,0.8,0.8v2.8l1.8,1.7
	C14.8,13.7,14.8,14.2,14.5,14.5z"/>
</svg>
