<?xml version="1.0" encoding="utf-8"?>
<!-- Generator: Adobe Illustrator 27.9.0, SVG Export Plug-In . SVG Version: 6.00 Build 0)  -->
<svg version="1.1" id="Calque_1" xmlns="http://www.w3.org/2000/svg" xmlns:xlink="http://www.w3.org/1999/xlink" x="0px" y="0px"
	 viewBox="0 0 24 24" style="enable-background:new 0 0 24 24;" xml:space="preserve">
<style type="text/css">
	.st0{fill-rule:evenodd;clip-rule:evenodd;}
</style>
<path d="M11.2,2C6.1,2,2,6.1,2,11.2s4.1,9.2,9.2,9.2s9.2-4.1,9.2-9.2S16.2,2,11.2,2z M13.6,11.9H8.7c-0.4,0-0.7-0.3-0.7-0.7
	c0-0.4,0.3-0.7,0.7-0.7h4.8c0.4,0,0.7,0.3,0.7,0.7C14.3,11.6,14,11.9,13.6,11.9z"/>
<path class="st0" d="M18.8,18.8c0.3-0.3,0.7-0.3,1,0l1.9,1.9c0.3,0.3,0.3,0.7,0,1c-0.3,0.3-0.7,0.3-1,0l-1.9-1.9
	C18.6,19.6,18.6,19.1,18.8,18.8z"/>
</svg>
