<?xml version="1.0" encoding="utf-8"?>
<!-- Generator: Adobe Illustrator 27.9.0, SVG Export Plug-In . SVG Version: 6.00 Build 0)  -->
<svg version="1.1" id="Calque_1" xmlns="http://www.w3.org/2000/svg" xmlns:xlink="http://www.w3.org/1999/xlink" x="0px" y="0px"
	 viewBox="0 0 24 24" style="enable-background:new 0 0 24 24;" xml:space="preserve">
<style type="text/css">
	.st0{fill-rule:evenodd;clip-rule:evenodd;}
</style>
<path d="M11.1,2C6.1,2,2,6.1,2,11.1c0,5,4.1,9.1,9.1,9.1c5,0,9.1-4.1,9.1-9.1C20.1,6.1,16.1,2,11.1,2z M13.1,11.9H9
	c-0.4,0-0.8-0.3-0.8-0.8c0-0.4,0.3-0.8,0.8-0.8h4c0.4,0,0.8,0.3,0.8,0.8C13.8,11.6,13.5,11.9,13.1,11.9z"/>
<path class="st0" d="M17.8,19.7c-0.1-1.1,0.8-2,1.9-1.9c0.2,0,0.4,0.1,0.6,0.2c0,0,0,0,0.1,0c0,0,0,0,0.1,0c0.2,0.1,0.4,0.1,0.6,0.2
	c0.9,0.5,1.2,1.7,0.6,2.5c-0.1,0.2-0.3,0.3-0.4,0.5c0,0,0,0,0,0c0,0,0,0,0,0c-0.2,0.2-0.3,0.3-0.5,0.4c-0.9,0.6-2,0.3-2.5-0.6
	c-0.1-0.2-0.1-0.4-0.2-0.6c0,0,0,0,0-0.1c0,0,0,0,0-0.1C17.9,20.1,17.8,19.9,17.8,19.7z"/>
</svg>
