<?xml version="1.0" encoding="UTF-8" standalone="no"?>
<svg
   width="24"
   height="24"
   viewBox="0 0 24 24"

   version="1.1"
   id="svg5"
   xmlns="http://www.w3.org/2000/svg"
   xmlns:svg="http://www.w3.org/2000/svg">
  <defs
     id="defs5" />
  <path

     d="M 10,1.25 C 8.5857864,1.25 7.5093262,1.2459295 6.6074219,1.3671875 5.7055175,1.4884455 4.9292542,1.7660583 4.3476562,2.3476563 3.7660583,2.9292542 3.4884455,3.7055175 3.3671875,4.6074219 3.2459295,5.5093262 3.25,6.5857864 3.25,8 v 8 c 0,1.414199 -0.00407,2.490678 0.1171875,3.392578 0.1212581,0.901901 0.3988767,1.67816 0.9804687,2.259766 0.5815963,0.581609 1.3578595,0.859207 2.2597657,0.980468 C 7.5093281,22.754074 8.5857864,22.75 10,22.75 h 4 c 1.414199,0 2.490676,0.0041 3.392578,-0.117188 0.901903,-0.121261 1.678162,-0.398865 2.259766,-0.980468 0.581603,-0.581604 0.859207,-1.357863 0.980468,-2.259766 C 20.754074,18.490676 20.75,17.414199 20.75,16 V 8 C 20.75,6.5857864 20.7541,5.5093281 20.632812,4.6074219 20.511551,3.7055157 20.233953,2.9292525 19.652344,2.3476563 19.070738,1.7660642 18.294479,1.4884456 17.392578,1.3671875 16.490678,1.2459294 15.414199,1.25 14,1.25 Z m 0,1.5 h 4 c 1.414199,0 2.459433,0.0051 3.191406,0.1035156 0.731973,0.098412 1.103297,0.2576004 1.400391,0.5546875 0.297089,0.2970829 0.456274,0.668416 0.554687,1.4003906 C 19.244898,5.5405684 19.25,6.5857864 19.25,8 v 8 c 0,1.414199 -0.0051,2.459435 -0.103516,3.191406 -0.09841,0.731971 -0.257592,1.103295 -0.554687,1.400391 -0.297096,0.297095 -0.66842,0.456274 -1.400391,0.554687 C 16.459435,21.244898 15.414199,21.25 14,21.25 H 10 C 8.5857864,21.25 7.5405684,21.2449 6.8085937,21.146484 6.0766191,21.048071 5.705286,20.888886 5.4082031,20.591797 5.111116,20.294703 4.9519274,19.923379 4.8535156,19.191406 4.7551039,18.459433 4.75,17.414199 4.75,16 V 8 C 4.75,6.5857864 4.7551,5.5405702 4.8535156,4.8085937 4.9519274,4.0766173 5.1111219,3.7052843 5.4082031,3.4082031 5.7052843,3.1111219 6.0766173,2.9519274 6.8085937,2.8535156 7.5405702,2.7551039 8.5857864,2.75 10,2.75 Z"
     id="path1" />
  <path

     d="m 7.8984375,15.25 c -0.9299691,0 -1.4420652,-0.01466 -1.9707031,0.126953 -1.292962,0.346445 -2.3058999,1.359486 -2.6523438,2.652344 l 1.4492188,0.388672 C 4.9328137,17.640993 5.5376721,17.03495 6.3144531,16.826172 6.5488145,16.763389 6.9684684,16.75 7.8984375,16.75 H 19.898437 v -1.5 z"
     id="path2" />
  <path
    
     d="M 8,6.25 A 0.75,0.75 0 0 0 7.25,7 0.75,0.75 0 0 0 8,7.75 h 8 A 0.75,0.75 0 0 0 16.75,7 0.75,0.75 0 0 0 16,6.25 Z"
     id="path3" />
  <path
    
     d="M 8,9.75 A 0.75,0.75 0 0 0 7.25,10.5 0.75,0.75 0 0 0 8,11.25 h 5 A 0.75,0.75 0 0 0 13.75,10.5 0.75,0.75 0 0 0 13,9.75 Z"
     id="path4" />
  <path
    
     d="M 8,18.25 A 0.75,0.75 0 0 0 7.25,19 0.75,0.75 0 0 0 8,19.75 H 19.5 A 0.75,0.75 0 0 0 20.25,19 0.75,0.75 0 0 0 19.5,18.25 Z"
     id="path5" />
</svg>
