<?xml version="1.0" encoding="UTF-8" standalone="no"?>
<svg
   width="24"
   height="24"
   viewBox="0 0 24 24"
 
   version="1.1"
   id="svg5"
   xmlns="http://www.w3.org/2000/svg"
   xmlns:svg="http://www.w3.org/2000/svg">
  <defs
     id="defs5" />
  <path
   
     d="M 10,5.25 C 8.6441314,5.25 7.5226602,5.2501039 6.5644531,5.3066406 4.8574922,5.4073475 3.573208,5.7080545 2.640625,6.640625 1.9125809,7.3686753 1.5602127,8.3374969 1.4023437,9.5117188 1.2444748,10.685941 1.25,12.114402 1.25,14 c 0,1.885598 -0.00553,3.314057 0.1523437,4.488281 0.1578691,1.174225 0.5102188,2.143075 1.2382813,2.871094 0.7280455,0.728058 1.6968741,1.080408 2.8710937,1.238281 C 6.6859384,22.75553 8.1143819,22.75 10,22.75 h 4 c 1.885598,0 3.314055,0.0055 4.488281,-0.152344 1.174227,-0.157873 2.143077,-0.510202 2.871094,-1.238281 0.728079,-0.728017 1.080408,-1.696867 1.238281,-2.871094 C 22.75553,17.314055 22.75,15.885598 22.75,14 22.75,12.114402 22.7555,10.685943 22.597656,9.5117188 22.439783,8.3374949 22.087436,7.3686735 21.359375,6.640625 20.42683,5.7080181 19.142449,5.4073477 17.435547,5.3066406 16.477286,5.2501044 15.355899,5.25 14,5.25 Z m 0,1.5 h 4 c 1.355899,0 2.460119,3.708e-4 3.347656,0.052734 1.580895,0.093273 2.383118,0.3303459 2.951172,0.8984375 0.443538,0.4435303 0.675521,1.0054716 0.810547,2.0097656 C 21.244401,10.715231 21.25,12.114402 21.25,14 c 0,1.885598 -0.0056,3.284766 -0.140625,4.289062 -0.135026,1.004297 -0.367027,1.566284 -0.810547,2.009766 -0.443482,0.44352 -1.005469,0.675521 -2.009766,0.810547 C 17.284766,21.244401 15.885598,21.25 14,21.25 H 10 C 8.1143819,21.25 6.7152257,21.2444 5.7109375,21.109375 4.7066493,20.974349 4.1447052,20.742369 3.7011719,20.298828 3.2576655,19.855348 3.0256482,19.293361 2.890625,18.289062 2.7556018,17.284764 2.75,15.885598 2.75,14 2.75,12.114402 2.7556,10.715234 2.890625,9.7109375 3.0256482,8.7066415 3.2576472,8.1447004 3.7011719,7.7011719 4.2693074,7.1330439 5.0733411,6.8960073 6.6542969,6.8027344 7.541768,6.7503712 8.6441314,6.75 10,6.75 Z"
     id="path1" />
  <path
   
     d="m 10.582031,2.25 c -0.1335,0 -0.212966,1.831e-4 -0.30664,0.00586 C 9.2167218,2.319982 8.286239,2.99051 7.890625,3.97461 7.855619,4.061684 7.831246,4.1371014 7.7890625,4.2636725 l -0.025391,0.076172 c -0.017648,0.052953 -0.025384,0.07512 -0.029297,0.085937 C 7.5545903,4.922799 7.0734168,5.2924314 6.5898437,5.3046875 l 0.039063,1.5 C 7.7922121,6.7752035 8.763937,5.9877076 9.1445318,4.9355469 c 0.013327,-0.036843 0.023323,-0.068007 0.041016,-0.1210938 l 0.025391,-0.078125 C 9.2531137,4.6097795 9.2711165,4.5584088 9.28125,4.5332031 9.4620154,4.0835445 9.8815248,3.7812508 10.365234,3.7519531 10.39236,3.7503094 10.448531,3.75 10.582031,3.75 h 2.837891 c 0.1334,0 0.187718,3.094e-4 0.214844,0.00195 0.483725,0.029298 0.903223,0.3316172 1.083984,0.78125 0.01032,0.025756 0.02811,0.07655 0.07031,0.203125 v 0.00195 l 0.02539,0.076172 c 0.01777,0.053449 0.02797,0.084982 0.04102,0.1210938 0.3806,1.0521371 1.354236,1.839658 2.517578,1.8691406 l 0.03711,-1.5 C 16.9265,5.2924302 16.445425,4.9228225 16.265625,4.4257812 c -0.0042,-0.011508 -0.0099,-0.033486 -0.02734,-0.085937 l -0.02734,-0.076172 v -0.00195 c -0.04173,-0.1251795 -0.06514,-0.2011084 -0.09961,-0.2871093 h -0.002 C 15.713737,2.9904836 14.783283,2.319981 13.724609,2.2558594 13.630935,2.2501831 13.553322,2.25 13.419922,2.25 Z"
     id="path2" />
  <path
    
     d="M 2.1835938,7.9863281 A 0.75,0.75 0 0 0 1.7089844,8.3105469 0.75,0.75 0 0 0 1.9296875,9.3476563 c 3.0098349,1.9563667 4.5604509,2.9791797 6.2871094,3.5156247 2.4638301,0.765508 5.1026381,0.765512 7.5664061,0 1.726659,-0.536445 3.277217,-1.55926 6.287109,-3.5156247 a 0.75,0.75 0 0 0 0.220704,-1.0371094 0.75,0.75 0 0 0 -1.03711,-0.21875 c -3.009901,1.9563711 -4.469678,2.8904901 -5.916015,3.3398441 -2.174028,0.675487 -4.501677,0.67549 -6.6757816,0 C 7.215771,10.982287 5.757886,10.048166 2.7480469,8.0917969 A 0.75,0.75 0 0 0 2.1835938,7.9863281 Z"
     id="path3" />
  <path
    
     d="M 8,10.25 A 0.75,0.75 0 0 0 7.25,11 v 2 A 0.75,0.75 0 0 0 8,13.75 0.75,0.75 0 0 0 8.75,13 V 11 A 0.75,0.75 0 0 0 8,10.25 Z"
     id="path4" />
  <path
    
     d="M 16,10.25 A 0.75,0.75 0 0 0 15.25,11 v 2 A 0.75,0.75 0 0 0 16,13.75 0.75,0.75 0 0 0 16.75,13 V 11 A 0.75,0.75 0 0 0 16,10.25 Z"
     id="path5" />
</svg>
