<?xml version="1.0" encoding="UTF-8" standalone="no"?>
<svg
   width="24"
   height="24"
   viewBox="0 0 24 24"
   
   version="1.1"
   id="svg3"
   xmlns="http://www.w3.org/2000/svg"
   xmlns:svg="http://www.w3.org/2000/svg">
  <defs
     id="defs3" />
  <path
  
     d="m 19.148437,1.328125 a 0.75,0.75 0 0 0 -0.53125,0.2148437 0.75,0.75 0 0 0 -0.01172,1.0605469 C 20.241968,4.2728227 21.25,6.5526888 21.25,9.078125 c 0,2.555433 -1.032271,4.860878 -2.703125,6.535156 a 0.75,0.75 0 0 0 0.002,1.060547 0.75,0.75 0 0 0 1.060547,-0.002 C 21.549317,14.727957 22.75,12.038367 22.75,9.078125 22.75,6.1526466 21.577831,3.4909237 19.677734,1.5527344 A 0.75,0.75 0 0 0 19.148437,1.328125 Z M 4.40625,1.46875 C 2.4572552,3.4138658 1.25,6.1101671 1.25,9.078125 c 0,3.002739 1.2352621,5.727565 3.2246094,7.677734 a 0.75,0.75 0 0 0 1.0605468,-0.01172 0.75,0.75 0 0 0 -0.00977,-1.060547 C 3.8120216,14.003967 2.75,11.67026 2.75,9.078125 2.75,6.5160285 3.7881753,4.2065306 5.4667969,2.53125 a 0.75,0.75 0 0 0 0,-1.0605469 A 0.75,0.75 0 0 0 4.40625,1.46875 Z"
     id="path1" />
  <path
  
     d="M 7.7871094,4.328125 A 0.75,0.75 0 0 0 7.25,4.53125 c -1.2274367,1.1486446 -2,2.7572601 -2,4.5292969 0,1.7928121 0.7903845,3.4188981 2.0429687,4.5703121 a 0.75,0.75 0 0 0 1.0585938,-0.04492 0.75,0.75 0 0 0 -0.044922,-1.060547 C 7.3375871,11.634607 6.75,10.415471 6.75,9.0605469 6.75,7.7213467 7.3242964,6.5132134 8.2734375,5.625 A 0.75,0.75 0 0 0 8.3085938,4.5664062 0.75,0.75 0 0 0 7.7871094,4.328125 Z m 9.0156246,0.2519531 a 0.75,0.75 0 0 0 -1.060546,0.023437 0.75,0.75 0 0 0 0.02344,1.0605469 C 16.690591,6.5488262 17.25,7.7405106 17.25,9.0605469 c 0,1.3357231 -0.572834,2.5401121 -1.517578,3.4277341 a 0.75,0.75 0 0 0 -0.03125,1.060547 0.75,0.75 0 0 0 1.058594,0.0332 C 17.981619,12.434055 18.75,10.827961 18.75,9.0605469 18.75,7.3138662 17.999567,5.7248924 16.802734,4.5800781 Z"
     id="path2" />
  <path

     d="m 12,6.328125 c -1.509898,0 -2.75,1.2401019 -2.75,2.75 0,1.509898 1.240102,2.75 2.75,2.75 1.509898,0 2.75,-1.240102 2.75,-2.75 0,-1.5098981 -1.240102,-2.75 -2.75,-2.75 z m 0,1.5 c 0.699239,0 1.25,0.5507613 1.25,1.25 0,0.6992387 -0.550761,1.25 -1.25,1.25 -0.699239,0 -1.25,-0.5507613 -1.25,-1.25 0,-0.6992387 0.550761,-1.25 1.25,-1.25 z"
     id="circle2" />
  <path
  
     d="m 11.726563,10.285156 a 0.75,0.75 0 0 0 -0.941407,0.488282 L 7.2851562,21.773437 a 0.750075,0.750075 0 0 0 1.2871094,0.710938 L 12,18.433594 l 3.427734,4.050781 a 0.750075,0.750075 0 0 0 1.28711,-0.710938 l -3.5,-10.999999 a 0.75,0.75 0 0 0 -0.941406,-0.488282 0.75,0.75 0 0 0 -0.240235,0.203125 0.75,0.75 0 0 0 -0.30664,-0.203125 z M 12,11.902344 l 0.988281,3.107422 a 0.75,0.75 0 0 0 -0.06055,0.0059 L 12,16.111328 11.072266,15.015625 a 0.75,0.75 0 0 0 -0.06055,-0.0059 z m -1.509766,4.746093 0.527344,0.625 -1.1640624,1.375 z m 3.019532,0 0.636718,2 -1.164062,-1.375 z"
     id="path3" />
</svg>
