<?xml version="1.0" encoding="UTF-8" standalone="no"?>
<svg
   width="24"
   height="24"
   viewBox="0 0 24 24"

   version="1.1"
   id="svg3"
   xmlns="http://www.w3.org/2000/svg"
   xmlns:svg="http://www.w3.org/2000/svg">
  <defs
     id="defs3" />
  <path
  
     d="m 10.71875,1.2539062 c -0.889236,9e-7 -1.7790057,0.3375932 -2.453125,1.0117188 -1.3482546,1.3482419 -1.3482546,3.5580081 0,4.90625 l 2.5625,2.5625 c 1.348294,1.348205 3.557956,1.348205 4.90625,0 1.348209,-1.3482473 1.348209,-3.5580027 0,-4.90625 l -2.5625,-2.5625 C 12.497725,1.5915135 11.607986,1.2539054 10.71875,1.2539062 Z m 0,1.4921876 c 0.502215,8e-7 1.005029,0.1925506 1.392578,0.5800781 l 2.5625,2.5625 c 0.774989,0.7750106 0.774989,2.0101456 0,2.7851562 -0.775104,0.775053 -2.010052,0.775053 -2.785156,0 l -2.5625001,-2.5625 c -0.7750233,-0.775016 -0.7750233,-2.0101402 0,-2.7851562 C 9.7136815,2.9386586 10.216535,2.7460929 10.71875,2.7460938 Z"
     id="path1" />
  <path
  
     d="m 13.263672,3.8574219 c 0,0 -0.0283,0.1774054 -0.214844,0.5644531 -0.186544,0.3870477 -0.519472,0.9315635 -1.107422,1.5195312 -0.588002,0.5879748 -1.13256,0.9209363 -1.519531,1.1074219 -0.386971,0.1864856 -0.5644531,0.2148438 -0.5644531,0.2148438 l 0.2851561,1.4726562 c 0,0 0.40701,-0.084053 0.929688,-0.3359375 0.522677,-0.2518839 1.21389,-0.6826735 1.929687,-1.3984375 0.715749,-0.7157709 1.146508,-1.4069761 1.398438,-1.9296875 0.25193,-0.5227114 0.335937,-0.9296875 0.335937,-0.9296875 z"
     id="path2" />
  <path
  
     d="m 12.523438,13.291016 c -0.931919,-0.09598 -1.896944,-0.02643 -2.8398442,0.15625 -1.8858007,0.365353 -3.7087832,1.184798 -5.1171876,2.183593 a 0.75,0.75 0 0 0 -0.1777343,1.044922 0.75,0.75 0 0 0 1.0449218,0.179688 c 1.221013,-0.865903 2.8881155,-1.616451 4.5351563,-1.935547 1.647041,-0.319096 3.245988,-0.203684 4.425781,0.5 0.110447,0.06591 0.199721,0.139824 0.273438,0.222656 0.296899,0.3335 0.281887,0.773133 -0.05859,1.070313 -0.07406,0.06458 -0.113693,0.07255 -0.08398,0.06641 -0.01175,0.0013 -0.02329,0.0027 -0.03516,0.0039 -0.477403,0.04898 -1.040673,0.06123 -1.667968,0.002 a 0.75,0.75 0 0 0 -0.816407,0.677735 0.75,0.75 0 0 0 0.675782,0.816406 c 0.699446,0.06609 1.322903,0.04821 1.875,-0.0039 a 0.75,0.75 0 0 0 0.0098,0.0039 c 0.01236,0 0.02296,-0.0035 0.03516,-0.0039 0.01199,-0.0012 0.02911,0.0012 0.04101,0 0.04034,-0.0041 0.08165,-0.0091 0.121094,-0.01367 0.130354,-0.01512 0.254724,-0.03158 0.375,-0.05078 1.104208,-0.176159 1.977572,-0.750684 2.710937,-1.304687 l 1.806641,-1.365234 c 0.352344,-0.26618 0.964012,-0.266066 1.316406,0 0.316449,0.23895 0.360548,0.47699 0.201172,0.732421 -0.407467,0.653258 -0.999564,1.492801 -1.462891,1.921875 -0.464026,0.429772 -1.275633,0.894468 -1.939453,1.214844 -0.678316,0.327421 -1.460688,0.530535 -2.285156,0.664063 -1.66511,0.269452 -3.408465,0.226643 -5.058594,-0.113282 -1.0340528,-0.213107 -2.1050631,-0.32232 -3.1680064,-0.32232 H 5 a 0.75,0.75 0 0 0 -0.75,0.75 0.75,0.75 0 0 0 0.75,0.75 h 2.2597656 c 0.9587747,0 1.9317116,0.100622 2.8652344,0.292969 1.830468,0.377074 3.750476,0.422594 5.601563,0.123046 0.90933,-0.147271 1.832583,-0.37559 2.697265,-0.792968 0.728979,-0.351824 1.624669,-0.833216 2.306641,-1.464844 0.681073,-0.630724 1.278465,-1.525775 1.716797,-2.228516 0.566023,-0.907167 0.260637,-2.09716 -0.570313,-2.724609 -0.922005,-0.696134 -2.203145,-0.694466 -3.125,0.002 l -1.806641,1.363281 v 0.002 c -0.219412,0.16575 -0.452179,0.197123 -0.671875,0.333984 -0.02645,-0.498408 -0.13339,-1.006139 -0.484374,-1.400391 -0.185083,-0.207968 -0.398647,-0.376632 -0.625,-0.511718 v -0.002 c -0.808803,-0.482454 -1.708707,-0.743915 -2.640625,-0.83989 z"
     id="path3" />
  <path
  
     d="m 3.5,13.25 c -1.2335258,0 -2.25,1.016474 -2.25,2.25 v 5 c 0,1.233526 1.0164742,2.25 2.25,2.25 1.2335258,0 2.25,-1.016474 2.25,-2.25 v -5 c 0,-1.233526 -1.0164742,-2.25 -2.25,-2.25 z m 0,1.5 c 0.4284725,0 0.75,0.321528 0.75,0.75 v 5 c 0,0.428472 -0.3215275,0.75 -0.75,0.75 -0.4284725,0 -0.75,-0.321528 -0.75,-0.75 v -5 c 0,-0.428472 0.3215275,-0.75 0.75,-0.75 z"
     id="rect3" />
</svg>
