<?xml version="1.0" encoding="UTF-8" standalone="no"?>
<svg
   width="24"
   height="24"
   viewBox="0 0 24 24"
   version="1.1"
   id="svg3"
   xmlns="http://www.w3.org/2000/svg"
   xmlns:svg="http://www.w3.org/2000/svg">
  <defs
     id="defs3" />
  <path
   
     d="m 4.9824219,17.78125 a 0.75,0.75 0 0 0 -0.5683594,0.07813 0.75,0.75 0 0 0 -0.2695313,1.025391 c 0.9997872,1.714557 2.5243547,2.993143 4.3339844,3.800781 A 0.75,0.75 0 0 0 9.46875,22.304687 0.75,0.75 0 0 0 9.0898438,21.314453 C 7.5290968,20.617892 6.2694842,19.552345 5.4394531,18.128906 A 0.75,0.75 0 0 0 4.9824219,17.78125 Z"
     id="path1" />
  <path
   
     d="m 17.498047,1.4296875 c -0.92408,-0.2425242 -1.914859,-0.239145 -2.878906,0.035156 A 0.75,0.75 0 0 0 14.103516,2.390625 0.75,0.75 0 0 0 15.03125,2.9082031 c 1.425703,-0.4056566 2.852758,-0.030387 3.875,1.0136719 a 0.75,0.75 0 0 0 1.060547,0.011719 0.75,0.75 0 0 0 0.01172,-1.0605469 C 19.281238,2.1608874 18.422127,1.6722117 17.498047,1.4296875 Z"
     id="path2" />
  <path
     d="M 4.0106,8.36655 3.63846,7.71539 Z M 6.50218,8.86743 7.15007,8.48962 Z M 3.2028,10.7531 2.55491,11.1309 v 0 z M 7.69685,3.37253 8.34474,2.99472 v 0 z M 8.53873,4.81624 7.89085,5.19405 Z m 1.87777,4.70893 c 0.2087,0.35782 0.6679,0.47873 1.0257,0.27007 C 11.8,9.58659 11.9209,9.12736 11.7123,8.76955 Z M 7.53806,12.1327 c 0.20866,0.3578 0.66788,0.4787 1.0257,0.27 C 8.92158,12.1941 9.0425,11.7349 8.83384,11.377 Z M 4.39747,5.25817 3.74958,5.63598 Z M 11.8381,2.9306 12.486,2.55279 v 0 z m 2.5257,4.33112 0.6479,-0.37781 z m 1.6837,2.88738 0.3722,0.6512 c 0.1737,-0.0993 0.3005,-0.2638 0.3523,-0.457 0.0518,-0.1933 0.0242,-0.39917 -0.0766,-0.57198 z m 1.6157,-4.77302 -0.6479,0.37781 z m 2.5256,4.33112 0.6479,-0.37781 v 0 z M 6.99128,17.2497 7.63917,16.8719 Z m 9.96632,2.0036 -0.3722,-0.6512 z M 13.784,15.3 c 0.2087,0.3578 0.6679,0.4787 1.0257,0.2701 0.3579,-0.2087 0.4788,-0.6679 0.2701,-1.0257 z M 4.38275,9.0177 C 5.01642,8.65555 5.64023,8.87817 5.85429,9.24524 L 7.15007,8.48962 C 6.4342,7.26202 4.82698,7.03613 3.63846,7.71539 Z M 3.63846,7.71539 C 2.44761,8.39597 1.83532,9.8969 2.55491,11.1309 L 3.85068,10.3753 C 3.64035,10.0146 3.75139,9.37853 4.38275,9.0177 Z M 7.04896,3.75034 7.89085,5.19405 9.18662,4.43843 8.34474,2.99472 Z M 7.89085,5.19405 10.4165,9.52517 11.7123,8.76955 9.18662,4.43843 Z M 8.83384,11.377 7.15007,8.48962 5.85429,9.24524 7.53806,12.1327 Z M 7.15007,8.48962 5.04535,4.88036 3.74958,5.63598 5.85429,9.24524 Z M 5.57742,3.5228 C 6.21109,3.16065 6.8349,3.38327 7.04896,3.75034 L 8.34474,2.99472 C 7.62887,1.76712 6.02165,1.54123 4.83313,2.22048 Z M 4.83313,2.22048 C 3.64228,2.90107 3.02999,4.40199 3.74958,5.63598 L 5.04535,4.88036 C 4.83502,4.51967 4.94606,3.88363 5.57742,3.5228 Z M 11.1902,3.30841 13.7159,7.63953 15.0117,6.88391 12.486,2.55279 Z m 2.5257,4.33112 1.6838,2.88737 1.2957,-0.75558 -1.6837,-2.88741 z M 9.71869,3.08087 C 10.3524,2.71872 10.9762,2.94134 11.1902,3.30841 L 12.486,2.55279 C 11.7701,1.32519 10.1629,1.0993 8.9744,1.77855 Z M 8.9744,1.77855 C 7.78355,2.45914 7.17126,3.96006 7.89085,5.19405 L 9.18662,4.43843 C 8.97629,4.07774 9.08733,3.4417 9.71869,3.08087 Z M 17.0153,5.75389 19.5409,10.085 20.8367,9.32939 18.311,4.99827 Z M 15.5437,5.52635 C 16.1774,5.1642 16.8012,5.38682 17.0153,5.75389 L 18.311,4.99827 C 17.5952,3.77068 15.988,3.54478 14.7994,4.22404 Z M 14.7994,4.22404 C 13.6086,4.90462 12.9963,6.40555 13.7159,7.63953 L 15.0117,6.88391 C 14.8013,6.52322 14.9124,5.88718 15.5437,5.52635 Z M 2.55491,11.1309 6.34339,17.6276 7.63917,16.8719 3.85068,10.3753 Z M 16.5854,18.6021 C 13.2185,20.5264 9.24811,19.631 7.63917,16.8719 l -1.29578,0.7557 c 2.11075,3.6196 7.06451,4.5182 10.98631,2.2769 z m 2.9555,-8.5171 c 1.6052,2.7527 0.4092,6.5942 -2.9555,8.5171 l 0.7443,1.3024 c 3.9242,-2.2427 5.6215,-6.9491 3.507,-10.57511 z m -4.4611,4.4594 c -0.6753,-1.1581 -0.2026,-2.8626 1.3399,-3.7441 L 15.6754,9.49797 C 13.5735,10.6993 12.5995,13.2687 13.784,15.3 Z"
   
     id="path3" />
</svg>
