<?xml version="1.0" encoding="UTF-8" standalone="no"?>
<svg
   width="24"
   height="24"
   viewBox="0 0 24 24"

   version="1.1"
   id="svg7"
   xmlns="http://www.w3.org/2000/svg"
   xmlns:svg="http://www.w3.org/2000/svg">
  <defs
     id="defs7" />
  <path
    
     d="M 10,2.25 C 9.0571909,2.25 8.3346696,2.2454312 7.7050781,2.3300781 7.0754867,2.4147251 6.4898365,2.6195311 6.0546875,3.0546875 5.6195311,3.4898365 5.4147251,4.0754867 5.3300781,4.7050781 5.2454312,5.3346696 5.25,6.0571909 5.25,7 c 0,0.9428091 -0.00457,1.6653313 0.080078,2.2949219 0.084647,0.6295906 0.2894494,1.2152451 0.7246094,1.6503911 0.4351477,0.435162 1.0207978,0.63996 1.6503906,0.724609 C 8.3346709,11.75457 9.0571909,11.75 10,11.75 h 4 c 0.942799,0 1.665332,0.0046 2.294922,-0.08008 0.62959,-0.08465 1.215237,-0.289456 1.65039,-0.724609 0.435167,-0.435144 0.639961,-1.0207992 0.72461,-1.6503911 C 18.754571,8.6653299 18.75,7.9428091 18.75,7 18.75,6.0571909 18.75457,5.3346709 18.669922,4.7050781 18.585273,4.0754853 18.380475,3.4898352 17.945312,3.0546875 17.510157,2.6195399 16.924511,2.4147251 16.294922,2.3300781 15.665333,2.2454312 14.942799,2.25 14,2.25 Z m 0,1.5 h 4 c 0.942799,0 1.63409,0.00461 2.09375,0.066406 0.45966,0.0618 0.640371,0.1481863 0.791016,0.2988281 C 17.035402,4.265866 17.121792,4.4465889 17.183594,4.90625 17.245395,5.3659111 17.25,6.0571909 17.25,7 c 0,0.9428091 -0.0046,1.6340905 -0.06641,2.09375 -0.0618,0.4596595 -0.148195,0.6403902 -0.298828,0.7910156 C 16.73412,10.035411 16.553409,10.121792 16.09375,10.183594 15.634091,10.245395 14.942799,10.25 14,10.25 H 10 C 9.0571909,10.25 8.3659111,10.2454 7.90625,10.18359 7.4465889,10.121792 7.265866,10.035402 7.1152344,9.8847656 6.964605,9.7341414 6.8782066,9.5534108 6.8164062,9.09375 6.7546059,8.6340892 6.75,7.9428091 6.75,7 6.75,6.0571909 6.7546058,5.3659125 6.8164062,4.90625 6.8782067,4.4465875 6.9646013,4.2658648 7.1152344,4.1152344 7.2658648,3.9646013 7.4465875,3.8782067 7.90625,3.8164063 8.3659125,3.7546058 9.0571909,3.75 10,3.75 Z"
     id="path1" />
  <path
    
     d="m 12,5.25 c -0.957622,0 -1.75,0.7924012 -1.75,1.75 0,0.9575988 0.792378,1.75 1.75,1.75 0.957622,0 1.75,-0.7924012 1.75,-1.75 0,-0.9575988 -0.792378,-1.75 -1.75,-1.75 z m 0,1.5 c 0.146977,0 0.25,0.1030399 0.25,0.25 0,0.1469601 -0.103023,0.25 -0.25,0.25 -0.146977,0 -0.25,-0.1030399 -0.25,-0.25 0,-0.1469601 0.103023,-0.25 0.25,-0.25 z"
     id="path2" />
  <path

     d="M 15,2.25 A 0.75,0.75 0 0 0 14.25,3 c 0,2.0621653 1.687782,3.75 3.75,3.75 A 0.75,0.75 0 0 0 18.75,6 0.75,0.75 0 0 0 18,5.25 C 16.748421,5.25 15.75,4.2515314 15.75,3 A 0.75,0.75 0 0 0 15,2.25 Z"
     id="path3" />
  <path

     d="m 18,7.25 c -2.062218,0 -3.75,1.6878347 -3.75,3.75 A 0.75,0.75 0 0 0 15,11.75 0.75,0.75 0 0 0 15.75,11 C 15.75,9.7484686 16.748421,8.75 18,8.75 A 0.75,0.75 0 0 0 18.75,8 0.75,0.75 0 0 0 18,7.25 Z"
     id="path4" />
  <path

     d="M 9,2.25 A 0.75,0.75 0 0 0 8.25,3 C 8.25,4.2515163 7.2515163,5.25 6,5.25 A 0.75,0.75 0 0 0 5.25,6 0.75,0.75 0 0 0 6,6.75 C 8.0621803,6.75 9.75,5.0621803 9.75,3 A 0.75,0.75 0 0 0 9,2.25 Z"
     id="path5" />
  <path

     d="M 6,7.25 A 0.75,0.75 0 0 0 5.25,8 0.75,0.75 0 0 0 6,8.75 c 1.2515163,0 2.25,0.9984837 2.25,2.25 A 0.75,0.75 0 0 0 9,11.75 0.75,0.75 0 0 0 9.75,11 C 9.75,8.9378197 8.0621803,7.25 6,7.25 Z"
     id="path6" />
  <path

     d="m 12.523438,13.291016 c -0.931919,-0.09598 -1.896944,-0.02643 -2.8398442,0.15625 -1.8858007,0.365353 -3.7087832,1.184798 -5.1171876,2.183593 a 0.75,0.75 0 0 0 -0.1777343,1.044922 0.75,0.75 0 0 0 1.0449218,0.179688 c 1.221013,-0.865903 2.8881155,-1.616451 4.5351563,-1.935547 1.647041,-0.319096 3.245988,-0.203684 4.425781,0.5 0.110447,0.06591 0.199721,0.139824 0.273438,0.222656 0.296899,0.3335 0.281887,0.773133 -0.05859,1.070313 -0.07406,0.06458 -0.113693,0.07255 -0.08398,0.06641 -0.01175,0.0013 -0.02329,0.0027 -0.03516,0.0039 -0.477403,0.04898 -1.040673,0.06123 -1.667968,0.002 a 0.75,0.75 0 0 0 -0.816407,0.677735 0.75,0.75 0 0 0 0.675782,0.816406 c 0.699446,0.06609 1.322903,0.04821 1.875,-0.0039 a 0.75,0.75 0 0 0 0.0098,0.0039 c 0.01236,0 0.02296,-0.0035 0.03516,-0.0039 0.01199,-0.0012 0.02911,0.0012 0.04101,0 0.04034,-0.0041 0.08165,-0.0091 0.121094,-0.01367 0.130354,-0.01512 0.254724,-0.03158 0.375,-0.05078 1.104208,-0.176159 1.977572,-0.750684 2.710937,-1.304687 l 1.806641,-1.365234 c 0.352344,-0.26618 0.964012,-0.266066 1.316406,0 0.316449,0.23895 0.360548,0.47699 0.201172,0.732421 -0.407467,0.653258 -0.999564,1.492801 -1.462891,1.921875 -0.464026,0.429772 -1.275633,0.894468 -1.939453,1.214844 -0.678316,0.327421 -1.460688,0.530535 -2.285156,0.664063 -1.66511,0.269452 -3.408465,0.226643 -5.058594,-0.113282 -1.0340528,-0.213107 -2.1050631,-0.32232 -3.1680064,-0.32232 H 5 a 0.75,0.75 0 0 0 -0.75,0.75 0.75,0.75 0 0 0 0.75,0.75 h 2.2597656 c 0.9587747,0 1.9317116,0.100622 2.8652344,0.292969 1.830468,0.377074 3.750476,0.422594 5.601563,0.123046 0.90933,-0.147271 1.832583,-0.37559 2.697265,-0.792968 0.728979,-0.351824 1.624669,-0.833216 2.306641,-1.464844 0.681073,-0.630724 1.278465,-1.525775 1.716797,-2.228516 0.566023,-0.907167 0.260637,-2.09716 -0.570313,-2.724609 -0.922005,-0.696134 -2.203145,-0.694466 -3.125,0.002 l -1.806641,1.363281 v 0.002 c -0.219412,0.16575 -0.452179,0.197123 -0.671875,0.333984 -0.02645,-0.498408 -0.13339,-1.006139 -0.484374,-1.400391 -0.185083,-0.207968 -0.398647,-0.376632 -0.625,-0.511718 v -0.002 c -0.808803,-0.482454 -1.708707,-0.743915 -2.640625,-0.83989 z"
     id="path7" />
  <path
    
     d="m 3.5,13.25 c -1.2335258,0 -2.25,1.016474 -2.25,2.25 v 5 c 0,1.233526 1.0164742,2.25 2.25,2.25 1.2335258,0 2.25,-1.016474 2.25,-2.25 v -5 c 0,-1.233526 -1.0164742,-2.25 -2.25,-2.25 z m 0,1.5 c 0.4284725,0 0.75,0.321528 0.75,0.75 v 5 c 0,0.428472 -0.3215275,0.75 -0.75,0.75 -0.4284725,0 -0.75,-0.321528 -0.75,-0.75 v -5 c 0,-0.428472 0.3215275,-0.75 0.75,-0.75 z"
     id="rect7" />
</svg>
