<?xml version="1.0" encoding="UTF-8" standalone="no"?>
<svg
   width="24"
   height="24"
   viewBox="0 0 24 24"
   version="1.1"
   id="svg3"
   xmlns="http://www.w3.org/2000/svg"
   xmlns:svg="http://www.w3.org/2000/svg">
  <defs
     id="defs3" />
  <path
     d="M 7.7890625,8.2851563 C 6.5680135,8.35358 5.465615,8.5168563 4.5253906,8.765625 4.4588336,8.783235 4.4262969,8.8214145 4.3613281,8.8398438 L 4.3535156,8.8125 C 3.5855916,9.0292677 2.9725068,9.3359372 2.4453125,9.7050781 2.3802509,9.7503744 2.2681577,9.7642978 2.2070313,9.8125 c -0.00995,0.00785 -0.013587,0.021322 -0.023437,0.029297 -0.00798,0.00644 -0.023343,0.00718 -0.03125,0.013672 -0.1088511,0.089413 -0.1694813,0.219434 -0.2636719,0.324219 -0.069307,0.07671 -0.1797511,0.121109 -0.2402344,0.205078 -0.027746,0.03851 -0.013807,0.09622 -0.039063,0.136718 -7.625e-4,0.0012 -0.00119,0.0027 -0.00195,0.0039 -0.035706,0.05703 -0.094454,0.0967 -0.125,0.15625 -0.167532,0.327431 -0.257666,0.690008 -0.2246125,1.068366 0.017643,0.202086 0.065463,0.39838 0.1367187,0.583984 0.065829,0.171406 0.1947087,0.312063 0.2949219,0.466797 0.073325,0.114095 0.1262968,0.234582 0.2167969,0.341797 0.025768,0.03074 0.035596,0.06944 0.0625,0.09961 0.068583,0.07685 0.195649,0.131332 0.2714844,0.205078 0.2215604,0.211391 0.4157737,0.434384 0.6875,0.623047 0.1242992,0.08629 0.3179322,0.151201 0.453125,0.234375 0.00233,0.0014 0.00548,0.0025 0.00781,0.0039 0.1227767,0.0748 0.1890511,0.169884 0.3203125,0.242187 0.444225,0.244681 0.9360872,0.474949 1.4707031,0.689453 l 0.00195,-0.0078 c 0.5137964,0.206508 1.1272673,0.366081 1.7128906,0.541016 0.2146608,0.06444 0.3528903,0.160695 0.5761719,0.220703 a 0.75,0.75 0 0 0 0.1054688,-0.01367 c 0.264295,0.07011 0.478535,0.164774 0.7539062,0.228515 A 0.75,0.75 0 0 0 9.2304688,15.648438 0.75,0.75 0 0 0 8.6699219,14.748047 C 6.6630102,14.283499 5.0526702,13.606842 4.0097656,12.927734 3.8542511,12.824655 3.7282796,12.725702 3.6035156,12.625 3.128482,12.224293 2.7695795,11.820921 2.7519531,11.619141 c -0.011944,-0.13673 0.1361287,-0.286618 0.2695313,-0.439453 0.2235123,-0.245776 0.7619478,-0.5396 1.4902343,-0.791016 0.1614425,-0.05444 0.2143598,-0.125641 0.3964844,-0.173828 1.6270302,-0.430487 4.0277992,-0.5948286 6.7187499,-0.3476565 1.760545,0.1617115 3.403319,0.5019055 4.841797,0.9160155 0.42027,0.121309 0.704816,0.278043 1.082031,0.414063 0.924181,0.331968 1.809255,0.673555 2.396485,1.048828 0.176577,0.114814 0.314536,0.223853 0.453125,0.335937 0.470961,0.398707 0.830099,0.802922 0.847656,1.003907 0.01269,0.14535 -0.195149,0.31838 -0.351563,0.484375 -0.185443,0.1848 -0.631181,0.377517 -1.089843,0.576171 -0.437384,0.178516 -0.778789,0.377853 -1.410157,0.501954 a 0.75,0.75 0 0 0 -0.591797,0.878906 0.75,0.75 0 0 0 0.88086,0.591797 c 0.377315,-0.07417 0.594809,-0.24209 0.929687,-0.339844 l 0.03125,0.113281 c 0.692878,-0.19553 1.267735,-0.458191 1.767578,-0.773437 0.03394,-0.02136 0.09591,-0.02489 0.128907,-0.04687 0.05858,-0.03904 0.0886,-0.104028 0.144531,-0.146485 0.04301,-0.03236 0.119025,-0.04238 0.160156,-0.07617 0.107985,-0.0887 0.168148,-0.218425 0.261719,-0.322265 0.06998,-0.07731 0.181184,-0.122349 0.242187,-0.207031 0.01979,-0.02747 0.0088,-0.06916 0.02734,-0.09766 0.02941,-0.04469 0.05584,-0.08464 0.08203,-0.130859 0.128051,-0.227964 0.16529,-0.479612 0.201172,-0.738281 a 0.75,0.75 0 0 0 0.02148,-0.05664 0.75,0.75 0 0 0 0.05859,-0.341797 c -0.01768,-0.202003 -0.06543,-0.398357 -0.136718,-0.583984 -0.06531,-0.170078 -0.193772,-0.309249 -0.292969,-0.462891 -0.07458,-0.116583 -0.128208,-0.2402 -0.220703,-0.349609 -0.02486,-0.02958 -0.03463,-0.06666 -0.06055,-0.0957 -0.06603,-0.074 -0.188967,-0.126149 -0.261719,-0.197266 -0.223953,-0.214917 -0.421474,-0.441371 -0.697265,-0.632812 -0.127295,-0.0884 -0.322322,-0.155403 -0.460938,-0.240235 C 20.488927,10.818056 20.421816,10.724407 20.291,10.652352 19.846805,10.407706 19.355108,10.177347 18.820296,9.9628986 l -0.04297,0.1093754 c -0.174443,-0.07157 -0.355594,-0.1389626 -0.539063,-0.2070316 -0.503594,-0.1883207 -0.900625,-0.4040959 -1.464844,-0.5625 -0.09313,-0.026239 -0.149494,-0.068316 -0.24414,-0.09375 a 0.75,0.75 0 0 0 -0.06445,0.037109 C 15.02037,8.860196 13.467482,8.5295467 11.763672,8.3730469 10.349035,8.2431082 9.0101115,8.2167325 7.7890625,8.2851563 Z"
     id="path1" />
  <path
     d="M 17.15625,3.2695313 C 16.680062,3.3349939 16.190677,3.5138746 15.699219,3.7539063 15.428863,3.8859474 15.154154,4.0406241 14.875,4.2167969 14.456056,4.4811656 14.026129,4.7932263 13.589844,5.1484375 a 0.75,0.75 0 0 0 -0.146485,0.2695312 c -1.569051,1.2980606 -3.19437,2.9708014 -4.6816402,5.1523443 -1.6099959,2.361605 -2.7195106,4.669134 -3.2207032,6.576171 -0.013739,0.05228 -8.163e-4,0.08895 -0.013672,0.140625 a 0.75,0.75 0 0 0 -0.033203,0.04492 c -0.1335507,0.545617 -0.095581,0.992036 -0.1171875,1.470703 -0.012967,0.29237 -0.1263467,0.640411 -0.089844,0.908203 0.00198,0.01452 0.011491,0.02652 0.013672,0.04102 0.00147,0.0098 -0.00349,0.0234 -0.00195,0.0332 0.038038,0.242056 0.1506378,0.459325 0.2480469,0.681641 0.045569,0.104113 0.056402,0.222619 0.1152344,0.318359 0.1925699,0.313269 0.4524703,0.57756 0.7929687,0.746094 a 0.75,0.75 0 0 0 0.00781,0 0.75,0.75 0 0 0 0.00391,0.0059 c -0.00757,-0.0036 -0.00361,-0.0033 0.011719,0.0039 0.1807297,0.08648 0.3720775,0.145937 0.5664063,0.177734 0.3522511,0.05781 0.7115589,0.03227 1.0703125,-0.04492 0.6411968,-0.138082 1.2968484,-0.443398 1.9824221,-0.873047 0.160715,-0.100649 0.323172,-0.208003 0.486328,-0.322265 0.272238,-0.19061 0.547363,-0.400009 0.826172,-0.626954 l 1.173828,-0.953125 a 0.75,0.75 0 0 0 0.109375,-1.05664 0.75,0.75 0 0 0 -1.054687,-0.107422 l -1.175786,0.95309 v 0.002 C 10.2095,18.895708 9.9620176,19.08241 9.7226563,19.25 9.5788129,19.350737 9.4377066,19.443546 9.3007813,19.529297 v 0.002 c -0.5861653,0.36735 -1.1103179,0.593816 -1.5000001,0.677734 -0.2182292,0.04707 -0.3905719,0.04918 -0.5117187,0.0293 h -0.00195 C 7.2200501,20.227309 7.1691669,20.210813 7.125,20.189453 l -0.00391,-0.002 -0.00195,-0.002 C 6.9605435,20.106476 6.8461881,19.948702 6.7832031,19.527344 6.7615871,19.3818 6.8363051,19.089388 6.8417969,18.894531 6.853843,18.48526 6.8413907,18.101125 6.9921875,17.527344 7.429089,15.864934 8.4690721,13.662553 10.001953,11.414063 11.849867,8.7035235 13.999409,6.5410661 15.673828,5.484375 15.913074,5.3333881 16.143378,5.2061011 16.357422,5.1015625 17.135903,4.7213467 17.666403,4.7096902 17.875,4.8105469 c 0.106881,0.051681 0.173859,0.1161609 0.248047,0.2871093 0.06937,0.1597213 0.12407,0.413635 0.126953,0.75 0.0062,0.7052432 -0.213983,1.7449886 -0.669922,2.9394532 a 0.75,0.75 0 0 0 0.433594,0.96875 0.75,0.75 0 0 0 0.96875,-0.4335938 C 19.175074,8.8175571 19.156341,8.4392909 19.279297,7.9765625 A 0.75,0.75 0 0 0 19.505859,7.6660156 C 19.667272,7.0065417 19.754941,6.3974988 19.75,5.8359375 19.745883,5.3556234 19.676832,4.9071582 19.5,4.5 19.310789,4.0640091 18.974015,3.6759761 18.529297,3.4609375 18.095396,3.2511461 17.632438,3.2040686 17.15625,3.2695313 Z"
     id="path2" />
  <path
     d="m 12.863281,12.087891 c -0.322248,-0.133832 -0.803764,-0.221108 -1.207031,0.01172 -0.403265,0.232826 -0.570018,0.693058 -0.615234,1.039063 -0.04522,0.346005 -0.03229,0.69907 -0.02539,1.154297 l 0.002,0.234375 c 0.0039,0.258601 -0.016,0.281216 0.01758,0.201172 0.03378,-0.08028 0.04151,-0.06268 -0.142578,0.107422 l -0.167969,0.15625 c -0.324027,0.299579 -0.580342,0.526525 -0.7968746,0.798828 -0.2165324,0.272302 -0.4193555,0.713948 -0.3203125,1.152343 0.098921,0.438434 0.4587491,0.741393 0.7675781,0.904297 0.308829,0.162905 0.64064,0.275326 1.066406,0.425781 l 0.220703,0.07617 c 0.241852,0.08545 0.251255,0.108399 0.197266,0.05859 -0.05469,-0.05051 -0.02826,-0.03495 0.08008,0.203125 l 0.09961,0.214844 v 0.002 c 0.190504,0.41871 0.331243,0.744123 0.519531,1.039062 0.188288,0.29494 0.519235,0.633871 0.974609,0.691407 0.455549,0.05771 0.87551,-0.206871 1.117188,-0.457032 0.241677,-0.25016 0.435159,-0.536241 0.691406,-0.898437 l 0.132812,-0.1875 c 0.145567,-0.205853 0.168832,-0.200219 0.08594,-0.152344 -0.08262,0.04767 -0.07531,0.02515 0.175781,0.002 l 0.228516,-0.02148 c 0.441797,-0.0408 0.785533,-0.06616 1.123047,-0.150391 0.337513,-0.08423 0.777252,-0.314991 0.955078,-0.738281 0.177838,-0.423183 0.04996,-0.878953 -0.111328,-1.189453 -0.161289,-0.3105 -0.373269,-0.596395 -0.640625,-0.970703 l -0.138672,-0.193359 c -0.151877,-0.212528 -0.151037,-0.243726 -0.134766,-0.171875 0.01628,0.07219 0.0019,0.05319 0.04883,-0.199219 L 17.109375,15 c 0.08255,-0.443886 0.152665,-0.787833 0.166016,-1.136719 0.01335,-0.348885 -0.07019,-0.812269 -0.400391,-1.117187 -0.33016,-0.305004 -0.814092,-0.348265 -1.158203,-0.296875 -0.344112,0.05139 -0.670343,0.160114 -1.091797,0.291015 l -0.216797,0.06836 c -0.239656,0.07442 -0.252453,0.05741 -0.166015,0.06836 0.0862,0.01093 0.05801,0.01745 -0.164063,-0.115234 L 13.875,12.640625 c -0.39081,-0.233556 -0.68947,-0.418902 -1.011719,-0.552734 z m -0.33789,1.517578 c 0.157419,0.0828 0.303137,0.15676 0.580078,0.322265 l 0.203125,0.121094 c 0.222128,0.132717 0.415296,0.274482 0.746094,0.316406 0.331237,0.04195 0.557331,-0.05062 0.796875,-0.125 l 0.21875,-0.06836 c 0.3286,-0.102062 0.513101,-0.147106 0.677734,-0.185547 -0.01914,0.1751 -0.04685,0.383022 -0.113281,0.740235 l -0.04297,0.230468 c -0.04688,0.252188 -0.108987,0.483941 -0.03711,0.802735 0.07207,0.31825 0.22483,0.500019 0.376953,0.71289 l 0.138671,0.19336 c 0.204046,0.285671 0.308026,0.44876 0.404297,0.603515 -0.168659,0.0257 -0.329588,0.05063 -0.648437,0.08008 l -0.228516,0.02148 c -0.251109,0.0232 -0.494089,0.02429 -0.787109,0.193359 -0.293094,0.169275 -0.414914,0.379991 -0.560547,0.585938 l -0.132812,0.1875 c -0.184684,0.261043 -0.286004,0.386295 -0.392579,0.519531 -0.08566,-0.160368 -0.175522,-0.332196 -0.320312,-0.650391 v -0.002 l -0.09961,-0.214844 C 13.196421,17.752263 13.11724,17.528495 12.87695,17.30659 h -0.002 c -0.239789,-0.221205 -0.470743,-0.285542 -0.712891,-0.371094 l -0.220703,-0.07813 c -0.343373,-0.12134 -0.538123,-0.200473 -0.699218,-0.271485 0.115555,-0.123372 0.248956,-0.25828 0.501953,-0.492187 l 0.167968,-0.15625 c 0.184308,-0.170299 0.376482,-0.321432 0.50586,-0.628906 0.12898,-0.307445 0.103511,-0.543937 0.09961,-0.802735 l -0.0039,-0.236328 c -0.0049,-0.323092 0.0047,-0.486328 0.01172,-0.664062 z"
     id="path3" />
</svg>
