<?xml version="1.0" encoding="UTF-8" standalone="no"?>
<svg
   width="24"
   height="24"
   viewBox="0 0 24 24"
   version="1.1"
   id="svg3"
   xmlns="http://www.w3.org/2000/svg"
   xmlns:svg="http://www.w3.org/2000/svg">
  <defs
     id="defs3" />
  <path
     d="M 9.96271,5.71911 10.241,6.41556 v 0 z m 1.08769,-1.13176 0.7039,0.25889 v 0 z M 9.11472,9.25915 9.59887,8.68634 v 0 z M 9.60971,5.86016 9.33141,5.16371 v 0 z m 0.51499,5.08394 -0.74863,0.046 v 0 z M 9.41074,9.50935 8.9266,10.0822 v 0 z M 9.99166,10.1089 9.32019,10.443 Z m 3.12744,2.804 0.4161,0.624 v 0 z m -2.9703,-1.5756 0.7486,-0.0459 v 0 z m 4.817,1.1187 0.2003,-0.7227 v 0 z m -1.5289,0.245 -0.4161,-0.6239 v 0 z M 17.6644,10.1328 18.39,9.94309 v 0 z m -2.3307,2.4252 -0.2004,0.7227 v 0 z m 2.4621,-4.39256 -0.6387,-0.3931 v 0 z m -0.231,1.58619 -0.7256,0.18968 v 0 z M 16.4692,4.76076 16.4225,5.50931 v 0 z m 1.5298,3.07446 0.6387,0.39311 v 0 z m -3.2953,-3.83341 0.588,-0.46554 v 0 z m 1.3861,0.73527 0.0468,-0.74854 v 0 z m -1.6284,-1.04134 -0.588,0.46554 v 0 z M 11.1852,4.22083 10.4813,3.96194 v 0 z M 7.88923,7.84613 C 8.22356,7.60159 8.29634,7.13232 8.0518,6.798 7.80726,6.46368 7.338,6.39089 7.00367,6.63543 Z M 4.24844,18 3.50784,18.1184 c 0.05442,0.3404 0.33388,0.5999 0.67739,0.6289 0.34351,0.0291 0.66258,-0.1798 0.7734,-0.5062 z m 6.28206,-4.5614 c 0.3925,-0.1324 0.6034,-0.5579 0.471,-0.9504 -0.1324,-0.3925 -0.5579,-0.6034 -0.9504,-0.471 z m 3.3429,-9.27732 0.2423,0.30607 1.176,-0.93108 -0.2423,-0.30608 z m 2.1697,1.32435 0.3794,0.02368 0.0934,-1.49709 -0.3793,-0.02368 z m 1.3172,1.95649 -0.2032,0.33022 1.2774,0.78621 0.2032,-0.33022 z M 16.8392,9.94131 16.9388,10.3225 18.39,9.94309 18.2904,9.56194 Z m -1.3052,1.89389 -0.3679,-0.1019 -0.4007,1.4454 0.3679,0.102 z m -2.5132,0.2419 -0.3178,0.2118 0.8322,1.248 0.3178,-0.2119 z m -2.1234,-0.7857 -0.0242,-0.3933 -1.49713,0.092 0.02416,0.3932 z M 9.89489,8.93655 9.59887,8.68634 8.63058,9.83195 8.9266,10.0822 Z M 9.888,6.55662 10.241,6.41556 9.68441,5.02265 9.33141,5.16371 Z M 11.7543,4.84624 11.8891,4.47972 10.4813,3.96194 10.3465,4.32846 Z M 10.241,6.41556 c 0.3265,-0.13044 0.706,-0.26545 0.986,-0.5569 L 10.1455,4.81927 C 10.1536,4.81085 10.15,4.82124 10.0819,4.85519 10.0013,4.8954 9.88939,4.94075 9.68441,5.02265 Z m 0.1055,-2.0871 c -0.078,0.21205 -0.1223,0.33078 -0.1619,0.41696 -0.0344,0.07489 -0.0464,0.08143 -0.0391,0.07385 L 11.227,5.85866 C 11.5036,5.5709 11.6292,5.18619 11.7543,4.84624 Z M 9.59887,8.68634 C 9.00778,8.18674 8.63067,7.86544 8.40008,7.6042 8.29024,7.47974 8.24641,7.40409 8.22983,7.36539 8.22269,7.34872 8.22231,7.34277 8.22267,7.34522 c 4.5e-4,0.00315 2e-4,0.0063 2.3e-4,0.0061 L 6.73856,7.13516 C 6.64963,7.74583 6.94834,8.22615 7.27548,8.5968 7.59642,8.96042 8.07746,9.36445 8.63058,9.83195 Z M 9.33141,5.16371 C 8.67334,5.42666 8.09654,5.65486 7.68381,5.89794 7.25888,6.14821 6.82855,6.51718 6.73856,7.13516 L 8.2229,7.35132 C 8.22293,7.3511 8.22208,7.35556 8.21962,7.36084 8.2174,7.36558 8.21768,7.36281 8.22689,7.35202 8.24918,7.32588 8.30755,7.2714 8.44504,7.19043 8.7351,7.01959 9.18163,6.83888 9.888,6.55662 Z M 10.8732,10.8981 C 10.8506,10.5292 10.84,10.1301 10.6631,9.77476 L 9.32019,10.443 c 8e-5,2e-4 0.00189,0.0034 0.00502,0.0147 0.00361,0.0131 0.00909,0.0372 0.0151,0.0804 0.01339,0.0962 0.02181,0.2249 0.03576,0.452 z M 8.9266,10.0822 c 0.17132,0.1448 0.26664,0.226 0.33361,0.2924 0.02981,0.0296 0.04485,0.0474 0.05232,0.0571 0.00637,0.0083 0.00761,0.0112 0.00766,0.0113 L 10.6631,9.77476 C 10.485,9.41673 10.1721,9.17086 9.89489,8.93655 Z m 3.7764,2.2067 c -0.6359,0.4241 -1.04,0.691 -1.3444,0.8329 -0.2957,0.138 -0.2915,0.0594 -0.2243,0.0951 l -0.7029,1.3251 c 0.5612,0.2977 1.1194,0.1454 1.5612,-0.0607 0.4332,-0.2021 0.9503,-0.5494 1.5426,-0.9444 z M 9.40023,11.3833 c 0.04519,0.7357 0.08232,1.3704 0.18083,1.8483 0.0989,0.4797 0.30081,1.0189 0.85034,1.3104 l 0.7029,-1.3251 c 0.0556,0.0294 -0.0129,0.0575 -0.0841,-0.2882 -0.0717,-0.3477 -0.1046,-0.853 -0.1528,-1.6373 z m 5.76587,0.35 c -0.3379,-0.0937 -0.7259,-0.2178 -1.1248,-0.1539 l 0.2374,1.4811 c -0.0155,0.0025 -0.0085,-0.0042 0.0671,0.0102 0.0887,0.0169 0.206,0.0488 0.4196,0.108 z M 13.853,13.325 c 0.1844,-0.123 0.2859,-0.19 0.365,-0.2338 0.0674,-0.0373 0.0761,-0.0332 0.0607,-0.0307 l -0.2374,-1.4811 c -0.3988,0.0639 -0.7287,0.3031 -1.0205,0.4977 z m 3.0858,-3.0025 c 0.1987,0.7602 0.325,1.2505 0.3653,1.6032 0.04,0.3507 -0.0336,0.3457 0.0097,0.3006 l 1.0815,1.0394 C 18.8262,12.8173 18.85,12.2423 18.7944,11.7555 18.739,11.2708 18.5764,10.6562 18.39,9.94309 Z m -1.8055,2.9582 c 0.6859,0.1902 1.2854,0.3586 1.76,0.4151 0.4843,0.0577 1.0619,0.0279 1.502,-0.4301 l -1.0815,-1.0394 c 0.0525,-0.0546 0.0807,0.0186 -0.243,-0.02 -0.3334,-0.0397 -0.8004,-0.1669 -1.5368,-0.3711 z m 2.0238,-5.50836 c -0.1904,0.3093 -0.4109,0.64051 -0.4685,1.03615 l 1.4843,0.21616 c 10e-5,-1.6e-4 4e-4,-0.0033 0.0038,-0.01322 0.0041,-0.01161 0.0129,-0.0333 0.032,-0.07071 0.0429,-0.08403 0.1082,-0.19107 0.2258,-0.38217 z m 1.1333,1.7896 C 18.2329,9.34181 18.2008,9.217 18.1835,9.12138 18.1757,9.07848 18.1734,9.05383 18.1728,9.0403 c -6e-4,-0.01174 10e-5,-0.01543 10e-5,-0.01565 L 16.6886,8.80849 c -0.0572,0.3928 0.0571,0.77528 0.1506,1.13282 z M 16.4225,5.50931 c 0.759,0.04738 1.2396,0.07951 1.5683,0.15115 0.1559,0.03395 0.2282,0.06743 0.2574,0.08523 0.0121,0.00734 0.0131,0.00983 0.0095,0.00595 C 18.2536,5.74734 18.2514,5.74331 18.2515,5.74346 L 19.5944,5.07523 C 19.3161,4.51595 18.7919,4.29981 18.3102,4.19484 17.8422,4.09288 17.2231,4.05637 16.5159,4.01222 Z m 2.2152,2.71902 C 19.0175,7.61129 19.3485,7.07716 19.54,6.63148 19.7352,6.1773 19.8693,5.6277 19.5944,5.07523 l -1.3429,0.66823 c 0,1.4e-4 -0.0012,-0.0028 -0.0017,-0.00594 -5e-4,-0.00244 0.001,0.00335 -5e-4,0.02146 -0.0037,0.04201 -0.0218,0.12766 -0.0874,0.28028 -0.1377,0.32033 -0.3958,0.7435 -0.8016,1.40286 z m -4.522,-3.76098 c 0.2247,0.28383 0.4641,0.61023 0.8168,0.79729 L 15.6354,3.93953 C 15.6448,3.94452 15.6315,3.94211 15.5754,3.88177 15.511,3.8123 15.4319,3.71336 15.2917,3.53627 Z M 16.1366,3.98854 C 15.9163,3.97479 15.7959,3.96668 15.7068,3.95368 15.6316,3.94271 15.6249,3.93399 15.6354,3.93953 l -0.7029,1.32511 c 0.3571,0.18944 0.7599,0.19909 1.1106,0.22099 z M 15.0494,3.23019 C 14.5967,2.65836 14.2058,2.16142 13.8539,1.82987 13.5009,1.49722 13.0186,1.16762 12.3929,1.2679 l 0.2374,1.4811 c -0.0809,0.01296 -0.0567,-0.06454 0.1949,0.17251 0.2527,0.23816 0.5642,0.62852 1.0482,1.23977 z M 11.8891,4.47972 C 12.1583,3.74779 12.3326,3.27949 12.4985,2.97418 12.6636,2.67022 12.711,2.73606 12.6303,2.749 L 12.3929,1.2679 C 11.7674,1.36816 11.412,1.83184 11.1805,2.25806 10.9496,2.68293 10.7331,3.27716 10.4813,3.96194 Z M 7.00367,6.63543 C 4.39707,8.54203 2.54807,12.1145 3.50784,18.1184 L 4.98903,17.8816 C 4.09936,12.3163 5.82582,9.35541 7.88923,7.84613 Z M 4.95863,18.2411 c 0.71653,-2.1107 2.94322,-3.916 5.57187,-4.8025 L 10.0511,12.0172 C 7.16706,12.9899 4.45886,15.047 3.53824,17.7589 Z"
     id="path4" />
  <path
     d="M 10.164063,15.513672 A 0.50005,0.50005 0 0 0 9.78125,16.021484 c 0,0 0.014571,0.350865 -0.025391,0.794922 -0.039962,0.444058 -0.1547367,0.971261 -0.3125,1.228516 -0.1577653,0.257258 -0.5754512,0.598975 -0.953125,0.835937 -0.3776738,0.236963 -0.6972657,0.382813 -0.6972657,0.382813 A 0.50005,0.50005 0 0 0 8.021484,20.21875 c 0,0 0.3508594,-0.01457 0.7949219,0.02539 0.4440624,0.03996 0.9712746,0.154754 1.2285161,0.3125 0.257281,0.157799 0.598973,0.575446 0.835937,0.953125 0.236965,0.377678 0.382813,0.697265 0.382813,0.697265 a 0.50005,0.50005 0 0 0 0.955078,-0.228515 c 0,0 -0.01457,-0.350862 0.02539,-0.794922 0.03996,-0.44406 0.154749,-0.971259 0.3125,-1.228516 0.157799,-0.257281 0.575446,-0.598973 0.953125,-0.835937 0.377678,-0.236965 0.697265,-0.382813 0.697265,-0.382813 A 0.50005,0.50005 0 0 0 13.978516,17.78125 c 0,0 -0.350862,0.01457 -0.794922,-0.02539 -0.44406,-0.03996 -0.971259,-0.154749 -1.228516,-0.3125 -0.257281,-0.157799 -0.598973,-0.575446 -0.835937,-0.953125 -0.236965,-0.377678 -0.382813,-0.697265 -0.382813,-0.697265 a 0.50005,0.50005 0 0 0 -0.572265,-0.279298 z m 0.453125,1.886719 c 0.234427,0.323115 0.44737,0.669387 0.814453,0.894531 0.367422,0.225305 0.773384,0.25986 1.167968,0.322265 -0.323115,0.234428 -0.669387,0.447371 -0.894531,0.814454 -0.225305,0.367422 -0.25986,0.773384 -0.322265,1.167968 -0.234428,-0.323115 -0.447371,-0.669387 -0.814454,-0.894531 -0.367418,-0.225309 -0.7733837,-0.25986 -1.1679684,-0.322266 0.3231129,-0.234429 0.6694054,-0.447354 0.8945314,-0.814453 0.225324,-0.367422 0.259853,-0.773381 0.322266,-1.167968 z"
     id="path5" />
  <path
     d="m 18.369141,14.513672 a 0.50005,0.50005 0 0 0 -0.345704,0.279297 c 0,0 -0.0924,0.203473 -0.24414,0.445312 -0.151738,0.24184 -0.376642,0.503984 -0.503906,0.582032 -0.127245,0.07803 -0.461739,0.159964 -0.746094,0.185546 -0.284356,0.02558 -0.507813,0.01563 -0.507813,0.01563 a 0.50005,0.50005 0 0 0 -0.228515,0.955078 c 0,0 0.203473,0.0924 0.445312,0.244141 0.24184,0.151738 0.503984,0.376642 0.582031,0.503906 0.07803,0.127245 0.159965,0.461739 0.185547,0.746094 0.02558,0.284356 0.01563,0.507813 0.01563,0.507813 a 0.50005,0.50005 0 0 0 0.955078,0.228515 c 0,0 0.0924,-0.203473 0.244141,-0.445312 0.151738,-0.24184 0.376642,-0.503984 0.503906,-0.582032 0.127245,-0.07803 0.461739,-0.159964 0.746094,-0.185546 0.284356,-0.02558 0.507813,-0.01563 0.507813,-0.01563 a 0.50005,0.50005 0 0 0 0.228515,-0.955079 c 0,0 -0.203473,-0.0924 -0.445312,-0.24414 -0.24184,-0.151738 -0.503984,-0.376642 -0.582032,-0.503906 -0.07803,-0.127245 -0.159964,-0.461739 -0.185546,-0.746094 -0.02558,-0.284356 -0.01563,-0.507813 -0.01563,-0.507813 a 0.50005,0.50005 0 0 0 -0.609375,-0.507812 z m -0.191407,1.746094 c 0.04815,0.185029 0.0403,0.359552 0.150391,0.539062 0.110092,0.179516 0.269017,0.252088 0.412109,0.378906 -0.185029,0.04815 -0.359552,0.0403 -0.539062,0.150391 -0.179516,0.110092 -0.252088,0.269017 -0.378906,0.412109 -0.04815,-0.185029 -0.0403,-0.359552 -0.150391,-0.539062 -0.110092,-0.179516 -0.269017,-0.252088 -0.412109,-0.378906 0.185029,-0.04815 0.359552,-0.0403 0.539062,-0.150391 0.179516,-0.110092 0.252088,-0.269017 0.378906,-0.412109 z"
     id="path6" />
</svg>
