<?xml version="1.0" encoding="UTF-8" standalone="no"?>
<svg
   width="24"
   height="24"
   viewBox="0 0 24 24"

   version="1.1"
   id="svg4"
   xmlns="http://www.w3.org/2000/svg"
   xmlns:svg="http://www.w3.org/2000/svg">
  <defs
     id="defs4" />
  <path
  
     d="M 10,5.25 C 8.1143819,5.25 6.6859363,5.2444746 5.5117187,5.4023437 4.3375012,5.5602129 3.3686723,5.9125839 2.640625,6.640625 1.9125809,7.3686753 1.5602127,8.3374969 1.4023437,9.5117188 1.2444748,10.685941 1.25,12.114402 1.25,14 c 0,1.885598 -0.00553,3.314057 0.1523437,4.488281 0.1578691,1.174225 0.5102188,2.143075 1.2382813,2.871094 0.7280455,0.728058 1.6968741,1.080408 2.8710937,1.238281 C 6.6859384,22.75553 8.1143819,22.75 10,22.75 h 4 c 1.885598,0 3.314055,0.0055 4.488281,-0.152344 1.174227,-0.157873 2.143077,-0.510202 2.871094,-1.238281 0.728079,-0.728017 1.080408,-1.696867 1.238281,-2.871094 C 22.75553,17.314055 22.75,15.885598 22.75,14 22.75,12.114402 22.7555,10.685943 22.597656,9.5117188 22.439783,8.3374949 22.087436,7.3686735 21.359375,6.640625 20.631356,5.9125625 19.662506,5.5602128 18.488281,5.4023437 17.314057,5.2444747 15.885598,5.25 14,5.25 Z m 0,1.5 h 4 c 1.885598,0 3.284764,0.0056 4.289062,0.140625 1.004299,0.1350232 1.566286,0.3670405 2.009766,0.8105469 0.443538,0.4435303 0.675521,1.0054716 0.810547,2.0097656 C 21.244401,10.715231 21.25,12.114402 21.25,14 c 0,1.885598 -0.0056,3.284766 -0.140625,4.289062 -0.135026,1.004297 -0.367027,1.566284 -0.810547,2.009766 -0.443482,0.44352 -1.005469,0.675521 -2.009766,0.810547 C 17.284766,21.244401 15.885598,21.25 14,21.25 H 10 C 8.1143819,21.25 6.7152257,21.2444 5.7109375,21.109375 4.7066493,20.974349 4.1447052,20.742369 3.7011719,20.298828 3.2576655,19.855348 3.0256482,19.293361 2.890625,18.289062 2.7556018,17.284764 2.75,15.885598 2.75,14 2.75,12.114402 2.7556,10.715234 2.890625,9.7109375 3.0256482,8.7066415 3.2576472,8.1447004 3.7011719,7.7011719 4.1447034,7.2576441 4.7066472,7.0256481 5.7109375,6.890625 6.7152278,6.7556019 8.1143819,6.75 10,6.75 Z"
     id="path1" />
  <path
  
     d="M 12,1.25 C 11.057201,1.25 10.334671,1.24543 9.7050781,1.330078 9.0754849,1.4147249 8.4898395,1.6195281 8.0546875,2.0546875 7.6195311,2.4898365 7.4147251,3.0754867 7.3300781,3.7050781 7.2454312,4.3346696 7.25,5.0571909 7.25,6 h 1.5 C 8.75,5.0571909 8.75461,4.3659125 8.816406,3.90625 8.878206,3.4465875 8.964601,3.2658648 9.1152341,3.1152344 9.2658618,2.9646044 9.4465843,2.8782068 9.90625,2.8164063 10.365916,2.7546057 11.057201,2.75 12,2.75 c 0.942799,0 1.63409,0.00461 2.09375,0.066406 0.45966,0.0618 0.640371,0.1481863 0.791016,0.2988281 C 15.035402,3.265866 15.121792,3.4465889 15.183594,3.90625 15.245395,4.3659111 15.25,5.0571909 15.25,6 h 1.5 C 16.75,5.0571909 16.7546,4.3346709 16.66992,3.7050781 16.585273,3.0754853 16.380475,2.4898352 15.945313,2.0546875 15.510157,1.6195399 14.924511,1.4147251 14.294922,1.3300781 13.665333,1.2454312 12.942799,1.25 12,1.25 Z"
     id="path2" />
  <path
  
     d="M 2,10.25 A 0.75,0.75 0 0 0 1.25,11 0.75,0.75 0 0 0 2,11.75 H 22 A 0.75,0.75 0 0 0 22.75,11 0.75,0.75 0 0 0 22,10.25 Z"
     id="path3" />
  <path
  
     d="M 2,16.25 A 0.75,0.75 0 0 0 1.25,17 0.75,0.75 0 0 0 2,17.75 H 22 A 0.75,0.75 0 0 0 22.75,17 0.75,0.75 0 0 0 22,16.25 Z"
     id="path4" />
</svg>
