<?xml version="1.0" encoding="UTF-8" standalone="no"?>
<svg
   width="24"
   height="24"
   viewBox="0 0 24 24"
 
   version="1.1"
   id="svg3"
   xmlns="http://www.w3.org/2000/svg"
   xmlns:svg="http://www.w3.org/2000/svg">
  <defs
     id="defs3" />
  <path
   
     d="M 10.5,9.75 C 10.0341,9.75 9.7208982,9.7209721 9.3300781,9.8828125 8.9015182,10.060337 8.5603172,10.401576 8.3828125,10.830078 8.2209565,11.220897 8.25,11.5341 8.25,12 c 0,0.4659 -0.029044,0.779103 0.1328125,1.169922 0.1775047,0.428502 0.5187057,0.769741 0.9472656,0.947266 C 9.7208982,14.279028 10.0341,14.25 10.5,14.25 h 3 c 0.4659,0 0.779133,0.02899 1.169922,-0.132812 0.428513,-0.177527 0.769739,-0.518753 0.947266,-0.947266 C 15.778988,12.779133 15.75,12.4659 15.75,12 c 0,-0.4659 0.02899,-0.779133 -0.132812,-1.169922 C 15.439661,10.401565 15.098435,10.060339 14.669922,9.8828125 14.279133,9.7210116 13.9659,9.75 13.5,9.75 Z m 0,1.5 h 3 c 0.4659,0 0.618892,0.02913 0.595703,0.01953 0.06149,0.02547 0.109293,0.07328 0.134766,0.134766 C 14.220868,11.381108 14.25,11.5341 14.25,12 c 0,0.4659 -0.02913,0.618892 -0.01953,0.595703 -0.02547,0.06149 -0.07328,0.109293 -0.134766,0.134766 C 14.118892,12.720868 13.9659,12.75 13.5,12.75 h -3 C 10.0341,12.75 9.8810164,12.72083 9.9042969,12.73047 9.8427969,12.70499 9.7950064,12.6572 9.7695313,12.595704 9.7791474,12.618922 9.75,12.4659 9.75,12 c 0,-0.4659 0.029147,-0.618922 0.019531,-0.595703 0.025475,-0.0615 0.073266,-0.10929 0.1347656,-0.134766 C 9.8810164,11.279172 10.0341,11.25 10.5,11.25 Z"
     id="path1" />
  <path
  
     d="M 3.5,6.25 A 0.75,0.75 0 0 0 2.75,7 v 6 c 0,1.885598 -0.00553,3.314057 0.1523438,4.488281 0.157869,1.174225 0.5102187,2.143075 1.2382812,2.871094 0.7280455,0.728058 1.6968741,1.080408 2.8710937,1.238281 C 8.1859384,21.75553 9.6143819,21.75 11.5,21.75 h 1 c 1.885598,0 3.314055,0.0055 4.488281,-0.152344 1.174227,-0.157873 2.143077,-0.510202 2.871094,-1.238281 0.728079,-0.728017 1.080408,-1.696867 1.238281,-2.871094 C 21.25553,16.314055 21.25,14.885598 21.25,13 V 7 A 0.75,0.75 0 0 0 20.5,6.25 0.75,0.75 0 0 0 19.75,7 v 6 c 0,1.885598 -0.0056,3.284766 -0.140625,4.289062 -0.135026,1.004297 -0.367027,1.566284 -0.810547,2.009766 -0.443482,0.44352 -1.005469,0.675521 -2.009766,0.810547 C 15.784766,20.244401 14.385598,20.25 12.5,20.25 h -1 C 9.6143819,20.25 8.2152257,20.2444 7.2109375,20.109375 6.2066493,19.974349 5.6447052,19.742369 5.2011719,19.298828 4.7576655,18.855348 4.5256482,18.293361 4.390625,17.289062 4.2556018,16.284764 4.25,14.885598 4.25,13 V 7 A 0.75,0.75 0 0 0 3.5,6.25 Z"
     id="path2" />
  <path
   
     d="M 4,2.25 C 3.5285955,2.25 3.1600107,2.2449347 2.8027344,2.2929688 2.4454581,2.3410028 2.0504251,2.4730222 1.7617187,2.7617188 1.4730222,3.0504251 1.3410028,3.4454581 1.2929687,3.8027344 1.2449347,4.1600107 1.25,4.5285955 1.25,5 c 0,0.4714045 -0.00507,0.8399893 0.042969,1.1972656 0.048034,0.3572763 0.1800535,0.7523093 0.46875,1.0410156 0.2887064,0.2886966 0.6837394,0.420716 1.0410157,0.46875 C 3.1600107,7.7550653 3.5285955,7.75 4,7.75 h 16 c 0.4714,0 0.83999,0.00507 1.197266,-0.042969 0.357275,-0.048034 0.752309,-0.1800534 1.041015,-0.46875 0.288704,-0.2887039 0.420714,-0.6837365 0.46875,-1.0410156 C 22.755067,5.8399866 22.75,5.4714045 22.75,5 22.75,4.5285955 22.7551,4.1600134 22.70703,3.8027344 22.658995,3.4454553 22.526985,3.0504227 22.238281,2.7617188 21.949575,2.4730222 21.554541,2.3410029 21.197266,2.2929688 20.83999,2.2449346 20.4714,2.25 20,2.25 Z m 0,1.5 h 16 c 0.4714,0 0.810698,0.00411 0.998047,0.029297 0.187349,0.025188 0.175494,0.038776 0.179687,0.042969 0.0042,0.0042 0.01778,-0.00766 0.04297,0.1796875 C 21.245892,4.189301 21.25,4.5285955 21.25,5 c 0,0.4714045 -0.0041,0.810699 -0.0293,0.9980469 -0.02519,0.1873479 -0.03877,0.1754917 -0.04297,0.1796875 -0.0042,0.00419 0.0077,0.01778 -0.179687,0.042969 C 20.810698,6.2458914 20.4714,6.25 20,6.25 H 4 C 3.5285955,6.25 3.1893038,6.2458915 3.0019531,6.2207031 2.8146025,6.1955147 2.826459,6.1819276 2.8222656,6.1777344 2.8180724,6.173541 2.8044853,6.1853975 2.7792969,5.9980469 2.7541085,5.8106962 2.75,5.4714045 2.75,5 2.75,4.5285955 2.75411,4.1893038 2.779297,4.0019531 2.804485,3.8146025 2.818073,3.826459 2.822266,3.8222656 2.826456,3.8180756 2.814606,3.8044856 3.0019535,3.7792966 3.1893038,3.7541085 3.5285955,3.75 4,3.75 Z"
     id="path3" />
</svg>
