<?xml version="1.0" encoding="UTF-8" standalone="no"?>
<svg
   width="24"
   height="24"
   viewBox="0 0 24 24"

   version="1.1"
   id="svg3"
   xmlns="http://www.w3.org/2000/svg"
   xmlns:svg="http://www.w3.org/2000/svg">
  <defs
     id="defs3" />
  <path

     d="M 7.9960937,3.25 C 6.8982481,3.2561125 6.0288807,3.2795638 5.2753906,3.4179688 4.5219006,3.5563737 3.8562483,3.837111 3.3476563,4.3457031 2.7660583,4.927301 2.4884455,5.7055175 2.3671875,6.6074219 2.2459295,7.5093262 2.25,8.5838333 2.25,9.9980469 v 6.0000001 c 0,1.414198 -0.00407,2.490677 0.1171875,3.392578 0.1212581,0.901901 0.3988767,1.67816 0.9804688,2.259766 C 3.9292525,22.232 4.7055157,22.509598 5.6074219,22.630859 6.5093281,22.75212 7.5857864,22.748047 9,22.748047 h 6 c 1.414199,0 2.490676,0.0041 3.392578,-0.117188 0.901903,-0.121261 1.678162,-0.398865 2.259766,-0.980468 0.581603,-0.581604 0.859207,-1.357864 0.980468,-2.259766 C 21.754074,18.488723 21.75,17.412245 21.75,15.998047 V 9.9980469 c 0,-1.4142136 0.0041,-2.4887188 -0.117188,-3.390625 C 21.511551,5.7055157 21.233953,4.9272994 20.652344,4.3457031 20.143745,3.8371173 19.476142,3.5563738 18.722656,3.4179688 17.96917,3.2795637 17.101737,3.2561125 16.003906,3.25 l -0.0078,1.5 c 1.077167,0.006 1.885718,0.037636 2.457031,0.1425781 0.571313,0.1049423 0.878872,0.2558316 1.138672,0.515625 0.297089,0.2970829 0.456274,0.6664629 0.554687,1.3984375 C 20.244898,7.5386153 20.25,8.5838333 20.25,9.9980469 v 6.0000001 c 0,1.414198 -0.0051,2.459435 -0.103516,3.191406 -0.09841,0.731971 -0.257592,1.103295 -0.554687,1.400391 -0.297096,0.297095 -0.66842,0.456274 -1.400391,0.554687 C 17.459435,21.242945 16.414199,21.248047 15,21.248047 H 9 c -1.4142136,0 -2.4594316,-0.0051 -3.1914063,-0.103516 C 5.0766191,21.046117 4.705286,20.886933 4.4082031,20.589844 4.111116,20.29275 3.9519274,19.921426 3.8535156,19.189453 3.7551039,18.45748 3.75,17.412245 3.75,15.998047 V 9.9980469 C 3.75,8.5838333 3.7551,7.5386171 3.8535156,6.8066406 3.9519274,6.0746641 4.1111219,5.7052843 4.4082031,5.4082031 4.6679903,5.148416 4.9755589,4.9975204 5.546875,4.8925781 6.1181911,4.7876358 6.9267241,4.7559975 8.0039063,4.75 Z"
     id="path13" />
  <path
     d="m 12,11.6913 -0.5187,0.5418 c 0.29,0.2777 0.7474,0.2777 1.0374,0 z m 0,4.1363 v -0.75 z M 11.4865,14.7609 C 11.0686,14.4542 10.6081,14.0712 10.2595,13.6681 9.89122,13.2423 9.75,12.9113 9.75,12.6967 h -1.5 c 0,0.7699 0.4412,1.4512 0.8749,1.9526 0.45329,0.5242 1.0142,0.9834 1.4743,1.321 z M 9.75,12.6967 c 0,-0.576 0.2626,-0.8267 0.4919,-0.9071 0.2503,-0.0877 0.7139,-0.0597 1.2394,0.4435 l 1.0374,-1.0835 C 11.6943,10.3603 10.6579,10.0543 9.74566,10.3741 8.81245,10.7012 8.25,11.5995 8.25,12.6967 Z m 3.6508,3.2736 c 0.4601,-0.3376 1.021,-0.7968 1.4743,-1.321 0.4337,-0.5014 0.8749,-1.1827 0.8749,-1.9526 h -1.5 c 0,0.2146 -0.1412,0.5456 -0.5095,0.9714 -0.3486,0.4032 -0.8091,0.7861 -1.227,1.0928 z M 15.75,12.6967 c 0,-1.0972 -0.5625,-1.9955 -1.4957,-2.3226 -0.9122,-0.3198 -1.9486,-0.0138 -2.773,0.7755 l 1.0374,1.0835 c 0.5255,-0.5032 0.9891,-0.5312 1.2394,-0.4435 0.2293,0.0804 0.4919,0.3311 0.4919,0.9071 z m -5.1508,3.2736 c 0.3686,0.2704 0.7824,0.6072 1.4008,0.6073 v -1.5 c -0.0244,0 -0.0395,-10e-5 -0.0939,-0.0288 -0.0859,-0.0454 -0.1933,-0.1219 -0.4196,-0.2879 z m 1.9143,-1.2094 c -0.2263,0.166 -0.3337,0.2425 -0.4196,0.2879 -0.0544,0.0287 -0.0695,0.0288 -0.0939,0.0288 v 1.5 c 0.6184,0 1.0322,-0.3369 1.4008,-0.6073 z"
 
     id="path14" />
  <path

     d="M 9.5,1.25 C 8.2662443,1.25 7.25,2.2662443 7.25,3.5 v 1 c 0,1.2337557 1.0162443,2.25 2.25,2.25 h 5 c 1.23374,0 2.25,-1.0162262 2.25,-2.25 v -1 c 0,-1.2337738 -1.01626,-2.25 -2.25,-2.25 z m 0,1.5 h 5 c 0.423058,0 0.75,0.3269155 0.75,0.75 v 1 c 0,0.4230845 -0.326942,0.75 -0.75,0.75 h -5 C 9.0768974,5.25 8.75,4.9231026 8.75,4.5 v -1 C 8.75,3.0768974 9.0768974,2.75 9.5,2.75 Z"
     id="path15" />
</svg>
