<?xml version="1.0" encoding="UTF-8" standalone="no"?>
<svg
   width="24"
   height="24"
   viewBox="0 0 24 24"
   version="1.1"
   id="svg2"
   xmlns="http://www.w3.org/2000/svg"
   xmlns:svg="http://www.w3.org/2000/svg">
  <defs
     id="defs2" />
  <path
     d="M 5.4082031,1.2734375 C 4.2828308,1.3713538 3.2879795,1.7667033 2.5273438,2.5273438 1.0060688,4.0486181 0.94732246,6.5040692 1.8046875,9.0761719 2.1200344,10.022215 2.6902597,11.014341 3.25,12 2.6902593,12.985656 2.120035,13.977786 1.8046875,14.923828 0.94732068,17.495927 1.0060849,19.95135 2.5273438,21.472656 4.0486233,22.993917 6.5040706,23.052678 9.0761719,22.195312 10.022215,21.879965 11.014346,21.309737 12,20.75 c 0.985725,0.5598 1.977718,1.131896 2.923828,1.447266 2.572103,0.857367 5.027572,0.796709 6.548828,-0.72461 1.521319,-1.521256 1.580023,-3.976719 0.722656,-6.548828 C 21.879965,13.977783 21.309744,12.985659 20.75,12 21.3098,11.014268 21.881896,10.022286 22.197266,9.0761719 23.054632,6.5040572 22.99397,4.0486142 21.472656,2.5273438 19.951394,1.00606 17.495929,0.9473191 14.923828,1.8046875 13.977786,2.1200356 12.985655,2.6902583 12,3.25 11.014346,2.6902582 10.022215,2.1200356 9.0761719,1.8046875 7.7901209,1.3760033 6.5335755,1.1755212 5.4082031,1.2734375 Z M 18.40625,2.765625 c 0.849462,0.066914 1.531842,0.3482412 2.005859,0.8222656 0.948084,0.9480571 1.122185,2.7310889 0.361328,5.0136719 -0.19649,0.5894741 -0.616628,1.2443206 -0.93164,1.8730465 C 19.028755,9.2953047 18.119706,8.1157911 17.001953,6.9980469 15.884222,5.8803018 14.704688,4.97124 13.525391,4.1582031 14.154112,3.8431926 14.808966,3.4230533 15.398438,3.2265625 16.539724,2.8461331 17.556788,2.6987108 18.40625,2.765625 Z M 5.59375,2.767575 C 6.4432157,2.7006638 7.4602759,2.8461331 8.6015625,3.2265625 9.191034,3.4230533 9.8458878,3.8431926 10.474609,4.1582031 9.2953113,4.9712399 8.1157805,5.880302 6.9980469,6.9980469 5.8803038,8.115799 4.9712385,9.2953065 4.1582031,10.474609 3.8431932,9.8458852 3.4230526,9.1910345 3.2265625,8.6015625 2.4657064,6.3189875 2.6398371,4.5359438 3.5878906,3.5878906 4.0619136,3.1138648 4.7442843,2.8344925 5.59375,2.7675781 Z M 12,4.9160156 C 13.326283,5.753014 14.667093,6.7842645 15.941406,8.0585938 17.215747,9.3329239 18.246981,10.673708 19.083984,12 18.246981,13.326297 17.215747,14.667065 15.941406,15.941406 14.667092,17.21572 13.326284,18.246993 12,19.083984 10.673716,18.246981 9.3329103,17.215746 8.0585938,15.941406 6.7842627,14.667065 5.7530134,13.326294 4.9160156,12 5.7530137,10.67371 6.7842622,9.3329357 8.0585938,8.0585938 9.3329102,6.7842644 10.673715,5.7530141 12,4.9160156 Z M 4.1582031,13.525391 c 0.8130351,1.179306 1.7221003,2.35881 2.8398438,3.476562 1.1177335,1.117754 2.2972642,2.026802 3.4765621,2.839844 -0.6287217,0.315008 -1.2835741,0.73515 -1.8730465,0.93164 C 6.3189862,21.534295 4.5359386,21.360146 3.5878906,20.412109 2.639829,19.464018 2.4657052,17.681008 3.2265625,15.398438 3.4230529,14.808967 3.843193,14.154113 4.1582031,13.525391 Z m 15.6835939,0 c 0.315012,0.628724 0.73515,1.283574 0.93164,1.873047 0.760857,2.282576 0.586752,4.065631 -0.361328,5.013671 -0.94804,0.94808 -2.731102,1.122185 -5.013671,0.361328 -0.589471,-0.19649 -1.244326,-0.616629 -1.873047,-0.93164 1.179296,-0.813029 2.358831,-1.722112 3.476562,-2.839844 1.117753,-1.117753 2.026802,-2.297253 2.839844,-3.476562 z"
     id="path1" />
  <path
     d="m 12,8.75 c -1.786036,0 -3.25,1.463964 -3.25,3.25 0,1.786036 1.463964,3.25 3.25,3.25 1.786036,0 3.25,-1.463964 3.25,-3.25 0,-1.786036 -1.463964,-3.25 -3.25,-3.25 z m 0,1.5 c 0.975361,0 1.75,0.774639 1.75,1.75 0,0.975361 -0.774639,1.75 -1.75,1.75 -0.975361,0 -1.75,-0.774639 -1.75,-1.75 0,-0.975361 0.774639,-1.75 1.75,-1.75 z"
     id="path2" />
</svg>
