<?xml version="1.0" encoding="UTF-8" standalone="no"?>
<svg
   width="24"
   height="24"
   viewBox="0 0 24 24"
   version="1.1"
   id="svg8"
   xmlns="http://www.w3.org/2000/svg"
   xmlns:svg="http://www.w3.org/2000/svg">
  <defs
     id="defs8" />
  <path
     d="m 12,9.25 c -1.509898,0 -2.75,1.240102 -2.75,2.75 0,1.509898 1.240102,2.75 2.75,2.75 1.509898,0 2.75,-1.240102 2.75,-2.75 0,-1.509898 -1.240102,-2.75 -2.75,-2.75 z m 0,1.5 c 0.699239,0 1.25,0.550761 1.25,1.25 0,0.699239 -0.550761,1.25 -1.25,1.25 -0.699239,0 -1.25,-0.550761 -1.25,-1.25 0,-0.699239 0.550761,-1.25 1.25,-1.25 z"
     id="circle1" />
  <path
     d="M 12,9.25 A 0.75,0.75 0 0 0 11.25,10 0.75,0.75 0 0 0 12,10.75 c 0.949999,0 1.574397,0.505277 2.035156,1.453125 0.46076,0.947848 0.641718,2.318803 0.447266,3.691406 -0.194452,1.372603 -0.754994,2.736295 -1.658203,3.72461 C 11.921009,20.607455 10.70263,21.25 9,21.25 A 0.75,0.75 0 0 0 8.25,22 0.75,0.75 0 0 0 9,22.75 c 2.097366,0 3.778602,-0.857457 4.931641,-2.119141 1.153038,-1.261683 1.804608,-2.897996 2.035156,-4.52539 0.230547,-1.627394 0.05096,-3.256444 -0.582031,-4.558594 C 14.751776,10.244725 13.549998,9.25 12,9.25 Z"
     id="path1" />
  <path
     d="m 15.310547,1.25 c -2.097362,0 -3.778605,0.8574572 -4.931641,2.1191406 C 9.2258706,4.6308241 8.5742974,6.2671376 8.34375,7.8945312 8.1132026,9.5219249 8.2947478,11.150975 8.9277344,12.453125 9.5607209,13.755275 10.760552,14.75 12.310547,14.75 a 0.75,0.75 0 0 0 0.75,-0.75 0.75,0.75 0 0 0 -0.75,-0.75 c -0.949993,0 -1.572446,-0.505277 -2.033203,-1.453125 C 9.8165864,10.849027 9.6336729,9.4780721 9.828125,8.1054688 10.022577,6.7328654 10.583121,5.3691737 11.486328,4.3808594 12.389535,3.3925451 13.607923,2.75 15.310547,2.75 a 0.75,0.75 0 0 0 0.75,-0.75 0.75,0.75 0 0 0 -0.75,-0.75 z"
     id="path2" />
  <path
     d="m 12.359375,9.1386719 -0.07422,0.00391 -0.132812,0.013672 -0.13086,0.019531 -0.130859,0.023437 -0.128906,0.027344 -0.128906,0.033203 -0.128907,0.039063 -0.126953,0.042969 -0.125,0.048828 -0.125,0.054687 -0.123047,0.060547 -0.121093,0.064453 -0.117188,0.068359 -0.117187,0.076172 -0.115235,0.080078 -0.111328,0.083984 -0.109375,0.091797 -0.107422,0.09375 -0.09375,0.0918 a 0.75,0.75 0 0 0 -0.01953,1.060547 0.75,0.75 0 0 0 1.060547,0.01953 l 0.07226,-0.07031 0.06445,-0.05664 0.06445,-0.05469 0.06445,-0.04883 0.06641,-0.04492 0.06641,-0.04297 0.06641,-0.03906 0.06836,-0.03711 0.06836,-0.0332 0.06836,-0.0293 0.07031,-0.02734 0.07031,-0.02539 0.07226,-0.02149 0.07422,-0.01758 0.07422,-0.01758 0.07422,-0.01367 0.07813,-0.0098 0.07813,-0.0078 0.04883,-0.0039 A 0.75,0.75 0 0 0 13.160156,9.8359375 0.75,0.75 0 0 0 12.359375,9.1386719 Z M 14.091797,9.59375 a 0.75,0.75 0 0 0 -0.423828,0.3867188 0.75,0.75 0 0 0 0.361328,0.9960942 l 0.07227,0.03516 0.0957,0.04687 0.0957,0.05078 0.0957,0.05273 0.09766,0.05469 0.0918,0.05469 0.195313,0.126954 0.191406,0.132812 0.189453,0.142578 0.1875,0.150391 0.171875,0.148437 a 0.75,0.75 0 0 0 1.05664,-0.07617 0.75,0.75 0 0 0 -0.07422,-1.05664 L 16.304687,10.673828 16.076172,10.490234 15.84375,10.314453 15.607422,10.150391 15.371094,9.9980469 15.246094,9.9238281 15.123047,9.8535156 15,9.7851563 l -0.123047,-0.064453 -0.125,-0.060547 -0.08594,-0.041016 A 0.75,0.75 0 0 0 14.091797,9.59375 Z m 3.376953,2.568359 a 0.75,0.75 0 0 0 -0.560547,0.115235 0.75,0.75 0 0 0 -0.201172,1.042969 l 0.148438,0.214843 0.138672,0.222657 0.132812,0.226562 0.125,0.230469 0.119141,0.236328 0.05273,0.115234 0.05469,0.119141 0.05078,0.121094 0.04687,0.115234 a 0.75,0.75 0 0 0 0.966797,0.433594 0.75,0.75 0 0 0 0.433593,-0.96875 l -0.002,-0.0078 -0.06055,-0.146484 -0.06055,-0.144531 -0.06445,-0.144532 -0.06836,-0.144531 -0.136719,-0.277344 -0.15039,-0.27539 -0.158203,-0.269531 -0.166016,-0.261719 -0.160156,-0.238281 a 0.75,0.75 0 0 0 -0.48041,-0.314467 z m 1.201172,3.683594 A 0.75,0.75 0 0 0 18,16.667969 l -0.002,-0.0039 0.01172,0.125 0.0059,0.125 0.0039,0.126954 0.002,0.125 -0.002,0.125 -0.0039,0.125 -0.0078,0.125 -0.01172,0.123046 -0.01367,0.125 -0.01758,0.123047 -0.01953,0.125 -0.02344,0.123047 -0.02734,0.123047 -0.0293,0.113281 a 0.75,0.75 0 0 0 0.548828,0.908203 0.75,0.75 0 0 0 0.908204,-0.548828 l 0.0332,-0.132812 0.03516,-0.16211 0.03125,-0.162109 0.02539,-0.160156 0.02344,-0.16211 0.01758,-0.162109 0.01563,-0.162109 0.0098,-0.16211 0.0059,-0.160156 0.002,-0.162109 -0.002,-0.160157 -0.0039,-0.160156 -0.0098,-0.160156 -0.01367,-0.160156 v -0.01172 a 0.75,0.75 0 0 0 -0.822265,-0.669922 z m -1.048828,3.802734 a 0.75,0.75 0 0 0 -0.478516,0.316407 l -0.002,0.002 -0.08203,0.117187 -0.08789,0.115235 -0.0918,0.115234 -0.0957,0.115234 -0.101562,0.115235 -0.105469,0.113281 -0.117188,0.121094 a 0.75,0.75 0 0 0 0.01172,1.060547 0.75,0.75 0 0 0 1.0625,-0.01367 l 0.128906,-0.132813 0.13086,-0.142578 0.126953,-0.142578 0.121094,-0.144531 0.117187,-0.146485 0.111328,-0.148437 0.105469,-0.148438 0.01172,-0.01758 a 0.75,0.75 0 0 0 -0.203125,-1.041015 0.75,0.75 0 0 0 -0.5625,-0.113282 z"
     id="path3" />
  <path
     d="M 7.8398437,2.1601563 A 0.75,0.75 0 0 0 6.7792969,2.1738281 L 6.6484375,2.3066406 6.5175781,2.4492188 6.390625,2.5917969 6.2695312,2.7363281 6.1542969,2.8828125 6.0429687,3.03125 5.9375,3.1796875 5.9257812,3.1972656 a 0.75,0.75 0 0 0 0.203125,1.0410156 0.75,0.75 0 0 0 1.0410157,-0.203125 v -0.00195 L 7.2539062,3.9160156 7.3417969,3.8007813 7.4335937,3.6855469 7.5292969,3.5703125 7.6308594,3.4550781 7.7363281,3.3417969 7.8535156,3.2207031 A 0.75,0.75 0 0 0 7.8398437,2.1601563 Z M 5.8964844,4.6953125 A 0.75,0.75 0 0 0 4.9882812,5.2441406 l -0.03125,0.1328125 -0.035156,0.1621094 -0.03125,0.1621094 -0.027344,0.1601562 -0.021484,0.1621094 -0.019531,0.1621094 -0.013672,0.1621093 -0.00977,0.1621094 -0.00586,0.1601563 -0.00391,0.1621093 0.00195,0.1601563 0.00586,0.1601562 0.00977,0.1601563 0.011719,0.1601562 0.00195,0.011719 A 0.75,0.75 0 0 0 5.6425781,8.1542969 0.75,0.75 0 0 0 6.3125,7.3359375 v -0.00195 L 6.30273,7.2109406 6.29492,7.0859406 6.29101,6.9589875 v -0.125 -0.125 l 0.00586,-0.125 0.00781,-0.1230469 0.00977,-0.125 0.015625,-0.125 L 6.3457,6.0878937 6.367184,5.9628937 6.390621,5.8398468 6.417965,5.7168 6.445309,5.6035187 A 0.75,0.75 0 0 0 5.8964844,4.6953125 Z M 5.7675781,8.6445313 a 0.75,0.75 0 0 0 -0.4335937,0.96875 l 0.00391,0.00781 0.058594,0.1464843 0.0625,0.1445313 0.0625,0.1445321 0.068359,0.144531 0.1386719,0.277344 0.1484375,0.27539 0.1582031,0.269532 0.1660157,0.261718 0.1621093,0.238282 a 0.75,0.75 0 0 0 1.0410157,0.199218 0.75,0.75 0 0 0 0.1992187,-1.042968 L 7.4570312,10.464844 7.3164062,10.242188 7.1835937,10.015625 7.0585937,9.7851563 6.9414062,9.5488281 6.8867187,9.4335938 6.8339844,9.3144531 6.7832031,9.1933594 6.7363281,9.078125 a 0.75,0.75 0 0 0 -0.96875,-0.4335937 z m 2.4863282,3.2011717 a 0.75,0.75 0 0 0 -0.5136719,0.257813 0.75,0.75 0 0 0 0.076172,1.05664 l 0.1894532,0.166016 0.2285156,0.183594 0.2324219,0.175781 0.2363281,0.164062 0.2382813,0.152344 0.125,0.07422 0.1210937,0.07031 0.1230469,0.06836 0.125,0.06445 0.125,0.06055 0.085937,0.04101 A 0.75,0.75 0 0 0 10.642578,14.019531 0.75,0.75 0 0 0 10.28125,13.023438 l -0.07031,-0.03516 -0.09766,-0.04687 -0.0957,-0.05078 -0.095703,-0.05078 -0.095703,-0.05664 -0.09375,-0.05469 L 9.5371094,12.601563 9.3457031,12.46875 9.15625,12.326172 8.96875,12.175781 8.7988281,12.027344 A 0.75,0.75 0 0 0 8.2539063,11.845703 Z m 5.4394527,0.708985 a 0.75,0.75 0 0 0 -0.533203,0.208984 l -0.07422,0.07031 -0.0625,0.05664 -0.06445,0.05469 -0.06641,0.04883 -0.06445,0.04492 -0.06641,0.04297 -0.06641,0.03906 -0.06836,0.03711 -0.06836,0.0332 -0.07031,0.0293 -0.06836,0.02734 -0.07227,0.02539 -0.07226,0.02148 -0.07227,0.01758 -0.07422,0.01758 -0.07617,0.01367 -0.07617,0.0098 -0.07813,0.0078 -0.04883,0.0039 a 0.75,0.75 0 0 0 -0.697265,0.798829 0.75,0.75 0 0 0 0.798828,0.697265 l 0.07617,-0.0039 0.130859,-0.01367 0.13086,-0.01953 0.130859,-0.02344 0.130859,-0.02734 0.128907,-0.0332 0.126953,-0.03906 0.126953,-0.04297 0.126953,-0.04883 0.123047,-0.05469 0.123047,-0.06055 0.121093,-0.06445 0.119141,-0.06836 0.117188,-0.07617 0.113281,-0.08008 0.113281,-0.08398 0.109375,-0.0918 0.105469,-0.09375 0.0957,-0.0918 a 0.75,0.75 0 0 0 0.01953,-1.060547 0.75,0.75 0 0 0 -0.527344,-0.228515 z"
     id="path4" />
  <path
     d="m 17.164062,4.6347656 -0.162109,0.00586 -0.158203,0.00977 -0.160156,0.011719 -0.01172,0.00195 A 0.75,0.75 0 0 0 16.001953,5.4863281 0.75,0.75 0 0 0 16.824219,6.15625 l 0.121093,-0.00977 0.125,-0.00781 0.125,-0.00391 h 0.125 l 0.125,0.00195 0.125,0.00391 0.125,0.00781 0.125,0.011719 0.125,0.013672 0.123047,0.017578 0.123047,0.019531 0.125,0.023437 0.123047,0.027344 0.113281,0.027344 a 0.75,0.75 0 0 0 0.90625,-0.5488281 0.75,0.75 0 0 0 -0.546875,-0.90625 l -0.132812,-0.033203 -0.16211,-0.035156 -0.162109,-0.03125 -0.162109,-0.027344 -0.16211,-0.021484 -0.162109,-0.019531 -0.160156,-0.013672 -0.16211,-0.00977 -0.162109,-0.00586 -0.160156,-0.00195 z m -2.621093,0.5449219 -0.0078,0.00195 -0.146484,0.058594 -0.144531,0.0625 -0.144532,0.0625 -0.144531,0.068359 -0.277344,0.1386719 -0.27539,0.1503906 -0.269531,0.15625 -0.263672,0.1660157 -0.236328,0.1621093 a 0.75,0.75 0 0 0 -0.199219,1.0410157 0.75,0.75 0 0 0 1.041015,0.1992187 l 0.216797,-0.1464844 0.220703,-0.140625 0.226563,-0.1328125 0.230469,-0.125 0.238281,-0.1171875 0.115234,-0.054687 0.119141,-0.052734 0.119141,-0.050781 0.117187,-0.046875 a 0.75,0.75 0 0 0 0.431641,-0.96875 0.75,0.75 0 0 0 -0.966797,-0.4316406 z m 6.416015,0.5898437 a 0.75,0.75 0 0 0 -1.041015,0.203125 0.75,0.75 0 0 0 0.203125,1.0410157 l 0.117187,0.083984 0.117188,0.087891 0.115234,0.091797 0.115234,0.095703 0.115235,0.1015625 0.113281,0.1054687 0.119141,0.1171875 a 0.75,0.75 0 0 0 1.060547,-0.013672 0.75,0.75 0 0 0 -0.01172,-1.0605468 L 21.849609,6.4941406 21.707031,6.3613281 21.564453,6.2363281 21.419922,6.1152344 21.273437,5.9980469 21.125,5.8867187 20.974609,5.78125 Z m -8.90625,1.8144532 a 0.75,0.75 0 0 0 -1.058593,0.076172 l -0.164063,0.1914063 -0.185547,0.2265625 -0.173828,0.2324219 -0.164062,0.2382812 -0.152344,0.2363282 -0.07617,0.125 -0.07031,0.1210937 -0.066407,0.1230469 -0.064453,0.125 -0.0625,0.125 -0.041016,0.085937 a 0.75,0.75 0 0 0 0.363282,0.9980469 0.75,0.75 0 0 0 0.996094,-0.361328 l 0.0332,-0.07226 0.04883,-0.095704 0.04883,-0.097656 0.05273,-0.095703 0.05469,-0.095703 0.05664,-0.09375 0.125,-0.1953125 0.13281,-0.1894579 L 11.828125,9.0019531 11.980469,8.8125 12.128906,8.6425781 A 0.75,0.75 0 0 0 12.052734,7.5839844 Z M 9.9902344,10.996094 a 0.75,0.75 0 0 0 -0.6972656,0.798828 l 0.00586,0.07617 0.013672,0.130859 0.019531,0.13086 0.021484,0.130859 0.029297,0.130859 0.033203,0.128907 0.039063,0.128906 0.042969,0.126953 0.048828,0.125 0.054687,0.125 0.058594,0.121094 0.064453,0.121093 0.070312,0.119141 0.074219,0.117188 0.080078,0.113281 0.085937,0.113281 0.08984,0.109375 0.0957,0.107422 0.08984,0.09375 a 0.75,0.75 0 0 0 1.060547,0.01953 0.75,0.75 0 0 0 0.02148,-1.060547 l -0.07226,-0.07422 -0.05664,-0.0625 -0.05273,-0.06445 -0.04883,-0.06641 -0.04687,-0.06445 -0.04297,-0.06641 -0.03906,-0.06641 -0.03516,-0.06836 -0.0332,-0.06836 -0.03125,-0.06836 -0.02539,-0.07031 -0.02539,-0.07227 -0.02149,-0.07226 -0.01953,-0.07227 -0.01563,-0.07422 -0.01367,-0.07617 -0.0098,-0.07617 -0.0098,-0.07813 -0.002,-0.04883 A 0.75,0.75 0 0 0 9.9902344,10.996094 Z"
     id="path5" />
  <path
     d="m 13.474609,9.7265625 a 0.75,0.75 0 0 0 -0.535156,0.2089844 0.75,0.75 0 0 0 -0.01953,1.0605471 l 0.07031,0.07422 0.05664,0.0625 0.05273,0.06445 0.05078,0.06641 0.04492,0.06445 0.04297,0.06641 0.03906,0.06641 0.03711,0.06836 0.0332,0.06836 0.0293,0.06836 0.02734,0.07031 0.02344,0.07227 0.02344,0.07226 0.01758,0.07227 0.01758,0.07422 0.01172,0.07617 0.01172,0.07617 0.0078,0.07813 0.0039,0.04883 a 0.75,0.75 0 0 0 0.798829,0.697265 0.75,0.75 0 0 0 0.697265,-0.798828 l -0.0059,-0.07617 -0.01367,-0.130859 -0.01758,-0.130859 -0.02344,-0.13086 -0.02734,-0.130859 -0.03516,-0.128906 -0.03711,-0.128907 -0.04492,-0.126953 -0.04883,-0.125 -0.05273,-0.125 -0.06055,-0.121094 -0.06445,-0.121093 -0.06836,-0.119141 -0.07617,-0.117187 -0.08008,-0.113282 -0.08594,-0.113281 -0.08984,-0.109375 -0.0957,-0.107422 L 14,9.9550781 A 0.75,0.75 0 0 0 13.474609,9.7265625 Z m 0.701172,3.7851565 a 0.75,0.75 0 0 0 -0.998047,0.361328 l -0.0332,0.07227 -0.04687,0.0957 -0.05078,0.0957 -0.05273,0.09766 -0.05469,0.0957 -0.05664,0.09375 -0.125,0.195313 -0.132813,0.189453 -0.142578,0.189453 -0.150391,0.189453 -0.148437,0.169922 a 0.75,0.75 0 0 0 0.07617,1.058594 0.75,0.75 0 0 0 1.05664,-0.07617 l 0.166016,-0.191407 0.183594,-0.226562 0.175781,-0.232422 0.164062,-0.238281 0.152344,-0.236328 0.07422,-0.125 0.07031,-0.121094 0.06836,-0.123047 0.06445,-0.125 0.06055,-0.125 0.04101,-0.08594 A 0.75,0.75 0 0 0 14.175781,13.511719 Z M 2.84375,16.089844 a 0.75,0.75 0 0 0 -0.5273437,0.226562 0.75,0.75 0 0 0 0.013672,1.060547 l 0.1328125,0.128906 0.140625,0.132813 0.1445313,0.125 0.1445312,0.121094 0.1464844,0.117187 0.1484375,0.111328 0.1484375,0.105469 0.017578,0.01172 A 0.75,0.75 0 0 0 4.3945312,18.027344 0.75,0.75 0 0 0 4.1894531,16.986328 L 4.0722656,16.902344 3.9570313,16.814453 3.8398438,16.722656 3.7246094,16.626953 3.6113281,16.525391 3.4960938,16.419922 3.3769531,16.302734 A 0.75,0.75 0 0 0 2.84375,16.089844 Z m 8.554688,0.345703 a 0.75,0.75 0 0 0 -0.5625,0.117187 l -0.216797,0.146485 -0.220703,0.140625 -0.226563,0.132812 -0.2304687,0.125 -0.2363282,0.117188 -0.1152343,0.05469 -0.1191407,0.05273 -0.1210937,0.05078 -0.1152344,0.04687 a 0.75,0.75 0 0 0 -0.4335937,0.96875 0.75,0.75 0 0 0 0.96875,0.43164 l 0.00781,-0.002 0.1464843,-0.05859 0.1445314,-0.0625 0.142579,-0.0625 0.146483,-0.06836 0.277344,-0.138672 0.27539,-0.15039 0.269532,-0.15625 0.261718,-0.166016 0.238282,-0.162109 a 0.75,0.75 0 0 0 0.199218,-1.041016 0.75,0.75 0 0 0 -0.480468,-0.316406 z m -5.6386724,1.27539 a 0.75,0.75 0 0 0 -0.9082031,0.548829 0.75,0.75 0 0 0 0.5488281,0.90625 l 0.1328125,0.0332 0.1621094,0.03516 0.1601562,0.03125 0.1621094,0.02734 0.1621094,0.02148 0.1621094,0.01953 0.1621093,0.01367 0.1621094,0.0098 0.1601563,0.0059 0.1621093,0.002 h 0.1601563 l 0.1601562,-0.0059 0.1601563,-0.0098 0.1582031,-0.01172 0.013672,-0.002 A 0.75,0.75 0 0 0 8.3105469,18.513672 0.75,0.75 0 0 0 7.4882812,17.84375 l -0.1210937,0.0098 -0.125,0.0078 -0.1269531,0.0039 h -0.125 l -0.125,-0.002 -0.125,-0.0039 -0.125,-0.0078 -0.1230469,-0.01172 -0.125,-0.01367 -0.1230469,-0.01758 -0.125,-0.01953 -0.1230469,-0.02344 -0.1230468,-0.02734 z"
     id="path6" />
  <path
     d="M 13.705078,8.3125 C 12.931749,8.408115 12.19795,8.6112411 11.546875,8.9277344 10.244725,9.5607209 9.25,10.760552 9.25,12.310547 a 0.75,0.75 0 0 0 0.75,0.75 0.75,0.75 0 0 0 0.75,-0.75 c 0,-0.949993 0.505277,-1.572446 1.453125,-2.033203 0.947848,-0.4607576 2.318803,-0.6436711 3.691406,-0.449219 1.372604,0.194452 2.736295,0.754996 3.72461,1.658203 0.988314,0.903207 1.630859,2.121595 1.630859,3.824219 a 0.75,0.75 0 0 0 0.75,0.75 0.75,0.75 0 0 0 0.75,-0.75 c 0,-2.097362 -0.857457,-3.778605 -2.119141,-4.931641 C 19.369176,9.2258706 17.732862,8.5742974 16.105469,8.34375 15.291772,8.2284763 14.478407,8.216885 13.705078,8.3125 Z"
     id="path7" />
  <path
     d="M 2,8.25 A 0.75,0.75 0 0 0 1.25,9 c 0,2.097366 0.8574572,3.778602 2.1191406,4.931641 1.2616834,1.153038 2.8979966,1.804608 4.5253906,2.035156 1.6273941,0.230547 3.2564438,0.05096 4.5585938,-0.582031 C 13.755275,14.751776 14.75,13.549998 14.75,12 A 0.75,0.75 0 0 0 14,11.25 0.75,0.75 0 0 0 13.25,12 c 0,0.949999 -0.505277,1.574397 -1.453125,2.035156 -0.947848,0.46076 -2.3188033,0.641718 -3.6914062,0.447266 C 6.7328658,14.28797 5.3691737,13.727428 4.3808594,12.824219 3.392545,11.921009 2.75,10.70263 2.75,9 A 0.75,0.75 0 0 0 2,8.25 Z"
     id="path8" />
</svg>
