<?xml version="1.0" encoding="UTF-8" standalone="no"?>
<svg
   width="24"
   height="24"
   viewBox="0 0 24 24"
   version="1.1"
   id="svg4"
   xmlns="http://www.w3.org/2000/svg"
   xmlns:svg="http://www.w3.org/2000/svg">
  <defs
     id="defs4" />
  <path
     d="m 12,9.25 c -1.509898,0 -2.75,1.240102 -2.75,2.75 0,1.509898 1.240102,2.75 2.75,2.75 1.509898,0 2.75,-1.240102 2.75,-2.75 0,-1.509898 -1.240102,-2.75 -2.75,-2.75 z m 0,1.5 c 0.699239,0 1.25,0.550761 1.25,1.25 0,0.699239 -0.550761,1.25 -1.25,1.25 -0.699239,0 -1.25,-0.550761 -1.25,-1.25 0,-0.699239 0.550761,-1.25 1.25,-1.25 z"
     id="circle1" />
  <path
     d="m 11.869141,8.8027344 -0.06836,0.00586 -0.132812,0.013672 -0.13086,0.017578 -0.130859,0.023437 -0.130859,0.029297 -0.128907,0.033203 -0.128906,0.037109 -0.126953,0.044922 -0.126953,0.048828 -0.123047,0.054687 -0.123047,0.058594 -0.121094,0.064453 -0.11914,0.070312 -0.117188,0.076172 -0.115234,0.080078 -0.1113282,0.083984 -0.1113282,0.091797 -0.1074218,0.095703 -0.09375,0.089844 a 0.75,0.75 0 0 0 -0.019531,1.0605476 0.75,0.75 0 0 0 1.0605462,0.01953 l 0.07422,-0.07031 0.06445,-0.05664 0.06445,-0.05469 0.06445,-0.04883 0.06641,-0.04687 0.06641,-0.04102 0.06641,-0.04101 0.06836,-0.03516 0.06836,-0.0332 0.07031,-0.03125 0.07031,-0.02734 0.07031,-0.02344 0.07226,-0.02148 0.07422,-0.01953 0.07422,-0.01563 0.07617,-0.01367 0.07617,-0.01172 0.08008,-0.0078 0.04297,-0.0039 A 0.75,0.75 0 0 0 12.669922,9.5 0.75,0.75 0 0 0 11.869141,8.8027344 Z m 2.30664,0.4765625 a 0.75,0.75 0 0 0 -0.998047,0.3613281 0.75,0.75 0 0 0 0.363282,0.998047 l 0.08203,0.03711 0.0957,0.04883 0.0957,0.05078 0.09766,0.05273 0.0957,0.05469 0.09375,0.05664 0.195312,0.125 0.191406,0.132813 0.191407,0.144531 0.1875,0.150391 0.158203,0.138671 a 0.75,0.75 0 0 0 1.058593,-0.07617 0.75,0.75 0 0 0 -0.07617,-1.058594 L 15.830078,10.341797 15.601563,10.158203 15.369141,9.9824219 15.130859,9.8164063 14.892578,9.6640625 l -0.125,-0.074219 -0.121094,-0.070312 -0.125,-0.068359 -0.123046,-0.064453 -0.125,-0.0625 z m 2.78711,2.5332031 a 0.75,0.75 0 0 0 -0.558594,0.132813 0.75,0.75 0 0 0 -0.166016,1.048828 l 0.146485,0.214843 0.140625,0.222657 0.132812,0.226562 0.125,0.232422 0.119141,0.236328 0.05469,0.117188 0.05273,0.11914 0.05078,0.121094 0.04102,0.101563 a 0.75,0.75 0 0 0 0.976563,0.416015 0.75,0.75 0 0 0 0.416016,-0.976562 l -0.04687,-0.115235 -0.0625,-0.144531 -0.0625,-0.144531 -0.06836,-0.144531 -0.138672,-0.279297 -0.15039,-0.275391 -0.158203,-0.269531 -0.166016,-0.263672 -0.175781,-0.257813 -0.01367,-0.01953 A 0.75,0.75 0 0 0 16.962891,11.8125 Z m 1.236328,3.681641 a 0.75,0.75 0 0 0 -0.669922,0.822265 l 0.0039,0.03125 0.0098,0.125 0.0078,0.126953 0.0039,0.125 v 0.126953 l -0.002,0.125 -0.0039,0.125 -0.0078,0.125 -0.01172,0.125 -0.01367,0.125 -0.01758,0.125 -0.01953,0.123047 -0.02344,0.123047 -0.02734,0.125 -0.01758,0.07422 a 0.75,0.75 0 0 0 0.546875,0.908203 0.75,0.75 0 0 0 0.908203,-0.548828 l 0.02344,-0.09375 0.03516,-0.162109 0.03125,-0.16211 0.02734,-0.162109 0.02148,-0.16211 0.01953,-0.162109 0.01367,-0.162109 0.0098,-0.16211 0.0059,-0.162109 0.002,-0.162109 V 16.69336 l -0.0059,-0.162109 -0.0098,-0.160156 -0.01172,-0.158203 -0.0059,-0.04883 A 0.75,0.75 0 0 0 18.1992,15.494141 Z m -1.021485,3.810546 a 0.75,0.75 0 0 0 -0.478515,0.316407 l -0.02734,0.03906 -0.08203,0.117188 -0.08789,0.117187 -0.09375,0.117188 -0.0957,0.115234 -0.101563,0.115234 -0.105468,0.113282 -0.117188,0.121093 A 0.75,0.75 0 0 0 16,21.537109 a 0.75,0.75 0 0 0 1.060547,-0.01367 l 0.130859,-0.132812 0.13086,-0.142578 0.126953,-0.142578 0.123047,-0.146485 0.115234,-0.146484 0.111328,-0.148438 0.107422,-0.148437 0.03711,-0.05664 a 0.75,0.75 0 0 0 -0.203125,-1.041015 0.75,0.75 0 0 0 -0.5625,-0.113282 z"
     id="path1" />
  <path
     d="M 8,2.4628906 A 0.75,0.75 0 0 0 6.9394531,2.4765625 L 6.8085937,2.609375 6.6777344,2.7519531 6.5507812,2.8964844 6.4277344,3.0410156 6.3125,3.1875 6.2011719,3.3359375 6.09375,3.484375 6.0566406,3.5410156 a 0.75,0.75 0 0 0 0.203125,1.0410156 0.75,0.75 0 0 0 1.0410156,-0.203125 L 7.328125,4.3398437 7.4101562,4.2226562 7.4980469,4.1054687 7.5917969,3.9882813 7.6875,3.8730469 7.7890625,3.7578125 7.8945312,3.6445313 8.0117188,3.5234375 A 0.75,0.75 0 0 0 8,2.4628906 Z M 6.0429687,5.0449219 A 0.75,0.75 0 0 0 5.1347656,5.59375 l -0.023437,0.09375 -0.035156,0.1621094 -0.03125,0.1621093 -0.027344,0.1621094 -0.021484,0.1621094 -0.019531,0.1621094 -0.013672,0.1621093 -0.00977,0.1621094 -0.00586,0.1621094 -0.00195,0.1621094 v 0.1601562 l 0.00586,0.1621094 0.00977,0.1601562 0.011719,0.1582032 0.00586,0.048828 a 0.75,0.75 0 0 0 0.8222606,0.669922 0.75,0.75 0 0 0 0.6699219,-0.8222657 l -0.00391,-0.03125 -0.00977,-0.125 -0.00781,-0.1269531 -0.00391,-0.125 V 7.1484375 l 0.00195,-0.125 0.00391,-0.125 0.00781,-0.125 0.011719,-0.125 0.013672,-0.125 0.017578,-0.125 0.019531,-0.1230469 0.023437,-0.1230469 0.027344,-0.125 0.019531,-0.074219 A 0.75,0.75 0 0 0 6.0429687,5.0449219 Z M 5.921875,8.9980469 A 0.75,0.75 0 0 0 5.5058594,9.9746094 l 0.046875,0.1152346 0.0625,0.144531 0.0625,0.144531 0.068359,0.144532 0.1386719,0.279296 0.1503906,0.275391 0.1582032,0.269531 0.1660156,0.263672 0.1757812,0.257813 0.013672,0.01953 a 0.75,0.75 0 0 0 1.046875,0.166016 0.75,0.75 0 0 0 0.1660156,-1.046875 v -0.002 L 7.6152344,10.791016 7.4746094,10.568359 7.3417969,10.341797 7.2167969,10.109375 7.0976562,9.8730469 7.0429687,9.7558594 6.9902344,9.6367188 6.9394531,9.515625 6.8984375,9.4140625 A 0.75,0.75 0 0 0 5.921875,8.9980469 Z m 2.5078125,3.1914061 a 0.75,0.75 0 0 0 -0.5136719,0.25586 0.75,0.75 0 0 0 0.076172,1.058593 l 0.1777344,0.154297 0.2285156,0.183594 0.2324219,0.175781 0.2382812,0.166016 0.2382813,0.152344 0.125,0.07422 0.1210937,0.07031 0.125,0.06836 0.1230469,0.06445 0.125,0.0625 0.097656,0.04492 A 0.75,0.75 0 0 0 10.822266,14.35937 0.75,0.75 0 0 0 10.458984,13.361323 l -0.08203,-0.03711 -0.0957,-0.04883 -0.0957,-0.05078 -0.09766,-0.05273 -0.095704,-0.05469 -0.09375,-0.05664 -0.1953125,-0.125 L 9.5117213,12.80273 9.320315,12.658199 9.132815,12.507809 8.9746119,12.369137 A 0.75,0.75 0 0 0 8.4296875,12.189453 Z m 5.4433595,0.697266 a 0.75,0.75 0 0 0 -0.535156,0.210937 l -0.07422,0.07031 -0.06445,0.05664 -0.06445,0.05469 -0.06445,0.04883 -0.06641,0.04687 -0.06641,0.04102 -0.06641,0.04101 -0.06836,0.03516 -0.06836,0.0332 -0.07031,0.03125 -0.07031,0.02734 -0.07031,0.02344 -0.07227,0.02148 -0.07422,0.01953 -0.07422,0.01563 -0.07617,0.01367 -0.07617,0.01172 -0.08008,0.0078 -0.04297,0.0039 A 0.75,0.75 0 0 0 11.330078,14.5 a 0.75,0.75 0 0 0 0.800781,0.697266 l 0.06836,-0.0059 0.132812,-0.01367 0.13086,-0.01758 0.130859,-0.02344 0.130859,-0.0293 0.128907,-0.0332 0.128906,-0.03711 0.126953,-0.04492 0.126953,-0.04883 0.123047,-0.05469 0.123047,-0.05859 0.121094,-0.06445 0.11914,-0.07031 0.117188,-0.07617 0.115234,-0.08008 0.111328,-0.08399 0.111328,-0.0918 0.107422,-0.0957 0.09375,-0.08984 a 0.75,0.75 0 0 0 0.01953,-1.060546 0.75,0.75 0 0 0 -0.525391,-0.230469 z"
     id="path2" />
  <path
     d="m 16.853516,4.9433594 -0.160157,0.00195 -0.162109,0.00586 -0.160156,0.00977 -0.160157,0.011719 -0.04687,0.00586 a 0.75,0.75 0 0 0 -0.669921,0.8222656 0.75,0.75 0 0 0 0.822265,0.6699219 l 0.03125,-0.00391 0.125,-0.00977 0.126953,-0.00781 0.125,-0.00391 h 0.126953 0.125 l 0.125,0.00586 0.125,0.00781 0.125,0.00977 0.125,0.015625 0.125,0.017578 0.123047,0.019531 0.123047,0.023437 0.125,0.027344 0.07422,0.017578 a 0.75,0.75 0 0 0 0.908203,-0.5488281 0.75,0.75 0 0 0 -0.548828,-0.90625 l -0.09375,-0.023437 -0.162109,-0.035156 -0.16211,-0.03125 -0.162109,-0.027344 -0.16211,-0.021484 -0.162109,-0.019531 -0.162109,-0.013672 -0.16211,-0.00977 -0.162109,-0.00586 z m -2.828125,0.5625 -0.115235,0.046875 -0.144531,0.060547 -0.144531,0.064453 -0.146485,0.068359 -0.277343,0.1386719 -0.275391,0.1503906 -0.269531,0.1582032 -0.265625,0.1660156 -0.25586,0.1757812 -0.01953,0.013672 a 0.75,0.75 0 0 0 -0.166015,1.046875 0.75,0.75 0 0 0 1.048828,0.1660156 l 0.214843,-0.1464843 0.222657,-0.140625 0.226562,-0.1328125 0.232422,-0.125 0.236328,-0.1191407 0.117188,-0.054687 0.11914,-0.052734 0.121094,-0.050781 0.101563,-0.042969 a 0.75,0.75 0 0 0 0.416014,-0.97461 0.75,0.75 0 0 0 -0.976562,-0.4160156 z m 6.433593,0.5507812 a 0.75,0.75 0 0 0 -1.041015,0.203125 0.75,0.75 0 0 0 0.203125,1.0410156 l 0.03906,0.027344 0.117188,0.082031 0.117187,0.087891 0.117188,0.09375 0.115234,0.095703 0.115234,0.1015625 0.113282,0.1054687 0.121093,0.1171876 A 0.75,0.75 0 0 0 21.537109,8 0.75,0.75 0 0 0 21.523437,6.9394531 L 21.390625,6.8085937 21.248047,6.6757812 21.103516,6.5507812 20.958984,6.4277344 20.8125,6.3125 20.664062,6.2011719 20.513672,6.09375 Z M 11.009766,7.734375 A 0.75,0.75 0 0 0 10.496094,7.9921875 L 10.341797,8.1699219 10.158203,8.3984375 9.9824219,8.6308594 9.8164063,8.8691406 9.6640625,9.1054688 l -0.074219,0.125 -0.070312,0.1230468 -0.068359,0.1230469 -0.064453,0.125 -0.0625,0.125 -0.044922,0.097656 a 0.75,0.75 0 0 0 0.3613281,0.9960945 0.75,0.75 0 0 0 0.9980474,-0.361329 l 0.03711,-0.08203 0.04883,-0.0957 0.04883,-0.09766 0.05469,-0.0957 0.05469,-0.095704 0.05664,-0.09375 0.125,-0.1953125 0.132813,-0.1933594 0.142578,-0.1894531 0.152344,-0.1875 0.138671,-0.1582031 A 0.75,0.75 0 0 0 11.554688,7.9160156 0.75,0.75 0 0 0 11.009766,7.734375 Z M 9.5,11.330078 a 0.75,0.75 0 0 0 -0.6972656,0.798828 l 0.00586,0.07031 0.013672,0.132812 0.017578,0.13086 0.023437,0.130859 0.029297,0.130859 0.033203,0.128907 0.037109,0.128906 0.044922,0.126953 0.048828,0.126953 0.054687,0.123047 0.058594,0.123047 0.064453,0.121094 0.070312,0.11914 0.074219,0.117188 0.082031,0.115234 0.083984,0.111328 0.091797,0.111328 0.095703,0.105469 0.089844,0.0957 a 0.75,0.75 0 0 0 1.0605476,0.01953 0.75,0.75 0 0 0 0.01953,-1.060547 l -0.07031,-0.07422 -0.05664,-0.06445 -0.05469,-0.06445 -0.04883,-0.06445 -0.04687,-0.06641 -0.04297,-0.06641 -0.03906,-0.06641 -0.03516,-0.06836 -0.0332,-0.06836 -0.03125,-0.07031 -0.02734,-0.07031 -0.02344,-0.07031 -0.02148,-0.07227 -0.01953,-0.07422 -0.01563,-0.07422 -0.01367,-0.07617 -0.01172,-0.07813 -0.0078,-0.07813 -0.0039,-0.04297 A 0.75,0.75 0 0 0 9.5,11.330078 Z"
     id="path3" />
  <path
     d="m 13.117188,9.6015625 a 0.75,0.75 0 0 0 -0.01953,1.0605465 l 0.07031,0.07422 0.05664,0.06445 0.05469,0.06445 0.04883,0.06445 0.04687,0.06641 0.04297,0.06641 0.03906,0.06641 0.03516,0.06836 0.0332,0.06836 0.03125,0.07031 0.02734,0.07031 0.02344,0.07031 0.02148,0.07226 0.01953,0.07422 0.01563,0.07422 0.01367,0.07617 0.01172,0.07813 0.0078,0.07813 0.0039,0.04297 A 0.75,0.75 0 0 0 14.5,12.669922 0.75,0.75 0 0 0 15.197266,11.871094 l -0.0059,-0.07031 -0.01367,-0.132812 -0.01758,-0.13086 -0.02344,-0.130859 -0.0293,-0.130859 -0.0332,-0.128907 -0.03711,-0.128906 -0.04492,-0.126953 -0.04883,-0.126953 -0.05469,-0.123047 -0.05859,-0.123047 -0.06445,-0.121094 -0.07031,-0.11914 -0.07422,-0.117188 -0.08203,-0.115234 -0.08399,-0.1113282 -0.0918,-0.1113282 -0.0957,-0.1054687 -0.08984,-0.095703 A 0.75,0.75 0 0 0 13.11715,9.6015659 Z m 0.667968,3.5507815 a 0.75,0.75 0 0 0 -0.423828,0.388672 l -0.03711,0.08203 -0.04883,0.0957 -0.04883,0.09766 -0.05469,0.0957 -0.05469,0.0957 -0.05664,0.09375 -0.125,0.195312 -0.132813,0.193359 -0.142578,0.189454 -0.152343,0.1875 -0.138672,0.158203 a 0.75,0.75 0 0 0 0.07617,1.058593 0.75,0.75 0 0 0 1.058593,-0.07617 l 0.154297,-0.177734 0.183594,-0.228515 0.175781,-0.232422 0.166016,-0.238282 0.152344,-0.236328 0.07422,-0.125 0.07031,-0.123047 0.06836,-0.123046 0.06445,-0.125 0.0625,-0.125 0.04492,-0.09766 A 0.75,0.75 0 0 0 14.359359,13.17968 0.75,0.75 0 0 0 13.78514,13.15234 Z M 2.9902344,15.775391 A 0.75,0.75 0 0 0 2.4628906,16 a 0.75,0.75 0 0 0 0.013672,1.060547 l 0.1328125,0.130859 0.1425781,0.132813 0.1445313,0.125 0.1445312,0.123047 0.1464844,0.115234 0.1484375,0.111328 0.1503906,0.107422 0.054687,0.03711 a 0.75,0.75 0 0 0 1.041016,-0.203126 0.75,0.75 0 0 0 -0.203125,-1.041015 L 4.3398437,16.671875 4.2226562,16.589844 4.1054687,16.501953 3.9882813,16.408203 3.8730469,16.3125 3.7578125,16.210937 3.6445313,16.105469 3.5234375,15.988281 a 0.75,0.75 0 0 0 -0.5332031,-0.21289 z m 8.5742186,0.328125 a 0.75,0.75 0 0 0 -0.558594,0.134765 l -0.214843,0.146485 -0.222657,0.140625 -0.226562,0.132812 -0.232422,0.125 -0.2363281,0.119141 -0.1171875,0.05469 -0.1191406,0.05273 -0.1210938,0.05078 -0.1015625,0.04297 a 0.75,0.75 0 0 0 -0.4160156,0.974609 0.75,0.75 0 0 0 0.9765625,0.416016 l 0.1152346,-0.04687 0.144531,-0.06055 0.144531,-0.06445 0.146485,-0.06836 0.277343,-0.138672 0.275391,-0.15039 0.269531,-0.158203 0.265625,-0.166016 0.25586,-0.175781 0.01953,-0.01367 a 0.75,0.75 0 0 0 0.166016,-1.046875 0.75,0.75 0 0 0 -0.490235,-0.300781 z m -5.611328,1.30664 a 0.75,0.75 0 0 0 -0.9082031,0.548828 0.75,0.75 0 0 0 0.5488281,0.90625 l 0.09375,0.02344 0.1621094,0.03516 0.1621093,0.03125 0.1621094,0.02734 0.1621094,0.02148 0.1621094,0.01953 0.1621093,0.01367 0.1621094,0.0098 0.1621094,0.0059 0.1621094,0.0039 0.1601562,-0.002 0.1621094,-0.0059 0.1601562,-0.0098 0.1601563,-0.01172 0.046875,-0.0059 A 0.75,0.75 0 0 0 8.5058594,18.199219 0.75,0.75 0 0 0 7.6835937,17.529297 l -0.03125,0.0039 -0.125,0.0098 -0.1269531,0.0078 -0.125,0.0039 h -0.1269531 -0.125 l -0.125,-0.0059 -0.125,-0.0078 -0.125,-0.0098 -0.125,-0.01563 -0.125,-0.01758 -0.1230469,-0.01953 -0.1230469,-0.02344 -0.125,-0.02734 z"
     id="path4" />
</svg>
