<?xml version="1.0" encoding="UTF-8" standalone="no"?>
<svg
   width="24"
   height="24"
   viewBox="0 0 24 24"
   version="1.1"
   id="svg2"
   xmlns="http://www.w3.org/2000/svg"
   xmlns:svg="http://www.w3.org/2000/svg">
  <defs
     id="defs2" />
  <path
     d="M 12,1.25 C 6.0718283,1.25 1.25,6.0718283 1.25,12 1.25,17.928172 6.0718283,22.75 12,22.75 17.928172,22.75 22.75,17.928172 22.75,12 22.75,6.0718283 17.928172,1.25 12,1.25 Z m 0,1.5 c 5.117512,0 9.25,4.1324877 9.25,9.25 0,5.117512 -4.132488,9.25 -9.25,9.25 C 6.8824877,21.25 2.75,17.117512 2.75,12 2.75,6.8824877 6.8824877,2.75 12,2.75 Z"
     id="circle1" />
  <path
     d="m 18.650391,3.765625 -1.425782,0.46875 c 0.02406,0.073013 0.02835,0.5292504 -0.09766,0.9882812 -0.126011,0.4590309 -0.346691,0.9476972 -0.517578,1.2070313 -0.03995,0.060623 -0.393065,0.400443 -0.787109,0.6835937 -0.802846,0.5768238 -2.242659,1.0011733 -2.998047,2.5585938 -0.261613,0.539586 -0.250661,1.106743 -0.13086,1.542969 0.04511,0.164203 0.07187,0.341767 0.07227,0.49414 3.13e-4,0.124183 -0.05053,0.232548 -0.193359,0.347657 C 12.429434,12.171749 12.201962,12.252109 12.007813,12.25 10.442845,12.232951 9.4712403,11.038987 9.3222656,9.3808594 9.1044928,6.9570408 7.4100176,4.9796153 6.5058594,4.15625 L 5.4941406,5.265625 C 6.1504608,5.8632983 7.6713782,7.7690746 7.828125,9.5136719 8.0292099,11.7518 9.6285588,13.72425 11.992188,13.75 c 0.560749,0.0061 1.092413,-0.181175 1.519531,-0.525391 0.427117,-0.344215 0.755493,-0.886861 0.753906,-1.517578 -8.08e-4,-0.314626 -0.04951,-0.613875 -0.125,-0.888672 -0.048,-0.174774 -0.05183,-0.31082 0.03516,-0.490234 C 14.640196,9.3706281 15.599117,9.119073 16.69727,8.3300781 17.146225,8.0074695 17.562083,7.7080026 17.861332,7.2539062 18.158645,6.8027111 18.405706,6.2258988 18.57227,5.6191406 18.738834,5.0123825 18.860439,4.4031413 18.6504,3.765625 Z"
     id="path1" />
  <path
     d="m 21.292969,12.75 c -0.214979,0.607605 -0.324787,1.274694 -0.75586,1.833984 -0.431073,0.559291 -1.130611,1.06239 -2.826172,1.080079 -0.0071,-1.5e-5 -0.900741,-0.0019 -1.941406,0.253906 -1.044782,0.25682 -2.340315,0.770027 -2.996093,2.005859 -0.476126,0.897199 -0.571106,1.827542 -0.503907,2.605469 0.0672,0.777927 0.280968,1.402174 0.503907,1.822265 l 1.326171,-0.703125 c -0.106461,-0.200608 -0.287861,-0.693453 -0.335937,-1.25 -0.04808,-0.556546 0.02156,-1.179085 0.335937,-1.771484 0.332321,-0.626266 1.178304,-1.043249 2.027344,-1.251953 0.849041,-0.208704 1.591797,-0.210938 1.591797,-0.210938 h 0.0039 0.0039 c 2.023736,-0.02111 3.300397,-0.758904 3.998047,-1.664062 0.697651,-0.905158 0.868001,-1.926606 0.982422,-2.25 z"
     id="path2" />
</svg>
