<?xml version="1.0" encoding="UTF-8" standalone="no"?>
<svg
   width="24"
   height="24"
   viewBox="0 0 24 24"
   version="1.1"
   id="svg2"
   xmlns="http://www.w3.org/2000/svg"
   xmlns:svg="http://www.w3.org/2000/svg">
  <defs
     id="defs2" />
  <path
     d="m 12,3.25 c -4.8236049,0 -8.75,3.9263951 -8.75,8.75 0,4.823623 3.9263974,8.75 8.75,8.75 4.823621,0 8.75,-3.926379 8.75,-8.75 0,-4.8236026 -3.926377,-8.75 -8.75,-8.75 z m 0,1.5 c 4.012968,0 7.25,3.2370514 7.25,7.25 0,4.01297 -3.23703,7.25 -7.25,7.25 C 7.9870514,19.25 4.75,16.012968 4.75,12 4.75,7.9870537 7.9870537,4.75 12,4.75 Z"
     id="path1" />
  <path
     d="M 20.509766,5.3007812 C 19.706182,5.1928626 18.770098,5.2578787 17.712891,5.453125 l 0.271484,1.4746094 c 0.954691,-0.1763134 1.764981,-0.2159911 2.326172,-0.140625 0.56119,0.075366 0.805473,0.24942 0.882812,0.3730468 0.07981,0.1275684 0.113531,0.3554531 -0.107422,0.8437501 -0.220952,0.4882969 -0.692459,1.1392824 -1.376953,1.8378906 -1.368988,1.3972161 -3.571525,3.0052411 -6.230468,4.4218751 -2.658935,1.416585 -5.2708158,2.375476 -7.2792973,2.773437 -1.0042407,0.198981 -1.859678,0.252376 -2.4550781,0.181641 -0.5954,-0.07073 -0.8576902,-0.251344 -0.9375,-0.378906 -0.084166,-0.134519 -0.1146324,-0.39135 0.1464844,-0.925781 0.2611168,-0.534432 0.8005673,-1.237091 1.5703125,-1.986329 l -1.046875,-1.076171 c -0.8487732,0.82616 -1.4889487,1.622154 -1.8710938,2.404296 -0.382145,0.782142 -0.519416,1.661126 -0.070312,2.378907 0.4257798,0.680536 1.1957472,0.974726 2.0332032,1.074218 0.837456,0.09949 1.8160628,0.01793 2.921875,-0.201172 2.2116243,-0.438212 4.9238191,-1.444409 7.6933601,-2.919921 2.769551,-1.475564 5.071871,-3.14002 6.597656,-4.697266 0.762892,-0.778623 1.336168,-1.525677 1.671875,-2.2675781 0.335707,-0.7419012 0.437503,-1.5772817 0.01172,-2.2578125 C 22.052184,5.705602 21.313349,5.4086999 20.509766,5.3007812 Z"
     id="path2" />
</svg>
