<?xml version="1.0" encoding="UTF-8" standalone="no"?>
<svg
   width="24"
   height="24"
   viewBox="0 0 24 24"
   version="1.1"
   id="svg1"
   xmlns="http://www.w3.org/2000/svg"
   xmlns:svg="http://www.w3.org/2000/svg">
  <defs
     id="defs1" />
  <path
     d="m 22,5.36519 h 0.75 v 0 z M 9.45453,13.3029 9.98374,12.7714 v 0 z m 0,-4.75914 0.52921,0.53145 v 0 z m 5.97407,5.94884 -0.5292,-0.5314 v 0 z m -4.7793,0 -0.5292,0.5315 v 0 z m 9.866,-5.06527 0.5292,0.53145 v 0 z M 22,5.85801 h -0.75 v 0 z M 14.5412,3.47846 14.012,2.94701 v 0 z m -2.1679,9.16604 c 0.2936,-0.2922 0.2946,-0.7671 0.0023,-1.0606 -0.2923,-0.2935 -0.7672,-0.2945 -1.0607,-0.0023 z M 7.7089,10.282 8.23891,9.75138 l -8e-4,-8e-4 z m 3.7288,-3.48779 c 0.3484,0.22399 0.8125,0.1231 1.0364,-0.22533 0.224,-0.34843 0.1231,-0.81247 -0.2253,-1.03645 z M 11.2958,5.81143 10.8903,6.44232 v 0 z M 9.06028,4.66572 9.1698,3.92376 v 0 z M 4.79601,7.2338 5.32521,7.76526 v 0 z M 7.5054,4.86419 7.79253,5.55705 v 0 z M 5.35106,8.45274 5.62705,7.75537 v 0 z M 5.45826,8.49558 5.17285,9.18916 Z M 6.87307,9.44972 7.40228,8.91827 v 0 z M 6.79112,9.36866 6.26917,9.90724 Z M 5.02164,8.32237 4.74565,9.01974 v 0 z m 8.71346,8.01503 -0.53,0.5307 c 0.0116,0.0116 0.0235,0.0228 0.0359,0.0336 z m 4.7133,-4.6314 c -0.2253,-0.3476 -0.6897,-0.4467 -1.0373,-0.2214 -0.3476,0.2254 -0.4467,0.6898 -0.2214,1.0374 z m -0.276,0.9531 -0.6293,0.408 v 0 z m 1.1506,2.2261 0.7418,-0.1104 z m -2.5789,4.2463 0.5292,0.5315 v 0 z m 2.3796,-2.698 0.692,0.2893 z m -3.432,2.5756 0.6966,-0.278 v 0 z m -0.4125,-0.9488 -0.6574,0.3611 z m -1.0892,-1.3245 0.5292,-0.5315 -0.0171,-0.0169 -0.018,-0.0158 z m 0.7115,0.7529 0.5901,-0.463 v 0 z m 1.7694,1.7156 -0.5292,-0.5314 v 0 z m -3.1805,-3.1112 -0.2589,-0.7039 z m -5.62817,-5.6579 0.69573,0.2801 z m -1.78402,2.982 C 6.37128,13.1244 6.37157,12.6496 6.07886,12.3565 5.78614,12.0634 5.31127,12.0631 5.0182,12.3559 Z m -2.22175,1.159 -0.53,-0.5307 v 0 z M 2.31852,13.0401 1.78851,12.5095 v 0 z m 0.6838,0.3771 c 0.29307,-0.2928 0.29336,-0.7676 6.5e-4,-1.0607 -0.29272,-0.2931 -0.76759,-0.2934 -1.06066,-6e-4 z m 8.60338,5.5696 c 0.2931,-0.2928 0.2934,-0.7676 6e-4,-1.0607 -0.2927,-0.2931 -0.7675,-0.2934 -1.0606,-6e-4 z m -2.22175,1.159 0.53001,0.5306 v 0 z m 1.53795,1.5361 0.53,0.5306 v 0 z m 0.6838,0.377 c 0.2931,-0.2927 0.2934,-0.7676 6e-4,-1.0606 -0.2927,-0.2931 -0.7675,-0.2934 -1.0606,-7e-4 z m -0.9729,-4.8731 c 0.2929,-0.2929 0.2929,-0.7678 0,-1.0607 -0.2929,-0.2929 -0.76781,-0.2929 -1.0607,0 z m -3.16313,1.0417 c -0.29289,0.2929 -0.29289,0.7678 0,1.0607 0.29289,0.2929 0.76777,0.2929 1.06066,0 z m 0.38738,-3.8141 c 0.29289,-0.2929 0.29289,-0.7677 0,-1.0606 -0.2929,-0.2929 -0.76777,-0.2929 -1.06066,0 z m -3.17757,1.0563 c -0.29289,0.2929 -0.29289,0.7677 0,1.0606 0.2929,0.2929 0.76777,0.2929 1.06066,0 z m 2.78094,2.1118 C 7.75656,17.2919 7.76184,16.8171 7.47223,16.5209 7.18261,16.2248 6.70777,16.2195 6.41163,16.5091 Z m -2.75836,0.5996 c -0.29614,0.2896 -0.30142,0.7644 -0.0118,1.0606 0.28961,0.2961 0.76446,0.3014 1.06059,0.0118 z M 19.9861,8.89589 14.8994,13.9612 15.9578,15.0241 21.0445,9.95878 Z M 11.1785,13.9612 9.98374,12.7714 8.92532,13.8343 10.1201,15.0241 Z M 9.98374,9.07521 15.0705,4.00991 14.012,2.94701 8.92532,8.01231 Z M 18.1257,2.75 h 0.4949 V 1.25 H 18.1257 Z M 21.25,5.36519 v 0.49282 l 1.5,10e-6 V 5.36519 Z M 18.6206,2.75 c 0.8176,0 1.3557,0.00158 1.7545,0.05497 0.3776,0.05055 0.516,0.1349 0.6008,0.2193 l 1.0584,-1.0629 C 21.6242,1.55295 21.1169,1.3909 20.5742,1.31824 20.0527,1.24842 19.396,1.25 18.6206,1.25 Z M 22.75,5.36519 C 22.75,4.5933 22.7516,3.93861 22.6814,3.41858 22.6082,2.87664 22.4449,2.37023 22.0343,1.96137 l -1.0584,1.0629 c 0.0843,0.08396 0.1684,0.22056 0.219,0.59501 0.0535,0.39635 0.0551,0.93144 0.0551,1.74591 z M 9.98374,12.7714 C 9.40545,12.1956 9.02638,11.8158 8.78258,11.4976 8.55194,11.1966 8.51482,11.0409 8.51482,10.9233 h -1.5 c 0,0.5794 0.24449,1.0526 0.57708,1.4866 0.31944,0.417 0.78522,0.8785 1.33342,1.4244 z m 0.13636,2.2527 c 0.5483,0.5459 1.0117,1.0097 1.4303,1.3277 0.436,0.3312 0.9096,0.5734 1.4885,0.5734 v -1.5 c -0.121,0 -0.2789,-0.0382 -0.5811,-0.2678 -0.3196,-0.2429 -0.701,-0.6204 -1.2793,-1.1962 z M 21.0445,9.95878 c 0.689,-0.68612 1.1914,-1.16754 1.455,-1.80144 L 21.1146,7.58125 C 20.9924,7.87498 20.7622,8.12304 19.9861,8.89589 Z M 21.25,5.85801 c 0,1.09304 -0.0134,1.42984 -0.1354,1.72324 l 1.3849,0.57609 C 22.7634,7.5231 22.75,6.82826 22.75,5.85801 Z M 15.0705,4.00991 C 15.8462,3.23743 16.0958,3.00759 16.3919,2.88546 L 15.8199,1.49878 C 15.1844,1.76089 14.7014,2.26053 14.012,2.94701 Z M 18.1257,1.25 c -0.975,0 -1.6707,-0.01318 -2.3058,0.24878 l 0.572,1.38668 C 16.6883,2.76318 17.0287,2.75 18.1257,2.75 Z m -7.5446,13.1792 1.7922,-1.7847 -1.0584,-1.0629 -1.79218,1.7847 z M 12.2488,5.53243 11.7014,5.18054 10.8903,6.44232 11.4377,6.79421 Z M 11.7014,5.18054 C 11.162,4.83381 10.722,4.55033 10.3423,4.346 9.95325,4.1366 9.5826,3.98469 9.1698,3.92376 L 8.95076,5.40768 C 9.12633,5.4336 9.3244,5.50159 9.63147,5.66685 9.94796,5.83719 10.3315,6.08314 10.8903,6.44232 Z M 5.32521,7.76526 C 5.81546,7.27709 6.33926,6.7557 6.80953,6.32722 7.04446,6.11316 7.25709,5.93055 7.43837,5.791 7.63125,5.64251 7.74625,5.57623 7.79253,5.55705 L 7.21827,4.17133 C 6.98217,4.26917 6.73915,4.43628 6.52336,4.60241 6.29596,4.77746 6.04927,4.99066 5.79928,5.21844 5.29968,5.67364 4.75117,6.22004 4.26681,6.70235 Z M 9.1698,3.92376 C 8.51283,3.82679 7.83797,3.91452 7.21827,4.17133 L 7.79253,5.55705 C 8.16887,5.40109 8.56998,5.35148 8.95076,5.40768 Z M 4.74565,9.01974 5.07507,9.15011 5.62705,7.75537 5.29763,7.625 Z M 6.34386,9.98117 7.17969,10.8135 8.23811,9.75058 7.40228,8.91827 Z M 5.07507,9.15011 c 0.0556,0.02201 0.07705,0.03051 0.09778,0.03905 L 5.74367,7.80201 C 5.7114,7.78873 5.67905,7.77595 5.62705,7.75537 Z M 7.40228,8.91827 C 7.3627,8.87886 7.3381,8.85434 7.31306,8.83008 L 6.26917,9.90724 c 0.01606,0.01557 0.0324,0.03182 0.07469,0.07393 z M 5.17285,9.18916 C 5.58096,9.3571 5.95301,9.60085 6.26917,9.90724 L 7.31306,8.83008 C 6.86009,8.3911 6.32744,8.04224 5.74367,7.80201 Z M 4.26681,6.70235 C 3.54286,7.42323 3.79897,8.64508 4.74565,9.01974 L 5.29764,7.625 c 0.05413,0.02142 0.07237,0.09565 0.02757,0.14026 z m 12.92289,5.81965 0.3534,0.5451 1.2587,-0.816 -0.3534,-0.5451 z m -0.9749,6.0781 -0.0731,0.0728 1.0584,1.0629 0.0732,-0.0728 z m 1.3283,-5.533 c 0.3608,0.5564 0.6076,0.9382 0.7786,1.2532 0.1658,0.3055 0.2337,0.5019 0.2595,0.6753 l 1.4836,-0.2208 C 20.0034,14.3623 19.8504,13.9924 19.64,13.6047 19.4347,13.2265 19.1499,12.7881 18.8018,12.2511 Z m -0.2698,6.5959 c 0.4843,-0.4823 1.033,-1.0286 1.4902,-1.5261 0.2287,-0.2489 0.4429,-0.4946 0.6187,-0.7211 0.1668,-0.2148 0.3349,-0.4572 0.4335,-0.693 l -1.384,-0.5785 c -0.0189,0.0454 -0.0852,0.1595 -0.2343,0.3516 -0.1401,0.1805 -0.3235,0.3922 -0.5385,0.6261 -0.4302,0.4683 -0.9538,0.9899 -1.4441,1.4781 z m 1.3079,-4.6674 c 0.0562,0.3774 0.0066,0.7752 -0.1495,1.1487 l 1.384,0.5785 c 0.2584,-0.6183 0.3468,-1.292 0.2491,-1.948 z m -3.8971,1.176 -0.4549,-0.3984 -0.9882,1.1285 0.4549,0.3983 z m 1.7042,2.5595 c -0.186,-0.4658 -0.3006,-0.7566 -0.4517,-1.0318 l -1.3148,0.7221 c 0.0967,0.1761 0.1744,0.3674 0.3733,0.8657 z m -2.7275,-1.4639 c 0.3807,0.3792 0.5265,0.5261 0.6507,0.6845 l 1.1801,-0.926 c -0.1938,-0.247 -0.4164,-0.4669 -0.7724,-0.8214 z m 2.2758,0.4321 c -0.1298,-0.2362 -0.2786,-0.4615 -0.445,-0.6736 l -1.1801,0.926 c 0.1161,0.1479 0.2198,0.305 0.3103,0.4697 z M 17.289,8.01231 c -0.3673,0.36569 -0.964,0.36569 -1.3312,0 l -1.0584,1.0629 c 0.9525,0.94849 2.4955,0.94849 3.448,0 z m -1.3312,0 c -0.3655,-0.36395 -0.3655,-0.9527 0,-1.31665 l -1.0584,-1.0629 c -0.9543,0.95024 -0.9543,2.49221 0,3.44245 z m 0,-1.31665 c 0.3672,-0.36569 0.9639,-0.36569 1.3312,0 l 1.0584,-1.0629 c -0.9525,-0.94849 -2.4955,-0.94849 -3.448,0 z m 1.3312,0 c 0.3655,0.36395 0.3655,0.9527 0,1.31665 l 1.0584,1.0629 c 0.9542,-0.95024 0.9542,-2.49221 0,-3.44245 z M 16.1417,18.6729 c 0.0403,-0.0402 0.0943,-0.0491 0.1317,-0.0417 0.0376,0.0076 0.0905,0.0387 0.1149,0.0999 l -1.3932,0.556 c 0.3609,0.9041 1.5307,1.1202 2.2051,0.4487 z m -1.2423,-4.7117 c -0.4458,0.4439 -0.7777,0.7738 -1.0621,1.019 -0.2855,0.2464 -0.4696,0.3589 -0.6058,0.409 l 0.5179,1.4078 c 0.3885,-0.143 0.7348,-0.3938 1.0677,-0.6809 0.3341,-0.2882 0.7089,-0.662 1.1407,-1.092 z m -1.6679,1.428 c -0.0703,0.0258 -0.1307,0.036 -0.1926,0.036 v 1.5 c 0.2475,0 0.483,-0.0446 0.7105,-0.1282 z m 1.0336,0.4176 -0.2447,-0.2444 -1.06,1.0613 0.2447,0.2444 z M 8.92532,8.01231 C 8.5038,8.43205 8.13645,8.79732 7.85067,9.12306 7.56625,9.44725 7.31649,9.78252 7.1665,10.1551 l 1.39146,0.5602 C 8.6135,10.5773 8.73189,10.3931 8.97823,10.1123 9.22322,9.83306 9.54925,9.50787 9.98374,9.07521 Z M 7.1665,10.1551 c -0.09826,0.244 -0.15168,0.4983 -0.15168,0.7682 h 1.5 c 0,-0.0648 0.01151,-0.1295 0.04314,-0.208 z M 7.17889,10.8127 7.33222,10.9658 8.39224,9.90452 8.23891,9.75138 Z m -2.16069,1.5432 -1.69174,1.6896 1.06001,1.0613 1.69174,-1.6896 z m -2.16967,1.2149 0.15379,-0.1536 -1.06001,-1.0613 -0.1538,0.1536 z m 0,0.4747 c -0.13137,-0.1312 -0.13137,-0.3435 0,-0.4747 L 1.78851,12.5095 c -0.71801,0.7171 -0.71801,1.8802 0,2.5973 z m 0.47793,0 c -0.13188,0.1317 -0.34606,0.1317 -0.47793,0 l -1.06002,1.0613 c 0.71751,0.7167 1.88045,0.7167 2.59796,0 z m 7.21924,3.88 -1.69176,1.6896 1.06002,1.0613 1.69174,-1.6896 z m 0.9062,4.287 0.1538,-0.1536 -1.06,-1.0613 -0.1538,0.1536 z m -2.59796,0 c 0.71751,0.7167 1.88046,0.7167 2.59796,0 l -1.06,-1.0613 c -0.1319,0.1317 -0.3461,0.1317 -0.47794,0 z m 0,-2.5974 c -0.71801,0.7172 -0.71801,1.8803 0,2.5974 l 1.06002,-1.0613 c -0.13137,-0.1312 -0.13137,-0.3435 0,-0.4748 z m 0.71816,-3.49 -2.10243,2.1024 1.06066,1.0607 2.10247,-2.1024 z m -2.77571,-2.7723 -2.11691,2.1169 1.06066,1.0606 2.11691,-2.1169 z m -0.38476,3.1563 -1.70957,1.672 1.04879,1.0724 1.70957,-1.672 z"
     id="path2" />
</svg>
