<?xml version="1.0" encoding="UTF-8" standalone="no"?>
<svg
   width="24"
   height="24"
   viewBox="0 0 24 24"
   version="1.1"
   id="svg1"
   xmlns="http://www.w3.org/2000/svg"
   xmlns:svg="http://www.w3.org/2000/svg">
  <defs
     id="defs1" />
  <path
     d="m 16.775391,1.2539062 c -1.45994,0 -2.901689,0.5663786 -4.042969,1.6250001 A 0.75,0.75 0 0 0 12.716797,2.875 L 1.6367187,9.03125 A 0.75,0.75 0 0 0 1.34375,10.050781 0.75,0.75 0 0 0 2.3632813,10.341797 L 11.148438,5.4609375 C 10.5875,7.2742695 10.927332,9.2451143 12.126953,10.810547 L 4.46875,18.46875 a 0.75,0.75 0 0 0 0,1.0625 0.75,0.75 0 0 0 1.0625,0 l 7.658203,-7.658203 c 1.565414,1.199573 3.53628,1.539429 5.349609,0.978516 l -4.880859,8.785156 a 0.75,0.75 0 0 0 0.291016,1.019531 0.75,0.75 0 0 0 1.019531,-0.292969 L 21.125,11.283203 a 0.75,0.75 0 0 0 0.01367,-0.04297 C 23.283874,8.9013949 23.265122,5.2651326 21,3 19.836644,1.8366381 18.305851,1.2539062 16.775391,1.2539062 Z m 0,1.4921876 c 1.143436,0 2.28732,0.4377071 3.164062,1.3144531 1.628544,1.6285522 1.677718,4.144584 0.28125,5.9042969 -0.525265,-0.227093 -1.671367,-0.7983954 -3.529297,-2.6562501 a 0.75,0.75 0 0 0 -0.002,0 C 14.833551,5.452031 14.262171,4.3043678 14.035156,3.7792969 14.84749,3.1346338 15.794904,2.7460938 16.775391,2.7460938 Z M 12.986328,5 c 0.400163,0.7008561 1.168828,1.676191 2.171875,2.7792969 L 13.1875,9.75 C 12.177383,8.312689 12.107247,6.4957856 12.986328,5 Z m 3.234375,3.8417969 C 17.32311,9.8441858 18.29928,10.611514 19,11.011719 17.50429,11.890882 15.687347,11.822374 14.25,10.8125 Z"
     id="path1" />
</svg>
