<?xml version="1.0" encoding="UTF-8" standalone="no"?>
<svg
   width="24"
   height="24"
   viewBox="0 0 24 24"
   version="1.1"
   id="svg1"
   xmlns="http://www.w3.org/2000/svg"
   xmlns:svg="http://www.w3.org/2000/svg">
  <defs
     id="defs1" />
  <path
     d="M 9.4921875,3.3046875 C 8.9005877,3.1330752 8.31511,3.4188166 7.8867187,3.7753906 7.4583275,4.1319647 7.0356842,4.6122915 6.4746094,5.2382812 L 6.1835937,5.5625 C 5.8647117,5.9182722 5.7583284,6.000635 5.7597656,6 5.7611556,5.9993848 5.6701106,6.016926 5.2265625,5.99805 L 4.8222656,5.9804687 c -0.7804542,-0.03321 -1.3787139,-0.066846 -1.9199218,0 C 2.3611358,6.0473152 1.7740722,6.3005512 1.4765625,6.8105469 1.1790449,7.3205406 1.220326,7.9206855 1.3769531,8.46875 1.5335802,9.0168145 1.8000667,9.6120142 2.1445313,10.392578 l 0.1796875,0.404297 c 0.1957548,0.443566 0.2362054,0.574273 0.2382812,0.630859 0.00208,0.05677 -0.031063,0.204709 -0.1933594,0.673829 l -0.1484375,0.425781 c -0.2855601,0.8253 -0.5081988,1.454392 -0.6230469,2.017578 -0.114848,0.563185 -0.1176292,1.164522 0.2304688,1.65039 0.3480882,0.485856 0.9789526,0.662507 1.5234375,0.652344 0.5444849,-0.01016 1.1361765,-0.129835 1.9101562,-0.273437 L 5.6621094,16.5 c 0.4398815,-0.0816 0.5371968,-0.07357 0.5214843,-0.07813 -0.015535,-0.0045 0.086488,0.05063 0.4296875,0.359375 l 0.3125,0.28125 c 1.316843,1.184573 2.6227603,1.537896 2.6562501,1.546875 v 0.002 l 0.021484,0.0059 6.5253907,1.894532 c 0.346825,0.100657 0.629015,0.188373 0.951172,0.224609 0.322158,0.03624 0.71564,-0.01788 1.03125,-0.199219 0.293846,-0.168707 0.537911,-0.443935 0.679688,-0.714843 0.141776,-0.270909 0.217754,-0.529485 0.316406,-0.837891 0.138614,-0.432952 0.267179,-0.942502 0.355469,-1.515625 l 0.07031,-0.449219 v -0.002 c 0.0757,-0.490736 0.118744,-0.644114 0.140625,-0.681641 0.02191,-0.03757 0.106018,-0.118246 0.480469,-0.396484 l 0.339844,-0.253906 c 0.658787,-0.489541 1.16688,-0.859149 1.5625,-1.255859 0.395619,-0.396711 0.712879,-0.916057 0.691406,-1.501954 -0.02156,-0.585831 -0.38783,-1.086655 -0.81836,-1.43164 -0.430529,-0.344986 -0.964997,-0.641455 -1.65625,-1.035156 L 19.914062,10.257813 C 19.521103,10.033979 19.44348,9.9704315 19.429687,9.9511719 19.415805,9.9318009 19.361799,9.789311 19.25,9.3085938 l -0.101563,-0.4375 C 18.951686,8.0252578 18.807834,7.3819027 18.605469,6.8515625 18.403104,6.3212223 18.060356,5.7907334 17.46875,5.6191406 Z M 9.0742188,4.7460937 c -0.025078,-0.00727 0.014328,-0.030421 0.1503906,0.3261719 0.1360623,0.3565927 0.2875739,0.9803373 0.484375,1.8261719 l 0.1015625,0.4375 c 0.1118879,0.4806581 0.1683423,0.8198306 0.4218751,1.1738281 h 0.002 c 0.253594,0.353838 0.568018,0.5145203 0.960938,0.7382813 v -0.00195 l 0.357421,0.2050781 c 0.691246,0.3936877 1.194197,0.688593 1.460938,0.902344 0.266741,0.21375 0.255086,0.240059 0.257812,0.314453 0.0027,0.07435 0.0033,0.130775 -0.253906,0.388672 -0.257158,0.257896 -0.735737,0.621782 -1.394531,1.111328 l -0.341797,0.251953 c -0.373679,0.27759 -0.662269,0.475658 -0.878906,0.845703 h -0.002 c -3.26e-4,5.59e-4 3.25e-4,0.0014 0,0.002 -0.216053,0.371078 -0.252146,0.715669 -0.328125,1.208985 l -0.06836,0.449218 c -0.1338485,0.869292 -0.2387459,1.511148 -0.3496091,1.890625 -0.035587,0.121811 -0.02802,0.06719 -0.052734,0.125 -0.2677196,-0.08704 -0.7896042,-0.200489 -1.671875,-0.99414 l -0.3125,-0.28125 C 7.273868,15.357162 7.0321571,15.105375 6.6015625,14.980469 6.1707904,14.855511 5.8285494,14.943791 5.3886719,15.025391 l -0.4003907,0.07422 c -0.7739487,0.143597 -1.3433057,0.24206 -1.6640624,0.248047 -0.3207568,0.006 -0.2583793,-0.0016 -0.2753907,-0.02539 -0.017002,-0.02373 -0.059901,-0.089 0.019531,-0.478516 0.079432,-0.389513 0.2847532,-1.000874 0.5703125,-1.826172 L 3.7871094,12.591797 C 3.9493923,12.122717 4.0781585,11.800081 4.0625,11.373047 4.0468358,10.946034 3.8910972,10.63504 3.6953125,10.191406 L 3.5175781,9.7871094 C 3.1731133,9.0065448 2.9247195,8.4288127 2.8183594,8.0566406 2.7119992,7.6844686 2.7430823,7.615092 2.7714844,7.5664062 c 0.0284,-0.048684 -0.00627,-0.058043 0.3144531,-0.097656 0.3207212,-0.039613 0.8933739,-0.023444 1.6738281,0.00977 l 0.4042969,0.017578 C 5.6076333,7.5149742 5.9597426,7.5522219 6.3652344,7.3730469 6.7707712,7.193872 6.9819039,6.9202202 7.3007812,6.5644531 L 7.5917969,6.2402344 C 8.1528709,5.6142454 8.571385,5.1560647 8.8457031,4.9277344 9.1200212,4.699404 9.0992892,4.7533662 9.0742188,4.7460937 Z m 1.7441402,0.5058594 6.232422,1.8085938 c -0.02501,-0.00725 0.01628,-0.032355 0.152344,0.3242187 0.13606,0.3565739 0.287627,0.9803496 0.484375,1.8261719 L 17.787109,9.6464844 12.216797,8.1015625 11.9375,7.9433594 c -0.39288,-0.2237386 -0.47037,-0.287099 -0.484375,-0.3066407 -0.01387,-0.019362 -0.06973,-0.159864 -0.181641,-0.640625 l -0.101562,-0.4375 C 11.042701,6.01181 10.931541,5.6541369 10.818359,5.2519531 Z m 3.785157,5.0683599 4.652343,1.287109 0.273438,0.158203 c 0.691246,0.393698 1.194168,0.686627 1.460937,0.900391 0.26677,0.213763 0.257029,0.242038 0.259766,0.316406 0.0027,0.0744 0.0033,0.12883 -0.253906,0.386719 -0.25718,0.257888 -0.737673,0.621769 -1.396485,1.111328 l -0.339843,0.253906 c -0.173852,0.129181 -0.271474,0.272968 -0.410157,0.392578 l -6.257812,-1.816406 c 0.613743,-0.455618 1.11159,-0.81754 1.488281,-1.195313 0.395592,-0.396728 0.712881,-0.916103 0.691406,-1.501953 -0.0044,-0.119908 -0.136972,-0.180852 -0.167968,-0.292968 z m -3.023438,4.259765 6.554688,1.902344 c -0.01767,0.109388 -0.06458,0.182606 -0.08398,0.308594 l -0.07031,0.449218 c -0.07491,0.486276 -0.185349,0.920463 -0.302735,1.28711 -0.09865,0.308393 -0.170198,0.510568 -0.216797,0.599609 -0.0466,0.08904 -0.03075,0.07208 -0.0957,0.109375 h -0.002 c -0.04309,0.02476 -8.67e-4,0.02263 -0.115234,0.0098 -0.114367,-0.01286 -0.354398,-0.07514 -0.701172,-0.175782 l -5.607422,-1.626953 c 0.03116,-0.08359 0.129471,-0.122053 0.154297,-0.207031 0.160899,-0.550747 0.258727,-1.212725 0.392578,-2.082031 l 0.06836,-0.449219 c 0.01395,-0.09056 0.01365,-0.05612 0.02539,-0.125 z"
     id="path1" />
</svg>
