<?xml version="1.0" encoding="UTF-8" standalone="no"?>
<svg
   width="24"
   height="24"
   viewBox="0 0 24 24"
   version="1.1"
   id="svg4"
   xmlns="http://www.w3.org/2000/svg"
   xmlns:svg="http://www.w3.org/2000/svg">
  <defs
     id="defs4" />
  <path
     d="m 11.597656,1.2578125 c -0.476617,-0.049189 -0.905408,0.2260041 -1.169922,0.5 C 10.16322,2.0318084 9.942093,2.3549303 9.6484375,2.7675781 L 9.4960938,2.9824219 c -0.1668999,0.2345197 -0.200284,0.2471602 -0.1386719,0.2109375 0.061623,-0.03623 0.032664,-0.012549 -0.2539063,0.019531 L 8.8417969,3.2421875 C 8.337571,3.2986426 7.9481907,3.3355372 7.5800781,3.4335938 7.2119656,3.5316503 6.7626084,3.7714007 6.5742187,4.2128906 6.3858324,4.6543855 6.5181576,5.1391575 6.6972656,5.4765625 6.8763736,5.8139675 7.1162678,6.12939 7.4199219,6.5429687 l 0.15625,0.2148438 c 0.1725858,0.2350679 0.1783942,0.2758796 0.1640625,0.2128906 -0.014325,-0.062981 -2.395e-4,-0.02836 -0.054687,0.2558594 L 7.6347656,7.4863281 C 7.5389605,7.9864388 7.4594074,8.3707427 7.4433594,8.7519531 7.4273113,9.1331635 7.5192054,9.6267491 7.875,9.9433594 c 0.3558002,0.3166046 0.8586079,0.3502056 1.234375,0.2871096 0.3757671,-0.0631 0.7471679,-0.190622 1.228516,-0.3476565 l 0.248047,-0.082031 c 0.273591,-0.089247 0.307955,-0.078947 0.240234,-0.085937 -0.06772,-0.00699 -0.0263,-0.00879 0.226562,0.1347656 l 0.230469,0.1308594 c 0.445,0.2526295 0.784836,0.4537925 1.140625,0.5917975 0.35579,0.138005 0.856393,0.212818 1.271485,-0.03125 0.415109,-0.244018 0.595183,-0.7196808 0.646484,-1.0976569 0.0513,-0.3779761 0.03935,-0.7725809 0.0332,-1.2832031 l -0.002,-0.2636719 c -0.0035,-0.2902958 0.01552,-0.325572 -0.01172,-0.2617188 -0.027,0.063191 -0.0193,0.02939 0.191406,-0.1660156 L 14.744141,7.2910156 C 15.114997,6.9470346 15.406934,6.6864007 15.644531,6.3886719 15.882128,6.090943 16.099953,5.63091 15.994141,5.1660156 15.888435,4.7010348 15.499853,4.3851326 15.158203,4.2148437 14.81704,4.0447977 14.439223,3.9277389 13.955078,3.7695313 h -0.002 l -0.25,-0.082031 c -0.275741,-0.090091 -0.301409,-0.1184342 -0.253906,-0.076172 0.04778,0.042507 0.01531,0.018377 -0.107422,-0.2460937 L 13.230469,3.1230469 C 13.014624,2.6578374 12.853799,2.2961633 12.644531,1.9765625 12.435263,1.6569617 12.074253,1.3069862 11.597656,1.2578125 Z M 11.4375,2.8945313 c 0.102503,0.1719449 0.237442,0.4427738 0.431641,0.8613281 l 0.111328,0.2402344 c 0.122667,0.2643291 0.213673,0.5039881 0.472656,0.7343749 0.258703,0.2301622 0.507345,0.2926835 0.783203,0.3828125 l 0.251953,0.082031 c 0.441452,0.1442736 0.730054,0.2469474 0.910157,0.328125 -0.127583,0.1464743 -0.339488,0.357857 -0.673829,0.6679687 L 13.533203,6.3691406 C 13.322312,6.5647152 13.119424,6.726264 12.982422,7.046875 12.845386,7.368148 12.869548,7.6239388 12.873047,7.9140625 l 0.002,0.2636719 c 0.0054,0.451512 -3.2e-4,0.7410779 -0.01758,0.9394531 C 12.674606,9.0360422 12.417058,8.8992426 12.023438,8.6757813 L 11.792969,8.5449219 C 11.540032,8.4013211 11.327193,8.2584223 10.980469,8.2226563 10.633748,8.1868657 10.394701,8.2857475 10.121094,8.375 L 9.8730469,8.4550781 C 9.4371579,8.597282 9.1472947,8.6825442 8.9570313,8.7226563 8.9729359,8.5267633 9.0221426,8.2229385 9.109375,7.7675781 L 9.1582031,7.5097656 C 9.212655,7.225526 9.2800502,6.9768726 9.203125,6.6386719 v -0.00195 C 9.1261734,6.29851 8.9596832,6.1041922 8.7871094,5.8691406 L 8.6289063,5.65625 C 8.3567523,5.2855746 8.187527,5.0380845 8.0859375,4.8652344 8.2779858,4.8239099 8.5631682,4.7824247 9.0097656,4.7324219 L 9.2695313,4.703125 C 9.5561,4.6710451 9.8152242,4.6638575 10.117188,4.4863281 10.419139,4.3088055 10.55185,4.0860823 10.71875,3.8515625 l 0.152344,-0.2128906 c 0.260945,-0.3666832 0.43741,-0.597133 0.566406,-0.7441406 z"
     id="path1" />
  <path
     d="m 11.205078,11.279297 a 0.75,0.75 0 0 0 -0.925781,0.515625 c -0.8863906,3.102367 -0.3653258,8.083133 -0.02148,10.318359 a 0.75,0.75 0 0 0 0.855468,0.628906 0.75,0.75 0 0 0 0.626953,-0.855468 c -0.322758,-2.09817 -0.733139,-7.184013 -0.01953,-9.681641 a 0.75,0.75 0 0 0 -0.515625,-0.925781 z"
     id="path2" />
  <path
     d="m 22.191406,8.7753906 a 0.75,0.75 0 0 0 -0.568359,0.076172 C 15.365708,12.501677 13.75,18.441701 13.75,22 A 0.75,0.75 0 0 0 14.5,22.75 0.75,0.75 0 0 0 15.25,22 c 0,-3.108295 1.384304,-8.501684 7.126953,-11.851562 A 0.75,0.75 0 0 0 22.648437,9.1230469 0.75,0.75 0 0 0 22.191406,8.7753906 Z"
     id="path3" />
  <path
     d="m 4.75,12.835938 a 0.50005,0.50005 0 0 0 -0.2226563,0.595703 c 0,0 0.070429,0.203388 0.125,0.474609 0.054571,0.271221 0.069653,0.606173 0.033203,0.742188 -0.036465,0.136092 -0.2175161,0.417396 -0.4003907,0.625 -0.1828745,0.207603 -0.3457031,0.349609 -0.3457031,0.349609 a 0.50005,0.50005 0 0 0 0.4921875,0.849609 c 0,0 0.2033752,-0.07043 0.4746094,-0.125 0.2712342,-0.05457 0.6061003,-0.06966 0.7421875,-0.0332 0.1360414,0.03645 0.4173955,0.217504 0.625,0.400391 0.2076045,0.182886 0.3496094,0.345703 0.3496094,0.345703 A 0.50005,0.50005 0 0 0 7.472656,16.568362 c 0,0 -0.070427,-0.203375 -0.125,-0.474609 -0.054573,-0.271234 -0.069667,-0.606088 -0.033203,-0.742187 0.036465,-0.136093 0.2175161,-0.417397 0.4003906,-0.625 0.1828746,-0.207604 0.3457032,-0.34961 0.3457032,-0.34961 A 0.50005,0.50005 0 0 0 7.5683594,13.527344 c 0,0 -0.2033752,0.07043 -0.4746094,0.125 -0.2712342,0.05457 -0.6061003,0.06966 -0.7421875,0.0332 -0.1360669,-0.03645 -0.4173979,-0.217527 -0.625,-0.400391 -0.2076021,-0.182861 -0.3496094,-0.3457 -0.3496094,-0.3457 A 0.50005,0.50005 0 0 0 4.75,12.835938 Z m 0.8945312,1.546875 c 0.1533242,0.09344 0.2580817,0.218325 0.4492188,0.269531 0.190998,0.05117 0.3440456,-0.0036 0.5234375,-0.0078 -0.093452,0.153327 -0.2183173,0.25808 -0.2695313,0.449219 -0.051175,0.191006 0.00357,0.344039 0.00781,0.523438 -0.1532279,-0.09336 -0.2582306,-0.218366 -0.4492187,-0.269532 -0.190998,-0.05117 -0.3440456,0.0036 -0.5234375,0.0078 0.093452,-0.153327 0.2183173,-0.25808 0.2695312,-0.449219 0.051185,-0.190999 -0.00357,-0.344048 -0.00781,-0.523437 z"
     id="path4" />
</svg>
