<?xml version="1.0" encoding="UTF-8" standalone="no"?>
<svg
   width="24"
   height="24"
   viewBox="0 0 24 24"
   version="1.1"
   id="svg1"
   xmlns="http://www.w3.org/2000/svg"
   xmlns:svg="http://www.w3.org/2000/svg">
  <defs
     id="defs1" />
  <path
     d="M 9.95028,6.64888 9.68717,5.94655 v 0 z m 1.45022,-1.41469 0.6982,0.2739 v 0 z M 8.81963,11.0739 8.35384,11.6618 v 0 z M 9.47961,6.8252 9.74272,7.52754 v 0 z m 0.68659,6.3549 -0.74839,0.049 v 0 z M 9.21432,11.3867 9.68011,10.7989 v 0 z m 0.77456,0.7494 0.66242,-0.3516 z m 4.16992,3.5051 0.3976,0.6359 v 0 z m -3.9604,-1.9695 0.7484,-0.0491 v 0 z m 6.4226,1.3983 0.1887,-0.7259 v 0 z m -2.0385,0.3063 -0.3976,-0.6359 v 0 z m 5.6367,-3.2103 0.7225,-0.2015 v 0 z m -3.1076,3.0315 -0.1887,0.7259 v 0 z m 3.2828,-5.4907 -0.627,-0.41159 v 0 z m -0.308,1.9827 -0.7225,0.2015 v 0 z M 18.6256,5.45095 18.6694,4.70224 v 0 z m 2.0397,3.84308 0.627,0.41159 v 0 z m -4.3937,-4.79177 -0.573,0.4839 v 0 z m 1.8482,0.91909 -0.0438,0.74872 v 0 z m -2.1713,-1.30168 0.573,-0.4839 v 0 z M 11.5802,4.77604 10.882,4.50213 v 0 z M 7.01942,9.16952 C 7.36103,8.93526 7.44806,8.46843 7.21381,8.12682 6.97956,7.78521 6.51273,7.69818 6.17112,7.93243 Z M 2.33125,22 1.59192,22.1261 c 0.05723,0.3356 0.33336,0.5906 0.67247,0.6209 0.33912,0.0304 0.65613,-0.1715 0.77205,-0.4916 z m 8.28255,-5.875 c 0.395,-0.1249 0.6139,-0.5463 0.4891,-0.9412 -0.1249,-0.395 -0.5463,-0.6139 -0.9412,-0.489 z m 4.7617,-11.52143 0.3231,0.38259 1.146,-0.9678 -0.3231,-0.38259 z m 2.7005,1.5665 0.5058,0.0296 0.0876,-1.49743 -0.5058,-0.0296 z m 1.9624,2.71236 -0.271,0.41278 1.2539,0.82319 0.271,-0.41278 z m -0.6745,3.00857 0.1329,0.4764 1.4449,-0.4029 -0.1329,-0.4764 z m -2.0637,2.5806 -0.4905,-0.1275 -0.3773,1.4518 0.4905,0.1275 z m -3.1153,0.2688 -0.4236,0.2648 0.7951,1.2719 0.4237,-0.2648 z m -3.2381,-1.1178 -0.0322,-0.4915 -1.49679,0.098 0.03222,0.4916 z M 9.68011,10.7989 9.28542,10.4861 8.35384,11.6618 8.74853,11.9745 Z M 9.74272,7.52754 10.2134,7.35122 9.68717,5.94655 9.21651,6.12287 Z M 12.0987,5.50809 12.2784,5.04994 10.882,4.50213 10.7023,4.96028 Z M 10.2134,7.35122 C 10.6679,7.18095 11.11,7.0313 11.4388,6.71057 L 10.3913,5.63684 C 10.3415,5.68547 10.2666,5.72949 9.68717,5.94655 Z m 0.4889,-2.39094 c -0.2216,0.56478 -0.264,0.63072 -0.311,0.67656 l 1.0475,1.07373 c 0.3316,-0.32351 0.4866,-0.7608 0.6599,-1.20248 z M 9.28542,10.4861 C 8.50294,9.86608 7.98411,9.45247 7.66311,9.11152 7.34386,8.77241 7.38167,8.67187 7.38209,8.66917 L 5.89986,8.43893 c -0.10933,0.70386 0.255,1.25882 0.67111,1.70077 0.41437,0.4402 1.03974,0.9332 1.78287,1.5221 z M 9.21651,6.12287 C 8.3305,6.45478 7.58512,6.73191 7.05671,7.02367 6.52567,7.31688 6.00933,7.7342 5.89986,8.43893 L 7.38209,8.66917 C 7.38237,8.66733 7.37573,8.56098 7.78175,8.3368 8.19041,8.11116 8.80947,7.87715 9.74272,7.52754 Z m 1.69809,7.00823 c -0.0311,-0.4744 -0.0461,-0.9375 -0.2633,-1.3466 l -1.32489,0.7032 c 0.03138,0.0591 0.05173,0.1359 0.0914,0.7414 z M 8.74853,11.9745 c 0.48553,0.3847 0.54454,0.4504 0.57788,0.5132 L 10.6513,11.7845 C 10.4362,11.379 10.0616,11.1012 9.68011,10.7989 Z m 5.01277,3.0307 c -0.84,0.5251 -1.3986,0.872 -1.8276,1.0596 -0.4203,0.1838 -0.5258,0.1279 -0.556,0.1129 l -0.6679,1.3431 c 0.6285,0.3125 1.2618,0.1645 1.8248,-0.0817 0.5546,-0.2424 1.2242,-0.6634 2.0218,-1.162 z M 9.45003,13.7207 c 0.06056,0.9243 0.10965,1.7056 0.23828,2.2905 0.13138,0.5975 0.38819,1.1947 1.02149,1.5096 l 0.6679,-1.3431 C 11.3525,16.1651 11.2488,16.1235 11.1533,15.6891 11.055,15.2422 11.0108,14.5984 10.9468,13.6226 Z m 7.35967,0.6234 c -0.4772,-0.124 -0.9213,-0.2539 -1.3745,-0.1858 l 0.2229,1.4833 c 0.079,-0.0119 0.1737,-0.0018 0.7743,0.1543 z m -1.8296,1.6682 c 0.519,-0.3245 0.6016,-0.3592 0.678,-0.3707 l -0.2229,-1.4833 c -0.4558,0.0685 -0.8386,0.3247 -1.2503,0.5821 z m 4.5167,-3.6449 c 0.2637,0.9458 0.4358,1.5707 0.491,2.0241 0.0542,0.4447 -0.0339,0.4994 -0.0388,0.5041 l 1.0474,1.0738 c 0.5119,-0.4994 0.5538,-1.1572 0.4804,-1.7593 -0.0723,-0.5935 -0.2854,-1.3498 -0.5351,-2.2456 z m -2.5739,3.556 c 0.9244,0.2402 1.6981,0.4432 2.3032,0.5108 0.608,0.0679 1.2658,0.0273 1.7703,-0.4648 L 19.949,14.8956 c -0.0124,0.0121 -0.087,0.1003 -0.5563,0.0479 -0.4722,-0.0528 -1.1206,-0.2193 -2.0925,-0.4719 z m 2.8445,-6.62819 c -0.2603,0.3965 -0.5298,0.77839 -0.6008,1.23539 l 1.4822,0.2302 c 0.0094,-0.0606 0.0376,-0.1321 0.3725,-0.6424 z m 1.0414,2.19289 c -0.1642,-0.5889 -0.1695,-0.6663 -0.16,-0.7273 l -1.4822,-0.2302 c -0.071,0.4567 0.0697,0.9026 0.1973,1.3604 z m -2.227,-5.28843 c 1.0019,0.05864 1.6699,0.09962 2.1354,0.19472 0.4623,0.09443 0.5084,0.20155 0.5176,0.21891 L 22.5597,5.91007 C 22.2297,5.28832 21.6174,5.04728 21.0174,4.92473 20.4207,4.80284 19.6224,4.75801 18.6694,4.70224 Z m 2.7105,3.50595 c 0.5094,-0.77597 0.9418,-1.43081 1.1908,-1.9739 0.2529,-0.5518 0.4117,-1.19037 0.0766,-1.82165 L 21.2348,6.6133 c 0.0041,0.00782 0.0707,0.08768 -0.1153,0.4934 -0.19,0.41443 -0.5431,0.95621 -1.0811,1.77573 z M 15.6986,4.98616 c 0.3141,0.37197 0.6003,0.73292 1.0127,0.93799 L 17.3792,4.58106 C 17.309,4.54617 17.2403,4.48688 16.8446,4.01836 Z m 2.465,-0.31352 C 17.5447,4.63641 17.4512,4.61689 17.3792,4.58106 l -0.6679,1.34309 c 0.4104,0.20413 0.8725,0.21712 1.3647,0.24592 z M 16.5215,3.63577 C 15.9132,2.91537 15.4035,2.30881 14.9493,1.90755 14.4887,1.50061 13.9311,1.16464 13.2373,1.26889 l 0.2229,1.48334 c 0.0327,-0.0049 0.1505,-0.02574 0.496,0.27945 0.3518,0.31087 0.7788,0.81345 1.4193,1.57189 z M 12.2784,5.04995 C 12.6353,4.14038 12.8726,3.54129 13.1015,3.14622 13.324,2.76229 13.4342,2.75614 13.4602,2.75223 L 13.2373,1.26889 c -0.7004,0.10524 -1.1271,0.5964 -1.4336,1.12519 -0.3,0.51766 -0.5838,1.24674 -0.9217,2.10805 z M 6.17112,7.93243 C 4.49941,9.07878 3.02192,10.7519 2.13211,13.0987 1.24403,15.4408 0.958102,18.409 1.59192,22.1261 L 3.07058,21.8739 C 2.47143,18.3602 2.76084,15.6714 3.53467,13.6305 4.30678,11.5941 5.57778,10.1581 7.01942,9.16952 Z M 3.03644,22.2554 c 0.97972,-2.7057 4.0155,-5.0043 7.57736,-6.1304 l -0.4521,-1.4302 c -3.78842,1.1977 -7.33251,3.7273 -8.53564,7.0498 z"
     id="path2" />
</svg>
