<?xml version="1.0" encoding="UTF-8" standalone="no"?>
<svg
   width="24"
   height="24"
   viewBox="0 0 24 24"
   version="1.1"
   id="svg6"
   xmlns="http://www.w3.org/2000/svg"
   xmlns:svg="http://www.w3.org/2000/svg">
  <defs
     id="defs6" />
  <path
     d="m 6.6347656,2.8359375 c -0.5355387,0.1110773 -1.0181,0.3442719 -1.40625,0.7324219 -0.5791561,0.5791561 -0.8181472,1.3927401 -0.8125,2.2402343 0.00565,0.8474943 0.2342627,1.7628747 0.6328125,2.7324219 0.7970996,1.9390944 2.2864015,4.0988704 4.2988282,6.1113284 2.0124237,2.012408 4.1702817,3.501737 6.1093747,4.298828 0.969547,0.398545 1.886874,0.627166 2.734375,0.632812 0.847501,0.0056 1.661058,-0.233359 2.240235,-0.8125 0.776248,-0.776319 0.93492,-1.932819 0.730468,-3.128906 -0.204451,-1.196087 -0.762383,-2.514645 -1.599609,-3.884765 l -1.28125,0.783203 c 0.766072,1.253676 1.244946,2.434657 1.402344,3.355468 0.157398,0.920811 0.0036,1.498374 -0.3125,1.814453 -0.235823,0.235809 -0.595617,0.376873 -1.169922,0.373047 C 17.626867,18.080158 16.871474,17.909491 16.027344,17.5625 14.339083,16.868517 12.301005,15.484585 10.408203,13.591797 8.5153937,11.698958 7.1314914,9.6589675 6.4375,7.9707031 6.0905043,7.1265709 5.9198424,6.3731203 5.9160156,5.7988281 5.9121888,5.2245359 6.0532644,4.8647043 6.2890625,4.6289062 6.6051214,4.3128473 7.1827033,4.1590107 8.1035156,4.3164062 9.024328,4.4738018 10.205317,4.9526967 11.458984,5.71875 L 12.242188,4.4375 C 10.872078,3.6002949 9.5535124,3.0423398 8.3574219,2.8378906 7.7593766,2.7356661 7.1703043,2.7248602 6.6347656,2.8359375 Z"
     id="path1" />
  <path
     d="m 14.828125,3.3144531 c -1.40371,0 -2.806391,0.5329597 -3.873047,1.5996094 -0.233237,0.2333117 -0.473746,0.6394925 -0.386719,1.1230469 0.13233,0.7373208 0.709024,2.0566188 3.023438,4.3710936 2.31451,2.314469 3.633715,2.89111 4.371094,3.023438 0.483055,0.08664 0.889715,-0.153574 1.123046,-0.386719 2.133312,-2.133311 2.133312,-5.6147358 0,-7.748047 L 18.703125,4.9140625 c -1.066656,-1.0666497 -2.47129,-1.5996094 -3.875,-1.5996094 z m 0,1.4902344 c 1.016688,0 2.03441,0.3898835 2.814453,1.1699219 l 0.382813,0.3828125 c 1.53193,1.5319307 1.539138,3.9663761 0.0625,5.5312501 C 17.740754,11.800119 16.703144,11.39842 14.652344,9.3476563 12.60164,7.2968981 12.19988,6.2592185 12.111328,5.9121094 12.879372,5.1874187 13.84817,4.8046875 14.828125,4.8046875 Z"
     id="path2" />
  <path
     id="circle2"
     d="m 12.707107,12.707307 a 1,1 0 0 1 -1.414214,0 1,1 0 0 1 0,-1.414214 1,1 0 0 1 1.414214,0 1,1 0 0 1 0,1.414214 z" />
  <path
     id="circle3"
     d="m 9.8786767,8.4645869 a 1,1 0 0 1 -1.4142137,-2e-7 1,1 0 0 1 0,-1.4142136 1,1 0 0 1 1.4142136,0 1,1 0 0 1 10e-8,1.4142138 z" />
  <path
     id="circle4"
     d="m 16.949706,15.535406 a 1,1 0 0 1 -1.414213,0 1,1 0 0 1 0,-1.414213 1,1 0 0 1 1.414213,0 1,1 0 0 1 0,1.414213 z" />
  <path
     d="m 7.7578125,15.492188 a 0.75,0.75 0 0 0 -0.53125,0.220703 l -4.1210937,4.121093 a 0.75,0.75 0 0 0 0,1.060547 0.75,0.75 0 0 0 1.0605468,0 l 4.1210938,-4.121094 a 0.75,0.75 0 0 0 0,-1.060546 0.75,0.75 0 0 0 -0.5292969,-0.220703 z"
     id="path4" />
  <path
     d="m 12.78125,19.03125 a 0.75,0.75 0 0 0 -0.550781,0.167969 l -2.7070315,2.220703 a 0.75,0.75 0 0 0 -0.1035156,1.054687 0.75,0.75 0 0 0 1.0546871,0.105469 l 2.708985,-2.222656 A 0.75,0.75 0 0 0 13.287109,19.302734 0.75,0.75 0 0 0 12.78125,19.03125 Z"
     id="path5" />
  <path
     d="m 4.1484375,10.546875 a 0.75,0.75 0 0 0 -0.5058594,0.269531 l -2.2226562,2.707032 a 0.75,0.75 0 0 0 0.1035156,1.05664 0.75,0.75 0 0 0 1.0566406,-0.103515 L 4.8007812,11.769531 A 0.75,0.75 0 0 0 4.6972656,10.712891 0.75,0.75 0 0 0 4.1484375,10.546875 Z"
     id="path6" />
</svg>
