<?xml version="1.0" encoding="utf-8"?>
<!-- Generator: Adobe Illustrator 27.9.0, SVG Export Plug-In . SVG Version: 6.00 Build 0)  -->
<svg version="1.1" id="Calque_1" xmlns="http://www.w3.org/2000/svg" xmlns:xlink="http://www.w3.org/1999/xlink" x="0px" y="0px"
	 viewBox="0 0 24 24" style="enable-background:new 0 0 24 24;" xml:space="preserve">
<g>
	<g>
		<path d="M21.2,7c-0.1-0.1-0.1-0.2-0.2-0.2C20.2,6,18.8,6,16.2,6h-0.4c-1.2,0-1.7,0-2.3-0.2c-0.3-0.1-0.6-0.2-0.8-0.4
			C12.2,5.2,11.8,4.8,11,4l-0.6-0.6C10.2,3.2,10,3,9.9,2.9C9.3,2.4,8.5,2.1,7.7,2C7.5,2,7.3,2,6.9,2C6.1,2,5.6,2,5.3,2.1
			C3.6,2.4,2.4,3.6,2.1,5.3C2,5.6,2,6.1,2,6.9V14c0,3.8,0,5.7,1.2,6.8C4.3,22,6.2,22,10,22h4c3.8,0,5.7,0,6.8-1.2
			C22,19.7,22,17.8,22,14v-2.2C22,9.2,22,7.8,21.2,7z M18,10.8h-5c-0.4,0-0.8-0.3-0.8-0.8s0.3-0.8,0.8-0.8h5c0.4,0,0.8,0.3,0.8,0.8
			S18.4,10.8,18,10.8z"/>
	</g>
</g>
<path d="M17,3c-0.2,0-0.3,0-0.7,0H12l0.4,0.4c0.7,0.7,0.9,0.9,1.2,1.1c0.2,0.1,0.4,0.2,0.5,0.2c0.3,0.1,0.7,0.1,1.6,0.1h0.3
	c1,0,1.8,0,2.4,0.1c0.2,0,0.3,0,0.5,0.1C18.8,4,18,3.2,17,3z"/>
</svg>
