<?xml version="1.0" encoding="UTF-8" standalone="no"?>
<svg
   width="24"
   height="24"
   viewBox="0 0 24 24"
   version="1.1"
   id="svg2"
   xmlns="http://www.w3.org/2000/svg"
   xmlns:svg="http://www.w3.org/2000/svg">
  <defs
     id="defs2" />
  <path
     d="m 18.4508,8.27826 0.7476,-0.05989 v 0 z m 0.0143,0.18767 0.7485,-0.0476 z m -1.8514,4.43367 0.4955,0.563 v 0 z m 0.1374,-0.1219 0.5051,0.5544 v 0 z m -6.6809,-3.81996 0.7392,0.12677 z m 0.0324,-0.18504 0.7371,0.13895 z m 2.8848,-3.78563 0.3308,0.6731 v 0 z M 12.8245,5.068 13.1671,5.73518 Z M 7.73204,13.4657 7.2062,12.9309 v 0 z m 0.12826,-0.1268 0.53195,0.5287 v 0 z m 2.1782,-4.19972 0.7378,0.13491 z m 4.0026,8.12712 0.7315,0.1657 v 0 z m 0.0412,-0.1793 -0.7296,-0.1738 z m 2.3966,-4.0681 0.502,0.5573 z m -8.82755,7.3934 0.38701,-0.6424 h -1e-5 z M 5.46243,18.8097 4.84069,19.2292 Z M 6.9476,14.237 7.47343,14.7718 v 0 z M 5.17824,16.3159 4.47735,16.049 v 0 z m 3.13745,4.4966 -0.38701,0.6425 v 0 z m 2.42471,1.1766 -0.0702,0.7468 z m 3.0527,-3.6283 -0.7314,-0.1657 v 0 z m -0.8408,2.6383 0.5978,0.4529 z m 5.3872,-18.10069 0.387,-0.64244 v 0 z m 0.4111,0.30836 0.632,-0.40372 v 0 z M 18.6267,3.971 19.2829,4.33412 v 0 z M 18.8287,3.4985 18.0794,3.46461 Z M 16.446,2.72605 15.7898,2.36293 v 0 z m 0.3129,-0.44762 0.4129,0.62606 z m 0.7999,0.14968 -0.387,0.64244 v 0 z M 17.0641,2.1967 17.109,1.44804 Z M 15.6325,4.13931 17.7846,5.43577 18.5586,4.1509 16.4065,2.85443 Z M 8.70269,20.1701 8.03836,19.7699 7.26434,21.0548 7.92868,21.455 Z m 4.60701,-3.0695 -0.248,1.0945 1.4629,0.3314 0.248,-1.0945 z M 7.47343,14.7718 8.25788,14.0005 7.2062,12.9309 6.42176,13.7022 Z m 5.84477,-9.11163 3.0321,-1.4902 -0.6616,-1.3462 -3.0321,1.4902 z M 17.424,4.85322 17.7032,8.33815 19.1984,8.21837 18.9192,4.73345 Z M 16.6757,3.85999 17.1022,3.08917 15.7898,2.36293 15.3632,3.13375 Z m 0.4961,-0.78944 0.7807,0.4703 0.774,-1.28488 -0.7807,-0.47029 z m 0.7986,0.53733 -0.455,0.82234 1.3125,0.72624 0.455,-0.82234 z m -0.2672,4.73027 c 0.0078,0.09756 0.011,0.13788 0.0134,0.17538 l 1.497,-0.0952 C 19.2102,8.36564 19.2058,8.3109 19.1984,8.21837 Z m -0.594,5.12445 c 0.0678,-0.0597 0.1085,-0.0954 0.147,-0.1305 l -1.0103,-1.1088 c -0.0267,0.0244 -0.0558,0.0501 -0.1277,0.1133 z m 0.6074,-4.94907 c 0.0902,1.41805 -0.4589,2.78797 -1.4707,3.70977 l 1.0103,1.1088 C 18.614,12.095 19.3318,10.2778 19.2136,8.41833 Z M 10.8094,9.08451 C 10.8259,8.98819 10.8327,8.94845 10.8397,8.91165 L 9.36562,8.63376 C 9.35585,8.68558 9.3466,8.73966 9.33094,8.83097 Z M 12.6566,4.31397 C 12.5763,4.35343 12.528,4.37714 12.4819,4.40082 l 0.6852,1.33436 c 0.0316,-0.01624 0.066,-0.03317 0.1511,-0.07501 z m -1.8169,4.59768 c 0.2622,-1.3913 1.1286,-2.56092 2.3274,-3.17647 L 12.4819,4.40082 C 10.856,5.2357 9.71048,6.80449 9.36562,8.63376 Z M 8.25788,14.0005 C 8.32135,13.9381 8.35726,13.9028 8.39225,13.8676 L 7.32835,12.8102 C 7.30084,12.8379 7.27207,12.8662 7.2062,12.9309 Z M 9.33094,8.83097 C 9.31502,8.92385 9.30799,8.96477 9.30077,9.00426 L 10.7763,9.27409 C 10.7854,9.22458 10.794,9.17421 10.8094,9.08451 Z M 8.39225,13.8676 C 9.62602,12.6262 10.4568,11.0213 10.7763,9.27409 L 9.30077,9.00426 C 9.03457,10.4599 8.3439,11.7884 7.32835,12.8102 Z m 6.38035,3.5644 c 0.0208,-0.0918 0.03,-0.1322 0.0392,-0.1712 l -1.4591,-0.3476 c -0.0117,0.0489 -0.023,0.0987 -0.043,0.1874 z m 1.3456,-5.0954 c -0.0666,0.0586 -0.1044,0.0918 -0.1412,0.125 l 1.0039,1.1146 c 0.0289,-0.0261 0.0591,-0.0527 0.1283,-0.1136 z m -1.3064,4.9242 c 0.3425,-1.4375 1.1019,-2.7234 2.1691,-3.6846 L 15.977,12.4616 c -1.2984,1.1695 -2.213,2.725 -2.6243,4.4516 z M 8.03835,19.7699 C 7.40696,19.3896 6.96744,19.1243 6.64293,18.896 6.32139,18.6698 6.17087,18.5188 6.08417,18.3903 l -1.24348,0.8389 c 0.23611,0.3499 0.55802,0.6255 0.93921,0.8937 0.37824,0.266 0.87177,0.5628 1.48444,0.9319 z M 6.42176,13.7022 C 5.9085,14.2069 5.49546,14.6124 5.18769,14.9606 4.8776,15.3115 4.62759,15.6545 4.47735,16.049 l 1.40177,0.5339 C 5.93538,16.4352 6.04909,16.251 6.31158,15.954 6.57638,15.6545 6.94479,15.2916 7.47343,14.7718 Z M 6.08417,18.3903 C 5.7293,17.8642 5.65061,17.1829 5.87912,16.5829 L 4.47735,16.049 c -0.40116,1.0533 -0.26616,2.2471 0.36334,3.1802 z m 1.84451,3.0647 c 0.61255,0.369 1.10582,0.6667 1.5161,0.8756 0.41205,0.2098 0.80682,0.3659 1.22542,0.4053 l 0.1403,-1.4935 C 10.6706,21.2293 10.475,21.1719 10.1254,20.9939 9.774,20.8149 9.33421,20.5505 8.70269,20.1701 Z m 5.13302,-3.2599 c -0.167,0.7371 -0.2843,1.253 -0.4011,1.6436 -0.1162,0.3891 -0.213,0.5845 -0.3061,0.7074 l 1.1956,0.9059 c 0.2537,-0.3348 0.4126,-0.7316 0.5478,-1.1838 0.1346,-0.4507 0.2643,-1.025 0.4267,-1.7417 z m -2.3915,4.5408 c 1.1175,0.1049 2.1989,-0.3851 2.8799,-1.2839 l -1.1956,-0.9059 c -0.3764,0.4968 -0.9582,0.7513 -1.544,0.6963 z M 17.9525,3.54085 c 0.0594,0.03581 0.1048,0.06314 0.1433,0.08718 0.0386,0.02405 0.0613,0.03925 0.0753,0.04929 0.0284,0.02036 -0.0118,-0.0029 -0.0526,-0.06684 L 19.3826,2.80305 C 19.2787,2.64041 19.149,2.53284 19.0457,2.45865 18.9496,2.3897 18.8321,2.31959 18.7265,2.25597 Z m 1.3304,0.79327 c 0.0597,-0.10787 0.1264,-0.2273 0.1752,-0.33503 0.0525,-0.11594 0.1111,-0.27391 0.1198,-0.4667 L 18.0794,3.46461 C 18.0829,3.38883 18.106,3.34861 18.0916,3.38042 18.0845,3.39611 18.0724,3.42065 18.051,3.46074 18.0296,3.50083 18.004,3.54716 17.9704,3.60788 Z M 18.1185,3.61048 C 18.0907,3.56705 18.0771,3.5161 18.0794,3.46461 l 1.4985,0.06778 C 19.5895,3.27496 19.5213,3.02022 19.3826,2.80305 Z M 17.1022,3.08917 c 0.0359,-0.06484 0.0634,-0.11456 0.0877,-0.15687 0.0244,-0.04235 0.04,-0.06771 0.0506,-0.08355 0.0219,-0.03283 -0.001,0.01111 -0.0687,0.05574 L 16.3459,1.65236 C 16.1756,1.7647 16.0664,1.90581 15.9925,2.01655 15.9234,2.12021 15.8537,2.24732 15.7898,2.36293 Z M 17.9458,1.78568 C 17.8326,1.7175 17.7088,1.64219 17.5971,1.58694 17.4778,1.52791 17.3127,1.46026 17.109,1.44804 L 17.0192,2.94535 C 16.9383,2.9405 16.8965,2.91387 16.9319,2.93137 c 0.0171,0.00844 0.0433,0.02259 0.0855,0.04712 0.0422,0.02451 0.0909,0.05382 0.1544,0.09206 z m -0.774,1.11881 c -0.0451,0.02976 -0.0986,0.0441 -0.1526,0.04086 L 17.109,1.44804 C 16.8392,1.43186 16.5715,1.50355 16.3459,1.65236 Z"

     id="path1" />
  <path
     d="m 13.025391,7.7578125 c -0.643924,-0.068215 -1.30644,0.044828 -1.908203,0.3457031 L 9.6640625,8.8300781 A 0.75,0.75 0 0 0 9.3300781,9.8359375 0.75,0.75 0 0 0 10.335938,10.169922 l 1.451171,-0.7246095 c 0.683471,-0.3417283 1.499024,-0.2566328 2.095704,0.2207031 0.914233,0.7314124 2.139312,0.9503374 3.249999,0.5800784 L 18.736328,9.7109375 A 0.75,0.75 0 0 0 19.210937,8.7636719 0.75,0.75 0 0 0 18.263672,8.2890625 L 16.658203,8.8222656 C 16.028492,9.0321861 15.338677,8.9108 14.820313,8.4960938 14.294953,8.0758124 13.669314,7.8260279 13.025391,7.7578125 Z"
     id="path2" />
</svg>
