<?xml version="1.0" encoding="UTF-8" standalone="no"?>
<svg
   width="24"
   height="24"
   viewBox="0 0 24 24"
   version="1.1"
   id="svg2"
   xmlns="http://www.w3.org/2000/svg"
   xmlns:svg="http://www.w3.org/2000/svg">
  <defs
     id="defs2" />
  <path

     d="M 5.6835937,1.25 C 3.2435348,1.25 1.25,3.2435348 1.25,5.6835937 a 0.75,0.75 0 0 0 0.75,0.75 0.75,0.75 0 0 0 0.75,-0.75 C 2.75,4.0541968 4.0541968,2.75 5.6835937,2.75 c 1.629397,0 2.9355469,1.3041968 2.9355469,2.9335937 v 8.9472653 1.052735 c 0,3.893428 3.1710214,7.066406 7.0644534,7.066406 3.893431,0 7.066406,-3.172975 7.066406,-7.066406 V 14.5 A 0.75,0.75 0 0 0 22,13.75 0.75,0.75 0 0 0 21.25,14.5 v 1.183594 c 0,3.082761 -2.483645,5.566406 -5.566406,5.566406 -3.082762,0 -5.564453,-2.483642 -5.564453,-5.566406 V 14.630859 5.6835937 C 10.119141,3.2435348 8.1236527,1.25 5.6835937,1.25 Z"
     id="path1" />
  <path

     d="m 16,11.25 c -1.618577,0 -3.305126,0.287103 -4.652344,0.777344 -0.673609,0.24512 -1.263013,0.537369 -1.7324216,0.916015 C 9.1458258,13.322006 8.75,13.842837 8.75,14.5 c 0,0.657163 0.3958258,1.177994 0.8652344,1.556641 0.4694086,0.378646 1.0588126,0.670895 1.7324216,0.916015 C 12.694874,17.462897 14.381423,17.75 16,17.75 c 1.618577,0 3.191037,-0.287572 4.425781,-0.787109 C 21.043153,16.713122 21.578868,16.412302 22,16.023437 22.421132,15.634573 22.75,15.111896 22.75,14.5 22.75,13.888104 22.421132,13.365427 22,12.976563 21.578868,12.587698 21.043153,12.286878 20.425781,12.037109 19.191037,11.537572 17.618577,11.25 16,11.25 Z m 0,1.5 c 1.43532,0 2.861502,0.272447 3.863281,0.677734 0.50089,0.202644 0.892445,0.441065 1.119141,0.650391 C 21.209117,14.287451 21.25,14.421547 21.25,14.5 c 0,0.07845 -0.04088,0.212549 -0.267578,0.421875 -0.226696,0.209326 -0.618251,0.447747 -1.119141,0.650391 C 18.861502,15.977553 17.43532,16.25 16,16.25 14.56468,16.25 13.000633,15.977083 11.861328,15.5625 11.291676,15.355208 10.828809,15.108216 10.556641,14.888672 10.284472,14.669128 10.25,14.533186 10.25,14.5 c 0,-0.03319 0.03447,-0.169128 0.306641,-0.388672 0.272168,-0.219544 0.735035,-0.466536 1.304687,-0.673828 C 13.000633,13.022917 14.56468,12.75 16,12.75 Z"
     id="path2" />
</svg>
