<?xml version="1.0" encoding="UTF-8" standalone="no"?>
<svg
   width="24"
   height="24"
   viewBox="0 0 24 24"

   version="1.1"
   id="svg1"
   xmlns="http://www.w3.org/2000/svg"
   xmlns:svg="http://www.w3.org/2000/svg">
  <defs
     id="defs1" />
  <path

     d="M 16.244141,1.2695312 C 14.455308,1.4235302 12.635769,2.2510325 11.232422,3.6542969 9.8291234,5.0575679 8.8046531,7.0385807 8.3945313,9.0253906 8.2864263,9.5490984 8.3624769,10.056814 8.3496094,10.578125 l -0.00781,-0.0078 -6.0390625,6.039062 c -1.39836306,1.398401 -1.39840173,3.689577 0,5.087891 1.3983987,1.398298 3.6894919,1.398298 5.0878906,0 l 6.0390635,-6.039063 -0.0078,-0.0078 c 0.520981,-0.01294 1.029366,0.06311 1.552734,-0.04492 1.986837,-0.410122 3.967792,-1.436543 5.371093,-2.839844 C 23.1524,9.9590929 23.651735,5.4953464 21.078125,2.921875 19.791369,1.6351308 18.032973,1.1155323 16.244141,1.2695312 Z m 0.07422,1.5097657 c 0.581368,-0.053169 1.136512,0.039618 1.673828,0.1660156 C 17.713706,3.075134 17.436266,3.1345495 17.15625,3.3007813 15.833327,4.0861346 14.501606,5.2172116 13.576172,6.1425781 12.650783,7.0679568 11.327407,8.5915255 10.347656,10.097656 10.106351,10.468605 9.9870425,10.822087 9.7988281,11.185547 9.7507588,10.600738 9.7251846,9.9971258 9.8632813,9.328125 10.211204,7.6426361 11.13887,5.8689202 12.292969,4.7148437 c 1.15415,-1.154083 2.617076,-1.8067486 4.02539,-1.9355468 z m 3.113282,1.1523437 c 0.386145,-0.079144 0.507851,-0.027302 0.585937,0.050781 0.07809,0.078087 0.129888,0.1997471 0.05078,0.5859375 -0.07911,0.3861904 -0.31598,0.9331506 -0.658203,1.5097656 -0.684445,1.1532301 -1.768191,2.4401279 -2.613281,3.2851563 -0.845051,0.845023 -2.34025,2.138585 -3.712891,3.03125 -0.68632,0.446333 -1.349905,0.790916 -1.830078,0.9375 -0.240086,0.07329 -0.430526,0.09354 -0.533203,0.08594 -0.102677,-0.0076 -0.0998,-0.01972 -0.109375,-0.0293 -0.0096,-0.0096 -0.0217,-0.0087 -0.0293,-0.111328 -0.0076,-0.10263 0.01263,-0.291205 0.08594,-0.53125 0.146607,-0.480091 0.491096,-1.14384 0.9375,-1.830078 0.892807,-1.3724771 2.186141,-2.8677918 3.03125,-3.7128913 0.845164,-0.8451017 2.132006,-1.9287136 3.285156,-2.6132813 0.576575,-0.3422838 1.12362,-0.5790594 1.509766,-0.6582031 z m 1.623046,2.0761719 c 0.432607,1.8388372 -0.138936,4.0667665 -1.769531,5.6972655 -1.154096,1.154097 -2.927747,2.083714 -4.613281,2.431641 -0.667608,0.137807 -1.269683,0.110063 -1.853516,0.0625 0.362227,-0.187737 0.714322,-0.306474 1.083985,-0.546875 1.506306,-0.979593 3.029631,-2.3031 3.955078,-3.228516 C 18.78293,9.4983882 19.91399,8.1667924 20.699219,6.84375 20.865424,6.5637083 20.924895,6.2863178 21.054687,6.0078125 Z M 8.5605469,12.472656 c 0.2092644,0.719023 0.4470496,1.433397 0.9902344,1.976563 0.5435137,0.543489 1.2570037,0.781049 1.9765627,0.990234 l -5.1972659,5.197266 c -0.825159,0.825099 -2.1416378,0.825099 -2.9667968,0 -0.8251361,-0.825084 -0.8251748,-2.1416 0,-2.966797 z"
     id="path1" />
</svg>
