<?xml version="1.0" encoding="UTF-8" standalone="no"?>
<svg
   width="24"
   height="24"
   viewBox="0 0 24 24"

   version="1.1"
   id="svg4"
   xmlns="http://www.w3.org/2000/svg"
   xmlns:svg="http://www.w3.org/2000/svg">
  <defs
     id="defs4" />
  <path
     d="M 12.167969,1.2714844 C 11.861324,1.2346224 11.552407,1.2702294 11.263672,1.4179687 10.686176,1.713402 10.424295,2.3434648 10.333984,2.953125 10.243674,3.5627852 10.25,4.2814053 10.25,5.2246094 V 13.453125 L 16.697266,8.8730469 C 17.276164,8.4619427 17.724817,8.1521167 18.083984,7.8085937 18.443152,7.4650708 18.75,6.9979054 18.75,6.4589844 18.75,5.9200639 18.443151,5.4528987 18.083984,5.109375 17.724818,4.7658513 17.276166,4.4540738 16.697266,4.0429687 L 14.958984,2.8085938 C 14.186986,2.2603696 13.603002,1.8392787 13.052734,1.5585937 12.7776,1.4182513 12.474613,1.3083464 12.167969,1.2714844 Z m -0.222656,1.4824219 h 0.002 c 0.02713,-0.013881 0.05095,-0.049577 0.423828,0.140625 0.372881,0.190202 0.948703,0.5904471 1.720703,1.1386718 l 1.736328,1.234375 v -0.00195 c 0.578899,0.4111042 0.999017,0.7175711 1.21875,0.9277344 0.219733,0.2101632 0.203125,0.2342261 0.203125,0.265625 0,0.031408 0.01661,0.055464 -0.203125,0.265625 -0.219732,0.2101614 -0.63985,0.5146762 -1.21875,0.9257812 L 11.75,10.546875 V 5.2246094 c 0,-0.9432041 0.0075,-1.6399025 0.06836,-2.0507813 0.06087,-0.4108787 0.09975,-0.4060054 0.126954,-0.4199218 z"
     id="path1" />
  <path
     d="m 10.25,10.546875 v 8.228516 c 0,0.943199 -0.0063,1.661821 0.08398,2.271484 0.09031,0.609663 0.352219,1.239689 0.929688,1.535156 0.577484,0.295524 1.238798,0.140066 1.789062,-0.140625 0.550265,-0.28069 1.13426,-0.701807 1.90625,-1.25 l 1.738282,-1.234375 C 17.276165,19.545932 17.724819,19.23414 18.083984,18.890625 18.44315,18.54711 18.75,18.079935 18.75,17.541016 c 0,-0.538925 -0.306842,-1.006071 -0.666016,-1.34961 -0.359173,-0.343538 -0.807819,-0.653353 -1.386718,-1.064453 z m 1.5,2.90625 4.078125,2.896484 c 0.578899,0.4111 0.999024,0.71562 1.21875,0.925782 0.219726,0.210161 0.203125,0.23415 0.203125,0.265625 0,0.03138 0.01661,0.05547 -0.203125,0.265625 -0.219734,0.210159 -0.639851,0.516634 -1.21875,0.927734 l -1.736328,1.232422 c -0.772008,0.548206 -1.347819,0.948463 -1.720703,1.138672 -0.372885,0.190209 -0.396713,0.154501 -0.423828,0.140625 -0.02723,-0.01393 -0.06804,-0.009 -0.128907,-0.419922 C 11.757494,20.415286 11.75,19.71859 11.75,18.775391 Z"
     id="path2" />
  <path
     d="m 5.5699,14.8856 c -0.33933,0.2375 -0.42186,0.7052 -0.18432,1.0445 0.23753,0.3393 0.70518,0.4219 1.04452,0.1843 z m 0.8602,1.2288 5,-3.5 -0.8602,-1.2288 -5,3.5 z"
     id="path3" />
  <path
     d="M 5.5699,9.11442 C 5.23057,8.87689 5.14804,8.40924 5.38558,8.0699 5.62311,7.73057 6.09076,7.64804 6.4301,7.88558 Z m 0.8602,-1.22884 5,3.50002 -0.8602,1.2288 -5,-3.49998 z"

     id="path4" />
</svg>
