<?xml version="1.0" encoding="UTF-8" standalone="no"?>
<svg
   width="24"
   height="24"
   viewBox="0 0 24 24"
   version="1.1"
   id="svg4"
   xmlns="http://www.w3.org/2000/svg"
   xmlns:svg="http://www.w3.org/2000/svg">
  <defs
     id="defs4" />
  <path
     d="M 10.964844,5.3691406 C 10.53134,5.5865398 10.347019,6.0657727 10.294922,6.421875 10.242825,6.7779773 10.25,7.1456324 10.25,7.6230469 v 5.8789061 l 4.400391,-3.310547 C 14.91703,9.9908191 15.131582,9.836944 15.332031,9.6347656 15.532481,9.4325872 15.75,9.097319 15.75,8.7167969 c 0,-0.3805183 -0.217516,-0.7157871 -0.417969,-0.9179688 -0.200453,-0.2021817 -0.415,-0.3560576 -0.68164,-0.5566406 l -1.453125,-1.09375 C 12.816422,5.8619925 12.524871,5.6370148 12.208984,5.4648437 11.893098,5.2926727 11.398343,5.1517295 10.964844,5.3691406 Z m 0.804687,1.6074219 c 0.15244,0.1040699 0.276035,0.1835451 0.525391,0.3710937 L 13.75,8.4414063 C 13.928304,8.5755373 14.001407,8.640552 14.095703,8.71875 14.001403,8.79691 13.927814,8.8603749 13.75,8.9941406 l -2,1.5039064 V 7.6230469 c 0,-0.3135443 0.01101,-0.46143 0.01953,-0.6464844 z"
     id="path1" />
  <path
     d="m 10.25,10.498047 v 5.878906 c 0,0.4774 -0.0072,0.845075 0.04492,1.201172 0.0521,0.356097 0.236429,0.835341 0.669922,1.052734 0.433473,0.217384 0.928246,0.07646 1.24414,-0.0957 0.315895,-0.172159 0.60743,-0.397142 0.988282,-0.683594 l 1.453125,-1.09375 c 0.26664,-0.200593 0.481197,-0.354468 0.68164,-0.55664 C 15.532474,15.999 15.75,15.663737 15.75,15.283203 c 0,-0.380534 -0.217526,-0.715797 -0.417969,-0.917969 -0.200443,-0.202171 -0.415,-0.356047 -0.68164,-0.55664 z m 1.5,3.003906 2,1.503906 c 0.177813,0.133769 0.251401,0.197227 0.345703,0.275391 -0.0943,0.0782 -0.167399,0.143206 -0.345703,0.277344 l -1.455078,1.09375 c -0.24935,0.187544 -0.372957,0.267033 -0.525391,0.371093 C 11.76101,16.838392 11.75,16.690488 11.75,16.376953 Z"
     id="path2" />
  <path
     d="M 8.48014,8.92383 C 8.16193,8.65866 7.68901,8.70165 7.42383,9.01986 7.15866,9.33807 7.20165,9.81099 7.51986,10.0762 Z M 11.4801,11.4238 8.48014,8.92383 7.51986,10.0762 l 3.00004,2.5 z"

     id="path3" />
  <path
     d="M 8.48014,15.0762 C 8.16193,15.3413 7.68901,15.2983 7.42383,14.9801 7.15866,14.6619 7.20165,14.189 7.51986,13.9238 Z m 2.99996,-2.5 -2.99996,2.5 -0.96028,-1.1524 3.00004,-2.5 z"

     id="path4" />
  <path
     d="M 12,1.25 C 6.0718283,1.25 1.25,6.0718283 1.25,12 1.25,17.928172 6.0718283,22.75 12,22.75 17.928172,22.75 22.75,17.928172 22.75,12 22.75,6.0718283 17.928172,1.25 12,1.25 Z m 0,1.5 c 5.117512,0 9.25,4.1324877 9.25,9.25 0,5.117512 -4.132488,9.25 -9.25,9.25 C 6.8824877,21.25 2.75,17.117512 2.75,12 2.75,6.8824877 6.8824877,2.75 12,2.75 Z"
     id="circle4" />
</svg>
