<?xml version="1.0" encoding="UTF-8" standalone="no"?>
<svg
   width="24"
   height="24"
   viewBox="0 0 24 24"

   version="1.1"
   id="svg5"
   xmlns="http://www.w3.org/2000/svg"
   xmlns:svg="http://www.w3.org/2000/svg">
  <defs
     id="defs5" />
  <path
     d="m 14.4603,18.7455 0.5303,0.5303 v 0 z m 0.7671,-0.7672 -0.5303,-0.5303 v 0 z m 3.2547,-4.6028 h 0.75 z M 6.02184,8.77274 6.55217,9.30307 v 0 z M 10.6246,5.51807 v 0.75 z M 5.2547,9.53987 4.72437,9.00954 v 0 z M 2.00003,14.1427 h -0.75 z m 3.785,-0.5304 c -0.29289,-0.2928 -0.76776,-0.2928 -1.06066,0 -0.29289,0.2929 -0.29289,0.7678 0,1.0607 z m 3.54215,5.6635 c 0.29289,0.2929 0.76772,0.2929 1.06062,0 0.2929,-0.2929 0.2929,-0.7678 0,-1.0606 z M 5.78503,10.0702 6.55217,9.30307 5.49151,8.24241 4.72437,9.00954 Z m 8.91207,7.3778 -0.7671,0.7672 1.0606,1.0606 0.7672,-0.7671 z M 13.93,18.2152 c -1.0999,1.0998 -1.8726,1.8703 -2.5341,2.375 -0.6443,0.4916 -1.0942,0.66 -1.53839,0.66 v 1.5 c 0.90399,0 1.67049,-0.3741 2.44819,-0.9674 0.7604,-0.5802 1.615,-1.4371 2.6849,-2.507 z m -9.20563,1.0606 c 1.0699,1.0699 1.92455,1.9268 2.68492,2.507 0.77767,0.5933 1.54423,0.9674 2.44822,0.9674 v -1.5 c -0.44415,0 -0.8941,-0.1684 -1.53835,-0.66 C 7.65761,20.0855 6.88492,19.315 5.78503,18.2152 Z M 14.6971,9.30307 c 1.0999,1.09993 1.8703,1.87253 2.3751,2.53413 0.4915,0.6442 0.6599,1.0942 0.6599,1.5383 h 1.5 c 0,-0.9039 -0.374,-1.6705 -0.9674,-2.4482 -0.5801,-0.7603 -1.437,-1.61499 -2.5069,-2.68489 z m 1.0607,9.20563 c 1.0699,-1.0699 1.9268,-1.9246 2.5069,-2.6849 0.5934,-0.7777 0.9674,-1.5443 0.9674,-2.4483 h -1.5 c 0,0.4442 -0.1684,0.8941 -0.6599,1.5384 -0.5048,0.6615 -1.2752,1.4342 -2.3751,2.5341 z M 6.55217,9.30307 C 7.65205,8.20319 8.42474,7.43275 9.08629,6.928 9.73054,6.43646 10.1805,6.26807 10.6246,6.26807 v -1.5 c -0.90394,0 -1.6705,0.37405 -2.44818,0.9674 C 7.41605,6.31561 6.56141,7.17251 5.49151,8.24241 Z M 15.7578,8.24241 C 14.6879,7.17251 13.8332,6.31561 13.0729,5.73547 12.2952,5.14212 11.5286,4.76807 10.6246,4.76807 v 1.5 c 0.4442,0 0.8941,0.16839 1.5384,0.65993 0.6615,0.50475 1.4342,1.27519 2.5341,2.37507 z M 4.72437,9.00954 c -1.0699,1.06986 -1.9268,1.92456 -2.50694,2.68496 -0.59334,0.7776 -0.9674,1.5442 -0.9674,2.4482 h 1.5 c 0,-0.4442 0.16839,-0.8941 0.65993,-1.5384 0.50475,-0.6615 1.27519,-1.4342 2.37507,-2.5341 z M 5.78503,18.2152 C 4.68515,17.1153 3.91471,16.3426 3.40996,15.681 2.91842,15.0368 2.75003,14.5868 2.75003,14.1427 h -1.5 c 0,0.904 0.37406,1.6705 0.9674,2.4482 0.58014,0.7604 1.43704,1.615 2.50694,2.6849 z M 4.72437,14.673 9.32718,19.2758 10.3878,18.2152 5.78503,13.6123 Z"

     id="path1" />
  <path
     d="m 19.8301,10.441 0.5346,0.526 v 0 z m -2.0688,1.0329 c -0.2905,0.2953 -0.2867,0.7701 0.0085,1.0607 0.2952,0.2905 0.7701,0.2867 1.0606,-0.0085 z m 2.0688,-7.26909 -0.5345,0.52607 v 0 z m 2.1698,3.11808 h 0.75 v 0 z m -8.3068,-3.11808 0.5345,0.52607 v 0 z M 16.7616,2 v 0.75 0 z m -5.2962,3.39919 c -0.2906,0.29523 -0.2868,0.77009 0.0085,1.06063 0.2952,0.29054 0.7701,0.28674 1.0606,-0.00849 z m 7.8302,4.5157 -1.5343,1.55901 1.0691,1.0522 1.5343,-1.5591 z m 0,-5.18401 c 0.738,0.74996 1.2377,1.25997 1.5621,1.69203 0.3111,0.41427 0.3922,0.6696 0.3922,0.89998 h 1.5 c 0,-0.68289 -0.2804,-1.25166 -0.6927,-1.80064 -0.3988,-0.5312 -0.984,-1.1236 -1.6925,-1.84351 z m 1.0691,6.23612 c 0.7085,-0.7199 1.2937,-1.31228 1.6925,-1.84348 0.4122,-0.54898 0.6927,-1.11775 0.6927,-1.80063 h -1.5 c 0,0.23038 -0.0811,0.48571 -0.3922,0.89998 -0.3244,0.43205 -0.8241,0.94206 -1.5621,1.69202 z M 14.2276,4.73088 C 14.9658,3.98075 15.4675,3.47324 15.8923,3.14393 16.3002,2.82765 16.5459,2.75 16.7616,2.75 v -1.5 c -0.683,0 -1.2484,0.28982 -1.7884,0.70848 C 14.45,2.36411 13.8668,2.959 13.1585,3.67874 Z M 20.3647,3.67874 C 19.6564,2.959 19.0732,2.36411 18.55,1.95847 18.01,1.53982 17.4446,1.25 16.7616,1.25 v 1.5 c 0.2157,0 0.4614,0.07765 0.8693,0.39393 0.4248,0.32931 0.9265,0.83682 1.6647,1.58695 z m -7.2062,0 -1.6931,1.72045 1.0691,1.05214 1.6931,-1.72045 z"

     id="path2" />
  <path
     d="m 14.4603,18.7455 0.5303,0.5303 v 0 z m 0.7671,-0.7672 -0.5303,-0.5303 v 0 z m 3.2547,-4.6028 h 0.75 z M 6.02181,8.77274 6.55214,9.30307 v 0 z M 5.25467,9.53987 4.72434,9.00954 v 0 z M 5.785,13.6123 c -0.29289,-0.2928 -0.76776,-0.2928 -1.06066,0 -0.29289,0.2929 -0.29289,0.7678 0,1.0607 z m 3.54215,5.6635 c 0.29289,0.2929 0.76775,0.2929 1.06065,0 0.2929,-0.2929 0.2929,-0.7678 0,-1.0606 z M 5.785,10.0702 6.55214,9.30307 5.49148,8.24241 4.72434,9.00954 Z m 8.9121,7.3778 -0.7672,0.7672 1.0607,1.0606 0.7671,-0.7671 z m -0.7672,0.7672 c -1.0998,1.0998 -1.8725,1.8703 -2.5341,2.375 -0.6442,0.4916 -1.0942,0.66 -1.53832,0.66 v 1.5 c 0.90402,0 1.67052,-0.3741 2.44822,-0.9674 0.7604,-0.5802 1.615,-1.4371 2.6849,-2.507 z m -9.20556,1.0606 c 1.0699,1.0699 1.92455,1.9268 2.68492,2.507 0.77767,0.5933 1.54423,0.9674 2.44822,0.9674 v -1.5 c -0.44415,0 -0.8941,-0.1684 -1.53835,-0.66 C 7.65758,20.0855 6.88489,19.315 5.785,18.2152 Z M 14.6971,9.30307 c 1.0999,1.09993 1.8703,1.87253 2.3751,2.53413 0.4915,0.6442 0.6599,1.0942 0.6599,1.5383 h 1.5 c 0,-0.9039 -0.3741,-1.6705 -0.9674,-2.4482 -0.5802,-0.7603 -1.4371,-1.61499 -2.507,-2.68489 z m 1.0606,9.20563 c 1.0699,-1.0699 1.9268,-1.9246 2.507,-2.6849 0.5933,-0.7777 0.9674,-1.5443 0.9674,-2.4483 h -1.5 c 0,0.4442 -0.1684,0.8941 -0.6599,1.5384 -0.5048,0.6615 -1.2752,1.4342 -2.3751,2.5341 z M 6.55214,9.30307 C 7.65202,8.20319 8.42471,7.43275 9.08626,6.928 9.73051,6.43646 10.1805,6.26807 10.6246,6.26807 v -1.5 c -0.90397,0 -1.67053,0.37405 -2.44821,0.9674 C 7.41602,6.31561 6.56138,7.17251 5.49148,8.24241 Z M 15.7577,8.24241 C 14.6878,7.17251 13.8332,6.31561 13.0728,5.73547 12.2952,5.14212 11.5286,4.76807 10.6246,4.76807 v 1.5 c 0.4442,0 0.8941,0.16839 1.5384,0.65993 0.6615,0.50475 1.4342,1.27519 2.5341,2.37507 z M 4.72434,9.00954 C 3.65444,10.0794 2.79754,10.9341 2.2174,11.6945 1.62406,12.4721 1.25,13.2387 1.25,14.1427 h 1.5 c 0,-0.4442 0.16839,-0.8941 0.65993,-1.5384 C 3.91468,11.9428 4.68512,11.1701 5.785,10.0702 Z M 5.785,18.2152 C 4.68512,17.1153 3.91468,16.3426 3.40993,15.681 2.91839,15.0368 2.75,14.5868 2.75,14.1427 h -1.5 c 0,0.904 0.37406,1.6705 0.9674,2.4482 0.58014,0.7604 1.43704,1.615 2.50694,2.6849 z M 4.72434,14.673 9.32715,19.2758 10.3878,18.2152 5.785,13.6123 Z"

     id="path3" />
  <path
     
     d="m 18.1875,6.8730469 -0.707031,0.7070312 a 0.75,0.75 0 0 0 0,1.0605469 0.75,0.75 0 0 0 1.060547,0 l 0.707031,-0.7070313 a 0.75,0.75 0 0 0 0,-1.0605468 0.75,0.75 0 0 0 -1.060547,0 z"
     id="path4" />
  <path
     
     d="m 16.066406,4.7519531 -0.707031,0.7070313 a 0.75,0.75 0 0 0 0,1.0605468 0.75,0.75 0 0 0 1.060547,0 L 17.126953,5.8125 a 0.75,0.75 0 0 0 0,-1.0605469 0.75,0.75 0 0 0 -1.060547,0 z"
     id="path5" />
</svg>
