<?xml version="1.0" encoding="UTF-8" standalone="no"?>
<svg
   width="24"
   height="24"
   viewBox="0 0 24 24"
   version="1.1"
   id="svg5"
   xmlns="http://www.w3.org/2000/svg"
   xmlns:svg="http://www.w3.org/2000/svg">
  <defs
     id="defs5" />
  <path
     
     d="M 10.800781,7.25 C 9.6694124,7.25 8.8056555,7.2461255 8.0683594,7.34375 7.3310632,7.4413745 6.6705792,7.6709086 6.1757812,8.1582031 5.6809927,8.6455024 5.445338,9.3033517 5.3457031,10.033203 5.2460683,10.763055 5.25,11.612314 5.25,12.726563 v 2.546875 c 0,1.114248 -0.00393,1.96351 0.095703,2.693359 0.099635,0.729849 0.3352909,1.387702 0.8300781,1.875 0.4947971,0.4873 1.1552809,0.716827 1.8925782,0.814453 0.7372973,0.09763 1.601053,0.09375 2.7324217,0.09375 h 2.398438 c 1.131349,0 1.995118,0.0039 2.732422,-0.09375 0.737303,-0.09763 1.397757,-0.327164 1.892578,-0.814453 0.494763,-0.487302 0.730449,-1.145155 0.830078,-1.875 0.09963,-0.729845 0.0957,-1.579111 0.0957,-2.693359 v -2.546875 c 0,-1.114249 0.0039,-1.963513 -0.0957,-2.69336 C 18.554668,9.3033563 18.318983,8.6455066 17.824219,8.1582031 17.329397,7.6709201 16.668943,7.441374 15.931641,7.34375 15.194338,7.246126 14.330568,7.25 13.199219,7.25 Z m 0,1.5 h 2.398438 c 1.131349,0 1.965335,0.00463 2.535156,0.080078 0.569821,0.075448 0.828932,0.1914781 1.037109,0.3964844 0.208135,0.2049959 0.322342,0.4503556 0.398438,1.0078126 0.0761,0.557457 0.08008,1.377939 0.08008,2.492188 v 2.546875 c 0,1.114248 -0.004,1.934733 -0.08008,2.492187 -0.0761,0.557454 -0.190302,0.802815 -0.398438,1.007812 -0.208178,0.205011 -0.467289,0.321036 -1.037109,0.396485 -0.56982,0.07545 -1.403807,0.08008 -2.535156,0.08008 h -2.398438 c -1.1313686,0 -1.9653471,-0.0046 -2.535156,-0.08008 C 7.6958161,19.094473 7.4366679,18.978436 7.2285156,18.773437 7.0203636,18.568436 6.906178,18.323074 6.8300781,17.765625 6.7539782,17.208176 6.75,16.387686 6.75,15.273438 v -2.546875 c 0,-1.114249 0.00398,-1.934736 0.080078,-2.492188 C 6.9061781,9.6769227 7.0203649,9.4315626 7.2285156,9.2265625 7.4366669,9.0215677 7.695815,8.905526 8.265625,8.8300781 8.835435,8.7546303 9.6694124,8.75 10.800781,8.75 Z"
     id="path1" />
  <path
     
     d="M 12,19.25 A 0.75,0.75 0 0 0 11.25,20 v 2 A 0.75,0.75 0 0 0 12,22.75 0.75,0.75 0 0 0 12.75,22 V 20 A 0.75,0.75 0 0 0 12,19.25 Z"
     id="path2" />
  <path
     
     d="m 12.449219,11.400391 a 0.75,0.75 0 0 0 -1.048828,0.15039 l -1.5000004,2 A 0.750075,0.750075 0 0 0 10.5,14.75 H 12 l -0.599609,0.800781 a 0.75,0.75 0 0 0 0.15039,1.048828 0.75,0.75 0 0 0 1.048828,-0.15039 l 1.5,-2 A 0.750075,0.750075 0 0 0 13.5,13.25 H 12 l 0.599609,-0.800781 a 0.75,0.75 0 0 0 -0.15039,-1.048828 z"
     id="path3" />
  <path
     
     d="M 11,4.25 A 0.75,0.75 0 0 0 10.25,5 0.75,0.75 0 0 0 11,5.75 h 2 A 0.75,0.75 0 0 0 13.75,5 0.75,0.75 0 0 0 13,4.25 Z"
     id="path4" />
  <path
     
     d="M 12,1.25 C 10.595501,1.25 9.7444295,1.1972124 8.9726563,1.7128906 8.6723972,1.9135216 8.4135216,2.1723972 8.2128906,2.4726563 7.6972022,3.2444447 7.75,4.0955414 7.75,5.5 V 8 h 1.5 V 5.5 C 9.25,4.0955414 9.3025066,3.541798 9.4609375,3.3046875 9.5521462,3.168187 9.668187,3.0521462 9.8046875,2.9609375 10.041813,2.8024964 10.595501,2.75 12,2.75 c 1.404499,0 1.958269,0.052536 2.195313,0.2109375 0.136505,0.091204 0.252575,0.2072825 0.34375,0.34375 C 14.697511,3.5417957 14.75,4.0955414 14.75,5.5 V 8 h 1.5 V 5.5 C 16.25,4.0955414 16.30286,3.2444471 15.787109,2.4726563 15.586484,2.1723642 15.327637,1.9135263 15.027344,1.7128906 14.255588,1.1971731 13.404499,1.25 12,1.25 Z"
     id="path5" />
</svg>
