<?xml version="1.0" encoding="UTF-8" standalone="no"?>
<svg
   width="24"
   height="24"
   viewBox="0 0 24 24"
   version="1.1"
   id="svg7"
   xmlns="http://www.w3.org/2000/svg"
   xmlns:svg="http://www.w3.org/2000/svg">
  <defs
     id="defs7" />
  <path
     d="M 2,18.25 A 0.75,0.75 0 0 0 1.25,19 0.75,0.75 0 0 0 2,19.75 h 8 A 0.75,0.75 0 0 0 10.75,19 0.75,0.75 0 0 0 10,18.25 Z m 12,0 A 0.75,0.75 0 0 0 13.25,19 0.75,0.75 0 0 0 14,19.75 h 8 A 0.75,0.75 0 0 0 22.75,19 0.75,0.75 0 0 0 22,18.25 Z"
     id="path1" />
  <path
     d="M 12,13.25 A 0.75,0.75 0 0 0 11.25,14 v 3 A 0.75,0.75 0 0 0 12,17.75 0.75,0.75 0 0 0 12.75,17 V 14 A 0.75,0.75 0 0 0 12,13.25 Z"
     id="path2" />
  <path
     d="m 12,16.25 c -1.509898,0 -2.75,1.240102 -2.75,2.75 0,1.509898 1.240102,2.75 2.75,2.75 1.509898,0 2.75,-1.240102 2.75,-2.75 0,-1.509898 -1.240102,-2.75 -2.75,-2.75 z m 0,1.5 c 0.699239,0 1.25,0.550761 1.25,1.25 0,0.699239 -0.550761,1.25 -1.25,1.25 -0.699239,0 -1.25,-0.550761 -1.25,-1.25 0,-0.699239 0.550761,-1.25 1.25,-1.25 z"
     id="circle2" />
  <path
     d="m 5,7.25 c -2.0621803,0 -3.75,1.6878197 -3.75,3.75 0,2.062218 1.6878347,3.75 3.75,3.75 h 14 c 2.062203,0 3.75,-1.687797 3.75,-3.75 0,-2.0621653 -1.687782,-3.75 -3.75,-3.75 z m 0,1.5 h 14 c 1.251579,0 2.25,0.9984686 2.25,2.25 0,1.251594 -0.998406,2.25 -2.25,2.25 H 5 C 3.7484686,13.25 2.75,12.251579 2.75,11 2.75,9.7484837 3.7484837,8.75 5,8.75 Z"
     id="path3" />
  <path
     d="M 5,1.25 C 2.9378197,1.25 1.25,2.9378197 1.25,5 1.25,7.0621803 2.9378197,8.75 5,8.75 H 19 C 21.062218,8.75 22.75,7.0621653 22.75,5 22.75,2.9378347 21.062218,1.25 19,1.25 Z m 0,1.5 h 14 c 1.251579,0 2.25,0.9984686 2.25,2.25 0,1.2515314 -0.998421,2.25 -2.25,2.25 H 5 C 3.7484837,7.25 2.75,6.2515163 2.75,5 2.75,3.7484837 3.7484837,2.75 5,2.75 Z"
     id="path4" />
  <path
     d="M 13,4.25 A 0.75,0.75 0 0 0 12.25,5 0.75,0.75 0 0 0 13,5.75 h 6 A 0.75,0.75 0 0 0 19.75,5 0.75,0.75 0 0 0 19,4.25 Z"
     id="path5" />
  <path
     d="M 13,10.25 A 0.75,0.75 0 0 0 12.25,11 0.75,0.75 0 0 0 13,11.75 h 6 A 0.75,0.75 0 0 0 19.75,11 0.75,0.75 0 0 0 19,10.25 Z"
     id="path6" />
  <circle
     cx="6"
     cy="5"
     r="1"
     id="circle6" />
  <circle
     cx="6"
     cy="11"
     r="1"
     id="circle7" />
</svg>
