<?xml version="1.0" encoding="UTF-8" standalone="no"?>
<svg
   width="24"
   height="24"
   viewBox="0 0 24 24"

   version="1.1"
   id="svg2"
   xmlns="http://www.w3.org/2000/svg"
   xmlns:svg="http://www.w3.org/2000/svg">
  <defs
     id="defs2" />
  <path
     d="M 10.1497,8.80219 9.70794,9.40825 Z M 12,3.10615 11.4925,3.65833 c 0.2869,0.26377 0.7281,0.26377 1.015,0 z m 1.8503,5.69605 0.4418,0.60606 z M 12,9.67598 v 0.75002 0 z M 10.5915,8.19612 C 9.90132,7.69298 9.16512,7.08112 8.60883,6.43627 8.03452,5.77053 7.75,5.18233 7.75,4.71476 h -1.5 c 0,1.01753 0.57845,1.95409 1.22305,2.70131 0.66264,0.76812 1.5013,1.45742 2.23489,1.99218 z M 7.75,4.71476 c 0,-1.05864 0.52002,-1.66245 1.1455,-1.87294 0.65204,-0.21944 1.6244,-0.07747 2.597,0.81651 l 1.015,-1.10435 C 11.2302,1.37988 9.70254,0.987559 8.41707,1.42016 7.10502,1.8617 6.25,3.09623 6.25,4.71476 Z m 6.5421,4.6935 C 15.0257,8.8735 15.8643,8.18421 16.527,7.41608 17.1716,6.66886 17.75,5.73229 17.75,4.71475 h -1.5 c 0,0.46759 -0.2845,1.0558 -0.8588,1.72154 -0.5563,0.64484 -1.2925,1.2567 -1.9827,1.75984 z M 17.75,4.71475 C 17.75,3.09622 16.895,1.8617 15.5829,1.42016 14.2975,0.987559 12.7698,1.37988 11.4925,2.55398 l 1.015,1.10435 C 13.4801,2.76435 14.4525,2.62238 15.1045,2.84181 15.73,3.0523 16.25,3.65612 16.25,4.71475 Z M 9.70794,9.40825 C 10.463,9.95869 11.0618,10.426 12,10.426 V 8.92598 c -0.365,0 -0.5653,-0.11524 -1.4085,-0.72986 z M 13.4085,8.19613 C 12.5653,8.81074 12.365,8.92598 12,8.92598 V 10.426 c 0.9382,0 1.537,-0.4673 2.2921,-1.01774 z"

     id="path1" />
  <path

     d="m 12.523438,13.291016 c -0.931919,-0.09598 -1.896944,-0.02643 -2.8398442,0.15625 -1.8858007,0.365353 -3.7087832,1.184798 -5.1171876,2.183593 a 0.75,0.75 0 0 0 -0.1777343,1.044922 0.75,0.75 0 0 0 1.0449218,0.179688 c 1.221013,-0.865903 2.8881155,-1.616451 4.5351563,-1.935547 1.647041,-0.319096 3.245988,-0.203684 4.425781,0.5 0.110447,0.06591 0.199721,0.139824 0.273438,0.222656 0.296899,0.3335 0.281887,0.773133 -0.05859,1.070313 -0.07406,0.06458 -0.113693,0.07255 -0.08398,0.06641 -0.01175,0.0013 -0.02329,0.0027 -0.03516,0.0039 -0.477403,0.04898 -1.040673,0.06123 -1.667968,0.002 a 0.75,0.75 0 0 0 -0.816407,0.677735 0.75,0.75 0 0 0 0.675782,0.816406 c 0.699446,0.06609 1.322903,0.04821 1.875,-0.0039 a 0.75,0.75 0 0 0 0.0098,0.0039 c 0.01236,0 0.02296,-0.0035 0.03516,-0.0039 0.01199,-0.0012 0.02911,0.0012 0.04101,0 0.04034,-0.0041 0.08165,-0.0091 0.121094,-0.01367 0.130354,-0.01512 0.254724,-0.03158 0.375,-0.05078 1.104208,-0.176159 1.977572,-0.750684 2.710937,-1.304687 l 1.806641,-1.365234 c 0.352344,-0.26618 0.964012,-0.266066 1.316406,0 0.316449,0.23895 0.360548,0.47699 0.201172,0.732421 -0.407467,0.653258 -0.999564,1.492801 -1.462891,1.921875 -0.464026,0.429772 -1.275633,0.894468 -1.939453,1.214844 -0.678316,0.327421 -1.460688,0.530535 -2.285156,0.664063 -1.66511,0.269452 -3.408465,0.226643 -5.058594,-0.113282 -1.0340528,-0.213107 -2.1050631,-0.32232 -3.1680064,-0.32232 H 5 a 0.75,0.75 0 0 0 -0.75,0.75 0.75,0.75 0 0 0 0.75,0.75 h 2.2597656 c 0.9587747,0 1.9317116,0.100622 2.8652344,0.292969 1.830468,0.377074 3.750476,0.422594 5.601563,0.123046 0.90933,-0.147271 1.832583,-0.37559 2.697265,-0.792968 0.728979,-0.351824 1.624669,-0.833216 2.306641,-1.464844 0.681073,-0.630724 1.278465,-1.525775 1.716797,-2.228516 0.566023,-0.907167 0.260637,-2.09716 -0.570313,-2.724609 -0.922005,-0.696134 -2.203145,-0.694466 -3.125,0.002 l -1.806641,1.363281 v 0.002 c -0.219412,0.16575 -0.452179,0.197123 -0.671875,0.333984 -0.02645,-0.498408 -0.13339,-1.006139 -0.484374,-1.400391 -0.185083,-0.207968 -0.398647,-0.376632 -0.625,-0.511718 v -0.002 c -0.808803,-0.482454 -1.708707,-0.743915 -2.640625,-0.83989 z"
     id="path2" />
  <path

     d="m 3.5,13.25 c -1.2335258,0 -2.25,1.016474 -2.25,2.25 v 5 c 0,1.233526 1.0164742,2.25 2.25,2.25 1.2335258,0 2.25,-1.016474 2.25,-2.25 v -5 c 0,-1.233526 -1.0164742,-2.25 -2.25,-2.25 z m 0,1.5 c 0.4284725,0 0.75,0.321528 0.75,0.75 v 5 c 0,0.428472 -0.3215275,0.75 -0.75,0.75 -0.4284725,0 -0.75,-0.321528 -0.75,-0.75 v -5 c 0,-0.428472 0.3215275,-0.75 0.75,-0.75 z"
     id="rect2" />
</svg>
