<?xml version="1.0" encoding="UTF-8" standalone="no"?>
<svg
   width="24"
   height="24"
   viewBox="0 0 24 24"
   version="1.1"
   id="svg4"
   xmlns="http://www.w3.org/2000/svg"
   xmlns:svg="http://www.w3.org/2000/svg">
  <defs
     id="defs4" />
  <path
     
     d="m 12,1.25 c -0.489356,0 -0.883284,0.3293354 -1.117187,0.6347656 -0.233904,0.3054303 -0.422472,0.6588134 -0.675782,1.1132813 l -0.132812,0.234375 C 9.9302189,3.4907016 9.8938279,3.5166758 9.9492188,3.4746094 c 0.055274,-0.041941 0.035418,-0.01834 -0.2441407,0.044922 L 9.4511719,3.578125 C 8.9592359,3.6894302 8.5750182,3.7678009 8.21875,3.9082031 7.8624818,4.0486054 7.4474125,4.3442016 7.3066406,4.796875 7.1658711,5.249553 7.3319781,5.7171133 7.5371094,6.0429687 7.7422406,6.3688242 8.0064272,6.6664241 8.3417969,7.0585937 L 8.515625,7.2617187 C 8.7062176,7.4845901 8.7139344,7.5242974 8.6972656,7.4707031 8.6805929,7.4170837 8.6967889,7.4604312 8.6679688,7.7578125 L 8.640625,8.0292969 C 8.58992,8.5525375 8.545309,8.9559076 8.5625,9.3417969 c 0.017191,0.3858892 0.1406044,0.8680471 0.5253906,1.1601561 0.3848015,0.292121 0.9054825,0.273396 1.2734374,0.167969 0.367955,-0.105428 0.722993,-0.276206 1.183594,-0.488281 l 0.238281,-0.109375 C 12.044996,9.951739 12.078531,9.9589844 12,9.9589844 c -0.07853,0 -0.045,-0.00725 0.216797,0.1132816 l 0.238281,0.109375 c 0.460599,0.212074 0.815647,0.382852 1.183594,0.488281 0.367947,0.105428 0.888646,0.124153 1.273437,-0.167969 0.384865,-0.292082 0.508216,-0.7742567 0.525391,-1.1601561 0.01717,-0.3858995 -0.02743,-0.7892841 -0.07813,-1.3125 L 15.33203,7.7578125 C 15.30323,7.4604312 15.31943,7.4170486 15.30273,7.4707031 V 7.46875 c -0.01673,0.053893 -0.009,0.01584 0.181641,-0.2070313 l 0.173828,-0.203125 C 15.993547,6.6664311 16.257762,6.368831 16.462891,6.0429687 16.668019,5.7171065 16.834207,5.2495707 16.693359,4.796875 16.552631,4.3441882 16.137519,4.0486104 15.78125,3.9082031 15.424981,3.7677959 15.040781,3.6894308 14.548828,3.578125 L 14.294922,3.519531 C 14.015403,3.456267 13.995507,3.432668 14.050781,3.474609 c 0.05539,0.042066 0.019,0.016092 -0.125,-0.2421875 L 13.792969,2.9980469 C 13.539659,2.543579 13.351091,2.1901959 13.117188,1.8847656 12.883284,1.5793354 12.489356,1.25 12,1.25 Z m 0,1.6699219 c 0.116301,0.169637 0.264592,0.4142769 0.484375,0.8085937 l 0.130859,0.234375 c 0.144,0.2582798 0.249507,0.4925919 0.529297,0.7050781 0.279875,0.2123607 0.540832,0.2511975 0.820313,0.3144532 l 0.253906,0.058594 c 0.456724,0.103335 0.761317,0.1808117 0.939453,0.2441406 -0.109131,0.1646317 -0.322516,0.4268203 -0.640625,0.7988282 l -0.173828,0.203125 c -0.190607,0.2228882 -0.372279,0.4086485 -0.474609,0.7382812 -0.101622,0.3283221 -0.05803,0.5802352 -0.0293,0.8769531 l 0.02539,0.2714844 c 0.04621,0.4768974 0.07001,0.7959465 0.06836,1.0039063 -0.184067,-0.063357 -0.445022,-0.1730899 -0.84961,-0.359375 L 12.8457,8.7089847 c -0.261807,-0.1205332 -0.489772,-0.25 -0.845703,-0.25 -0.355931,0 -0.583896,0.1294668 -0.845703,0.25 l -0.238281,0.109375 c -0.404586,0.186284 -0.665536,0.2960171 -0.84961,0.359375 -0.0017,-0.2079637 0.02215,-0.5270314 0.06836,-1.0039063 l 0.02539,-0.2695312 c 0.02882,-0.2973781 0.07312,-0.5515003 -0.0293,-0.8808594 C 10.028431,6.6941035 9.846857,6.5099976 9.65625,6.2871094 L 9.4824219,6.0839844 C 9.1642995,5.7119832 8.9509343,5.4497929 8.8417969,5.2851562 9.0199471,5.2218235 9.3245378,5.1443511 9.78125,5.0410156 l 0.253906,-0.058594 c 0.279541,-0.063258 0.540438,-0.1020925 0.820313,-0.3144532 0.27979,-0.2124862 0.385297,-0.4467983 0.529297,-0.7050781 l 0.130859,-0.234375 C 11.735408,3.3341988 11.883699,3.0895589 12,2.9199219 Z"
     id="path1" />
  <path
     
     d="m 20,6.25 c -0.394634,0 -0.708595,0.27304 -0.855469,0.4648437 -0.146874,0.1918038 -0.242462,0.3743755 -0.36914,0.6015625 l -0.05078,0.087891 -0.08203,0.019531 c -0.245944,0.055649 -0.443948,0.092589 -0.669922,0.1816406 -0.225973,0.089052 -0.566245,0.3229885 -0.677734,0.6816407 -0.111445,0.3584898 0.02766,0.7292827 0.15625,0.9335937 0.128592,0.2043111 0.267825,0.356619 0.435547,0.5527344 l 0.07227,0.085937 -0.01172,0.1191406 c -0.02535,0.2615768 -0.05171,0.4684658 -0.04102,0.7089848 0.01069,0.240519 0.103903,0.627357 0.412109,0.861328 0.308163,0.233938 0.733132,0.213426 0.966797,0.146485 0.233059,-0.06677 0.413114,-0.157967 0.642578,-0.263672 L 20,11.398438 l 0.07227,0.0332 c 0.229464,0.105705 0.409519,0.196904 0.642578,0.263672 0.233665,0.06694 0.658634,0.08745 0.966797,-0.146485 0.308206,-0.233971 0.401414,-0.620809 0.412109,-0.861328 0.01069,-0.240519 -0.01567,-0.447408 -0.04102,-0.7089844 l -0.01172,-0.1191406 0.07227,-0.085937 c 0.16772,-0.1961091 0.30695,-0.3484204 0.435544,-0.5527319 0.128594,-0.2043114 0.267695,-0.5751039 0.15625,-0.9335937 C 22.593589,7.9284572 22.253317,7.6945206 22.027344,7.6054687 21.80137,7.5164169 21.603366,7.4794769 21.357422,7.4238281 l -0.08203,-0.019531 -0.05078,-0.087891 C 21.097929,7.0892171 21.002346,6.9066469 20.855469,6.7148437 20.708592,6.5230406 20.39462,6.25 20,6.25 Z m 0,1.9394531 c 0.06833,0.1261723 0.134037,0.2826287 0.345703,0.4433594 0.223902,0.1700616 0.412951,0.1929832 0.552734,0.2246094 l 0.02148,0.00391 -0.0332,0.039063 c -0.09538,0.11154 -0.229562,0.2403574 -0.310547,0.5 -0.08078,0.260221 -0.0437,0.4392024 -0.0293,0.5878907 l 0.002,0.017578 C 20.421443,9.9452221 20.270926,9.8554688 20,9.8554688 c -0.270926,0 -0.421443,0.089753 -0.548828,0.1503902 l 0.002,-0.017578 c 0.0144,-0.1486883 0.05148,-0.3276697 -0.0293,-0.5878907 -0.08099,-0.2596426 -0.21517,-0.38846 -0.310547,-0.5 l -0.0332,-0.039063 0.02148,-0.00391 c 0.139741,-0.031622 0.32879,-0.054543 0.552692,-0.2246048 C 19.865963,8.4720818 19.93167,8.3156254 20,8.1894531 Z"
     id="path2" />
  <path
     
     d="M 4,6.25 C 3.6053339,6.25 3.2914227,6.5230285 3.1445313,6.7148437 2.9976398,6.906659 2.902056,7.0891807 2.7753906,7.3164062 l -0.048828,0.087891 -0.083984,0.019531 C 2.3966084,7.4794781 2.1986328,7.5164157 1.9726562,7.6054687 1.7466797,7.6945218 1.4064288,7.9285226 1.2949219,8.2871094 1.1834067,8.6457035 1.3225688,9.0164187 1.4511719,9.2207031 1.579775,9.4249876 1.7190372,9.5773515 1.8867187,9.7734375 l 0.072266,0.085937 -0.011719,0.1191406 c -0.02535,0.2615959 -0.05173,0.4684489 -0.041016,0.7089849 0.010714,0.240536 0.1039228,0.627387 0.4121094,0.861328 0.3081599,0.233921 0.7331295,0.213427 0.9667969,0.146485 0.2330608,-0.06677 0.4131172,-0.157967 0.6425781,-0.263672 L 4,11.398438 l 0.072266,0.0332 c 0.229463,0.105704 0.4095194,0.196903 0.6425781,0.263672 0.2336654,0.06694 0.6586433,0.08743 0.9667969,-0.146485 C 5.9898272,11.314887 6.0830358,10.928036 6.09375,10.6875 6.1044642,10.446964 6.0780839,10.240111 6.0527344,9.9785156 L 6.0410156,9.859375 6.1132812,9.7734375 C 6.2809639,9.5773553 6.4202234,9.424988 6.5488281,9.2207031 6.6774328,9.0164182 6.8165933,8.6457035 6.7050781,8.2871094 6.5935712,7.9285226 6.2533203,7.6945218 6.0273437,7.6054687 5.8013672,7.5164157 5.6033916,7.4794781 5.3574219,7.4238281 L 5.2734375,7.4042969 5.2246094,7.3164062 C 5.0979429,7.0891786 5.002363,6.9066584 4.8554687,6.7148437 4.7085745,6.5230291 4.3946529,6.25 4,6.25 Z m 0,1.9394531 c 0.06832,0.1261722 0.1339384,0.2826114 0.3457031,0.4433594 0.2238425,0.169956 0.4129649,0.192984 0.5527344,0.2246094 l 0.021484,0.00391 -0.033203,0.039063 c -0.095311,0.1114513 -0.2295646,0.2395192 -0.3105468,0.5 -0.080983,0.2603991 -0.043708,0.4391858 -0.029297,0.5878907 l 0.00195,0.017578 C 4.4214097,9.9452007 4.2709865,9.8554688 4,9.8554688 c -0.2709865,0 -0.4214097,0.089732 -0.5488281,0.1503902 l 0.00195,-0.017578 C 3.4675364,9.8395764 3.504811,9.6607897 3.4238281,9.4003906 3.3428459,9.1399098 3.2085924,9.0118419 3.1132813,8.9003906 l -0.033203,-0.039063 0.021484,-0.00391 C 3.241332,8.8257965 3.4304544,8.8027685 3.6542969,8.6328125 3.8660293,8.472089 3.9316663,8.3156605 4,8.1894531 Z"
     id="path3" />
  <path
   
     d="m 12.523438,13.291016 c -0.931919,-0.09598 -1.896944,-0.02643 -2.8398442,0.15625 -1.8858007,0.365353 -3.7087832,1.184798 -5.1171876,2.183593 a 0.75,0.75 0 0 0 -0.1777343,1.044922 0.75,0.75 0 0 0 1.0449218,0.179688 c 1.221013,-0.865903 2.8881155,-1.616451 4.5351563,-1.935547 1.647041,-0.319096 3.245988,-0.203684 4.425781,0.5 0.110447,0.06591 0.199721,0.139824 0.273438,0.222656 0.296899,0.3335 0.281887,0.773133 -0.05859,1.070313 -0.07406,0.06458 -0.113693,0.07255 -0.08398,0.06641 -0.01175,0.0013 -0.02329,0.0027 -0.03516,0.0039 -0.477403,0.04898 -1.040673,0.06123 -1.667968,0.002 a 0.75,0.75 0 0 0 -0.816407,0.677735 0.75,0.75 0 0 0 0.675782,0.816406 c 0.699446,0.06609 1.322903,0.04821 1.875,-0.0039 a 0.75,0.75 0 0 0 0.0098,0.0039 c 0.01236,0 0.02296,-0.0035 0.03516,-0.0039 0.01199,-0.0012 0.02911,0.0012 0.04101,0 0.04034,-0.0041 0.08165,-0.0091 0.121094,-0.01367 0.130354,-0.01512 0.254724,-0.03158 0.375,-0.05078 1.104208,-0.176159 1.977572,-0.750684 2.710937,-1.304687 l 1.806641,-1.365234 c 0.352344,-0.26618 0.964012,-0.266066 1.316406,0 0.316449,0.23895 0.360548,0.47699 0.201172,0.732421 -0.407467,0.653258 -0.999564,1.492801 -1.462891,1.921875 -0.464026,0.429772 -1.275633,0.894468 -1.939453,1.214844 -0.678316,0.327421 -1.460688,0.530535 -2.285156,0.664063 -1.66511,0.269452 -3.408465,0.226643 -5.058594,-0.113282 -1.0340528,-0.213107 -2.1050631,-0.32232 -3.1680064,-0.32232 H 5 a 0.75,0.75 0 0 0 -0.75,0.75 0.75,0.75 0 0 0 0.75,0.75 h 2.2597656 c 0.9587747,0 1.9317116,0.100622 2.8652344,0.292969 1.830468,0.377074 3.750476,0.422594 5.601563,0.123046 0.90933,-0.147271 1.832583,-0.37559 2.697265,-0.792968 0.728979,-0.351824 1.624669,-0.833216 2.306641,-1.464844 0.681073,-0.630724 1.278465,-1.525775 1.716797,-2.228516 0.566023,-0.907167 0.260637,-2.09716 -0.570313,-2.724609 -0.922005,-0.696134 -2.203145,-0.694466 -3.125,0.002 l -1.806641,1.363281 v 0.002 c -0.219412,0.16575 -0.452179,0.197123 -0.671875,0.333984 -0.02645,-0.498408 -0.13339,-1.006139 -0.484374,-1.400391 -0.185083,-0.207968 -0.398647,-0.376632 -0.625,-0.511718 v -0.002 c -0.808803,-0.482454 -1.708707,-0.743915 -2.640625,-0.83989 z"
     id="path4" />
  <path
     
     d="m 3.5,13.25 c -1.2335258,0 -2.25,1.016474 -2.25,2.25 v 5 c 0,1.233526 1.0164742,2.25 2.25,2.25 1.2335258,0 2.25,-1.016474 2.25,-2.25 v -5 c 0,-1.233526 -1.0164742,-2.25 -2.25,-2.25 z m 0,1.5 c 0.4284725,0 0.75,0.321528 0.75,0.75 v 5 c 0,0.428472 -0.3215275,0.75 -0.75,0.75 -0.4284725,0 -0.75,-0.321528 -0.75,-0.75 v -5 c 0,-0.428472 0.3215275,-0.75 0.75,-0.75 z"
     id="rect4" />
</svg>
