<?xml version="1.0" encoding="UTF-8" standalone="no"?>
<svg
   width="24"
   height="24"
   viewBox="0 0 24 24"
  
   version="1.1"
   id="svg7"
   xmlns="http://www.w3.org/2000/svg"
   xmlns:svg="http://www.w3.org/2000/svg">
  <defs
     id="defs7" />
  <path
   
     d="M 13.96875,1.46875 C 11.299105,4.1384048 10.185384,7.8136441 10.886719,11.138672 7.6778907,10.317613 4.063441,11.374009 1.46875,13.96875 a 0.75,0.75 0 0 0 0,1.0625 0.75,0.75 0 0 0 1.0625,0 c 2.403228,-2.403275 5.7882942,-3.300291 8.515625,-2.361328 l 0.210938,0.07227 0.07226,0.210937 c 0.938961,2.72731 0.04195,6.112342 -2.361328,8.515625 a 0.75,0.75 0 0 0 0,1.0625 0.75,0.75 0 0 0 1.0625,0 c 2.594733,-2.594733 3.651138,-6.209159 2.830078,-9.417969 3.325034,0.701335 7.000276,-0.412385 9.669922,-3.082031 a 0.75,0.75 0 0 0 0,-1.0625 0.75,0.75 0 0 0 -1.0625,0 c -2.540859,2.540859 -6.094183,3.497018 -9.009766,2.572266 -0.924746,-2.9155761 0.03141,-6.468901 2.572271,-9.00977 a 0.75,0.75 0 0 0 0,-1.0625 0.75,0.75 0 0 0 -1.0625,0 z"
     id="path1" />
  <path
   
     d="m 6.234375,11.3125 a 0.75,0.75 0 0 0 0,1.060547 l 5.078125,5.078125 a 0.75,0.75 0 0 0 1.060547,0 0.75,0.75 0 0 0 0,-1.060547 L 7.2949219,11.3125 a 0.75,0.75 0 0 0 -1.0605469,0 z"
     id="path2" />
  <path
   
     d="m 11.3125,6.234375 a 0.75,0.75 0 0 0 0,1.0605469 l 5.080078,5.0781251 a 0.75,0.75 0 0 0 1.060547,0 0.75,0.75 0 0 0 0,-1.060547 L 12.375,6.234375 a 0.75,0.75 0 0 0 -1.0625,0 z"
     id="path3" />
  <path
   
     d="m 4,12.25 a 0.75,0.75 0 0 0 -0.53125,0.220703 0.75,0.75 0 0 0 0,1.060547 l 3.5,3.5 a 0.75,0.75 0 0 0 1.0605469,0 0.75,0.75 0 0 0 0,-1.060547 l -3.5,-3.5 A 0.75,0.75 0 0 0 4,12.25 Z"
     id="path4" />
  <path
   
     d="m 15.748047,6.859375 a 0.75,0.75 0 0 0 0,1.0625 l 3.5,3.5 a 0.75,0.75 0 0 0 1.060547,0 0.75,0.75 0 0 0 0,-1.0625 l -3.5,-3.5 a 0.75,0.75 0 0 0 -1.060547,0 z"
     id="path5" />
  <path
   
     d="m 9.3046875,17.441406 a 0.75,0.75 0 0 0 -0.53125,0.21875 0.75,0.75 0 0 0 0,1.0625 l 1.5878905,1.585938 a 0.75,0.75 0 0 0 1.060547,0 0.75,0.75 0 0 0 0,-1.060547 L 9.8359375,17.660156 a 0.75,0.75 0 0 0 -0.53125,-0.21875 z"
     id="path6" />
  <path
   
     d="m 12.46875,3.46875 a 0.75,0.75 0 0 0 0,1.0605469 l 1.587891,1.5878906 a 0.75,0.75 0 0 0 1.060547,0 0.75,0.75 0 0 0 0,-1.0605469 L 13.529297,3.46875 a 0.75,0.75 0 0 0 -1.060547,0 z"
     id="path7" />
</svg>
