<?xml version="1.0" encoding="UTF-8" standalone="no"?>
<svg
   width="24"
   height="24"
   viewBox="0 0 24 24"

   version="1.1"
   id="svg5"
   xmlns="http://www.w3.org/2000/svg"
   xmlns:svg="http://www.w3.org/2000/svg">
  <defs
     id="defs5" />
  <path

     d="M 18,9.25 A 0.75,0.75 0 0 0 17.25,10 0.75,0.75 0 0 0 18,10.75 h 4 A 0.75,0.75 0 0 0 22.75,10 0.75,0.75 0 0 0 22,9.25 Z"
     id="path1" />
  <path

     d="M 19,12.25 A 0.75,0.75 0 0 0 18.25,13 0.75,0.75 0 0 0 19,13.75 h 3 A 0.75,0.75 0 0 0 22.75,13 0.75,0.75 0 0 0 22,12.25 Z"
     id="path2" />
  <path

     d="M 16,20.25 A 0.75,0.75 0 0 0 15.25,21 v 1 A 0.75,0.75 0 0 0 16,22.75 0.75,0.75 0 0 0 16.75,22 V 21 A 0.75,0.75 0 0 0 16,20.25 Z"
     id="path3" />
  <path

     d="M 8,1.25 C 6.5857864,1.25 5.5093262,1.2459295 4.6074219,1.3671875 3.7055175,1.4884455 2.9292542,1.7660583 2.3476563,2.3476563 1.7660583,2.9292542 1.4884455,3.7055175 1.3671875,4.6074219 1.2459295,5.5093262 1.25,6.5857864 1.25,8 V 22 A 0.75,0.75 0 0 0 2,22.75 0.75,0.75 0 0 0 2.75,22 V 8 C 2.75,6.5857864 2.7551,5.5405702 2.8535156,4.8085937 2.9519274,4.0766173 3.1111219,3.7052843 3.4082031,3.4082031 3.7052843,3.1111219 4.0766173,2.9519274 4.8085937,2.8535156 5.5405702,2.7551039 6.5857864,2.75 8,2.75 h 3.890625 0.03906 c 0.515292,0.00371 1.013844,0.1846678 1.412109,0.5117188 l 0.03125,0.025391 c 0.03881,0.032335 0.06127,0.052341 0.08594,0.072266 0.530011,0.4280593 1.154962,0.6284564 1.791016,0.7265625 V 6 A 0.75,0.75 0 0 0 16,6.75 0.75,0.75 0 0 0 16.75,6 V 3.8730469 C 17.343325,3.710793 17.958827,3.585635 18.425781,3.1328125 h 0.002 c 0.02176,-0.021125 0.04203,-0.042001 0.08008,-0.080078 L 19.03125,2.53125 a 0.75,0.75 0 0 0 0,-1.0625 0.75,0.75 0 0 0 -1.0625,0 l -0.521484,0.5234375 c -0.03715,0.037183 -0.05321,0.053538 -0.06445,0.064453 C 17.205259,2.2288208 16.960926,2.2338997 16.75,2.3359375 V 2 A 0.75,0.75 0 0 0 16,1.25 0.75,0.75 0 0 0 15.25,2 v 0.4628906 c -0.289743,-0.079565 -0.599045,-0.070696 -0.847656,-0.2714843 -0.01053,-0.00851 -0.02915,-0.024308 -0.07031,-0.058594 l -0.03711,-0.029297 -0.002,-0.00195 C 13.629434,1.5566743 12.799912,1.2561866 11.941406,1.25 h -0.002 -0.04687 z"
     id="path4" />
  <path

     d="m 14,5.25 c -0.942799,0 -1.665333,-0.00457 -2.294922,0.080078 -0.629589,0.084647 -1.215235,0.2894618 -1.65039,0.7246094 C 9.6195249,6.4898352 9.4147267,7.0754853 9.3300781,7.7050781 9.2454296,8.3346709 9.25,9.0571909 9.25,10 v 6.507812 c 0,0.867806 0.3660425,1.695114 1.007813,2.279297 3.249909,2.958156 8.234465,2.958156 11.484374,0 C 22.383957,18.202926 22.75,17.375618 22.75,16.507812 V 10 C 22.75,9.0571909 22.7546,8.3346709 22.66992,7.7050781 22.585273,7.0754853 22.380475,6.4898352 21.945312,6.0546875 21.510157,5.6195399 20.924511,5.4147251 20.294922,5.3300781 19.665333,5.2454312 18.942799,5.25 18,5.25 Z m 0,1.5 h 4 c 0.942799,0 1.63409,0.00461 2.09375,0.066406 0.45966,0.0618 0.640371,0.1481864 0.791016,0.2988282 C 21.035402,7.265866 21.121792,7.4465889 21.183594,7.90625 21.245395,8.3659111 21.25,9.0571909 21.25,10 v 6.507812 c 0,0.446193 -0.187549,0.869507 -0.517578,1.169922 -2.687285,2.446039 -6.777559,2.446039 -9.464844,0 C 10.937549,17.377319 10.75,16.954005 10.75,16.507812 V 10 c 0,-0.9428091 0.0046,-1.6340889 0.06641,-2.09375 0.0618,-0.4596611 0.148192,-0.640384 0.298828,-0.7910156 C 11.265879,6.9645926 11.44659,6.8782066 11.90625,6.8164062 12.36591,6.7546059 13.057201,6.75 14,6.75 Z"
     id="path5" />
</svg>
