<?xml version="1.0" encoding="UTF-8" standalone="no"?>
<svg
   width="24"
   height="24"
   viewBox="0 0 24 24"
   version="1.1"
   id="svg13"
   xmlns="http://www.w3.org/2000/svg"
   xmlns:svg="http://www.w3.org/2000/svg">
  <defs
     id="defs13" />
  <path
   
     d="M 11.949219,4.25 C 7.6781084,4.2155403 4.2155403,7.6781084 4.25,11.949219 4.2844706,16.220374 7.7796424,19.715529 12.050781,19.75 16.321936,19.784471 19.784471,16.321936 19.75,12.050781 19.715529,7.7796424 16.220374,4.2844706 11.949219,4.25 Z m -0.01172,1.5 c 3.460637,0.027929 6.284571,2.8518866 6.3125,6.3125 0.02793,3.460637 -2.726863,6.215429 -6.1875,6.1875 C 8.6018866,18.222071 5.7779293,15.398137 5.75,11.9375 5.7220797,8.4769181 8.4769181,5.7220797 11.9375,5.75 Z"
     id="path1" />
  <path
   
     d="m 18,5.25 a 0.75,0.75 0 0 0 -0.53125,0.21875 l -1.048828,1.0507812 a 0.75,0.75 0 0 0 0,1.0605469 0.75,0.75 0 0 0 1.060547,0 L 18.53125,6.53125 a 0.75,0.75 0 0 0 0,-1.0625 A 0.75,0.75 0 0 0 18,5.25 Z"
     id="path2" />
  <path
   
     d="m 5,4.25 a 0.75,0.75 0 0 0 -0.53125,0.21875 0.75,0.75 0 0 0 0,1.0625 l 2,2 a 0.75,0.75 0 0 0 1.0625,0 0.75,0.75 0 0 0 0,-1.0625 l -2,-2 A 0.75,0.75 0 0 0 5,4.25 Z"
     id="path3" />
  <path
   
     d="m 16.5,16.75 a 0.75,0.75 0 0 0 -0.53125,0.21875 0.75,0.75 0 0 0 0,1.0625 l 0.550781,0.548828 a 0.75,0.75 0 0 0 1.060547,0 0.75,0.75 0 0 0 0,-1.060547 L 17.03125,16.96875 A 0.75,0.75 0 0 0 16.5,16.75 Z"
     id="path4" />
  <path
   
     d="m 7.0507812,17.25 a 0.75,0.75 0 0 0 -0.53125,0.21875 L 5.46875,18.519531 a 0.75,0.75 0 0 0 0,1.060547 0.75,0.75 0 0 0 1.0625,0 l 1.0488281,-1.050781 a 0.75,0.75 0 0 0 0,-1.060547 A 0.75,0.75 0 0 0 7.0507812,17.25 Z"
     id="path5" />
  <path
   
     d="m 14.5,10.25 c -1.509904,0 -2.75,1.240096 -2.75,2.75 0,1.509904 1.240096,2.75 2.75,2.75 1.509904,0 2.75,-1.240096 2.75,-2.75 0,-1.509904 -1.240096,-2.75 -2.75,-2.75 z m 0,1.5 c 0.699294,0 1.25,0.550706 1.25,1.25 0,0.699294 -0.550706,1.25 -1.25,1.25 -0.699294,0 -1.25,-0.550706 -1.25,-1.25 0,-0.699294 0.550706,-1.25 1.25,-1.25 z"
     id="path6" />
  <path
   
     d="M 10,7.25 C 9.0423831,7.25 8.25,8.0423831 8.25,9 c 0,0.9576169 0.7923831,1.75 1.75,1.75 0.957622,0 1.75,-0.7924012 1.75,-1.75 0,-0.9575988 -0.792378,-1.75 -1.75,-1.75 z m 0,1.5 c 0.146977,0 0.25,0.1030399 0.25,0.25 0,0.1469601 -0.103023,0.25 -0.25,0.25 C 9.853058,9.25 9.75,9.146942 9.75,9 9.75,8.853058 9.853058,8.75 10,8.75 Z"
     id="path7" />
  <circle
     cx="9"
     cy="13"
     r="1"
   
     id="circle7" />
  <path
   
     d="m 19.5,2.25 c -1.233756,0 -2.25,1.016244 -2.25,2.25 0,1.233756 1.016244,2.25 2.25,2.25 1.233756,0 2.25,-1.016244 2.25,-2.25 0,-1.233756 -1.016244,-2.25 -2.25,-2.25 z m 0,1.5 c 0.423097,0 0.75,0.3269034 0.75,0.75 0,0.4230966 -0.326903,0.75 -0.75,0.75 -0.423097,0 -0.75,-0.3269034 -0.75,-0.75 0,-0.4230966 0.326903,-0.75 0.75,-0.75 z"
     id="circle8" />
  <path
   
     d="M 3.5,1.25 C 4.733756,1.25 5.75,2.266244 5.75,3.5 5.75,4.733756 4.733756,5.75 3.5,5.75 2.266244,5.75 1.25,4.733756 1.25,3.5 1.25,2.266244 2.266244,1.25 3.5,1.25 Z m 0,1.5 C 3.0769034,2.75 2.75,3.0769034 2.75,3.5 2.75,3.9230966 3.0769034,4.25 3.5,4.25 3.9230966,4.25 4.25,3.9230966 4.25,3.5 4.25,3.0769034 3.9230966,2.75 3.5,2.75 Z"
     id="circle9" />
  <path
   
     d="m 3.5,9.75 c -1.2337738,0 -2.25,1.01626 -2.25,2.25 0,1.23374 1.0162262,2.25 2.25,2.25 1.2337738,0 2.25,-1.01626 2.25,-2.25 0,-1.23374 -1.0162262,-2.25 -2.25,-2.25 z m 0,1.5 c 0.4230845,0 0.75,0.326942 0.75,0.75 0,0.423058 -0.3269155,0.75 -0.75,0.75 -0.4230845,0 -0.75,-0.326942 -0.75,-0.75 0,-0.423058 0.3269155,-0.75 0.75,-0.75 z"
     id="path9" />
  <path
   
     d="m 18.5498,21.7998 c -1.233756,0 -2.25,-1.016244 -2.25,-2.25 0,-1.233756 1.016244,-2.25 2.25,-2.25 1.233756,0 2.25,1.016244 2.25,2.25 0,1.233756 -1.016244,2.25 -2.25,2.25 z m 0,-1.5 c 0.423097,0 0.75,-0.326903 0.75,-0.75 0,-0.423097 -0.326903,-0.75 -0.75,-0.75 -0.423097,0 -0.75,0.326903 -0.75,0.75 0,0.423097 0.326903,0.75 0.75,0.75 z"
     id="circle10" />
  <path
   
     d="m 4.5,22.75 c 1.233756,0 2.25,-1.016244 2.25,-2.25 0,-1.233756 -1.016244,-2.25 -2.25,-2.25 -1.233756,0 -2.25,1.016244 -2.25,2.25 0,1.233756 1.016244,2.25 2.25,2.25 z m 0,-1.5 c -0.4230966,0 -0.75,-0.326903 -0.75,-0.75 0,-0.423097 0.3269034,-0.75 0.75,-0.75 0.4230966,0 0.75,0.326903 0.75,0.75 0,0.423097 -0.3269034,0.75 -0.75,0.75 z"
     id="circle11" />
  <path
   
     d="m 12,1.25 c -1.23374,0 -2.25,1.0162262 -2.25,2.25 0,1.2337738 1.01626,2.25 2.25,2.25 1.23374,0 2.25,-1.0162262 2.25,-2.25 0,-1.2337738 -1.01626,-2.25 -2.25,-2.25 z m 0,1.5 c 0.423058,0 0.75,0.3269155 0.75,0.75 0,0.4230845 -0.326942,0.75 -0.75,0.75 -0.423058,0 -0.75,-0.3269155 -0.75,-0.75 0,-0.4230845 0.326942,-0.75 0.75,-0.75 z"
     id="path11" />
  <path
   
     d="m 19.5,9.75 c -0.261153,0 -0.515055,0.045984 -0.75,0.1289063 l -0.5,0.1757817 v 3.890625 l 0.5,0.175781 c 0.235186,0.08316 0.488847,0.128906 0.75,0.128906 1.233758,0 2.25,-1.016242 2.25,-2.25 0,-1.233758 -1.016242,-2.25 -2.25,-2.25 z m 0.25,1.75 c 0.222222,0.128213 0.5,0.217973 0.5,0.5 0,0.282027 -0.277778,0.371787 -0.5,0.5 z"
     id="path12" />
  <path
   
     d="m 9.5253906,18.25 0.3535157,1 c 0.3096597,0.876192 1.1483657,1.5 2.1210937,1.5 0.972728,0 1.811434,-0.623808 2.121094,-1.5 l 0.353515,-1 z"
     id="path13" />
</svg>
