<?xml version="1.0" encoding="UTF-8" standalone="no"?>
<svg
   width="24"
   height="24"
   viewBox="0 0 24 24"
   version="1.1"
   id="svg4"
   xmlns="http://www.w3.org/2000/svg"
   xmlns:svg="http://www.w3.org/2000/svg">
  <defs
     id="defs4" />
  <path
   
     d="m 12,5.25 c -0.441979,0 -0.79592,0.3002 -0.986328,0.5488281 -0.190408,0.2486282 -0.333438,0.518541 -0.523438,0.859375 l -0.09766,0.1757813 c -0.107855,0.1936285 -0.128446,0.1844811 -0.04492,0.1210937 0.08334,-0.063255 0.1003,-0.045481 -0.109375,0.00195 h -0.002 L 10.046875,7 C 9.6779039,7.0834802 9.3868274,7.1430865 9.0957031,7.2578125 8.8045789,7.3725385 8.4269239,7.6353847 8.3007813,8.0410156 c -0.1261424,0.40563 0.026493,0.8247701 0.1933593,1.0898438 0.166866,0.2650737 0.3676093,0.4910247 0.6191407,0.7851562 l 0.1308593,0.1523434 c 0.1429443,0.167154 0.1269684,0.177699 0.099609,0.08984 -0.027301,-0.08793 -0.0077,-0.08053 -0.029297,0.142578 l -0.019531,0.203125 c -0.03802,0.392448 -0.074496,0.69657 -0.060547,1.009766 0.013949,0.313196 0.1223667,0.748645 0.46875,1.011719 0.3464704,0.262829 0.8202984,0.242423 1.1210944,0.15625 0.300795,-0.08617 0.566652,-0.215947 0.912109,-0.375 l 0.177735,-0.08203 c 0.196487,-0.09044 0.198936,-0.06641 0.08594,-0.06641 -0.112999,0 -0.11055,-0.02403 0.08594,0.06641 l 0.177734,0.08203 c 0.345457,0.159053 0.611314,0.288826 0.912109,0.375 0.300796,0.08617 0.774624,0.106579 1.121094,-0.15625 0.346438,-0.26307 0.454816,-0.69853 0.46875,-1.011719 0.01393,-0.313189 -0.02255,-0.617349 -0.06055,-1.009766 l -0.01953,-0.203125 c -0.0216,-0.22311 -0.002,-0.230511 -0.0293,-0.142578 -0.0274,0.08798 -0.04335,0.07738 0.09961,-0.08984 L 14.88672,9.9160156 C 15.138204,9.6219046 15.338991,9.3959151 15.50586,9.1308594 15.67273,8.8658036 15.82541,8.4467074 15.69922,8.0410156 15.573042,7.6353666 15.195419,7.3725317 14.904297,7.2578125 14.613175,7.1430933 14.322071,7.0834791 13.953125,7 L 13.763672,6.957031 h -0.002 C 13.551997,6.909597 13.56896,6.891823 13.652297,6.955081 c 0.08352,0.063387 0.06293,0.072535 -0.04492,-0.1210937 L 13.509717,6.658206 C 13.319717,6.317372 13.176687,6.0474592 12.986279,5.798831 12.79592,5.5502 12.441979,5.25 12,5.25 Z m 0,1.8046875 c 0.06762,0.1139887 0.105795,0.1644409 0.199219,0.3320312 l 0.09766,0.1777344 c 0.107945,0.1937911 0.195341,0.3947502 0.447266,0.5859375 0.251736,0.1910745 0.477775,0.2220857 0.6875,0.2695313 l 0.191406,0.042969 c 0.212156,0.048003 0.288736,0.074518 0.419922,0.109375 -0.08855,0.1121759 -0.144534,0.1909768 -0.296875,0.3691407 L 13.615234,9.09375 c -0.142843,0.1670942 -0.30078,0.3243599 -0.392578,0.6191406 -0.0915,0.2947134 -0.0509,0.5093324 -0.0293,0.7324224 l 0.01953,0.203125 c 0.02119,0.218817 0.02212,0.303103 0.03125,0.445312 -0.11943,-0.05074 -0.178813,-0.06996 -0.353516,-0.150391 l -0.177734,-0.08203 C 12.516579,10.770969 12.321199,10.658203 12,10.658203 c -0.321199,0 -0.516579,0.112766 -0.712891,0.203125 l -0.177734,0.08203 c -0.174703,0.08044 -0.234086,0.09965 -0.353516,0.150391 0.0091,-0.142195 0.01005,-0.226512 0.03125,-0.445312 l 0.01953,-0.203125 c 0.0216,-0.22309 0.0622,-0.437709 -0.0293,-0.7324224 C 10.685585,9.4182362 10.527721,9.2609164 10.384766,9.09375 L 10.253906,8.9414063 C 10.101557,8.7632548 10.045576,8.6844298 9.9570313,8.5722656 10.088212,8.5374098 10.164789,8.5108931 10.376953,8.4628906 l 0.191406,-0.042969 c 0.209725,-0.047446 0.435764,-0.078457 0.6875,-0.2695313 0.251925,-0.1911873 0.339321,-0.3921464 0.447266,-0.5859375 l 0.09766,-0.1777344 C 11.894205,7.2191284 11.932382,7.1686762 12,7.0546875 Z"
     id="path1" />
  <path
   
     d="M 12,1.25 C 7.7286834,1.25 4.25,4.7286834 4.25,9 c 0,4.271326 3.4786847,7.75 7.75,7.75 4.271324,0 7.75,-3.478676 7.75,-7.75 0,-4.2713153 -3.478674,-7.75 -7.75,-7.75 z m 0,1.5 c 3.460667,0 6.25,2.789343 6.25,6.25 0,3.460668 -2.789332,6.25 -6.25,6.25 C 8.539343,15.25 5.75,12.460667 5.75,9 5.75,5.5393443 8.5393443,2.75 12,2.75 Z"
     id="path2" />
  <path
   
     d="M 4.9160156,11.478516 2.453125,14.029297 c -0.5401039,0.559283 -0.8619341,0.814036 -1.0625,1.322266 -0.3361125,0.851684 -0.051259,1.85267 0.7382813,2.335937 0.4868635,0.298129 0.8831682,0.270056 1.6171875,0.347656 0.4144976,0.04391 0.5687274,0.07306 0.6074218,0.08789 0.1819725,0.06973 0.3232611,0.21122 0.3964844,0.416015 0.018105,0.05064 0.045561,0.215432 0.087891,0.644532 0.07498,0.759999 0.046587,1.158798 0.3261719,1.648437 0.4573524,0.800792 1.4724879,1.125469 2.3183594,0.767578 0.5112663,-0.216176 0.7450212,-0.546153 1.2851562,-1.105468 l 3.7714845,-3.90625 -1.078125,-1.041016 -3.7714845,3.904297 c -0.5401039,0.559283 -0.8448824,0.788401 -0.7910156,0.765625 h -0.00195 c -0.1964275,0.08311 -0.3387604,0.0303 -0.4296875,-0.128906 0.038965,0.06824 -0.061739,-0.292736 -0.1367188,-1.052735 -0.04233,-0.429099 -0.057574,-0.69319 -0.1679687,-1.001953 C 5.947653,17.433399 5.4838186,16.948769 4.8886719,16.720703 4.5802466,16.602529 4.3186784,16.586863 3.9042969,16.542969 3.1702776,16.465369 2.8322054,16.359274 2.9121094,16.408203 2.7743303,16.32387 2.6953692,16.129858 2.7851563,15.902344 2.7714902,15.936973 2.991115,15.631581 3.53125,15.072266 l 2.4648437,-2.550782 z"
     id="path3" />
  <path
   
     d="m 19.083984,11.478516 -1.080078,1.042968 2.464844,2.550782 c 0.540183,0.559282 0.759664,0.864446 0.746094,0.830078 0.08978,0.227555 0.01085,0.42152 -0.126953,0.505859 0.07984,-0.04888 -0.258189,0.05717 -0.992188,0.134766 -0.41434,0.04389 -0.675981,0.0596 -0.984375,0.177734 -0.595206,0.228065 -1.058937,0.712825 -1.273437,1.3125 -0.110247,0.308588 -0.125664,0.572802 -0.167969,1.001953 -0.075,0.759999 -0.175666,1.120948 -0.136719,1.052735 -0.09089,0.159161 -0.235128,0.212043 -0.431641,0.128906 0.05391,0.02279 -0.250915,-0.206325 -0.791015,-0.765625 l -3.771484,-3.904297 -1.078125,1.041016 3.771484,3.90625 c 0.540099,0.559298 0.773846,0.889274 1.285156,1.105468 0.845887,0.357863 1.861048,0.03326 2.318359,-0.767578 0.279547,-0.489613 0.251172,-0.888438 0.326172,-1.648437 0.04229,-0.429048 0.06974,-0.59372 0.08789,-0.644532 0.0733,-0.204923 0.214491,-0.346281 0.396484,-0.416015 0.03881,-0.01487 0.192963,-0.04398 0.607422,-0.08789 0.733152,-0.07751 1.129169,-0.05067 1.615235,-0.347656 0.789597,-0.48326 1.076251,-1.484294 0.740234,-2.335937 -0.20057,-0.507969 -0.522284,-0.762949 -1.0625,-1.322266 z"
     id="path4" />
</svg>
