<?xml version="1.0" encoding="UTF-8" standalone="no"?>
<svg
   width="24"
   height="24"
   viewBox="0 0 24 24"
 
   version="1.1"
   id="svg9"
   xmlns="http://www.w3.org/2000/svg"
   xmlns:svg="http://www.w3.org/2000/svg">
  <defs
     id="defs9" />
  <path
   
     d="M 12,1.25 C 10.114382,1.25 8.6859363,1.2444746 7.5117187,1.4023437 6.3375012,1.5602129 5.3686723,1.9125839 4.640625,2.640625 3.9125839,3.3686723 3.5602129,4.3375012 3.4023438,5.5117187 3.2444746,6.6859363 3.25,8.1143819 3.25,10 v 2 c 0,1.885598 -0.00553,3.314057 0.1523438,4.488281 0.157869,1.174225 0.5102187,2.143075 1.2382812,2.871094 0.7280455,0.728058 1.6968741,1.080408 2.8710937,1.238281 C 8.6859384,20.75553 10.114382,20.75 12,20.75 c 1.885598,0 3.314055,0.0055 4.488281,-0.152344 1.174227,-0.157873 2.143077,-0.510202 2.871094,-1.238281 0.728079,-0.728017 1.080408,-1.696867 1.238281,-2.871094 C 20.75553,15.314055 20.75,13.885598 20.75,12 V 10 C 20.75,8.1143819 20.7555,6.6859384 20.597656,5.5117187 20.439783,4.3374991 20.087433,3.3686705 19.359375,2.640625 18.631356,1.9125625 17.662506,1.5602128 16.488281,1.4023437 15.314057,1.2444747 13.885598,1.25 12,1.25 Z m 0,1.5 c 1.885598,0 3.284764,0.0056 4.289062,0.140625 1.004299,0.1350232 1.566286,0.3670405 2.009766,0.8105469 0.443541,0.4435333 0.675521,1.0054774 0.810547,2.0097656 C 19.244401,6.7152257 19.25,8.1143819 19.25,10 v 2 c 0,1.885598 -0.0056,3.284766 -0.140625,4.289062 -0.135026,1.004297 -0.367027,1.566284 -0.810547,2.009766 -0.443482,0.44352 -1.005469,0.675521 -2.009766,0.810547 C 15.284766,19.244401 13.885598,19.25 12,19.25 10.114382,19.25 8.7152257,19.244401 7.7109375,19.109375 6.7066493,18.974349 6.1447052,18.742369 5.7011719,18.298828 5.2576655,17.855348 5.0256482,17.293361 4.890625,16.289062 4.7556018,15.284764 4.75,13.885598 4.75,12 V 10 C 4.75,8.1143819 4.7556,6.7152278 4.890625,5.7109375 5.0256481,4.7066472 5.2576441,4.1447034 5.7011719,3.7011719 6.1447034,3.2576441 6.7066472,3.0256481 7.7109375,2.890625 8.7152278,2.7556019 10.114382,2.75 12,2.75 Z"
     id="path1" />
  <path
    
     d="M 4,12.25 A 0.75,0.75 0 0 0 3.25,13 0.75,0.75 0 0 0 4,13.75 H 20 A 0.75,0.75 0 0 0 20.75,13 0.75,0.75 0 0 0 20,12.25 Z"
     id="path2" />
  <path
    
     d="M 15.5,15.25 A 0.75,0.75 0 0 0 14.75,16 0.75,0.75 0 0 0 15.5,16.75 H 17 A 0.75,0.75 0 0 0 17.75,16 0.75,0.75 0 0 0 17,15.25 Z"
     id="path3" />
  <path
    
     d="M 7,15.25 A 0.75,0.75 0 0 0 6.25,16 0.75,0.75 0 0 0 7,16.75 H 8.5 A 0.75,0.75 0 0 0 9.25,16 0.75,0.75 0 0 0 8.5,15.25 Z"
     id="path4" />
  <path
    
     d="M 6,18.75 A 0.75,0.75 0 0 0 5.25,19.5 V 21 c 0,0.957622 0.7924012,1.75 1.75,1.75 h 1.5 c 0.9575988,0 1.75,-0.792378 1.75,-1.75 V 20 A 0.75,0.75 0 0 0 9.5,19.25 0.75,0.75 0 0 0 8.75,20 v 1 c 0,0.146977 -0.1030399,0.25 -0.25,0.25 H 7 C 6.8530399,21.25 6.75,21.146977 6.75,21 V 19.5 A 0.75,0.75 0 0 0 6,18.75 Z"
     id="path5" />
  <path
    
     d="M 18,18.75 A 0.75,0.75 0 0 0 17.25,19.5 V 21 c 0,0.146995 -0.103005,0.25 -0.25,0.25 h -1.5 c -0.146995,0 -0.25,-0.103005 -0.25,-0.25 V 20 A 0.75,0.75 0 0 0 14.5,19.25 0.75,0.75 0 0 0 13.75,20 v 1 c 0,0.957604 0.792396,1.75 1.75,1.75 H 17 c 0.957604,0 1.75,-0.792396 1.75,-1.75 V 19.5 A 0.75,0.75 0 0 0 18,18.75 Z"
     id="path6" />
  <path
    
     d="M 20,8.25 A 0.75,0.75 0 0 0 19.25,9 0.75,0.75 0 0 0 20,9.75 h 1 c 0.146977,0 0.25,0.1030399 0.25,0.25 v 1 c 0,0.07941 -0.03596,0.151472 -0.09961,0.199219 l -1.59961,1.201172 a 0.75,0.75 0 0 0 -0.15039,1.048828 0.75,0.75 0 0 0 1.048828,0.15039 L 22.05078,12.400391 C 22.490735,12.070338 22.75,11.550187 22.75,11 V 10 C 22.75,9.0424012 21.957622,8.25 21,8.25 Z"
     id="path7" />
  <path
    
     d="M 3,8.25 C 2.0423831,8.25 1.25,9.0423831 1.25,10 v 1 c 0,0.550171 0.2592419,1.070334 0.6992187,1.400391 l 1.6015626,1.199218 A 0.75,0.75 0 0 0 4.5996094,13.449219 0.75,0.75 0 0 0 4.4492187,12.400391 L 2.8496094,11.199219 C 2.7859667,11.151476 2.75,11.079428 2.75,11 V 10 C 2.75,9.853058 2.853058,9.75 3,9.75 H 4 A 0.75,0.75 0 0 0 4.75,9 0.75,0.75 0 0 0 4,8.25 Z"
     id="path8" />
  <path

     d="M 4.5,4.25 A 0.75,0.75 0 0 0 3.75,5 0.75,0.75 0 0 0 4.5,5.75 h 15 A 0.75,0.75 0 0 0 20.25,5 0.75,0.75 0 0 0 19.5,4.25 Z"
     id="path9" />
</svg>
