<?xml version="1.0" encoding="UTF-8" standalone="no"?>
<svg
   width="24"
   height="24"
   viewBox="0 0 24 24"
 
   version="1.1"
   id="svg6"
   xmlns="http://www.w3.org/2000/svg"
   xmlns:svg="http://www.w3.org/2000/svg">
  <defs
     id="defs6" />
  <path

     d="M 9,1.25 C 7.5857864,1.25 6.5093262,1.2459295 5.6074219,1.3671875 4.7055175,1.4884455 3.9292542,1.7660583 3.3476563,2.3476563 2.7660583,2.9292542 2.4884455,3.7055175 2.3671875,4.6074219 2.2459295,5.5093262 2.25,6.5857864 2.25,8 v 14 h 1.5 V 8 C 3.75,6.5857864 3.7551,5.5405702 3.8535156,4.8085937 3.9519274,4.0766173 4.1111219,3.7052843 4.4082031,3.4082031 4.7052843,3.1111219 5.0766173,2.9519274 5.8085937,2.8535156 6.5405702,2.7551039 7.5857864,2.75 9,2.75 h 1 c 1.414199,0 2.459433,0.0051 3.191406,0.1035156 0.731973,0.098412 1.103297,0.2576004 1.400391,0.5546875 0.297089,0.2970829 0.456274,0.668416 0.554687,1.4003906 C 15.244898,5.5405684 15.25,6.5857864 15.25,8 v 14 h 1.5 V 8 C 16.75,6.5857864 16.7541,5.5093281 16.632812,4.6074219 16.511551,3.7055157 16.233953,2.9292525 15.652344,2.3476563 15.070738,1.7660642 14.294479,1.4884456 13.392578,1.3671875 12.490678,1.2459294 11.414199,1.25 10,1.25 Z"
     id="path1" />
  <path

     d="M 8,5.25 C 7.5285955,5.25 7.1600107,5.2449347 6.8027344,5.2929687 6.4454581,5.3410028 6.0504251,5.4730222 5.7617187,5.7617187 5.4730222,6.0504251 5.3410028,6.4454581 5.2929687,6.8027344 5.2449347,7.1600107 5.25,7.5285955 5.25,8 c 0,0.4714045 -0.00507,0.8399893 0.042969,1.1972656 0.048034,0.3572763 0.1800535,0.7523093 0.46875,1.0410154 0.2887064,0.288697 0.6837394,0.420716 1.0410157,0.46875 C 7.1600107,10.755065 7.5285955,10.75 8,10.75 h 3 c 0.4714,0 0.83999,0.0051 1.197266,-0.04297 0.357275,-0.04803 0.752309,-0.180053 1.041015,-0.46875 0.288704,-0.2887037 0.420714,-0.6837363 0.46875,-1.0410154 C 13.755067,8.8399866 13.75,8.4714045 13.75,8 13.75,7.5285955 13.7551,7.1600134 13.70703,6.8027344 13.658995,6.4454553 13.526985,6.0504227 13.238281,5.7617187 12.949575,5.4730222 12.554541,5.3410029 12.197266,5.2929687 11.83999,5.2449346 11.4714,5.25 11,5.25 Z m 0,1.5 h 3 c 0.4714,0 0.810698,0.00411 0.998047,0.029297 0.187349,0.025188 0.175494,0.038775 0.179687,0.042969 0.0042,0.0042 0.01778,-0.00766 0.04297,0.1796875 C 12.245892,7.189301 12.25,7.5285955 12.25,8 c 0,0.4714045 -0.0041,0.810699 -0.0293,0.9980469 -0.02519,0.1873479 -0.03877,0.1754917 -0.04297,0.1796875 -0.0042,0.00419 0.0077,0.01778 -0.179687,0.042969 C 11.810698,9.2458914 11.4714,9.25 11,9.25 H 8 C 7.5285955,9.25 7.1893038,9.2458915 7.0019531,9.2207031 6.8146025,9.1955147 6.826459,9.1819276 6.8222656,9.1777344 6.8180724,9.173541 6.8044853,9.1853975 6.7792969,8.9980469 6.7541085,8.8106962 6.75,8.4714045 6.75,8 6.75,7.5285955 6.75411,7.1893038 6.779297,7.0019531 6.804485,6.8146025 6.818072,6.826459 6.822266,6.8222656 6.826456,6.8180756 6.814606,6.8044856 7.0019535,6.7792966 7.1893038,6.7541085 7.5285955,6.75 8,6.75 Z"
     id="path2" />
  <path
  
     d="M 7,16.25 A 0.75,0.75 0 0 0 6.25,17 0.75,0.75 0 0 0 7,17.75 h 5 A 0.75,0.75 0 0 0 12.75,17 0.75,0.75 0 0 0 12,16.25 Z"
     id="path3" />
  <path
  
     d="M 2,21.25 A 0.75,0.75 0 0 0 1.25,22 0.75,0.75 0 0 0 2,22.75 H 17 A 0.75,0.75 0 0 0 17.75,22 0.75,0.75 0 0 0 17,21.25 Z"
     id="path4" />
  <path
  
     d="M 19.96875,3.4140625 A 0.75,0.75 0 0 0 18.914062,3.53125 0.75,0.75 0 0 0 19.03125,4.5859375 l 1.232422,0.9863281 c 0.1378,0.1102599 0.197372,0.1566979 0.238281,0.1933594 0.443646,0.3977356 0.710754,0.9559894 0.744141,1.5507812 0.0031,0.05483 0.0039,0.1301409 0.0039,0.3066407 V 18.5 c 0,0.42304 -0.32696,0.75 -0.75,0.75 -0.42304,0 -0.75,-0.32696 -0.75,-0.75 V 18.42773 C 19.75,17.233412 18.766588,16.25 17.572266,16.25 H 16 A 0.75,0.75 0 0 0 15.25,17 0.75,0.75 0 0 0 16,17.75 h 1.572266 c 0.383676,0 0.677734,0.294058 0.677734,0.677734 V 18.5 c 0,1.233758 1.016242,2.25 2.25,2.25 1.233758,0 2.25,-1.016242 2.25,-2.25 V 7.6230469 c 0,-0.1764998 4.75e-4,-0.2773556 -0.0059,-0.390625 -0.05561,-0.9907666 -0.501482,-1.9197279 -1.240235,-2.5820313 -0.08449,-0.075718 -0.164934,-0.1397401 -0.302734,-0.25 z"
     id="path5" />
  <path
  
     d="m 20.5,7.25 c -1.23374,0 -2.25,1.0162262 -2.25,2.25 v 2.417969 c 0,0.965534 0.622973,1.829402 1.539062,2.134765 l 1.97461,0.658204 a 0.75,0.75 0 0 0 0.947265,-0.47461 0.75,0.75 0 0 0 -0.474609,-0.947265 L 20.263672,12.630859 C 19.954563,12.527823 19.75,12.243633 19.75,11.917969 V 9.5 c 0,-0.4230845 0.326942,-0.75 0.75,-0.75 H 22 A 0.75,0.75 0 0 0 22.75,8 0.75,0.75 0 0 0 22,7.25 Z"
     id="path6" />
</svg>
