<?xml version="1.0" encoding="UTF-8" standalone="no"?>
<svg
   width="24"
   height="24"
   viewBox="0 0 24 24"
 
   version="1.1"
   id="svg1"
   xmlns="http://www.w3.org/2000/svg"
   xmlns:svg="http://www.w3.org/2000/svg">
  <defs
     id="defs1" />
  <path
     d="m 14.381,17.6471 v 0.75 c 0.4142,0 0.75,-0.3358 0.75,-0.75 z m 5.238,-5.1765 v 0.75 c 0.2208,0 0.4303,-0.0972 0.5728,-0.2658 0.1425,-0.1685 0.2035,-0.3913 0.1668,-0.6089 z M 18.6149,6.51663 17.8754,6.64136 Z M 14.381,3.25 c -0.4143,0 -0.75,0.33579 -0.75,0.75 0,0.41421 0.3357,0.75 0.75,0.75 z m 3.782,1.59003 -0.6223,0.41871 v 0 z M 17.3565,4.1649 17.6605,3.47926 v 0 z M 21.25,17.6471 c 0,0.8769 -0.7218,1.6029 -1.631,1.6029 v 1.5 c 1.7208,0 3.131,-1.3809 3.131,-3.1029 z M 19.619,19.25 c -0.9091,0 -1.6309,-0.726 -1.6309,-1.6029 h -1.5 c 0,1.722 1.4102,3.1029 3.1309,3.1029 z m -1.6309,-1.6029 c 0,-0.877 0.7218,-1.603 1.6309,-1.603 v -1.5 c -1.7207,0 -3.1309,1.3809 -3.1309,3.103 z m 1.6309,-1.603 c 0.9092,0 1.631,0.726 1.631,1.603 h 1.5 c 0,-1.7221 -1.4102,-3.103 -3.131,-3.103 z m -4.488,1.603 c 0,-2.4364 2.0009,-4.4265 4.488,-4.4265 v -1.5 c -3.2987,0 -5.988,2.645 -5.988,5.9265 z m -0.75,-0.75 H 6.7619 v 1.5 h 7.6191 z m 5.9776,-4.5512 -1.0041,-5.95399 -1.4791,0.24945 1.0041,5.95394 z M 15.6088,3.25 H 14.381 v 1.5 h 1.2278 z m 3.7457,3.14191 C 19.281,5.9561 19.2194,5.58781 19.1449,5.28811 19.0682,4.979 18.966,4.69002 18.7852,4.42132 l -1.2445,0.83742 c 0.045,0.06677 0.0934,0.16905 0.1485,0.39085 0.0574,0.23121 0.1089,0.53349 0.1862,0.99177 z M 15.6088,4.75 c 0.4697,0 0.781,4.9e-4 1.0224,0.01853 0.2322,0.01735 0.3449,0.04812 0.4214,0.08201 L 17.6605,3.47926 C 17.365,3.34825 17.0624,3.29657 16.743,3.2727 16.4328,3.24951 16.0562,3.25 15.6088,3.25 Z M 18.7852,4.42132 C 18.5069,4.00766 18.1166,3.68147 17.6605,3.47926 l -0.6079,1.37128 c 0.1996,0.0885 0.3685,0.23042 0.4881,0.4082 z M 6.0119,17.6471 c 0,0.8769 -0.7218,1.6029 -1.63095,1.6029 v 1.5 c 1.72079,0 3.13095,-1.3809 3.13095,-3.1029 z M 4.38095,19.25 C 3.47181,19.25 2.75,18.524 2.75,17.6471 h -1.5 c 0,1.722 1.41017,3.1029 3.13095,3.1029 z M 2.75,17.6471 c 0,-0.877 0.72181,-1.603 1.63095,-1.603 v -1.5 C 2.66017,14.5441 1.25,15.925 1.25,17.6471 Z m 1.63095,-1.603 c 0.90915,0 1.63095,0.726 1.63095,1.603 h 1.5 c 0,-1.7221 -1.41016,-3.103 -3.13095,-3.103 z"
   
     id="path2" />
</svg>
