<?xml version="1.0" encoding="UTF-8" standalone="no"?>
<svg
   width="24"
   height="24"
   viewBox="0 0 24 24"
 
   version="1.1"
   id="svg4"
   xmlns="http://www.w3.org/2000/svg"
   xmlns:svg="http://www.w3.org/2000/svg">
  <defs
     id="defs4" />
  <path
     
     d="m 19,12.25 c -2.064525,0 -3.75,1.685475 -3.75,3.75 0,2.064525 1.685475,3.75 3.75,3.75 2.064525,0 3.75,-1.685475 3.75,-3.75 0,-2.064525 -1.685475,-3.75 -3.75,-3.75 z m 0,1.5 c 1.259472,0 2.25,0.990528 2.25,2.25 0,1.259472 -0.990528,2.25 -2.25,2.25 -1.259472,0 -2.25,-0.990528 -2.25,-2.25 0,-1.259472 0.990528,-2.25 2.25,-2.25 z"
     id="rect1" />
  <path
    
     d="M 6.4003906,9.75 C 6.028951,9.75 5.8297333,9.7477528 5.6269531,9.7636719 3.3029454,9.9466068 1.4465709,11.802949 1.2636719,14.126953 1.2476982,14.32983 1.25,14.528991 1.25,14.900391 c 0,0.0929 -8.407e-4,0.151054 0.00586,0.236328 0.067142,0.852838 0.7545352,1.540287 1.6074219,1.607422 0.085638,0.0068 0.1434682,0.0059 0.2363281,0.0059 H 11 11.75 16 A 0.75,0.75 0 0 0 16.75,16 0.75,0.75 0 0 0 16,15.25 H 11.75 V 14.5 c 0,-0.942799 0.0046,-1.665332 -0.08008,-2.294922 -0.08465,-0.62959 -0.289456,-1.215237 -0.724609,-1.65039 C 10.510169,10.119521 9.9245138,9.9147268 9.2949219,9.8300781 8.6653299,9.7454295 7.9428091,9.75 7,9.75 Z m 0,1.5 H 7 c 0.9428091,0 1.6340905,0.0046 2.09375,0.06641 0.4596595,0.0618 0.6403902,0.148195 0.7910156,0.298828 0.1506454,0.150646 0.2370264,0.331357 0.2988284,0.791016 0.0618,0.459659 0.06641,1.150951 0.06641,2.09375 v 0.75 H 3.0996094 c -0.09286,0 -0.1264388,-5.78e-4 -0.1191406,0 C 2.8525964,15.239935 2.7600583,15.147292 2.75,15.019531 c 5.401e-4,0.0069 0,-0.02624 0,-0.11914 0,-0.3714 0.00108,-0.545928 0.00977,-0.65625 0.1258407,-1.598992 1.3853867,-2.858511 2.984375,-2.984375 0.1105796,-0.0087 0.2848104,-0.0098 0.65625,-0.0098 z"
     id="path1" />
  <path
    
     d="M 3.5,15.25 A 0.75,0.75 0 0 0 2.75,16 c 0,2.062218 1.6878347,3.75 3.75,3.75 2.0621653,0 3.75,-1.687782 3.75,-3.75 A 0.75,0.75 0 0 0 9.5,15.25 0.75,0.75 0 0 0 8.75,16 c 0,1.251579 -0.9984686,2.25 -2.25,2.25 C 5.2484686,18.25 4.25,17.251579 4.25,16 A 0.75,0.75 0 0 0 3.5,15.25 Z"
     id="path2" />
  <path
    
     d="M 12,4.25 A 0.75,0.75 0 0 0 11.25,5 0.75,0.75 0 0 0 12,5.75 h 0.527344 c 1.202799,0 1.647923,0.035086 1.894531,0.1875 0.246629,0.1524275 0.475781,0.5335635 1.013672,1.609375 l 2.894531,5.789063 a 0.75,0.75 0 0 0 1.005859,0.333984 0.75,0.75 0 0 0 0.333985,-1.005859 L 16.777344,6.875 C 16.239436,5.7991536 15.928954,5.1051282 15.208984,4.6601562 14.488993,4.2151708 13.730143,4.25 12.527344,4.25 Z"
     id="path3" />
  <path
    
     d="M 16.5,6.75 A 0.75,0.75 0 0 0 15.75,7.5 0.75,0.75 0 0 0 16.5,8.25 h 1.339844 c 0.615866,0 0.801809,0.044137 0.783203,0.033203 0.03883,0.022191 0.07145,0.054743 0.09375,0.09375 -0.01106,-0.018833 0.0332,0.167287 0.0332,0.7832032 0,0.3264896 -0.01279,0.4135077 -0.01172,0.4101562 -0.0082,0.025555 -0.01967,0.048927 -0.03516,0.070312 0.0022,-0.00302 -0.0613,0.060116 -0.324219,0.2539063 l -0.68164,0.5019523 a 0.75,0.75 0 0 0 -0.158204,1.048829 0.75,0.75 0 0 0 1.048829,0.158203 l 0.68164,-0.501953 c 0.262677,-0.19361 0.463452,-0.324661 0.648438,-0.580079 0.108917,-0.150434 0.191616,-0.317616 0.248047,-0.49414 h 0.002 C 20.263839,9.7271126 20.25,9.4866459 20.25,9.1601563 20.25,8.5427069 20.294098,8.1137217 20.019531,7.6328125 19.864427,7.3614594 19.638553,7.1355374 19.367187,6.9804687 18.886307,6.7059329 18.457243,6.75 17.839844,6.75 Z"
     id="path4" />
  <path
     
     d="m 19,12.25 c -2.062182,0 -3.75,1.687818 -3.75,3.75 0,2.062182 1.687818,3.75 3.75,3.75 2.062182,0 3.75,-1.687818 3.75,-3.75 0,-2.062182 -1.687818,-3.75 -3.75,-3.75 z m 0,1.5 c 1.251523,0 2.25,0.998477 2.25,2.25 0,1.251523 -0.998477,2.25 -2.25,2.25 -1.251523,0 -2.25,-0.998477 -2.25,-2.25 0,-1.251523 0.998477,-2.25 2.25,-2.25 z"
     id="circle4" />
</svg>
