<?xml version="1.0" encoding="UTF-8" standalone="no"?>
<svg
   width="24"
   height="24"
   viewBox="0 0 24 24"
 
   version="1.1"
   id="svg9"
   xmlns="http://www.w3.org/2000/svg"
   xmlns:svg="http://www.w3.org/2000/svg">
  <defs
     id="defs9" />
  <path
  
     d="M 12,1.25 C 6.0718263,1.25 1.25,6.0718263 1.25,12 1.25,17.928127 6.0718217,22.75 12,22.75 17.928132,22.75 22.75,17.928132 22.75,12 22.75,6.0718217 17.928127,1.25 12,1.25 Z m 0,1.5 c 5.117462,0 9.25,4.1324893 9.25,9.25 0,5.117457 -4.132543,9.25 -9.25,9.25 C 6.8824893,21.25 2.75,17.117462 2.75,12 2.75,6.8824848 6.8824848,2.75 12,2.75 Z"
     id="path1" />
  <path
 
     d="m 17.5,16.75 a 0.75,0.75 0 0 0 -0.53125,0.21875 0.75,0.75 0 0 0 0,1.0625 l 1.5,1.5 a 0.75,0.75 0 0 0 1.0625,0 0.75,0.75 0 0 0 0,-1.0625 l -1.5,-1.5 A 0.75,0.75 0 0 0 17.5,16.75 Z"
     id="path2" />
  <path
 
     d="m 19,4.25 a 0.75,0.75 0 0 0 -0.53125,0.21875 l -1.5,1.5 a 0.75,0.75 0 0 0 0,1.0625 0.75,0.75 0 0 0 1.0625,0 l 1.5,-1.5 a 0.75,0.75 0 0 0 0,-1.0625 A 0.75,0.75 0 0 0 19,4.25 Z"
     id="path3" />
  <path
 
     d="m 6.5,16.75 a 0.75,0.75 0 0 0 -0.53125,0.21875 l -1.5,1.5 a 0.75,0.75 0 0 0 0,1.0625 0.75,0.75 0 0 0 1.0625,0 l 1.5,-1.5 a 0.75,0.75 0 0 0 0,-1.0625 A 0.75,0.75 0 0 0 6.5,16.75 Z"
     id="path4" />
  <path
 
     d="m 5,4.25 a 0.75,0.75 0 0 0 -0.53125,0.21875 0.75,0.75 0 0 0 0,1.0625 l 1.5,1.5 a 0.75,0.75 0 0 0 1.0625,0 0.75,0.75 0 0 0 0,-1.0625 l -1.5,-1.5 A 0.75,0.75 0 0 0 5,4.25 Z"
     id="path5" />
  <path
 
     d="M 2,11.25 A 0.75,0.75 0 0 0 1.25,12 0.75,0.75 0 0 0 2,12.75 H 4 A 0.75,0.75 0 0 0 4.75,12 0.75,0.75 0 0 0 4,11.25 Z"
     id="path6" />
  <path
 
     d="M 20,11.25 A 0.75,0.75 0 0 0 19.25,12 0.75,0.75 0 0 0 20,12.75 h 2 A 0.75,0.75 0 0 0 22.75,12 0.75,0.75 0 0 0 22,11.25 Z"
     id="path7" />
  <path
 
     d="M 12,1.25 A 0.75,0.75 0 0 0 11.25,2 V 4 A 0.75,0.75 0 0 0 12,4.75 0.75,0.75 0 0 0 12.75,4 V 2 A 0.75,0.75 0 0 0 12,1.25 Z"
     id="path8" />
  <path
  
     d="m 11.65625,8.4980469 c -0.961282,-1.1e-6 -1.9212897,0.3646366 -2.6503906,1.09375 -0.689205,0.6891281 -0.9479126,1.6880121 -1.1738282,2.7148441 -0.1604602,0.729251 -0.2968005,1.297444 -0.3066406,1.861328 -0.00984,0.563884 0.1816153,1.171849 0.6074219,1.597656 0.4258109,0.425804 1.0357365,0.617272 1.5996094,0.607422 0.5638731,-0.0099 1.1320861,-0.144239 1.8613281,-0.304688 1.02686,-0.225921 2.02574,-0.484724 2.714844,-1.173828 1.458204,-1.458204 1.458241,-3.844618 0,-5.3027341 -0.729057,-0.7291318 -1.691062,-1.093749 -2.652344,-1.09375 z m 0,1.4902344 c 0.574241,-1.1e-6 1.149355,0.2215757 1.591797,0.6640627 0.884957,0.884881 0.884993,2.296647 0,3.18164 -0.202096,0.202096 -1.052624,0.566254 -1.976563,0.769532 C 10.542227,14.763967 10.015662,14.869575 9.7050781,14.875 9.3944943,14.8804 9.3483579,14.86007 9.1933594,14.705078 9.0383666,14.550085 9.0199707,14.503949 9.0253906,14.193359 c 0.00542,-0.31059 0.1110249,-0.835205 0.2714844,-1.564453 0.2032841,-0.923967 0.5674371,-1.774491 0.769531,-1.976562 0.442498,-0.442506 1.015603,-0.6640617 1.589844,-0.6640627 z"
     id="path9" />
</svg>
