<?xml version="1.0" encoding="UTF-8" standalone="no"?>
<svg
   width="24"
   height="24"
   viewBox="0 0 24 24"
 
   version="1.1"
   id="svg7"
   xmlns="http://www.w3.org/2000/svg"
   xmlns:svg="http://www.w3.org/2000/svg">
  <defs
     id="defs7" />
  <path
 
     d="M 5.5,1.25 C 5.0353405,1.25 4.7689229,1.2418606 4.4628906,1.3027344 3.3741015,1.5193037 2.5193037,2.3741015 2.3027344,3.4628906 2.2418606,3.7689229 2.25,4.0353405 2.25,4.5 v 2 C 2.25,6.9646595 2.24186,7.2310771 2.302734,7.5371094 2.5193037,8.6258985 3.3741015,9.4806963 4.4628906,9.6972656 4.7689229,9.7581394 5.0353405,9.75 5.5,9.75 5.9646595,9.75 6.2310771,9.75814 6.5371094,9.697266 7.6258985,9.4806963 8.4806963,8.6258985 8.6972656,7.5371094 8.7581394,7.2310771 8.75,6.9646595 8.75,6.5 v -2 C 8.75,4.0353405 8.7581394,3.7689229 8.6972656,3.4628906 8.4806963,2.3741015 7.6258985,1.5193037 6.5371094,1.3027344 6.2310771,1.2418606 5.9646595,1.25 5.5,1.25 Z m 0,1.5 c 0.4646595,0 0.6637733,0.00745 0.7441406,0.023437 C 6.74211,2.8724878 7.1275122,3.25789 7.2265625,3.7558594 7.2425486,3.8362267 7.25,4.0353405 7.25,4.5 v 2 C 7.25,6.9646595 7.24255,7.1637733 7.226563,7.2441406 7.1275122,7.74211 6.74211,8.1275122 6.2441406,8.2265625 6.1637733,8.2425486 5.9646595,8.25 5.5,8.25 5.0353405,8.25 4.8362267,8.2425486 4.7558594,8.2265625 4.25789,8.1275122 3.8724878,7.74211 3.7734375,7.2441406 3.7574514,7.1637733 3.75,6.9646595 3.75,6.5 v -2 C 3.75,4.0353405 3.75745,3.8362267 3.773437,3.7558594 3.8724878,3.25789 4.25789,2.8724878 4.7558594,2.7734375 4.8362267,2.7574514 5.0353405,2.75 5.5,2.75 Z"
     id="path1" />
  <path
 
     d="m 18.5,1.25 c -0.4647,0 -0.731087,-0.00814 -1.037109,0.052734 -1.088805,0.2165669 -1.9436,1.0713604 -2.160157,2.1601562 C 15.241924,3.7688448 15.25,4.0353405 15.25,4.5 v 2 c 0,0.4646595 -0.0081,0.7311552 0.05273,1.0371094 0.216557,1.0887958 1.071352,1.9435893 2.160157,2.1601562 C 17.768913,9.7581375 18.0353,9.75 18.5,9.75 c 0.4647,0 0.731087,0.00814 1.037109,-0.052734 1.088805,-0.2165669 1.9436,-1.0713604 2.160157,-2.1601562 C 21.758076,7.2311552 21.75,6.9646595 21.75,6.5 v -2 C 21.75,4.0353405 21.7581,3.7688448 21.69727,3.4628906 21.480709,2.3740948 20.625914,1.5193013 19.537109,1.3027344 19.231087,1.2418625 18.9647,1.25 18.5,1.25 Z m 0,1.5 c 0.4647,0 0.663764,0.00745 0.744141,0.023437 0.497994,0.099053 0.883379,0.4844593 0.982421,0.9824219 C 20.242552,3.8363048 20.25,4.0353405 20.25,4.5 v 2 c 0,0.4646595 -0.0074,0.6636952 -0.02344,0.7441406 C 20.12752,7.7421032 19.742135,8.1275098 19.244141,8.2265625 19.163764,8.2425506 18.9647,8.25 18.5,8.25 18.0353,8.25 17.836236,8.2425506 17.755859,8.2265625 17.257865,8.1275098 16.87248,7.7421032 16.773437,7.2441406 16.757448,7.1636952 16.75,6.9646595 16.75,6.5 v -2 c 0,-0.4646595 0.0074,-0.6636952 0.02344,-0.7441406 C 16.87248,3.2578968 17.257865,2.8724902 17.755859,2.7734375 17.836236,2.7574494 18.0353,2.75 18.5,2.75 Z"
     id="path2" />
  <path
 
     d="M 5.5,14.25 C 5.0353405,14.25 4.7688448,14.2419 4.4628906,14.30273 3.3740948,14.519291 2.5193013,15.374086 2.3027344,16.462891 2.2418625,16.768913 2.25,17.0353 2.25,17.5 v 2 c 0,0.4647 -0.00814,0.731087 0.052734,1.037109 0.2165669,1.088805 1.0713604,1.9436 2.1601562,2.160157 C 4.7688448,22.758076 5.0353405,22.75 5.5,22.75 c 0.4646595,0 0.7311552,0.0081 1.0371094,-0.05273 C 7.6259052,22.480709 8.4806987,21.625914 8.6972656,20.537109 8.7581375,20.231087 8.75,19.9647 8.75,19.5 v -2 C 8.75,17.0353 8.75814,16.768913 8.697266,16.462891 8.4806987,15.374086 7.6259052,14.519291 6.5371094,14.302734 6.2311552,14.241924 5.9646595,14.25 5.5,14.25 Z m 0,1.5 c 0.4646595,0 0.6636952,0.0074 0.7441406,0.02344 0.4979626,0.09904 0.8833692,0.484427 0.9824219,0.982421 C 7.2425506,16.836236 7.25,17.0353 7.25,17.5 v 2 c 0,0.4647 -0.00745,0.663764 -0.023437,0.744141 C 7.1275098,20.742135 6.7421032,21.12752 6.2441406,21.226562 6.1636952,21.242552 5.9646595,21.25 5.5,21.25 5.0353405,21.25 4.8363048,21.242552 4.7558594,21.226562 4.2578968,21.12752 3.8724902,20.742135 3.7734375,20.244141 3.7574494,20.163764 3.75,19.9647 3.75,19.5 v -2 c 0,-0.4647 0.00745,-0.663764 0.023437,-0.744141 C 3.8724902,16.257865 4.2578968,15.87248 4.7558594,15.773438 4.8363048,15.757448 5.0353405,15.75 5.5,15.75 Z"
     id="path3" />
  <path
 
     d="m 18.5,14.25 c -0.4647,0 -0.731165,-0.0081 -1.037109,0.05273 -1.088811,0.216555 -1.943602,1.071346 -2.160157,2.160157 C 15.241926,16.768835 15.25,17.0353 15.25,17.5 v 2 c 0,0.4647 -0.0081,0.731165 0.05273,1.037109 0.216555,1.088811 1.071346,1.943602 2.160157,2.160157 C 17.768835,22.758074 18.0353,22.75 18.5,22.75 c 0.4647,0 0.731165,0.0081 1.037109,-0.05273 1.088811,-0.216555 1.943602,-1.071346 2.160157,-2.160157 C 21.758074,20.231165 21.75,19.9647 21.75,19.5 v -2 c 0,-0.4647 0.0081,-0.731165 -0.05273,-1.037109 C 21.480711,15.37408 20.62592,14.519289 19.537109,14.302734 19.231165,14.241926 18.9647,14.25 18.5,14.25 Z m 0,1.5 c 0.4647,0 0.663686,0.0074 0.744141,0.02344 0.497987,0.09905 0.883376,0.484434 0.982421,0.982421 C 20.242554,16.836314 20.25,17.0353 20.25,17.5 v 2 c 0,0.4647 -0.0074,0.663686 -0.02344,0.744141 -0.09905,0.497987 -0.484434,0.883376 -0.982421,0.982421 C 19.163686,21.242554 18.9647,21.25 18.5,21.25 18.0353,21.25 17.836314,21.2426 17.755859,21.22656 17.257872,21.12751 16.872483,20.742126 16.773437,20.244139 16.757446,20.163686 16.75,19.9647 16.75,19.5 v -2 c 0,-0.4647 0.0074,-0.663686 0.02344,-0.744141 0.09905,-0.497987 0.484435,-0.883376 0.982422,-0.982421 C 17.836314,15.757446 18.0353,15.75 18.5,15.75 Z"
     id="path4" />
  <path
 
     d="M 8,17.75 A 0.75,0.75 0 0 0 7.25,18.5 0.75,0.75 0 0 0 8,19.25 h 8 A 0.75,0.75 0 0 0 16.75,18.5 0.75,0.75 0 0 0 16,17.75 Z"
     id="path5" />
  <path
 
     d="M 8,4.75 A 0.75,0.75 0 0 0 7.25,5.5 0.75,0.75 0 0 0 8,6.25 h 8 A 0.75,0.75 0 0 0 16.75,5.5 0.75,0.75 0 0 0 16,4.75 Z"
     id="path6" />
  <path
 
     d="M 12,4.75 A 0.75,0.75 0 0 0 11.25,5.5 v 13 A 0.75,0.75 0 0 0 12,19.25 0.75,0.75 0 0 0 12.75,18.5 V 5.5 A 0.75,0.75 0 0 0 12,4.75 Z"
     id="path7" />
</svg>
