<?xml version="1.0" encoding="UTF-8" standalone="no"?>
<svg
   width="24"
   height="24"
   viewBox="0 0 24 24"
 
   version="1.1"
   id="svg3"
   xmlns="http://www.w3.org/2000/svg"
   xmlns:svg="http://www.w3.org/2000/svg">
  <defs
     id="defs3" />
  <path
 
     d="M 8,8.25 A 0.75,0.75 0 0 0 7.25,9 v 6 A 0.75,0.75 0 0 0 8,15.75 0.75,0.75 0 0 0 8.75,15 V 9 A 0.75,0.75 0 0 0 8,8.25 Z"
     id="path1" />
  <path
 
     d="M 12,8.25 A 0.75,0.75 0 0 0 11.25,9 v 6 A 0.75,0.75 0 0 0 12,15.75 0.75,0.75 0 0 0 12.75,15 V 9 A 0.75,0.75 0 0 0 12,8.25 Z"
     id="path2" />
  <path
 
     d="M 16,8.25 A 0.75,0.75 0 0 0 15.25,9 c 0,0.9318791 -0.02919,1.317869 -0.0957,1.478516 -0.126973,0.306486 -0.369295,0.548808 -0.675781,0.675781 C 14.31786,11.220814 13.931899,11.25 13,11.25 H 8 A 0.75,0.75 0 0 0 7.25,12 0.75,0.75 0 0 0 8,12.75 h 5 c 0.931899,0 1.478191,0.0289 2.052734,-0.208984 0.673513,-0.279027 1.209255,-0.814769 1.488282,-1.488282 C 16.778902,10.478182 16.75,9.9318791 16.75,9 A 0.75,0.75 0 0 0 16,8.25 Z"
     id="path3" />
  <path
  
     d="M 7,1.25 C 3.8274761,1.25 1.25,3.8274761 1.25,7 v 10 c 0,3.172524 2.5774761,5.75 5.75,5.75 h 10 c 3.172524,0 5.75,-2.577476 5.75,-5.75 V 7 C 22.75,3.8274761 20.172524,1.25 17,1.25 Z m 0,1.5 h 10 c 2.367471,0 4.25,1.8825294 4.25,4.25 v 10 c 0,2.367471 -1.882529,4.25 -4.25,4.25 H 7 C 4.6325294,21.25 2.75,19.367471 2.75,17 V 7 C 2.75,4.6325294 4.6325294,2.75 7,2.75 Z"
     id="rect3" />
</svg>
