<?xml version="1.0" encoding="UTF-8" standalone="no"?>
<svg
   width="24"
   height="24"
   viewBox="0 0 24 24"
 
   version="1.1"
   id="svg8"
   xmlns="http://www.w3.org/2000/svg"
   xmlns:svg="http://www.w3.org/2000/svg">
  <defs
     id="defs8" />
  <path
  
     d="M 12,1.25 C 6.0718283,1.25 1.25,6.0718283 1.25,12 1.25,17.928172 6.0718283,22.75 12,22.75 17.928172,22.75 22.75,17.928172 22.75,12 22.75,6.0718283 17.928172,1.25 12,1.25 Z m 0,1.5 c 5.117512,0 9.25,4.1324877 9.25,9.25 0,5.117512 -4.132488,9.25 -9.25,9.25 C 6.8824877,21.25 2.75,17.117512 2.75,12 2.75,6.8824877 6.8824877,2.75 12,2.75 Z"
     id="circle1" />
  <path
  
     d="m 12,5.25 c -3.7190349,0 -6.75,3.0309651 -6.75,6.75 0,3.719035 3.0309651,6.75 6.75,6.75 3.719035,0 6.75,-3.030965 6.75,-6.75 0,-3.7190349 -3.030965,-6.75 -6.75,-6.75 z m 0,1.5 c 2.908376,0 5.25,2.3416245 5.25,5.25 0,2.908376 -2.341624,5.25 -5.25,5.25 C 9.0916245,17.25 6.75,14.908376 6.75,12 6.75,9.0916245 9.0916245,6.75 12,6.75 Z"
     id="circle2" />
  <path
  
     d="m 12,9.25 c -1.509898,0 -2.75,1.240102 -2.75,2.75 0,1.509898 1.240102,2.75 2.75,2.75 1.509898,0 2.75,-1.240102 2.75,-2.75 0,-1.509898 -1.240102,-2.75 -2.75,-2.75 z m 0,1.5 c 0.699239,0 1.25,0.550761 1.25,1.25 0,0.699239 -0.550761,1.25 -1.25,1.25 -0.699239,0 -1.25,-0.550761 -1.25,-1.25 0,-0.699239 0.550761,-1.25 1.25,-1.25 z"
     id="circle3" />
  <path
 
     d="M 6,11.25 A 0.75,0.75 0 0 0 5.25,12 0.75,0.75 0 0 0 6,12.75 h 4 A 0.75,0.75 0 0 0 10.75,12 0.75,0.75 0 0 0 10,11.25 Z"
     id="path3" />
  <path
 
     d="M 14,11.25 A 0.75,0.75 0 0 0 13.25,12 0.75,0.75 0 0 0 14,12.75 h 4 A 0.75,0.75 0 0 0 18.75,12 0.75,0.75 0 0 0 18,11.25 Z"
     id="path4" />
  <path
 
     d="m 10.806641,13.007813 a 0.75,0.75 0 0 0 -0.457032,0.349609 L 8.3496094,16.822266 A 0.75,0.75 0 0 0 8.625,17.845703 0.75,0.75 0 0 0 9.6503906,17.572266 L 11.650391,14.107422 A 0.75,0.75 0 0 0 11.375,13.082031 0.75,0.75 0 0 0 10.806641,13.007813 Z"
     id="path5" />
  <path
 
     d="m 15.375,6.1542969 a 0.75,0.75 0 0 0 -1.025391,0.2753906 l -2,3.4628906 A 0.75,0.75 0 0 0 12.625,10.917969 0.75,0.75 0 0 0 13.650391,10.642578 l 2,-3.4628905 A 0.75,0.75 0 0 0 15.375,6.1542969 Z"
     id="path6" />
  <path
 
     d="m 13.193359,13.007813 a 0.75,0.75 0 0 0 -0.568359,0.07422 0.75,0.75 0 0 0 -0.275391,1.025391 l 2,3.464844 a 0.75,0.75 0 0 0 1.025391,0.273437 0.75,0.75 0 0 0 0.275391,-1.023437 l -2,-3.464844 a 0.75,0.75 0 0 0 -0.457032,-0.349609 z"
     id="path7" />
  <path
 
     d="M 8.625,6.1542969 A 0.75,0.75 0 0 0 8.3496094,7.1796875 L 10.349609,10.642578 A 0.75,0.75 0 0 0 11.375,10.917969 0.75,0.75 0 0 0 11.650391,9.8925781 L 9.6503906,6.4296875 A 0.75,0.75 0 0 0 8.625,6.1542969 Z"
     id="path8" />
</svg>
