<?xml version="1.0" encoding="UTF-8" standalone="no"?>
<svg
   width="24"
   height="24"
   viewBox="0 0 24 24"
 
   version="1.1"
   id="svg7"
   xmlns="http://www.w3.org/2000/svg"
   xmlns:svg="http://www.w3.org/2000/svg">
  <defs
     id="defs7" />
  <path
  
     d="m 16.5,1.25 v 1.5 c 0.396143,0 0.799264,0.1693911 1.238281,0.5820313 0.439017,0.4126401 0.881889,1.0645691 1.259766,1.9042968 C 19.7538,6.9157835 20.25,9.3297761 20.25,12 c 0,2.670198 -0.4962,5.084209 -1.251953,6.763672 -0.377877,0.839731 -0.820748,1.491653 -1.259766,1.904297 C 17.299264,21.080613 16.896141,21.25 16.5,21.25 v 1.5 c 0.846508,0 1.627897,-0.390817 2.265625,-0.990234 0.637728,-0.599418 1.163149,-1.410943 1.599609,-2.38086 C 21.238154,17.439073 21.75,14.852596 21.75,12 21.75,9.1473795 21.238155,6.5609223 20.365234,4.6210937 19.928774,3.6511795 19.403354,2.8396479 18.765625,2.2402344 18.127896,1.6408209 17.346506,1.25 16.5,1.25 Z"
     id="path1" />
  <path
  
     d="M 7.5,1.25 C 6.6534975,1.25 5.8721025,1.6408212 5.234375,2.2402344 4.5966475,2.8396475 4.0712271,3.6511798 3.6347656,4.6210937 2.7618427,6.5609217 2.25,9.1473786 2.25,12 c 0,2.852597 0.5118434,5.439073 1.3847656,7.378906 0.4364612,0.969917 0.9618826,1.781442 1.5996094,2.38086 C 5.8721018,22.359183 6.653495,22.75 7.5,22.75 c 0.846505,0 1.6278982,-0.390817 2.265625,-0.990234 0.637727,-0.599418 1.163148,-1.410943 1.599609,-2.38086 C 12.238157,17.439073 12.75,14.852597 12.75,12 12.75,9.1473786 12.238157,6.5609217 11.365234,4.6210937 10.928773,3.6511798 10.403352,2.8396475 9.765625,2.2402344 9.1278975,1.6408212 8.3465025,1.25 7.5,1.25 Z m 0,1.5 c 0.3961362,0 0.7992648,0.1693907 1.2382813,0.5820313 C 9.1772977,3.7446718 9.6201692,4.3966002 9.9980469,5.2363281 10.753802,6.915784 11.25,9.329777 11.25,12 c 0,2.670197 -0.496197,5.084209 -1.2519531,6.763672 C 9.6201688,19.603403 9.1772983,20.255324 8.7382813,20.667969 8.2992642,21.080613 7.8961337,21.25 7.5,21.25 7.1038663,21.25 6.7007358,21.080613 6.2617187,20.667969 5.8227017,20.255324 5.3798312,19.603403 5.0019531,18.763672 4.246197,17.084209 3.75,14.670197 3.75,12 3.75,9.329777 4.2461977,6.915784 5.0019531,5.2363281 5.3798308,4.3966002 5.8227023,3.7446718 6.2617187,3.3320313 6.7007352,2.9193907 7.1038638,2.75 7.5,2.75 Z"
     id="path2" />
  <path
  
     d="m 7.5,1.25 v 1.5 c 0.3961362,0 0.7992648,0.1693907 1.2382813,0.5820313 C 9.1772977,3.7446718 9.6201692,4.3966002 9.9980469,5.2363281 10.753802,6.915784 11.25,9.329777 11.25,12 c 0,2.670197 -0.496197,5.084209 -1.2519531,6.763672 C 9.6201688,19.603403 9.1772983,20.255324 8.7382813,20.667969 8.2992642,21.080613 7.8961337,21.25 7.5,21.25 v 1.5 c 0.846505,0 1.6278982,-0.390817 2.265625,-0.990234 0.637727,-0.599418 1.163148,-1.410943 1.599609,-2.38086 C 12.238157,17.439073 12.75,14.852597 12.75,12 12.75,9.1473786 12.238157,6.5609217 11.365234,4.6210937 10.928773,3.6511798 10.403352,2.8396475 9.765625,2.2402344 9.1278975,1.6408212 8.3465025,1.25 7.5,1.25 Z"
     id="path3" />
  <path
  
     d="M 7.5,5.25 C 6.8875647,5.25 6.5098884,5.6831942 6.2695312,6.0898437 6.0291741,6.4964933 5.8575457,6.9897384 5.7109375,7.5761719 5.4177211,8.7490387 5.25,10.292481 5.25,12 c 0,1.707514 0.1677212,3.25096 0.4609375,4.423828 0.1466081,0.586434 0.3182369,1.079678 0.5585937,1.486328 C 6.5098881,18.316806 6.8875632,18.75 7.5,18.75 c 0.6124368,0 0.9901119,-0.433194 1.2304688,-0.839844 0.2403568,-0.40665 0.4119856,-0.899894 0.5585937,-1.486328 C 9.5822788,15.25096 9.75,13.707514 9.75,12 9.75,10.292481 9.5822789,8.7490387 9.2890625,7.5761719 9.1424543,6.9897384 8.9708259,6.4964933 8.7304688,6.0898437 8.4901116,5.6831942 8.1124353,5.25 7.5,5.25 Z m 0,1.7753906 C 7.6073068,7.2421511 7.7288957,7.519098 7.8339844,7.9394531 8.08366,8.9381566 8.25,10.393813 8.25,12 8.25,13.606182 8.08366,15.061842 7.8339844,16.060547 7.7288957,16.480903 7.607307,16.757848 7.5,16.974609 7.392693,16.757848 7.2711043,16.480903 7.1660156,16.060547 6.91634,15.061842 6.75,13.606182 6.75,12 6.75,10.393813 6.91634,8.9381566 7.1660156,7.9394531 7.2711043,7.519098 7.3926932,7.2421511 7.5,7.0253906 Z"
     id="path4" />
  <path
  
     d="m 7.5,1.25 v 1.5 h 9 v -1.5 z"
     id="path5" />
  <path
  
     d="m 7.5,21.25 v 1.5 h 9 v -1.5 z"
     id="path6" />
  <path
 
     d="M 8,11.25 A 0.75,0.75 0 0 0 7.25,12 0.75,0.75 0 0 0 8,12.75 H 9 A 0.75,0.75 0 0 0 9.75,12 0.75,0.75 0 0 0 9,11.25 Z"
     id="path7" />
</svg>
