<?xml version="1.0" encoding="UTF-8" standalone="no"?>
<svg
   width="24"
   height="24"
   viewBox="0 0 24 24"
   xmlns="http://www.w3.org/2000/svg"
   xmlns:svg="http://www.w3.org/2000/svg">
  <path d="M 14,1.25 C 12.585801,1.25 11.509329,1.24593 10.607422,1.3671875 9.7055145,1.4884454 8.9292572,1.7660553 8.3476563,2.3476563 7.7660583,2.9292542 7.4884455,3.7055175 7.3671875,4.6074219 7.2459295,5.5093262 7.25,6.5857864 7.25,8 v 8 c 0,1.414199 -0.00407,2.490678 0.1171875,3.392578 0.1212581,0.901901 0.3988767,1.67816 0.9804688,2.259766 0.5815993,0.581612 1.3578564,0.859208 2.2597657,0.980468 C 11.509331,22.754073 12.585801,22.75 14,22.75 h 1 c 1.414199,0 2.490676,0.0041 3.392578,-0.117188 0.901903,-0.121261 1.678162,-0.398865 2.259766,-0.980468 0.581603,-0.581604 0.859207,-1.357863 0.980468,-2.259766 C 21.754074,18.490676 21.75,17.414199 21.75,16 V 8 C 21.75,6.5857864 21.7541,5.5093281 21.632812,4.6074219 21.511551,3.7055157 21.233953,2.9292525 20.652344,2.3476563 20.070738,1.7660642 19.294479,1.4884456 18.392578,1.3671875 17.490678,1.2459294 16.414199,1.25 15,1.25 Z m 0,1.5 h 1 c 1.414199,0 2.459433,0.0051 3.191406,0.1035156 0.731973,0.098412 1.103297,0.2576004 1.400391,0.5546875 0.297089,0.2970829 0.456274,0.668416 0.554687,1.4003906 C 20.244898,5.5405684 20.25,6.5857864 20.25,8 v 8 c 0,1.414199 -0.0051,2.459435 -0.103516,3.191406 -0.09841,0.731971 -0.257592,1.103295 -0.554687,1.400391 -0.297096,0.297095 -0.66842,0.456274 -1.400391,0.554687 C 17.459435,21.244898 16.414199,21.25 15,21.25 h -1 c -1.414199,0 -2.459427,-0.0051 -3.191406,-0.103516 C 10.076615,21.04807 9.7052829,20.888883 9.4082031,20.591797 9.111116,20.294703 8.9519274,19.923379 8.8535156,19.191406 8.7551039,18.459433 8.75,17.414199 8.75,16 V 8 C 8.75,6.5857864 8.7551,5.5405702 8.8535156,4.8085937 8.9519274,4.0766173 9.1111219,3.7052843 9.4082031,3.4082031 9.7052813,3.1111249 10.076613,2.9519276 10.808594,2.8535156 11.540575,2.7551037 12.585801,2.75 14,2.75 Z"/>
  <path d="M 8,3.75 C 6.8214912,3.75 5.9219977,3.7447 5.15625,3.847656 4.3905023,3.9506079 3.7095497,4.192801 3.2011719,4.7011719 2.692801,5.2095497 2.4506079,5.8905023 2.3476563,6.65625 2.2447046,7.4219977 2.25,8.3214912 2.25,9.5 v 5 c 0,1.178499 -0.0053,2.078001 0.097656,2.84375 0.1029514,0.765749 0.3451634,1.446677 0.8535156,1.955078 0.5083807,0.508353 1.1893337,0.750569 1.9550781,0.853516 C 5.9219944,20.255291 6.8214912,20.25 8,20.25 v -1.5 C 6.8214912,18.75 5.9532462,18.7461 5.3574219,18.66602 4.7615976,18.585913 4.4855773,18.462128 4.2617187,18.238281 4.0378417,18.014383 3.9140903,17.738403 3.8339844,17.142578 3.7538785,16.546753 3.75,15.678499 3.75,14.5 v -5 C 3.75,8.3214912 3.75388,7.4532429 3.833984,6.8574219 3.9140901,6.2616009 4.0378604,5.9855802 4.2617187,5.7617187 4.4855802,5.5378604 4.7616009,5.4140901 5.3574219,5.3339844 5.9532429,5.2538787 6.8214912,5.25 8,5.25 Z"/>
  <path d="m 14.5,7.25 a 0.75,0.75 0 0 0 -0.53125,0.21875 l -2.5,2.5 a 0.75,0.75 0 0 0 0,1.0625 0.75,0.75 0 0 0 1.0625,0 L 13.75,9.8125 V 16 A 0.75,0.75 0 0 0 14.5,16.75 0.75,0.75 0 0 0 15.25,16 V 9.8125 l 1.21875,1.21875 a 0.75,0.75 0 0 0 1.0625,0 0.75,0.75 0 0 0 0,-1.0625 l -2.5,-2.5 A 0.75,0.75 0 0 0 14.5,7.25 Z"/>
</svg>
