<?xml version="1.0" encoding="UTF-8" standalone="no"?>
<svg
   width="24"
   height="24"
   viewBox="0 0 24 24"

   version="1.1"
   id="svg4"
   xmlns="http://www.w3.org/2000/svg"
   xmlns:svg="http://www.w3.org/2000/svg">
  <defs
     id="defs4" />
  <path

     d="m 4.8339844,10.25 c -0.3909296,0 -0.69816,-0.0025 -0.9980469,0.03125 -0.2998869,0.0338 -0.6266871,0.120108 -0.9003906,0.330078 -0.1214691,0.09321 -0.2312472,0.201158 -0.3242188,0.322266 v 0.002 C 2.4012804,11.209275 2.3150595,11.536028 2.28125,11.835938 2.2474405,12.135847 2.25,12.443085 2.25,12.833984 V 13 c 0,3.749696 -0.056621,5.790206 1.0976563,7.378906 0.3546587,0.488174 0.7852955,0.918777 1.2734374,1.273438 C 6.2098139,22.806596 8.2502737,22.75 12,22.75 c 3.749696,0 5.790206,0.05661 7.378906,-1.097656 0.48818,-0.354664 0.918774,-0.785258 1.273438,-1.273438 C 21.806608,18.790206 21.75,16.749696 21.75,13 v -0.166016 c 0,-0.390899 0.0025,-0.698154 -0.03125,-0.998046 -0.0338,-0.299893 -0.120078,-0.62666 -0.330078,-0.900391 v -0.002 C 21.29559,10.812342 21.187658,10.70441 21.066406,10.611328 h -0.002 c -0.273731,-0.21 -0.600498,-0.296279 -0.900391,-0.330078 C 19.86417,10.247451 19.556915,10.25 19.166016,10.25 Z m 0,1.5 H 19.166016 c 0.390899,0 0.671696,0.0036 0.830078,0.02148 0.158382,0.01785 0.160682,0.0327 0.15625,0.0293 0.01735,0.01332 0.03356,0.02953 0.04687,0.04687 -0.0034,-0.0044 0.01145,-0.0021 0.0293,0.15625 0.01785,0.158382 0.02148,0.439179 0.02148,0.830078 V 13 c 0,3.749696 -0.05697,5.45815 -0.8125,6.498047 -0.262136,0.36082 -0.578633,0.677317 -0.939453,0.939453 C 17.45815,21.193033 15.749696,21.25 12,21.25 8.2502737,21.25 6.5418904,21.193045 5.5019531,20.4375 5.1411559,20.175362 4.8246406,19.858873 4.5625,19.498047 3.8069587,18.45815 3.75,16.749696 3.75,13 v -0.166016 c 0,-0.390899 0.00363,-0.671712 0.021484,-0.830078 0.017853,-0.158365 0.032695,-0.160678 0.029297,-0.15625 0.013428,-0.01749 0.029684,-0.03368 0.046875,-0.04687 -0.00439,0.0034 -0.00212,-0.01145 0.1562499,-0.0293 C 4.1622714,11.753635 4.4430548,11.75 4.8339844,11.75 Z"
     id="path1" />
  <path

     d="M 6.125,1.25 C 4.2699234,1.25 2.75,2.7699234 2.75,4.625 v 1.3164062 c 0,1.7697978 1.4509054,3.2207032 3.2207031,3.2207032 0.049495,0 0.074219,0.024716 0.074219,0.074219 V 11.75 H 11.25 V 6.375 C 11.25,3.5534243 8.9465757,1.25 6.125,1.25 Z m 0,1.5 c 2.0109195,0 3.625,1.6140805 3.625,3.625 V 10.25 H 7.5449219 V 9.2363281 c 0,-0.8601564 -0.7140745,-1.5742187 -1.5742188,-1.5742187 C 5.0115636,7.6621094 4.25,6.9005457 4.25,5.9414062 V 4.625 C 4.25,3.5805795 5.0805795,2.75 6.125,2.75 Z"
     id="path2" />
  <path

     d="m 17.875,1.25 c -2.821534,0 -5.125,2.303414 -5.125,5.125 v 5.375 h 5.205078 V 9.2363281 c 0,-0.049514 0.02476,-0.074219 0.07422,-0.074219 1.769819,0 3.220703,-1.4509127 3.220703,-3.2207032 V 4.625 C 21.25,2.7699061 19.730041,1.25 17.875,1.25 Z m 0,1.5 c 1.044356,0 1.875,0.8305968 1.875,1.875 v 1.3164062 c 0,0.9591469 -0.761525,1.7207032 -1.720703,1.7207032 -0.860142,0 -1.574219,0.7140733 -1.574219,1.5742187 V 10.25 H 14.25 V 6.375 c 0,-2.0109091 1.614139,-3.625 3.625,-3.625 z"
     id="path3" />
  <path

     d="m 7.25,11 c 0,1.509917 1.2401154,2.75 2.75,2.75 h 4 c 1.509904,0 2.75,-1.240096 2.75,-2.75 h -1.5 c 0,0.699294 -0.550706,1.25 -1.25,1.25 H 10 C 9.3007468,12.25 8.75,11.699281 8.75,11 Z"
     id="path4" />
</svg>
