<?xml version="1.0" encoding="UTF-8" standalone="no"?>
<svg
   width="24"
   height="24"
   viewBox="0 0 24 24"
   version="1.1"
   id="svg5"
   xmlns="http://www.w3.org/2000/svg"
   xmlns:svg="http://www.w3.org/2000/svg">
  <defs
     id="defs5" />
  <path
     d="M 10.941406,5.8828125 C 10.520815,6.0931082 10.342014,6.5583598 10.292969,6.8925781 10.243924,7.2267964 10.25,7.5636604 10.25,8 v 5.5 l 4.132813,-3.099609 C 14.627255,10.217066 14.826169,10.075276 15.015625,9.8847656 15.205081,9.6942555 15.416016,9.3694996 15.416016,9 15.416016,8.6305004 15.20508,8.3057409 15.015625,8.1152344 14.82617,7.9247279 14.627251,7.7829358 14.382813,7.5996094 l -1.332032,-1 C 12.701727,6.3378059 12.435479,6.130048 12.138672,5.96875 11.841865,5.807452 11.362017,5.6725071 10.941406,5.8828125 Z m 0.822266,1.6464844 c 0.126967,0.089332 0.201703,0.1327161 0.386719,0.2714843 l 1.332031,1.0000001 C 13.613758,8.8992813 13.652639,8.9345484 13.734375,9 13.652645,9.06545 13.613756,9.1007225 13.482422,9.1992188 L 11.75,10.5 V 8 c 0,-0.2305976 0.009,-0.3157341 0.01367,-0.4707031 z"
     id="path6" />
  <path
     d="M 10.25,10.5 V 16 c 0,0.43635 -0.0061,0.773205 0.04297,1.107422 0.04905,0.334216 0.227865,0.79948 0.648437,1.009765 0.420605,0.210303 0.900457,0.07536 1.197266,-0.08594 0.296809,-0.161296 0.563053,-0.369054 0.912109,-0.630859 l 1.332032,-1 c 0.244426,-0.183333 0.443362,-0.32513 0.632812,-0.515625 C 15.205075,15.69427 15.416016,15.3695 15.416016,15 c 0,-0.3695 -0.210941,-0.69427 -0.400391,-0.884766 -0.18945,-0.190495 -0.388386,-0.332292 -0.632812,-0.515625 z m 1.5,3 1.732422,1.300781 c 0.131342,0.09851 0.170211,0.133761 0.251953,0.199219 -0.08174,0.06546 -0.120611,0.100705 -0.251953,0.199219 l -1.332031,1 c -0.185015,0.138767 -0.259753,0.182153 -0.386719,0.271484 C 11.758987,16.315734 11.75,16.230603 11.75,16 Z"
     id="path7" />
  <path
     d="M 12,1.25 C 9.6429774,1.25 7.860594,1.2449714 6.4140625,1.4394531 4.967531,1.6339349 3.8080817,2.0590998 2.9335938,2.9335938 2.0590998,3.8080817 1.6339349,4.967531 1.4394531,6.4140625 1.2449714,7.860594 1.25,9.6429774 1.25,12 c 0,2.356998 -0.00503,4.1394 0.1894531,5.585937 0.1944817,1.446538 0.6196331,2.606004 1.4941407,3.480469 0.8744865,0.874511 2.0339355,1.299655 3.4804687,1.494141 C 7.8605957,22.755033 9.6429774,22.75 12,22.75 c 2.356998,0 4.139398,0.005 5.585937,-0.189453 1.44654,-0.194486 2.606005,-0.619617 3.480469,-1.494141 0.874524,-0.874464 1.299655,-2.033929 1.494141,-3.480469 C 22.755033,16.139398 22.75,14.356998 22.75,12 22.75,9.6429774 22.755,7.8605957 22.560547,6.4140625 22.366061,4.9675293 21.940917,3.8080803 21.066406,2.9335938 20.191941,2.0590862 19.032475,1.6339348 17.585937,1.4394531 16.1394,1.2449715 14.356998,1.25 12,1.25 Z m 0,1.5 c 2.356998,0 4.110109,0.00415 5.386719,0.1757813 1.27661,0.1716355 2.029208,0.4783983 2.61914,1.0683593 0.589989,0.589972 0.896721,1.3425391 1.06836,2.6191406 C 21.245857,7.8898828 21.25,9.6429774 21.25,12 c 0,2.356998 -0.0041,4.110111 -0.175781,5.386719 -0.171639,1.276608 -0.478385,2.029206 -1.06836,2.61914 -0.589934,0.589975 -1.342532,0.896721 -2.61914,1.06836 C 16.110111,21.245858 14.356998,21.25 12,21.25 9.6429774,21.25 7.8898828,21.245857 6.6132812,21.074219 5.3366797,20.90258 4.5841126,20.595848 3.9941406,20.005859 3.4041796,19.415927 3.0974168,18.663329 2.9257813,17.386719 2.7541457,16.110109 2.75,14.356998 2.75,12 2.75,9.6429774 2.7541459,7.8898845 2.9257813,6.6132812 3.0974166,5.336678 3.404166,4.5841112 3.9941406,3.9941406 4.5841112,3.404166 5.336678,3.0974166 6.6132812,2.9257813 7.8898845,2.7541459 9.6429774,2.75 12,2.75 Z"
     id="path8" />
  <path
     d="M 8.48014,8.92383 C 8.16193,8.65866 7.68901,8.70165 7.42383,9.01986 7.15866,9.33807 7.20165,9.81099 7.51986,10.0762 Z M 11.4801,11.4238 8.48014,8.92383 7.51986,10.0762 l 3.00004,2.5 z"
     id="path9" />
  <path
     d="M 8.48014,15.0762 C 8.16193,15.3413 7.68901,15.2983 7.42383,14.9801 7.15866,14.6619 7.20165,14.189 7.51986,13.9238 Z m 2.99996,-2.5 -2.99996,2.5 -0.96028,-1.1524 3.00004,-2.5 z"
     id="path10" />
</svg>
