<?xml version="1.0" encoding="UTF-8" standalone="no"?>
<svg
   width="24"
   height="24"
   viewBox="0 0 24 24"
   version="1.1"
   id="svg6"
   xmlns="http://www.w3.org/2000/svg"
   xmlns:svg="http://www.w3.org/2000/svg">
  <defs
     id="defs6" />
  <path
     d="M 9.1679688,1.2714844 C 8.8613215,1.2346227 8.5524115,1.2702395 8.2636719,1.4179687 7.686192,1.713418 7.4242862,2.3434725 7.3339844,2.953125 7.2436826,3.5627775 7.25,4.2814053 7.25,5.2246094 V 13.453125 L 13.697266,8.8730469 C 14.276164,8.4619427 14.724817,8.1521167 15.083984,7.8085937 15.443152,7.4650708 15.75,6.9979054 15.75,6.4589844 15.75,5.9200639 15.443151,5.4528987 15.083984,5.109375 14.724818,4.7658513 14.276166,4.4540738 13.697266,4.0429687 L 11.958984,2.8085938 C 11.18699,2.2603689 10.603013,1.8392796 10.052734,1.5585937 9.7775951,1.4182508 9.474616,1.308346 9.1679688,1.2714844 Z M 8.9453125,2.7539063 c 0.02717,-0.013901 0.052896,-0.049576 0.4257813,0.140625 0.3728854,0.1902012 0.9487092,0.5904477 1.7207032,1.1386718 l 1.736328,1.234375 v -0.00195 c 0.578899,0.4111042 0.999017,0.7175711 1.21875,0.9277344 0.219733,0.2101632 0.203125,0.2342261 0.203125,0.265625 0,0.031408 0.01661,0.055464 -0.203125,0.265625 -0.219732,0.2101614 -0.63985,0.5146762 -1.21875,0.9257812 L 8.75,10.546875 V 5.2246094 C 8.75,4.2814053 8.7575,3.5847146 8.818359,3.1738281 8.87922,2.7629417 8.918143,2.7678067 8.9453125,2.7539063 Z"
     id="path1" />
  <path
     d="m 7.25,10.546875 v 8.228516 c 0,0.943199 -0.00632,1.661829 0.083984,2.271484 0.090301,0.609655 0.3522353,1.239673 0.9296875,1.535156 0.5774925,0.295504 1.2387875,0.140067 1.7890625,-0.140625 0.550275,-0.280691 1.134264,-0.701806 1.90625,-1.25 l 1.738282,-1.234375 C 14.276165,19.545932 14.724819,19.23414 15.083984,18.890625 15.44315,18.54711 15.75,18.079935 15.75,17.541016 c 0,-0.538925 -0.306842,-1.006071 -0.666016,-1.34961 -0.359173,-0.343538 -0.807819,-0.653353 -1.386718,-1.064453 z m 1.5,2.90625 4.078125,2.896484 c 0.578899,0.4111 0.999024,0.71562 1.21875,0.925782 0.219726,0.210161 0.203125,0.23415 0.203125,0.265625 0,0.03138 0.01661,0.05547 -0.203125,0.265625 -0.219734,0.210159 -0.639851,0.516634 -1.21875,0.927734 l -1.736328,1.232422 c -0.772002,0.548205 -1.3478142,0.948464 -1.7207032,1.138672 -0.3728891,0.190208 -0.3966713,0.154521 -0.4238282,0.140625 -0.027197,-0.01392 -0.068045,-0.009 -0.1289062,-0.419922 C 8.7574984,20.415278 8.75,19.71859 8.75,18.775391 Z"
     id="path2" />
  <path
     d="m 2.5699,14.8856 c -0.33933,0.2375 -0.42186,0.7052 -0.18432,1.0445 0.23753,0.3393 0.70518,0.4219 1.04452,0.1843 z m 0.8602,1.2288 5,-3.5 -0.8602,-1.2288 -5,3.5 z"
     id="path3" />
  <path
     d="M 2.5699,9.11442 C 2.23057,8.87689 2.14804,8.40924 2.38558,8.0699 2.62311,7.73057 3.09076,7.64804 3.4301,7.88558 Z m 0.8602,-1.22884 5,3.50002 -0.8602,1.2288 -5,-3.49998 z"
     id="path4" />
  <path

     d="m 18.482422,4.4570312 a 0.75,0.75 0 0 0 -0.02539,1.0605469 c 0,0 0.39538,0.4005626 0.855469,1.4472656 C 19.772589,8.0115468 20.25,9.6520432 20.25,12 c 0,2.347957 -0.477411,3.988453 -0.9375,5.035156 -0.460089,1.046703 -0.855469,1.447266 -0.855469,1.447266 a 0.75,0.75 0 0 0 0.02539,1.060547 0.75,0.75 0 0 0 1.060547,-0.02539 c 0,0 0.604621,-0.650611 1.144531,-1.878906 C 21.22741,16.410377 21.75,14.552038 21.75,12 21.75,9.4479617 21.22741,7.5896228 20.6875,6.3613281 20.14759,5.1330335 19.542969,4.4824219 19.542969,4.4824219 a 0.75,0.75 0 0 0 -1.060547,-0.025391 z"
     id="path5" />
  <path

     d="m 17.222656,7.2832031 a 0.75,0.75 0 0 0 -0.572265,0.052734 0.75,0.75 0 0 0 -0.314454,1.0136719 c 0,0 0.914063,1.788488 0.914063,3.650391 0,1.861903 -0.914062,3.650391 -0.914063,3.650391 a 0.75,0.75 0 0 0 0.314454,1.013671 0.75,0.75 0 0 0 1.013671,-0.314453 c 0,0 1.085938,-2.011516 1.085938,-4.349609 0,-2.3380933 -1.085938,-4.3496098 -1.085938,-4.3496098 A 0.75,0.75 0 0 0 17.222656,7.2832031 Z"
     id="path6" />
</svg>
