<?xml version="1.0" encoding="UTF-8" standalone="no"?>
<svg
   width="24"
   height="24"
   viewBox="0 0 24 24"

   version="1.1"
   id="svg5"
   xmlns="http://www.w3.org/2000/svg"
   xmlns:svg="http://www.w3.org/2000/svg">
  <defs
     id="defs5" />
  <path

     d="M 10,3.25 C 8.1143819,3.25 6.6859363,3.2444746 5.5117187,3.4023438 4.3375012,3.5602129 3.3686723,3.9125839 2.640625,4.640625 1.9125839,5.3686723 1.5602129,6.3375012 1.4023437,7.5117187 1.2444746,8.6859363 1.25,10.114382 1.25,12 c 0,1.885598 -0.00553,3.314057 0.1523437,4.488281 0.1578691,1.174225 0.5102188,2.143075 1.2382813,2.871094 0.7280455,0.728058 1.6968741,1.080408 2.8710937,1.238281 C 6.6859384,20.75553 8.1143819,20.75 10,20.75 h 4 c 1.885598,0 3.314055,0.0055 4.488281,-0.152344 1.174227,-0.157873 2.143077,-0.510202 2.871094,-1.238281 0.728079,-0.728017 1.080408,-1.696867 1.238281,-2.871094 C 22.75553,15.314055 22.75,13.885598 22.75,12 22.75,10.114382 22.75553,8.6859384 22.597656,7.5117187 22.439783,6.3374991 22.087433,5.3686705 21.359375,4.640625 20.631356,3.9125625 19.662506,3.5602128 18.488281,3.4023438 17.314057,3.2444747 15.885598,3.25 14,3.25 Z m 0,1.5 h 4 c 1.885598,0 3.284764,0.0056 4.289062,0.140625 1.004299,0.1350232 1.566286,0.3670405 2.009766,0.8105469 0.443541,0.4435333 0.675521,1.0054774 0.810547,2.0097656 C 21.244401,8.7152257 21.25,10.114382 21.25,12 c 0,1.885598 -0.0056,3.284766 -0.140625,4.289062 -0.135026,1.004297 -0.367027,1.566284 -0.810547,2.009766 -0.443482,0.44352 -1.005469,0.675521 -2.009766,0.810547 C 17.284766,19.244401 15.885598,19.25 14,19.25 H 10 C 8.1143819,19.25 6.7152257,19.2444 5.7109375,19.109375 4.7066493,18.974349 4.1447052,18.742369 3.7011719,18.298828 3.2576655,17.855348 3.0256482,17.293361 2.890625,16.289062 2.7556018,15.284764 2.75,13.885598 2.75,12 2.75,10.114382 2.7556019,8.7152278 2.890625,7.7109375 3.0256481,6.7066472 3.2576441,6.1447034 3.7011719,5.7011719 4.1447034,5.2576441 4.7066472,5.0256481 5.7109375,4.890625 6.7152278,4.7556019 8.1143819,4.75 10,4.75 Z"
     id="path6" />
  <path

     d="m 15.75,10.75 c -1.647958,0 -3,1.352042 -3,3 0,1.647958 1.352042,3 3,3 1.647958,0 3,-1.352042 3,-3 0,-1.647958 -1.352042,-3 -3,-3 z m 0,1.5 c 0.837239,0 1.5,0.662761 1.5,1.5 0,0.837239 -0.662761,1.5 -1.5,1.5 -0.837239,0 -1.5,-0.662761 -1.5,-1.5 0,-0.837239 0.662761,-1.5 1.5,-1.5 z"
     id="path7" />
  <path

     d="m 8.25,10.75 c -1.647985,0 -3,1.352058 -3,3 0,1.647942 1.352015,3 3,3 1.647985,0 3,-1.352058 3,-3 0,-1.647942 -1.352015,-3 -3,-3 z m 0,1.5 c 0.8372925,0 1.5,0.662744 1.5,1.5 0,0.837256 -0.6627075,1.5 -1.5,1.5 -0.8372925,0 -1.5,-0.662744 -1.5,-1.5 0,-0.837256 0.6627075,-1.5 1.5,-1.5 z"
     id="path8" />
  <path

     d="M 6.2363281,3.796875 A 0.75,0.75 0 0 0 5.796875,4.7636719 l 0.5273437,1.4042968 c 0.4708,1.25548 0.7311918,2.0617147 1.4960938,2.5917969 C 8.5852233,9.2898539 9.4306457,9.25 10.771484,9.25 h 2.457032 c 1.340798,0 2.186244,0.039886 2.951171,-0.4902344 0.764879,-0.5300868 1.025294,-1.3363169 1.496094,-2.5917969 L 18.203125,4.7636719 A 0.75,0.75 0 0 0 17.763672,3.796875 0.75,0.75 0 0 0 16.796875,4.2363281 L 16.271484,5.640625 C 15.800685,6.8961025 15.589092,7.3451312 15.326172,7.5273437 15.0633,7.7095229 14.569314,7.75 13.228516,7.75 H 10.771484 C 9.4306457,7.75 8.9367563,7.7095547 8.6738281,7.5273437 8.4108912,7.3451267 8.1993147,6.8961025 7.7285156,5.640625 L 7.203125,4.2363281 A 0.75,0.75 0 0 0 6.2363281,3.796875 Z"
     id="path9" />
  <path

     d="M 12,3.25 A 0.75,0.75 0 0 0 11.25,4 V 8.5 A 0.75,0.75 0 0 0 12,9.25 0.75,0.75 0 0 0 12.75,8.5 V 4 A 0.75,0.75 0 0 0 12,3.25 Z"
     id="path10" />
</svg>
