<?xml version="1.0" encoding="UTF-8" standalone="no"?>
<svg
   width="24"
   height="24"
   viewBox="0 0 24 24"
   version="1.1"
   id="svg4"
   xmlns="http://www.w3.org/2000/svg"
   xmlns:svg="http://www.w3.org/2000/svg">
  <defs
     id="defs4" />
  <path
     d="M 10,1.25 C 8.1143819,1.25 6.6859363,1.2444746 5.5117187,1.4023437 4.3375012,1.5602129 3.3686723,1.9125839 2.640625,2.640625 1.9125839,3.3686723 1.5602129,4.3375012 1.4023437,5.5117187 1.2444746,6.6859363 1.25,8.1143819 1.25,10 v 1 c 0,1.414199 -0.00407,2.490678 0.1171875,3.392578 0.1212581,0.901901 0.3988767,1.67816 0.9804688,2.259766 0.5815962,0.581609 1.3578594,0.859207 2.2597656,0.980468 C 5.5093281,17.754074 6.5857864,17.75 8,17.75 h 8 c 1.414199,0 2.490676,0.0041 3.392578,-0.117188 0.901903,-0.121261 1.678162,-0.398865 2.259766,-0.980468 0.581603,-0.581604 0.859207,-1.357863 0.980468,-2.259766 C 22.754074,13.490676 22.75,12.414199 22.75,11 V 10 C 22.75,8.1143819 22.7555,6.6859384 22.597656,5.5117187 22.439783,4.3374991 22.087433,3.3686705 21.359375,2.640625 20.631356,1.9125625 19.662506,1.5602128 18.488281,1.4023437 17.314057,1.2444747 15.885598,1.25 14,1.25 Z m 0,1.5 h 4 c 1.885598,0 3.284764,0.0056 4.289062,0.140625 1.004299,0.1350232 1.566286,0.3670405 2.009766,0.8105469 0.443541,0.4435333 0.675521,1.0054774 0.810547,2.0097656 C 21.244401,6.7152257 21.25,8.1143819 21.25,10 v 1 c 0,1.414199 -0.0051,2.459435 -0.103516,3.191406 -0.09841,0.731971 -0.257592,1.103295 -0.554687,1.400391 -0.297096,0.297095 -0.66842,0.456274 -1.400391,0.554687 C 18.459435,16.244898 17.414199,16.25 16,16.25 H 8 C 6.5857864,16.25 5.5405684,16.2449 4.8085937,16.146484 4.0766191,16.048071 3.705286,15.888886 3.4082031,15.591797 3.111116,15.294703 2.9519274,14.923379 2.8535156,14.191406 2.7551039,13.459433 2.75,12.414199 2.75,11 V 10 C 2.75,8.1143819 2.7556,6.7152278 2.890625,5.7109375 3.0256481,4.7066472 3.2576441,4.1447034 3.7011719,3.7011719 4.1447034,3.2576441 4.7066472,3.0256481 5.7109375,2.890625 6.7152278,2.7556019 8.1143819,2.75 10,2.75 Z"
     id="path1" />
  <path
     d="M 8,21.25 A 0.75,0.75 0 0 0 7.25,22 0.75,0.75 0 0 0 8,22.75 h 8 A 0.75,0.75 0 0 0 16.75,22 0.75,0.75 0 0 0 16,21.25 Z"
     id="path2" />
  <path
     d="M 12,16.25 A 0.75,0.75 0 0 0 11.25,17 v 5 A 0.75,0.75 0 0 0 12,22.75 0.75,0.75 0 0 0 12.75,22 V 17 A 0.75,0.75 0 0 0 12,16.25 Z"
     id="path3" />
  <path
     d="M 2,12.25 A 0.75,0.75 0 0 0 1.25,13 0.75,0.75 0 0 0 2,13.75 H 22 A 0.75,0.75 0 0 0 22.75,13 0.75,0.75 0 0 0 22,12.25 Z"
     id="path4" />
</svg>
