<?xml version="1.0" encoding="UTF-8" standalone="no"?>
<svg
   width="24"
   height="24"
   viewBox="0 0 24 24"
   version="1.1"
   id="svg7"
   xmlns="http://www.w3.org/2000/svg"
   xmlns:svg="http://www.w3.org/2000/svg">
  <defs
     id="defs7" />
  <path
     d="m 13,21.75 c 0.4142,0 0.75,-0.3358 0.75,-0.75 0,-0.4142 -0.3358,-0.75 -0.75,-0.75 z M 3.17157,19.8284 3.7019,19.2981 v 0 z M 20.8284,4.17157 20.2981,4.7019 v 0 z M 21.25,13 c 0,0.4142 0.3358,0.75 0.75,0.75 0.4142,0 0.75,-0.3358 0.75,-0.75 z M 10,3.75 h 4 V 2.25 H 10 Z M 2.75,13 v -1 h -1.5 v 1 z m 0,-1 v -1 h -1.5 v 1 z M 13,20.25 h -3 v 1.5 h 3 z M 21.25,11 v 1 h 1.5 v -1 z m -20,2 c 0,1.8644 -0.00159,3.3382 0.15313,4.489 0.15763,1.1724 0.48975,2.1214 1.23811,2.8698 L 3.7019,19.2981 C 3.27869,18.8749 3.02502,18.2952 2.88976,17.2892 2.75159,16.2615 2.75,14.9068 2.75,13 Z M 10,20.25 C 8.09318,20.25 6.73851,20.2484 5.71085,20.1102 4.70476,19.975 4.12511,19.7213 3.7019,19.2981 l -1.06066,1.0607 c 0.74837,0.7483 1.69731,1.0804 2.86974,1.2381 C 6.66182,21.7516 8.13558,21.75 10,21.75 Z m 4,-16.5 c 1.9068,0 3.2615,0.00159 4.2892,0.13976 1.006,0.13526 1.5857,0.38893 2.0089,0.81214 L 21.3588,3.64124 C 20.6104,2.89288 19.6614,2.56076 18.489,2.40313 17.3382,2.24841 15.8644,2.25 14,2.25 Z M 22.75,11 C 22.75,9.13558 22.7516,7.66182 22.5969,6.51098 22.4392,5.33855 22.1071,4.38961 21.3588,3.64124 L 20.2981,4.7019 C 20.7213,5.12511 20.975,5.70476 21.1102,6.71085 21.2484,7.73851 21.25,9.09318 21.25,11 Z M 10,2.25 C 8.13558,2.25 6.66182,2.24841 5.51098,2.40313 4.33856,2.56076 3.38961,2.89288 2.64124,3.64124 L 3.7019,4.7019 C 4.12511,4.27869 4.70476,4.02502 5.71085,3.88976 6.73851,3.75159 8.09318,3.75 10,3.75 Z M 2.75,11 C 2.75,9.09318 2.75159,7.73851 2.88976,6.71085 3.02502,5.70476 3.27869,5.12511 3.7019,4.7019 L 2.64124,3.64124 C 1.89288,4.38961 1.56076,5.33855 1.40313,6.51098 1.24841,7.66182 1.25,9.13558 1.25,11 Z M 2,12.75 h 20 v -1.5 H 2 Z M 21.25,12 v 1 h 1.5 v -1 z"

     id="path1" />
  <path

     d="M 13.5,6.75 A 0.75,0.75 0 0 0 12.75,7.5 0.75,0.75 0 0 0 13.5,8.25 H 18 A 0.75,0.75 0 0 0 18.75,7.5 0.75,0.75 0 0 0 18,6.75 Z"
     id="path2" />
  <path

     d="M 6,14.75 A 0.75,0.75 0 0 0 5.25,15.5 v 2 A 0.75,0.75 0 0 0 6,18.25 0.75,0.75 0 0 0 6.75,17.5 v -2 A 0.75,0.75 0 0 0 6,14.75 Z"
     id="path3" />
  <path

     d="M 6,5.75 A 0.75,0.75 0 0 0 5.25,6.5 v 2 A 0.75,0.75 0 0 0 6,9.25 0.75,0.75 0 0 0 6.75,8.5 v -2 A 0.75,0.75 0 0 0 6,5.75 Z"
     id="path4" />
  <path

     d="M 9,14.75 A 0.75,0.75 0 0 0 8.25,15.5 v 2 A 0.75,0.75 0 0 0 9,18.25 0.75,0.75 0 0 0 9.75,17.5 v -2 A 0.75,0.75 0 0 0 9,14.75 Z"
     id="path5" />
  <path

     d="M 9,5.75 A 0.75,0.75 0 0 0 8.25,6.5 v 2 A 0.75,0.75 0 0 0 9,9.25 0.75,0.75 0 0 0 9.75,8.5 v -2 A 0.75,0.75 0 0 0 9,5.75 Z"
     id="path6" />
  <path

     d="m 18.666016,14.25 c -1.533759,0 -2.75,1.314876 -2.75,2.867187 0,0.0688 0.02859,0.129465 0.0332,0.197266 C 15.002369,17.600345 14.25,18.369591 14.25,19.412109 14.25,20.672061 15.2424,21.75 16.5,21.75 H 20 c 1.533758,0 2.75,-1.314876 2.75,-2.867188 0,-1.074818 -0.630789,-1.952129 -1.501953,-2.443359 A 0.75,0.75 0 0 0 21.1875,16.371094 C 20.853811,15.196258 19.923834,14.25 18.666016,14.25 Z m 0,1.5 c 0.320288,0 0.613908,0.134109 0.83789,0.355469 -0.14448,0.02822 -0.298312,0.02754 -0.433594,0.07813 a 0.75,0.75 0 0 0 -0.439453,0.964843 0.75,0.75 0 0 0 0.964844,0.439454 c 0.127112,-0.04753 0.261387,-0.07227 0.404297,-0.07227 0.140056,0 0.271987,0.02275 0.396484,0.06836 C 20.87229,17.758341 21.25,18.259211 21.25,18.882812 21.25,19.669499 20.675439,20.25 20,20.25 h -3.5 c -0.399199,0 -0.75,-0.343644 -0.75,-0.837891 0,-0.49439 0.350801,-0.83789 0.75,-0.83789 0.04759,0 0.09367,0.0043 0.138672,0.01367 0.09323,0.0194 0.181011,0.05801 0.261719,0.115234 a 0.75,0.75 0 0 0 1.044921,-0.177734 0.75,0.75 0 0 0 -0.177734,-1.046875 c -0.0924,-0.06551 -0.212062,-0.08557 -0.314453,-0.136719 -0.0118,-0.07533 -0.03711,-0.144585 -0.03711,-0.22461 0,-0.786686 0.57456,-1.367187 1.25,-1.367187 z"
     id="path7" />
</svg>
