<?xml version="1.0" encoding="UTF-8" standalone="no"?>
<svg
   width="24"
   height="24"
   viewBox="0 0 24 24"

   version="1.1"
   id="svg3"
   xmlns="http://www.w3.org/2000/svg"
   xmlns:svg="http://www.w3.org/2000/svg">
  <defs
     id="defs3" />
  <path

     d="M 19.326172,1.3007812 C 18.924716,1.1950499 18.511038,1.2766182 18.166016,1.4160156 17.820993,1.5554131 17.488647,1.7492122 17.060547,1.9921875 L 13.376953,4.0839844 C 12.961355,4.3198386 12.633779,4.4999553 12.34375,4.7207031 12.056181,4.9395781 11.782583,5.2507755 11.673828,5.6445312 L 8.1894531,7.6210937 C 7.7738726,7.8569491 7.4462677,8.0370627 7.15625,8.2578125 6.8686894,8.4766921 6.5950923,8.7898574 6.4863281,9.1835938 L 3.0527344,11.132813 c -0.4281281,0.242954 -0.7644369,0.427728 -1.0605469,0.652343 -0.29611,0.224616 -0.5795368,0.540144 -0.6894531,0.94336 -0.1098994,0.403215 -0.023869,0.820073 0.1191406,1.162109 0.1430096,0.342036 0.3407197,0.669001 0.5878906,1.089844 0.2471786,0.420856 0.4348579,0.752974 0.6640625,1.044922 0.2292047,0.291947 0.5516769,0.568103 0.953125,0.673828 0.4008667,0.105033 0.8156809,0.02394 1.1601563,-0.115235 0.3450497,-0.139407 0.675396,-0.333172 1.1035156,-0.576172 L 9.3125,14.064453 c 0.00577,0.0016 0.00787,0.0082 0.013672,0.0098 0.3902339,0.104581 0.792372,0.02592 1.123047,-0.107422 0.330675,-0.133342 0.646322,-0.31732 1.050781,-0.546875 l 3.523438,-2.001953 c 0.0058,0.0016 0.0079,0.0082 0.01367,0.0098 0.3903,0.1046 0.794343,0.02593 1.125,-0.107421 0.330658,-0.13335 0.644438,-0.317381 1.048828,-0.546875 l 3.73633,-2.1192101 C 21.375353,8.4113289 21.711698,8.2246157 22.007812,8 22.303927,7.7753843 22.587364,7.4599228 22.697266,7.0566406 22.807155,6.6534125 22.721129,6.2365481 22.578125,5.8945312 22.435121,5.5525144 22.237378,5.225522 21.990234,4.8046875 L 20.941406,3.0195313 C 20.694251,2.5986821 20.506549,2.2665694 20.277344,1.9746094 20.048138,1.6826493 19.72763,1.4065228 19.326172,1.3007812 Z m -0.382813,1.4511719 c 0.01814,0.00478 0.03143,-0.00612 0.154297,0.1503907 0.122869,0.1565094 0.303637,0.456123 0.550781,0.8769531 l 1.048829,1.7851562 c 0.247155,0.4208547 0.420023,0.726268 0.496093,0.9082031 0.07607,0.1819352 0.05915,0.1802417 0.05664,0.1894532 -0.0025,0.00917 0.0097,0.021109 -0.150391,0.1425781 -0.160134,0.121469 -0.464466,0.3019404 -0.892578,0.5449219 L 16.470703,9.46875 c -0.404408,0.2295048 -0.696373,0.3912626 -0.86914,0.4609375 -0.172768,0.069675 -0.170182,0.050329 -0.175782,0.048828 -0.0057,-0.00152 -0.01215,0.015871 -0.126953,-0.1308593 C 15.184021,9.700926 15.010948,9.4166125 14.775391,9.015625 L 13.65625,7.1074219 c -0.242,-0.4120296 -0.412214,-0.7097785 -0.486328,-0.8867188 -0.07411,-0.1769403 -0.05624,-0.1738947 -0.05469,-0.1796875 0.0015,-0.00575 -0.01593,-0.010771 0.136719,-0.1269531 0.152645,-0.1161818 0.449634,-0.2914884 0.865235,-0.5273438 L 17.800781,3.296875 c 0.428099,-0.2429742 0.737804,-0.4142871 0.925781,-0.4902344 0.187978,-0.075947 0.198654,-0.059466 0.216797,-0.054687 z m -6.947265,4.4335938 c 0.113826,0.2161368 0.212607,0.4184512 0.367187,0.6816406 l 1.119141,1.9082031 c 0.137651,0.2343224 0.252313,0.3958114 0.371094,0.5820314 l -3.09375,1.757812 c -0.404441,0.229545 -0.698349,0.389327 -0.8710941,0.458985 -0.1727447,0.06966 -0.1681625,0.0523 -0.1738281,0.05078 -0.00561,-0.0015 -0.012171,0.01584 -0.1269532,-0.130859 C 9.4731089,12.347445 9.2999729,12.061156 9.0644531,11.660156 L 8.46875,10.646484 C 8.2267543,10.234492 8.0565305,9.9366952 7.9824219,9.7597656 7.9083132,9.5828361 7.9261875,9.5858519 7.9277344,9.5800781 7.9292822,9.5743008 7.9118112,9.5693099 8.0644531,9.453125 8.217095,9.3369401 8.5141089,9.1616355 8.9296875,8.9257813 Z M 6.8085937,10.724609 c 0.1137268,0.215858 0.2128232,0.418839 0.3671875,0.681641 l 0.5957032,1.013672 c 0.1377743,0.234577 0.2521949,0.397601 0.3710937,0.583984 l -2.9921875,1.699219 c -0.4281195,0.243 -0.7378164,0.414292 -0.9257812,0.490234 -0.1879648,0.07594 -0.1987115,0.05946 -0.2167969,0.05469 -0.018131,-0.0048 -0.031429,0.0061 -0.1542969,-0.150391 C 3.7306481,14.941155 3.5499053,14.641546 3.3027344,14.220703 3.0555558,13.799847 2.8827008,13.494413 2.8066406,13.3125 2.7305804,13.130587 2.7474695,13.132331 2.75,13.123047 2.7525,13.113847 2.74027,13.101927 2.9003906,12.980469 3.0605102,12.859009 3.3648577,12.680445 3.7929688,12.4375 Z"
     id="path1" />
  <path

     d="m 11.708984,11.808594 a 0.75,0.75 0 0 0 -0.40039,0.982422 l 4,9.5 a 0.75,0.75 0 0 0 0.982422,0.40039 0.75,0.75 0 0 0 0.40039,-0.982422 l -4,-9.5 a 0.75,0.75 0 0 0 -0.982422,-0.40039 z"
     id="path2" />
  <path

     d="m 12.291016,11.808594 a 0.75,0.75 0 0 0 -0.982422,0.40039 l -4.0000003,9.5 a 0.75,0.75 0 0 0 0.4003907,0.982422 0.75,0.75 0 0 0 0.9824219,-0.40039 l 3.9999997,-9.5 a 0.75,0.75 0 0 0 -0.40039,-0.982422 z"
     id="path3" />
</svg>
