<?xml version="1.0" encoding="UTF-8" standalone="no"?>
<svg
   width="24"
   height="24"
   viewBox="0 0 24 24"
  
   version="1.1"
   id="svg3"
   xmlns="http://www.w3.org/2000/svg"
   xmlns:svg="http://www.w3.org/2000/svg">
  <defs
     id="defs3" />
  <path
    
     d="m 12,1.25 c -4.1481308,0 -7.5,3.4965973 -7.5,7.7558594 v 0.703125 c 0,0.7030436 -0.2010823,1.3897626 -0.5742187,1.9707036 h 0.00195 l -1.109375,1.724609 c -1.2723654,1.980862 -0.2986412,4.704105 1.9472656,5.339844 4.7353653,1.340444 9.7334611,1.340446 14.4687501,0 2.245982,-0.635728 3.217746,-3.358994 1.945312,-5.339844 l -1.107421,-1.724609 h 0.002 C 19.701082,11.09872 19.5,10.411998 19.5,9.7089844 V 9.0058594 C 19.5,4.746596 16.148095,1.25 12,1.25 Z m 0,1.5 c 3.306697,0 6,2.7776505 6,6.2558594 v 0.703125 c 0,0.9882446 0.279885,1.9550186 0.810547,2.7812496 l 1.107422,1.72461 c 0.750764,1.168746 0.181017,2.725666 -1.091797,3.085937 -4.469301,1.265152 -9.1829584,1.265153 -13.6523439,0 -1.2727097,-0.36026 -1.8425094,-1.917202 -1.0917969,-3.085937 l 1.1074219,-1.72461 C 5.7201558,11.663977 6,10.697199 6,9.7089844 V 9.0058594 C 6,5.5276492 8.6932582,2.75 12,2.75 Z"
     id="path1" />
  <path

     d="M 7.2363281,18.296875 A 0.75,0.75 0 0 0 6.796875,19.263672 C 7.5661792,21.316387 9.6210963,22.75 12,22.75 c 2.378869,0 4.433846,-1.433587 5.203125,-3.486328 a 0.75,0.75 0 0 0 -0.439453,-0.966797 0.75,0.75 0 0 0 -0.966797,0.439453 C 15.256155,20.179183 13.776126,21.25 12,21.25 10.223828,21.25 8.7438795,20.17921 8.203125,18.736328 A 0.75,0.75 0 0 0 7.2363281,18.296875 Z"
     id="path2" />
  <path

     d="M 12,5.25 A 0.75,0.75 0 0 0 11.25,6 v 4 A 0.75,0.75 0 0 0 12,10.75 0.75,0.75 0 0 0 12.75,10 V 6 A 0.75,0.75 0 0 0 12,5.25 Z"
     id="path3" />
</svg>
