<?xml version="1.0" encoding="UTF-8" standalone="no"?>
<svg
   width="24"
   height="24"
   viewBox="0 0 24 24"
   version="1.1"
   id="svg2"
   xmlns="http://www.w3.org/2000/svg"
   xmlns:svg="http://www.w3.org/2000/svg">
  <defs
     id="defs2" />
  <path
     d="M 6.9492187,1.25 C 6.0666896,1.25 5.5941676,1.2424 5.1191406,1.332031 3.1999707,1.6941292 1.6941292,3.1999707 1.3320312,5.1191406 1.2424047,5.5941676 1.25,6.0666896 1.25,6.9492187 V 14 c 0,1.885598 -0.00553,3.314057 0.1523437,4.488281 0.1578691,1.174225 0.5102188,2.143075 1.2382813,2.871094 0.7280455,0.728058 1.6968741,1.080408 2.8710937,1.238281 C 6.6859384,22.75553 8.1143819,22.75 10,22.75 h 4 c 1.885598,0 3.314055,0.0055 4.488281,-0.152344 1.174227,-0.157873 2.143077,-0.510202 2.871094,-1.238281 0.728079,-0.728017 1.080408,-1.696867 1.238281,-2.871094 C 22.75553,17.314055 22.75,15.885598 22.75,14 v -2.201172 c 0,-1.316179 0.0046,-2.3178477 -0.101563,-3.1621092 C 22.542289,7.7924572 22.301698,7.0621285 21.789062,6.4921875 21.700492,6.3936075 21.606197,6.2994208 21.507812,6.2109375 20.937847,5.6983553 20.207532,5.4577056 19.363281,5.3515625 18.519031,5.2454194 17.517371,5.25 16.201172,5.25 h -0.373047 c -1.153699,0 -1.661038,-0.010559 -2.0625,-0.125 C 13.525641,5.0565888 13.29409,4.9610919 13.076172,4.8398437 12.711359,4.6368513 12.347049,4.2845292 11.53125,3.46875 L 10.980469,2.9199219 C 10.707075,2.6465086 10.555803,2.4936428 10.375,2.34375 9.6394996,1.7340548 8.736365,1.3604331 7.7851562,1.2714844 7.5513147,1.2496117 7.3358884,1.25 6.9492187,1.25 Z m 0,1.5 c 0.3866697,0 0.5594876,7.846e-4 0.6972657,0.013672 0.6509496,0.060871 1.268146,0.3171312 1.7714844,0.734375 0.106517,0.088307 0.2285469,0.2089957 0.5019531,0.4824219 L 10.46875,4.53125 c 0.815799,0.8157792 1.26692,1.2786136 1.878906,1.6191406 0.318681,0.1773116 0.657197,0.3180202 1.007813,0.4179688 C 14.029006,6.7603581 14.674426,6.75 15.828125,6.75 h 0.373047 c 1.316199,0 2.290765,0.00362 2.976562,0.089844 0.685798,0.086222 1.040538,0.2294511 1.326172,0.4863282 0.05902,0.053076 0.11514,0.1091689 0.167969,0.1679687 v 0.00195 h 0.002 c 0.256864,0.2855782 0.400102,0.64037 0.486328,1.3261719 0.08618,0.6858047 0.0898,1.6603862 0.0898,2.9765652 V 14 c 0,1.885598 -0.0056,3.284766 -0.140625,4.289062 -0.135026,1.004297 -0.367027,1.566284 -0.810547,2.009766 -0.443482,0.44352 -1.005469,0.675521 -2.009766,0.810547 C 17.284766,21.244401 15.885598,21.25 14,21.25 H 10 C 8.1143819,21.25 6.7152257,21.2444 5.7109375,21.109375 4.7066493,20.974349 4.1447052,20.742369 3.7011719,20.298828 3.2576655,19.855348 3.0256482,19.293361 2.890625,18.289062 2.7556018,17.284764 2.75,15.885598 2.75,14 V 6.9492187 C 2.75,6.0666896 2.75757,5.6565766 2.806641,5.3964844 3.0551221,4.0794975 4.0794975,3.0551221 5.3964844,2.8066406 5.6565766,2.7575673 6.0666896,2.75 6.9492187,2.75 Z"
     id="path1" />
  <path
     d="m 12.191406,9.25 c -1.637913,0 -3.0371091,1.260177 -3.0371091,2.867188 0,0.0574 0.027684,0.107335 0.03125,0.164062 C 8.1315646,12.532175 7.25,13.298733 7.25,14.412109 7.25,15.726735 8.392529,16.75 9.7148438,16.75 h 4.0000002 c 1.637913,0 3.035156,-1.260194 3.035156,-2.867187 0,-1.135935 -0.75425,-2.032115 -1.740234,-2.496094 a 0.75,0.75 0 0 0 -0.07031,-0.08203 C 14.537847,10.138425 13.513126,9.25 12.191406,9.25 Z m 0,1.5 c 0.395274,0 0.733397,0.141072 0.998047,0.347656 -0.156792,0.02649 -0.322819,0.02581 -0.470703,0.07422 a 0.75,0.75 0 0 0 -0.478516,0.947266 0.75,0.75 0 0 0 0.945313,0.478515 c 0.163689,-0.05358 0.341625,-0.08203 0.529297,-0.08203 0.184007,0 0.356647,0.02849 0.517578,0.08008 C 14.84706,12.792755 15.25,13.302523 15.25,13.882813 15.25,14.614817 14.601728,15.25 13.714844,15.25 H 9.7148438 C 9.1436003,15.25 8.75,14.851682 8.75,14.412109 c 0,-0.439722 0.3936003,-0.83789 0.9648438,-0.83789 0.068321,0 0.1333972,0.006 0.1972656,0.01758 0.1331396,0.02425 0.2547166,0.0718 0.3593746,0.136719 a 0.75,0.75 0 0 0 1.033204,-0.24219 0.75,0.75 0 0 0 -0.242188,-1.033203 c -0.111471,-0.06914 -0.248656,-0.09122 -0.371094,-0.142578 -0.01069,-0.06501 -0.03711,-0.124848 -0.03711,-0.193359 0,-0.731988 0.650225,-1.367188 1.537109,-1.367188 z"
     id="path2" />
</svg>
