<?xml version="1.0" encoding="utf-8"?>
<!-- Generator: Adobe Illustrator 27.9.0, SVG Export Plug-In . SVG Version: 6.00 Build 0)  -->
<svg version="1.1" id="Calque_1" xmlns="http://www.w3.org/2000/svg" xmlns:xlink="http://www.w3.org/1999/xlink" x="0px" y="0px"
	 viewBox="0 0 24 24" style="enable-background:new 0 0 24 24;" xml:space="preserve">
<style type="text/css">
	.st0{fill-rule:evenodd;clip-rule:evenodd;}
</style>
<g>
	<path class="st0" d="M22.3,9.8c-0.4-0.9-1.2-1.6-2.4-2.7c0,0-0.1-0.1-0.1-0.1l-4-3.6c0,0-0.1-0.1-0.1-0.1c-1-0.9-1.7-1.5-2.5-1.8
		c-0.8-0.3-1.7-0.3-3.1-0.3c0,0-0.1,0-0.1,0H10c-1.8,0-3.3,0-4.5,0.2C4.3,1.6,3.4,1.9,2.6,2.6C1.9,3.4,1.6,4.3,1.4,5.5
		C1.2,6.7,1.2,8.1,1.2,9.9v4.1c0,1.8,0,3.3,0.2,4.4c0.2,1.2,0.5,2.1,1.2,2.9c0.7,0.7,1.7,1.1,2.9,1.2c1.1,0.2,2.6,0.2,4.4,0.2h4.1
		c1.8,0,3.3,0,4.4-0.2c1.2-0.2,2.1-0.5,2.9-1.2c0.7-0.7,1.1-1.7,1.2-2.9c0.2-1.1,0.2-2.6,0.2-4.4v-0.5c0-0.1,0-0.1,0-0.2
		C22.8,11.8,22.8,10.8,22.3,9.8z M13.8,3.6c0.3,0.2,0.7,0.6,1.1,1l4,3.6C19.3,8.6,19.7,9,20,9.3h-2c-1.2,0-2,0-2.6-0.1
		c-0.6-0.1-0.9-0.2-1.1-0.4s-0.3-0.5-0.4-1.1C13.8,7,13.8,6.2,13.8,5V3.6z M21.2,14c0,1.9,0,3.3-0.1,4.3c-0.1,1-0.4,1.6-0.8,2
		c-0.4,0.4-1,0.7-2,0.8c-1,0.1-2.4,0.1-4.3,0.1h-4c-1.9,0-3.3,0-4.3-0.1c-1-0.1-1.6-0.4-2-0.8c-0.4-0.4-0.7-1-0.8-2
		c-0.1-1-0.1-2.4-0.1-4.3v-4c0-1.9,0-3.3,0.1-4.3c0.1-1,0.4-1.6,0.8-2c0.4-0.4,1-0.7,2-0.8c1-0.1,2.4-0.1,4.3-0.1
		c1.1,0,1.8,0,2.2,0.1v2.2c0,1.1,0,2.1,0.1,2.8c0.1,0.8,0.3,1.4,0.9,2c0.5,0.5,1.2,0.8,2,0.9c0.7,0.1,1.7,0.1,2.8,0.1h3.1
		c0.2,0.5,0.2,1.3,0.2,2.8V14z"/>
	<path class="st0" d="M9.5,9.3h-3c-1.2,0-2.2,1-2.2,2.3c0,0.6,0.2,1.1,0.6,1.5c-0.4,0.4-0.6,0.9-0.6,1.5c0,0.6,0.2,1.1,0.6,1.5
		c-0.4,0.4-0.6,0.9-0.6,1.5c0,1.2,1,2.2,2.2,2.2s2.2-1,2.2-2.2v-0.9c0.2,0.1,0.5,0.1,0.8,0.1c1.2,0,2.2-1,2.2-2.2
		c0-0.6-0.2-1.1-0.6-1.5c0.4-0.4,0.6-0.9,0.6-1.5C11.8,10.3,10.7,9.3,9.5,9.3z M7.2,17.5c0,0.4-0.3,0.8-0.8,0.8s-0.8-0.3-0.8-0.8
		c0-0.4,0.3-0.7,0.8-0.7h0.8V17.5z M7.2,15.3H6.5c-0.4,0-0.8-0.3-0.8-0.8c0-0.4,0.3-0.8,0.8-0.8h0.8V15.3z M7.2,12.3H6.5
		c-0.4,0-0.8-0.3-0.8-0.8c0-0.4,0.3-0.8,0.8-0.8h0.8V12.3z M9.5,15.3c-0.4,0-0.8-0.3-0.8-0.8c0-0.4,0.3-0.8,0.8-0.8s0.8,0.3,0.8,0.8
		C10.2,14.9,9.9,15.3,9.5,15.3z M9.5,12.3H8.8v-1.5h0.8c0.4,0,0.8,0.3,0.8,0.8C10.2,11.9,9.9,12.3,9.5,12.3z"/>
</g>
</svg>
