<?xml version="1.0" encoding="utf-8"?>
<!-- Generator: Adobe Illustrator 27.9.0, SVG Export Plug-In . SVG Version: 6.00 Build 0)  -->
<svg version="1.1" id="Calque_1" xmlns="http://www.w3.org/2000/svg" xmlns:xlink="http://www.w3.org/1999/xlink" x="0px" y="0px"
	 viewBox="0 0 24 24" style="enable-background:new 0 0 24 24;" xml:space="preserve">
<path d="M17,15.8c-0.2,0-0.4-0.1-0.5-0.2c-0.3-0.3-0.3-0.8,0-1.1l2.2-2.1c1-1,1.6-2.2,1.6-3.6c0-1.3-0.6-2.6-1.6-3.6
	c-2.1-2-5.6-2-7.8,0l-0.4,0.3c-0.3,0.3-0.8,0.3-1.1,0c-0.3-0.3-0.3-0.8,0-1.1l0.4-0.3c2.7-2.5,7.1-2.5,9.8,0
	c1.3,1.2,2.1,2.9,2.1,4.7c0,1.8-0.7,3.4-2.1,4.7l-2.2,2.1C17.3,15.7,17.2,15.8,17,15.8z"/>
<path d="M9.3,21.8c-1.8,0-3.6-0.7-4.9-2c-1.3-1.3-2.1-2.9-2.1-4.7c0-1.8,0.7-3.4,2-4.7l0.9-0.9c0.3-0.3,0.8-0.3,1.1,0
	c0.3,0.3,0.3,0.8,0,1.1l-0.9,0.9c-1,1-1.5,2.3-1.5,3.6c0,1.4,0.6,2.7,1.6,3.7c2.1,2.1,5.6,2.1,7.8,0l0.4-0.3c0.3-0.3,0.8-0.3,1.1,0
	c0.3,0.3,0.3,0.8,0,1.1l-0.4,0.3C12.8,21.1,11,21.8,9.3,21.8z"/>
<path d="M7.5,6C7.2,6,6.9,5.8,6.8,5.5L5.9,3.3c-0.2-0.4,0-0.8,0.4-1c0.4-0.2,0.8,0,1,0.4l0.9,2.2c0.2,0.4,0,0.8-0.4,1
	C7.7,5.9,7.6,6,7.5,6z"/>
<path d="M9,9.5c-0.1,0-0.2,0-0.3-0.1L3.2,6.8c-0.4-0.2-0.5-0.6-0.3-1c0.2-0.4,0.6-0.5,1-0.3l5.5,2.7c0.4,0.2,0.5,0.6,0.3,1
	C9.6,9.4,9.3,9.5,9,9.5z"/>
</svg>
