<?xml version="1.0" encoding="utf-8"?>
<!-- Generator: Adobe Illustrator 27.9.0, SVG Export Plug-In . SVG Version: 6.00 Build 0)  -->
<svg version="1.1" id="Calque_1" xmlns="http://www.w3.org/2000/svg" xmlns:xlink="http://www.w3.org/1999/xlink" x="0px" y="0px"
	 viewBox="0 0 24 24" style="enable-background:new 0 0 24 24;" xml:space="preserve">
<path d="M20.9,4.7c-0.1-0.7-0.3-1.3-0.8-1.8c-0.5-0.5-1.1-0.7-1.8-0.8C17.7,2,17,2,16.1,2H8c0,0,0,0-0.1,0C7,2,6.3,2,5.7,2.1
	C5,2.2,4.4,2.4,3.9,2.9C3.4,3.4,3.2,4,3.1,4.7C3,5.3,3,6,3,6.9C3,7,3,7,3,7v1c0,0.6,0.4,1,1,1s1-0.4,1-1V7c0-1,0-1.6,0.1-2.1
	c0.1-0.4,0.2-0.6,0.2-0.6s0.2-0.2,0.6-0.2C6.4,4,7,4,8,4h3v16H7c-0.6,0-1,0.4-1,1s0.4,1,1,1h10c0.6,0,1-0.4,1-1s-0.4-1-1-1h-4V4h3
	c1,0,1.6,0,2.1,0.1c0.4,0.1,0.6,0.2,0.6,0.2s0.2,0.2,0.2,0.6C19,5.4,19,6,19,7v1c0,0.6,0.4,1,1,1s1-0.4,1-1v-1C21,6,21,5.3,20.9,4.7
	z"/>
</svg>
