<?xml version="1.0" encoding="utf-8"?>
<!-- Generator: Adobe Illustrator 27.9.0, SVG Export Plug-In . SVG Version: 6.00 Build 0)  -->
<svg version="1.1" id="Calque_1" xmlns="http://www.w3.org/2000/svg" xmlns:xlink="http://www.w3.org/1999/xlink" x="0px" y="0px"
	 viewBox="0 0 24 24" style="enable-background:new 0 0 24 24;" xml:space="preserve">
<style type="text/css">
	.st0{fill-rule:evenodd;clip-rule:evenodd;}
</style>
<path class="st0" d="M9.1,21.6c0,0.4-0.3,0.8-0.8,0.8h-6c-0.4,0-0.8-0.3-0.8-0.8v-6c0-0.4,0.3-0.8,0.8-0.8s0.8,0.3,0.8,0.8v4.2
	l6.7-6.7c0.3-0.3,0.8-0.3,1.1,0s0.3,0.8,0,1.1l-6.7,6.7h4.2C8.8,20.9,9.1,21.2,9.1,21.6z"/>
<path d="M12.4,21.6c5.5,0,10-4.5,10-10c0-5.5-4.5-10-10-10c-5.5,0-10,4.5-10,10c0,0.6,0.1,1.2,0.2,1.8c1.2,0.1,2.1,1.1,2.1,2.2v0.6
	L8.8,12c0.9-0.9,2.3-0.9,3.2,0c0.9,0.9,0.9,2.3,0,3.2l-4.2,4.2h0.6c1.2,0,2.2,0.9,2.2,2.1C11.2,21.6,11.8,21.6,12.4,21.6z"/>
</svg>
