<?xml version="1.0" encoding="utf-8"?>
<!-- Generator: Adobe Illustrator 27.9.0, SVG Export Plug-In . SVG Version: 6.00 Build 0)  -->
<svg version="1.1" id="Calque_1" xmlns="http://www.w3.org/2000/svg" xmlns:xlink="http://www.w3.org/1999/xlink" x="0px" y="0px"
	 viewBox="0 0 24 24" style="enable-background:new 0 0 24 24;" xml:space="preserve">
<style type="text/css">
	.st0{fill-rule:evenodd;clip-rule:evenodd;}
</style>
<path class="st0" d="M16.1,8.5c-0.3,0.3-0.3,0.8,0,1.1l1.7,1.7H9.6c-0.4,0-0.8,0.3-0.8,0.8s0.3,0.8,0.8,0.8h8.2l-1.7,1.7
	c-0.3,0.3-0.3,0.8,0,1.1s0.8,0.3,1.1,0l3-3c0.3-0.3,0.3-0.8,0-1.1l-3-3C16.9,8.2,16.4,8.2,16.1,8.5z"/>
<path d="M3.6,12c0,4.4,3.6,8,8,8v-3.8c0-0.9,0-1.4-0.3-1.7s-0.8-0.3-1.7-0.3c-1.2,0-2.2-1-2.2-2.2s1-2.2,2.2-2.2
	c0.9,0,1.4,0,1.7-0.3c0.3-0.3,0.3-0.8,0.3-1.7V4C7.2,4,3.6,7.6,3.6,12z"/>
</svg>
