<?xml version="1.0" encoding="UTF-8" standalone="no"?>
<svg
   width="24"
   height="24"
   viewBox="0 0 24 24"
 
   version="1.1"
   id="svg4"
   xmlns="http://www.w3.org/2000/svg"
   xmlns:svg="http://www.w3.org/2000/svg">
  <defs
     id="defs4" />
  <path
   
     d="M 13.285156,1.3261719 C 11.05502,1.0558494 8.7176817,1.481245 6.625,2.6894531 1.4910493,5.6535453 -0.27463203,12.241077 2.6894531,17.375 5.6535456,22.508919 12.241073,24.272658 17.375,21.308594 19.467689,20.100381 21.005775,18.289118 21.886719,16.222656 23.167018,13.219387 23.064446,9.666259 21.308594,6.625 19.552737,3.5837341 16.526166,1.7190221 13.285156,1.3261719 Z m -0.179687,1.4902344 c 2.790384,0.3382289 5.388556,1.9332252 6.904297,4.5585937 1.515744,2.625375 1.598392,5.674041 0.496093,8.259766 C 19.747405,17.4139 18.431507,18.96678 16.625,20.009766 12.193136,22.568495 6.5470433,21.056872 3.9882813,16.625 1.4295299,12.193133 2.9431002,6.5470435 7.375,3.9882813 9.1815144,2.9452916 11.185409,2.5836692 13.105469,2.8164063 Z"
     id="path1" />
  <path
  
     d="M 6.9335937,2.6855469 A 0.75,0.75 0 0 0 6.4433594,2.9863281 0.75,0.75 0 0 0 6.609375,4.0332031 c 0,0 4.886245,3.6271384 6.742188,6.8417969 0.928016,1.607318 1.668205,4.08882 2.146484,6.138672 0.478279,2.049851 0.708984,3.666016 0.708984,3.666015 a 0.75,0.75 0 0 0 0.847656,0.636719 0.75,0.75 0 0 0 0.636719,-0.849609 c 0,0 -0.238652,-1.678678 -0.732422,-3.794922 C 16.465214,14.555631 15.732773,11.999679 14.650391,10.125 12.485737,6.3756255 7.4921875,2.8203125 7.4921875,2.8203125 A 0.75,0.75 0 0 0 6.9335937,2.6855469 Z"
     id="path2" />
  <path
  
     d="m 19.728516,11.65625 c -2.336301,0.0924 -4.751793,0.991694 -6.871094,2.28125 -2.825735,1.719407 -5.1601712,4.134567 -5.9921876,6.644531 a 0.75,0.75 0 0 0 0.4765625,0.947266 0.75,0.75 0 0 0 0.9472656,-0.476563 c 0.6496221,-1.959731 2.7533465,-4.255395 5.3476565,-5.833984 2.594309,-1.578589 5.644083,-2.437675 8.066406,-1.90625 a 0.75,0.75 0 0 0 0.892578,-0.572266 0.75,0.75 0 0 0 -0.572266,-0.892578 C 21.27627,11.683738 20.507282,11.625449 19.728516,11.65625 Z"
     id="path3" />
  <path
  
     d="M 16.652344,2.4980469 A 0.75,0.75 0 0 0 15.703125,2.96875 C 15.050046,4.909271 12.978068,7.1754643 10.419922,8.7460938 7.8617758,10.316723 4.8497424,11.190702 2.4335938,10.714844 A 0.75,0.75 0 0 0 1.5527344,11.306641 0.75,0.75 0 0 0 2.1445313,12.1875 C 5.1140372,12.772341 8.4189446,11.735998 11.205078,10.025391 13.991212,8.3147833 16.29018,5.9278002 17.125,3.4472656 A 0.75,0.75 0 0 0 16.652344,2.4980469 Z"
     id="path4" />
</svg>
