<?xml version="1.0" encoding="UTF-8" standalone="no"?>
<svg
   width="24"
   height="24"
   viewBox="0 0 24 24"
 
   version="1.1"
   id="svg1"
   xmlns="http://www.w3.org/2000/svg"
   xmlns:svg="http://www.w3.org/2000/svg">
  <defs
     id="defs1" />
  <path
     d="M 9.19762,11.9582 9.91426,11.737 v 0 z M 9.54558,10.8683 9.08995,10.2726 v 0 z m 0.37338,3.4269 -0.71664,0.2212 v 0 z m 4.13894,0 -0.7166,-0.2212 v 0 z m 0.3734,-3.4269 -0.4556,0.5958 v 0 z m 0.348,1.0899 0.7166,0.2212 v 0 z M 12.5948,9.46375 13.0504,8.86802 v 0 z m -1.2127,0 0.4556,0.59575 v 0 z M 20.1847,17.75 c 0.4142,0 0.75,-0.3358 0.75,-0.75 0,-0.4142 -0.3358,-0.75 -0.75,-0.75 z m -5.4054,1.9851 -0.7116,-0.2369 v 0 z m -1.2992,1.528 c -0.1309,0.393 0.0816,0.8176 0.4746,0.9485 0.393,0.1308 0.8177,-0.0817 0.9486,-0.4747 z M 3.99769,16.25 c -0.41421,0 -0.75,0.3358 -0.75,0.75 0,0.4142 0.33579,0.75 0.75,0.75 z m 5.40545,3.4851 0.71156,-0.2369 v 0 z m -0.12397,2.0018 c 0.13085,0.393 0.55552,0.6055 0.94853,0.4747 0.393,-0.1309 0.6055,-0.5555 0.4747,-0.9485 z M 8.22071,17.3775 7.78185,17.9857 v 0 z M 5.556,5.45942 C 5.4489,5.05928 5.03772,4.82173 4.63759,4.92882 4.23746,5.03591 3.9999,5.44709 4.10699,5.84723 Z m -0.30649,1.75577 -0.7245,0.1939 v 0 z M 3.59168,11.5885 3.17811,10.9628 v 0 z m -1.96429,0.3994 c -0.34554,0.2284 -0.4405,0.6937 -0.21209,1.0392 0.22842,0.3456 0.6937,0.4405 1.03924,0.2121 z M 19.934,5.84732 C 20.0411,5.44719 19.8035,5.036 19.4034,4.92891 19.0032,4.82182 18.5921,5.05938 18.485,5.45951 Z M 18.7915,7.21528 18.067,7.02137 v 0 z m 1.6578,4.37332 -0.4136,0.6257 v 0 z m 1.1371,1.6507 c 0.3456,0.2284 0.8109,0.1335 1.0393,-0.2121 0.2284,-0.3455 0.1334,-0.8108 -0.2121,-1.0392 z M 16.0903,3.83623 C 16.4288,3.5975 16.5096,3.12956 16.2709,2.79107 16.0322,2.45257 15.5642,2.3717 15.2257,2.61044 Z m -1.7527,0.31833 0.4323,0.6129 v 0 z M 9.66562,4.10403 9.22021,4.70744 v 0 z M 8.61539,2.39659 c -0.33326,-0.246 -0.80284,-0.17526 -1.04883,0.158 -0.246,0.33325 -0.17526,0.80283 0.158,1.04882 z m 6.16391,8.97121 -0.7166,0.2212 z m -5.58168,0 0.71664,0.2212 z M 21.2269,12 c 0,5.1095 -4.137,9.25 -9.2384,9.25 v 1.5 C 17.92,22.75 22.7269,17.9362 22.7269,12 Z m -9.2384,9.25 C 6.88701,21.25 2.75,17.1095 2.75,12 h -1.5 c 0,5.9362 4.80695,10.75 10.7385,10.75 z M 2.75,12 c 0,-5.10945 4.13701,-9.25 9.2385,-9.25 V 1.25 C 6.05695,1.25 1.25,6.06376 1.25,12 Z m 9.2385,-9.25 c 5.1014,0 9.2384,4.14055 9.2384,9.25 h 1.5 C 22.7269,6.06376 17.92,1.25 11.9885,1.25 Z m 0.1507,7.3095 1.8365,1.4046 0.9113,-1.1915 -1.8366,-1.40458 z m 1.9234,1.6775 -0.7213,2.337 1.4333,0.4424 0.7213,-2.337 z m -0.959,2.513 h -2.2303 v 1.5 h 2.2303 z m -2.468,-0.176 -0.72134,-2.337 -1.43328,0.4424 0.72134,2.337 z M 10.0012,11.4641 11.8377,10.0595 10.9265,8.86802 9.08995,10.2726 Z M 20.1847,16.25 h -1.6151 v 1.5 h 1.6151 z m -6.117,3.2482 -0.5876,1.7649 1.4232,0.4738 0.5876,-1.7649 z M 18.5696,16.25 c -0.6776,0 -1.2489,-0.0011 -1.7141,0.052 -0.4844,0.0554 -0.929,0.1761 -1.3327,0.4673 l 0.8778,1.2164 c 0.1195,-0.0863 0.284,-0.1544 0.6252,-0.1934 0.3605,-0.0412 0.8316,-0.0423 1.5438,-0.0423 z m -3.0787,3.722 c 0.2252,-0.6764 0.3753,-1.1236 0.5284,-1.4531 0.145,-0.312 0.2616,-0.4469 0.3813,-0.5332 l -0.8778,-1.2164 c -0.4035,0.2912 -0.6583,0.6751 -0.8638,1.1175 -0.1975,0.4249 -0.377,0.9677 -0.5913,1.6114 z M 3.99769,17.75 h 1.6151 v -1.5 h -1.6151 z m 4.69385,2.222 0.58763,1.7649 1.42323,-0.4738 -0.5877,-1.7649 z M 5.61279,17.75 c 0.71221,0 1.18332,0.0011 1.54379,0.0423 0.34126,0.039 0.5057,0.1071 0.62527,0.1934 L 8.65958,16.7693 C 8.25598,16.4781 7.81137,16.3574 7.32692,16.302 6.86168,16.2489 6.29041,16.25 5.61279,16.25 Z m 4.50191,1.7482 C 9.90043,18.8545 9.7209,18.3117 9.52346,17.8868 9.31791,17.4445 9.06311,17.0605 8.65958,16.7693 l -0.87773,1.2164 c 0.11963,0.0863 0.2363,0.2212 0.38129,0.5332 0.1531,0.3295 0.3032,0.7767 0.5284,1.4531 z M 4.10699,5.84723 4.52501,7.40909 5.97401,7.02128 5.556,5.45942 Z m -0.92888,5.11557 -1.55072,1.0251 0.82715,1.2513 1.55072,-1.025 z M 4.52501,7.40909 C 4.70933,8.09777 4.83021,8.55381 4.88378,8.91324 4.93452,9.25362 4.9114,9.43069 4.85896,9.56902 l 1.4026,0.53168 C 6.43795,9.63541 6.43932,9.17465 6.3674,8.69211 6.29831,8.22862 6.14941,7.67663 5.97401,7.02128 Z M 4.00526,12.2142 c 0.5655,-0.3738 1.04281,-0.688 1.40174,-0.989 0.37374,-0.3133 0.67816,-0.6591 0.85456,-1.1245 L 4.85896,9.56902 C 4.80654,9.70729 4.70659,9.855 4.44321,10.0759 4.16501,10.3091 3.77244,10.57 3.17811,10.9628 Z M 18.485,5.45951 18.067,7.02137 19.516,7.40918 19.934,5.84732 Z m 1.5507,6.75479 1.5507,1.025 0.8272,-1.2513 -1.5507,-1.0251 z M 18.067,7.02137 C 17.8916,7.67672 17.7427,8.22871 17.6736,8.69221 17.6017,9.17474 17.603,9.6355 17.7794,10.1008 L 19.182,9.56911 C 19.1296,9.43078 19.1065,9.25372 19.1572,8.91333 19.2108,8.5539 19.3316,8.09787 19.516,7.40918 Z m 2.7959,3.94153 C 20.2685,10.5701 19.876,10.3092 19.5978,10.0759 19.3344,9.85509 19.2344,9.70739 19.182,9.56911 l -1.4026,0.53169 c 0.1764,0.4654 0.4808,0.8112 0.8546,1.1245 0.3589,0.301 0.8362,0.6152 1.4017,0.989 z m -5.6372,-8.35246 -1.3203,0.93122 0.8645,1.2258 1.3204,-0.93123 z M 10.111,3.50061 8.61539,2.39659 7.72456,3.60341 9.22021,4.70744 Z m 3.7944,0.04105 C 13.3231,3.9523 12.9373,4.22303 12.6189,4.39721 12.3174,4.56214 12.1438,4.60125 11.9966,4.59965 L 11.9803,6.09957 C 12.478,6.10495 12.9109,5.94721 13.3387,5.7132 13.7496,5.48845 14.2159,5.15817 14.7699,4.76746 Z M 9.22021,4.70744 c 0.54541,0.4026 1.00449,0.74289 1.41039,0.97647 0.4227,0.24321 0.8521,0.41027 1.3497,0.41566 L 11.9966,4.59965 C 11.8494,4.59806 11.6767,4.5552 11.3788,4.38379 11.0642,4.20276 10.6843,3.92375 10.111,3.50061 Z m 4.75549,6.75666 c 0.0422,0.0322 0.0718,0.0758 0.087,0.1249 l 1.4332,-0.4425 C 15.3911,10.807 15.1828,10.4989 14.887,10.2726 Z m 0.087,0.1249 c 0.0146,0.0474 0.0152,0.0986 -10e-5,0.148 l 1.4333,0.4424 c 0.1064,-0.3445 0.1015,-0.7041 0,-1.0329 z m 4.1311,-2.44697 -3.7015,1.53277 0.5739,1.3859 3.7015,-1.5328 z M 13.0504,8.86802 C 12.7371,8.62838 12.3624,8.50841 11.9885,8.50841 v 1.49999 c 0.0534,0 0.106,0.0169 0.1507,0.0511 z M 11.9885,8.50841 c -0.3739,0 -0.7487,0.11997 -1.062,0.35961 l 0.9112,1.19148 c 0.0447,-0.0342 0.0973,-0.0511 0.1508,-0.0511 z m 0.75,0.75 v -3.9088 h -1.5 v 3.9088 z m 0.6028,4.81559 c -0.0154,0.0501 -0.0451,0.092 -0.0841,0.1227 l 0.928,1.1785 c 0.2723,-0.2144 0.4819,-0.5106 0.5894,-0.8588 z m -0.0841,0.1227 C 13.214,14.2308 13.1607,14.25 13.1036,14.25 v 1.5 c 0.4027,0 0.781,-0.1381 1.0816,-0.3748 z m 3.2719,2.6903 -2.2405,-2.5916 -1.1348,0.9811 2.2406,2.5915 z M 10.8733,14.25 c -0.0571,0 -0.1104,-0.0192 -0.1536,-0.0533 L 9.79172,15.3752 C 10.0923,15.6119 10.4706,15.75 10.8733,15.75 Z M 10.7197,14.1967 C 10.6807,14.166 10.651,14.1241 10.6356,14.074 l -1.43328,0.4424 c 0.10748,0.3482 0.31711,0.6444 0.5894,0.8588 z m -1.90911,3.644 2.03501,-2.5915 -1.17976,-0.9264 -2.035,2.5915 z M 9.91426,11.737 c -0.01527,-0.0494 -0.01465,-0.1006 0,-0.148 L 8.48099,11.1465 c -0.1015,0.3289 -0.10634,0.6884 -10e-6,1.0329 z m 0,-0.148 C 9.9294,11.5399 9.95905,11.4963 10.0012,11.4641 L 9.08995,10.2726 C 8.79412,10.4989 8.58579,10.807 8.48099,11.1465 Z M 9.48889,10.6766 5.85153,9.14373 5.269,10.526 8.90636,12.0589 Z"
    
     id="path2" />
</svg>
