<?xml version="1.0" encoding="UTF-8" standalone="no"?>
<svg
   width="24"
   height="24"
   viewBox="0 0 24 24"
  
   version="1.1"
   id="svg1"
   xmlns="http://www.w3.org/2000/svg"
   xmlns:svg="http://www.w3.org/2000/svg">
  <defs
     id="defs1" />
  <path
     d="m 11.5697,12.5532 0.592,0.4605 v 0 z m -0.2555,-8.90734 0.6923,0.28846 v 0 z M 18.555,14.5045 C 18.8336,14.198 18.811,13.7237 18.5045,13.445 18.198,13.1664 17.7237,13.189 17.445,13.4955 Z m -0.8463,-0.1841 -0.5549,-0.5045 v 0 z m 3.5339,-3.5778 0.5347,-0.526 -0.0043,-0.0043 z m 0.2105,1.2834 c 0.2905,0.2953 0.7653,0.2991 1.0606,0.0086 0.2953,-0.2904 0.2992,-0.7653 0.0087,-1.0606 z M 5.7327,19.0428 c -0.41422,0 -0.75,0.3358 -0.75,0.75 0,0.4142 0.33578,0.75 0.75,0.75 z M 3.5,15.75 c -0.41421,0 -0.75,0.3358 -0.75,0.75 0,0.4142 0.33579,0.75 0.75,0.75 z M 8.19231,3.35575 C 8.35162,2.9734 8.17081,2.5343 7.78846,2.37498 7.40611,2.21567 6.96701,2.39648 6.80769,2.77883 Z M 6.80769,15.2885 c 0.15932,0.3823 0.59842,0.5631 0.98077,0.4038 0.38235,-0.1593 0.56316,-0.5984 0.40385,-0.9808 z M 11,5.75 c -0.4142,0 -0.75,0.33579 -0.75,0.75 0,0.41421 0.3358,0.75 0.75,0.75 z m 8.876,11.166 c 0.2297,0.3447 0.6954,0.4378 1.04,0.208 0.3447,-0.2297 0.4378,-0.6954 0.208,-1.04 z M 12,21.25 C 6.89137,21.25 2.75,17.1086 2.75,12 h -1.5 c 0,5.9371 4.81294,10.75 10.75,10.75 z M 21.25,12 c 0,5.1086 -4.1414,9.25 -9.25,9.25 v 1.5 c 5.9371,0 10.75,-4.8129 10.75,-10.75 z M 12,2.75 c 5.1086,0 9.25,4.14137 9.25,9.25 h 1.5 C 22.75,6.06294 17.9371,1.25 12,1.25 Z m 0,-1.5 C 6.06294,1.25 1.25,6.06294 1.25,12 h 1.5 C 2.75,6.89137 6.89137,2.75 12,2.75 Z m 0,11.5 h 0.0917 v -1.5 H 12 Z m -0.592,-1.2105 -0.4303,0.5533 1.184,0.9209 0.4303,-0.5532 z m -0.1003,-9.82796 -0.6858,1.64585 1.3846,0.57693 0.6858,-1.64586 z m 6.1373,11.78396 -0.2912,0.3204 1.1099,1.009 0.2913,-0.3204 z m 3.263,-2.2269 0.7451,0.7574 1.0693,-1.052 -0.7451,-0.7573 z m -3.5542,2.5473 c -2.87,3.157 -7.19294,5.2269 -11.4211,5.2269 v 1.5 c 4.6884,0 9.403,-2.2771 12.531,-5.7179 z M 10.6219,3.35739 C 9.39039,6.31308 9.66695,9.68222 11.364,12.3975 l 1.272,-0.795 C 11.1965,9.29929 10.9619,6.44145 12.0065,3.93432 Z m 0.3558,8.73541 C 9.18293,14.4003 6.42334,15.75 3.5,15.75 v 1.5 c 3.38622,0 6.5828,-1.5634 8.6617,-4.2363 z M 6.80769,2.77883 c -1.67692,4.02462 -1.67692,8.48497 0,12.50967 l 1.38462,-0.577 c -1.52308,-3.6553 -1.52308,-7.70036 0,-11.35575 z M 11,7.25 c 3.6428,0 7.1364,1.4471 9.7123,4.023 L 21.773,10.2123 C 18.9158,7.35514 15.0406,5.75 11,5.75 Z m 1.0917,5.5 c 3.128,0 6.0491,1.5633 7.7843,4.166 l 1.248,-0.832 C 19.1107,13.064 15.7213,11.25 12.0917,11.25 Z"
   
     id="path2" />
</svg>
