<?xml version="1.0" encoding="UTF-8" standalone="no"?>
<svg
   width="24"
   height="24"
   viewBox="0 0 24 24"
 
   version="1.1"
   id="svg3"
   xmlns="http://www.w3.org/2000/svg"
   xmlns:svg="http://www.w3.org/2000/svg">
  <defs
     id="defs3" />
  <path
     
     d="M 2,11.25 A 0.75,0.75 0 0 0 1.25,12 0.75,0.75 0 0 0 2,12.75 H 5 A 0.75,0.75 0 0 0 5.75,12 0.75,0.75 0 0 0 5,11.25 Z m 8,0 A 0.75,0.75 0 0 0 9.25,12 0.75,0.75 0 0 0 10,12.75 h 4 A 0.75,0.75 0 0 0 14.75,12 0.75,0.75 0 0 0 14,11.25 Z m 9,0 A 0.75,0.75 0 0 0 18.25,12 0.75,0.75 0 0 0 19,12.75 h 3 A 0.75,0.75 0 0 0 22.75,12 0.75,0.75 0 0 0 22,11.25 Z"
     id="path1" />
  <path
    
     d="M 7.5,4.25 C 6.5653809,4.25 5.9747983,4.2044946 5.375,4.5507812 5.0329819,4.7482407 4.7482407,5.0329819 4.5507812,5.375 4.2044946,5.9747983 4.25,6.5653809 4.25,7.5 v 9 c 0,0.934599 -0.045487,1.5252 0.3007812,2.125 C 4.7482207,18.966939 5.0328333,19.251748 5.375,19.449219 5.9748108,19.795582 6.5653809,19.75 7.5,19.75 c 0.9346191,0 1.5251892,0.04558 2.125,-0.300781 C 9.9671667,19.251748 10.251779,18.966939 10.449219,18.625 10.795487,18.0252 10.75,17.434599 10.75,16.5 v -9 C 10.75,6.5653809 10.79551,5.9747983 10.449219,5.375 10.251759,5.0329819 9.9670181,4.7482407 9.625,4.5507812 9.0252017,4.2044946 8.4346191,4.25 7.5,4.25 Z m 0,1.5 c 0.9346191,0 1.278639,0.043976 1.375,0.099609 C 8.9890414,5.9154496 9.0845504,6.0109586 9.1503906,6.125 9.2060236,6.221361 9.25,6.5653809 9.25,7.5 v 9 c 0,0.934599 -0.043958,1.278601 -0.099609,1.375 C 9.0845304,17.989061 8.9888928,18.084661 8.875,18.150391 8.7786515,18.206027 8.4346191,18.25 7.5,18.25 6.5653809,18.25 6.2213485,18.206027 6.125,18.150391 6.0111072,18.084661 5.9154696,17.989061 5.8496094,17.875 5.7939577,17.778601 5.75,17.434599 5.75,16.5 v -9 C 5.75,6.5653809 5.7939764,6.221361 5.8496094,6.125 5.9154496,6.0109586 6.0109586,5.9154496 6.125,5.8496094 6.221361,5.7939764 6.5653809,5.75 7.5,5.75 Z"
     id="path2" />
  <path
    
     d="M 16.5,6.25 C 15.565401,6.25 14.9748,6.204513 14.375,6.5507812 14.033061,6.7482207 13.748252,7.0328333 13.550781,7.375 13.204418,7.9748108 13.25,8.5653809 13.25,9.5 v 5 c 0,0.934599 -0.04556,1.525187 0.300781,2.125 0.197451,0.342087 0.482132,0.626768 0.824219,0.824219 0.599813,0.346344 1.190401,0.300781 2.125,0.300781 0.934599,0 1.525187,0.04556 2.125,-0.300781 C 18.967087,17.251768 19.251768,16.967087 19.449219,16.625 19.795563,16.025187 19.75,15.434599 19.75,14.5 v -5 C 19.75,8.5653809 19.79558,7.9748108 19.449219,7.375 19.251748,7.0328333 18.966939,6.7482207 18.625,6.5507812 18.0252,6.2045134 17.434599,6.25 16.5,6.25 Z m 0,1.5 c 0.934599,0 1.278601,0.043958 1.375,0.099609 0.114061,0.06586 0.209661,0.1614978 0.275391,0.2753906 C 18.206027,8.2213485 18.25,8.5653809 18.25,9.5 v 5 c 0,0.934599 -0.04395,1.278613 -0.09961,1.375 -0.06575,0.113912 -0.161479,0.209641 -0.275391,0.275391 -0.09639,0.05566 -0.440401,0.09961 -1.375,0.09961 -0.934599,0 -1.278613,-0.04395 -1.375,-0.09961 C 15.011088,16.084641 14.915359,15.988912 14.849609,15.875 14.793954,15.778613 14.75,15.434599 14.75,14.5 v -5 c 0,-0.9346191 0.04397,-1.2786515 0.09961,-1.375 C 14.915339,8.0111072 15.010939,7.9154696 15.125,7.8496094 15.221399,7.7939577 15.565401,7.75 16.5,7.75 Z"
     id="path3" />
</svg>
