<?xml version="1.0" encoding="UTF-8" standalone="no"?>
<svg
   width="24"
   height="24"
   viewBox="0 0 24 24"
   version="1.1"
   id="svg5"
   xmlns="http://www.w3.org/2000/svg"
   xmlns:svg="http://www.w3.org/2000/svg">
  <defs
     id="defs5" />
  <path
     d="M 2.1992188,2.3867188 C 1.6522473,2.668191 1.4085298,3.2669013 1.3261719,3.8261719 1.243814,4.3854425 1.25,5.0356496 1.25,5.8867187 V 18.113281 c 0,0.851099 -0.00619,1.499326 0.076172,2.058594 0.082358,0.559268 0.3261447,1.159899 0.8730469,1.441406 0.5469783,0.281446 1.1767336,0.131098 1.6796875,-0.126953 0.5029538,-0.258051 1.0262062,-0.64012 1.7187499,-1.134766 L 7.1796875,19.222656 C 7.7955134,18.782773 8.2247083,18.505721 8.5,17.970703 8.7744253,17.436345 8.75,16.925917 8.75,16.169922 V 7.8300781 C 8.75,7.0732489 8.7752836,6.5622798 8.5,6.0273437 8.2247094,5.4924106 7.7955469,5.2172433 7.1796875,4.7773437 L 5.5976562,3.6484375 C 4.9051118,3.1537629 4.3818719,2.7717223 3.8789063,2.5136719 3.3759406,2.2556215 2.7461791,2.1052422 2.1992188,2.3867188 Z m 0.6855468,1.3339843 c -0.00454,0.00234 -0.016587,-0.039884 0.3085938,0.1269532 0.325181,0.1668366 0.8406589,0.5268099 1.5332031,1.0214843 L 6.3085937,5.9980469 C 6.9244531,6.4379464 7.1088066,6.6036775 7.1660156,6.7148437 7.2232317,6.8260271 7.25,7.0732489 7.25,7.8300781 v 8.3398439 c 0,0.756799 -0.026842,1.004215 -0.083984,1.115234 -0.057208,0.111182 -0.241549,0.276881 -0.8574219,0.716797 L 4.7265629,19.130859 C 4.034008,19.625513 3.5185551,19.985495 3.1933598,20.152344 2.8681644,20.319192 2.8802072,20.276951 2.884766,20.279297 2.889246,20.281597 2.863794,20.314707 2.810547,19.953125 2.7573001,19.591544 2.75,18.96438 2.75,18.113281 V 5.8867187 C 2.75,5.0356496 2.7573,4.4065079 2.810547,4.0449219 2.863794,3.6833359 2.889318,3.7183606 2.8847656,3.7207031 Z"
     id="path1" />
  <path
     d="M 21.800781,2.3867188 C 21.253813,2.1052277 20.624072,2.2556236 20.121094,2.5136719 19.618116,2.7717202 19.094897,3.1537602 18.402344,3.6484375 L 16.820312,4.7773437 C 16.204397,5.2172545 15.775317,5.4925203 15.5,6.0273437 15.224811,6.562256 15.25,7.0732489 15.25,7.8300781 v 8.3398439 c 0,0.756799 -0.02526,1.265824 0.25,1.800781 v 0.002 c 0.275318,0.534909 0.704419,0.810105 1.320312,1.25 l 1.582032,1.128906 c 0.692548,0.494649 1.215784,0.876717 1.71875,1.134766 0.502965,0.25805 1.132701,0.408413 1.679687,0.126953 0.546896,-0.281514 0.790693,-0.882142 0.873047,-1.441406 C 22.756183,19.612611 22.75,18.96438 22.75,18.113281 V 5.8867187 C 22.75,5.0356496 22.7562,4.3854391 22.67383,3.8261719 22.59148,3.2669047 22.347749,2.6681981 21.800783,2.3867188 Z m -0.685547,1.3339843 c -0.0046,-0.00235 0.02097,-0.037371 0.07422,0.3242188 C 21.242699,4.4065113 21.25,5.0356496 21.25,5.8867187 V 18.113281 c 0,0.851099 -0.0073,1.478259 -0.06055,1.839844 -0.05325,0.361585 -0.07871,0.328486 -0.07422,0.326172 0.0046,-0.0024 0.01661,0.0399 -0.308593,-0.126953 -0.325209,-0.16685 -0.840653,-0.526834 -1.533204,-1.021485 L 17.691406,18.001953 C 17.075501,17.562049 16.891266,17.396447 16.833984,17.285156 16.776847,17.174114 16.75,16.926721 16.75,16.169922 V 7.8300781 c 0,-0.7568292 0.02677,-1.0040273 0.08398,-1.1152344 0.05728,-0.1112759 0.241538,-0.2769084 0.857422,-0.7167968 L 19.273437,4.8691406 C 19.965983,4.3744689 20.481445,4.014495 20.806641,3.8476563 21.131837,3.6808175 21.119803,3.7230545 21.115234,3.7207031 Z"
     id="path2" />
  <path
     d="M 12,9.25 A 0.75,0.75 0 0 0 11.25,10 v 4 A 0.75,0.75 0 0 0 12,14.75 0.75,0.75 0 0 0 12.75,14 V 10 A 0.75,0.75 0 0 0 12,9.25 Z"
     id="path3" />
  <path
     d="M 12,1.25 A 0.75,0.75 0 0 0 11.25,2 V 6 A 0.75,0.75 0 0 0 12,6.75 0.75,0.75 0 0 0 12.75,6 V 2 A 0.75,0.75 0 0 0 12,1.25 Z"
     id="path4" />
  <path
     d="M 12,17.25 A 0.75,0.75 0 0 0 11.25,18 v 4 A 0.75,0.75 0 0 0 12,22.75 0.75,0.75 0 0 0 12.75,22 V 18 A 0.75,0.75 0 0 0 12,17.25 Z"
     id="path5" />
</svg>
