<svg xmlns="http://www.w3.org/2000/svg" width="500" height="500" viewBox="0 0 500 500">
<g>
<path d="M 279.50 481.89 C267.75,483.40 244.03,483.95 232.00,482.99 C212.16,481.41 187.78,476.06 169.50,469.30 C159.65,465.65 137.81,455.06 129.50,449.90 C116.78,442.00 99.65,428.69 89.13,418.52 C22.17,353.80 -0.40,256.77 31.44,170.50 C42.82,139.66 63.20,107.68 85.59,85.51 C102.47,68.80 120.09,55.85 142.00,44.06 C178.81,24.25 223.93,14.66 265.24,17.87 C306.18,21.04 338.90,31.45 372.00,51.82 C403.20,71.02 430.36,98.43 449.54,130.07 C450.11,131.02 451.07,132.40 451.67,133.14 C456.21,138.79 470.76,172.36 474.80,186.50 C483.45,216.79 485.95,252.87 481.40,281.50 C479.51,293.42 476.43,308.50 475.61,309.81 C475.26,310.39 474.55,312.81 474.05,315.18 C471.72,326.20 457.28,359.87 451.00,368.95 C450.03,370.35 446.73,375.35 443.66,380.05 C428.90,402.67 402.18,429.07 377.39,445.51 C357.81,458.49 330.39,471.19 315.50,474.18 C312.75,474.73 310.05,475.54 309.50,475.99 C308.28,476.97 290.47,480.48 279.50,481.89 ZM 216.50 468.90 C230.37,471.09 262.28,471.66 275.90,469.95 C341.21,461.76 398.16,425.83 436.69,368.50 C450.50,347.96 462.81,316.47 468.16,288.00 C470.74,274.29 471.75,241.07 470.05,226.11 C466.77,197.28 456.30,165.27 442.97,143.34 C440.79,139.74 438.99,136.50 438.98,136.15 C438.95,135.19 434.43,128.70 426.34,117.98 C394.69,76.09 348.65,46.32 298.14,35.08 C279.86,31.02 274.04,30.50 248.00,30.62 C221.54,30.74 219.64,30.96 194.00,36.93 C182.95,39.50 160.70,48.22 147.14,55.29 C133.00,62.66 125.95,67.46 108.50,81.61 C87.74,98.43 67.55,123.39 55.20,147.50 C50.38,156.90 42.04,175.93 41.97,177.70 C41.95,178.14 41.06,180.30 40.00,182.50 C38.94,184.70 38.05,187.41 38.03,188.52 C38.02,189.63 37.14,193.68 36.09,197.52 C31.35,214.82 28.51,240.82 29.50,257.89 C30.70,278.45 33.03,293.18 37.50,308.50 C38.79,312.90 40.62,319.20 41.58,322.50 C42.54,325.80 43.90,329.62 44.60,331.00 C45.31,332.38 48.04,338.23 50.68,344.00 C62.18,369.20 80.28,393.90 100.50,411.99 C103.80,414.94 106.72,417.64 107.00,418.00 C107.78,419.01 123.74,431.21 127.84,433.93 C143.71,444.46 165.92,455.28 182.02,460.32 C200.09,465.97 203.73,466.87 216.50,468.90 ZM 304.20 418.10 C302.91,418.61 270.24,419.00 229.30,419.00 L 156.70 419.00 L 157.27 408.25 C158.37,387.78 165.63,366.93 178.78,346.50 C194.70,321.76 221.64,297.94 276.15,260.39 C294.71,247.60 307.48,237.50 318.23,227.10 L 330.41 215.31 L 329.10 210.91 C327.49,205.50 318.23,180.03 317.17,178.10 C316.49,176.86 309.17,174.06 306.50,174.02 C305.58,174.00 298.90,179.14 280.16,194.29 C276.22,197.48 273.00,200.51 273.00,201.03 C273.00,201.55 274.91,203.17 277.25,204.64 C279.59,206.11 283.30,208.52 285.50,209.98 C287.70,211.45 292.52,214.31 296.21,216.35 C299.89,218.38 303.20,220.52 303.56,221.10 C304.38,222.43 301.21,225.84 293.15,232.26 C286.87,237.28 286.76,237.32 283.15,236.04 C281.14,235.33 277.36,233.23 274.75,231.37 C272.13,229.52 269.66,228.00 269.25,228.00 C268.57,228.00 261.10,223.24 253.50,217.97 C251.85,216.83 248.24,214.45 245.47,212.70 C227.35,201.18 202.47,179.34 189.00,163.14 C184.88,158.17 180.94,154.09 180.25,154.06 C178.61,153.98 178.40,261.51 180.04,262.53 C180.62,262.88 183.66,261.04 186.79,258.44 C203.91,244.25 229.84,224.49 233.61,222.77 C235.45,221.93 236.79,222.26 240.69,224.51 C247.04,228.17 254.01,233.84 253.98,235.32 C253.96,235.97 252.28,237.71 250.23,239.19 C246.46,241.91 220.89,261.13 214.16,266.31 C205.50,272.96 189.59,287.66 181.77,296.23 C174.39,304.31 167.64,313.48 160.50,325.10 C159.40,326.89 158.05,328.28 157.50,328.18 C156.84,328.06 156.50,285.80 156.50,203.75 L 156.50 79.50 L 222.50 79.50 L 224.46 79.50 C279.90,79.50 292.46,79.50 303.99,82.95 C307.50,84.01 310.91,85.38 315.41,87.17 C327.07,91.81 336.02,97.42 345.01,105.72 C352.09,112.26 361.83,125.84 364.59,133.00 C365.54,135.48 366.64,137.95 367.04,138.50 C368.39,140.37 370.97,153.72 371.63,162.29 C372.99,180.02 367.99,200.44 358.28,216.84 C351.05,229.05 330.68,250.31 314.73,262.30 C312.68,263.84 311.00,265.96 311.00,267.01 C311.00,268.05 312.08,272.87 313.40,277.71 C316.34,288.50 319.63,301.90 321.93,312.43 C323.69,320.48 324.74,321.98 329.73,323.46 C331.61,324.02 334.10,322.02 345.60,310.75 L 359.23 297.38 L 356.98 292.94 C353.88,286.84 352.26,284.85 341.92,274.43 L 332.91 265.35 L 340.94 257.68 C345.36,253.45 349.48,250.00 350.10,250.00 C350.72,250.00 354.84,253.49 359.26,257.75 C372.48,270.52 382.25,287.62 385.62,303.91 C387.66,313.75 387.08,339.67 384.63,348.33 C376.59,376.76 355.30,399.61 325.50,411.76 C321.65,413.33 315.80,415.20 312.50,415.90 C309.20,416.61 305.47,417.60 304.20,418.10 ZM 248.75 353.52 C250.26,354.85 251.81,355.95 252.19,355.97 C253.78,356.04 309.42,336.98 310.36,336.04 C313.29,333.11 311.58,331.84 289.66,320.79 L 287.07 319.47 C260.30,305.97 258.14,304.88 256.24,305.23 C256.01,305.27 255.79,305.34 255.53,305.40 C253.04,306.03 251.46,309.28 250.62,315.50 C250.33,317.70 249.17,325.35 248.06,332.50 C245.40,349.64 245.43,350.60 248.75,353.52 ZM 260.71 193.98 C263.76,196.17 266.77,197.65 267.38,197.27 C268.00,196.90 274.05,192.07 280.84,186.54 C287.62,181.02 294.60,175.55 296.34,174.38 C301.81,170.71 303.00,168.80 302.35,164.76 C302.20,163.85 302.14,163.16 301.88,162.56 C300.97,160.44 297.68,159.34 280.00,152.88 C272.58,150.17 265.38,147.46 264.00,146.86 C262.62,146.26 259.10,144.93 256.17,143.91 C251.18,142.17 250.69,142.16 248.30,143.72 C245.89,145.30 245.80,145.70 246.42,151.76 C246.78,155.27 247.46,158.90 247.95,159.82 C248.43,160.74 249.34,164.20 249.97,167.50 C250.60,170.80 251.73,175.75 252.48,178.50 C253.22,181.25 254.13,184.96 254.50,186.75 C255.00,189.20 256.54,190.99 260.71,193.98 ZM 184.00 390.40 C184.00,392.37 185.39,392.43 188.29,390.59 C190.61,389.11 196.23,385.82 204.29,381.23 C206.92,379.73 213.22,376.01 218.29,372.97 L 227.50 367.45 L 228.02 362.28 C228.61,356.50 231.06,353.15 236.62,350.51 C238.48,349.63 240.00,348.59 240.01,348.20 C240.01,347.82 240.87,342.33 241.93,336.00 C244.71,319.30 244.85,315.00 242.62,315.00 C238.79,315.00 208.49,344.92 201.65,355.45 C199.85,358.23 196.99,362.64 195.30,365.25 C193.61,367.87 191.00,373.04 189.51,376.75 C188.01,380.46 186.16,384.69 185.40,386.15 C184.63,387.61 184.00,389.53 184.00,390.40 ZM 280.50 390.88 C288.48,397.28 289.29,396.83 297.26,381.50 C314.40,348.51 315.53,346.06 314.36,344.24 C313.75,343.28 312.18,342.57 310.87,342.65 C309.04,342.77 284.87,350.83 276.00,354.29 C275.17,354.61 269.77,356.36 264.00,358.19 L 253.50 361.50 L 253.20 365.53 C252.92,369.44 253.11,369.72 259.20,374.26 C265.47,378.94 270.97,383.23 280.50,390.88 ZM 243.00 181.24 C247.93,184.50 248.05,183.44 244.45,167.68 C240.16,148.88 240.26,149.14 236.71,147.62 C231.44,145.37 227.84,140.77 227.25,135.55 C226.64,130.12 227.01,130.42 207.57,119.51 C199.90,115.21 192.08,110.64 190.18,109.35 C188.28,108.06 186.33,107.00 185.86,107.00 C184.66,107.00 184.78,110.75 186.00,111.50 C186.55,111.84 187.00,112.88 187.01,113.81 C187.01,114.74 188.13,117.75 189.48,120.50 C190.83,123.25 191.95,125.85 191.97,126.28 C192.07,128.90 206.82,148.68 214.44,156.42 C222.82,164.94 237.09,177.34 243.00,181.24 ZM 289.19 314.48 C301.46,320.68 312.09,325.82 312.82,325.88 C313.54,325.95 315.00,325.53 316.07,324.96 C318.19,323.83 318.69,318.86 317.10,314.80 C316.60,313.53 314.06,303.60 311.44,292.72 C308.82,281.85 306.17,272.25 305.55,271.40 C304.57,270.06 303.63,270.44 298.46,274.24 C292.76,278.43 279.03,287.94 268.96,294.67 C266.35,296.42 263.95,298.27 263.63,298.79 C262.55,300.54 266.81,303.16 289.19,314.48 ZM 295.50 153.00 C296.14,153.26 296.72,153.50 297.26,153.72 C301.44,155.42 302.81,155.97 303.79,155.57 C304.39,155.32 304.84,154.70 305.71,153.75 L 307.78 151.50 L 299.63 128.50 C293.67,111.68 291.67,105.78 288.70,105.24 C287.11,104.95 285.24,106.20 282.35,108.13 C282.19,108.23 282.02,108.34 281.86,108.45 C270.12,116.26 254.43,127.16 253.27,128.31 C252.51,129.06 252.27,130.88 252.63,133.10 C253.20,136.59 253.47,136.79 263.36,140.69 C268.93,142.90 276.88,145.93 281.00,147.44 C285.12,148.94 291.65,151.45 295.50,153.00 ZM 298.52 393.03 C300.69,396.54 323.05,388.71 333.36,380.83 C340.05,375.72 350.00,365.68 350.02,364.03 C350.03,363.19 346.32,359.01 341.77,354.74 L 333.50 346.98 L 327.50 347.61 C324.20,347.96 321.16,348.55 320.75,348.92 C320.33,349.30 318.49,352.51 316.65,356.05 C314.80,359.60 309.84,369.15 305.61,377.28 C301.38,385.41 298.19,392.50 298.52,393.03 ZM 193.54 395.06 C194.45,396.54 274.70,396.30 275.62,394.81 C276.04,394.13 275.60,393.17 274.59,392.56 C272.42,391.25 263.48,384.63 255.56,378.47 C250.15,374.26 249.31,373.92 246.06,374.62 C240.98,375.73 236.97,375.53 233.39,374.00 C230.38,372.71 229.84,372.91 217.39,380.02 C195.11,392.73 192.94,394.10 193.54,395.06 ZM 221.44 121.17 L 229.38 125.67 L 234.24 123.61 C238.87,121.66 239.33,121.64 243.59,123.17 L 248.06 124.78 L 255.28 119.92 C259.25,117.25 265.08,113.25 268.23,111.03 C271.37,108.81 274.34,107.00 274.82,107.00 C275.30,107.00 276.50,106.10 277.50,105.00 C279.31,103.00 279.25,103.00 235.60,103.00 C210.46,103.00 192.11,103.38 192.43,103.89 C192.95,104.72 203.55,111.04 221.44,121.17 ZM 323.49 153.99 C324.24,154.82 324.69,155.38 325.26,155.64 C326.32,156.12 327.83,155.60 332.56,153.99 C332.92,153.87 333.30,153.74 333.70,153.60 C344.31,149.99 345.29,149.32 344.52,146.17 C342.34,137.32 327.65,120.31 316.68,113.92 C308.87,109.38 308.76,109.33 304.93,108.12 C299.61,106.45 297.64,106.64 298.51,108.75 C299.41,110.95 304.17,124.75 308.05,136.43 C311.79,147.72 312.89,149.35 317.74,150.80 C319.90,151.45 322.49,152.89 323.49,153.99 ZM 345.24 350.42 C349.77,354.59 353.90,357.87 354.42,357.69 C356.41,357.03 360.93,346.10 362.56,338.02 C363.89,331.47 364.12,327.06 363.61,318.59 C362.99,308.48 361.90,304.50 359.92,305.22 C359.49,305.37 354.16,310.33 348.07,316.24 L 337.00 326.98 L 337.00 342.84 ZM 333.09 205.17 C333.66,206.24 334.67,206.96 335.32,206.76 C337.34,206.14 344.67,191.02 346.37,183.95 C348.11,176.78 348.57,159.45 347.09,157.12 C346.20,155.71 340.71,156.16 337.13,157.95 C336.23,158.39 333.86,159.46 331.85,160.31 C329.05,161.51 327.91,162.77 326.98,165.69 C326.30,167.78 324.87,170.47 323.78,171.66 C321.82,173.82 321.82,173.85 324.47,181.16 C325.94,185.20 328.24,191.81 329.59,195.86 C330.94,199.90 332.51,204.09 333.09,205.17 Z" fill="rgb(244,107,9)"/>
<path d="M 210.06 120.91 C200.30,115.58 189.50,110.07 188.53,110.21 C187.29,110.39 186.71,111.16 186.82,112.72 C186.64,112.18 186.34,111.71 186.00,111.50 C184.78,110.75 184.66,107.00 185.86,107.00 C186.33,107.00 188.28,108.06 190.18,109.35 C192.08,110.64 199.90,115.21 207.57,119.51 C208.44,120.00 209.27,120.46 210.06,120.91 ZM 235.02 103.00 L 235.60 103.00 C279.25,103.00 279.31,103.00 277.50,105.00 C276.50,106.10 275.30,107.00 274.82,107.00 C274.46,107.00 272.65,108.05 270.41,109.54 C273.17,107.45 274.98,105.59 274.99,104.75 C275.00,103.13 272.43,103.00 235.02,103.00 ZM 184.00 390.40 C184.00,389.53 184.63,387.61 185.40,386.15 C186.16,384.69 188.01,380.46 189.51,376.75 C190.79,373.57 192.89,369.30 194.53,366.50 C192.89,369.30 190.79,373.57 189.51,376.75 C188.02,380.46 186.40,384.28 185.90,385.24 C185.41,386.19 185.00,387.65 185.00,388.49 C185.00,390.55 187.98,390.34 192.35,388.13 C190.54,389.19 189.17,390.02 188.29,390.59 C185.39,392.43 184.00,392.37 184.00,390.40 ZM 193.54 395.06 C193.02,394.22 194.62,393.06 210.02,384.23 C197.95,391.21 196.00,392.77 196.00,394.65 C196.00,395.76 202.92,396.00 234.50,396.00 L 243.24 396.00 C220.51,396.19 194.06,395.91 193.54,395.06 ZM 275.62 394.81 C275.52,394.96 274.59,395.10 272.99,395.23 L 272.97 393.75 C272.96,392.38 271.61,390.70 268.59,388.34 C271.44,390.43 273.65,391.99 274.59,392.56 C275.60,393.17 276.04,394.13 275.62,394.81 ZM 263.85 114.07 C261.01,116.03 257.78,118.24 255.28,119.92 L 249.29 123.95 L 254.92 120.14 C257.36,118.48 260.77,116.17 263.85,114.07 ZM 187.02 114.02 C187.39,115.64 188.24,117.83 189.58,120.69 C189.63,120.81 189.69,120.93 189.75,121.05 C189.66,120.87 189.57,120.68 189.48,120.50 C188.21,117.93 187.16,115.13 187.02,114.02 ZM 222.42 377.16 C230.07,372.88 230.85,372.91 233.39,374.00 C233.60,374.09 233.82,374.18 234.04,374.26 C233.82,374.17 233.59,374.08 233.37,373.99 C230.96,372.96 230.14,372.87 222.42,377.16 ZM 226.52 131.98 C226.99,132.97 227.08,134.04 227.25,135.55 C227.10,134.26 226.83,132.99 226.52,131.98 ZM 214.44 156.42 C210.57,152.49 204.86,145.45 200.17,139.14 C204.91,145.49 210.67,152.59 214.44,156.42 ZM 255.56 378.47 C256.68,379.34 257.83,380.22 258.97,381.10 C257.73,380.15 256.55,379.25 255.56,378.47 C252.44,376.04 250.84,374.90 249.42,374.50 C250.84,374.90 252.44,376.04 255.56,378.47 ZM 191.97 126.31 C191.99,126.38 192.00,126.44 192.00,126.47 C192.00,126.48 192.00,126.48 192.00,126.49 C191.99,126.43 191.98,126.37 191.97,126.31 Z" fill="rgb(251,221,190)"/>
<path d="M 0.00 250.00 L 0.00 0.00 L 250.00 0.00 L 500.00 0.00 L 500.00 250.00 L 500.00 500.00 L 250.00 500.00 L 0.00 500.00 L 0.00 250.00 ZM 279.50 481.89 C290.47,480.48 308.28,476.97 309.50,475.99 C310.05,475.54 312.75,474.73 315.50,474.18 C330.39,471.19 357.81,458.49 377.39,445.51 C402.18,429.07 428.90,402.67 443.66,380.05 C446.73,375.35 450.03,370.35 451.00,368.95 C457.28,359.87 471.72,326.20 474.05,315.18 C474.55,312.81 475.26,310.39 475.61,309.81 C476.43,308.50 479.51,293.42 481.40,281.50 C485.95,252.87 483.45,216.79 474.80,186.50 C470.76,172.36 456.21,138.79 451.67,133.14 C451.07,132.40 450.11,131.02 449.54,130.07 C430.36,98.43 403.20,71.02 372.00,51.82 C338.90,31.45 306.18,21.04 265.24,17.87 C223.93,14.66 178.81,24.25 142.00,44.06 C120.09,55.85 102.47,68.80 85.59,85.51 C63.20,107.68 42.82,139.66 31.44,170.50 C-0.40,256.77 22.17,353.80 89.13,418.52 C99.65,428.69 116.78,442.00 129.50,449.90 C137.81,455.06 159.65,465.65 169.50,469.30 C187.78,476.06 212.16,481.41 232.00,482.99 C244.03,483.95 267.75,483.40 279.50,481.89 ZM 216.50 468.90 C203.73,466.87 200.09,465.97 182.02,460.32 C165.92,455.28 143.71,444.46 127.84,433.93 C123.74,431.21 107.78,419.01 107.00,418.00 C106.72,417.64 103.80,414.94 100.50,411.99 C80.28,393.90 62.18,369.20 50.68,344.00 C48.04,338.23 45.31,332.38 44.60,331.00 C43.90,329.62 42.54,325.80 41.58,322.50 C40.62,319.20 38.79,312.90 37.50,308.50 C33.03,293.18 30.70,278.45 29.50,257.89 C28.51,240.82 31.35,214.82 36.09,197.52 C37.14,193.68 38.02,189.63 38.03,188.52 C38.05,187.41 38.94,184.70 40.00,182.50 C41.06,180.30 41.95,178.14 41.97,177.70 C42.04,175.93 50.38,156.90 55.20,147.50 C67.55,123.39 87.74,98.43 108.50,81.61 C125.95,67.46 133.00,62.66 147.14,55.29 C160.70,48.22 182.95,39.50 194.00,36.93 C219.64,30.96 221.54,30.74 248.00,30.62 C274.04,30.50 279.86,31.02 298.14,35.08 C348.65,46.32 394.69,76.09 426.34,117.98 C434.43,128.70 438.95,135.19 438.98,136.15 C438.99,136.50 440.79,139.74 442.97,143.34 C456.30,165.27 466.77,197.28 470.05,226.11 C471.75,241.07 470.74,274.29 468.16,288.00 C462.81,316.47 450.50,347.96 436.69,368.50 C398.16,425.83 341.21,461.76 275.90,469.95 C262.28,471.66 230.37,471.09 216.50,468.90 ZM 304.20 418.10 C305.47,417.60 309.20,416.61 312.50,415.90 C315.80,415.20 321.65,413.33 325.50,411.76 C355.30,399.61 376.59,376.76 384.63,348.33 C387.08,339.67 387.66,313.75 385.62,303.91 C382.25,287.62 372.48,270.52 359.26,257.75 C354.84,253.49 350.72,250.00 350.10,250.00 C349.48,250.00 345.36,253.45 340.94,257.68 L 332.91 265.35 L 341.92 274.43 C352.26,284.85 353.88,286.84 356.98,292.94 L 359.23 297.38 L 345.60 310.75 C334.10,322.02 331.61,324.02 329.73,323.46 C324.74,321.98 323.69,320.48 321.93,312.43 C319.63,301.90 316.34,288.50 313.40,277.71 C312.08,272.87 311.00,268.05 311.00,267.01 C311.00,265.96 312.68,263.84 314.73,262.30 C330.68,250.31 351.05,229.05 358.28,216.84 C367.99,200.44 372.99,180.02 371.63,162.29 C370.97,153.72 368.39,140.37 367.04,138.50 C366.64,137.95 365.54,135.48 364.59,133.00 C361.83,125.84 352.09,112.26 345.01,105.72 C336.02,97.42 327.07,91.81 315.41,87.17 C295.97,79.43 296.80,79.50 222.50,79.50 L 156.50 79.50 L 156.50 203.75 C156.50,285.80 156.84,328.06 157.50,328.18 C158.05,328.28 159.40,326.89 160.50,325.10 C167.64,313.48 174.39,304.31 181.77,296.23 C189.59,287.66 205.50,272.96 214.16,266.31 C220.89,261.13 246.46,241.91 250.23,239.19 C252.28,237.71 253.96,235.97 253.98,235.32 C254.01,233.84 247.04,228.17 240.69,224.51 C236.79,222.26 235.45,221.93 233.61,222.77 C229.84,224.49 203.91,244.25 186.79,258.44 C183.66,261.04 180.62,262.88 180.04,262.53 C178.40,261.51 178.61,153.98 180.25,154.06 C180.94,154.09 184.88,158.17 189.00,163.14 C202.47,179.34 227.35,201.18 245.47,212.70 C248.24,214.45 251.85,216.83 253.50,217.97 C261.10,223.24 268.57,228.00 269.25,228.00 C269.66,228.00 272.13,229.52 274.75,231.37 C277.36,233.23 281.14,235.33 283.15,236.04 C286.76,237.32 286.87,237.28 293.15,232.26 C301.21,225.84 304.38,222.43 303.56,221.10 C303.20,220.52 299.89,218.38 296.21,216.35 C292.52,214.31 287.70,211.45 285.50,209.98 C283.30,208.52 279.59,206.11 277.25,204.64 C274.91,203.17 273.00,201.55 273.00,201.03 C273.00,200.51 276.22,197.48 280.16,194.29 C298.90,179.14 305.58,174.00 306.50,174.02 C309.17,174.06 316.49,176.86 317.17,178.10 C318.23,180.03 327.49,205.50 329.10,210.91 L 330.41 215.31 L 318.23 227.10 C307.48,237.50 294.71,247.60 276.15,260.39 C221.64,297.94 194.70,321.76 178.78,346.50 C165.63,366.93 158.37,387.78 157.27,408.25 L 156.70 419.00 L 229.30 419.00 C270.24,419.00 302.91,418.61 304.20,418.10 ZM 196.00 394.65 C196.00,392.55 198.45,390.83 214.87,381.44 C229.83,372.89 230.33,372.69 233.37,373.99 C236.97,375.53 240.98,375.73 246.06,374.62 C249.31,373.92 250.15,374.26 255.56,378.47 C258.83,381.02 264.08,384.99 267.22,387.30 C271.21,390.22 272.95,392.18 272.97,393.75 L 273.00 396.00 L 234.50 396.00 C202.92,396.00 196.00,395.76 196.00,394.65 ZM 280.50 390.88 C270.97,383.23 265.47,378.94 259.20,374.26 C253.11,369.72 252.92,369.44 253.20,365.53 L 253.50 361.50 L 264.00 358.19 C269.77,356.36 275.17,354.61 276.00,354.29 C284.87,350.83 309.04,342.77 310.87,342.65 C312.18,342.57 313.75,343.28 314.36,344.24 C315.53,346.06 314.40,348.51 297.26,381.50 C289.29,396.83 288.48,397.28 280.50,390.88 ZM 298.52 393.03 C298.19,392.50 301.38,385.41 305.61,377.28 C309.84,369.15 314.80,359.60 316.65,356.05 C318.49,352.51 320.33,349.30 320.75,348.92 C321.16,348.55 324.20,347.96 327.50,347.61 L 333.50 346.98 L 341.77 354.74 C346.32,359.01 350.03,363.19 350.02,364.03 C350.00,365.68 340.05,375.72 333.36,380.83 C323.05,388.71 300.69,396.54 298.52,393.03 ZM 185.00 388.49 C185.00,387.65 185.41,386.19 185.90,385.24 C186.40,384.28 188.02,380.46 189.51,376.75 C191.00,373.04 193.61,367.87 195.30,365.25 C196.99,362.64 199.85,358.23 201.65,355.45 C208.49,344.92 238.79,315.00 242.62,315.00 C244.85,315.00 244.71,319.30 241.93,336.00 C240.87,342.33 240.01,347.82 240.01,348.20 C240.00,348.59 238.48,349.63 236.62,350.51 C231.06,353.15 228.61,356.50 228.02,362.28 L 227.50 367.45 L 218.29 372.97 C213.22,376.01 206.92,379.73 204.29,381.23 C201.66,382.73 197.25,385.30 194.50,386.94 C188.98,390.22 185.00,390.87 185.00,388.49 ZM 345.24 350.42 L 337.00 342.84 L 337.00 334.91 L 337.00 326.98 L 348.07 316.24 C354.16,310.33 359.49,305.37 359.92,305.22 C361.90,304.50 362.99,308.48 363.61,318.59 C364.12,327.06 363.89,331.47 362.56,338.02 C360.93,346.10 356.41,357.03 354.42,357.69 C353.90,357.87 349.77,354.59 345.24,350.42 ZM 248.75 353.52 C245.43,350.60 245.40,349.64 248.06,332.50 C249.17,325.35 250.33,317.70 250.62,315.50 C251.46,309.28 253.04,306.03 255.53,305.40 C258.04,304.77 257.05,304.33 289.66,320.79 C311.58,331.84 313.29,333.11 310.36,336.04 C309.42,336.98 253.78,356.04 252.19,355.97 C251.81,355.95 250.26,354.85 248.75,353.52 ZM 289.19 314.48 C266.81,303.16 262.55,300.54 263.63,298.79 C263.95,298.27 266.35,296.42 268.96,294.67 C279.03,287.94 292.76,278.43 298.46,274.24 C303.63,270.44 304.57,270.06 305.55,271.40 C306.17,272.25 308.82,281.85 311.44,292.72 C314.06,303.60 316.60,313.53 317.10,314.80 C318.69,318.86 318.19,323.83 316.07,324.96 C315.00,325.53 313.54,325.95 312.82,325.88 C312.09,325.82 301.46,320.68 289.19,314.48 ZM 333.09 205.17 C332.51,204.09 330.94,199.90 329.59,195.86 C328.24,191.81 325.94,185.20 324.47,181.16 C321.82,173.85 321.82,173.82 323.78,171.66 C324.87,170.47 326.30,167.78 326.98,165.69 C327.91,162.77 329.05,161.51 331.85,160.31 C333.86,159.46 336.23,158.39 337.13,157.95 C340.71,156.16 346.20,155.71 347.09,157.12 C348.57,159.45 348.11,176.78 346.37,183.95 C344.67,191.02 337.34,206.14 335.32,206.76 C334.67,206.96 333.66,206.24 333.09,205.17 ZM 260.71 193.98 C256.54,190.99 255.00,189.20 254.50,186.75 C254.13,184.96 253.22,181.25 252.48,178.50 C251.73,175.75 250.60,170.80 249.97,167.50 C249.34,164.20 248.43,160.74 247.95,159.82 C247.46,158.90 246.78,155.27 246.42,151.76 C245.80,145.70 245.89,145.30 248.30,143.72 C250.69,142.16 251.18,142.17 256.17,143.91 C259.10,144.93 262.62,146.26 264.00,146.86 C265.38,147.46 272.58,150.17 280.00,152.88 C302.70,161.18 301.68,160.63 302.35,164.76 C303.00,168.80 301.81,170.71 296.34,174.38 C294.60,175.55 287.62,181.02 280.84,186.54 C274.05,192.07 268.00,196.90 267.38,197.27 C266.77,197.65 263.76,196.17 260.71,193.98 ZM 243.00 181.24 C237.09,177.34 222.82,164.94 214.44,156.42 C207.05,148.91 192.00,128.82 192.00,126.47 C192.00,126.14 190.91,123.54 189.58,120.69 C186.24,113.54 185.95,110.58 188.53,110.21 C190.22,109.97 221.69,126.83 225.59,130.07 C226.22,130.60 226.97,133.08 227.26,135.59 C227.84,140.77 231.46,145.37 236.71,147.62 C240.26,149.14 240.16,148.88 244.45,167.68 C248.05,183.44 247.93,184.50 243.00,181.24 ZM 295.50 153.00 C291.65,151.45 285.12,148.94 281.00,147.44 C276.88,145.93 268.93,142.90 263.36,140.69 C253.47,136.79 253.20,136.59 252.63,133.10 C252.27,130.88 252.51,129.06 253.27,128.31 C254.43,127.16 270.12,116.26 281.86,108.45 C290.67,102.59 290.32,102.20 299.63,128.50 L 307.78 151.50 L 305.71 153.75 C303.26,156.43 304.14,156.49 295.50,153.00 ZM 323.49 153.99 C322.49,152.89 319.90,151.45 317.74,150.80 C312.89,149.35 311.79,147.72 308.05,136.43 C304.17,124.75 299.41,110.95 298.51,108.75 C297.64,106.64 299.61,106.45 304.93,108.12 C308.76,109.33 308.87,109.38 316.68,113.92 C327.65,120.31 342.34,137.32 344.52,146.17 C345.29,149.32 344.31,149.99 333.70,153.60 C325.21,156.49 325.74,156.47 323.49,153.99 ZM 221.44 121.17 C203.55,111.04 192.95,104.72 192.43,103.89 C192.11,103.38 209.55,103.00 233.44,103.00 C272.36,103.00 275.00,103.11 274.99,104.75 C274.98,105.78 272.25,108.36 268.37,111.00 C264.74,113.47 258.69,117.59 254.92,120.14 L 248.07 124.78 L 243.59 123.17 C239.33,121.64 238.87,121.66 234.24,123.61 L 229.38 125.67 L 221.44 121.17 Z" fill="rgb(254,254,253)"/>
</g>
</svg>