<?xml version="1.0" encoding="utf-8"?>
<!-- Generator: Adobe Illustrator 27.9.0, SVG Export Plug-In . SVG Version: 6.00 Build 0)  -->
<svg version="1.1" id="Calque_1" xmlns="http://www.w3.org/2000/svg" xmlns:xlink="http://www.w3.org/1999/xlink" x="0px" y="0px"
	 viewBox="0 0 24 24" style="enable-background:new 0 0 24 24;" xml:space="preserve">
<g>
	<path d="M20.8,5.2C19.7,4,17.8,4,14,4h-4C6.2,4,4.3,4,3.2,5.2C2.3,6,2.1,7.2,2,9.2H22C21.9,7.2,21.7,6,20.8,5.2z"/>
	<path d="M22,10.8H2c0,0.4,0,0.8,0,1.2c0,3.8,0,5.7,1.2,6.8C4.3,20,6.2,20,10,20h4c3.8,0,5.7,0,6.8-1.2C22,17.7,22,15.8,22,12
		C22,11.6,22,11.1,22,10.8z M10,16.8H6c-0.4,0-0.8-0.3-0.8-0.8s0.3-0.8,0.8-0.8h4c0.4,0,0.8,0.3,0.8,0.8S10.4,16.8,10,16.8z
		 M14,16.8h-1.5c-0.4,0-0.8-0.3-0.8-0.8s0.3-0.8,0.8-0.8H14c0.4,0,0.8,0.3,0.8,0.8S14.4,16.8,14,16.8z"/>
</g>
</svg>
