<?xml version="1.0" encoding="UTF-8" standalone="no"?>
<svg
   width="24"
   height="24"
   viewBox="0 0 24 24"
   
   version="1.1"
   id="svg3"
   xmlns="http://www.w3.org/2000/svg"
   xmlns:svg="http://www.w3.org/2000/svg">
  <defs
     id="defs3" />
  <path
     
     d="M 12.005859,1.25 C 7.4455437,1.2120046 3.7740581,5.017394 3.8105469,9.6855469 3.8469323,14.339037 7.3713718,18.711495 11.994141,18.75 16.61691,18.788504 20.347128,14.481613 20.310547,9.7988281 20.27408,5.1306669 16.566184,1.2879844 12.005859,1.25 Z m -0.01172,1.5 c 3.723667,0.031016 6.786073,3.1776167 6.816406,7.0605469 C 18.840766,13.678873 15.667081,17.280495 12.005859,17.25 8.3446564,17.219505 5.3410214,13.571349 5.3105469,9.6738281 5.2801957,5.7908895 8.2704846,2.7189755 11.994141,2.75 Z"
     id="path1" />
  <path
     
     d="M 12.505859,5.25 A 0.75,0.75 0 0 0 11.75,5.9941406 0.75,0.75 0 0 0 12.494141,6.75 C 13.732475,6.75999 14.739979,7.7675117 14.75,9.0058594 A 0.75,0.75 0 0 0 15.505859,9.75 0.75,0.75 0 0 0 16.25,8.9941406 C 16.233421,6.9453116 14.554721,5.2665295 12.505859,5.25 Z"
     id="path2" />
  <path
     
     d="m 13.394531,17.701172 a 0.75,0.75 0 0 0 -0.570312,0.06641 0.75,0.75 0 0 0 -0.289063,1.019531 c 0.152313,0.273344 0.211118,0.406767 0.201172,0.375 h -0.002 c 0.06113,0.195526 -0.04116,0.381732 -0.285156,0.429688 0.02214,-0.0043 -0.128019,0.0078 -0.449219,0.0078 -0.3212,0 -0.471363,-0.01216 -0.449219,-0.0078 -0.244,-0.04796 -0.346288,-0.234162 -0.285156,-0.429688 h -0.002 c -0.0099,0.03177 0.04886,-0.101656 0.201172,-0.375 a 0.75,0.75 0 0 0 -0.289063,-1.019531 0.75,0.75 0 0 0 -1.021484,0.291016 C 10.00181,18.332249 9.9099302,18.472278 9.8339844,18.714844 9.5106347,19.74906 10.195837,20.840486 11.25,21.056641 V 22.5 A 0.75,0.75 0 0 0 12,23.25 0.75,0.75 0 0 0 12.75,22.5 v -1.443359 c 1.054163,-0.216155 1.739365,-1.307581 1.416016,-2.341797 -0.07595,-0.242566 -0.167826,-0.382595 -0.320313,-0.65625 a 0.75,0.75 0 0 0 -0.451172,-0.357422 z"
     id="path3" />
</svg>
