<?xml version="1.0" encoding="UTF-8" standalone="no"?>
<svg
   width="24"
   height="24"
   viewBox="0 0 24 24"
   
   version="1.1"
   id="svg3"
   xmlns="http://www.w3.org/2000/svg"
   xmlns:svg="http://www.w3.org/2000/svg">
  <defs
     id="defs3" />
  <path
     
     d="M 10,3.25 C 8.1143819,3.25 6.6859363,3.2444746 5.5117187,3.4023438 4.3375012,3.5602129 3.3686723,3.9125839 2.640625,4.640625 1.9125839,5.3686723 1.5602129,6.3375012 1.4023437,7.5117187 1.2444746,8.6859363 1.25,10.114382 1.25,12 c 0,1.885598 -0.00553,3.314057 0.1523437,4.488281 0.1578691,1.174225 0.5102188,2.143075 1.2382813,2.871094 0.7280455,0.728058 1.6968741,1.080408 2.8710937,1.238281 C 6.6859384,20.75553 8.1143819,20.75 10,20.75 h 1.5 c 1.885598,0 3.314055,0.0055 4.488281,-0.152344 1.174227,-0.157873 2.143077,-0.510202 2.871094,-1.238281 0.728079,-0.728017 1.080408,-1.696867 1.238281,-2.871094 C 20.25553,15.314055 20.25,13.885598 20.25,12 20.25,10.114382 20.25553,8.6859384 20.097656,7.5117187 19.939783,6.3374991 19.587433,5.3686705 18.859375,4.640625 18.131356,3.9125625 17.162506,3.5602128 15.988281,3.4023438 14.814057,3.2444747 13.385598,3.25 11.5,3.25 Z m 0,1.5 h 1.5 c 1.885598,0 3.284764,0.0056 4.289063,0.140625 1.004298,0.1350232 1.566285,0.3670405 2.009765,0.8105469 0.443541,0.4435333 0.675521,1.0054774 0.810547,2.0097656 C 18.744401,8.7152257 18.75,10.114382 18.75,12 c 0,1.885598 -0.0056,3.284766 -0.140625,4.289062 -0.135026,1.004297 -0.367027,1.566284 -0.810547,2.009766 -0.443482,0.44352 -1.005469,0.675521 -2.009765,0.810547 C 14.784766,19.244401 13.385598,19.25 11.5,19.25 H 10 C 8.1143819,19.25 6.7152257,19.2444 5.7109375,19.109375 4.7066493,18.974349 4.1447052,18.742369 3.7011719,18.298828 3.2576655,17.855348 3.0256482,17.293361 2.890625,16.289062 2.7556018,15.284764 2.75,13.885598 2.75,12 2.75,10.114382 2.7556019,8.7152278 2.890625,7.7109375 3.0256481,6.7066472 3.2576441,6.1447034 3.7011719,5.7011719 4.1447034,5.2576441 4.7066472,5.0256481 5.7109375,4.890625 6.7152278,4.7556019 8.1143819,4.75 10,4.75 Z"
     id="path1" />
  <path
     
     d="M 7.2050781,8.2792969 A 0.75,0.75 0 0 0 6.6367187,8.34375 0.75,0.75 0 0 0 6.34375,9.3632813 c 0,0 0.070776,0.1104017 0.1796875,0.5351562 C 6.6323489,10.323192 6.75,11.009525 6.75,12 6.75,12.990475 6.6323489,13.676808 6.5234375,14.101563 6.4145261,14.526317 6.34375,14.636719 6.34375,14.636719 A 0.75,0.75 0 0 0 6.6367187,15.65625 0.75,0.75 0 0 0 7.65625,15.363281 c 0,0 0.1792242,-0.338427 0.3203125,-0.888672 C 8.1176508,13.924365 8.25,13.109523 8.25,12 8.25,10.890477 8.1176508,10.075635 7.9765625,9.5253906 7.8354742,8.9751461 7.65625,8.6367188 7.65625,8.6367188 A 0.75,0.75 0 0 0 7.2050781,8.2792969 Z"
     id="path2" />
  <path
     
     d="M 19.25,9.25 V 10 14.75 H 20 c 0.4714,0 0.839988,0.0051 1.197266,-0.04297 0.357278,-0.04804 0.752311,-0.180046 1.041015,-0.46875 0.288704,-0.288704 0.420714,-0.683737 0.46875,-1.041015 C 22.755067,12.839988 22.75,12.4714 22.75,12 c 0,-0.4714 0.0051,-0.839988 -0.04297,-1.197266 C 22.65899,10.445456 22.526984,10.050423 22.23828,9.7617188 21.949577,9.4730148 21.554544,9.3410049 21.197266,9.2929688 20.839988,9.2449326 20.4714,9.25 20,9.25 Z m 1.5,1.521484 c 0.06497,0.004 0.201482,0.0016 0.248047,0.0078 0.187346,0.02519 0.175492,0.03877 0.179687,0.04297 0.0042,0.0042 0.01778,-0.0077 0.04297,0.179687 C 21.245892,11.1893 21.25,11.5286 21.25,12 c 0,0.4714 -0.0041,0.8107 -0.0293,0.998047 -0.02519,0.187346 -0.03877,0.175492 -0.04297,0.179687 -0.0042,0.0042 0.0077,0.01778 -0.179687,0.04297 -0.04657,0.0063 -0.18308,0.0038 -0.248047,0.0078 z"
     id="path3" />
</svg>
