<?xml version="1.0" encoding="UTF-8" standalone="no"?>
<svg
   width="24"
   height="24"
   viewBox="0 0 24 24"
   
   version="1.1"
   id="svg2"
   xmlns="http://www.w3.org/2000/svg"
   xmlns:svg="http://www.w3.org/2000/svg">
  <defs
     id="defs2" />
  <path
     
     d="m 12,1.25 c -1.188215,0 -2.1701745,0.5474417 -3.9257812,1.46875 L 6.0742187,3.7675781 C 3.9225617,4.8967166 2.6866027,5.5108296 1.9511719,6.7597656 1.2157328,8.0086948 1.25,9.4165788 1.25,11.941406 v 0.117188 c 0,2.524797 -0.034279,3.932704 0.7011719,5.18164 0.7354395,1.248939 1.971406,1.862998 4.1230468,2.992188 L 8.0742188,21.28125 C 9.8298166,22.202544 10.811764,22.75 12,22.75 c 1.188236,0 2.170193,-0.547456 3.925781,-1.46875 l 2,-1.048828 c 2.151686,-1.129193 3.387606,-1.743267 4.123047,-2.992188 C 22.784279,15.991298 22.75,14.583391 22.75,12.058594 V 11.941406 C 22.75,9.4165788 22.78427,8.0086948 22.048828,6.7597656 21.313395,5.510847 20.077483,4.8967192 17.925781,3.7675781 l -2,-1.0488281 C 14.170184,1.7974414 13.188215,1.25 12,1.25 Z m 0,1.5 c 0.700383,0 1.472916,0.3755654 3.228516,1.296875 l 2,1.0488281 c 2.151693,1.1291367 3.067977,1.6437288 3.527343,2.4238281 C 21.215219,8.29962 21.25,9.4165788 21.25,11.941406 v 0.117188 c 0,2.524797 -0.03479,3.641814 -0.494141,4.421875 -0.459357,0.780077 -1.375634,1.294623 -3.527343,2.423828 l -2,1.048828 C 13.472907,20.874429 12.700362,21.25 12,21.25 c -0.700362,0 -1.472897,-0.37557 -3.2285156,-1.296875 l -2,-1.048828 C 4.6198095,17.775089 3.7034799,17.260528 3.2441406,16.480469 2.7847927,15.700408 2.75,14.583391 2.75,12.058594 V 11.941406 C 2.75,9.4165788 2.7847809,8.29962 3.2441406,7.5195312 3.7034886,6.7394493 4.6198257,6.2248424 6.7714844,5.0957031 l 2,-1.0488281 C 10.527094,3.1255651 11.299617,2.75 12,2.75 Z"
     id="path1" />
  <path
     
     d="M 7.2773437,3.7832031 A 0.75,0.75 0 0 0 6.8359375,4.1503906 0.75,0.75 0 0 0 7.1503906,5.1640625 L 15.357422,9.484375 12,11.162109 3.3359375,6.8300781 A 0.75,0.75 0 0 0 2.3300781,7.1640625 0.75,0.75 0 0 0 2.6640625,8.1699219 L 11.25,12.462891 V 21.5 A 0.75,0.75 0 0 0 12,22.25 0.75,0.75 0 0 0 12.75,21.5 v -9.037109 l 3.5,-1.75 V 13 A 0.75,0.75 0 0 0 17,13.75 0.75,0.75 0 0 0 17.75,13 V 9.9628906 L 21.335937,8.1699219 A 0.75,0.75 0 0 0 21.669922,7.1640625 0.75,0.75 0 0 0 20.664062,6.8300781 L 17.009766,8.65625 7.8496094,3.8359375 A 0.75,0.75 0 0 0 7.2773437,3.7832031 Z"
     id="path2" />
</svg>
