<?xml version="1.0" encoding="UTF-8" standalone="no"?>
<svg
   width="24"
   height="24"
   viewBox="0 0 24 24"
   
   version="1.1"
   id="svg1"
   xmlns="http://www.w3.org/2000/svg"
   xmlns:svg="http://www.w3.org/2000/svg">
  <defs
     id="defs1" />
  <path
     d="m 22.5303,2.53033 c 0.2929,-0.2929 0.2929,-0.76777 0,-1.06066 -0.2929,-0.29289 -0.7677,-0.29289 -1.0606,0 z M 3.18962,12.6295 3.83038,12.2397 Z m -0.74109,-1.2182 -0.66801,0.341 0.01272,0.0249 0.01454,0.0239 z M 4.11001,5.99717 4.46019,6.6604 v 0 z M 7.17896,4.718 7.38511,5.43912 v 0 z M 13.1415,4.14265 13.6718,3.61232 13.4883,3.42879 13.2306,3.39796 Z m -1.7712,16.66765 0.3898,-0.6408 v 0 z m 1.2183,0.7412 -0.3897,0.6407 0.0238,0.0146 0.025,0.0127 z M 18.0027,19.89 17.3395,19.5398 v 0 z m 1.2792,-3.069 0.7211,0.2062 v 0 z m 0.5753,-5.9626 0.7447,-0.089 -0.0308,-0.2577 -0.1835,-0.1836 z m 1.6125,-9.38873 -2.3574,2.35742 1.0606,1.06066 2.3574,-2.35742 z m -7.5832,3.41816 c 1.4431,-1.44308 3.7827,-1.44312 5.2258,-8e-5 l 1.0606,-1.06066 c -2.0288,-2.02887 -5.3182,-2.02875 -7.347,9e-5 z m 5.2258,-8e-5 c 1.443,1.44308 1.4431,3.78283 0,5.22585 l 1.0607,1.0607 C 22.2018,9.14543 22.2018,5.85593 20.1729,3.82709 Z M 3.83038,12.2397 3.08928,11.0215 1.80778,11.8011 2.54887,13.0193 Z M 4.46019,6.6604 C 5.38214,6.17361 6.39541,5.72205 7.38511,5.43912 L 6.97281,3.99689 C 5.84911,4.31813 4.73552,4.81877 3.75982,5.33394 Z M 7.38511,5.43912 C 8.89779,5.00667 10.323,4.86844 11.3726,4.83937 c 0.5236,-0.01449 0.9502,-0.00175 1.2431,0.01431 0.1463,0.00802 0.259,0.01685 0.3334,0.02348 0.0372,0.00331 0.0648,0.00607 0.0822,0.00789 0.0087,9.1e-4 0.0149,0.00159 0.0184,0.00199 0.0018,2e-4 0.0029,3.3e-4 0.0034,3.8e-4 2e-4,3e-5 2e-4,3e-5 10e-5,2e-5 0,0 -10e-5,-2e-5 -2e-4,-3e-5 -1e-4,-10e-6 -2e-4,-3e-5 -3e-4,-3e-5 -10e-5,-2e-5 -3e-4,-4e-5 0.0888,-0.74473 0.0891,-0.74469 0.0889,-0.74471 0.0887,-0.74473 -10e-5,-1e-5 -3e-4,-4e-5 -4e-4,-5e-5 -3e-4,-4e-5 -7e-4,-8e-5 -0.0011,-1.3e-4 -8e-4,-9e-5 -0.0017,-2e-4 -0.0028,-3.3e-4 -0.0023,-2.6e-4 -0.0052,-6e-4 -0.0088,-10e-4 C 13.2099,3.3956 13.2,3.39452 13.1876,3.39321 13.1627,3.3906 13.1273,3.38709 13.0822,3.38307 12.9918,3.37503 12.8621,3.36494 12.6978,3.35593 12.3692,3.33791 11.901,3.32417 11.3311,3.33995 10.1939,3.37145 8.63787,3.52089 6.97281,3.99689 Z M 3.11654,11.0703 C 2.31838,9.50665 2.84439,7.51354 4.46019,6.6604 L 3.75982,5.33394 c -2.4002,1.2673 -3.119344,4.18488 -1.9793,6.41836 z m 7.86396,10.3807 1.2184,0.7412 0.7795,-1.2815 -1.2183,-0.7412 z m 7.6855,-1.2108 c 0.5151,-0.9757 1.0158,-2.0893 1.337,-3.213 l -1.4422,-0.4123 c -0.2829,0.9897 -0.7345,2.0029 -1.2213,2.9249 z m 1.337,-3.213 c 0.476,-1.6651 0.6255,-3.2211 0.6569,-4.3584 0.0158,-0.5699 0.0021,-1.0381 -0.0159,-1.3666 -0.009,-0.1644 -0.0191,-0.2941 -0.0272,-0.3844 -0.004,-0.0452 -0.0075,-0.0805 -0.0101,-0.1054 -0.0013,-0.0125 -0.0024,-0.0224 -0.0032,-0.0296 -4e-4,-0.0035 -7e-4,-0.0065 -0.001,-0.0087 -10e-5,-0.0011 -3e-4,-0.0021 -3e-4,-0.0029 -10e-5,-4e-4 -10e-5,-7e-4 -2e-4,-10e-4 0,-2e-4 0,-4e-4 0,-5e-4 0,-10e-5 -10e-5,-3e-4 -0.7448,0.0887 -0.7446,0.0891 -0.7447,0.089 -0.7447,0.0888 0,0 0,-2e-4 0,-2e-4 0,-2e-4 0,-3e-4 0,-3e-4 -10e-5,-10e-5 0,-10e-5 0,2e-4 0,4e-4 2e-4,0.0015 4e-4,0.0033 4e-4,0.0036 0.001,0.0097 0.0019,0.0184 0.0019,0.0175 0.0046,0.045 0.0079,0.0822 0.0067,0.0744 0.0155,0.1871 0.0235,0.3335 0.0161,0.2929 0.0288,0.7195 0.0143,1.243 -0.029,1.0496 -0.1673,2.4749 -0.5997,3.9876 z m -7.7553,5.1923 c 2.2334,1.14 5.151,0.4209 6.4183,-1.9793 l -1.3265,-0.7004 c -0.8531,1.6158 -2.8462,2.1418 -4.4099,1.3437 z M 12.6112,4.67298 19.3269,11.3888 20.3876,10.3281 13.6718,3.61232 Z M 2.54887,13.0193 c 2.0955,3.4447 4.987,6.3362 8.43163,8.4317 l 0.7796,-1.2815 C 8.52051,18.1988 5.80113,15.4794 3.83038,12.2397 Z"
     
     id="path2" />
</svg>
