<?xml version="1.0" encoding="UTF-8" standalone="no"?>
<svg
   width="24"
   height="24"
   viewBox="0 0 24 24"

   version="1.1"
   id="svg2"
   xmlns="http://www.w3.org/2000/svg"
   xmlns:svg="http://www.w3.org/2000/svg">
  <defs
     id="defs2" />
  <path
     
     d="M 12,4.25 C 10.585786,4.25 9.5093262,4.2459295 8.6074219,4.3671875 7.7055175,4.4884455 6.9292542,4.7660583 6.3476562,5.3476562 5.7660583,5.9292542 5.4884455,6.7055175 5.3671875,7.6074219 5.2459295,8.5093262 5.25,9.5857864 5.25,11 v 5 c 0,1.414199 -0.00407,2.490678 0.1171875,3.392578 0.1212581,0.901901 0.3988767,1.67816 0.9804687,2.259766 0.5815963,0.581609 1.3578595,0.859207 2.2597657,0.980468 C 9.5093281,22.754074 10.585786,22.75 12,22.75 h 3 c 1.414199,0 2.490676,0.0041 3.392578,-0.117188 0.901903,-0.121261 1.678162,-0.398865 2.259766,-0.980468 0.581603,-0.581604 0.859207,-1.357863 0.980468,-2.259766 C 21.754074,18.490676 21.75,17.414199 21.75,16 V 11 C 21.75,9.5857864 21.7541,8.5093281 21.632812,7.6074219 21.511551,6.7055157 21.233953,5.9292525 20.652344,5.3476562 20.070738,4.7660642 19.294479,4.4884456 18.392578,4.3671875 17.490678,4.2459294 16.414199,4.25 15,4.25 Z m 0,1.5 h 3 c 1.414199,0 2.459433,0.0051 3.191406,0.1035156 0.731973,0.098412 1.103297,0.2576004 1.400391,0.5546875 0.297089,0.2970829 0.456274,0.668416 0.554687,1.4003906 C 20.244898,8.5405684 20.25,9.5857864 20.25,11 v 5 c 0,1.414199 -0.0051,2.459435 -0.103516,3.191406 -0.09841,0.731971 -0.257592,1.103295 -0.554687,1.400391 -0.297096,0.297095 -0.66842,0.456274 -1.400391,0.554687 C 17.459435,21.244898 16.414199,21.25 15,21.25 H 12 C 10.585786,21.25 9.5405684,21.2449 8.8085938,21.146484 8.0766191,21.048071 7.705286,20.888886 7.4082031,20.591797 7.111116,20.294703 6.9519274,19.923379 6.8535156,19.191406 6.7551039,18.459433 6.75,17.414199 6.75,16 V 11 C 6.75,9.5857864 6.7551,8.5405702 6.8535156,7.8085937 6.9519274,7.0766173 7.1111219,6.7052843 7.4082031,6.4082031 7.7052843,6.1111219 8.0766173,5.9519274 8.8085938,5.8535156 9.5405702,5.7551039 10.585786,5.75 12,5.75 Z"
     id="path1" />
  <path
     
     d="M 11,1.25 C 9.1143819,1.25 7.6859363,1.2444746 6.5117187,1.4023437 5.3375012,1.5602129 4.3686723,1.9125839 3.640625,2.640625 2.9125839,3.3686723 2.5602129,4.3375012 2.4023438,5.5117187 2.2444746,6.6859363 2.25,8.1143819 2.25,10 v 6 c 0,2.062218 1.6878347,3.75 3.75,3.75 v -1.5 C 4.7484686,18.25 3.75,17.251579 3.75,16 V 10 C 3.75,8.1143819 3.7556,6.7152278 3.890625,5.7109375 4.0256481,4.7066472 4.2576441,4.1447034 4.7011719,3.7011719 5.1447034,3.2576441 5.7066472,3.0256481 6.7109375,2.890625 7.7152278,2.7556019 9.1143819,2.75 11,2.75 h 4 c 1.251579,0 2.25,0.9984686 2.25,2.25 h 1.5 C 18.75,2.9378347 17.062218,1.25 15,1.25 Z"
     id="path2" />
</svg>
