<?xml version="1.0" encoding="UTF-8" standalone="no"?>
<svg
   width="24"
   height="24"
   viewBox="0 0 24 24"
   
   version="1.1"
   id="svg4"
   xmlns="http://www.w3.org/2000/svg"
   xmlns:svg="http://www.w3.org/2000/svg">
  <defs
     id="defs4" />
  <path
     
     d="m 16.5,4.25 c -3.442921,0 -6.25,2.8071095 -6.25,6.25 0,3.442917 2.807083,6.25 6.25,6.25 3.442917,0 6.25,-2.807083 6.25,-6.25 0,-3.4428905 -2.807079,-6.25 -6.25,-6.25 z m 0,1.5 c 2.632272,0 4.75,2.1177566 4.75,4.75 0,2.632277 -2.117723,4.75 -4.75,4.75 -2.632277,0 -4.75,-2.117723 -4.75,-4.75 0,-2.6322434 2.117728,-4.75 4.75,-4.75 z"
     id="path1" />
  <path
     
     d="M 16.5,15.25 A 0.75,0.75 0 0 0 15.75,16 v 3.25 H 13.5 A 0.75,0.75 0 0 0 12.75,20 0.75,0.75 0 0 0 13.5,20.75 h 3 3 A 0.75,0.75 0 0 0 20.25,20 0.75,0.75 0 0 0 19.5,19.25 H 17.25 V 16 A 0.75,0.75 0 0 0 16.5,15.25 Z"
     id="path2" />
  <path
     d="m 2,11 v -0.75 c -0.41421,0 -0.75,0.3358 -0.75,0.75 z m 6,0 H 8.75 C 8.75,10.5858 8.41421,10.25 8,10.25 Z m -6,0.75 h 6 v -1.5 H 2 Z M 7.25,11 v 6 h 1.5 v -6 z m -4.5,6 v -6 h -1.5 v 6 z M 5,19.25 C 3.75736,19.25 2.75,18.2426 2.75,17 h -1.5 c 0,2.0711 1.67893,3.75 3.75,3.75 z M 7.25,17 c 0,1.2426 -1.00736,2.25 -2.25,2.25 v 1.5 c 2.07107,0 3.75,-1.6789 3.75,-3.75 z"
     
     id="path3" />
  <path
     
     d="m 5.2167969,4.0527344 -2,1 C 2.6253244,5.3484619 2.25,5.9559248 2.25,6.6171875 V 11.75 H 3 7.75 V 5.6171875 C 7.75,4.3476243 6.3523321,3.4849668 5.2167969,4.0527344 Z m 0.671875,1.3417968 C 6.0829354,5.2973995 6.25,5.3999922 6.25,5.6171875 V 10.25 H 3.75 V 6.6171875 c 0,-0.096277 0.052565,-0.1796041 0.1386719,-0.2226563 z"
     id="path4" />
</svg>
