<?xml version="1.0" encoding="UTF-8" standalone="no"?>
<svg
   width="24"
   height="24"
   viewBox="0 0 24 24"
   
   version="1.1"
   id="svg5"
   xmlns="http://www.w3.org/2000/svg"
   xmlns:svg="http://www.w3.org/2000/svg">
  <defs
     id="defs5" />
  <path
     
     d="m 8.6660156,1.25 c -2.2462765,0 -4.0820312,1.8377051 -4.0820312,4.0839844 0,2.2462792 1.835752,4.0820312 4.0820312,4.0820312 H 12.75 V 1.25 H 12 Z m 0,1.5 H 11.25 V 7.9160156 H 8.6660156 c -1.4356171,0 -2.5820312,-1.1464141 -2.5820312,-2.5820312 C 6.0839844,3.8983673 7.2303958,2.75 8.6660156,2.75 Z"
     id="path1" />
  <path
     
     d="M 8.6660156,7.9160156 C 6.419731,7.9160156 4.5839844,9.7537598 4.5839844,12 c 0,2.246318 1.8357493,4.083984 4.0820312,4.083984 H 12.75 V 7.9160156 H 12 Z m 0,1.5 H 11.25 V 14.583984 H 8.6660156 c -1.4356143,0 -2.5820312,-1.148306 -2.5820312,-2.583984 0,-1.435556 1.1464196,-2.5839844 2.5820312,-2.5839844 z"
     id="path2" />
  <path
     
     d="M 15.333984,7.9160156 C 13.087739,7.9160156 11.25,9.753757 11.25,12 c 0,2.246321 1.837741,4.083984 4.083984,4.083984 2.246321,0 4.082032,-1.837663 4.082032,-4.083984 0,-2.246243 -1.835708,-4.0839844 -4.082032,-4.0839844 z m 0,1.5 c 1.435673,0 2.582032,1.1484314 2.582032,2.5839844 0,1.435675 -1.146356,2.583984 -2.582032,2.583984 C 13.898431,14.583984 12.75,13.435675 12.75,12 c 0,-1.435553 1.148434,-2.5839844 2.583984,-2.5839844 z"
     id="path3" />
  <path
     
     d="m 8.6660156,14.583984 c -2.2462819,0 -4.0820312,1.835791 -4.0820312,4.082032 0,2.246318 1.8357493,4.083984 4.0820312,4.083984 C 10.912298,22.75 12.75,20.912337 12.75,18.666016 v -4.082032 z m 0,1.5 H 11.25 v 2.582032 c 0,1.435675 -1.14837,2.583984 -2.5839844,2.583984 -1.4356143,0 -2.5820312,-1.148306 -2.5820312,-2.583984 0,-1.435556 1.1464169,-2.582032 2.5820312,-2.582032 z"
     id="path4" />
  <path
     
     d="M 11.25,1.25 V 2 9.4160156 h 4.083984 c 2.246319,0 4.082032,-1.8357493 4.082032,-4.0820312 C 19.416016,3.0877024 17.5803,1.25 15.333984,1.25 Z m 1.5,1.5 h 2.583984 c 1.435681,0 2.582032,1.14837 2.582032,2.5839844 0,1.4356143 -1.146354,2.5820312 -2.582032,2.5820312 H 12.75 Z"
     id="path5" />
</svg>
