<?xml version="1.0" encoding="UTF-8" standalone="no"?>
<svg
   width="24"
   height="24"
   viewBox="0 0 24 24"
   
   version="1.1"
   id="svg4"
   xmlns="http://www.w3.org/2000/svg"
   xmlns:svg="http://www.w3.org/2000/svg">
  <defs
     id="defs4" />
  <path
     
     d="m 18,11.25 c -2.614466,0 -4.75,2.135534 -4.75,4.75 0,2.614466 2.135534,4.75 4.75,4.75 2.614466,0 4.75,-2.135534 4.75,-4.75 0,-2.614466 -2.135534,-4.75 -4.75,-4.75 z m 0,1.5 c 1.803807,0 3.25,1.446193 3.25,3.25 0,1.803807 -1.446193,3.25 -3.25,3.25 -1.803807,0 -3.25,-1.446193 -3.25,-3.25 0,-1.803807 1.446193,-3.25 3.25,-3.25 z"
     id="circle1" />
  <path
     
     d="m 6,11.25 c -2.6144665,0 -4.75,2.135534 -4.75,4.75 0,2.614466 2.1355335,4.75 4.75,4.75 2.6144665,0 4.75,-2.135534 4.75,-4.75 0,-2.614466 -2.1355335,-4.75 -4.75,-4.75 z m 0,1.5 c 1.8038071,0 3.25,1.446193 3.25,3.25 0,1.803807 -1.4461929,3.25 -3.25,3.25 -1.8038071,0 -3.25,-1.446193 -3.25,-3.25 0,-1.803807 1.4461929,-3.25 3.25,-3.25 z"
     id="circle2" />
  <path
     
     d="m 12,14.996094 c -0.540031,0 -1.079647,0.09325 -1.595703,0.277344 l -0.6562501,0.234375 a 0.75,0.75 0 0 0 -0.4550781,0.957031 0.75,0.75 0 0 0 0.9589842,0.455078 l 0.65625,-0.234375 c 0.706487,-0.252021 1.477238,-0.252003 2.183594,0 l 0.65625,0.234375 a 0.75,0.75 0 0 0 0.958984,-0.455078 0.75,0.75 0 0 0 -0.455078,-0.957031 l -0.65625,-0.234375 C 13.079682,15.089339 12.540031,14.996094 12,14.996094 Z"
     id="path2" />
  <path
     
     d="M 5.7636719,3.2890625 5.2441406,3.4609375 C 4.0399601,3.8623277 3.2677507,4.0797444 2.7167969,4.7753906 2.1658322,5.4710317 2.1305449,6.2730005 2.015625,7.5371094 L 1.2539062,15.931641 a 0.75,0.75 0 0 0 0.6777344,0.814453 0.75,0.75 0 0 0 0.8144532,-0.677735 L 3.5097656,7.6738281 C 3.6246855,6.4097196 3.7035235,5.9457292 3.8925781,5.7070312 4.0816236,5.4683384 4.514573,5.2861546 5.71875,4.8847656 L 6.2363281,4.7109375 A 0.75,0.75 0 0 0 6.7109375,3.7636719 0.75,0.75 0 0 0 5.7636719,3.2890625 Z"
     id="path3" />
  <path
     
     d="m 18.236328,3.2890625 a 0.75,0.75 0 0 0 -0.947266,0.4746094 0.75,0.75 0 0 0 0.47461,0.9472656 l 0.517578,0.1738281 c 1.204197,0.401389 1.637131,0.5835779 1.826172,0.8222656 0.189025,0.2386669 0.267911,0.7026688 0.382812,1.9667969 l 0.763672,8.3945309 a 0.75,0.75 0 0 0 0.814453,0.677735 0.75,0.75 0 0 0 0.677735,-0.814453 L 21.984375,7.5371094 C 21.869477,6.27302 21.834178,5.4710628 21.283203,4.7753906 20.732245,4.0797393 19.96006,3.8623277 18.755859,3.4609375 Z"
     id="path4" />
</svg>
