<?xml version="1.0" encoding="UTF-8" standalone="no"?>
<svg
   width="24"
   height="24"
   viewBox="0 0 24 24"

   version="1.1"
   id="svg5"
   xmlns="http://www.w3.org/2000/svg"
   xmlns:svg="http://www.w3.org/2000/svg">
  <defs
     id="defs5" />
  <path
     
     d="M 12,1.25 C 6.0718283,1.25 1.25,6.0718283 1.25,12 1.25,17.928172 6.0718283,22.75 12,22.75 17.928172,22.75 22.75,17.928172 22.75,12 22.75,6.0718283 17.928172,1.25 12,1.25 Z m 0,1.5 c 5.117512,0 9.25,4.1324877 9.25,9.25 0,5.117512 -4.132488,9.25 -9.25,9.25 C 6.8824877,21.25 2.75,17.117512 2.75,12 2.75,6.8824877 6.8824877,2.75 12,2.75 Z"
     id="circle1" />
  <path
     
     d="m 12,7.25 c -2.6144665,0 -4.75,2.1355335 -4.75,4.75 0,2.614466 2.1355335,4.75 4.75,4.75 2.614466,0 4.75,-2.135534 4.75,-4.75 0,-2.6144665 -2.135534,-4.75 -4.75,-4.75 z m 0,1.5 c 1.803807,0 3.25,1.446193 3.25,3.25 0,1.803807 -1.446193,3.25 -3.25,3.25 -1.803807,0 -3.25,-1.446193 -3.25,-3.25 0,-1.803807 1.446193,-3.25 3.25,-3.25 z"
     id="circle2" />
  <path
     
     d="m 18.46875,4.46875 -4,4 1.0625,1.0625 4,-4 z"
     id="path2" />
  <path
     
     d="m 8.46875,14.46875 -4,4 1.0625,1.0625 4,-4 z"
     id="path3" />
  <path
     
     d="m 5.53125,4.46875 -1.0625,1.0625 4,4 1.0625,-1.0625 z"
     id="path4" />
  <path
     
     d="m 15.53125,14.46875 -1.0625,1.0625 4,4 1.0625,-1.0625 z"
     id="path5" />
</svg>
