<?xml version="1.0" encoding="UTF-8" standalone="no"?>
<svg
   width="24"
   height="24"
   viewBox="0 0 24 24"
   
   version="1.1"
   id="svg5"
   xmlns="http://www.w3.org/2000/svg"
   xmlns:svg="http://www.w3.org/2000/svg">
  <defs
     id="defs5" />
  <path
     
     d="m 5.8828125,2.2539063 c -0.9314371,0 -1.8620387,0.3542199 -2.5683594,1.0605468 -1.4126538,1.4126413 -1.4126538,3.7260306 0,5.1386719 L 15.546875,20.685547 c 1.412696,1.412571 3.725975,1.412571 5.138672,0 1.412571,-1.412697 1.412571,-3.725976 0,-5.138672 L 8.453125,3.3144531 C 7.7468044,2.6081262 6.8142496,2.2539063 5.8828125,2.2539063 Z m 0,1.4921875 c 0.5444114,0 1.0900574,0.2091942 1.5097656,0.6289062 L 19.625,16.607422 c 0.839427,0.839501 0.839427,2.178077 0,3.017578 -0.839501,0.839427 -2.178077,0.839427 -3.017578,0 L 4.375,7.3925781 C 3.5355761,6.5531616 3.5355761,5.2144165 4.375,4.375 4.7947082,3.955288 5.3384011,3.7460938 5.8828125,3.7460938 Z"
     id="path1" />
  <path

     d="M 10,5.25 A 0.75,0.75 0 0 0 9.46875,5.46875 l -4,4 a 0.75,0.75 0 0 0 0,1.0625 0.75,0.75 0 0 0 1.0625,0 l 4,-4 a 0.75,0.75 0 0 0 0,-1.0625 A 0.75,0.75 0 0 0 10,5.25 Z"
     id="path2" />
  <path
     
     d="m 16.548828,1.5 c -0.369499,0 -0.759101,0.2307724 -0.914062,0.625 L 15.207031,3.2128906 14.123047,3.6425781 C 13.7287,3.7986742 13.5,4.1897629 13.5,4.5585937 c 0,0.3688309 0.2287,0.7599196 0.623047,0.9160157 l 1.085937,0.4316406 0.425782,1.0878906 c 0.154964,0.3942254 0.544565,0.6250025 0.914062,0.625 0.369497,-2.5e-6 0.761054,-0.2307724 0.916016,-0.625 L 17.890625,5.90625 18.976562,5.4746094 c 0.394348,-0.1560961 0.623047,-0.5471848 0.623047,-0.9160157 0,-0.3688308 -0.228699,-0.7599195 -0.623047,-0.9160156 L 17.892578,3.2128906 17.464844,2.125 C 17.30996,1.7307252 16.918328,1.5 16.548828,1.5 Z m 0,1.0292969 0.416016,1.0566406 c 0.09961,0.2531853 0.299187,0.4543266 0.552734,0.5546875 l 1.056641,0.4179687 -1.056641,0.4199219 C 17.264052,5.078868 17.064461,5.2800094 16.964844,5.5332031 L 16.548828,6.5898437 16.134766,5.5332031 C 16.035148,5.2800094 15.835557,5.078868 15.582031,4.9785156 l -1.05664,-0.4199219 1.05664,-0.4179687 c 0.253548,-0.1003609 0.453121,-0.3015022 0.552735,-0.5546875 z"
     id="path3" />
  <path
     
     d="m 20.416016,8.3222656 c -0.369495,0 -0.759163,0.2306946 -0.914063,0.625 l -0.154297,0.3925782 -0.392578,0.1542968 c -0.394333,0.1561385 -0.621094,0.5472294 -0.621094,0.9160154 0,0.368786 0.226737,0.761869 0.621094,0.917969 l 0.392578,0.154297 0.154297,0.392578 c 0.154894,0.39431 0.544559,0.625 0.914063,0.625 0.369504,0 0.761122,-0.23069 0.916015,-0.625 l 0.154297,-0.392578 0.390625,-0.154297 C 22.271332,11.172055 22.5,10.778987 22.5,10.410156 22.5,10.041325 22.271309,9.6502497 21.876953,9.4941406 L 21.486328,9.3398438 21.332031,8.9472656 c -0.154899,-0.3943054 -0.546521,-0.625 -0.916015,-0.625 z m 0,1.0292969 0.142578,0.359375 c 0.09961,0.2531853 0.299159,0.4562895 0.552734,0.5566405 l 0.365234,0.142578 -0.365234,0.144532 c -0.253624,0.10035 -0.453105,0.301563 -0.552734,0.554687 l -0.142578,0.361328 -0.140625,-0.361328 c -0.09963,-0.253124 -0.29911,-0.454337 -0.552735,-0.554687 l -0.365234,-0.144532 0.365234,-0.142578 c 0.253575,-0.100351 0.453121,-0.3034552 0.552735,-0.5566405 z"
     id="path4" />
  <path
     
     d="m 5.5820312,14.5 c -0.3695039,0 -0.7591467,0.230732 -0.9140625,0.625 L 4.5136719,15.517578 4.1210937,15.671875 C 3.7267189,15.827951 3.5,16.219069 3.5,16.587891 c 0,0.368821 0.2267189,0.761892 0.6210937,0.917968 l 0.3925782,0.154297 0.1542968,0.392578 c 0.1549158,0.394268 0.5445586,0.625 0.9140625,0.625 0.369504,0 0.7610999,-0.230732 0.9160157,-0.625 l 0.1542968,-0.392578 0.390625,-0.154297 c 0.3943749,-0.156076 0.6230469,-0.549147 0.6230469,-0.917968 0,-0.368822 -0.228672,-0.75994 -0.6230469,-0.916016 L 6.6523437,15.517578 6.4980469,15.125 C 6.3431311,14.730732 5.9515352,14.5 5.5820312,14.5 Z m 0,1.029297 0.1425782,0.359375 c 0.099552,0.253437 0.2991376,0.456293 0.5527343,0.55664 L 6.640625,16.587891 6.2773437,16.732422 C 6.023747,16.83277 5.8241611,17.035625 5.7246094,17.289062 L 5.5820312,17.648437 5.4414062,17.289062 C 5.3418546,17.035625 5.1422686,16.83277 4.8886719,16.732422 L 4.5253906,16.587891 4.8886719,16.445312 c 0.2535967,-0.100347 0.4531827,-0.303203 0.5527343,-0.55664 z"
     id="path5" />
</svg>
