<?xml version="1.0" encoding="UTF-8" standalone="no"?>
<svg
   width="24"
   height="24"
   viewBox="0 0 24 24"

   version="1.1"
   id="svg2"
   xmlns="http://www.w3.org/2000/svg"
   xmlns:svg="http://www.w3.org/2000/svg">
  <defs
     id="defs2" />
  <path

     d="m 12,2.25 c -5.3834538,0 -9.75,4.4567493 -9.75,9.917969 0,1.912648 0.5334537,3.705304 1.4589844,5.222656 l 1.28125,-0.78125 C 4.2042068,15.32073 3.75,13.801917 3.75,12.167969 3.75,7.5025583 7.4423437,3.75 12,3.75 c 4.5577,0 8.25,3.7525544 8.25,8.417969 0,1.633953 -0.454193,3.152768 -1.240234,4.441406 l 1.28125,0.78125 C 21.216573,15.873265 21.75,14.080612 21.75,12.167969 21.75,6.7067532 17.38349,2.25 12,2.25 Z"
     id="path1" />
  <path
     d="M 3.3632813,16.25 C 2.2048485,16.25 1.25,17.204844 1.25,18.363281 1.25,20.776912 3.2230783,22.75 5.6367187,22.75 H 18.363281 C 20.776922,22.75 22.75,20.776922 22.75,18.363281 22.75,17.204858 21.795142,16.25 20.636719,16.25 h -3.808594 c -0.729023,0 -1.427819,0.289147 -1.943359,0.804687 l -0.830078,0.830079 C 13.820029,18.119424 13.503651,18.25 13.171875,18.25 h -2.34375 c -0.331776,0 -0.648188,-0.130597 -0.8828125,-0.365234 L 9.1152344,17.054687 C 8.5997048,16.53913 7.900923,16.25 7.171875,16.25 Z m 0,1.5 H 7.171875 c 0.331831,0 0.6481829,0.130592 0.8828125,0.365234 l 0.8300781,0.830078 C 9.4003,19.460874 10.099102,19.75 10.828125,19.75 h 2.34375 c 0.729023,0 1.427819,-0.289147 1.943359,-0.804688 l 0.830079,-0.830078 C 16.179971,17.880576 16.496349,17.75 16.828125,17.75 h 3.808594 C 20.984494,17.75 21.25,18.015506 21.25,18.363281 21.25,19.966237 19.966237,21.25 18.363281,21.25 H 5.6367187 C 4.0337632,21.25 2.75,19.966247 2.75,18.363281 2.75,18.01552 3.0154755,17.75 3.3632813,17.75 Z"
     id="path2" />
</svg>
