<?xml version="1.0" encoding="UTF-8" standalone="no"?>
<svg
   width="24"
   height="24"
   viewBox="0 0 24 24"
   version="1.1"
   id="svg4"
   xmlns="http://www.w3.org/2000/svg"
   xmlns:svg="http://www.w3.org/2000/svg">
  <defs
     id="defs4" />
  <path
     
     d="M 8.9667969,1.25 C 7.3470835,1.25 6.117891,1.2436591 5.1054687,1.3867187 4.0930465,1.5297784 3.2369538,1.8625517 2.6425781,2.5527344 2.0481966,3.2429162 1.846763,4.1396658 1.8554687,5.1621094 1.8641745,6.184553 2.0507459,7.4001598 2.2910156,9.0019531 l 1.2011719,7.9999999 c 0.1828198,1.218799 0.3187288,2.14719 0.5371094,2.923828 0.2183805,0.776638 0.5486716,1.434815 1.1074218,1.916016 0.5587509,0.481207 1.2581592,0.709786 2.0585938,0.810547 C 7.9957471,22.753105 8.93556,22.75 10.167969,22.75 h 3.664062 c 1.232449,0 2.172223,0.0031 2.972656,-0.09766 0.800434,-0.100761 1.499856,-0.329339 2.058594,-0.810547 0.558793,-0.481197 0.890994,-1.139369 1.109375,-1.916016 0.218382,-0.776646 0.352357,-1.705029 0.535156,-2.923828 L 21.708984,9.0019531 C 21.949285,7.4001571 22.13583,6.1845554 22.144531,5.1621094 22.153233,4.1396634 21.951768,3.2429138 21.357422,2.5527344 20.76302,1.8625672 19.906954,1.5297782 18.894531,1.3867187 17.882109,1.2436593 16.652902,1.25 15.033203,1.25 Z m 0,1.5 h 6.0664061 c 1.619699,0 2.81869,0.00552 3.650391,0.1230469 0.8317,0.1175227 1.233812,0.3060414 1.537109,0.6582031 0.303253,0.3521496 0.430977,0.7772579 0.423828,1.6171875 -0.0071,0.8399296 -0.179623,2.0290786 -0.419922,3.6308594 l -1.199218,8.0000001 c -0.1828,1.218799 -0.322629,2.116382 -0.498047,2.740234 -0.175418,0.623852 -0.357371,0.939945 -0.642578,1.185547 -0.285161,0.245592 -0.624613,0.378046 -1.267579,0.458984 C 15.974222,21.245001 15.06448,21.25 13.832031,21.25 H 10.167969 C 8.93556,21.25 8.0257814,21.245 7.3828125,21.16406 6.7398436,21.083124 6.4004027,20.950671 6.1152344,20.705078 5.8300554,20.459479 5.6480778,20.143392 5.4726562,19.519531 5.2972347,18.895671 5.1574292,17.998096 4.9746094,16.779297 L 3.7753906,8.7792969 C 3.5351209,7.1775034 3.3626205,5.988367 3.3554688,5.1484375 3.348317,4.308508 3.4760293,3.8833972 3.7792969,3.53125 4.0825603,3.1791037 4.4847079,2.9905695 5.3164062,2.8730469 6.1481046,2.7555243 7.3470835,2.75 8.9667969,2.75 Z"
     id="path1" />
  <path
    
     d="m 4.53125,5.46875 -1.0625,1.0625 1.6015625,1.6015625 -2.1269531,2.3652345 a 0.750075,0.750075 0 0 0 0.00977,1.015625 l 2.1640625,2.306641 -1.6484375,1.648437 1.0625,1.0625 1.6132812,-1.613281 1.8750001,2 -1.5507813,1.550781 1.0625,1.0625 1.515625,-1.515625 1.4062496,1.498047 1.09375,-1.027344 -1.4375,-1.533203 L 12,15.0625 l 1.890625,1.890625 -1.4375,1.533203 1.09375,1.027344 1.40625,-1.498047 1.515625,1.515625 1.0625,-1.0625 -1.550781,-1.550781 1.875,-2 1.613281,1.613281 1.0625,-1.0625 -1.648438,-1.648437 2.164063,-2.306641 a 0.750075,0.750075 0 0 0 0.0098,-1.015625 L 18.929687,8.1328125 20.53125,6.53125 19.46875,5.46875 17.921875,7.015625 16.556641,5.4980469 15.443359,6.5019531 16.861328,8.0761719 15,9.9375 13.0625,8 14.53125,6.53125 13.46875,5.46875 12,6.9375 10.53125,5.46875 9.46875,6.53125 10.9375,8 9,9.9375 7.1386719,8.0761719 8.5566406,6.5019531 7.4433594,5.4980469 6.078125,7.015625 Z M 12,9.0625 13.9375,11 12,12.9375 10.0625,11 Z M 6.1328125,9.1953125 7.9375,11 6.1777344,12.759766 4.5175781,10.990234 Z m 11.7343745,0 1.615235,1.7949215 -1.660156,1.769532 L 16.0625,11 Z M 9,12.0625 10.9375,14 l -1.8574219,1.857422 -1.875,-2 z m 6,0 1.794922,1.794922 -1.875,2 L 13.0625,14 Z"
     id="path2" />
  <path
   
     d="M 3,5.25 A 0.75,0.75 0 0 0 2.25,6 0.75,0.75 0 0 0 3,6.75 H 21 A 0.75,0.75 0 0 0 21.75,6 0.75,0.75 0 0 0 21,5.25 Z"
     id="path3" />
  <path
   
     d="M 5,18.25 A 0.75,0.75 0 0 0 4.25,19 0.75,0.75 0 0 0 5,19.75 H 19 A 0.75,0.75 0 0 0 19.75,19 0.75,0.75 0 0 0 19,18.25 Z"
     id="path4" />
</svg>
