<?xml version="1.0" encoding="UTF-8" standalone="no"?>
<svg
   width="24"
   height="24"
   viewBox="0 0 24 24"
   version="1.1"
   id="svg7"
   xmlns="http://www.w3.org/2000/svg"
   xmlns:svg="http://www.w3.org/2000/svg">
  <defs
     id="defs7" />
  <path
     
     d="M 10,1.25 C 9.2928957,1.25 8.7473408,1.2461595 8.2539063,1.3125 7.7604717,1.3788405 7.2701323,1.546274 6.9082031,1.9082031 6.546274,2.2701323 6.3788405,2.7604717 6.3125,3.2539063 6.2461595,3.7473408 6.25,4.2928957 6.25,5 V 5.421875 A 0.75,0.75 0 0 0 6.265625,5.4609375 0.75,0.75 0 0 0 6.25,5.5 V 7 A 0.750075,0.750075 0 0 0 7,7.75 h 6 A 0.750075,0.750075 0 0 0 13.75,7 V 5.421875 5 C 13.75,4.2928957 13.7538,3.7473335 13.6875,3.2539063 13.621167,2.760479 13.4537,2.2701387 13.091797,1.9082031 12.729849,1.5463051 12.23953,1.3788401 11.746094,1.3125 11.252658,1.2461599 10.707099,1.25 10,1.25 Z m 0,1.5 c 0.707099,0 1.223362,0.00533 1.546875,0.048828 0.323513,0.043495 0.406923,0.09248 0.484375,0.1699219 0.0774,0.077404 0.12643,0.1608605 0.169922,0.484375 C 12.244663,3.7766395 12.25,4.2928957 12.25,5 V 5.421875 6.25 H 7.75 V 5.5 A 0.75,0.75 0 0 0 7.7402344,5.4472656 0.75,0.75 0 0 0 7.75,5.421875 V 5 C 7.75,4.2928957 7.75533,3.7766322 7.798828,3.453125 7.8423225,3.1296178 7.8913396,3.0461604 7.96875,2.96875 8.0461604,2.8913396 8.1296178,2.8423225 8.453125,2.7988281 8.7766322,2.7553337 9.2928957,2.75 10,2.75 Z"
     id="path1" />
  <path
     
     d="M 7,6.25 A 0.75,0.75 0 0 0 6.25,7 0.75,0.75 0 0 0 7,7.75 h 6 A 0.75,0.75 0 0 0 13.75,7 0.75,0.75 0 0 0 13,6.25 Z"
     id="path2" />
  <path
     
     d="m 7,3.25 v 1 0.5 1 C 7.2525693,5.75 7.5309733,5.79725 7.9296875,5.673828 8.1290446,5.6121174 8.3761307,5.4717711 8.5371094,5.2402344 8.6980881,5.0086976 8.75,4.7394042 8.75,4.5 8.75,4.2605958 8.6982382,3.9913512 8.5371094,3.7597656 8.3759805,3.5281801 8.1270984,3.3877305 7.9277344,3.3261719 7.5290063,3.2030545 7.2523158,3.25 7,3.25 Z"
     id="path3" />
  <path
     
     d="m 10,6.25 c -4.7980157,0 -8.75,3.6721076 -8.75,8.244141 0,2.114928 0.8508429,4.050513 2.234375,5.503906 0.4501258,0.472917 0.8660808,0.85793 1.8671875,1.287109 C 6.4098645,21.73885 7.2398069,21.75 8.5410156,21.75 h 2.9179684 c 1.301199,0 2.131111,-0.01116 3.189454,-0.464844 1.001057,-0.429176 1.41705,-0.81417 1.867187,-1.287109 C 17.899137,18.544652 18.75,16.609064 18.75,14.494141 18.75,9.92211 14.798034,6.25 10,6.25 Z m 0,1.5 c 4.038557,0 7.25,3.037379 7.25,6.744141 0,1.714673 -0.681627,3.274501 -1.820312,4.470703 -0.450063,0.47286 -0.485154,0.561583 -1.371094,0.941406 C 13.229738,20.261562 12.760183,20.25 11.458984,20.25 H 8.5410156 C 7.2398069,20.25 6.7702024,20.26156 5.9414062,19.90625 5.0554348,19.52643 5.0204058,19.437726 4.5703125,18.964844 3.4316071,17.76864 2.75,16.208808 2.75,14.494141 2.75,10.787382 5.9614646,7.75 10,7.75 Z"
     id="path4" />
  <path
     
     d="M 2.78125,12.304688 A 0.75,0.75 0 0 0 1.8046875,12.71875 0.75,0.75 0 0 0 2.21875,13.695313 c 1.3074878,0.528913 3.128885,1.757687 5.5585937,2.03125 1.7163877,0.193281 3.0397363,-0.436268 4.1718753,-0.953125 1.132138,-0.516858 2.061755,-0.926818 3.326172,-0.716797 0.984864,0.163595 1.924575,0.468709 2.361328,0.710937 a 0.75,0.75 0 0 0 1.019531,-0.291015 0.75,0.75 0 0 0 -0.292969,-1.019532 c -0.716845,-0.397571 -1.730463,-0.694302 -2.841797,-0.878906 -1.70908,-0.283879 -3.05105,0.307686 -4.195312,0.830078 -1.144262,0.522392 -2.1019402,0.97019 -3.3808595,0.826172 C 5.9394857,14.008538 4.3437793,12.936772 2.78125,12.304688 Z"
     id="path5" />
  <path
     
     d="m 13.5,4.25 v 1.5 h 0.820313 c 0.659779,0 1.310343,0.1541699 1.90039,0.4492187 L 17.164062,6.6699219 17.835937,5.3300781 16.890625,4.8574219 C 16.092273,4.4582114 15.212931,4.25 14.320313,4.25 Z"
     id="path6" />
  <path
     
     d="M 18.529297,4.1347656 C 17.767168,4.2560499 17.088314,4.6596988 16.685547,5.3574219 15.879911,6.7527777 16.64848,8.5107844 18.125,9.3632813 19.601595,10.215738 21.508829,10.002758 22.314453,8.6074219 23.120084,7.2120599 22.351625,5.4520833 20.875,4.5996094 20.136732,4.1733566 19.291426,4.0134813 18.529297,4.1347656 Z m 0.294922,1.4765625 c 0.383395,-0.053183 0.84335,0.023003 1.300781,0.2871094 0.914972,0.5282247 1.189593,1.4411683 0.890625,1.9589844 C 20.71665,8.3752443 19.790003,8.5926955 18.875,8.0644531 17.960123,7.5362313 17.685412,6.6252241 17.984375,6.1074219 18.133808,5.8485559 18.440824,5.6645111 18.824219,5.6113281 Z"
     id="path7" />
</svg>
