<?xml version="1.0" encoding="UTF-8" standalone="no"?>
<svg
   width="24"
   height="24"
   viewBox="0 0 24 24"

   version="1.1"
   id="svg5"
   xmlns="http://www.w3.org/2000/svg"
   xmlns:svg="http://www.w3.org/2000/svg">
  <defs
     id="defs5" />
  <path
     
     d="m 6.5,8.75 c -1.7860432,0 -3.25,1.463968 -3.25,3.25 0,1.786032 1.4639568,3.25 3.25,3.25 1.7860432,0 3.25,-1.463968 3.25,-3.25 0,-1.786032 -1.4639568,-3.25 -3.25,-3.25 z m 0,1.5 c 0.9753741,0 1.75,0.774635 1.75,1.75 0,0.975365 -0.7746259,1.75 -1.75,1.75 -0.9753741,0 -1.75,-0.774635 -1.75,-1.75 0,-0.975365 0.7746259,-1.75 1.75,-1.75 z"
     id="path1" />
  <path
     
     d="m 13.570313,5.8847656 -5.0000005,3.5 A 0.75,0.75 0 0 0 8.3847656,10.429688 0.75,0.75 0 0 0 9.4296875,10.615234 L 14.429688,7.1152344 A 0.75,0.75 0 0 0 14.615234,6.0703125 0.75,0.75 0 0 0 13.570313,5.8847656 Z"
     id="path2" />
  <path
     
     d="m 9.4296875,13.384766 a 0.75,0.75 0 0 0 -1.0449219,0.185547 0.75,0.75 0 0 0 0.1855469,1.044921 l 5.0000005,3.5 a 0.75,0.75 0 0 0 1.044921,-0.185547 0.75,0.75 0 0 0 -0.185546,-1.044921 z"
     id="path3" />
  <path
     
     d="m 16.5,15.25 c -1.786036,0 -3.25,1.463964 -3.25,3.25 0,1.786036 1.463964,3.25 3.25,3.25 1.786036,0 3.25,-1.463964 3.25,-3.25 0,-1.786036 -1.463964,-3.25 -3.25,-3.25 z m 0,1.5 c 0.975361,0 1.75,0.774639 1.75,1.75 0,0.975361 -0.774639,1.75 -1.75,1.75 -0.975361,0 -1.75,-0.774639 -1.75,-1.75 0,-0.975361 0.774639,-1.75 1.75,-1.75 z"
     id="path4" />
  <path
     
     d="m 16.5,2.25 c -1.786032,0 -3.25,1.4639568 -3.25,3.25 0,1.7860432 1.463968,3.25 3.25,3.25 1.786032,0 3.25,-1.4639568 3.25,-3.25 0,-1.7860432 -1.463968,-3.25 -3.25,-3.25 z m 0,1.5 c 0.975365,0 1.75,0.7746259 1.75,1.75 0,0.9753741 -0.774635,1.75 -1.75,1.75 -0.975365,0 -1.75,-0.7746259 -1.75,-1.75 0,-0.9753741 0.774635,-1.75 1.75,-1.75 z"
     id="path5" />
</svg>
