<?xml version="1.0" encoding="UTF-8" standalone="no"?>
<svg
   width="24"
   height="24"
   viewBox="0 0 24 24"
   
   version="1.1"
   id="svg3"
   xmlns="http://www.w3.org/2000/svg"
   xmlns:svg="http://www.w3.org/2000/svg">
  <defs
     id="defs3" />
  <path
     
     d="M 12,1.25 C 10.585786,1.25 9.5093262,1.2459295 8.6074219,1.3671875 7.7055175,1.4884455 6.9292542,1.7660583 6.3476562,2.3476563 5.7660583,2.9292542 5.4884455,3.7055175 5.3671875,4.6074219 5.2459295,5.5093262 5.25,6.5857864 5.25,8 v 8 c 0,1.414199 -0.00407,2.490678 0.1171875,3.392578 0.1212581,0.901901 0.3988767,1.67816 0.9804687,2.259766 0.5815963,0.581609 1.3578595,0.859207 2.2597657,0.980468 C 9.5093281,22.754074 10.585786,22.75 12,22.75 c 1.414199,0 2.490676,0.0041 3.392578,-0.117188 0.901903,-0.121261 1.678162,-0.398865 2.259766,-0.980468 0.581603,-0.581604 0.859207,-1.357863 0.980468,-2.259766 C 18.754074,18.490676 18.75,17.414199 18.75,16 V 8 C 18.75,6.5857864 18.7541,5.5093281 18.632812,4.6074219 18.511551,3.7055157 18.233953,2.9292525 17.652344,2.3476563 17.070738,1.7660642 16.294479,1.4884456 15.392578,1.3671875 14.490678,1.2459294 13.414199,1.25 12,1.25 Z m 0,1.5 c 1.414199,0 2.459433,0.0051 3.191406,0.1035156 0.731973,0.098412 1.103297,0.2576004 1.400391,0.5546875 0.297089,0.2970829 0.456274,0.668416 0.554687,1.4003906 C 17.244898,5.5405684 17.25,6.5857864 17.25,8 v 8 c 0,1.414199 -0.0051,2.459435 -0.103516,3.191406 -0.09841,0.731971 -0.257592,1.103295 -0.554687,1.400391 -0.297096,0.297095 -0.66842,0.456274 -1.400391,0.554687 C 14.459435,21.244898 13.414199,21.25 12,21.25 10.585786,21.25 9.5405684,21.244898 8.8085938,21.146484 8.0766191,21.048071 7.705286,20.888886 7.4082031,20.591797 7.111116,20.294703 6.9519274,19.923379 6.8535156,19.191406 6.7551039,18.459433 6.75,17.414199 6.75,16 V 8 C 6.75,6.5857864 6.7551,5.5405702 6.8535156,4.8085937 6.9519274,4.0766173 7.1111219,3.7052843 7.4082031,3.4082031 7.7052843,3.1111219 8.0766173,2.9519274 8.8085938,2.8535156 9.5405702,2.7551039 10.585786,2.75 12,2.75 Z"
     id="path1" />
  <path
     
     d="m 18,3.75 v 1.5 c 1.400099,0 1.996028,0.03912 2.294922,0.1914062 0.329351,0.1678194 0.595811,0.434254 0.763672,0.7636719 C 21.210882,6.5039434 21.25,7.0998714 21.25,8.5 v 7 c 0,1.400099 -0.03911,1.996035 -0.191406,2.294922 -0.167851,0.329399 -0.434273,0.595821 -0.763672,0.763672 C 19.996035,18.710888 19.400099,18.75 18,18.75 v 1.5 c 1.400099,0 2.203898,0.03919 2.974609,-0.353516 0.611401,-0.311549 1.110326,-0.810474 1.421875,-1.421875 C 22.78919,17.703898 22.75,16.900099 22.75,15.5 v -7 C 22.75,7.0998714 22.78919,6.2960843 22.396484,5.5253906 22.084945,4.9140095 21.586057,4.4150758 20.974609,4.1035156 20.203904,3.7108423 19.400099,3.75 18,3.75 Z"
     id="path2" />
  <path
     
     d="M 6,3.75 C 4.5998714,3.75 3.7960777,3.7108367 3.0253906,4.1035156 2.4139621,4.415066 1.915066,4.9139621 1.6035156,5.5253906 1.2108367,6.2960777 1.25,7.0998714 1.25,8.5 v 7 c 0,1.400099 -0.039158,2.203904 0.3535156,2.974609 0.3115602,0.611448 0.8104939,1.110336 1.421875,1.421875 C 3.7960843,20.289195 4.5998714,20.25 6,20.25 v -1.5 C 4.5998714,18.75 4.0039434,18.710882 3.7050781,18.558594 3.3756602,18.390733 3.1092256,18.124273 2.9414063,17.794922 2.7891201,17.496028 2.75,16.900099 2.75,15.5 v -7 C 2.75,7.0998714 2.7891257,6.50395 2.9414063,6.2050781 3.1092354,5.8757076 3.3757076,5.6092354 3.7050781,5.4414062 4.00395,5.2891257 4.5998714,5.25 6,5.25 Z"
     id="path3" />
</svg>
