<?xml version="1.0" encoding="UTF-8" standalone="no"?>
<svg
   width="24"
   height="24"
   viewBox="0 0 24 24"
   
   version="1.1"
   id="svg2"
   xmlns="http://www.w3.org/2000/svg"
   xmlns:svg="http://www.w3.org/2000/svg">
  <defs
     id="defs2" />
  <path
     d="M 8.75,19 C 8.75,18.5858 8.41421,18.25 8,18.25 7.58579,18.25 7.25,18.5858 7.25,19 Z m 2.5,-7 v 8 h 1.5 v -8 z m -2.5,8 v -1 h -1.5 v 1 z M 12,12.75 h 9.5238 v -1.5 H 12 Z m 0.4762,-11.5 h -0.9524 v 1.5 h 0.9524 z M 2.47619,12.75 H 12 v -1.5 H 2.47619 Z M 1.25,11.5238 c 0,0.6772 0.54898,1.2262 1.22619,1.2262 v -1.5 c 0.15122,0 0.27381,0.1226 0.27381,0.2738 z m 21.5,0 C 22.75,5.84974 18.1503,1.25 12.4762,1.25 v 1.5 c 4.8456,0 8.7738,3.92817 8.7738,8.7738 z M 21.5238,12.75 c 0.6772,0 1.2262,-0.549 1.2262,-1.2262 h -1.5 c 0,-0.1512 0.1226,-0.2738 0.2738,-0.2738 z M 10,21.25 C 9.30964,21.25 8.75,20.6904 8.75,20 h -1.5 c 0,1.5188 1.23122,2.75 2.75,2.75 z m 1.5238,-20 C 5.84974,1.25 1.25,5.84974 1.25,11.5238 h 1.5 C 2.75,6.67817 6.67817,2.75 11.5238,2.75 Z M 11.25,20 c 0,0.6904 -0.5596,1.25 -1.25,1.25 v 1.5 c 1.5188,0 2.75,-1.2312 2.75,-2.75 z"
     
     id="path1" />
  <path
     
     d="M 12,1.25 C 10.855121,1.25 9.8929046,1.8651251 9.1953125,2.7011719 8.4977204,3.5372186 7.9980004,4.6063297 7.6054687,5.7382812 6.8204054,8.0021843 6.4825124,10.5382 6.3398437,11.923828 l 1.4921875,0.152344 C 7.9685223,10.750542 8.3096798,8.2867932 9.0234375,6.2285156 9.3803163,5.1993768 9.8342393,4.2774268 10.347656,3.6621094 10.861073,3.0467919 11.367816,2.75 12,2.75 c 0.632175,0 1.13893,0.2967917 1.652344,0.9121094 0.513414,0.6153177 0.967339,1.5372666 1.324219,2.5664062 0.713759,2.0582793 1.054894,4.5220164 1.191406,5.8476564 l 1.492187,-0.152344 C 17.517468,10.53821 17.179595,8.0021826 16.394531,5.7382812 16.001999,4.6063306 15.502275,3.5372184 14.804688,2.7011719 14.1071,1.8651254 13.144874,1.25 12,1.25 Z"
     id="path2" />
</svg>
