<?xml version="1.0" encoding="utf-8"?>
<!-- Generator: Adobe Illustrator 27.9.0, SVG Export Plug-In . SVG Version: 6.00 Build 0)  -->
<svg version="1.1" id="Calque_1" xmlns="http://www.w3.org/2000/svg" xmlns:xlink="http://www.w3.org/1999/xlink" x="0px" y="0px"
	 viewBox="0 0 24 24" style="enable-background:new 0 0 24 24;" xml:space="preserve">
<path d="M12,6.8c-0.4,0-0.8-0.3-0.8-0.8V2c0-0.4,0.3-0.8,0.8-0.8s0.8,0.3,0.8,0.8v4C12.8,6.4,12.4,6.8,12,6.8z"/>
<path d="M12.8,2.8C12.8,2.3,12.4,2,12,2s-0.8,0.3-0.8,0.8v4c0,0.4,0.3,0.8,0.8,0.8s0.8-0.3,0.8-0.8V2.8z"/>
<path d="M8.8,5.1c0.4-0.2,0.6-0.6,0.4-1C9,3.8,8.6,3.6,8.2,3.8c-3.5,1.5-6,4.9-6,9c0,5.4,4.4,9.7,9.8,9.7c5.4,0,9.8-4.4,9.8-9.7
	c0-4-2.5-7.5-6-9c-0.4-0.2-0.8,0-1,0.4c-0.2,0.4,0,0.8,0.4,1c3,1.3,5,4.2,5,7.6c0,4.6-3.7,8.2-8.2,8.2c-4.6,0-8.2-3.7-8.2-8.2
	C3.8,9.3,5.8,6.4,8.8,5.1z"/>
</svg>
