<?xml version="1.0" encoding="UTF-8" standalone="no"?>
<svg
   width="24"
   height="24"
   viewBox="0 0 24 24"

   version="1.1"
   id="svg2"
   xmlns="http://www.w3.org/2000/svg"
   xmlns:svg="http://www.w3.org/2000/svg">
  <defs
     id="defs2" />
  <path
   
     d="M 12,1.25 C 9.3855335,1.25 7.25,3.3855335 7.25,6 c 0,2.6144665 2.1355335,4.75 4.75,4.75 2.614466,0 4.75,-2.1355335 4.75,-4.75 0,-2.6144665 -2.135534,-4.75 -4.75,-4.75 z m 0,1.5 c 1.803807,0 3.25,1.4461929 3.25,3.25 0,1.8038071 -1.446193,3.25 -3.25,3.25 C 10.196193,9.25 8.75,7.8038071 8.75,6 8.75,4.1961929 10.196193,2.75 12,2.75 Z"
     id="circle1" />
  <path
     
     d="m 12,12.25 c -2.3231357,0 -4.4356016,0.519809 -6.0253906,1.414063 C 4.3848203,14.558316 3.25,15.897061 3.25,17.5 c 0,0.621324 -0.00786,1.265534 0.1445313,1.921875 0.1523898,0.656341 0.5016846,1.327846 1.1328124,1.841797 C 5.7895995,22.291574 7.9370447,22.75 12,22.75 c 2.888458,0 4.788764,-0.246926 6.119141,-0.742188 1.330376,-0.495261 2.103131,-1.346532 2.402343,-2.279296 L 19.091797,19.271484 C 18.91571,19.820419 18.62805,20.219203 17.595703,20.603516 16.563357,20.987829 14.798936,21.25 12,21.25 8.0629633,21.25 6.2103985,20.700381 5.4726562,20.099609 5.1037851,19.799224 4.9530786,19.502436 4.8554687,19.082031 4.7578589,18.661627 4.75,18.121324 4.75,17.5 4.75,16.617641 5.4052994,15.707076 6.7109375,14.972656 8.0165756,14.238237 9.9048601,13.75 12,13.75 c 1.006134,0 1.964796,0.110718 2.833984,0.308594 l 0.332032,-1.462891 C 14.182406,12.371779 13.115664,12.25 12,12.25 Z"
     id="path1" />
  <path
   
     d="m 18,11.25 c -2.614443,0 -4.75,2.135557 -4.75,4.75 0,1.307251 0.532003,2.500634 1.390625,3.359375 C 15.499396,20.218146 16.692749,20.75 18,20.75 c 2.614443,0 4.75,-2.135557 4.75,-4.75 0,-1.307251 -0.531854,-2.500604 -1.390625,-3.359375 C 20.500634,11.782003 19.307251,11.25 18,11.25 Z m 0,1.5 c 0.625166,0 1.171055,0.222261 1.664062,0.525391 l -4.388671,4.388671 C 14.972261,17.171055 14.75,16.625166 14.75,16 c 0,-1.803752 1.446248,-3.25 3.25,-3.25 z m 2.724609,1.585938 C 21.02776,14.828963 21.25,15.374834 21.25,16 c 0,1.803752 -1.446248,3.25 -3.25,3.25 -0.625166,0 -1.171037,-0.22224 -1.664063,-0.525391 z"
     id="path2" />
</svg>
